<?xml version="1.0" encoding="UTF-8" standalone="no"?>
<!-- Created with Inkscape (http://www.inkscape.org/) -->

<svg
   xmlns:dc="http://purl.org/dc/elements/1.1/"
   xmlns:cc="http://creativecommons.org/ns#"
   xmlns:rdf="http://www.w3.org/1999/02/22-rdf-syntax-ns#"
   xmlns:svg="http://www.w3.org/2000/svg"
   xmlns="http://www.w3.org/2000/svg"
   xmlns:sodipodi="http://sodipodi.sourceforge.net/DTD/sodipodi-0.dtd"
   xmlns:inkscape="http://www.inkscape.org/namespaces/inkscape"
   width="130.625"
   height="244.25"
   id="svg2"
   version="1.1"
   inkscape:version="0.48.2 r9819"
   sodipodi:docname="01area-is-arcsine.pdf">
  <sodipodi:namedview
     id="base"
     pagecolor="#ffffff"
     bordercolor="#666666"
     borderopacity="1.0"
     inkscape:pageopacity="0.0"
     inkscape:pageshadow="2"
     inkscape:zoom="2.3377687"
     inkscape:cx="65.3125"
     inkscape:cy="122.125"
     inkscape:document-units="px"
     inkscape:current-layer="layer1"
     showgrid="false"
     showguides="true"
     inkscape:guide-bbox="true"
     inkscape:window-width="1280"
     inkscape:window-height="738"
     inkscape:window-x="-8"
     inkscape:window-y="-8"
     inkscape:window-maximized="1"
     fit-margin-top="0"
     fit-margin-left="0"
     fit-margin-right="0"
     fit-margin-bottom="0">
    <sodipodi:guide
       orientation="1,0"
       position="67.52679,114.45925"
       id="guide3944" />
    <sodipodi:guide
       orientation="1,0"
       position="25.8468,73.520567"
       id="guide3946" />
    <sodipodi:guide
       orientation="0,1"
       position="78.90692,23.575848"
       id="guide3002" />
  </sodipodi:namedview>
  <defs
     id="defs4">
    <marker
       inkscape:stockid="Arrow1Lend"
       orient="auto"
       refY="0.0"
       refX="0.0"
       id="Arrow1Lend"
       style="overflow:visible;">
      <path
         id="path3966"
         d="M 0.0,0.0 L 5.0,-5.0 L -12.5,0.0 L 5.0,5.0 L 0.0,0.0 z "
         style="fill-rule:evenodd;stroke:#000000;stroke-width:1.0pt;marker-start:none;"
         transform="scale(0.8) rotate(180) translate(12.5,0)" />
    </marker>
    <marker
       inkscape:stockid="Arrow1Mend"
       orient="auto"
       refY="0.0"
       refX="0.0"
       id="Arrow1Mend"
       style="overflow:visible;">
      <path
         id="path3972"
         d="M 0.0,0.0 L 5.0,-5.0 L -12.5,0.0 L 5.0,5.0 L 0.0,0.0 z "
         style="fill-rule:evenodd;stroke:#000000;stroke-width:1.0pt;marker-start:none;"
         transform="scale(0.4) rotate(180) translate(10,0)" />
    </marker>
  </defs>
  <metadata
     id="metadata7">
    <rdf:RDF>
      <cc:Work
         rdf:about="">
        <dc:format>image/svg+xml</dc:format>
        <dc:type
           rdf:resource="http://purl.org/dc/dcmitype/StillImage" />
        <dc:title></dc:title>
      </cc:Work>
    </rdf:RDF>
  </metadata>
  <g
     id="layer1"
     inkscape:groupmode="layer"
     inkscape:label="Layer 1"
     transform="translate(-101.9375,-74)">
    <path
       style="color:#000000;fill:none;stroke:#000000;stroke-width:0.5;stroke-linecap:round;stroke-linejoin:round;stroke-miterlimit:4;stroke-opacity:1;stroke-dasharray:none;stroke-dashoffset:0;marker:none;visibility:visible;display:inline;overflow:visible;enable-background:accumulate"
       d="m 127.78429,294.73757 57.07362,0"
       id="path3164"
       inkscape:connector-curvature="0" />
    <path
       style="color:#000000;fill:none;stroke:#000000;stroke-width:0.5;stroke-linecap:round;stroke-linejoin:round;stroke-miterlimit:4;stroke-opacity:1;stroke-dasharray:none;stroke-dashoffset:0;marker:none;visibility:visible;display:inline;overflow:visible;enable-background:accumulate"
       d="m 127.78429,294.73757 0,-199.999998"
       id="path3162"
       inkscape:connector-curvature="0" />
    <path
       style="color:#000000;fill:#ff7f2a;stroke:#000000;stroke-width:0;stroke-linecap:round;stroke-linejoin:round;stroke-miterlimit:4;stroke-opacity:1;stroke-dasharray:none;stroke-dashoffset:0;marker:none;visibility:visible;display:inline;overflow:visible;enable-background:accumulate"
       d="m 127.78429,244.73757 c 0.15993,0 0.31987,-7.7e-4 0.4798,-0.002 0.15993,-0.002 0.31986,-0.004 0.4798,-0.007 0.15993,-0.003 0.31986,-0.007 0.47979,-0.0115 0.15994,-0.005 0.31987,-0.01 0.4798,-0.0161 0.15993,-0.006 0.31987,-0.0131 0.4798,-0.0208 0.15993,-0.008 0.31987,-0.0162 0.4798,-0.0254 0.15993,-0.009 0.31986,-0.0193 0.4798,-0.0301 0.15993,-0.0108 0.31986,-0.0224 0.47979,-0.0348 0.15994,-0.0124 0.31987,-0.0256 0.4798,-0.0395 0.15993,-0.014 0.31987,-0.0287 0.4798,-0.0443 0.15993,-0.0156 0.31987,-0.0319 0.4798,-0.0491 0.15993,-0.0172 0.31986,-0.0351 0.4798,-0.0539 0.15993,-0.0188 0.31986,-0.0384 0.47979,-0.0588 0.15994,-0.0204 0.31987,-0.0417 0.4798,-0.0637 0.15993,-0.0221 0.31987,-0.045 0.4798,-0.0687 0.15993,-0.0238 0.31986,-0.0483 0.4798,-0.0738 0.15993,-0.0255 0.31986,-0.0518 0.4798,-0.0789 0.15993,-0.0272 0.31986,-0.0552 0.47979,-0.0841 0.15994,-0.0289 0.31987,-0.0587 0.4798,-0.0894 0.15993,-0.0307 0.31987,-0.0623 0.4798,-0.0947 0.15993,-0.0325 0.31986,-0.0659 0.4798,-0.10014 0.15993,-0.0343 0.31986,-0.0695 0.4798,-0.10567 0.15993,-0.0361 0.31986,-0.0732 0.47979,-0.11129 0.15994,-0.038 0.31987,-0.077 0.4798,-0.11701 0.15993,-0.04 0.31987,-0.0809 0.4798,-0.12285 0.15993,-0.0419 0.31986,-0.0849 0.4798,-0.1288 0.15993,-0.0439 0.31986,-0.0889 0.4798,-0.13488 0.15993,-0.046 0.31986,-0.093 0.47979,-0.1411 0.15994,-0.0481 0.31987,-0.0972 0.4798,-0.14745 0.15993,-0.0502 0.31987,-0.10154 0.4798,-0.15396 0.15993,-0.0524 0.31986,-0.10595 0.4798,-0.16062 0.15993,-0.0547 0.31986,-0.11048 0.4798,-0.16746 0.15993,-0.057 0.31986,-0.11512 0.47979,-0.17446 0.15994,-0.0593 0.31987,-0.11989 0.4798,-0.18167 0.15993,-0.0618 0.31987,-0.12478 0.4798,-0.18906 0.15993,-0.0643 0.31986,-0.12982 0.4798,-0.19668 0.15993,-0.0669 0.31986,-0.13501 0.4798,-0.20451 0.15993,-0.0695 0.31986,-0.14035 0.47979,-0.21259 0.15994,-0.0722 0.31987,-0.14586 0.4798,-0.22091 0.15993,-0.0751 0.31987,-0.15155 0.4798,-0.22952 0.15993,-0.078 0.31986,-0.15741 0.4798,-0.23839 0.15993,-0.081 0.31986,-0.16348 0.47979,-0.24757 0.15994,-0.0841 0.31987,-0.16977 0.4798,-0.25708 0.15994,-0.0873 0.31987,-0.17627 0.4798,-0.26692 0.15993,-0.0907 0.31987,-0.18301 0.4798,-0.27713 0.15993,-0.0941 0.31986,-0.19 0.4798,-0.28771 0.15993,-0.0977 0.31986,-0.19727 0.47979,-0.29872 0.15994,-0.10146 0.31987,-0.20482 0.4798,-0.31016 0.15994,-0.10534 0.31987,-0.21267 0.4798,-0.32207 0.15993,-0.10939 0.31987,-0.22085 0.4798,-0.33446 0.15993,-0.11362 0.31986,-0.22939 0.4798,-0.34741 0.15993,-0.11801 0.31986,-0.23829 0.47979,-0.3609 0.15994,-0.12262 0.31987,-0.2476 0.4798,-0.37503 0.15994,-0.12742 0.31987,-0.25732 0.4798,-0.38979 0.15993,-0.13246 0.31987,-0.26751 0.4798,-0.40525 0.15993,-0.13775 0.31986,-0.2782 0.4798,-0.42148 0.15993,-0.14328 0.31986,-0.28941 0.47979,-0.43851 0.15994,-0.1491 0.31987,-0.30119 0.4798,-0.45641 0.15994,-0.15522 0.31987,-0.31359 0.4798,-0.47526 0.15993,-0.16166 0.31987,-0.32665 0.4798,-0.49512 0.15993,-0.16846 0.31986,-0.34043 0.4798,-0.51608 0.15993,-0.17564 0.31986,-0.35499 0.47979,-0.53823 0.15994,-0.18324 0.31987,-0.3704 0.4798,-0.56169 0.15994,-0.19129 0.31987,-0.38672 0.4798,-0.58655 0.15993,-0.19982 0.31987,-0.40405 0.4798,-0.61294 0.15993,-0.20889 0.31986,-0.42247 0.4798,-0.64101 0.15993,-0.21855 0.31986,-0.44209 0.47979,-0.67093 0.15994,-0.22883 0.31987,-0.463 0.4798,-0.70284 0.15993,-0.23984 0.31987,-0.48538 0.4798,-0.73699 0.15993,-0.25161 0.31987,-0.50933 0.4798,-0.77357 0.15993,-0.26424 0.31986,-0.53503 0.4798,-0.81285 0.15993,-0.27781 0.31986,-0.56268 0.47979,-0.85512 0.15994,-0.29244 0.31987,-0.5925 0.4798,-0.90073 0.15993,-0.30824 0.31987,-0.62471 0.4798,-0.95006 0.15993,-0.32534 0.31987,-0.65961 0.4798,-1.00353 0.15993,-0.34392 0.31986,-0.69754 0.4798,-1.06168 0.15993,-0.36415 0.31986,-0.73888 0.47979,-1.12512 0.15994,-0.38624 0.31987,-0.78406 0.4798,-1.19451 0.15993,-0.41046 0.31987,-0.83363 0.4798,-1.27072 0.15993,-0.4371 0.31987,-0.8882 0.4798,-1.35471 0.15993,-0.4665 0.31986,-0.94851 0.4798,-1.44763 0.15993,-0.49911 0.31986,-1.01545 0.47979,-1.55089 0.15994,-0.53545 0.31987,-1.09011 0.4798,-1.66621 0.15993,-0.57611 0.31987,-1.17377 0.4798,-1.79563 0.15993,-0.62185 0.31987,-1.26804 0.4798,-1.94169 0.15993,-0.67365 0.31986,-1.37492 0.4798,-2.10759 0.15993,-0.73266 0.41737,-2.41472 0.41737,-2.41472 l 0,90.7641 -41.39489,0.0166 -0.2851,-49.84201"
       id="path3130"
       inkscape:connector-curvature="0"
       sodipodi:nodetypes="ccsccccsscssssccsccscccccccccccccccccccccccccccccccssccccccccscccsccsssscccsccsssccsssscccc" />
    <path
       id="path3144"
       title="1 t"
       d="m 177.78429,294.73757 0,-165.09052"
       style="color:#000000;fill:none;stroke:#000000;stroke-width:0.5;stroke-linecap:round;stroke-linejoin:round;stroke-miterlimit:4;stroke-opacity:1;stroke-dasharray:2, 2;stroke-dashoffset:0;marker:none;visibility:visible;display:inline;overflow:visible;enable-background:accumulate"
       inkscape:connector-curvature="0"
       sodipodi:nodetypes="cc" />
    <text
       xml:space="preserve"
       style="font-size:12px;font-style:normal;font-variant:normal;font-weight:normal;font-stretch:normal;line-height:125%;letter-spacing:0px;word-spacing:0px;fill:#000000;fill-opacity:1;stroke:none;font-family:Linux Libertine;-inkscape-font-specification:Linux Libertine"
       x="174.24873"
       y="307.18649"
       id="text3152"
       sodipodi:linespacing="125%"><tspan
         sodipodi:role="line"
         id="tspan3154"
         x="174.24873"
         y="307.18649">$1$</tspan></text>
    <text
       sodipodi:linespacing="125%"
       id="text3156"
       y="248.20209"
       x="116.17009"
       style="font-size:12px;font-style:normal;font-variant:normal;font-weight:normal;font-stretch:normal;line-height:125%;letter-spacing:0px;word-spacing:0px;fill:#000000;fill-opacity:1;stroke:none;font-family:Linux Libertine;-inkscape-font-specification:Linux Libertine"
       xml:space="preserve"><tspan
         y="248.20209"
         x="116.17009"
         id="tspan3158"
         sodipodi:role="line">$1$</tspan></text>
    <path
       id="path3942"
       d="m 127.78429,244.73757 c 0.15993,0 0.31987,-7.7e-4 0.4798,-0.002 0.15993,-0.002 0.31986,-0.004 0.4798,-0.007 0.15993,-0.003 0.31986,-0.007 0.47979,-0.0115 0.15994,-0.005 0.31987,-0.01 0.4798,-0.0161 0.15993,-0.006 0.31987,-0.0131 0.4798,-0.0208 0.15993,-0.008 0.31987,-0.0162 0.4798,-0.0254 0.15993,-0.009 0.31986,-0.0193 0.4798,-0.0301 0.15993,-0.0108 0.31986,-0.0224 0.47979,-0.0348 0.15994,-0.0124 0.31987,-0.0256 0.4798,-0.0395 0.15993,-0.014 0.31987,-0.0287 0.4798,-0.0443 0.15993,-0.0156 0.31987,-0.0319 0.4798,-0.0491 0.15993,-0.0172 0.31986,-0.0351 0.4798,-0.0539 0.15993,-0.0188 0.31986,-0.0384 0.47979,-0.0588 0.15994,-0.0204 0.31987,-0.0417 0.4798,-0.0637 0.15993,-0.0221 0.31987,-0.045 0.4798,-0.0687 0.15993,-0.0238 0.31986,-0.0483 0.4798,-0.0738 0.15993,-0.0255 0.31986,-0.0518 0.4798,-0.0789 0.15993,-0.0272 0.31986,-0.0552 0.47979,-0.0841 0.15994,-0.0289 0.31987,-0.0587 0.4798,-0.0894 0.15993,-0.0307 0.31987,-0.0623 0.4798,-0.0947 0.15993,-0.0325 0.31986,-0.0659 0.4798,-0.10014 0.15993,-0.0343 0.31986,-0.0695 0.4798,-0.10567 0.15993,-0.0361 0.31986,-0.0732 0.47979,-0.11129 0.15994,-0.038 0.31987,-0.077 0.4798,-0.11701 0.15993,-0.04 0.31987,-0.0809 0.4798,-0.12285 0.15993,-0.0419 0.31986,-0.0849 0.4798,-0.1288 0.15993,-0.0439 0.31986,-0.0889 0.4798,-0.13488 0.15993,-0.046 0.31986,-0.093 0.47979,-0.1411 0.15994,-0.0481 0.31987,-0.0972 0.4798,-0.14745 0.15993,-0.0502 0.31987,-0.10154 0.4798,-0.15396 0.15993,-0.0524 0.31986,-0.10595 0.4798,-0.16062 0.15993,-0.0547 0.31986,-0.11048 0.4798,-0.16746 0.15993,-0.057 0.31986,-0.11512 0.47979,-0.17446 0.15994,-0.0593 0.31987,-0.11989 0.4798,-0.18167 0.15993,-0.0618 0.31987,-0.12478 0.4798,-0.18906 0.15993,-0.0643 0.31986,-0.12982 0.4798,-0.19668 0.15993,-0.0669 0.31986,-0.13501 0.4798,-0.20451 0.15993,-0.0695 0.31986,-0.14035 0.47979,-0.21259 0.15994,-0.0722 0.31987,-0.14586 0.4798,-0.22091 0.15993,-0.0751 0.31987,-0.15155 0.4798,-0.22952 0.15993,-0.078 0.31986,-0.15741 0.4798,-0.23839 0.15993,-0.081 0.31986,-0.16348 0.47979,-0.24757 0.15994,-0.0841 0.31987,-0.16977 0.4798,-0.25708 0.15994,-0.0873 0.31987,-0.17627 0.4798,-0.26692 0.15993,-0.0907 0.31987,-0.18301 0.4798,-0.27713 0.15993,-0.0941 0.31986,-0.19 0.4798,-0.28771 0.15993,-0.0977 0.31986,-0.19727 0.47979,-0.29872 0.15994,-0.10146 0.31987,-0.20482 0.4798,-0.31016 0.15994,-0.10534 0.31987,-0.21267 0.4798,-0.32207 0.15993,-0.10939 0.31987,-0.22085 0.4798,-0.33446 0.15993,-0.11362 0.31986,-0.22939 0.4798,-0.34741 0.15993,-0.11801 0.31986,-0.23829 0.47979,-0.3609 0.15994,-0.12262 0.31987,-0.2476 0.4798,-0.37503 0.15994,-0.12742 0.31987,-0.25732 0.4798,-0.38979 0.15993,-0.13246 0.31987,-0.26751 0.4798,-0.40525 0.15993,-0.13775 0.31986,-0.2782 0.4798,-0.42148 0.15993,-0.14328 0.31986,-0.28941 0.47979,-0.43851 0.15994,-0.1491 0.31987,-0.30119 0.4798,-0.45641 0.15994,-0.15522 0.31987,-0.31359 0.4798,-0.47526 0.15993,-0.16166 0.31987,-0.32665 0.4798,-0.49512 0.15993,-0.16846 0.31986,-0.34043 0.4798,-0.51608 0.15993,-0.17564 0.31986,-0.35499 0.47979,-0.53823 0.15994,-0.18324 0.31987,-0.3704 0.4798,-0.56169 0.15994,-0.19129 0.31987,-0.38672 0.4798,-0.58655 0.15993,-0.19982 0.31987,-0.40405 0.4798,-0.61294 0.15993,-0.20889 0.31986,-0.42247 0.4798,-0.64101 0.15993,-0.21855 0.31986,-0.44209 0.47979,-0.67093 0.15994,-0.22883 0.31987,-0.463 0.4798,-0.70284 0.15993,-0.23984 0.31987,-0.48538 0.4798,-0.73699 0.15993,-0.25161 0.31987,-0.50933 0.4798,-0.77357 0.15993,-0.26424 0.31986,-0.53503 0.4798,-0.81285 0.15993,-0.27781 0.31986,-0.56268 0.47979,-0.85512 0.15994,-0.29244 0.31987,-0.5925 0.4798,-0.90073 0.15993,-0.30824 0.31987,-0.62471 0.4798,-0.95006 0.15993,-0.32534 0.31987,-0.65961 0.4798,-1.00353 0.15993,-0.34392 0.31986,-0.69754 0.4798,-1.06168 0.15993,-0.36415 0.31986,-0.73888 0.47979,-1.12512 0.15994,-0.38624 0.31987,-0.78406 0.4798,-1.19451 0.15993,-0.41046 0.31987,-0.83363 0.4798,-1.27072 0.15993,-0.4371 0.31987,-0.8882 0.4798,-1.35471 0.15993,-0.4665 0.31986,-0.94851 0.4798,-1.44763 0.15993,-0.49911 0.31986,-1.01545 0.47979,-1.55089 0.15994,-0.53545 0.31987,-1.09011 0.4798,-1.66621 0.15993,-0.57611 0.31987,-1.17377 0.4798,-1.79563 0.15993,-0.62185 0.31987,-1.26804 0.4798,-1.94169 0.15993,-0.67365 0.31986,-1.37492 0.4798,-2.10759 0.15993,-0.73266 0.31986,-1.49689 0.47979,-2.29728 0.15994,-0.80039 0.31987,-1.63713 0.4798,-2.51587 0.15993,-0.87874 0.31987,-1.79971 0.4798,-2.76992 0.15993,-0.97021 0.31986,-1.98992 0.4798,-3.06801 0.15993,-1.07809 0.31986,-2.21486 0.4798,-3.42167 0.15993,-1.20682 0.31986,-2.48403 0.47979,-3.84653 0.15994,-1.3625 0.31987,-2.81067 0.4798,-4.36442 0.15993,-1.55374 0.31987,-3.2135 0.4798,-5.00655 0.15993,-1.79306 0.31986,-3.71989 0.4798,-5.81908 0.15993,-2.09919 0.31986,-4.37122 0.4798,-6.87274 0.15993,-2.50152 0.31986,-5.23283 0.47979,-8.28115 0.15994,-3.04831 0.31987,-6.41328 0.4798,-10.23743 0.15993,-3.82415 0.31987,-8.10503 0.4798,-13.09491"
       style="color:#000000;fill:none;stroke:#000000;stroke-width:1.5;stroke-linecap:round;stroke-linejoin:round;stroke-miterlimit:4;stroke-opacity:1;stroke-dasharray:none;stroke-dashoffset:0;marker:none;visibility:visible;display:inline;overflow:visible;enable-background:accumulate"
       inkscape:connector-curvature="0" />
    <text
       sodipodi:linespacing="125%"
       id="text3948"
       y="307.18649"
       x="164.24873"
       style="font-size:12px;font-style:normal;font-variant:normal;font-weight:normal;font-stretch:normal;line-height:125%;letter-spacing:0px;word-spacing:0px;fill:#000000;fill-opacity:1;stroke:none;font-family:Linux Libertine;-inkscape-font-specification:Linux Libertine"
       xml:space="preserve"><tspan
         y="307.18649"
         x="164.24873"
         id="tspan3950"
         sodipodi:role="line">$a$</tspan></text>
    <text
       xml:space="preserve"
       style="font-size:12px;font-style:normal;font-variant:normal;font-weight:normal;font-stretch:normal;line-height:125%;letter-spacing:0px;word-spacing:0px;fill:#000000;fill-opacity:1;stroke:none;font-family:Linux Libertine;-inkscape-font-specification:Linux Libertine"
       x="136.17009"
       y="106.20209"
       id="text3952"
       sodipodi:linespacing="125%"><tspan
         sodipodi:role="line"
         id="tspan3954"
         x="136.17009"
         y="106.20209">\footnotesize$\DS y=\frac1{\sqrt{1-x^2}}$</tspan></text>
    <path
       style="fill:none;stroke:#000000;stroke-width:0.30000001;stroke-linecap:butt;stroke-linejoin:miter;stroke-miterlimit:4;stroke-opacity:1;stroke-dasharray:none;marker-end:url(#Arrow1Lend)"
       d="m 62.202348,41.14029 6.347179,53.316299"
       id="path3958"
       inkscape:connector-curvature="0"
       transform="translate(101.9375,74)"
       sodipodi:nodetypes="cc" />
    <path
       sodipodi:type="arc"
       style="fill:#ffffff;fill-opacity:1;stroke:#000000"
       id="path3004"
       sodipodi:cx="67.526787"
       sodipodi:cy="220.67415"
       sodipodi:rx="1.2372165"
       sodipodi:ry="1.2372165"
       d="m 68.764003,220.67415 a 1.2372165,1.2372165 0 1 1 -2.474433,0 1.2372165,1.2372165 0 1 1 2.474433,0 z"
       transform="translate(101.9375,74)" />
    <path
       transform="translate(101.9375,74)"
       d="m 68.764003,220.67415 a 1.2372165,1.2372165 0 1 1 -2.474433,0 1.2372165,1.2372165 0 1 1 2.474433,0 z"
       sodipodi:ry="1.2372165"
       sodipodi:rx="1.2372165"
       sodipodi:cy="220.67415"
       sodipodi:cx="67.526787"
       id="path3006"
       style="fill:#ffffff;fill-opacity:1;stroke:#000000"
       sodipodi:type="arc" />
    <path
       sodipodi:type="arc"
       style="fill:#ffffff;fill-opacity:1;stroke:#000000"
       id="path3008"
       sodipodi:cx="67.526787"
       sodipodi:cy="220.67415"
       sodipodi:rx="1.2372165"
       sodipodi:ry="1.2372165"
       d="m 68.764003,220.67415 a 1.2372165,1.2372165 0 1 1 -2.474433,0 1.2372165,1.2372165 0 1 1 2.474433,0 z"
       transform="translate(110.27772,74.000003)" />
  </g>
</svg>
