<?xml version="1.0" encoding="UTF-8" standalone="no"?>
<!-- Created with Inkscape (http://www.inkscape.org/) -->

<svg
   xmlns:dc="http://purl.org/dc/elements/1.1/"
   xmlns:cc="http://creativecommons.org/ns#"
   xmlns:rdf="http://www.w3.org/1999/02/22-rdf-syntax-ns#"
   xmlns:svg="http://www.w3.org/2000/svg"
   xmlns="http://www.w3.org/2000/svg"
   xmlns:sodipodi="http://sodipodi.sourceforge.net/DTD/sodipodi-0.dtd"
   xmlns:inkscape="http://www.inkscape.org/namespaces/inkscape"
   width="356.56323"
   height="108.68735"
   id="svg2"
   version="1.1"
   inkscape:version="0.48.2 r9819"
   sodipodi:docname="01areaunder-cubichyperbola.pdf">
  <sodipodi:namedview
     id="base"
     pagecolor="#ffffff"
     bordercolor="#666666"
     borderopacity="1.0"
     inkscape:pageopacity="0.0"
     inkscape:pageshadow="2"
     inkscape:zoom="2.3277778"
     inkscape:cx="237.78043"
     inkscape:cy="67.070404"
     inkscape:document-units="px"
     inkscape:current-layer="layer1"
     showgrid="false"
     units="in"
     showguides="false"
     inkscape:guide-bbox="true"
     inkscape:window-width="1276"
     inkscape:window-height="756"
     inkscape:window-x="4"
     inkscape:window-y="0"
     inkscape:window-maximized="1"
     fit-margin-top="0"
     fit-margin-left="0"
     fit-margin-right="0"
     fit-margin-bottom="0">
    <sodipodi:guide
       id="guide2985"
       position="161.37727,15.848665"
       orientation="0,1" />
    <sodipodi:guide
       orientation="1,0"
       position="97.829449,76.5791"
       id="guide3010" />
    <sodipodi:guide
       orientation="0,1"
       position="97.829449,76.5791"
       id="guide4426" />
  </sodipodi:namedview>
  <defs
     id="defs4">
    <marker
       inkscape:stockid="Arrow1Mend"
       orient="auto"
       refY="0"
       refX="0"
       id="Arrow1Mend"
       style="overflow:visible">
      <path
         id="path3800"
         d="M 0,0 5,-5 -12.5,0 5,5 0,0 z"
         style="fill-rule:evenodd;stroke:#000000;stroke-width:1pt;marker-start:none"
         transform="matrix(-0.4,0,0,-0.4,-4,0)"
         inkscape:connector-curvature="0" />
    </marker>
    <marker
       inkscape:stockid="Arrow1Lend"
       orient="auto"
       refY="0"
       refX="0"
       id="Arrow1Lend"
       style="overflow:visible">
      <path
         id="path3794"
         d="M 0,0 5,-5 -12.5,0 5,5 0,0 z"
         style="fill-rule:evenodd;stroke:#000000;stroke-width:1pt;marker-start:none"
         transform="matrix(-0.8,0,0,-0.8,-10,0)"
         inkscape:connector-curvature="0" />
    </marker>
  </defs>
  <metadata
     id="metadata7">
    <rdf:RDF>
      <cc:Work
         rdf:about="">
        <dc:format>image/svg+xml</dc:format>
        <dc:type
           rdf:resource="http://purl.org/dc/dcmitype/StillImage" />
        <dc:title></dc:title>
      </cc:Work>
    </rdf:RDF>
  </metadata>
  <g
     transform="translate(-1.7183771,-943.24281)"
     id="layer1"
     inkscape:groupmode="layer"
     inkscape:label="Layer 1">
    <path
       id="path3001"
       title="t 1.0/(t*t*t)"
       d="m 15.965216,118.72174 326.817384,0 m -303.96521,12.20869 0,-96.417388 m 60.730436,84.208698 c 0,0 0,-57.324364 0,-60.730436 0.189013,0.545451 1.142744,3.067772 1.284574,3.460721 0.40732,1.128515 0.81465,2.212463 1.22197,3.256242 0.40733,1.043779 0.81465,2.047139 1.22197,3.01399 0.40733,0.966852 0.81465,1.896971 1.22197,2.793853 0.40733,0.896882 0.81465,1.760324 1.22198,2.593453 0.40732,0.83313 0.81464,1.635762 1.22197,2.410704 0.40732,0.774942 0.81464,1.522025 1.22197,2.243772 0.40732,0.721747 0.81464,1.418003 1.22197,2.091042 0.40732,0.673039 0.81464,1.322719 1.22197,1.95109 0.40732,0.628372 0.81465,1.235305 1.22197,1.822653 0.40732,0.587349 0.81465,1.154994 1.22197,1.704614 0.40732,0.549619 0.81465,1.081104 1.22197,1.595976 0.40732,0.514872 0.81465,1.013031 1.22197,1.495858 0.40732,0.482828 0.81465,0.950231 1.22197,1.403469 0.40733,0.453238 0.81465,0.892223 1.22197,1.318103 0.40733,0.425881 0.81465,0.838576 1.22197,1.239132 0.40733,0.400556 0.81465,0.788899 1.22197,1.165986 0.40733,0.377086 0.81465,0.742848 1.22197,1.098159 0.40733,0.355311 0.81465,0.700108 1.22198,1.035193 0.40732,0.335085 0.81464,0.660399 1.22197,0.976677 0.40732,0.316277 0.81464,0.623465 1.22197,0.922236 0.40732,0.298772 0.81464,0.589078 1.22197,0.871538 0.40732,0.282461 0.81464,0.557028 1.22197,0.824275 0.40732,0.267248 0.81465,0.52713 1.22197,0.78017 0.40732,0.25305 0.81465,0.49921 1.22197,0.73899 0.40732,0.23977 0.81465,0.47311 1.22197,0.70047 0.40732,0.22736 0.81465,0.4487 1.22197,0.66444 0.40732,0.21574 0.81465,0.42585 1.22197,0.6307 0.40732,0.20485 0.81465,0.40442 1.22197,0.59907 0.40733,0.19464 0.81465,0.38433 1.22197,0.5694 0.40733,0.18506 0.81465,0.36547 1.22197,0.54154 0.40733,0.17606 0.81465,0.34775 1.22197,0.51536 0.40733,0.16761 0.81465,0.3311 1.22197,0.49076 0.40733,0.15965 0.81465,0.31543 1.22198,0.46759 0.40732,0.15216 0.81464,0.30068 1.22197,0.44579 0.40732,0.1451 0.81464,0.28677 1.22197,0.42523 0.40732,0.13845 0.81464,0.27367 1.22197,0.40585 0.40732,0.13218 0.81464,0.2613 1.22197,0.38756 0.40732,0.12626 0.81465,0.24963 1.22197,0.37029 0.40732,0.12066 0.81465,0.2386 1.22197,0.35397 0.40732,0.11537 0.81465,0.22817 1.22197,0.33854 0.40732,0.11037 0.81465,0.2183 1.22197,0.32394 0.40732,0.10564 0.81465,0.20897 1.22197,0.31012 0.40733,0.10116 0.81465,0.20013 1.22197,0.29703 0.40733,0.0969 0.81465,0.19175 1.22197,0.28463 0.40733,0.0929 0.81465,0.18379 1.22197,0.27285 0.40733,0.0891 0.81465,0.17626 1.22197,0.2617 0.40733,0.0854 0.81465,0.1691 1.22198,0.25109 0.40732,0.082 0.81464,0.1623 1.22197,0.24102 0.40732,0.0787 0.81464,0.15585 1.22197,0.23146 0.40732,0.0756 0.81464,0.1497 1.22197,0.22236 0.40732,0.0726 0.81464,0.14386 1.22197,0.2137 0.40732,0.0698 0.81465,0.1383 1.22197,0.20546 0.40732,0.0672 0.81465,0.13301 1.22197,0.19762 0.40732,0.0646 0.81465,0.12797 1.22197,0.19015 0.40732,0.0622 0.81465,0.12316 1.22197,0.18302 0.40732,0.0598 0.81465,0.11858 1.22197,0.17622 0.40733,0.0577 0.81465,0.11421 1.22197,0.16975 0.40733,0.0555 0.81465,0.11004 1.22197,0.16356 0.40733,0.0535 0.81465,0.10605 1.22197,0.15765 0.40733,0.0516 0.81465,0.10225 1.22197,0.15201 0.40733,0.0498 0.81465,0.0986 1.22197,0.14661 0.40733,0.048 0.81465,0.0951 1.22198,0.14147 0.40732,0.0463 0.81464,0.0918 1.22197,0.13653 0.40732,0.0447 0.81464,0.0886 1.22197,0.13181 0.40732,0.0432 0.81464,0.0856 1.22197,0.1273 0.40732,0.0417 0.81464,0.0827 1.22197,0.12297 0.40732,0.0403 0.81465,0.0799 1.22197,0.11883 0.40732,0.0389 0.81465,0.0772 1.22197,0.11486 0.40732,0.0376 0.81465,0.0747 1.22197,0.11106 0.40732,0.0364 0.81465,0.0722 1.22197,0.10741 0.40732,0.0352 0.81465,0.0698 1.22197,0.10391 0.40733,0.0341 0.81465,0.0676 1.22197,0.10055 0.40733,0.033 0.81465,0.0654 1.22197,0.0973 0.40733,0.0319 0.81465,0.0633 1.22197,0.0942 0.40733,0.0309 0.81465,0.0613 1.22197,0.0913 0.40733,0.0299 0.81465,0.0594 1.22198,0.0884 0.40732,0.029 0.81464,0.0576 1.22197,0.0857 0.40732,0.0281 0.81464,0.0558 1.22197,0.083 0.40732,0.0272 0.81464,0.0541 1.22197,0.0805 0.40732,0.0264 0.81464,0.0524 1.22197,0.078 0.40732,0.0256 0.81465,0.0508 1.22197,0.0757 0.40732,0.0249 0.81465,0.0493 1.22197,0.0734 0.40732,0.0241 0.81465,0.0478 1.22197,0.0712 0.40732,0.0234 0.81465,0.0464 1.22197,0.0691 0.40732,0.0227 0.81465,0.0451 1.22197,0.0671 0.40733,0.022 0.81465,0.0438 1.22197,0.0652 0.40733,0.0214 0.81465,0.0425 1.22197,0.0633 0.40733,0.0208 0.81465,0.0413 1.22197,0.0615 0.40733,0.0202 0.81465,0.0401 1.22197,0.0597 0.40733,0.0196 0.81465,0.039 1.22198,0.058 0.40732,0.0191 0.81464,0.0379 1.22197,0.0564 0.40732,0.0185 0.81464,0.0368 1.22197,0.0548 0.40732,0.018 0.81464,0.0358 1.22197,0.0533 0.40732,0.0175 0.81464,0.0348 1.22197,0.0519 0.40732,0.017 0.81465,0.0339 1.22197,0.0505 0.40732,0.0166 0.81465,0.0329 1.22197,0.0491 0.40732,0.0161 0.81465,0.0321 1.22197,0.0478 0.40732,0.0157 0.81465,0.0312 1.22197,0.0465 0.40732,0.0153 0.81465,0.0304 1.22197,0.0453 0.40732,0.0149 0.81465,0.0296 1.22197,0.0441 0.40733,0.0145 0.81465,0.0288 1.22197,0.0429 0.40733,0.0141 0.81465,0.0281 1.22197,0.0418 0.40733,0.0138 0.81465,0.0273 1.22197,0.0407 0.40733,0.0134 0.81465,0.0266 1.22197,0.0397 0.40733,0.0131 0.81465,0.0259 1.22198,0.0387 0.40732,0.0127 0.81464,0.0253 1.22197,0.0377 0.40732,0.0124 0.81464,0.0246 1.22197,0.0367 0.40732,0.0121 0.81464,0.024 1.22197,0.0358 0.40732,0.0118 0.81464,0.0234 1.22197,0.0349 0.40732,0.0115 0.81465,0.0228 1.22197,0.034 0.40732,0.0112 0.81465,0.0223 1.22197,0.0332 0.40732,0.0109 0.81465,0.0217 1.22197,0.0324 0.40732,0.0107 0.81465,0.0212 1.22197,0.0316 0.40732,0.0104 0.81465,0.0207 1.22197,0.0309 0.40733,0.0102 0.81465,0.0202 1.22197,0.0301 0.40733,0.01 0.81465,0.0197 1.22197,0.0294 0.40733,0.01 0.81465,0.0192 1.22197,0.0287 0.40733,0.009 0.81465,0.0188 1.22197,0.028 0.40733,0.009 0.81465,0.0183 1.22198,0.0274 0.40732,0.009 0.81464,0.0179 1.22197,0.0267 0.40732,0.009 0.81464,0.0175 1.22197,0.0261 0.40732,0.009 0.81464,0.0171 1.22197,0.0255 0.40732,0.008 0.81464,0.0167 1.22197,0.0249 0.40732,0.008 0.81465,0.0163 1.22197,0.0244 0.40732,0.008 0.81465,0.016 1.22197,0.0238 0.40732,0.008 0.81465,0.0156 1.22197,0.0233 0.40732,0.008 0.81465,0.0153 1.22197,0.0228 0.40732,0.007 0.81465,0.0149 1.22197,0.0222 0.40733,0.007 0.81465,0.0146 1.22197,0.0217 0.40733,0.007 0.81465,0.0143 1.22197,0.0213 0.40733,0.007 0.81465,0.014 1.22197,0.0208 0.40733,0.007 0.81465,0.0136 1.22197,0.0203 0.40733,0.007 0.81465,0.0134 1.22197,0.0199 0.40733,0.007 0.81465,0.0131 1.22198,0.0195 0.40732,0.006 0.81464,0.0128 1.22197,0.0191 0.40732,0.006 0.81464,0.0125 1.22197,0.0187 0.40732,0.006 0.81464,0.0122 1.22197,0.0183 0.40732,0.006 0.81464,0.012 1.22197,0.0179 0.40732,0.006 0.81465,0.0117 1.22197,0.0175 0.40732,0.006 0.81465,0.0115 1.22197,0.0171 0.40732,0.006 0.81465,0.0112 1.22197,0.0168 0.40732,0.006 0.81465,0.011 1.22197,0.0164 0.40732,0.005 0.81465,0.0108 1.22197,0.0161 0.40733,0.005 0.81465,0.0106 1.22197,0.0158 0.40733,0.005 0.81465,0.0103 1.22197,0.0155 0.40733,0.005 0.81465,0.0101 1.22197,0.0151 0.40733,0.005 0.81465,0.01 1.22197,0.0148 0.40733,0.005 0.81465,0.01 1.22198,0.0145 0.40732,0.005 0.81464,0.01 1.22197,0.0142 0.40732,0.005 0.81464,0.009 1.22197,0.014 0.40732,0.005 0.81464,0.009 1.22197,0.0137 0.40732,0.005 0.81464,0.009 1.22197,0.0134 0.40732,0.004 0.81465,0.009 1.22197,0.0132 0.40732,0.004 0.81465,0.009 1.22197,0.0129 0.40732,0.004 0.81465,0.008 1.22197,0.0127 0.40732,0.004 0.81465,0.008 1.22197,0.0124 0.40732,0.004 0.81465,0.008 1.22197,0.0122 0.40733,0.004 0.81465,0.008 1.22197,0.0119 0.40733,0.004 0.81465,0.008 1.22197,0.0117 0.40733,0.004 0.81465,0.008 1.22197,0.0115 0.40733,0.004 0.81465,0.008 1.22197,0.0113 0.40733,0.004 0.81465,0.007 1.22198,0.0111 0.40732,0.004 0.81464,0.007 1.22197,0.0109 0.40732,0.004 0.81464,0.007 1.22197,0.0107 0.40732,0.004 0.81464,0.007 1.22197,0.0105 0.40732,0.003 0.81464,0.007 1.22197,0.0103 0.40732,0.003 0.81464,0.007 1.22197,0.0101 0.40732,0.003 0.81465,0.007 1.22197,0.01 0.40732,0.003 0.81465,0.007 1.22197,0.01 0.40732,0.003 0.81465,0.006 1.22197,0.01 0.40732,0.003 0.81465,0.006 1.22197,0.009 0.40732,0.003 0.81465,0.006 1.22197,0.009 0.40733,0.003 0.81465,0.006 1.22197,0.009 0.40733,0.003 0.81465,0.006 1.22197,0.009 0.40733,0.003 0.81465,0.006 1.22197,0.009 0.40733,0.003 0.81465,0.006 1.22197,0.009 0.40733,0.003 0.81465,0.006 1.22198,0.008 0.40732,0.003 0.81464,0.006 1.22197,0.008 0.40732,0.003 0.81464,0.005 1.22197,0.008 0.40732,0.003 0.81464,0.005 1.22197,0.008 0.40732,0.003 0.81464,0.005 1.22197,0.008 0.40732,0.003 0.81465,0.005 1.22197,0.008 0.40732,0.003 0.81465,0.005 1.22197,0.008 0.40732,0.002 0.81465,0.005 1.22197,0.007 0.40732,0.002 0.81465,0.005 1.22197,0.007 0.40732,0.002 0.81465,0.005 1.22197,0.007 0.40733,0.002 0.81465,0.005 1.22197,0.007 0.40733,0.002 0.81465,0.005 1.22197,0.007 0.40733,0.002 0.81465,0.005 1.22197,0.007 0.40733,0.002 0.81465,0.005 1.22197,0.007 0.40733,0.002 0.81465,0.004 1.22198,0.007 0.40732,0.002 0.81464,0.004 1.22197,0.007 0.40732,0.002 0.81464,0.004 1.22197,0.006 0.40732,0.002 0.81464,0.004 1.22197,0.006 0.40732,0.002 0.81464,0.004 1.22197,0.006 0.40732,0.002 0.81465,0.004 1.22197,0.006 0.40732,0.002 0.81465,0.004 1.22197,0.006 0.40732,0.002 0.81465,0.004 1.22197,0.006"
       transform="translate(0,917.35975)"
       style="fill:#ff6600;stroke:black;stroke-width:0.5;stroke-miterlimit:4;stroke-dasharray:none;stroke-linecap:round;stroke-linejoin:round;stroke-opacity:1"
       inkscape:connector-curvature="0"
       sodipodi:nodetypes="ccccccssssssssssssssssssssssssssssssssssssssssssssssssssssssssssssssssssssssssssssssssssssssssssssssssssssssssssssssssssssssssssssssssssssssssssssssssssssssssssssssssssssssssssssssssssssssssssssssssssssssc" />
    <text
       xml:space="preserve"
       style="font-size:9px;font-style:normal;font-weight:normal;line-height:125%;letter-spacing:0px;word-spacing:0px;fill:#000000;fill-opacity:1;stroke:none;font-family:Sans"
       x="149.04587"
       y="1011.519"
       id="text3014"
       sodipodi:linespacing="125%"><tspan
         sodipodi:role="line"
         id="tspan3016"
         x="149.04587"
         y="1011.519">$\DS A=\int_1^\infty \frac{\dd x}{x^3} $</tspan></text>
    <path
       style="fill:none;stroke:#000000;stroke-width:1px;stroke-linecap:butt;stroke-linejoin:miter;stroke-opacity:1;marker-end:url(#Arrow1Mend)"
       d="M 145.54677,92.155554 112.89113,105.78112"
       id="path3018"
       inkscape:connector-curvature="0"
       transform="translate(0,917.35975)"
       sodipodi:nodetypes="cc" />
    <text
       xml:space="preserve"
       style="font-size:9px;font-style:normal;font-weight:normal;line-height:125%;letter-spacing:0px;word-spacing:0px;fill:#000000;fill-opacity:1;stroke:none;font-family:Sans"
       x="94.940331"
       y="129.41527"
       id="text4418"
       sodipodi:linespacing="125%"
       transform="translate(0,917.35975)"><tspan
         sodipodi:role="line"
         id="tspan4420"
         x="94.940331"
         y="129.41527">$1$</tspan></text>
    <text
       sodipodi:linespacing="125%"
       id="text4422"
       y="980.77502"
       x="24.940331"
       style="font-size:9px;font-style:normal;font-weight:normal;line-height:125%;letter-spacing:0px;word-spacing:0px;fill:#000000;fill-opacity:1;stroke:none;font-family:Sans"
       xml:space="preserve"><tspan
         y="980.77502"
         x="24.940331"
         id="tspan4424"
         sodipodi:role="line">$1$</tspan></text>
    <path
       style="fill:none;stroke:#000000;stroke-width:0.5;stroke-linecap:butt;stroke-linejoin:miter;stroke-miterlimit:4;stroke-opacity:1;stroke-dasharray:2, 2;stroke-dashoffset:0"
       d="m 38.663484,57.991304 60.884342,0"
       id="path4428"
       inkscape:connector-curvature="0"
       transform="translate(0,917.35975)" />
    <text
       sodipodi:linespacing="125%"
       id="text4430"
       y="982.63593"
       x="104.91699"
       style="font-size:9px;font-style:normal;font-weight:normal;line-height:125%;letter-spacing:0px;word-spacing:0px;fill:#000000;fill-opacity:1;stroke:none;font-family:Sans"
       xml:space="preserve"><tspan
         y="982.63593"
         x="104.91699"
         id="tspan4432"
         sodipodi:role="line">$\DS y=\frac1{x^3}$</tspan></text>
  </g>
</svg>
