<?xml version="1.0" encoding="UTF-8" standalone="no"?>
<!-- Created with Inkscape (http://www.inkscape.org/) -->

<svg
   xmlns:dc="http://purl.org/dc/elements/1.1/"
   xmlns:cc="http://creativecommons.org/ns#"
   xmlns:rdf="http://www.w3.org/1999/02/22-rdf-syntax-ns#"
   xmlns:svg="http://www.w3.org/2000/svg"
   xmlns="http://www.w3.org/2000/svg"
   xmlns:sodipodi="http://sodipodi.sourceforge.net/DTD/sodipodi-0.dtd"
   xmlns:inkscape="http://www.inkscape.org/namespaces/inkscape"
   sodipodi:docname="01area-under-bell-curve.pdf"
   inkscape:version="0.48.2 r9819"
   version="1.1"
   id="svg2"
   height="90"
   width="360">
  <sodipodi:namedview
     id="base"
     pagecolor="#ffffff"
     bordercolor="#666666"
     borderopacity="1.0"
     inkscape:pageopacity="0.0"
     inkscape:pageshadow="2"
     inkscape:zoom="1.8768075"
     inkscape:cx="202.63055"
     inkscape:cy="27.090151"
     inkscape:document-units="px"
     inkscape:current-layer="layer1"
     showgrid="false"
     units="in"
     inkscape:window-width="1280"
     inkscape:window-height="738"
     inkscape:window-x="-8"
     inkscape:window-y="-8"
     inkscape:window-maximized="1"
     showguides="false"
     inkscape:guide-bbox="true">
    <sodipodi:guide
       id="guide3018"
       position="180.16144,13.964126"
       orientation="0,1" />
    <sodipodi:guide
       id="guide3020"
       position="179.91928,73.93722"
       orientation="0,1" />
    <sodipodi:guide
       id="guide3022"
       position="179.91928,73.93722"
       orientation="1,0" />
    <sodipodi:guide
       id="guide3028"
       position="239.93274,73.93722"
       orientation="1,0" />
    <sodipodi:guide
       orientation="1,0"
       position="232.75545,34.702137"
       id="guide3208" />
  </sodipodi:namedview>
  <defs
     id="defs4">
    <marker
       inkscape:stockid="Arrow2Lend"
       orient="auto"
       refY="0.0"
       refX="0.0"
       id="Arrow2Lend"
       style="overflow:visible;">
      <path
         id="path4010"
         style="font-size:12.0;fill-rule:evenodd;stroke-width:0.62500000;stroke-linejoin:round;"
         d="M 8.7185878,4.0337352 L -2.2072895,0.016013256 L 8.7185884,-4.0017078 C 6.9730900,-1.6296469 6.9831476,1.6157441 8.7185878,4.0337352 z "
         transform="scale(1.1) rotate(180) translate(1,0)" />
    </marker>
    <marker
       inkscape:stockid="Arrow1Lend"
       orient="auto"
       refY="0.0"
       refX="0.0"
       id="Arrow1Lend"
       style="overflow:visible;">
      <path
         id="path3992"
         d="M 0.0,0.0 L 5.0,-5.0 L -12.5,0.0 L 5.0,5.0 L 0.0,0.0 z "
         style="fill-rule:evenodd;stroke:#000000;stroke-width:1.0pt;marker-start:none;"
         transform="scale(0.8) rotate(180) translate(12.5,0)" />
    </marker>
  </defs>
  <metadata
     id="metadata7">
    <rdf:RDF>
      <cc:Work
         rdf:about="">
        <dc:format>image/svg+xml</dc:format>
        <dc:type
           rdf:resource="http://purl.org/dc/dcmitype/StillImage" />
        <dc:title></dc:title>
      </cc:Work>
    </rdf:RDF>
  </metadata>
  <g
     inkscape:label="Layer 1"
     inkscape:groupmode="layer"
     id="layer1"
     transform="translate(0,-962.35975)">
    <path
       id="path2993"
       d="M -3.1218934e-7,1038.4151 C 0.60301476,1038.4147 1.2060298,1038.4142 1.8090449,1038.4137 c 0.6030151,-5e-4 1.2060302,0 1.8090452,0 0.6030151,-7e-4 1.2060302,0 1.8090453,0 0.603015,-7e-4 1.2060301,0 1.8090452,0 0.6030151,-9e-4 1.2060301,0 1.8090452,0 0.6030151,0 1.2060302,0 1.8090452,0 0.603015,0 1.20603,0 1.809045,0 0.603015,0 1.20603,0 1.809045,0 0.603016,0 1.206031,0 1.809046,-0.01 0.603015,0 1.20603,0 1.809045,-0.01 0.603015,0 1.20603,0 1.809045,-0.01 0.603015,0 1.20603,-0.01 1.809045,-0.01 0.603015,0 1.206031,-0.01 1.809046,-0.01 0.603015,0 1.20603,-0.01 1.809045,-0.011 0.603015,0 1.20603,-0.01 1.809045,-0.013 0.603015,0 1.20603,-0.01 1.809045,-0.015 0.603015,-0.01 1.20603,-0.011 1.809046,-0.017 0.603015,-0.01 1.20603,-0.013 1.809045,-0.02 0.603015,-0.01 1.20603,-0.015 1.809045,-0.023 0.603015,-0.01 1.20603,-0.017 1.809045,-0.026 0.603015,-0.01 1.20603,-0.019 1.809045,-0.03 0.603016,-0.011 1.206031,-0.022 1.809046,-0.034 0.603015,-0.012 1.20603,-0.025 1.809045,-0.038 0.603015,-0.014 1.20603,-0.028 1.809045,-0.043 0.603015,-0.015 1.20603,-0.032 1.809045,-0.049 0.603015,-0.017 1.20603,-0.036 1.809046,-0.056 0.603015,-0.02 1.20603,-0.041 1.809045,-0.063 0.603015,-0.022 1.20603,-0.046 1.809045,-0.07 0.603015,-0.025 1.20603,-0.051 1.809045,-0.079 0.603015,-0.028 1.20603,-0.057 1.809045,-0.089 0.603016,-0.031 1.206031,-0.064 1.809046,-0.099 0.603015,-0.035 1.20603,-0.072 1.809045,-0.1109 0.603015,-0.039 1.20603,-0.08 1.809045,-0.1235 0.603015,-0.043 1.20603,-0.089 1.809045,-0.1373 0.603015,-0.048 1.206031,-0.099 1.809046,-0.1523 0.603015,-0.053 1.20603,-0.1096 1.809045,-0.1687 0.603015,-0.059 1.20603,-0.1211 1.809045,-0.1863 0.603015,-0.065 1.20603,-0.1336 1.809045,-0.2055 0.603015,-0.072 1.20603,-0.1471 1.809046,-0.226 0.603015,-0.079 1.20603,-0.1616 1.809045,-0.2482 0.603015,-0.087 1.20603,-0.1771 1.809045,-0.2719 0.603015,-0.095 1.20603,-0.1938 1.809045,-0.2973 0.603015,-0.1035 1.20603,-0.2115 1.809045,-0.3243 0.603015,-0.1129 1.206031,-0.2305 1.809046,-0.3532 0.603015,-0.1227 1.20603,-0.2505 1.809045,-0.3836 0.603015,-0.1332 1.20603,-0.2718 1.809045,-0.416 0.603015,-0.1442 1.20603,-0.294 1.809045,-0.4499 0.603015,-0.1558 1.20603,-0.3176 1.809046,-0.4856 0.603015,-0.168 1.20603,-0.3422 1.809045,-0.523 0.603015,-0.1808 1.20603,-0.368 1.809045,-0.5621 0.603015,-0.194 1.20603,-0.3948 1.809045,-0.6027 0.603015,-0.2078 1.20603,-0.4227 1.809045,-0.6448 0.603016,-0.2221 1.206031,-0.4515 1.809046,-0.6883 0.603015,-0.2368 1.20603,-0.4811 1.809045,-0.7331 0.603015,-0.2519 1.20603,-0.5116 1.809045,-0.779 0.603013,-0.2674 1.206033,-0.5427 1.809043,-0.8258 0.60302,-0.2832 1.20603,-0.5744 1.80905,-0.8736 0.60301,-0.2991 1.20603,-0.6064 1.80904,-0.9217 0.60302,-0.3153 1.20603,-0.6387 1.80905,-0.9703 0.60301,-0.3315 1.20603,-0.6712 1.80904,-1.0189 0.60302,-0.3477 1.20603,-0.7036 1.80905,-1.0674 0.60301,-0.3639 1.20603,-0.7357 1.80904,-1.1155 0.60302,-0.3797 1.20603,-0.7674 1.80905,-1.1627 0.60301,-0.3953 1.20603,-0.7984 1.80904,-1.2089 0.60302,-0.4105 1.20603,-0.8285 1.80905,-1.2537 0.60301,-0.4252 1.20603,-0.8575 1.80904,-1.2967 0.60302,-0.4392 1.20603,-0.8852 1.80905,-1.3376 0.60301,-0.4524 1.20603,-0.9112 1.80905,-1.3759 0.60301,-0.4648 1.20603,-0.9355 1.80904,-1.4116 0.60302,-0.4761 1.20603,-0.9576 1.80905,-1.4439 0.60301,-0.4862 1.20603,-0.9774 1.80904,-1.4726 0.60302,-0.4952 1.20603,-0.9946 1.80905,-1.4975 0.60301,-0.5028 1.20603,-1.0091 1.80904,-1.518 0.60302,-0.5089 1.20603,-1.0205 1.80905,-1.5339 0.60301,-0.5134 1.20603,-1.0287 1.80904,-1.5449 0.60302,-0.5163 1.20603,-1.0334 1.80905,-1.5507 0.60301,-0.5172 1.20603,-1.0345 1.80904,-1.5509 0.60302,-0.5164 1.20603,-1.03185 1.80905,-1.54542 0.60301,-0.51357 1.20603,-1.02523 1.80904,-1.53397 0.60302,-0.50874 1.20603,-1.01454 1.80905,-1.51639 0.60301,-0.50185 1.20603,-0.99971 1.80904,-1.49255 0.60302,-0.49285 1.20603,-0.98065 1.80905,-1.46236 0.60301,-0.48172 1.20603,-0.95732 1.80904,-1.42577 0.60302,-0.46844 1.20603,-0.9297 1.80905,-1.38275 0.60301,-0.45305 1.20603,-0.89784 1.80904,-1.33338 0.60302,-0.43553 1.20603,-0.86176 1.80905,-1.27772 0.60301,-0.41596 1.20603,-0.82158 1.80904,-1.21594 0.60302,-0.39435 1.20603,-0.77738 1.80905,-1.14819 0.60301,-0.37082 1.20603,-0.72934 1.80904,-1.07476 0.60302,-0.34541 1.20603,-0.67762 1.80905,-0.99587 0.60302,-0.31825 1.20603,-0.62245 1.80905,-0.9119 0.60301,-0.28945 1.20603,-0.56406 1.80904,-0.8232 0.60302,-0.25914 1.20603,-0.50272 1.80905,-0.73019 0.60301,-0.22746 1.20603,-0.43872 1.80904,-0.63331 0.60302,-0.19459 1.20603,-0.3724 1.80905,-0.53307 0.60301,-0.16066 1.20603,-0.30407 1.80904,-0.42995 0.60302,-0.12588 1.20603,-0.23412 1.80905,-0.32453 0.60301,-0.0904 1.20603,-0.16288 1.80904,-0.21733 0.60302,-0.0545 1.20603,-0.0908 1.80905,-0.10897 0.60301,-0.0182 1.20603,-0.0181 1.80904,0 0.60302,0.0182 1.20603,0.0545 1.80905,0.10897 0.60301,0.0544 1.20603,0.12696 1.80904,0.21733 0.60302,0.0904 1.20603,0.19869 1.80905,0.32453 0.60301,0.12584 1.20603,0.26932 1.80904,0.42995 0.60302,0.16063 1.20603,0.33852 1.80905,0.53307 0.60301,0.19455 1.20603,0.40588 1.80904,0.63331 0.60302,0.22744 1.20603,0.47108 1.80905,0.73019 0.60301,0.25911 1.20603,0.53378 1.80904,0.8232 0.60302,0.28942 1.20603,0.59368 1.80905,0.9119 0.60301,0.31822 1.20603,0.65049 1.80904,0.99587 0.60302,0.34539 1.20603,0.70397 1.80905,1.07476 0.60301,0.37078 1.20603,0.75386 1.80905,1.14819 0.60301,0.39434 1.20603,0.8 1.80904,1.21594 0.60302,0.41594 1.20603,0.8422 1.80905,1.27772 0.60301,0.43552 1.20603,0.88035 1.80904,1.33338 0.60302,0.45303 1.20603,0.91432 1.80905,1.38275 0.60301,0.46844 1.20603,0.94406 1.80904,1.42577 0.60302,0.4817 1.20603,0.96952 1.80905,1.46236 0.60301,0.49283 1.20603,0.99071 1.80904,1.49255 0.60302,0.50184 1.20603,1.00766 1.80905,1.51639 0.60301,0.50874 1.20603,1.02041 1.80904,1.53397 0.60302,0.51357 1.20603,1.02902 1.80905,1.54542 0.60301,0.5164 1.20603,1.0337 1.80904,1.5509 0.60302,0.5173 1.20603,1.0344 1.80905,1.5507 0.60301,0.5162 1.20603,1.0315 1.80904,1.5449 0.60302,0.5134 1.20603,1.025 1.80905,1.5339 0.60301,0.5089 1.20603,1.0152 1.80904,1.518 0.60302,0.5029 1.20603,1.0022 1.80905,1.4975 0.60301,0.4953 1.20603,0.9863 1.80904,1.4726 0.60302,0.4863 1.20603,0.9678 1.80905,1.4439 0.60301,0.4761 1.20603,0.9468 1.80904,1.4116 0.60302,0.4647 1.20603,0.9235 1.80905,1.3759 0.60301,0.4525 1.20603,0.8984 1.80904,1.3376 0.60302,0.4392 1.20603,0.8715 1.80905,1.2967 0.60302,0.4252 1.20603,0.8431 1.80905,1.2537 0.60301,0.4105 1.20603,0.8135 1.80904,1.2089 0.60302,0.3953 1.20603,0.783 1.80905,1.1627 0.60301,0.3798 1.20603,0.7516 1.80904,1.1155 0.60302,0.3638 1.20603,0.7196 1.80905,1.0674 0.60301,0.3478 1.20603,0.6874 1.80904,1.0189 0.60302,0.3316 1.20603,0.655 1.80905,0.9703 0.60301,0.3154 1.20603,0.6226 1.80904,0.9217 0.60302,0.2992 1.20603,0.5904 1.80905,0.8736 0.60301,0.2832 1.20603,0.5584 1.80904,0.8258 0.60302,0.2675 1.20603,0.5271 1.80905,0.779 0.60301,0.252 1.20603,0.4963 1.80904,0.7331 0.60302,0.2369 1.20603,0.4662 1.80905,0.6883 0.60301,0.2221 1.20603,0.437 1.80904,0.6448 0.60302,0.2079 1.20603,0.4087 1.80905,0.6027 0.60301,0.1941 1.20603,0.3813 1.80904,0.5621 0.60302,0.1808 1.20603,0.355 1.80905,0.523 0.60301,0.168 1.20603,0.3298 1.80904,0.4856 0.60302,0.1559 1.20603,0.3057 1.80905,0.4499 0.60301,0.1443 1.20603,0.2828 1.80904,0.416 0.60302,0.1331 1.20603,0.2609 1.80905,0.3836 0.60301,0.1227 1.20603,0.2403 1.80904,0.3532 0.60302,0.1128 1.20604,0.2208 1.80905,0.3243 0.60302,0.1035 1.20603,0.2025 1.80905,0.2973 0.60301,0.095 1.20603,0.1853 1.80904,0.2719 0.60302,0.087 1.20603,0.1693 1.80905,0.2482 0.60301,0.079 1.20603,0.1542 1.80904,0.226 0.60302,0.072 1.20603,0.1403 1.80905,0.2055 0.60301,0.065 1.20603,0.1272 1.80904,0.1863 0.60302,0.059 1.20603,0.1152 1.80905,0.1687 0.60301,0.053 1.20603,0.1041 1.80904,0.1523 0.60302,0.048 1.20603,0.094 1.80905,0.1373 0.60301,0.043 1.20603,0.085 1.80904,0.1235 0.60302,0.039 1.20603,0.076 1.80905,0.1109 0.60301,0.035 1.20603,0.068 1.80904,0.099 0.60302,0.031 1.20603,0.061 1.80905,0.089 0.60301,0.028 1.20603,0.054 1.80904,0.079 0.60302,0.025 1.20603,0.048 1.80905,0.07 0.60301,0.022 1.20603,0.043 1.80904,0.063 0.60302,0.02 1.20603,0.038 1.80905,0.056 0.60301,0.017 1.20603,0.034 1.80904,0.049 0.60302,0.015 1.20603,0.03 1.80905,0.043 0.60301,0.014 1.20603,0.026 1.80904,0.038 0.60302,0.012 1.20603,0.023 1.80905,0.034 0.60302,0.011 1.20603,0.02 1.80905,0.03 0.60301,0.01 1.20603,0.018 1.80904,0.026 0.60302,0.01 1.20603,0.016 1.80905,0.023 0.60301,0.01 1.20603,0.014 1.80904,0.02 0.60302,0.01 1.20603,0.012 1.80905,0.017 0.60301,0.01 1.20603,0.01 1.80904,0.015 0.60302,0 1.20603,0.01 1.80905,0.013 0.60301,0 1.20603,0.01 1.80904,0.011 0.60302,0 1.20603,0.01 1.80905,0.01 0.60301,0 1.20603,0.01 1.80904,0.01 0.60302,0 1.20603,0 1.80905,0.01 0.60301,0 1.20603,0 1.80904,0.01 0.60302,0 1.20603,0 1.80905,0.01 0.60301,0 1.20603,0 1.80904,0 0.60302,0 1.20603,0 1.80905,0 0.60301,0 1.20603,0 1.80904,0 0.60302,10e-4 1.20603,0 1.80905,0 0.60301,9e-4 1.20603,0 1.80904,0 0.60302,8e-4 1.20603,0 1.80905,0 0.60301,6e-4 1.20603,0 1.80904,0 0.60302,5e-4 1.20603,10e-4 1.80905,0"
       style="fill:#ff6600;fill-opacity:1;stroke:#000000" />
    <path
       id="path3004"
       d="M -3.1218934e-7,1038.4226 360,1038.4226"
       style="fill:#cccccc;fill-opacity:1;stroke:#000000" />
    <path
       sodipodi:nodetypes="cc"
       inkscape:connector-curvature="0"
       id="path3002"
       d="m 180,1038.4226 0,-71.94624"
       style="fill:#cccccc;fill-opacity:1;stroke:#000000" />
    <text
       sodipodi:linespacing="125%"
       id="text3014"
       y="993.40009"
       x="214.18834"
       style="font-size:9px;font-style:normal;font-weight:normal;line-height:125%;letter-spacing:0px;word-spacing:0px;fill:#000000;fill-opacity:1;stroke:none;font-family:Sans"
       xml:space="preserve"><tspan
         y="993.40009"
         x="214.18834"
         id="tspan3016"
         sodipodi:role="line">$y=e^{-x^2}$</tspan></text>
    <text
       sodipodi:linespacing="125%"
       id="text3030"
       y="976.22522"
       x="180.35873"
       style="font-size:9px;font-style:normal;font-weight:normal;line-height:125%;letter-spacing:0px;word-spacing:0px;fill:#000000;fill-opacity:1;stroke:none;font-family:Sans"
       xml:space="preserve"><tspan
         y="976.22522"
         x="180.35873"
         id="tspan3032"
         sodipodi:role="line">$1$</tspan></text>
    <text
       xml:space="preserve"
       style="font-size:9px;font-style:normal;font-weight:normal;line-height:125%;letter-spacing:0px;word-spacing:0px;fill:#000000;fill-opacity:1;stroke:none;font-family:Sans"
       x="234.35873"
       y="1048.2252"
       id="text3056"
       sodipodi:linespacing="125%"><tspan
         sodipodi:role="line"
         id="tspan3058"
         x="234.35873"
         y="1048.2252">$1$</tspan></text>
    <flowRoot
       style="fill:black;stroke:none;stroke-opacity:1;stroke-width:1px;stroke-linejoin:miter;stroke-linecap:butt;fill-opacity:1;font-family:Sans;font-style:normal;font-weight:normal;font-size:9px;line-height:125%;letter-spacing:0px;word-spacing:0px"
       id="flowRoot3072"
       xml:space="preserve"><flowRegion
         id="flowRegion3074"><rect
           y="15.73991"
           x="180.4843"
           height="60.05381"
           width="179.5157"
           id="rect3076" /></flowRegion><flowPara
         id="flowPara3078" /></flowRoot>    <path
       style="color:#000000;fill:none;stroke:#000000;stroke-width:0.40000000000000002;stroke-linecap:round;stroke-linejoin:miter;stroke-miterlimit:4;stroke-opacity:1;stroke-dasharray:1.20000000000000000, 1.20000000000000000;stroke-dashoffset:0;marker:none;visibility:visible;display:inline;overflow:visible;enable-background:accumulate"
       d="m 239.93274,76.035874 0,-22.134408"
       id="path3210"
       inkscape:connector-curvature="0"
       transform="translate(0,962.35975)" />
    <path
       style="fill:none;fill-opacity:1;stroke:#000000;stroke-width:1;stroke-linecap:round;stroke-linejoin:round;stroke-miterlimit:4;stroke-dasharray:none;stroke-dashoffset:0"
       d="m 179.91928,978.42253 c 0.30137,0.30137 0.60274,0.60047 0.90412,0.89734 0.30137,0.29686 0.60274,0.59148 0.90411,0.88391 0.30138,0.29242 0.60275,0.58263 0.90412,0.87068 0.30137,0.28805 0.60275,0.57392 0.90412,0.85766 0.30137,0.28374 0.60274,0.56533 0.90412,0.84482 0.30137,0.2795 0.60274,0.55688 0.90411,0.83219 0.30137,0.27531 0.60275,0.54854 0.90412,0.81973 0.30137,0.27119 0.60274,0.54033 0.90412,0.80747 0.30137,0.26713 0.60274,0.53225 0.90411,0.79538 0.30138,0.26314 0.60275,0.52429 0.90412,0.78349 0.30137,0.2592 0.60274,0.51644 0.90412,0.77176 0.30137,0.25532 0.60274,0.50871 0.90411,0.76022 0.30138,0.2515 0.60275,0.5011 0.90412,0.74884 0.30137,0.24773 0.60275,0.4936 0.90412,0.73763 0.30137,0.24403 0.60274,0.48622 0.90412,0.7266 0.30137,0.24038 0.60274,0.47895 0.90411,0.71573 0.30137,0.23678 0.60275,0.47178 0.90412,0.70502 0.30137,0.23324 0.60274,0.46472 0.90412,0.69447 0.30137,0.22975 0.60274,0.45776 0.90411,0.68408 0.30138,0.22631 0.60275,0.45091 0.90412,0.67384 0.30137,0.22293 0.60274,0.44417 0.90412,0.66376 0.30137,0.2196 0.60274,0.43753 0.90411,0.65383 0.30138,0.21631 0.60275,0.43098 0.90412,0.64405 0.30137,0.21307 0.60275,0.42453 0.90412,0.63441 0.30137,0.20988 0.60274,0.41818 0.90412,0.62492 0.30137,0.20674 0.60274,0.41192 0.90411,0.61557 0.30137,0.20365 0.60275,0.40576 0.90412,0.60636 0.30137,0.2006 0.60274,0.39968 0.90412,0.59728 0.30137,0.1976 0.60274,0.39371 0.90411,0.58835 0.30138,0.19464 0.60275,0.38778 0.90412,0.57958 0.30137,0.1917 0.60274,0.382 0.90412,0.5708 0.30137,0.1889 0.60274,0.3763 0.90411,0.5624 0.30138,0.186 0.60275,0.3706 0.90412,0.5539 0.30137,0.1832 0.60275,0.3651 0.90412,0.5456 0.30137,0.1805 0.60274,0.3597 0.90412,0.5375 0.30137,0.1778 0.60274,0.3543 0.90411,0.5294 0.30137,0.1752 0.60275,0.349 0.90412,0.5215 0.30137,0.1726 0.60274,0.3438 0.90412,0.5137 0.30137,0.17 0.60274,0.3386 0.90411,0.506 0.30138,0.1674 0.60275,0.3336 0.90412,0.4985 0.30137,0.1649 0.60275,0.3285 0.90412,0.491 0.30137,0.1624 0.60274,0.3236 0.90411,0.4836 0.30138,0.16 0.60275,0.3188 0.90412,0.4764 0.30137,0.1576 0.60275,0.314 0.90412,0.4693 0.30137,0.1552 0.60274,0.3093 0.90412,0.4622 0.30137,0.153 0.60274,0.3047 0.90411,0.4554 0.30137,0.1506 0.60275,0.3001 0.90412,0.4485 0.30137,0.1484 0.60274,0.2956 0.90412,0.4418 0.30137,0.1462 0.60274,0.2912 0.90411,0.4352 0.30138,0.144 0.60275,0.2869 0.90412,0.4287 0.30137,0.1418 0.60275,0.2826 0.90412,0.4223 0.30137,0.1397 0.60274,0.2783 0.90411,0.4159 0.30138,0.1377 0.60275,0.2742 0.90412,0.4098 0.30137,0.1355 0.60275,0.2701 0.90412,0.4036 0.30137,0.1335 0.60274,0.266 0.90412,0.3975 0.30137,0.1316 0.60274,0.2621 0.90411,0.3917 0.30137,0.1295 0.60275,0.2581 0.90412,0.3857 0.30137,0.1276 0.60274,0.2543 0.90412,0.38 0.30137,0.1257 0.60274,0.2505 0.90411,0.3743 0.30138,0.1238 0.60275,0.2467 0.90412,0.3687 0.30137,0.122 0.60275,0.243 0.90412,0.3632 0.30137,0.1201 0.60274,0.2394 0.90411,0.3577 0.30138,0.1184 0.60275,0.2359 0.90412,0.3524 0.30137,0.1166 0.60275,0.2323 0.90412,0.3472 0.30137,0.1148 0.60274,0.2288 0.90412,0.3419 0.30137,0.1131 0.60274,0.2254 0.90411,0.3368 0.30137,0.1114 0.60275,0.222 0.90412,0.3318 0.30137,0.1097 0.60274,0.2187 0.90412,0.3268 0.30137,0.1081 0.60274,0.2154 0.90411,0.3219 0.30138,0.1065 0.60275,0.2122 0.90412,0.3171 0.30137,0.1049 0.60275,0.209 0.90412,0.3124 0.30137,0.1033 0.60274,0.2059 0.90411,0.3077 0.30138,0.1018 0.60275,0.2028 0.90412,0.303 0.30137,0.1003 0.60275,0.1998 0.90412,0.2986 0.30137,0.099 0.60274,0.1968 0.90412,0.2941 0.30137,0.097 0.60274,0.1938 0.90411,0.2897 0.30138,0.096 0.60275,0.1909 0.90412,0.2853 0.30137,0.094 0.60274,0.1881 0.90412,0.2811 0.30137,0.093 0.60274,0.1852 0.90411,0.2768 0.30138,0.092 0.60275,0.1825 0.90412,0.2728 0.30137,0.09 0.60275,0.1797 0.90412,0.2686 0.30137,0.089 0.60274,0.1771 0.90411,0.2646 0.30138,0.088 0.60275,0.1745 0.90412,0.2607 0.30137,0.086 0.60275,0.1718 0.90412,0.2568 0.30137,0.085 0.60274,0.1692 0.90412,0.2529 0.30137,0.084 0.60274,0.1667 0.90411,0.2492 0.30138,0.082 0.60275,0.1642 0.90412,0.2454 0.30137,0.081 0.60274,0.1617 0.90412,0.2417 0.30137,0.08 0.60274,0.1594 0.90411,0.2381 0.30138,0.079 0.60275,0.157 0.90412,0.2346 0.30137,0.078 0.60275,0.1546 0.90412,0.2311 0.30137,0.076 0.60274,0.1523 0.90411,0.2275 0.30138,0.075 0.60275,0.1501 0.90412,0.2242 0.30137,0.074 0.60275,0.1478 0.90412,0.2209 0.30137,0.073 0.60274,0.1455 0.90412,0.2175 0.30137,0.072 0.60274,0.1434 0.90411,0.2143 0.30138,0.071 0.60275,0.1412 0.90412,0.2111 0.30137,0.07 0.60274,0.1391 0.90412,0.2079 0.30137,0.069 0.60274,0.137 0.90411,0.2048 0.30138,0.068 0.60275,0.135 0.90412,0.2017 0.30137,0.067 0.60275,0.133 0.90412,0.1987 0.30137,0.066 0.60274,0.131 0.90412,0.1958 0.30137,0.065 0.60274,0.129 0.90411,0.1928 0.30137,0.064 0.60275,0.1271 0.90412,0.1899 0.30137,0.063 0.60274,0.1252 0.90412,0.1871 0.30137,0.062 0.60274,0.1233 0.90411,0.1843 0.30138,0.061 0.60275,0.1215 0.90412,0.1815 0.30137,0.06 0.60274,0.1197 0.90412,0.1789 0.30137,0.059 0.60274,0.1178 0.90411,0.1761 0.30138,0.058 0.60275,0.1161 0.90412,0.1735 0.30137,0.057 0.60275,0.1144 0.90412,0.1709 0.30137,0.057 0.60274,0.1127 0.90412,0.1684 0.30137,0.056 0.60274,0.1109 0.90411,0.1658 0.30137,0.055 0.60275,0.1093 0.90412,0.1634 0.30137,0.054 0.60274,0.1076 0.90412,0.1609 0.30137,0.053 0.60274,0.106 0.90411,0.1585 0.30138,0.052 0.60275,0.1044 0.90412,0.1561 0.30137,0.052 0.60274,0.1029 0.90412,0.1538 0.30137,0.051 0.60274,0.1014 0.90411,0.1515 0.30138,0.05 0.60275,0.1 0.90412,0.1492 0.30137,0.049 0.60275,0.098 0.90412,0.147 0.30137,0.049 0.60274,0.097 0.90412,0.1448 0.30137,0.048 0.60274,0.095 0.90411,0.1426 0.30137,0.047 0.60275,0.094 0.90412,0.1405 0.30137,0.046 0.60274,0.093 0.90412,0.1384 0.30137,0.046 0.60274,0.091 0.90411,0.1363 0.30138,0.045 0.60275,0.09 0.90412,0.1343 0.30137,0.044 0.60274,0.089 0.90412,0.1323 0.30137,0.044 0.60274,0.087 0.90411,0.1303 0.30138,0.043 0.60275,0.086 0.90412,0.1283 0.30137,0.043 0.60275,0.085 0.90412,0.1264 0.30137,0.042 0.60274,0.083 0.90412,0.1246 0.30137,0.041 0.60274,0.082 0.90411,0.1226 0.30137,0.041 0.60275,0.081 0.90412,0.1209 0.30137,0.04 0.60274,0.08 0.90412,0.119 0.30137,0.039 0.60274,0.078 0.90411,0.1172 0.30138,0.039 0.60275,0.077 0.90412,0.1155 0.30137,0.038 0.60275,0.076 0.90412,0.1138 0.30137,0.038 0.60274,0.075 0.90411,0.112 0.30138,0.037 0.60275,0.074 0.90412,0.1104 0.30137,0.036 0.60275,0.073 0.90412,0.1088 0.30137,0.036 0.60274,0.072 0.90412,0.1071 0.30137,0.035 0.60274,0.071 0.90411,0.1055 0.30137,0.035 0.60275,0.07 0.90412,0.1039 0.30137,0.034 0.60274,0.068 0.90412,0.1024 0.30137,0.034 0.60274,0.067 0.90411,0.1008 0.30138,0.033 0.60275,0.066 0.90412,0.099 0.30137,0.033 0.60275,0.066 0.90412,0.098 0.30137,0.032 0.60274,0.064 0.90411,0.096 0.30138,0.032 0.60275,0.064 0.90412,0.095 0.30137,0.031 0.60275,0.063 0.90412,0.093 0.30137,0.031 0.60274,0.062 0.90412,0.092 0.30137,0.03 0.60274,0.061 0.90411,0.091 0.30137,0.03 0.60275,0.06 0.90412,0.089 0.30137,0.03 0.60274,0.059 0.90412,0.088 0.30137,0.029 0.60274,0.058 0.90411,0.087 0.30138,0.029 0.60275,0.057 0.90412,0.085 0.30137,0.028 0.60275,0.056 0.90412,0.084 0.30137,0.028 0.60274,0.055 0.90411,0.083 0.30138,0.027 0.60275,0.055 0.90412,0.082 0.30137,0.027 0.60275,0.054 0.90412,0.08 0.30137,0.027 0.60274,0.053 0.90412,0.079 0.30137,0.026 0.60274,0.052 0.90411,0.078 0.30137,0.026 0.60275,0.051 0.90412,0.077 0.30137,0.025 0.60274,0.051 0.90412,0.076 0.30137,0.025 0.60274,0.05 0.90411,0.075 0.30138,0.025 0.60275,0.049 0.90412,0.073 0.30137,0.024 0.60275,0.048 0.90412,0.072 0.30137,0.024 0.60274,0.048 0.90411,0.071 0.30138,0.024 0.60275,0.047 0.90412,0.07 0.30137,0.023 0.60275,0.046 0.90412,0.069 0.30137,0.023 0.60274,0.046 0.90412,0.068 0.30137,0.023 0.60274,0.045 0.90411,0.067 0.30138,0.022 0.60275,0.044 0.90412,0.066 0.30137,0.022 0.60274,0.044 0.90412,0.065 0.30137,0.022 0.60274,0.043 0.90411,0.064 0.30138,0.021 0.60275,0.042 0.90412,0.063 0.30137,0.021 0.60275,0.042 0.90412,0.062 0.30137,0.021 0.60274,0.041 0.90411,0.061 0.30138,0.02 0.60275,0.04 0.90412,0.06 0.30137,0.02 0.60275,0.04 0.90412,0.06 0.30137,0.02 0.60274,0.039 0.90412,0.059 0.30137,0.019 0.60274,0.039 0.90411,0.058 0.30138,0.019 0.60275,0.038 0.90412,0.057 0.30137,0.019 0.60274,0.037 0.90412,0.056 0.30137,0.018 0.60274,0.037 0.90411,0.055 0.30138,0.018 0.60275,0.036 0.90412,0.054 0.30137,0.018 0.60275,0.036 0.90412,0.054 0.30137,0.018 0.60274,0.035 0.90411,0.053 0.30138,0.017 0.60275,0.035 0.90412,0.052 0.30137,0.017 0.60275,0.034 0.90412,0.051 0.30137,0.017 0.60274,0.034 0.90412,0.05 0.30137,0.017 0.60274,0.033 0.90411,0.05 0.30138,0.016 0.60275,0.033 0.90412,0.049 0.30137,0.016 0.60274,0.032 0.90412,0.048 0.30137,0.016 0.60274,0.032 0.90411,0.048 0.30138,0.016 0.60275,0.031 0.90412,0.047 0.30137,0.016 0.60275,0.031 0.90412,0.046 0.30137,0.015 0.60274,0.03 0.90412,0.045"
       id="path3170" />
    <text
       xml:space="preserve"
       style="font-size:9px;font-style:normal;font-weight:normal;line-height:125%;letter-spacing:0px;word-spacing:0px;fill:#000000;fill-opacity:1;stroke:none;font-family:Sans"
       x="314.18835"
       y="1029.4001"
       id="text3202"
       sodipodi:linespacing="125%"><tspan
         sodipodi:role="line"
         id="tspan3204"
         x="314.18835"
         y="1029.4001">$y=e^{-x}$</tspan></text>
    <path
       sodipodi:type="arc"
       style="fill:#ffffff;stroke:#000000;stroke-width:1;stroke-linecap:round;stroke-linejoin:round;stroke-miterlimit:4;stroke-dasharray:none;stroke-dashoffset:0"
       id="path3206"
       sodipodi:cx="240.11824"
       sodipodi:cy="53.985119"
       sodipodi:rx="1.0273659"
       sodipodi:ry="1.0273659"
       d="m 241.08903,54.32134 a 1.0273659,1.0273659 0 1 1 0.0148,-0.04635"
       transform="translate(-0.18550036,962.30677)"
       sodipodi:start="0.33340749"
       sodipodi:end="6.5692225"
       sodipodi:open="true" />
    <text
       xml:space="preserve"
       style="font-size:9px;font-style:normal;font-weight:normal;line-height:125%;letter-spacing:0px;word-spacing:0px;fill:#000000;fill-opacity:1;stroke:none;font-family:Sans"
       x="19.181509"
       y="32.988293"
       id="text3980"
       sodipodi:linespacing="125%"
       transform="translate(0,962.35975)"><tspan
         sodipodi:role="line"
         id="tspan3982"
         x="19.181509"
         y="32.988293">$\DS A = \int_{-\infty}^\infty e^{-x^2}\;\dd x$</tspan></text>
    <path
       style="color:#000000;fill:none;stroke:#000000;stroke-width:0.5;stroke-linecap:butt;stroke-linejoin:miter;stroke-miterlimit:4;stroke-opacity:1;stroke-dasharray:none;stroke-dashoffset:0;marker:none;visibility:visible;display:inline;overflow:visible;enable-background:accumulate;marker-end:url(#Arrow2Lend)"
       d="m 113.4906,36.185211 28.23944,22.378427"
       id="path3984"
       inkscape:connector-curvature="0"
       transform="translate(0,962.35975)" />
  </g>
</svg>
