<?xml version="1.0" encoding="UTF-8" standalone="no"?>
<!-- Created with Inkscape (http://www.inkscape.org/) -->

<svg
   xmlns:dc="http://purl.org/dc/elements/1.1/"
   xmlns:cc="http://creativecommons.org/ns#"
   xmlns:rdf="http://www.w3.org/1999/02/22-rdf-syntax-ns#"
   xmlns:svg="http://www.w3.org/2000/svg"
   xmlns="http://www.w3.org/2000/svg"
   xmlns:sodipodi="http://sodipodi.sourceforge.net/DTD/sodipodi-0.dtd"
   xmlns:inkscape="http://www.inkscape.org/namespaces/inkscape"
   width="262.53571"
   height="52.696365"
   id="svg3114"
   version="1.1"
   inkscape:version="0.48.2 r9819"
   sodipodi:docname="01areasunderhyperbola.pdf">
  <sodipodi:namedview
     id="base"
     pagecolor="#ffffff"
     bordercolor="#666666"
     borderopacity="1.0"
     inkscape:pageopacity="0.0"
     inkscape:pageshadow="2"
     inkscape:zoom="3.0835951"
     inkscape:cx="120.68434"
     inkscape:cy="8.3962079"
     inkscape:document-units="px"
     inkscape:current-layer="layer1"
     showgrid="false"
     units="in"
     showguides="false"
     inkscape:guide-bbox="true"
     inkscape:window-width="1276"
     inkscape:window-height="756"
     inkscape:window-x="4"
     inkscape:window-y="0"
     inkscape:window-maximized="1"
     fit-margin-top="0"
     fit-margin-left="0"
     fit-margin-right="0"
     fit-margin-bottom="0">
    <sodipodi:guide
       id="guide3122"
       position="20.273596,52.816613"
       orientation="1,0" />
    <sodipodi:guide
       id="guide3124"
       position="20.273596,52.816613"
       orientation="0,1" />
    <sodipodi:guide
       orientation="1,0"
       position="35.441118,68.031524"
       id="guide3182" />
    <sodipodi:guide
       orientation="0,1"
       position="35.441118,68.031524"
       id="guide3184" />
    <sodipodi:guide
       orientation="1,0"
       position="61.723162,92.796968"
       id="guide3982" />
    <sodipodi:guide
       orientation="0,1"
       position="73.626506,18.814631"
       id="guide3018" />
  </sodipodi:namedview>
  <defs
     id="defs3116">
    <marker
       inkscape:stockid="Arrow1Mend"
       orient="auto"
       refY="0"
       refX="0"
       id="Arrow1Mend"
       style="overflow:visible">
      <path
         id="path3801"
         d="M 0,0 5,-5 -12.5,0 5,5 0,0 z"
         style="fill-rule:evenodd;stroke:black;stroke-width:1pt;marker-start:none"
         transform="matrix(-0.4,0,0,-0.4,-4,0)"
         inkscape:connector-curvature="0" />
    </marker>
  </defs>
  <metadata
     id="metadata3119">
    <rdf:RDF>
      <cc:Work
         rdf:about="">
        <dc:format>image/svg+xml</dc:format>
        <dc:type
           rdf:resource="http://purl.org/dc/dcmitype/StillImage" />
        <dc:title></dc:title>
      </cc:Work>
    </rdf:RDF>
  </metadata>
  <g
     transform="translate(10.909433,-1033.0581)"
     id="layer1"
     inkscape:groupmode="layer"
     inkscape:label="Layer 1">
    <text
       xml:space="preserve"
       style="font-size:9px;font-style:normal;font-weight:normal;line-height:125%;letter-spacing:0px;word-spacing:0px;fill:black;fill-opacity:1;stroke:none;font-family:Sans"
       x="15.204839"
       y="33.254826"
       id="text3984"
       sodipodi:linespacing="125%"
       transform="translate(9.1230394,966.32407)"><tspan
         sodipodi:role="line"
         id="tspan3986"
         x="15.204839"
         y="33.254826" /></text>
    <path
       id="path3978"
       title="t 1.0/(t)"
       d="m -8.0401636,1072.2095 106.3352616,0 m -106.3352616,0 0,-36.9018 m 121.8302736,36.9018 c 0,0 -96.494943,0 -100.595741,0 0,-8.1389 0,-20.9285 0,-21.3009 0.142493,0.1372 0.744984,0.724 0.887478,0.8557 0.142492,0.1316 0.284985,0.2608 0.427477,0.3877 0.142494,0.1274 0.284986,0.251 0.427479,0.3731 0.142493,0.1218 0.284985,0.2419 0.427479,0.3595 0.142492,0.1176 0.284985,0.2332 0.427479,0.3466 0.142492,0.1134 0.284985,0.225 0.427477,0.3345 0.142493,0.1092 0.284985,0.217 0.427479,0.3228 0.142493,0.1064 0.284985,0.2096 0.427479,0.3118 0.142492,0.1022 0.284985,0.2027 0.427478,0.3014 0.142492,0.099 0.284986,0.196 0.427478,0.2915 0.142493,0.095 0.284985,0.1896 0.427479,0.2821 0.142493,0.092 0.284985,0.1834 0.427478,0.273 0.142492,0.09 0.284986,0.1778 0.427478,0.2645 0.142493,0.087 0.284987,0.1722 0.427479,0.2563 0.142493,0.084 0.284985,0.167 0.427478,0.2485 0.142494,0.081 0.284986,0.162 0.427479,0.2411 0.142492,0.078 0.284986,0.1572 0.427478,0.2341 0.142493,0.077 0.284986,0.1524 0.427478,0.227 0.142494,0.074 0.284986,0.1482 0.427479,0.2207 0.142492,0.073 0.284986,0.1439 0.427479,0.2145 0.142492,0.07 0.284985,0.14 0.427477,0.2083 0.142494,0.069 0.284987,0.1358 0.427479,0.2027 0.142494,0.067 0.284986,0.1316 0.427479,0.1973 0.142492,0.064 0.284985,0.1288 0.427479,0.1919 0.142492,0.063 0.284985,0.126 0.427477,0.1868 0.142494,0.062 0.284987,0.1218 0.427479,0.182 0.142493,0.06 0.284985,0.119 0.427479,0.1773 0.142492,0.059 0.284985,0.1162 0.427479,0.1728 0.142492,0.057 0.284985,0.1134 0.427477,0.1684 0.142493,0.056 0.284985,0.1106 0.427479,0.1644 0.142493,0.055 0.284985,0.1078 0.427479,0.1603 0.142492,0.053 0.284985,0.105 0.427478,0.1564 0.142492,0.052 0.284986,0.1022 0.427478,0.1526 0.142493,0.05 0.284985,0.099 0.427479,0.1491 0.142493,0.049 0.284985,0.098 0.427478,0.1456 0.142492,0.048 0.284986,0.095 0.427479,0.1422 0.142492,0.048 0.284986,0.094 0.427478,0.1386 0.142493,0.046 0.284985,0.091 0.427478,0.1358 0.142494,0.045 0.284986,0.09 0.427479,0.133 0.142492,0.043 0.284986,0.087 0.427478,0.1302 0.142493,0.043 0.284986,0.085 0.427478,0.1274 0.142494,0.042 0.284986,0.083 0.427479,0.1246 0.142494,0.041 0.284986,0.081 0.427479,0.1218 0.142492,0.041 0.284985,0.08 0.427477,0.119 0.142494,0.039 0.284987,0.078 0.427479,0.1162 0.142494,0.038 0.284986,0.077 0.427479,0.1148 0.142492,0.038 0.284985,0.074 0.427479,0.112 0.142492,0.036 0.284985,0.074 0.427477,0.1092 0.142494,0.036 0.284987,0.071 0.427479,0.1078 0.142493,0.035 0.284985,0.07 0.427479,0.105 0.142492,0.035 0.284985,0.069 0.427479,0.1036 0.142492,0.034 0.284985,0.067 0.427477,0.1008 0.142493,0.034 0.284987,0.067 0.427479,0.099 0.142493,0.032 0.284985,0.066 0.427479,0.097 0.142492,0.032 0.284985,0.064 0.427478,0.095 0.142492,0.031 0.284986,0.063 0.427478,0.094 0.142493,0.031 0.284985,0.062 0.427479,0.092 0.142493,0.031 0.284985,0.06 0.427478,0.09 0.142492,0.029 0.284986,0.059 0.427479,0.088 0.142492,0.029 0.284986,0.059 0.427478,0.087 0.142493,0.028 0.284985,0.057 0.427478,0.085 0.142494,0.028 0.284986,0.056 0.427479,0.084 0.142492,0.028 0.284986,0.055 0.427479,0.083 0.142492,0.027 0.284985,0.055 0.427477,0.081 0.142494,0.027 0.284986,0.053 0.427479,0.08 0.142494,0.027 0.284986,0.052 0.427479,0.078 0.142492,0.025 0.284985,0.052 0.427477,0.077 0.142494,0.025 0.284987,0.05 0.427479,0.076 0.142494,0.025 0.284986,0.05 0.427479,0.074 0.142493,0.025 0.284985,0.049 0.427479,0.073 0.142492,0.024 0.284985,0.048 0.427477,0.071 0.142494,0.024 0.284987,0.048 0.427479,0.071 0.142493,0.024 0.284985,0.046 0.427479,0.07 0.142492,0.022 0.284985,0.046 0.427479,0.069 0.142492,0.022 0.284985,0.045 0.427477,0.067 0.142493,0.022 0.284987,0.045 0.427479,0.066 0.142493,0.022 0.284985,0.043 0.427479,0.066 0.142492,0.021 0.284985,0.043 0.427478,0.064 0.142492,0.021 0.284986,0.042 0.427478,0.063 0.142493,0.021 0.284987,0.042 0.427479,0.062 0.142493,0.021 0.284985,0.041 0.427478,0.062 0.142492,0.02 0.284986,0.041 0.427479,0.06 0.142492,0.02 0.284986,0.041 0.427478,0.06 0.142493,0.02 0.284985,0.039 0.427478,0.059 0.142494,0.02 0.284986,0.039 0.427479,0.057 0.142492,0.02 0.284986,0.038 0.427479,0.057 0.142492,0.02 0.284985,0.038 0.427477,0.056 0.142494,0.018 0.284986,0.036 0.427479,0.056 0.142494,0.018 0.284986,0.036 0.427479,0.055 0.142492,0.018 0.284985,0.036 0.427479,0.053 0.142492,0.018 0.284985,0.035 0.427477,0.053 0.142494,0.018 0.284986,0.035 0.427479,0.052 0.142493,0.017 0.284985,0.035 0.427479,0.052 0.142492,0.017 0.284985,0.034 0.427477,0.05 0.142494,0.017 0.284987,0.034 0.427479,0.05 0.142493,0.017 0.284985,0.034 0.427479,0.049 0.142493,0.017 0.284985,0.032 0.427479,0.049 0.142492,0.017 0.284985,0.032 0.427477,0.048 0.142493,0.015 0.284987,0.032 0.427479,0.048 0.142493,0.015 0.284985,0.031 0.427479,0.048 0.142492,0.015 0.284985,0.031 0.427478,0.046 0.142492,0.015 0.284986,0.031 0.427478,0.046 0.142493,0.015 0.284987,0.031 0.427479,0.045 0.142493,0.015 0.284985,0.029 0.427478,0.045 0.142492,0.014 0.284986,0.029 0.427479,0.043 0.142492,0.014 0.284986,0.029 0.427478,0.043 0.142493,0.014 0.284986,0.028 0.427478,0.043 0.142494,0.014 0.284986,0.028 0.427479,0.042 0.142492,0.014 0.284986,0.028 0.427479,0.042 0.142492,0.014 0.284985,0.028 0.427477,0.041 0.142494,0.014 0.284986,0.027 0.427479,0.041 0.142494,0.014 0.284986,0.027 0.427479,0.041 0.142492,0.014 0.284985,0.027 0.427479,0.039 0.142492,0.014 0.284985,0.027 0.427477,0.039 0.142494,0.014 0.284986,0.027 0.427479,0.039 0.142493,0.014 0.284985,0.025 0.427479,0.038 0.142492,0.014 0.284985,0.025 0.427479,0.038 0.142492,0.014 0.284985,0.025 0.427477,0.038 0.142493,0.014 0.284985,0.025 0.427479,0.036 0.142493,0.014 0.284985,0.024 0.427479,0.036 0.142492,0.014 0.284985,0.024 0.427477,0.036 0.142493,0.014 0.284987,0.024 0.427479,0.035 0.142493,0.014 0.284985,0.024 0.427479,0.035 0.142493,0.014 0.284985,0.024 0.427478,0.035 0.142492,0.014 0.284986,0.022 0.427478,0.035 0.142493,0.014 0.284987,0.022 0.427479,0.034 0.142493,0.014 0.284985,0.022 0.427478,0.034 0.142492,0.014 0.284986,0.022 0.427479,0.034 0.142492,0.014 0.284986,0.022 0.427478,0.034 0.142493,0.014 0.284986,0.022 0.427478,0.032 0.142494,0.014 0.284986,0.021 0.427479,0.032 0.142492,0.014 0.284986,0.021 0.427479,0.032 0.142492,0.014 0.284985,0.021 0.427477,0.032 0.142494,0.014 0.284987,0.021 0.427479,0.031 0.142494,0.014 0.284986,0.021 0.427479,0.031 0.142492,0.014 0.284985,0.021 0.427479,0.031 0.142492,0.014 0.284985,0.02 0.427477,0.031 0.142494,0.014 0.284986,0.02 0.427479,0.029 0.142493,0.014 0.284985,0.02 0.427479,0.029 0.142492,0.014 0.284985,0.02 0.427479,0.029 0.142492,0.014 0.284985,0.02 0.427477,0.029 0.142493,0.014 0.284985,0.02 0.427479,0.028 0.142493,0.014 0.284985,0.02 0.427479,0.028 0.142492,0.014 0.284985,0.018 0.427478,0.028 0.142492,0.014 0.284986,0.018 0.427478,0.028 0.142493,0.014 0.284985,0.018 0.427479,0.028 0.142493,0.014 0.284985,0.018 0.427478,0.027 0.142492,0.014 0.284986,0.018 0.427478,0.027 0.142493,0.014 0.284987,0.018 0.427479,0.027 0.142493,0.014 0.284985,0.018 0.427478,0.027 0.142494,0.014 0.284986,0.018 0.427479,0.027 0.142492,0.014 0.284986,0.017 0.427478,0.027 0.142493,0.014 0.284986,0.017 0.427478,0.025 0.142494,0.014 0.284986,0.017 0.427479,0.025 0.142492,0.014 0.284986,0.017 0.427479,0.025 0.142492,0.014 0.284985,0.017 0.427477,0.025 0.142494,0.014 0.284987,0.017 0.427479,0.025 0.142494,0.014 0.284986,0.017 0.427479,0.024 0.142492,0.014 0.284985,0.015 0.427479,0.024 0.142492,0.014 0.284985,0.015 0.427477,0.024 0.142494,0.014 0.284987,0.015 0.427479,0.024 0.142493,0.014 0.284985,0.015 0.427479,0.024 0.142492,0.014 0.284985,0.015 0.427479,0.024 0.142492,0.014 0.284985,0.015 0.427477,0.022 0.142493,0.014 0.284985,0.015 0.427479,0.022 0.142493,0.014 0.284985,0.015 0.427479,0.022 0.142492,0.014 0.284985,0.015 0.427478,0.022 0.142492,0.014 0.284986,0.015 0.427478,0.022 0.142493,0 0.284985,0.014 0.427479,0.022 0.142493,0 0.284985,0.014 0.427478,0.022 0.142492,0.014 0.284986,0.014 0.427479,0.021 0.142492,0.014 0.284986,0.014 0.427478,0.021 0.142493,0.014 0.284985,0.014 0.427478,0.021 0.142494,0 0.284986,0.014 0.427479,0.021 0.142492,0.014 0.284986,0.014 0.427478,0.021 0.142493,0 0.284986,0.014 0.427478,0.021 0.142494,0.014 0.284986,0.014 0.427479,0.021 0.142494,0.014 0.284986,0.014 0.427479,0.02 0.142492,0.014 0.284985,0.014 0.427477,0.02 0.142494,0.014 0.284987,0.014 0.427479,0.02 0.142494,0 0.284986,0.014 0.427479,0.02 0.142492,0 0.284985,0.014 0.427479,0.02 0.142492,0 0.284985,0.014 0.427477,0.02 0.142494,0.014 0.284987,0.014 0.427479,0.02 0.142493,0 0.284985,0.014 0.427479,0.02 0.142492,0 0.284985,0.014 0.427479,0.02 0.142492,0 0.284985,0.014 0.427477,0.018 0.142493,0 0.284987,0.014 0.427479,0.018 0.142493,0 0.284985,0.014 0.427479,0.018 0.142492,0 0.284985,0.014 0.427478,0.018 0.142492,0 0.284986,0.014 0.427478,0.018 0.142493,0 0.284985,0.014 0.427479,0.018 0.142493,0 0.284985,0.014 0.427478,0.018 0.142492,0 0.284986,0.014 0.427479,0.018 0.142492,0 0.284986,0.014 0.427478,0.018 0.142493,0 0.284985,0.014 0.427478,0.018 0.142494,0 0.284986,0.014 0.427479,0.017 0.142492,0 15.68876,0.8491 15.83125,0.8548"
       style="fill:#e6e6e6;fill-opacity:1;stroke:black;stroke-width:0.69999999;stroke-linecap:round;stroke-miterlimit:4;stroke-dasharray:none;stroke-dashoffset:0"
       inkscape:connector-curvature="0"
       sodipodi:nodetypes="cccccccsssssssssssssssssssssssssssssssssssssssssssssssssssssssssssssssssssssssssssssssssssssssssssssssssssssssssssssssssssssssssssssssssssssssssssssssssssssssssssssssssssssssssssssssssssssssssssssssssssssc" />
    <path
       sodipodi:nodetypes="cccsssssssssssssssssssssssssssssssssssssssssssssssssssssssssssssssssssssssssssssssssssssc"
       inkscape:connector-curvature="0"
       style="fill:#2ca02c;fill-opacity:1;stroke:black;stroke-width:0.28;stroke-linecap:round;stroke-miterlimit:4;stroke-dasharray:none;stroke-dashoffset:0"
       d="m 49.98923,1072.2095 c 0,0 -32.694063,0 -36.794861,0 0,-8.1389 0,-20.9285 0,-21.3009 0.142493,0.1372 0.744984,0.724 0.887478,0.8557 0.142492,0.1316 0.284985,0.2608 0.427477,0.3877 0.142494,0.126 0.284986,0.251 0.427479,0.3731 0.142493,0.1218 0.284985,0.2419 0.427479,0.3595 0.142492,0.1176 0.284985,0.2332 0.427479,0.3466 0.142492,0.1134 0.284985,0.225 0.427477,0.3345 0.142493,0.1092 0.284985,0.217 0.427479,0.3228 0.142493,0.105 0.284985,0.2096 0.427479,0.3118 0.142492,0.1022 0.284985,0.2027 0.427478,0.3014 0.142492,0.099 0.284986,0.196 0.427478,0.2915 0.142493,0.095 0.284985,0.1896 0.427479,0.2821 0.142493,0.092 0.284985,0.1834 0.427478,0.273 0.142492,0.09 0.284986,0.1778 0.427478,0.2645 0.142493,0.087 0.284987,0.1722 0.427479,0.2563 0.142493,0.084 0.284985,0.167 0.427478,0.2485 0.142494,0.081 0.284986,0.162 0.427479,0.2411 0.142492,0.078 0.284986,0.1572 0.427478,0.2341 0.142493,0.077 0.284986,0.1524 0.427478,0.227 0.142494,0.074 0.284986,0.1482 0.427479,0.2207 0.142492,0.073 0.284986,0.1439 0.427479,0.2145 0.142492,0.07 0.284985,0.14 0.427477,0.2083 0.142494,0.069 0.284987,0.1358 0.427479,0.2027 0.142494,0.067 0.284986,0.1316 0.427479,0.1973 0.142492,0.064 0.284985,0.1288 0.427479,0.1919 0.142492,0.063 0.284985,0.126 0.427477,0.1868 0.142494,0.062 0.284987,0.1218 0.427479,0.182 0.142493,0.06 0.284985,0.119 0.427479,0.1773 0.142492,0.059 0.284985,0.1162 0.427479,0.1728 0.142492,0.057 0.284985,0.1134 0.427477,0.1684 0.142493,0.056 0.284985,0.1106 0.427479,0.1644 0.142493,0.055 0.284985,0.1078 0.427479,0.1603 0.142492,0.053 0.284985,0.105 0.427478,0.1564 0.142492,0.052 0.284986,0.1022 0.427478,0.1526 0.142493,0.05 0.284985,0.099 0.427479,0.1491 0.142493,0.049 0.284985,0.098 0.427478,0.1456 0.142492,0.048 0.284986,0.095 0.427479,0.1422 0.142492,0.048 0.284986,0.094 0.427478,0.1386 0.142493,0.046 0.284985,0.091 0.427478,0.1358 0.142494,0.045 0.284986,0.09 0.427479,0.133 0.142492,0.043 0.284986,0.087 0.427478,0.1302 0.142493,0.043 0.284986,0.085 0.427478,0.1274 0.142494,0.042 0.284986,0.083 0.427479,0.1246 0.142494,0.041 0.284986,0.081 0.427479,0.1218 0.142492,0.041 0.284985,0.08 0.427477,0.119 0.142494,0.039 0.284987,0.078 0.427479,0.1162 0.142494,0.038 0.284986,0.077 0.427479,0.1148 0.142492,0.038 0.284985,0.074 0.427479,0.112 0.142492,0.036 0.284985,0.074 0.427477,0.1092 0.142494,0.036 0.284987,0.071 0.427479,0.1078 0.142493,0.035 0.284985,0.07 0.427479,0.105 0.142492,0.035 0.284985,0.069 0.427479,0.1036 0.142492,0.034 0.284985,0.067 0.427477,0.1008 0.142493,0.034 0.284987,0.067 0.427479,0.099 0.142493,0.032 0.284985,0.066 0.427479,0.097 0.142492,0.032 0.284985,0.064 0.427478,0.095 0.142492,0.031 0.284986,0.063 0.427478,0.094 0.142493,0.031 0.284985,0.062 0.427479,0.092 0.142493,0.031 0.284985,0.06 0.427478,0.09 0.142492,0.029 0.284986,0.059 0.427479,0.088 0.142492,0.029 0.284986,0.059 0.427478,0.087 0.142493,0.028 0.284985,0.057 0.427478,0.085 0.142494,0.028 0.284986,0.056 0.427479,0.084 0.142492,0.028 0.284986,0.055 0.427479,0.083 0.142492,0.027 0.284985,0.055 0.427477,0.081 0.142494,0.027 0.284986,0.053 0.427479,0.08 0.142494,0.027 0.284986,0.052 0.427479,0.078 0.142492,0.025 0.284985,0.052 0.427477,0.077 0.142494,0.025 0.284987,0.05 0.427479,0.076 0.142494,0.025 0.284986,0.05 0.427479,0.074 0.142493,0.025 0.284985,0.049 0.427479,0.073 0.142492,0.024 0.284985,0.048 0.427477,0.071 0.142494,0.024 0.284987,0.048 0.427479,0.071 0.142493,0.024 0.284985,0.046 0.427479,0.07 0.142492,0.022 0.284985,0.046 0.427479,0.069 0.142492,0.022 0.284985,0.045 0.427477,0.067 0.142493,0.022 0.284987,0.045 0.427479,0.066 0.142493,0.022 0.284985,0.043 0.427479,0.066 0.142492,0.021 0.284985,0.043 0.427478,0.064 0.142492,0.021 0.284986,0.042 0.427478,0.063 0.142493,0.021 0.284987,0.042 0.427479,0.062 0.142493,0.021 0.284985,0.041 0.427478,0.062 0.142492,0.02 0.284986,0.041 0.427479,0.06 0.142492,0.02 0.284986,0.041 0.427478,0.06 0.142493,0.02 0.284985,0.039 0.427478,0.059 0.142494,0.02 0.284986,0.039 0.427479,0.057 0.142492,0.02 -0.143298,7.8025 -8.05e-4,7.8214"
       title="t 1.0/(t)"
       id="path3970" />
    <text
       sodipodi:linespacing="125%"
       id="text3992"
       y="1083.0466"
       x="47.31102"
       style="font-size:11px;font-style:italic;font-variant:normal;font-weight:normal;font-stretch:normal;text-align:start;line-height:125%;letter-spacing:0px;word-spacing:0px;writing-mode:lr-tb;text-anchor:start;fill:black;fill-opacity:1;stroke:none;font-family:Linux Libertine O;-inkscape-font-specification:Linux Libertine O Italic"
       xml:space="preserve"><tspan
         y="1083.0466"
         x="47.31102"
         id="tspan3994"
         sodipodi:role="line">M→</tspan></text>
    <text
       xml:space="preserve"
       style="font-size:11px;font-style:italic;font-variant:normal;font-weight:normal;font-stretch:normal;text-align:start;line-height:125%;letter-spacing:0px;word-spacing:0px;writing-mode:lr-tb;text-anchor:start;fill:black;fill-opacity:1;stroke:none;font-family:Linux Libertine O;-inkscape-font-specification:Linux Libertine O Italic"
       x="10.794341"
       y="1083.0466"
       id="text3988"
       sodipodi:linespacing="125%"><tspan
         sodipodi:role="line"
         id="tspan3990"
         x="10.794341"
         y="1083.0466">1</tspan></text>
    <text
       sodipodi:linespacing="125%"
       id="text4025"
       y="1052.9398"
       x="33.91523"
       style="font-size:8px;font-style:oblique;font-variant:normal;font-weight:normal;font-stretch:normal;text-align:start;line-height:125%;letter-spacing:0px;word-spacing:0px;writing-mode:lr-tb;text-anchor:start;fill:black;fill-opacity:1;stroke:none;font-family:DejaVu Sans;-inkscape-font-specification:DejaVu Sans Oblique"
       xml:space="preserve"><tspan
         y="1052.9398"
         x="33.91523"
         id="tspan4027"
         sodipodi:role="line"
         style="font-size:10px;font-style:italic;font-variant:normal;font-weight:normal;font-stretch:normal;font-family:Linux Libertine O;-inkscape-font-specification:Linux Libertine O Italic">A<tspan
   style="font-size:65.00091553%;baseline-shift:sub"
   id="tspan5107">M</tspan></tspan></text>
    <text
       xml:space="preserve"
       style="font-size:9px;font-style:normal;font-weight:normal;line-height:125%;letter-spacing:0px;word-spacing:0px;fill:black;fill-opacity:1;stroke:none;font-family:Sans"
       x="20.115232"
       y="23.164318"
       id="text4017"
       sodipodi:linespacing="125%"
       transform="translate(9.1205666,1006.3241)"><tspan
         sodipodi:role="line"
         id="tspan4019"
         x="20.115232"
         y="23.164318" /></text>
    <path
       id="path3171"
       title="t 1.0/(t)"
       d="m 125.95984,1072.2095 106.33526,0 m -106.33526,0 0,-36.9018 m 121.83026,36.9018 c 0,0 -96.49493,0 -100.59574,0 0,-8.1389 0,-20.9285 0,-21.3009 0.1425,0.1372 0.745,0.724 0.88749,0.8557 0.14249,0.1316 0.28499,0.2608 0.42748,0.3877 0.14249,0.1274 0.28498,0.251 0.42747,0.3731 0.1425,0.1218 0.28499,0.2419 0.42748,0.3595 0.14249,0.1176 0.28498,0.2332 0.42748,0.3466 0.14249,0.1134 0.28498,0.225 0.42747,0.3345 0.14251,0.1092 0.285,0.217 0.42749,0.3228 0.14249,0.1064 0.28499,0.2096 0.42748,0.3118 0.14249,0.1022 0.28498,0.2026 0.42747,0.3014 0.1425,0.099 0.28499,0.196 0.42748,0.2915 0.14249,0.095 0.28498,0.1896 0.42748,0.2821 0.14249,0.092 0.28498,0.1834 0.42749,0.273 0.14249,0.09 0.28498,0.1777 0.42747,0.2645 0.14249,0.087 0.28499,0.1722 0.42748,0.2563 0.14249,0.084 0.28498,0.167 0.42747,0.2485 0.1425,0.081 0.28499,0.162 0.42748,0.2411 0.14249,0.078 0.28498,0.1572 0.42748,0.2341 0.14249,0.077 0.28499,0.1524 0.42749,0.227 0.14249,0.074 0.28498,0.1482 0.42747,0.2207 0.14249,0.073 0.28499,0.1439 0.42748,0.2143 0.14249,0.07 0.28498,0.14 0.42747,0.2085 0.1425,0.069 0.28499,0.1358 0.42748,0.2027 0.14249,0.067 0.28498,0.1316 0.42748,0.1973 0.14249,0.064 0.28499,0.1288 0.42749,0.1918 0.14249,0.063 0.28498,0.126 0.42747,0.1869 0.14249,0.062 0.28499,0.1218 0.42748,0.182 0.14249,0.06 0.28498,0.119 0.42747,0.1772 0.1425,0.059 0.28499,0.1162 0.42748,0.1729 0.14249,0.057 0.28498,0.1134 0.42748,0.1684 0.1425,0.056 0.28499,0.1106 0.42749,0.1644 0.14249,0.055 0.28498,0.1078 0.42747,0.1603 0.14249,0.053 0.28499,0.105 0.42748,0.1564 0.14249,0.052 0.28498,0.1022 0.42747,0.1526 0.1425,0.05 0.28499,0.099 0.42748,0.1491 0.14249,0.049 0.28498,0.098 0.42749,0.1456 0.14249,0.048 0.28498,0.095 0.42748,0.1422 0.14249,0.048 0.28498,0.094 0.42747,0.1386 0.14249,0.046 0.28499,0.091 0.42748,0.1358 0.14249,0.045 0.28498,0.09 0.42747,0.133 0.1425,0.043 0.28499,0.087 0.42748,0.1302 0.14251,0.043 0.285,0.085 0.42749,0.1274 0.14249,0.042 0.28498,0.083 0.42748,0.1246 0.14249,0.041 0.28498,0.081 0.42747,0.1218 0.14249,0.041 0.28499,0.08 0.42748,0.119 0.14249,0.039 0.28498,0.078 0.42747,0.1162 0.1425,0.038 0.28499,0.077 0.42748,0.1148 0.14251,0.038 0.285,0.074 0.42749,0.112 0.14249,0.036 0.28498,0.074 0.42748,0.1092 0.14249,0.036 0.28498,0.071 0.42747,0.1078 0.14249,0.035 0.28499,0.07 0.42748,0.105 0.14249,0.035 0.28498,0.069 0.42747,0.1036 0.1425,0.034 0.285,0.067 0.42749,0.1008 0.1425,0.034 0.28499,0.067 0.42748,0.099 0.14249,0.032 0.28498,0.066 0.42748,0.097 0.14249,0.032 0.28498,0.064 0.42747,0.095 0.14249,0.031 0.28499,0.063 0.42748,0.094 0.14249,0.031 0.28498,0.062 0.42747,0.092 0.14251,0.031 0.285,0.06 0.42749,0.09 0.1425,0.029 0.28499,0.059 0.42748,0.088 0.14249,0.029 0.28498,0.059 0.42748,0.087 0.14249,0.028 0.28498,0.057 0.42747,0.085 0.14249,0.028 0.28499,0.056 0.42748,0.084 0.14249,0.028 0.28498,0.055 0.42749,0.083 0.14249,0.027 0.28498,0.055 0.42747,0.081 0.1425,0.027 0.28499,0.053 0.42748,0.08 0.14249,0.027 0.28498,0.052 0.42748,0.078 0.14249,0.025 0.28498,0.052 0.42747,0.077 0.14249,0.025 0.28499,0.05 0.42748,0.076 0.14249,0.025 0.28498,0.05 0.42749,0.074 0.14249,0.025 0.28498,0.049 0.42747,0.073 0.1425,0.024 0.28499,0.048 0.42748,0.071 0.14249,0.024 0.28498,0.048 0.42748,0.071 0.14249,0.024 0.28498,0.046 0.42747,0.07 0.14249,0.022 0.28499,0.046 0.42748,0.069 0.14249,0.022 0.285,0.045 0.42749,0.067 0.14249,0.022 0.28498,0.045 0.42747,0.066 0.1425,0.022 0.28499,0.043 0.42748,0.066 0.14249,0.021 0.28498,0.043 0.42748,0.064 0.14249,0.021 0.28498,0.042 0.42747,0.063 0.14249,0.021 0.28499,0.042 0.42748,0.062 0.1425,0.021 0.285,0.041 0.42749,0.062 0.14249,0.02 0.28498,0.041 0.42747,0.06 0.1425,0.02 0.28499,0.041 0.42748,0.06 0.14249,0.02 0.28498,0.039 0.42748,0.059 0.14249,0.02 0.28498,0.039 0.42747,0.057 0.14249,0.02 0.28499,0.038 0.42749,0.057 0.14249,0.02 0.28499,0.038 0.42748,0.056 0.14249,0.018 0.28498,0.036 0.42747,0.056 0.1425,0.018 0.28499,0.036 0.42748,0.055 0.14249,0.018 0.28498,0.036 0.42748,0.053 0.14249,0.018 0.28498,0.035 0.42747,0.053 0.14249,0.018 0.28499,0.035 0.42749,0.052 0.14249,0.017 0.28499,0.035 0.42748,0.052 0.14249,0.017 0.28498,0.034 0.42747,0.05 0.1425,0.017 0.28499,0.034 0.42748,0.05 0.14249,0.017 0.28498,0.034 0.42748,0.049 0.14249,0.017 0.28498,0.032 0.42747,0.049 0.14249,0.017 0.285,0.032 0.42749,0.048 0.14249,0.015 0.28499,0.032 0.42748,0.048 0.14249,0.015 0.28498,0.031 0.42747,0.048 0.1425,0.015 0.28499,0.031 0.42748,0.046 0.14249,0.015 0.28498,0.031 0.42748,0.046 0.14249,0.015 0.28498,0.031 0.42747,0.045 0.14251,0.015 0.285,0.029 0.42749,0.045 0.14249,0.014 0.28499,0.029 0.42748,0.043 0.14249,0.014 0.28498,0.029 0.42747,0.043 0.1425,0.014 0.28499,0.028 0.42748,0.043 0.14249,0.014 0.28498,0.028 0.42748,0.042 0.14249,0.014 0.28498,0.028 0.42749,0.042 0.14249,0.014 0.28498,0.028 0.42747,0.041 0.14249,0.014 0.28499,0.027 0.42748,0.041 0.14249,0.014 0.28498,0.027 0.42747,0.041 0.1425,0.014 0.28499,0.027 0.42748,0.039 0.14249,0.014 0.28498,0.027 0.42748,0.039 0.14249,0.014 0.28498,0.027 0.42749,0.039 0.14249,0.014 0.28498,0.025 0.42747,0.038 0.14249,0.014 0.28499,0.025 0.42748,0.038 0.14249,0.014 0.28498,0.025 0.42747,0.038 0.1425,0.014 0.28499,0.025 0.42748,0.036 0.14249,0.014 0.28498,0.024 0.42748,0.036 0.14249,0.014 0.28499,0.024 0.42749,0.036 0.14249,0.014 0.28498,0.024 0.42747,0.035 0.14249,0.014 0.28499,0.024 0.42748,0.035 0.14249,0.014 0.28498,0.024 0.42747,0.035 0.1425,0.014 0.28499,0.022 0.42748,0.035 0.14249,0.014 0.28498,0.022 0.42748,0.034 0.1425,0.014 0.28499,0.022 0.42749,0.034 0.14249,0.014 0.28498,0.022 0.42747,0.034 0.14249,0.014 0.28499,0.022 0.42748,0.034 0.14249,0.014 0.28498,0.022 0.42747,0.032 0.1425,0.014 0.28499,0.021 0.42748,0.032 0.14249,0.014 0.28498,0.021 0.42749,0.032 0.14249,0.014 0.28498,0.021 0.42748,0.032 0.14249,0.014 0.28498,0.021 0.42747,0.031 0.14249,0.014 0.28499,0.021 0.42748,0.031 0.14249,0.014 0.28498,0.021 0.42747,0.031 0.1425,0.014 0.28499,0.02 0.42748,0.031 0.14249,0.014 0.28498,0.02 0.42749,0.029 0.14249,0.014 0.28498,0.02 0.42748,0.029 0.14249,0.014 0.28498,0.02 0.42747,0.029 0.14249,0.014 0.28499,0.02 0.42748,0.029 0.14249,0.014 0.28498,0.02 0.42747,0.028 0.1425,0.014 0.28499,0.02 0.42748,0.028 0.14249,0.014 0.285,0.018 0.42749,0.028 0.14249,0.014 0.28498,0.018 0.42748,0.028 0.14249,0.014 0.28498,0.018 0.42747,0.028 0.14249,0.014 0.28499,0.018 0.42748,0.027 0.14249,0.014 0.28498,0.018 0.42747,0.027 0.1425,0.014 0.28499,0.018 0.42748,0.027 0.14251,0.014 0.285,0.018 0.42749,0.027 0.14249,0.014 0.28498,0.018 0.42748,0.027 0.14249,0.014 0.28498,0.017 0.42747,0.027 0.14249,0.014 0.28499,0.017 0.42748,0.025 0.14249,0.014 0.28498,0.017 0.42747,0.025 0.1425,0.014 0.28499,0.017 0.42749,0.025 0.1425,0.014 0.28499,0.017 0.42748,0.025 0.14249,0.014 0.28498,0.017 0.42748,0.025 0.14249,0.014 0.28498,0.017 0.42747,0.024 0.14249,0.014 0.28499,0.015 0.42748,0.024 0.14249,0.014 0.28498,0.015 0.42747,0.024 0.1425,0.014 0.285,0.015 0.42749,0.024 0.1425,0.014 0.28499,0.015 0.42748,0.024 0.14249,0.014 0.28498,0.015 0.42748,0.024 0.14249,0.014 0.28498,0.015 0.42747,0.022 0.14249,0.014 0.28499,0.015 0.42748,0.022 0.14249,0.014 0.28498,0.015 0.42747,0.022 0.1425,0.014 0.285,0.015 0.42749,0.022 0.1425,0.014 0.28499,0.015 0.42748,0.022 0.14249,0 0.28498,0.014 0.42748,0.022 0.14249,0 0.28498,0.014 0.42747,0.022 0.14249,0.014 0.28499,0.014 0.42748,0.021 0.14249,0.014 0.28498,0.014 0.42747,0.021 0.14251,0.014 0.285,0.014 0.42749,0.021 0.1425,0 0.28499,0.014 0.42748,0.021 0.14249,0.014 0.28498,0.014 0.42748,0.021 0.14249,0 0.28498,0.014 0.42747,0.021 0.14249,0.014 0.28499,0.014 0.42748,0.021 0.14249,0.014 0.28498,0.014 0.42749,0.02 0.14249,0.014 0.28498,0.014 0.42747,0.02 0.1425,0.014 0.28499,0.014 0.42748,0.02 0.14249,0 0.28498,0.014 0.42748,0.02 0.14249,0 0.28498,0.014 0.42747,0.02 0.14249,0 0.28499,0.014 0.42748,0.02 0.14249,0.014 0.285,0.014 0.42747,0.02 0.14251,0 0.285,0.014 0.42749,0.02 0.1425,0 0.28499,0.014 0.42748,0.02 0.14249,0 0.28498,0.014 0.42748,0.018 0.14249,0 0.28498,0.014 0.42747,0.018 0.14249,0 0.28499,0.014 0.42748,0.018 0.14249,0 0.28498,0.014 0.42749,0.018 0.14249,0 0.28498,0.014 0.42747,0.018 0.1425,0 0.28499,0.014 0.42748,0.018 0.14249,0 0.28498,0.014 0.42748,0.018 0.14249,0 0.28498,0.014 0.42747,0.018 0.14249,0 0.28499,0.014 0.42748,0.018 0.14249,0 0.28498,0.014 0.42749,0.018 0.14249,0 0.28498,0.014 0.42747,0.017 0.1425,0 15.68875,0.8491 15.83125,0.8548"
       style="fill:#4e9a06;fill-opacity:1;stroke:black;stroke-width:0.5;stroke-linecap:round;stroke-linejoin:round;stroke-miterlimit:4;stroke-opacity:1;stroke-dasharray:none;stroke-dashoffset:0"
       inkscape:connector-curvature="0"
       sodipodi:nodetypes="cccccccsssssssssssssssssssssssssssssssssssssssssssssssssssssssssssssssssssssssssssssssssssssssssssssssssssssssssssssssssssssssssssssssssssssssssssssssssssssssssssssssssssssssssssssssssssssssssssssssssssssc" />
    <text
       sodipodi:linespacing="125%"
       id="text3996"
       y="1083.0466"
       x="144.54703"
       style="font-size:11px;font-style:italic;font-variant:normal;font-weight:normal;font-stretch:normal;text-align:start;line-height:125%;letter-spacing:0px;word-spacing:0px;writing-mode:lr-tb;text-anchor:start;fill:black;fill-opacity:1;stroke:none;font-family:Linux Libertine O;-inkscape-font-specification:Linux Libertine O Italic"
       xml:space="preserve"><tspan
         y="1083.0466"
         x="144.54703"
         id="tspan3998"
         sodipodi:role="line">1</tspan></text>
    <text
       xml:space="preserve"
       style="font-size:11px;font-style:italic;font-variant:normal;font-weight:normal;font-stretch:normal;text-align:start;line-height:125%;letter-spacing:0px;word-spacing:0px;writing-mode:lr-tb;text-anchor:start;fill:black;fill-opacity:1;stroke:none;font-family:Linux Libertine O;-inkscape-font-specification:Linux Libertine O Italic"
       x="165.50189"
       y="1052.9398"
       id="text4021"
       sodipodi:linespacing="125%"><tspan
         sodipodi:role="line"
         id="tspan4023"
         x="165.50189"
         y="1052.9398">A</tspan></text>
    <text
       xml:space="preserve"
       style="font-size:11px;font-style:italic;font-variant:normal;font-weight:normal;font-stretch:normal;text-align:start;line-height:125%;letter-spacing:0px;word-spacing:0px;writing-mode:lr-tb;text-anchor:start;fill:black;fill-opacity:1;stroke:none;font-family:Linux Libertine O;-inkscape-font-specification:Linux Libertine O Italic"
       x="119.22827"
       y="1053.788"
       id="text4000"
       sodipodi:linespacing="125%"><tspan
         sodipodi:role="line"
         id="tspan4002"
         x="119.22827"
         y="1053.788">1</tspan></text>
    <text
       sodipodi:linespacing="125%"
       id="text4004"
       y="1062.803"
       x="212.77411"
       style="font-size:11px;font-style:italic;font-variant:normal;font-weight:normal;font-stretch:normal;text-align:start;line-height:125%;letter-spacing:0px;word-spacing:0px;writing-mode:lr-tb;text-anchor:start;fill:black;fill-opacity:1;stroke:none;font-family:Linux Libertine O;-inkscape-font-specification:Linux Libertine O Italic"
       xml:space="preserve"><tspan
         y="1062.803"
         x="212.77411"
         id="tspan4006"
         sodipodi:role="line">y=1/x</tspan></text>
    <path
       style="fill:none;stroke:black;stroke-width:0.42000002;stroke-linecap:butt;stroke-linejoin:miter;stroke-miterlimit:4;stroke-opacity:1;stroke-dasharray:2.52, 2.52;stroke-dashoffset:0"
       d="m 125.95985,1050.9086 21.23453,0"
       id="path4039"
       inkscape:connector-curvature="0" />
    <path
       style="color:black;fill:none;stroke:black;stroke-width:0.5;stroke-linecap:round;stroke-linejoin:miter;stroke-miterlimit:4;stroke-opacity:1;stroke-dasharray:none;stroke-dashoffset:0;marker:none;marker-end:url(#Arrow1Mend);visibility:visible;display:inline;overflow:visible;enable-background:accumulate"
       d="M 42.193493,19.340127 32.103744,30.347125"
       id="path3019"
       inkscape:connector-curvature="0"
       transform="translate(-8.3781528,1034.9375)" />
    <path
       inkscape:connector-curvature="0"
       id="path4233"
       d="m 167.81534,1054.2776 -10.08975,11.007"
       style="color:black;fill:none;stroke:black;stroke-width:0.5;stroke-linecap:round;stroke-linejoin:miter;stroke-miterlimit:4;stroke-opacity:1;stroke-dasharray:none;stroke-dashoffset:0;marker:none;marker-end:url(#Arrow1Mend);visibility:visible;display:inline;overflow:visible;enable-background:accumulate" />
  </g>
</svg>
