<?xml version="1.0" encoding="UTF-8" standalone="no"?>
<!-- Created with Inkscape (http://www.inkscape.org/) -->

<svg
   xmlns:dc="http://purl.org/dc/elements/1.1/"
   xmlns:cc="http://creativecommons.org/ns#"
   xmlns:rdf="http://www.w3.org/1999/02/22-rdf-syntax-ns#"
   xmlns:svg="http://www.w3.org/2000/svg"
   xmlns="http://www.w3.org/2000/svg"
   xmlns:xlink="http://www.w3.org/1999/xlink"
   xmlns:sodipodi="http://sodipodi.sourceforge.net/DTD/sodipodi-0.dtd"
   xmlns:inkscape="http://www.inkscape.org/namespaces/inkscape"
   sodipodi:docname="01areaunderhyperbola.pdf"
   inkscape:version="0.48.2 r9819"
   version="1.1"
   id="svg2"
   height="180"
   width="180">
  <sodipodi:namedview
     id="base"
     pagecolor="#ffffff"
     bordercolor="#666666"
     borderopacity="1.0"
     inkscape:pageopacity="0.0"
     inkscape:pageshadow="2"
     inkscape:zoom="2.8833333"
     inkscape:cx="83.930636"
     inkscape:cy="90"
     inkscape:document-units="px"
     inkscape:current-layer="layer1"
     showgrid="false"
     inkscape:window-width="1280"
     inkscape:window-height="738"
     inkscape:window-x="-8"
     inkscape:window-y="-8"
     inkscape:window-maximized="1"
     width="680.31px"
     units="in"
     showguides="true"
     inkscape:guide-bbox="true">
    <sodipodi:guide
       id="guide3802"
       position="22.890173,18.381503"
       orientation="1,0" />
    <sodipodi:guide
       id="guide3804"
       position="22.890173,18.381503"
       orientation="0,1" />
    <sodipodi:guide
       id="guide3814"
       position="22.890173,18.381503"
       orientation="-0.70710678,0.70710678" />
    <sodipodi:guide
       orientation="1,0"
       position="48.641619,46.127168"
       id="guide3835" />
    <sodipodi:guide
       orientation="0,1"
       position="52.109827,44.132948"
       id="guide3837" />
  </sodipodi:namedview>
  <defs
     id="defs4">
    <linearGradient
       inkscape:collect="always"
       id="linearGradient3840">
      <stop
         style="stop-color:#ffb380;stop-opacity:1;"
         offset="0"
         id="stop3842" />
      <stop
         style="stop-color:#ffb380;stop-opacity:0;"
         offset="1"
         id="stop3844" />
    </linearGradient>
    <linearGradient
       inkscape:collect="always"
       id="linearGradient3832">
      <stop
         style="stop-color:#ffb380;stop-opacity:1;"
         offset="0"
         id="stop3834" />
      <stop
         style="stop-color:#ffb380;stop-opacity:0;"
         offset="1"
         id="stop3836" />
    </linearGradient>
    <marker
       inkscape:stockid="Arrow2Mend"
       orient="auto"
       refY="0.0"
       refX="0.0"
       id="Arrow2Mend"
       style="overflow:visible;">
      <path
         id="path3922"
         style="font-size:12.0;fill-rule:evenodd;stroke-width:0.62500000;stroke-linejoin:round;"
         d="M 8.7185878,4.0337352 L -2.2072895,0.016013256 L 8.7185884,-4.0017078 C 6.9730900,-1.6296469 6.9831476,1.6157441 8.7185878,4.0337352 z "
         transform="scale(0.6) rotate(180) translate(0,0)" />
    </marker>
    <linearGradient
       inkscape:collect="always"
       xlink:href="#linearGradient3832"
       id="linearGradient3838"
       x1="125.28902"
       y1="161.6185"
       x2="151.9075"
       y2="161.6185"
       gradientUnits="userSpaceOnUse" />
    <linearGradient
       inkscape:collect="always"
       xlink:href="#linearGradient3840"
       id="linearGradient3846"
       x1="22.890173"
       y1="49.596413"
       x2="22.890173"
       y2="36.417221"
       gradientUnits="userSpaceOnUse" />
  </defs>
  <metadata
     id="metadata7">
    <rdf:RDF>
      <cc:Work
         rdf:about="">
        <dc:format>image/svg+xml</dc:format>
        <dc:type
           rdf:resource="http://purl.org/dc/dcmitype/StillImage" />
        <dc:title></dc:title>
      </cc:Work>
    </rdf:RDF>
  </metadata>
  <g
     inkscape:groupmode="layer"
     id="layer2"
     inkscape:label="shading"
     style="display:inline">
    <path
       style="fill:url(#linearGradient3838);stroke:none;fill-opacity:1"
       d="m 48.641619,161.61846 103.265881,0 0,-5.1607 c -0.20746,-0.01 -0.41493,-0.017 -0.62239,-0.025 -0.20747,-0.01 -0.41493,-0.017 -0.6224,-0.025 -0.20746,-0.01 -0.41493,-0.017 -0.62239,-0.025 -0.20747,-0.01 -0.41493,-0.017 -0.6224,-0.026 -0.20746,-0.01 -0.41493,-0.017 -0.62239,-0.026 -0.20747,-0.01 -0.41493,-0.017 -0.6224,-0.026 -0.20746,-0.01 -0.41493,-0.018 -0.62239,-0.026 -0.20747,-0.01 -0.41493,-0.018 -0.6224,-0.027 -0.20746,-0.01 -0.41493,-0.018 -0.62239,-0.027 -0.20747,-0.01 -0.41493,-0.018 -0.6224,-0.027 -0.20746,-0.01 -0.41493,-0.018 -0.62239,-0.028 -0.20747,-0.01 -0.41493,-0.019 -0.6224,-0.028 -0.20746,-0.01 -0.41493,-0.019 -0.62239,-0.028 -0.20747,-0.01 -0.41493,-0.019 -0.6224,-0.029 -0.20746,-0.01 -0.41493,-0.019 -0.62239,-0.029 -0.20747,-0.01 -0.41493,-0.019 -0.6224,-0.029 -0.20746,-0.01 -0.41493,-0.019 -0.62239,-0.029 -0.20747,-0.01 -0.41493,-0.02 -0.6224,-0.03 -0.20746,-0.01 -0.41493,-0.02 -0.6224,-0.03 -0.20746,-0.01 -0.41493,-0.02 -0.62239,-0.03 -0.20747,-0.01 -0.41493,-0.02 -0.6224,-0.031 -0.20746,-0.01 -0.41493,-0.021 -0.62239,-0.031 -0.20747,-0.01 -0.41493,-0.021 -0.6224,-0.031 -0.20746,-0.01 -0.41493,-0.021 -0.62239,-0.032 -0.20747,-0.011 -0.41493,-0.021 -0.6224,-0.032 -0.20746,-0.011 -0.41493,-0.021 -0.62239,-0.032 -0.20747,-0.011 -0.41493,-0.022 -0.6224,-0.033 -0.20746,-0.011 -0.41493,-0.022 -0.62239,-0.033 -0.20747,-0.011 -0.41493,-0.022 -0.6224,-0.033 -0.20746,-0.011 -0.41493,-0.023 -0.62239,-0.034 -0.20747,-0.011 -0.41493,-0.023 -0.6224,-0.034 -0.20746,-0.011 -0.41493,-0.023 -0.62239,-0.035 -0.20747,-0.012 -0.41493,-0.023 -0.6224,-0.035 -0.20746,-0.012 -0.41493,-0.024 -0.62239,-0.035 -0.20747,-0.012 -0.41493,-0.024 -0.6224,-0.036 -0.20746,-0.012 -0.41493,-0.024 -0.62239,-0.036 -0.20747,-0.012 -0.41493,-0.024 -0.6224,-0.037 -0.20746,-0.012 -0.41493,-0.025 -0.62239,-0.037 -0.20747,-0.012 -0.41493,-0.025 -0.6224,-0.038 -0.20746,-0.013 -0.41493,-0.025 -0.62239,-0.038 -0.20747,-0.013 -0.41493,-0.026 -0.6224,-0.038 -0.20746,-0.013 -0.41493,-0.026 -0.62239,-0.039 -0.20747,-0.013 -0.41493,-0.026 -0.6224,-0.039 -0.20746,-0.013 -0.41493,-0.027 -0.62239,-0.04 -0.20747,-0.013 -0.41493,-0.027 -0.6224,-0.04 -0.20746,-0.014 -0.41493,-0.027 -0.62239,-0.041 -0.20747,-0.014 -0.41493,-0.027 -0.6224,-0.041 -0.20746,-0.014 -0.41493,-0.028 -0.62239,-0.042 -0.20747,-0.014 -0.41493,-0.028 -0.6224,-0.042 -0.20746,-0.014 -0.41493,-0.029 -0.62239,-0.043 -0.20747,-0.014 -0.41494,-0.029 -0.6224,-0.043 -0.20747,-0.015 -0.41493,-0.029 -0.6224,-0.044 -0.20746,-0.015 -0.41493,-0.03 -0.62239,-0.045 -0.20747,-0.015 -0.41493,-0.03 -0.6224,-0.045 -0.20746,-0.015 -0.41493,-0.03 -0.62239,-0.046 -0.20747,-0.015 -0.41493,-0.031 -0.6224,-0.046 -0.20746,-0.016 -0.41493,-0.031 -0.62239,-0.047 -0.20747,-0.016 -0.41493,-0.032 -0.6224,-0.048 -0.20746,-0.016 -0.41493,-0.032 -0.62239,-0.048 -0.20747,-0.016 -0.41493,-0.033 -0.6224,-0.049 -0.20746,-0.016 -0.41493,-0.033 -0.62239,-0.05 -0.20747,-0.017 -0.41493,-0.033 -0.6224,-0.05 -0.20746,-0.017 -0.41493,-0.034 -0.62239,-0.051 -0.20747,-0.017 -0.41493,-0.034 -0.6224,-0.052 -0.20746,-0.017 -0.41493,-0.035 -0.62239,-0.053 -0.20747,-0.018 -0.41493,-0.035 -0.6224,-0.053 -0.20746,-0.018 -0.41493,-0.036 -0.62239,-0.054 -0.20747,-0.018 -0.41493,-0.036 -0.6224,-0.055 -0.20746,-0.018 -0.41493,-0.037 -0.62239,-0.056 -0.20747,-0.019 -0.41493,-0.037 -0.6224,-0.056 -0.20746,-0.019 -0.41493,-0.038 -0.62239,-0.057 -0.20747,-0.019 -0.41493,-0.038 -0.6224,-0.058 -0.20746,-0.019 -0.41493,-0.039 -0.62239,-0.059 -0.20747,-0.02 -0.41493,-0.04 -0.6224,-0.06 -0.20746,-0.02 -0.41493,-0.04 -0.62239,-0.061 -0.20747,-0.02 -0.41493,-0.041 -0.6224,-0.062 -0.20746,-0.021 -0.41493,-0.041 -0.62239,-0.062 -0.20747,-0.021 -0.41493,-0.042 -0.6224,-0.063 -0.20746,-0.021 -0.41493,-0.043 -0.62239,-0.064 -0.20747,-0.022 -0.41493,-0.043 -0.6224,-0.066 -0.20746,-0.022 -0.41493,-0.044 -0.62239,-0.067 -0.20747,-0.022 -0.41494,-0.045 -0.6224,-0.068 -0.20747,-0.023 -0.41493,-0.046 -0.6224,-0.069 -0.20746,-0.023 -0.41492,-0.046 -0.62239,-0.07 -0.20746,-0.024 -0.41493,-0.047 -0.6224,-0.071 -0.20746,-0.024 -0.41493,-0.048 -0.62239,-0.072 -0.20747,-0.024 -0.41493,-0.049 -0.6224,-0.073 -0.20746,-0.025 -0.41493,-0.049 -0.62239,-0.074 -0.20747,-0.025 -0.41493,-0.05 -0.6224,-0.076 -0.20746,-0.025 -0.41493,-0.051 -0.62239,-0.077 -0.20747,-0.026 -0.41493,-0.052 -0.6224,-0.078 -0.20746,-0.026 -0.41493,-0.053 -0.62239,-0.08 -0.20747,-0.027 -0.41493,-0.054 -0.6224,-0.081 -0.20746,-0.027 -0.41493,-0.055 -0.62239,-0.083 -0.20747,-0.028 -0.41493,-0.056 -0.6224,-0.084 -0.20746,-0.028 -0.41493,-0.057 -0.62239,-0.086 -0.20747,-0.029 -0.41493,-0.058 -0.6224,-0.087 -0.20746,-0.029 -0.41493,-0.059 -0.62239,-0.089 -0.20747,-0.03 -0.41493,-0.06 -0.6224,-0.09 -0.20746,-0.03 -0.41493,-0.061 -0.62239,-0.092 -0.20747,-0.031 -0.41493,-0.062 -0.6224,-0.094 -0.20746,-0.032 -0.41493,-0.063 -0.62239,-0.096 -0.20747,-0.032 -0.41493,-0.065 -0.6224,-0.097 -0.20746,-0.033 -0.41493,-0.066 -0.62239,-0.099 -0.20747,-0.033 -0.41493,-0.067 -0.6224,-0.1012 -0.20746,-0.034 -0.41493,-0.068 -0.62239,-0.1033 -0.20747,-0.035 -0.41493,-0.07 -0.6224,-0.1053 -0.20746,-0.035 -0.41493,-0.071 -0.62239,-0.1074 -0.20747,-0.036 -0.41493,-0.073 -0.6224,-0.1096 -0.20746,-0.037 -0.41493,-0.074 -0.62239,-0.1119 -0.20747,-0.038 -0.41493,-0.076 -0.6224,-0.1142 -0.20746,-0.038 -0.41493,-0.077 -0.62239,-0.1165 -0.20747,-0.039 -0.41493,-0.079 -0.6224,-0.1191 -0.20746,-0.04 -0.41493,-0.081 -0.62239,-0.1216 -0.20747,-0.041 -0.41493,-0.082 -0.6224,-0.1243 -0.20746,-0.042 -0.41493,-0.084 -0.622395,-0.1269 -0.207466,-0.043 -0.414931,-0.086 -0.622396,-0.1298 -0.207465,-0.044 -0.41493,-0.088 -0.622395,-0.1327 -0.207465,-0.045 -0.41493,-0.09 -0.622395,-0.1357 -0.207465,-0.046 -0.41493,-0.092 -0.622395,-0.1388 -0.207465,-0.047 -0.41493,-0.094 -0.622395,-0.142 -0.207465,-0.048 -0.41493,-0.096 -0.622395,-0.1454 -0.207466,-0.049 -0.414931,-0.099 -0.622396,-0.1488 -0.207465,-0.05 -0.41493,-0.1009 -0.622395,-0.1523 -0.207465,-0.051 -0.41493,-0.1035 -0.622395,-0.1561 -0.207465,-0.053 -0.41493,-0.106 -0.622395,-0.1599 -0.207465,-0.054 -0.41493,-0.1086 -0.622395,-0.1639 -0.207465,-0.055 -0.41493,-0.1113 -0.622395,-0.1681 -0.207465,-0.057 -0.414931,-0.1141 -0.622396,-0.1723 -0.207465,-0.058 -0.41493,-0.1171 -0.622395,-0.1768 -0.207465,-0.06 -0.41493,-0.1201 -0.622395,-0.1814 -0.207465,-0.061 -0.41493,-0.1233 -0.622395,-0.1862 -0.207465,-0.063 -0.41493,-0.1267 -0.622395,-0.1913 -0.207465,-0.065 -0.41493,-0.1301 -0.622395,-0.1964 -0.207465,-0.066 -0.41493,-0.1337 -0.622396,-0.2019 -0.207465,-0.068 -0.41493,-0.1375 -0.622395,-0.2076 -0.207465,-0.07 -0.41493,-0.1413 -0.622395,-0.2135 -0.207465,-0.072 -0.41493,-0.1454 -0.622395,-0.2196 -0.207465,-0.074 -0.41493,-0.1496 -0.622395,-0.2261 -0.207465,-0.077 -0.41493,-0.154 -0.622395,-0.2328 -0.207465,-0.079 -0.41493,-0.1586 -0.622395,-0.2398 -0.207466,-0.081 -0.414931,-0.1635 -0.622396,-0.2472 -0.207465,-0.084 -0.41493,-0.1685 -0.622395,-0.2548 -0.207465,-0.086 -0.41493,-0.1739 -0.622395,-0.2629 -0.207465,-0.089 -0.41493,-0.1794 -0.622395,-0.2713 -0.207465,-0.092 -0.41493,-0.1853 -0.622395,-0.2802 -0.207465,-0.095 -0.41493,-0.1914 -0.622395,-0.2895 -0.207465,-0.098 -0.414931,-0.1978 -0.622396,-0.2993 -0.207465,-0.1014 -0.41493,-0.2045 -0.622395,-0.3095 -0.207465,-0.1049 -0.41493,-0.2117 -0.622395,-0.3203 -0.207465,-0.1087 -0.41493,-0.2192 -0.622395,-0.3317 -0.207465,-0.1126 -0.41493,-0.2271 -0.622395,-0.3437 -0.207465,-0.1167 -0.41493,-0.2354 -0.622395,-0.3564 -0.207465,-0.121 -0.41493,-0.2442 -0.622396,-0.3697 -0.207465,-0.1256 -0.41493,-0.2535 -0.622395,-0.3839 -0.207465,-0.1304 -0.41493,-0.2633 -0.622395,-0.3989 -0.207465,-0.1355 -0.41493,-0.2737 -0.622395,-0.4147 -0.207465,-0.141 -0.41493,-0.2848 -0.622395,-0.4315 -0.207465,-0.1468 -0.41493,-0.2965 -0.622395,-0.4494 -0.207465,-0.1529 -0.41493,-0.309 -0.622396,-0.4685 -0.207465,-0.1594 -0.41493,-0.3222 -0.622395,-0.4886 -0.207465,-0.1664 -0.41493,-0.3364 -0.622395,-0.5102 -0.207465,-0.1739 -0.41493,-0.3515 -0.622395,-0.5333 -0.207465,-0.1818 -0.41493,-0.3677 -0.622395,-0.5579 -0.207465,-0.1903 -0.985613,-0.84341 -1.193078,-1.04281"
       id="path3846"
       inkscape:connector-curvature="0"
       sodipodi:nodetypes="cccccccccccccsccssssssscsssssssssssscsscssscssscssssscsssccssssssscssscssscsscssscccssssscscssssssssssssccsccccccccccccccccsccccccccccccccccccccccsccccccccscscscscscscc" />
    <path
       style="fill:url(#linearGradient3846);stroke:none;fill-opacity:1"
       d="m 48.589907,135.71296 c -0.207466,-0.2092 -0.414931,-0.4234 -0.622396,-0.643 -0.207465,-0.2197 -0.41493,-0.4448 -0.622395,-0.6757 -0.207465,-0.231 -0.41493,-0.4679 -0.622395,-0.7111 -0.207465,-0.2432 -0.41493,-0.4927 -0.622395,-0.7491 -0.207465,-0.2564 -0.41493,-0.5197 -0.622395,-0.7905 -0.207465,-0.2707 -0.41493,-0.5489 -0.622395,-0.8352 -0.207465,-0.2863 -0.414931,-0.5807 -0.622396,-0.884 -0.207465,-0.3032 -0.41493,-0.6153 -0.622395,-0.937 -0.207465,-0.3218 -0.41493,-0.6531 -0.622395,-0.9951 -0.207465,-0.342 -0.41493,-0.6945 -0.622395,-1.05871 -0.207465,-0.36419 -0.41493,-0.73997 -0.622395,-1.1286 -0.207465,-0.38863 -0.41493,-0.79003 -0.622395,-1.20565 -0.207465,-0.41562 -0.41493,-0.84536 -0.622396,-1.29088 -0.207465,-0.44552 -0.41493,-0.90672 -0.622395,-1.38549 -0.207465,-0.47876 -0.41493,-0.97499 -0.622395,-1.49087 -0.207465,-0.51588 -0.41493,-1.05129 -0.622395,-1.60878 -0.207465,-0.55748 -0.41493,-1.13689 -0.622395,-1.74122 -0.207465,-0.60433 -0.41493,-1.23341 -0.622395,-1.89074 -0.207465,-0.65734 -0.41493,-1.34275 -0.622395,-2.06038 -0.207466,-0.71763 -0.414931,-1.46729 -0.622396,-2.25392 -0.207465,-0.78662 -0.41493,-1.60999 -0.622395,-2.47606 -0.207465,-0.86608 -0.41493,-1.77458 -0.622395,-2.73277 -0.207465,-0.95819 -0.41493,-1.96574 -0.622395,-3.03156 -0.207465,-1.06583 -0.41493,-2.18954 -0.622395,-3.38221 -0.207465,-1.19267 -0.41493,-2.45382 -0.622395,-3.79741 -0.207466,-1.34358 -0.414931,-2.76901 -0.622396,-4.29407 -0.207465,-1.52506 -0.41493,-3.14904 -0.622395,-4.89499 -0.207465,-1.74596 -0.41493,-3.61299 -0.622395,-5.63155 -0.207465,-2.01856 -0.41493,-4.18748 -0.622395,-6.54787 -0.207465,-2.36038 -0.41493,-4.91064 -0.622395,-7.70763 -0.207465,-2.79699 -0.41493,-5.8385 -0.622395,-9.20547 -0.207465,-3.36697 -0.414931,-7.05618 -0.622396,-11.18692 -0.207465,-4.13074 -0.41493,-8.69927 -0.622395,-13.88527 l -5.160693,-10e-6 0,129.01527 25.751446,0"
       id="path3839"
       inkscape:connector-curvature="0"
       sodipodi:nodetypes="cccsscsccscsssssssssssssssssssssscccc" />
    <text
       xml:space="preserve"
       style="font-size:9px;font-style:normal;font-weight:normal;line-height:125%;letter-spacing:0px;word-spacing:0px;fill:#000000;fill-opacity:1;stroke:none;font-family:Sans"
       x="31.398844"
       y="151.44508"
       id="text4518"
       sodipodi:linespacing="125%"><tspan
         sodipodi:role="line"
         id="tspan4520"
         x="31.398844"
         y="151.44508">$A$</tspan></text>
  </g>
  <g
     transform="translate(0,-872.36114)"
     inkscape:label="Layer 1"
     inkscape:groupmode="layer"
     id="layer1"
     style="display:inline">
    <path
       id="path3825"
       title="t 1.0/t"
       d="m 22.890173,161.61848 129.017327,0 m 0,-5.16069 c -0.20746,-0.008 -0.41493,-0.0166 -0.62239,-0.025 -0.20747,-0.008 -0.41493,-0.0168 -0.6224,-0.0253 -0.20746,-0.008 -0.41493,-0.017 -0.62239,-0.0255 -0.20747,-0.009 -0.41493,-0.0171 -0.6224,-0.0258 -0.20746,-0.009 -0.41493,-0.0173 -0.62239,-0.026 -0.20747,-0.009 -0.41493,-0.0175 -0.6224,-0.0263 -0.20746,-0.009 -0.41493,-0.0176 -0.62239,-0.0265 -0.20747,-0.009 -0.41493,-0.0178 -0.6224,-0.0268 -0.20746,-0.009 -0.41493,-0.018 -0.62239,-0.0271 -0.20747,-0.009 -0.41493,-0.0182 -0.6224,-0.0273 -0.20746,-0.009 -0.41493,-0.0184 -0.62239,-0.0276 -0.20747,-0.009 -0.41493,-0.0186 -0.6224,-0.0279 -0.20746,-0.009 -0.41493,-0.0187 -0.62239,-0.0282 -0.20747,-0.009 -0.41493,-0.0189 -0.6224,-0.0285 -0.20746,-0.01 -0.41493,-0.0191 -0.62239,-0.0288 -0.20747,-0.01 -0.41493,-0.0193 -0.6224,-0.0291 -0.20746,-0.01 -0.41493,-0.0195 -0.62239,-0.0294 -0.20747,-0.01 -0.41493,-0.0197 -0.6224,-0.0297 -0.20746,-0.01 -0.41493,-0.0199 -0.6224,-0.03 -0.20746,-0.0101 -0.41493,-0.0202 -0.62239,-0.0303 -0.20747,-0.0102 -0.41493,-0.0204 -0.6224,-0.0307 -0.20746,-0.0103 -0.41493,-0.0206 -0.62239,-0.031 -0.20747,-0.0104 -0.41493,-0.0208 -0.6224,-0.0313 -0.20746,-0.0105 -0.41493,-0.0211 -0.62239,-0.0317 -0.20747,-0.0106 -0.41493,-0.0213 -0.6224,-0.032 -0.20746,-0.0107 -0.41493,-0.0215 -0.62239,-0.0324 -0.20747,-0.0109 -0.41493,-0.0218 -0.6224,-0.0327 -0.20746,-0.011 -0.41493,-0.022 -0.62239,-0.0331 -0.20747,-0.0111 -0.41493,-0.0222 -0.6224,-0.0335 -0.20746,-0.0112 -0.41493,-0.0225 -0.62239,-0.0338 -0.20747,-0.0113 -0.41493,-0.0228 -0.6224,-0.0342 -0.20746,-0.0115 -0.41493,-0.023 -0.62239,-0.0346 -0.20747,-0.0116 -0.41493,-0.0233 -0.6224,-0.035 -0.20746,-0.0117 -0.41493,-0.0236 -0.62239,-0.0354 -0.20747,-0.0119 -0.41493,-0.0238 -0.6224,-0.0358 -0.20746,-0.012 -0.41493,-0.0241 -0.62239,-0.0362 -0.20747,-0.0121 -0.41493,-0.0244 -0.6224,-0.0367 -0.20746,-0.0123 -0.41493,-0.0247 -0.62239,-0.0371 -0.20747,-0.0124 -0.41493,-0.025 -0.6224,-0.0375 -0.20746,-0.0126 -0.41493,-0.0253 -0.62239,-0.038 -0.20747,-0.0127 -0.41493,-0.0256 -0.6224,-0.0385 -0.20746,-0.0129 -0.41493,-0.0259 -0.62239,-0.0389 -0.20747,-0.013 -0.41493,-0.0262 -0.6224,-0.0394 -0.20746,-0.0132 -0.41493,-0.0265 -0.62239,-0.0399 -0.20747,-0.0134 -0.41493,-0.0268 -0.6224,-0.0404 -0.20746,-0.0135 -0.41493,-0.0272 -0.62239,-0.0409 -0.20747,-0.0137 -0.41493,-0.0275 -0.6224,-0.0414 -0.20746,-0.0139 -0.41493,-0.0279 -0.62239,-0.0419 -0.20747,-0.0141 -0.41493,-0.0282 -0.6224,-0.0424 -0.20746,-0.0142 -0.41493,-0.0286 -0.62239,-0.043 -0.20747,-0.0144 -0.41494,-0.0289 -0.6224,-0.0435 -0.20747,-0.0146 -0.41493,-0.0293 -0.6224,-0.0441 -0.20746,-0.0148 -0.41493,-0.0297 -0.62239,-0.0446 -0.20747,-0.015 -0.41493,-0.0301 -0.6224,-0.0452 -0.20746,-0.0152 -0.41493,-0.0305 -0.62239,-0.0458 -0.20747,-0.0154 -0.41493,-0.0308 -0.6224,-0.0464 -0.20746,-0.0156 -0.41493,-0.0313 -0.62239,-0.0471 -0.20747,-0.0158 -0.41493,-0.0317 -0.6224,-0.0477 -0.20746,-0.016 -0.41493,-0.0321 -0.62239,-0.0483 -0.20747,-0.0162 -0.41493,-0.0325 -0.6224,-0.049 -0.20746,-0.0164 -0.41493,-0.033 -0.62239,-0.0496 -0.20747,-0.0167 -0.41493,-0.0334 -0.6224,-0.0503 -0.20746,-0.0169 -0.41493,-0.0339 -0.62239,-0.051 -0.20747,-0.0171 -0.41493,-0.0344 -0.6224,-0.0517 -0.20746,-0.0174 -0.41493,-0.0348 -0.62239,-0.0525 -0.20747,-0.0176 -0.41493,-0.0353 -0.6224,-0.0532 -0.20746,-0.0179 -0.41493,-0.0359 -0.62239,-0.054 -0.20747,-0.0181 -0.41493,-0.0364 -0.6224,-0.0547 -0.20746,-0.0184 -0.41493,-0.0369 -0.62239,-0.0555 -0.20747,-0.0187 -0.41493,-0.0374 -0.6224,-0.0564 -0.20746,-0.0189 -0.41493,-0.038 -0.62239,-0.0572 -0.20747,-0.0192 -0.41493,-0.0385 -0.6224,-0.058 -0.20746,-0.0195 -0.41493,-0.0391 -0.62239,-0.0589 -0.20747,-0.0198 -0.41493,-0.0397 -0.6224,-0.0598 -0.20746,-0.0201 -0.41493,-0.0403 -0.62239,-0.0607 -0.20747,-0.0204 -0.41493,-0.0409 -0.6224,-0.0616 -0.20746,-0.0207 -0.41493,-0.0415 -0.62239,-0.0625 -0.20747,-0.021 -0.41493,-0.0422 -0.6224,-0.0635 -0.20746,-0.0213 -0.41493,-0.0428 -0.62239,-0.0645 -0.20747,-0.0217 -0.41493,-0.0435 -0.6224,-0.0655 -0.20746,-0.022 -0.41493,-0.0442 -0.62239,-0.0665 -0.20747,-0.0224 -0.41494,-0.0449 -0.6224,-0.0676 -0.20747,-0.0227 -0.41493,-0.0456 -0.6224,-0.0687 -0.20746,-0.0231 -0.414925,-0.0463 -0.62239,-0.0698 -0.207465,-0.0235 -0.41493,-0.0471 -0.622396,-0.071 -0.207465,-0.0238 -0.41493,-0.0479 -0.622395,-0.0721 -0.207465,-0.0242 -0.41493,-0.0487 -0.622395,-0.0733 -0.207465,-0.0246 -0.41493,-0.0495 -0.622395,-0.0745 -0.207465,-0.0251 -0.41493,-0.0503 -0.622395,-0.0758 -0.207465,-0.0255 -0.41493,-0.0512 -0.622395,-0.0771 -0.207465,-0.0259 -0.41493,-0.0521 -0.622396,-0.0784 -0.207465,-0.0264 -0.41493,-0.053 -0.622395,-0.0798 -0.207465,-0.0268 -0.41493,-0.0539 -0.622395,-0.0812 -0.207465,-0.0273 -0.41493,-0.0548 -0.622395,-0.0826 -0.207465,-0.0278 -0.41493,-0.0558 -0.622395,-0.0841 -0.207465,-0.0283 -0.41493,-0.0568 -0.622395,-0.0856 -0.207465,-0.0288 -0.41493,-0.0578 -0.622395,-0.0872 -0.207466,-0.0293 -0.414931,-0.0589 -0.622396,-0.0888 -0.207465,-0.0298 -0.41493,-0.06 -0.622395,-0.0904 -0.207465,-0.0304 -0.41493,-0.0611 -0.622395,-0.0921 -0.207465,-0.031 -0.41493,-0.0622 -0.622395,-0.0938 -0.207465,-0.0316 -0.41493,-0.0634 -0.622395,-0.0956 -0.207465,-0.0322 -0.41493,-0.0646 -0.622395,-0.0974 -0.207465,-0.0328 -0.414931,-0.0659 -0.622396,-0.0993 -0.207465,-0.0334 -0.41493,-0.0672 -0.622395,-0.10125 -0.207465,-0.0341 -0.41493,-0.0685 -0.622395,-0.10325 -0.207465,-0.0348 -0.41493,-0.0699 -0.622395,-0.1053 -0.207465,-0.0354 -0.41493,-0.0713 -0.622395,-0.10743 -0.207465,-0.0362 -0.41493,-0.0727 -0.622395,-0.10961 -0.207465,-0.0369 -0.41493,-0.0742 -0.622396,-0.11187 -0.207465,-0.0377 -0.41493,-0.0757 -0.622395,-0.11419 -0.207465,-0.0385 -0.41493,-0.0773 -0.622395,-0.11658 -0.207465,-0.0393 -0.41493,-0.079 -0.622395,-0.11906 -0.207465,-0.0401 -0.41493,-0.0806 -0.622395,-0.12161 -0.207465,-0.041 -0.41493,-0.0824 -0.622395,-0.12425 -0.207465,-0.0419 -0.41493,-0.0842 -0.622395,-0.12697 -0.207466,-0.0428 -0.414931,-0.086 -0.622396,-0.12978 -0.207465,-0.0437 -0.41493,-0.088 -0.622395,-0.13269 -0.207465,-0.0447 -0.41493,-0.0899 -0.622395,-0.13569 -0.207465,-0.0457 -0.41493,-0.092 -0.622395,-0.1388 -0.207465,-0.0468 -0.41493,-0.0941 -0.622395,-0.14202 -0.207465,-0.0479 -0.41493,-0.0963 -0.622395,-0.14535 -0.207466,-0.049 -0.414931,-0.0986 -0.622396,-0.1488 -0.207465,-0.0502 -0.41493,-0.10097 -0.622395,-0.15237 -0.207465,-0.0514 -0.41493,-0.10342 -0.622395,-0.15608 -0.207465,-0.0526 -0.41493,-0.10595 -0.622395,-0.15991 -0.207465,-0.054 -0.41493,-0.10859 -0.622395,-0.1639 -0.207465,-0.0553 -0.41493,-0.11131 -0.622395,-0.16803 -0.207465,-0.0567 -0.414931,-0.11415 -0.622396,-0.17233 -0.207465,-0.0582 -0.41493,-0.11709 -0.622395,-0.17678 -0.207465,-0.0597 -0.41493,-0.12015 -0.622395,-0.18142 -0.207465,-0.0613 -0.41493,-0.12333 -0.622395,-0.18623 -0.207465,-0.0629 -0.41493,-0.12665 -0.622395,-0.19125 -0.207465,-0.0646 -0.41493,-0.13009 -0.622395,-0.19647 -0.207465,-0.0664 -0.41493,-0.13368 -0.622396,-0.20191 -0.207465,-0.0682 -0.41493,-0.13741 -0.622395,-0.20757 -0.207465,-0.0702 -0.41493,-0.1413 -0.622395,-0.21347 -0.207465,-0.0722 -0.41493,-0.14537 -0.622395,-0.21964 -0.207465,-0.0743 -0.41493,-0.14961 -0.622395,-0.22607 -0.207465,-0.0765 -0.41493,-0.15404 -0.622395,-0.23279 -0.207465,-0.0788 -0.41493,-0.15866 -0.622395,-0.23981 -0.207466,-0.0811 -0.414931,-0.16351 -0.622396,-0.24716 -0.207465,-0.0836 -0.41493,-0.16857 -0.622395,-0.25484 -0.207465,-0.0863 -0.41493,-0.17388 -0.622395,-0.2629 -0.207465,-0.089 -0.41493,-0.17944 -0.622395,-0.27134 -0.207465,-0.0919 -0.41493,-0.18527 -0.622395,-0.28019 -0.207465,-0.0949 -0.41493,-0.19139 -0.622395,-0.28949 -0.207465,-0.0981 -0.414931,-0.19782 -0.622396,-0.29926 -0.207465,-0.10143 -0.41493,-0.20457 -0.622395,-0.30952 -0.207465,-0.10494 -0.41493,-0.21168 -0.622395,-0.32032 -0.207465,-0.10864 -0.41493,-0.21917 -0.622395,-0.33171 -0.207465,-0.11253 -0.41493,-0.22706 -0.622395,-0.3437 -0.207465,-0.11665 -0.41493,-0.23539 -0.622395,-0.35637 -0.207465,-0.12098 -0.41493,-0.24418 -0.622396,-0.36974 -0.207465,-0.12556 -0.41493,-0.25347 -0.622395,-0.38388 -0.207465,-0.13041 -0.41493,-0.26331 -0.622395,-0.39885 -0.207465,-0.13555 -0.41493,-0.27373 -0.622395,-0.41472 -0.207465,-0.14099 -0.41493,-0.28477 -0.622395,-0.43154 -0.207465,-0.14676 -0.41493,-0.2965 -0.622395,-0.44941 -0.207465,-0.15291 -0.41493,-0.30897 -0.622396,-0.46842 -0.207465,-0.15944 -0.41493,-0.32224 -0.622395,-0.48865 -0.207465,-0.16641 -0.41493,-0.3364 -0.622395,-0.51023 -0.207465,-0.17384 -0.41493,-0.3515 -0.622395,-0.53328 -0.207465,-0.18177 -0.41493,-0.36764 -0.622395,-0.55791 -0.207465,-0.19027 -0.41493,-0.38491 -0.622395,-0.58429 -0.207465,-0.19937 -0.41493,-0.40344 -0.622395,-0.61259 -0.207466,-0.20915 -0.414931,-0.42335 -0.622396,-0.64301 -0.207465,-0.21965 -0.41493,-0.44474 -0.622395,-0.67573 -0.207465,-0.23098 -0.41493,-0.46782 -0.622395,-0.71102 -0.207465,-0.24321 -0.41493,-0.49274 -0.622395,-0.74916 -0.207465,-0.25642 -0.41493,-0.5197 -0.622395,-0.79044 -0.207465,-0.27075 -0.41493,-0.54893 -0.622395,-0.83524 -0.207465,-0.28631 -0.414931,-0.5807 -0.622396,-0.88396 -0.207465,-0.30325 -0.41493,-0.61531 -0.622395,-0.93705 -0.207465,-0.32175 -0.41493,-0.65312 -0.622395,-0.9951 -0.207465,-0.34198 -0.41493,-0.6945 -0.622395,-1.05869 -0.207465,-0.36419 -0.41493,-0.73997 -0.622395,-1.1286 -0.207465,-0.38863 -0.41493,-0.79003 -0.622395,-1.20565 -0.207465,-0.41562 -0.41493,-0.84536 -0.622396,-1.29088 -0.207465,-0.44552 -0.41493,-0.90672 -0.622395,-1.38549 -0.207465,-0.47876 -0.41493,-0.97499 -0.622395,-1.49087 -0.207465,-0.51588 -0.41493,-1.05129 -0.622395,-1.60878 -0.207465,-0.55748 -0.41493,-1.13689 -0.622395,-1.74122 -0.207465,-0.60433 -0.41493,-1.23341 -0.622395,-1.89074 -0.207465,-0.65734 -0.41493,-1.34275 -0.622395,-2.06038 -0.207466,-0.71763 -0.414931,-1.46729 -0.622396,-2.25392 -0.207465,-0.78662 -0.41493,-1.60999 -0.622395,-2.47606 -0.207465,-0.86608 -0.41493,-1.77458 -0.622395,-2.73277 -0.207465,-0.95819 -0.41493,-1.96574 -0.622395,-3.03156 -0.207465,-1.06583 -0.41493,-2.18954 -0.622395,-3.382207 -0.207465,-1.192669 -0.41493,-2.453828 -0.622395,-3.79741 C 32.822562,94.611431 32.615097,93.186 32.407632,91.660939 32.200167,90.135877 31.992702,88.5119 31.785237,86.765945 31.577772,85.019989 31.370307,83.152963 31.162842,81.1344 c -0.207465,-2.018564 -0.41493,-4.187482 -0.622395,-6.547865 -0.207465,-2.360382 -0.41493,-4.910643 -0.622395,-7.707633 -0.207465,-2.79699 -0.41493,-5.838502 -0.622395,-9.205473 -0.207465,-3.366971 -0.414931,-7.056178 -0.622396,-11.18692 -0.207465,-4.130743 -0.41493,-8.699272 -0.622395,-13.885273 m -5.160693,-2e-6 0,129.017326"
       transform="translate(0,872.36114)"
       style="fill:none;stroke:none;stroke-width:1;stroke-miterlimit:4;stroke-dasharray:none;stroke-dashoffset:0"
       inkscape:connector-curvature="0"
       sodipodi:nodetypes="cccssssssssssssssssssssssssssssssssssssssssssssssssssssssssssssssssssssssssssssssssssssssssssssssssssssssssssssssssssssssssssssssssssssssssssssssssssssssssssssssssssssssssssssssssssssssssssssssssssssssccc" />
    <text
       xml:space="preserve"
       style="font-size:9px;font-style:normal;font-weight:normal;line-height:125%;letter-spacing:0px;word-spacing:0px;fill:#000000;fill-opacity:1;stroke:none;font-family:Sans"
       x="48.127167"
       y="992.85828"
       id="text3848"
       sodipodi:linespacing="125%"><tspan
         sodipodi:role="line"
         id="tspan3850"
         x="48.127167"
         y="992.85828">$A=\displaystyle\int_0^\infty \frac{dx}{x}=$?</tspan></text>
    <path
       style="fill:none;stroke:#000000;stroke-width:1px;stroke-linecap:round;stroke-linejoin:miter;stroke-opacity:1;marker-end:url(#Arrow2Mend)"
       d="m 22.890173,170.98266 0,-166.4739895"
       id="path3888"
       inkscape:connector-curvature="0"
       transform="translate(0,872.36114)" />
    <path
       style="fill:none;stroke:#000000;stroke-width:1px;stroke-linecap:round;stroke-linejoin:miter;stroke-opacity:1;marker-end:url(#Arrow2Mend)"
       d="m 12.83237,161.6185 156.76301,0"
       id="path3890"
       inkscape:connector-curvature="0"
       transform="translate(0,872.36114)" />
  </g>
</svg>
