<?xml version="1.0" encoding="UTF-8" standalone="no"?>
<!-- Created with Inkscape (http://www.inkscape.org/) -->

<svg
   xmlns:dc="http://purl.org/dc/elements/1.1/"
   xmlns:cc="http://creativecommons.org/ns#"
   xmlns:rdf="http://www.w3.org/1999/02/22-rdf-syntax-ns#"
   xmlns:svg="http://www.w3.org/2000/svg"
   xmlns="http://www.w3.org/2000/svg"
   xmlns:sodipodi="http://sodipodi.sourceforge.net/DTD/sodipodi-0.dtd"
   xmlns:inkscape="http://www.inkscape.org/namespaces/inkscape"
   width="180"
   height="180"
   id="svg2"
   version="1.1"
   inkscape:version="0.48.2 r9819"
   sodipodi:docname="01areaunderhyperbola-substitution.pdf">
  <sodipodi:namedview
     id="base"
     pagecolor="#ffffff"
     bordercolor="#666666"
     borderopacity="1.0"
     inkscape:pageopacity="0.0"
     inkscape:pageshadow="2"
     inkscape:zoom="4.6055556"
     inkscape:cx="90"
     inkscape:cy="72.629674"
     inkscape:document-units="px"
     inkscape:current-layer="layer1"
     showgrid="false"
     units="in"
     inkscape:window-width="1920"
     inkscape:window-height="1018"
     inkscape:window-x="-8"
     inkscape:window-y="-8"
     inkscape:window-maximized="1"
     showguides="false"
     inkscape:guide-bbox="true">
    <inkscape:grid
       type="xygrid"
       id="grid2985"
       empspacing="5"
       visible="true"
       enabled="true"
       snapvisiblegridlinesonly="true" />
    <sodipodi:guide
       orientation="1,0"
       position="117.03257,18.781665"
       id="guide3877" />
  </sodipodi:namedview>
  <defs
     id="defs4">
    <marker
       inkscape:stockid="Arrow2Lend"
       orient="auto"
       refY="0.0"
       refX="0.0"
       id="Arrow2Lend"
       style="overflow:visible;">
      <path
         id="path3923"
         style="font-size:12.0;fill-rule:evenodd;stroke-width:0.62500000;stroke-linejoin:round;"
         d="M 8.7185878,4.0337352 L -2.2072895,0.016013256 L 8.7185884,-4.0017078 C 6.9730900,-1.6296469 6.9831476,1.6157441 8.7185878,4.0337352 z "
         transform="scale(1.1) rotate(180) translate(1,0)" />
    </marker>
    <marker
       inkscape:stockid="Arrow1Mend"
       orient="auto"
       refY="0.0"
       refX="0.0"
       id="Arrow1Mend"
       style="overflow:visible;">
      <path
         id="path3911"
         d="M 0.0,0.0 L 5.0,-5.0 L -12.5,0.0 L 5.0,5.0 L 0.0,0.0 z "
         style="fill-rule:evenodd;stroke:#000000;stroke-width:1.0pt;marker-start:none;"
         transform="scale(0.4) rotate(180) translate(10,0)" />
    </marker>
  </defs>
  <metadata
     id="metadata7">
    <rdf:RDF>
      <cc:Work
         rdf:about="">
        <dc:format>image/svg+xml</dc:format>
        <dc:type
           rdf:resource="http://purl.org/dc/dcmitype/StillImage" />
        <dc:title></dc:title>
      </cc:Work>
    </rdf:RDF>
  </metadata>
  <g
     inkscape:label="Layer 1"
     inkscape:groupmode="layer"
     id="layer1"
     transform="translate(0,-872.35975)">
    <path
       style="color:#000000;fill:#ffb380;stroke:none;stroke-width:0.30000000999999998;stroke-linecap:round;stroke-linejoin:bevel;stroke-miterlimit:4;stroke-opacity:1;stroke-dasharray:none;stroke-dashoffset:0;marker:none;visibility:visible;display:inline;overflow:visible;enable-background:accumulate"
       d="m 68.468033,1037.1607 c 7.5e-5,-1.5537 0.07525,-3.1073 0.224494,-4.661 0.149242,-1.5537 0.372823,-3.1074 0.667331,-4.6611 0.294507,-1.5536 0.660335,-3.1073 1.092532,-4.661 0.432196,-1.5537 0.931123,-3.1074 1.490809,-4.661 0.559687,-1.5537 1.180464,-3.1074 1.855869,-4.6611 0.675406,-1.5537 1.405743,-3.1073 2.184509,-4.661 0.778767,-1.5537 1.606237,-3.1074 2.476198,-4.6611 0.869961,-1.5536 1.782659,-3.1073 2.732373,-4.66098 0.949715,-1.55368 1.936666,-3.10736 2.955724,-4.66104 1.019058,-1.55368 2.070418,-3.10736 3.149567,-4.66104 1.07915,-1.55368 2.186258,-3.10736 3.317407,-4.66104 1.13115,-1.55368 2.286489,-3.10735 3.462643,-4.66103 1.176154,-1.55368 2.373252,-3.10736 3.588406,-4.66104 1.215153,-1.55368 2.448475,-3.10736 3.697495,-4.66104 1.24902,-1.55368 2.51383,-3.10736 3.79233,-4.66104 1.27851,-1.55368 2.57079,-3.10735 3.87504,-4.66103 1.30426,-1.55368 2.62057,-3.10736 3.94738,-4.66104 0.70976,-0.83112 4.05443,-5.10342 4.05443,-5.10342 l 0,84.34064 -48.2095,0.084"
       id="path3883"
       inkscape:connector-curvature="0"
       sodipodi:nodetypes="cscscsscssssssssssccc" />
    <path
       style="fill:none;stroke:#000000;stroke-width:1px;stroke-linecap:butt;stroke-linejoin:miter;stroke-opacity:1"
       d="m 20,887.35975 0,150.00005 145,0"
       id="path2987"
       inkscape:connector-curvature="0" />
    <path
       style="fill:none;stroke:#000000;stroke-width:0.3;stroke-linecap:butt;stroke-linejoin:miter;stroke-opacity:1;stroke-miterlimit:4;stroke-dasharray:2.4,2.4;stroke-dashoffset:0"
       d="M 20,165 165,20"
       id="path2989"
       inkscape:connector-curvature="0"
       transform="translate(0,872.35975)" />
    <path
       id="path3095"
       title="sqrt(4+t*t) t"
       d=" M 68.468033 164.800964 C 68.4681080052 163.2472849 68.543284549 161.6936058 68.6925266081 160.1399267 C 68.8417686672 158.5862476 69.0653498619 157.0325685 69.3598576518 155.4788894 C 69.6543654416 153.9252103 70.0201931437 152.3715312 70.452389585 150.8178521 C 70.8845860263 149.264173 71.3835130747 147.7104939 71.9431993367 146.1568148 C 72.5028855986 144.6031357 73.1236625753 143.0494566 73.7990683218 141.4957775 C 74.4744740683 139.9420984 75.2048110028 138.3884193 75.9835774289 136.8347402 C 76.7623438551 135.2810611 77.5898139228 133.727382 78.4597747345 132.1737029 C 79.3297355461 130.6200238 80.2424335805 129.066344701 81.192148232 127.512665601 C 82.1418628834 125.958986501 83.1288138002 124.405307401 84.1478721432 122.851628301 C 85.1669304862 121.297949201 86.2182904179 119.744270101 87.2974394602 118.190591001 C 88.3765885024 116.636911901 89.4836971825 115.083232801 90.6148464548 113.529553701 C 91.7459957271 111.975874601 92.9013346827 110.422195501 94.0774886241 108.868516401 C 95.2536425655 107.314837301 96.4507414965 105.761158201 97.6658946055 104.207479101 C 98.8810477146 102.653800001 100.114368247 101.100120901 101.363386693 99.5464418009 C 102.612405139 97.992762701 103.877220179 96.439083601 105.155724128 94.885404501 C 106.434228078 93.331725401 107.726507042 91.778046301 109.030761367 90.2243672011 C 110.335015691 88.6706881011 111.651320666 87.1170090011 112.978137473 85.5633299011 C 114.304954279 84.0096508012 115.642348925 82.4559717012 116.989002835 80.9022926012 C 118.335656744 79.3486135012 119.691627961 77.7949344012 121.055783679 76.2412553013 C 122.419939397 74.6875762013 123.792330821 73.1338971013 125.171981877 71.5802180013 C 126.551632933 70.0265389014 127.938588942 68.4728598014 129.332006217 66.9191807014 C 130.725423493 65.3655016014 132.125342285 63.8118225014 133.531030942 62.2581434015 C 134.936719599 60.7044643015 136.348213987 59.1507852015 137.764877485 57.5971061015 C 139.181540983 56.0434270016 140.603405656 54.4897479016 142.029915712 52.9360688016 C 143.456425769 51.3823897016 144.887609966 49.8287106016 146.322981459 48.2750315017 C 147.758352952 46.7213524017 149.197937614 45.1676733017 150.64130759 43.6139942017 C 152.084677566 42.0603151018 153.531856204 40.5066360018 154.982466283 38.9529569018 C 156.433076362 37.3992778018 157.887139011 35.8455987018 159.344320605 34.2919196019 C 160.801502199 32.7382405019 162.261821915 31.1845614019 163.724983784 29.6308823019"
       transform="translate(0,872.35975)"
       style="color:#000000;fill:none;stroke:#000000;stroke-width:1;stroke-linecap:round;stroke-linejoin:bevel;stroke-miterlimit:4;stroke-opacity:1;stroke-dasharray:none;stroke-dashoffset:0;marker:none;visibility:visible;display:inline;overflow:visible;enable-background:accumulate" />
    <text
       xml:space="preserve"
       style="font-size:12px;font-style:normal;font-variant:normal;font-weight:normal;font-stretch:normal;line-height:125%;letter-spacing:0px;word-spacing:0px;fill:#000000;fill-opacity:1;stroke:none;font-family:Linux Libertine;-inkscape-font-specification:Linux Libertine"
       x="65.184555"
       y="1048.9315"
       id="text3885"
       sodipodi:linespacing="125%"><tspan
         sodipodi:role="line"
         id="tspan3887"
         x="65.184555"
         y="1048.9315">$2$</tspan></text>
    <text
       sodipodi:linespacing="125%"
       id="text3889"
       y="1048.9315"
       x="113.18456"
       style="font-size:12px;font-style:normal;font-variant:normal;font-weight:normal;font-stretch:normal;line-height:125%;letter-spacing:0px;word-spacing:0px;fill:#000000;fill-opacity:1;stroke:none;font-family:Linux Libertine;-inkscape-font-specification:Linux Libertine"
       xml:space="preserve"><tspan
         y="1048.9315"
         x="113.18456"
         id="tspan3891"
         sodipodi:role="line">$4$</tspan></text>
    <text
       xml:space="preserve"
       style="font-size:12px;font-style:normal;font-variant:normal;font-weight:normal;font-stretch:normal;line-height:125%;letter-spacing:0px;word-spacing:0px;fill:#000000;fill-opacity:1;stroke:none;font-family:Linux Libertine;-inkscape-font-specification:Linux Libertine"
       x="43.112183"
       y="919.86279"
       id="text3893"
       sodipodi:linespacing="125%"><tspan
         sodipodi:role="line"
         id="tspan3895"
         x="43.112183"
         y="919.86279">$y=\sqrt{x^2-4}$</tspan></text>
    <path
       style="fill:none;stroke:#000000;stroke-width:0.50000000000000000;stroke-linecap:butt;stroke-linejoin:miter;stroke-opacity:1;stroke-miterlimit:4;stroke-dasharray:none;marker-end:url(#Arrow2Lend)"
       d="M 72.303981,51.45959 112.0386,84.680338"
       id="path3897"
       inkscape:connector-curvature="0"
       transform="translate(0,872.35975)" />
    <text
       xml:space="preserve"
       style="font-size:12px;font-style:normal;font-variant:normal;font-weight:normal;font-stretch:normal;line-height:125%;letter-spacing:0px;word-spacing:0px;fill:#000000;fill-opacity:1;stroke:none;font-family:Linux Libertine;-inkscape-font-specification:Linux Libertine"
       x="75.252113"
       y="1021.5732"
       id="text4529"
       sodipodi:linespacing="125%"><tspan
         sodipodi:role="line"
         id="tspan4531"
         x="75.252113"
         y="1021.5732">{\sffamily Area = ?}</tspan></text>
  </g>
</svg>
