<?xml version="1.0" encoding="UTF-8" standalone="no"?>
<!-- Created with Inkscape (http://www.inkscape.org/) -->

<svg
   xmlns:dc="http://purl.org/dc/elements/1.1/"
   xmlns:cc="http://creativecommons.org/ns#"
   xmlns:rdf="http://www.w3.org/1999/02/22-rdf-syntax-ns#"
   xmlns:svg="http://www.w3.org/2000/svg"
   xmlns="http://www.w3.org/2000/svg"
   xmlns:sodipodi="http://sodipodi.sourceforge.net/DTD/sodipodi-0.dtd"
   xmlns:inkscape="http://www.inkscape.org/namespaces/inkscape"
   width="326.91406"
   height="345.83392"
   id="svg2"
   version="1.1"
   inkscape:version="0.48.2 r9819"
   sodipodi:docname="01UVrelations.pdf">
  <sodipodi:namedview
     id="base"
     pagecolor="#ffffff"
     bordercolor="#666666"
     borderopacity="1.0"
     inkscape:pageopacity="0.0"
     inkscape:pageshadow="2"
     inkscape:zoom="1.979899"
     inkscape:cx="221.8717"
     inkscape:cy="138.42026"
     inkscape:document-units="px"
     inkscape:current-layer="layer1"
     showgrid="false"
     inkscape:window-width="1280"
     inkscape:window-height="738"
     inkscape:window-x="-8"
     inkscape:window-y="-8"
     inkscape:window-maximized="1"
     fit-margin-top="0"
     fit-margin-left="0"
     fit-margin-right="0"
     fit-margin-bottom="0"
     showguides="false"
     inkscape:guide-bbox="true">
    <sodipodi:guide
       orientation="0,1"
       position="76.562908,163.63692"
       id="guide3908" />
  </sodipodi:namedview>
  <defs
     id="defs4" />
  <metadata
     id="metadata7">
    <rdf:RDF>
      <cc:Work
         rdf:about="">
        <dc:format>image/svg+xml</dc:format>
        <dc:type
           rdf:resource="http://purl.org/dc/dcmitype/StillImage" />
        <dc:title></dc:title>
      </cc:Work>
    </rdf:RDF>
  </metadata>
  <g
     id="layer1"
     inkscape:groupmode="layer"
     inkscape:label="Layer 1"
     transform="translate(-419.6723,-66.519332)">
    <path
       style="color:#000000;fill:none;stroke:#ff6600;stroke-width:1.50000000000000000;stroke-linecap:round;stroke-linejoin:round;stroke-miterlimit:4;stroke-opacity:1;stroke-dasharray:none;stroke-dashoffset:0;marker:none;visibility:visible;display:inline;overflow:visible;enable-background:accumulate"
       d="m 446.94286,67.269332 c 0.75686,30.36678 1.51372,49.193698 2.27058,64.287738 0.75687,15.09405 1.51373,25.91537 2.27059,34.83882 0.75687,8.92346 1.51373,15.82853 2.27059,21.6643 0.75686,5.83578 1.51373,10.56465 2.27059,14.6379 0.75686,4.07324 1.51372,7.47578 2.27059,10.44906 0.75686,2.97329 1.51372,5.51011 2.27059,7.75119 0.75686,2.24108 1.51372,4.18247 2.27058,5.91172 0.75687,1.72924 1.51373,3.24395 2.27059,4.60141 0.75686,1.35746 1.51373,2.55613 2.27059,3.63506 0.75686,1.07894 1.51373,2.03707 2.27059,2.90197 0.75686,0.8649 1.51372,1.63578 2.27059,2.33265 0.75686,0.69687 1.51372,1.31915 2.27059,1.88171 0.75686,0.56256 1.51372,1.06495 2.27058,1.51845 0.75687,0.4535 1.51373,0.85777 2.27059,1.22152 0.75686,0.36375 1.51373,0.6867 2.27059,0.97571 0.75686,0.289 1.51373,0.54381 2.27059,0.7699 0.75686,0.22609 1.51372,0.42325 2.27059,0.59589 0.75686,0.17263 1.51372,0.32058 2.27058,0.44741 0.75687,0.12684 1.51373,0.23244 2.27059,0.31974 0.75687,0.0873 1.51373,0.1562 2.27059,0.20914 0.75686,0.0529 1.51373,0.0898 2.27059,0.11269 0.75686,0.0229 1.51373,0.0317 2.27059,0.0281 0.75686,-0.004 1.51372,-0.0196 2.27059,-0.0465 0.75686,-0.0269 1.51372,-0.0649 2.27058,-0.11266 0.75687,-0.0477 1.51373,-0.10529 2.27059,-0.17158 0.75687,-0.0663 1.51373,-0.14135 2.27059,-0.22427 0.75686,-0.0829 1.51373,-0.17371 2.27059,-0.27159 0.75686,-0.0979 1.51372,-0.20286 2.27059,-0.31425 0.75686,-0.11138 1.51372,-0.2292 2.27059,-0.35283 0.75686,-0.12363 1.51372,-0.25309 2.27058,-0.38785 0.75687,-0.13475 1.51373,-0.27482 2.27059,-0.41972 0.75687,-0.1449 1.51373,-0.29465 2.27059,-0.44882 0.75686,-0.15417 1.51373,-0.31278 2.27059,-0.47545 0.75686,-0.16267 1.51372,-0.32941 2.27059,-0.49989 0.75686,-0.17047 1.51372,-0.3447 2.27059,-0.52237 0.75686,-0.17766 1.51372,-0.35879 2.27058,-0.54309 0.75687,-0.1843 1.51373,-0.3718 2.27059,-0.56224 0.75686,-0.19044 1.51373,-0.38385 2.27059,-0.57997 0.75686,-0.19613 1.51373,-0.39501 2.27059,-0.59642 0.75686,-0.20141 1.51372,-0.40537 2.27059,-0.61169 0.75686,-0.20633 1.51372,-0.41502 2.27058,-0.62592 0.75687,-0.2109 1.51373,-0.42402 2.27059,-0.63919 0.75687,-0.21517 1.51373,-0.43241 2.27059,-0.65157 0.75686,-0.21916 1.51373,-0.44026 2.27059,-0.66316 0.75686,-0.2229 1.51373,-0.44762 2.27059,-0.67402 0.75686,-0.2264 1.51372,-0.45451 2.27059,-0.6842 0.75686,-0.22969 1.51372,-0.46098 2.27058,-0.69377 0.75687,-0.23278 1.51373,-0.46706 2.27059,-0.70276 0.75687,-0.23569 1.51373,-0.4728 2.27059,-0.71123 0.75686,-0.23843 1.51373,-0.4782 2.27059,-0.71922 0.75686,-0.24102 1.51372,-0.48329 2.27059,-0.72675 0.75686,-0.24346 1.51372,-0.48811 2.27059,-0.73388 0.75686,-0.24577 1.51372,-0.49266 2.27058,-0.74062 0.75687,-0.24795 1.51373,-0.49697 2.27059,-0.74699 0.75687,-0.25002 1.51373,-0.50106 2.27059,-0.75304 0.75686,-0.25199 1.51373,-0.50493 2.27059,-0.75878 0.75686,-0.25384 1.51372,-0.5086 2.27059,-0.76422 0.75686,-0.25561 1.51372,-0.51209 2.27059,-0.76939 0.75686,-0.2573 1.51372,-0.51542 2.27058,-0.77432 0.75687,-0.2589 1.51373,-0.51858 2.27059,-0.77901 0.75686,-0.26042 1.51373,-0.52159 2.27059,-0.78346 0.75686,-0.26188 1.51373,-0.52447 2.27059,-0.78773 0.75686,-0.26326 1.51372,-0.5272 2.27059,-0.79179 0.75686,-0.26458 1.51372,-0.52981 2.27059,-0.79566 0.75686,-0.26585 1.51372,-0.53232 2.27058,-0.79937 0.75687,-0.26706 1.51373,-0.5347 2.27059,-0.80291 0.75686,-0.26821 1.51373,-0.53699 2.27059,-0.80631 0.75686,-0.26931 1.51373,-0.53917 2.27059,-0.80954 0.75686,-0.27038 1.51372,-0.54127 2.27059,-0.81266 0.75686,-0.27139 1.51372,-0.54328 2.27058,-0.81564 0.75687,-0.27236 1.51373,-0.5452 2.27059,-0.8185 0.75687,-0.27329 1.51373,-0.54704 2.27059,-0.82124 0.75686,-0.27419 1.51373,-0.54882 2.27059,-0.82387 0.75686,-0.27505 1.51373,-0.55052 2.27059,-0.8264 0.75686,-0.27588 1.51372,-0.55217 2.27059,-0.82884 0.75686,-0.27667 1.51372,-0.55374 2.27058,-0.83118 0.75687,-0.27744 1.51373,-0.55525 2.27059,-0.83343 0.75687,-0.27817 1.51373,-0.55671 2.27059,-0.83559 0.75686,-0.27889 1.51373,-0.55812 2.27059,-0.83769 0.75686,-0.27956 1.51372,-0.55947 2.27059,-0.83969 0.75686,-0.28023 1.51372,-0.56077 2.27059,-0.84163 0.75686,-0.28086 1.51372,-0.56204 2.27058,-0.84351 0.75687,-0.28147 1.51373,-0.56324 2.27059,-0.84531 0.75687,-0.28206 1.51373,-0.56442 2.27059,-0.84705 0.75686,-0.28263 1.51373,-0.56555 2.27059,-0.84873 0.75686,-0.28319 1.51372,-0.56664 2.27059,-0.85036 0.75686,-0.28372 1.51372,-0.5677 2.27059,-0.85193 0.75686,-0.28423 1.51372,-0.56872 2.27058,-0.85345 0.75687,-0.28473 1.51373,-0.5697 2.27059,-0.85491 0.75686,-0.28522 1.51373,-0.57066 2.27059,-0.85634 0.75686,-0.28568 1.51373,-0.57159 2.27059,-0.85771 0.75686,-0.28613 1.51372,-0.57248 2.27059,-0.85905 0.75686,-0.28656 1.51372,-0.57334 2.27058,-0.86033 0.75687,-0.28699 1.51373,-0.57419 2.27059,-0.86159 0.75687,-0.2874 1.51373,-0.575 2.27059,-0.86279 0.75686,-0.2878 1.51373,-0.57579 2.27059,-0.86397 0.75686,-0.28818 1.51373,-0.57655 2.27059,-0.86511 0.75686,-0.28856 1.51372,-0.5773 2.27059,-0.86621 0.75686,-0.28892 1.51372,-0.57802 2.27058,-0.86729 0.75687,-0.28927 1.51373,-0.57871 2.27059,-0.86832 0.75687,-0.28962 1.51373,-0.5794 2.27059,-0.86934 0.75686,-0.28995 1.51373,-0.58005 2.27059,-0.87032 0.75686,-0.29027 1.51372,-0.58069 2.27059,-0.87127 0.75686,-0.29058 1.51372,-0.58132 2.27059,-0.8722 0.75686,-0.29089 1.51372,-0.58192 2.27058,-0.8731 0.75687,-0.29118 1.51373,-0.58251 2.27059,-0.87398 0.75687,-0.29146 1.51373,-0.58308 2.27059,-0.87482 0.75686,-0.29175 1.51373,-0.58364 2.27059,-0.87566 0.75686,-0.29202 1.51372,-0.58418 2.27059,-0.87646 0.75686,-0.29229 1.51372,-0.58471 2.27059,-0.87725 0.75686,-0.29254 1.51372,-0.58522 2.27058,-0.87801 0.75687,-0.2928 1.51373,-0.58572 2.27059,-0.87876 0.75686,-0.29304 1.51373,-0.5862 2.27059,-0.87948 0.75686,-0.29328 1.51373,-0.58668 2.27059,-0.88019 0.75686,-0.29351 1.51372,-0.58713 2.27059,-0.88087 0.75686,-0.29374 1.51372,-0.58759 2.27059,-0.88155 0.75686,-0.29396 1.51372,-0.58802 2.27058,-0.8822 0.75687,-0.29417 1.51373,-0.58845 2.27059,-0.88283 0.75686,-0.29439 1.51373,-0.58887 2.27059,-0.88346"
       title="t (t+1/t)/2"
       id="path3064"
       inkscape:connector-curvature="0"
       sodipodi:nodetypes="csssssssssssssscsscscccscccccscssssssscscssssssccsssscsccsssccsssssccssccssssccccsscscssscscssscsscsscsscsccscsssssssccc" />
    <path
       style="color:#000000;fill:none;stroke:#000000;stroke-width:0.5;stroke-linecap:round;stroke-linejoin:round;stroke-miterlimit:4;stroke-opacity:1;stroke-dasharray:none;stroke-dashoffset:0;marker:none;visibility:visible;display:inline;overflow:visible;enable-background:accumulate"
       d="m 441.42857,293.07647 275.71429,0"
       id="path3924"
       inkscape:connector-curvature="0" />
    <path
       style="color:#000000;fill:none;stroke:#000000;stroke-width:0.5;stroke-linecap:round;stroke-linejoin:round;stroke-miterlimit:4;stroke-opacity:1;stroke-dasharray:none;stroke-dashoffset:0;marker:none;visibility:visible;display:inline;overflow:visible;enable-background:accumulate"
       d="m 441.42857,407.55142 0,-338.046377"
       id="path3922"
       inkscape:connector-curvature="0"
       sodipodi:nodetypes="cc" />
    <path
       style="color:#000000;fill:none;stroke:#0066ff;stroke-width:1.50000000000000000;stroke-linecap:round;stroke-linejoin:round;stroke-miterlimit:4;stroke-opacity:1;stroke-dasharray:none;stroke-dashoffset:0;marker:none;visibility:visible;display:inline;overflow:visible;enable-background:accumulate"
       d="m 451.48403,411.60326 c 0.75687,-9.53718 1.51373,-17.05598 2.27059,-23.50548 0.75686,-6.4495 1.51373,-11.7921 2.27059,-16.47906 0.75686,-4.68697 1.51372,-8.70324 2.27059,-12.29025 0.75686,-3.58701 1.51372,-6.73756 2.27059,-9.59236 0.75686,-2.85481 1.51372,-5.40993 2.27058,-7.75289 0.75687,-2.34297 1.51373,-4.47141 2.27059,-6.44259 0.75686,-1.97119 1.51373,-3.78358 2.27059,-5.47624 0.75686,-1.69266 1.51373,-3.26453 2.27059,-4.74315 0.75686,-1.47862 1.51372,-2.86323 2.27059,-4.17383 0.75686,-1.31059 1.51372,-2.5466 2.27059,-3.72288 0.75686,-1.17628 1.51372,-2.2924 2.27058,-3.35962 0.75687,-1.06723 1.51373,-2.08523 2.27059,-3.0627 0.75686,-0.97748 1.51373,-1.91416 2.27059,-2.81688 0.75686,-0.90273 1.51373,-1.77127 2.27059,-2.61109 0.75686,-0.83981 1.51372,-1.6507 2.27059,-2.43706 0.75686,-0.78636 1.51372,-1.54803 2.27058,-2.28859 0.75687,-0.74057 1.51373,-1.45989 2.27059,-2.16092 0.75687,-0.70103 1.51373,-1.38365 2.27059,-2.05031 0.75686,-0.66666 1.51373,-1.31727 2.27059,-1.95387 0.75686,-0.63661 1.51373,-1.25912 2.27059,-1.86928 0.75686,-0.61016 1.51372,-1.20789 2.27059,-1.79466 0.75686,-0.58677 1.51372,-1.16252 2.27058,-1.72851 0.75687,-0.56599 1.51373,-1.12216 2.27059,-1.66961 0.75687,-0.54744 1.51373,-1.08609 2.27059,-1.6169 0.75686,-0.53082 1.51373,-1.05374 2.27059,-1.56959 0.75686,-0.51585 1.51372,-1.02459 2.27059,-1.52693 0.75686,-0.50234 1.51372,-0.99824 2.27059,-1.48834 0.75686,-0.4901 1.51372,-0.97436 2.27058,-1.45333 0.75687,-0.47897 1.51373,-0.95262 2.27059,-1.42145 0.75687,-0.46883 1.51373,-0.9328 2.27059,-1.39236 0.75686,-0.45956 1.51373,-0.91467 2.27059,-1.36573 0.75686,-0.45105 1.51372,-0.89803 2.27059,-1.34128 0.75686,-0.44325 1.51372,-0.88275 2.27059,-1.31881 0.75686,-0.43606 1.51372,-0.86866 2.27058,-1.29808 0.75687,-0.42943 1.51373,-0.85565 2.27059,-1.27894 0.75686,-0.42328 1.51373,-0.84361 2.27059,-1.2612 0.75686,-0.4176 1.51373,-0.83245 2.27059,-1.24477 0.75686,-0.41231 1.51372,-0.82207 2.27059,-1.22948 0.75686,-0.4074 1.51372,-0.81243 2.27058,-1.21525 0.75687,-0.40283 1.51373,-0.80344 2.27059,-1.202 0.75687,-0.39855 1.51373,-0.79504 2.27059,-1.1896 0.75686,-0.39456 1.51373,-0.78719 2.27059,-1.17801 0.75686,-0.39083 1.51373,-0.77984 2.27059,-1.16716 0.75686,-0.38732 1.51372,-0.77294 2.27059,-1.15698 0.75686,-0.38403 1.51372,-0.76647 2.27058,-1.14741 0.75687,-0.38094 1.51373,-0.76038 2.27059,-1.13842 0.75687,-0.37803 1.51373,-0.75465 2.27059,-1.12994 0.75686,-0.37529 1.51373,-0.74925 2.27059,-1.12196 0.75686,-0.3727 1.51372,-0.74415 2.27059,-1.11442 0.75686,-0.37026 1.51372,-0.73934 2.27059,-1.1073 0.75686,-0.36795 1.51372,-0.73478 2.27058,-1.10056 0.75687,-0.36577 1.51373,-0.73048 2.27059,-1.09418 0.75687,-0.3637 1.51373,-0.72639 2.27059,-1.08814 0.75686,-0.36174 1.51373,-0.72252 2.27059,-1.0824 0.75686,-0.35988 1.51372,-0.71884 2.27059,-1.07695 0.75686,-0.35811 1.51372,-0.71536 2.27059,-1.07178 0.75686,-0.35643 1.51372,-0.71203 2.27058,-1.06686 0.75687,-0.35483 1.51373,-0.70887 2.27059,-1.06217 0.75686,-0.35331 1.51373,-0.70586 2.27059,-1.05771 0.75686,-0.35185 1.51373,-0.70299 2.27059,-1.05345 0.75686,-0.35047 1.51372,-0.70025 2.27059,-1.04939 0.75686,-0.34914 1.51372,-0.69764 2.27059,-1.04551 0.75686,-0.34788 1.51372,-0.69514 2.27058,-1.04181 0.75687,-0.34667 1.51373,-0.69275 2.27059,-1.03826 0.75686,-0.34552 1.51373,-0.69047 2.27059,-1.03488 0.75686,-0.34441 1.51373,-0.68827 2.27059,-1.03163 0.75686,-0.34335 1.51372,-0.68618 2.27059,-1.02852 0.75686,-0.34233 1.51372,-0.68417 2.27058,-1.02553 0.75687,-0.34137 1.51373,-0.68225 2.27059,-1.02268 0.75687,-0.34043 1.51373,-0.68041 2.27059,-1.01994 0.75686,-0.33954 1.51373,-0.67863 2.27059,-1.0173 0.75686,-0.33868 1.51373,-0.67693 2.27059,-1.01478 0.75686,-0.33784 1.51372,-0.67528 2.27059,-1.01233 0.75686,-0.33706 1.51372,-0.67372 2.27058,-1.01 0.75687,-0.33629 1.51373,-0.6722 2.27059,-1.00775 0.75687,-0.33555 1.51373,-0.67074 2.27059,-1.00558 0.75686,-0.33484 1.51373,-0.66934 2.27059,-1.0035 0.75686,-0.33415 1.51372,-0.66798 2.27059,-1.00148 0.75686,-0.3335 1.51372,-0.66667 2.27059,-0.99954 0.75686,-0.33287 1.51372,-0.66542 2.27058,-0.99767 0.75687,-0.33226 1.51373,-0.66421 2.27059,-0.99587 0.75687,-0.33166 1.51373,-0.66303 2.27059,-0.99412 0.75686,-0.3311 1.51373,-0.66191 2.27059,-0.99245 0.75686,-0.33054 1.51372,-0.66081 2.27059,-0.99082 0.75686,-0.33 1.51372,-0.65975 2.27059,-0.98924 0.75686,-0.3295 1.51372,-0.65874 2.27058,-0.98773 0.75687,-0.329 1.51373,-0.65775 2.27059,-0.98626 0.75686,-0.32852 1.51373,-0.65679 2.27059,-0.98484 0.75686,-0.32805 1.51373,-0.65587 2.27059,-0.98346 0.75686,-0.3276 1.51372,-0.65498 2.27059,-0.98214 0.75686,-0.32716 1.51372,-0.6541 2.27058,-0.98084 0.75687,-0.32674 1.51373,-0.65326 2.27059,-0.97959 0.75687,-0.32633 1.51373,-0.65245 2.27059,-0.97838 0.75686,-0.32593 1.51373,-0.65167 2.27059,-0.97721 0.75686,-0.32554 1.51373,-0.6509 2.27059,-0.97607 0.75686,-0.32517 1.51372,-0.65015 2.27059,-0.97496 0.75686,-0.32481 1.51372,-0.64944 2.27058,-0.97389 0.75687,-0.32446 1.51373,-0.64874 2.27059,-0.97285 0.75687,-0.32412 1.51373,-0.64806 2.27059,-0.97184 0.75686,-0.32378 1.51373,-0.6474 2.27059,-0.97086 0.75686,-0.32346 1.51372,-0.64676 2.27059,-0.9699 0.75686,-0.32315 1.51372,-0.64614 2.27059,-0.96898 0.75686,-0.32284 1.51372,-0.64553 2.27058,-0.96808 0.75687,-0.32254 1.51373,-0.64494 2.27059,-0.9672 0.75687,-0.32226 1.51373,-0.64437 2.27059,-0.96635 0.75686,-0.32197 1.51373,-0.64381 2.27059,-0.96552 0.75686,-0.3217 1.51372,-0.64327 2.27059,-0.96471 0.75686,-0.32144 1.51372,-0.64275 2.27059,-0.96393 0.75686,-0.32118 1.51372,-0.64224 2.27058,-0.96317 0.75687,-0.32092 1.51373,-0.64173 2.27059,-0.96242 0.75686,-0.32068 1.51373,-0.64124 2.27059,-0.96169 0.75686,-0.32045 1.51373,-0.64078 2.27059,-0.96099 0.75686,-0.32021 1.51372,-0.64031 2.27059,-0.9603 0.75686,-0.31999 1.51372,-0.63987 2.27059,-0.95963 0.75686,-0.31977 1.51372,-0.63943 2.27058,-0.95898 0.75687,-0.31955 1.51373,-0.639 2.27059,-0.95834 0.75686,-0.31934 1.51373,-0.63858 2.27059,-0.95772"
       id="path3078"
       inkscape:connector-curvature="0"
       sodipodi:nodetypes="csssssssssssssssssssssscsssssssssssssssscssssscsssscsssscssssscsssssssccccssscsssscsscscscssssssssssscscsccssccssscssc" />
    <path
       style="color:#000000;fill:none;stroke:#000000;stroke-width:0.5;stroke-linecap:round;stroke-linejoin:round;stroke-miterlimit:4;stroke-opacity:1;stroke-dasharray:none;stroke-dashoffset:0;marker:none;visibility:visible;display:inline;overflow:visible;enable-background:accumulate"
       d="m 446.94286,290.84075 c 97.08366,-39.36161 181.97587,-73.78039 270.2,-109.54999"
       title="t t/2"
       id="path3094"
       inkscape:connector-curvature="0"
       sodipodi:nodetypes="cc" />
    <path
       id="path3112"
       title="1 t"
       d="m 496.57143,405.02603 c 0,-149.04761 0,-186.47337 0,-335.520987"
       style="color:#000000;fill:none;stroke:#000000;stroke-width:0.69999999;stroke-linecap:round;stroke-linejoin:round;stroke-miterlimit:4;stroke-opacity:1;stroke-dasharray:4.19999993, 4.19999993;stroke-dashoffset:0;marker:none;visibility:visible;display:inline;overflow:visible;enable-background:accumulate"
       inkscape:connector-curvature="0"
       sodipodi:nodetypes="cc" />
    <text
       xml:space="preserve"
       style="font-size:12px;font-style:normal;font-variant:normal;font-weight:normal;font-stretch:normal;line-height:125%;letter-spacing:0px;word-spacing:0px;fill:#000000;fill-opacity:1;stroke:none;font-family:Linux Libertine;-inkscape-font-specification:Linux Libertine"
       x="499.3266"
       y="305.38641"
       id="text3890"
       sodipodi:linespacing="125%"><tspan
         sodipodi:role="line"
         id="tspan3892"
         x="499.3266"
         y="305.38641">$1$</tspan></text>
    <text
       sodipodi:linespacing="125%"
       id="text3894"
       y="266.39658"
       x="556.80121"
       style="font-size:12px;font-style:normal;font-variant:normal;font-weight:normal;font-stretch:normal;line-height:125%;letter-spacing:0px;word-spacing:0px;fill:#000000;fill-opacity:1;stroke:none;font-family:Linux Libertine;-inkscape-font-specification:Linux Libertine"
       xml:space="preserve"><tspan
         y="266.39658"
         x="556.80121"
         id="tspan3896"
         sodipodi:role="line">$\DS V(t) = \frac12\Bigl(t-\frac1t\Bigr)$</tspan></text>
    <rect
       style="color:#000000;fill:#ffffff;stroke:none;stroke-width:0.5;marker:none;visibility:visible;display:inline;overflow:visible;enable-background:accumulate"
       id="rect3902"
       width="17.677656"
       height="36.365486"
       x="47.477169"
       y="94.838806"
       transform="translate(440.67682,66.499352)" />
    <text
       xml:space="preserve"
       style="font-size:12px;font-style:normal;font-variant:normal;font-weight:normal;font-stretch:normal;line-height:125%;letter-spacing:0px;word-spacing:0px;fill:#000000;fill-opacity:1;stroke:none;font-family:Linux Libertine;-inkscape-font-specification:Linux Libertine"
       x="454.80121"
       y="184.39658"
       id="text3898"
       sodipodi:linespacing="125%"><tspan
         sodipodi:role="line"
         id="tspan3900"
         x="454.80121"
         y="184.39658">$\DS U(t) = \frac12\Bigl(t+\frac1t\Bigr)$</tspan></text>
    <text
       xml:space="preserve"
       style="font-size:12px;font-style:normal;font-variant:normal;font-weight:normal;font-stretch:normal;line-height:125%;letter-spacing:0px;word-spacing:0px;fill:#000000;fill-opacity:1;stroke:none;font-family:Linux Libertine;-inkscape-font-specification:Linux Libertine"
       x="257.08383"
       y="239.79568"
       id="text3904"
       sodipodi:linespacing="125%"
       transform="translate(440.67682,66.499352)"><tspan
         sodipodi:role="line"
         id="tspan3906"
         x="257.08383"
         y="239.79568">$t$</tspan></text>
    <path
       style="fill:none;stroke:#000000;stroke-width:1;stroke-linecap:butt;stroke-linejoin:miter;stroke-miterlimit:4;stroke-opacity:1;stroke-dasharray:4, 4;stroke-dashoffset:0"
       d="m 0,182.21699 55.55839,0"
       id="path3910"
       inkscape:connector-curvature="0"
       transform="translate(440.67682,66.499352)" />
    <text
       sodipodi:linespacing="125%"
       id="text3912"
       y="251.38641"
       x="419.3266"
       style="font-size:12px;font-style:normal;font-variant:normal;font-weight:normal;font-stretch:normal;line-height:125%;letter-spacing:0px;word-spacing:0px;fill:#000000;fill-opacity:1;stroke:none;font-family:Linux Libertine;-inkscape-font-specification:Linux Libertine"
       xml:space="preserve"><tspan
         y="251.38641"
         x="419.3266"
         id="tspan3914"
         sodipodi:role="line">$1$</tspan></text>
    <text
       xml:space="preserve"
       style="font-size:12px;font-style:normal;font-variant:normal;font-weight:normal;font-stretch:normal;line-height:125%;letter-spacing:0px;word-spacing:0px;fill:#000000;fill-opacity:1;stroke:none;font-family:Linux Libertine;-inkscape-font-specification:Linux Libertine"
       x="522.49921"
       y="323.65039"
       id="text3916"
       sodipodi:linespacing="125%"><tspan
         sodipodi:role="line"
         id="tspan3918"
         x="522.49921"
         y="323.65039">\annotationUVrelations</tspan></text>
    <text
       sodipodi:linespacing="125%"
       id="text3926"
       y="276.29504"
       x="457.76068"
       style="font-size:12px;font-style:normal;font-variant:normal;font-weight:normal;font-stretch:normal;line-height:125%;letter-spacing:0px;word-spacing:0px;fill:#000000;fill-opacity:1;stroke:none;font-family:Linux Libertine;-inkscape-font-specification:Linux Libertine"
       xml:space="preserve"><tspan
         y="276.29504"
         x="457.76068"
         id="tspan3928"
         sodipodi:role="line">$t/2$</tspan></text>
  </g>
</svg>
