<?xml version="1.0" encoding="UTF-8" standalone="no"?>
<!-- Created with Inkscape (http://www.inkscape.org/) -->

<svg
   xmlns:dc="http://purl.org/dc/elements/1.1/"
   xmlns:cc="http://creativecommons.org/ns#"
   xmlns:rdf="http://www.w3.org/1999/02/22-rdf-syntax-ns#"
   xmlns:svg="http://www.w3.org/2000/svg"
   xmlns="http://www.w3.org/2000/svg"
   xmlns:sodipodi="http://sodipodi.sourceforge.net/DTD/sodipodi-0.dtd"
   xmlns:inkscape="http://www.inkscape.org/namespaces/inkscape"
   id="svg4981"
   version="1.1"
   inkscape:version="0.48.2 r9819"
   width="308.24127"
   height="118.94804"
   xml:space="preserve"
   sodipodi:docname="05crossprod-corkscrew.pdf"><metadata
     id="metadata4987"><rdf:RDF><cc:Work
         rdf:about=""><dc:format>image/svg+xml</dc:format><dc:type
           rdf:resource="http://purl.org/dc/dcmitype/StillImage" /><dc:title></dc:title></cc:Work></rdf:RDF></metadata><defs
     id="defs4985" /><sodipodi:namedview
     pagecolor="#ffffff"
     bordercolor="#666666"
     borderopacity="1"
     objecttolerance="10"
     gridtolerance="10"
     guidetolerance="10"
     inkscape:pageopacity="0"
     inkscape:pageshadow="2"
     inkscape:window-width="1280"
     inkscape:window-height="752"
     id="namedview4983"
     showgrid="false"
     showguides="true"
     inkscape:guide-bbox="true"
     fit-margin-top="0"
     fit-margin-left="0"
     fit-margin-right="0"
     fit-margin-bottom="0"
     inkscape:zoom="2.6926959"
     inkscape:cx="154.12064"
     inkscape:cy="59.474018"
     inkscape:window-x="0"
     inkscape:window-y="0"
     inkscape:window-maximized="0"
     inkscape:current-layer="g4989" /><g
     inkscape:groupmode="layer"
     id="layer1"
     inkscape:label="cross products"><path
       style="fill:none;stroke:#000000;stroke-width:0.44999999;stroke-linecap:round;stroke-linejoin:round;stroke-miterlimit:10;stroke-opacity:1;stroke-dasharray:2.69999993,2.69999993;display:inline;stroke-dashoffset:0"
       d="M 86.531963,112.79688 52.764381,67.773437"
       id="path3328" /><path
       style="fill:none;stroke:#000000;stroke-width:1;stroke-linecap:round;stroke-linejoin:round;stroke-miterlimit:10;stroke-opacity:1;stroke-dasharray:none;display:inline"
       d="M 52.764381,67.773437 22.840219,27.874554"
       id="path5015"
       inkscape:connector-curvature="0"
       sodipodi:nodetypes="cc" /></g><g
     id="g4989"
     inkscape:groupmode="layer"
     inkscape:label="ink_ext_XXXXXX"
     transform="matrix(1.25,0,0,-1.25,18.156963,113.67188)"
     style="display:inline">



<path
   style="fill:none;stroke:#000000;stroke-width:0.45;stroke-linecap:round;stroke-linejoin:round;stroke-miterlimit:10;stroke-opacity:1;stroke-dasharray:0.9,2.7;stroke-dashoffset:0"
   d="m 224.7559,36.775298 7.0805,9.440666"
   id="path3092" /><path
   inkscape:connector-curvature="0"
   id="path4993"
   style="fill:#808080;fill-opacity:1;fill-rule:evenodd;stroke:none"
   d="m 27.9398,36.4 -5.6398,7.3199 2.4,7.3199 4.6801,-6.0597" /><path
   inkscape:connector-curvature="0"
   id="path4995"
   style="fill:#ff5555;stroke:#000000;stroke-width:0.44999999;stroke-linecap:round;stroke-linejoin:round;stroke-miterlimit:10;stroke-opacity:1;stroke-dasharray:none"
   d="m 27.9398,36.4 -5.6398,7.3199 2.4,7.3199 4.6801,-6.0597" /><path
   inkscape:connector-curvature="0"
   id="path4997"
   style="fill:#37c871;fill-opacity:1;fill-rule:evenodd;stroke:none"
   d="m 27.7,36.7 54,18 9,36 -54,-18 -9,-36" /><path
   inkscape:connector-curvature="0"
   id="path4999"
   style="fill:none;stroke:#000000;stroke-width:0.44999999;stroke-linecap:round;stroke-linejoin:round;stroke-miterlimit:10;stroke-opacity:1;stroke-dasharray:none"
   d="m 27.7,36.7 54,18 9,36 -54,-18 -9,-36 z" /><path
   inkscape:connector-curvature="0"
   id="path5001"
   style="fill:#000000;fill-opacity:1;fill-rule:evenodd;stroke:none"
   d="m 27.8199,36.8199 -2.9398,3.6602 6,2.2801 L 33.7,38.8" /><path
   inkscape:connector-curvature="0"
   id="path5003"
   style="fill:none;stroke:#000000;stroke-width:0.44999999;stroke-linecap:round;stroke-linejoin:round;stroke-miterlimit:10;stroke-opacity:1;stroke-dasharray:none"
   d="m 27.8199,36.8199 -2.9398,3.6602 6,2.2801 L 33.7,38.8" /><path
   inkscape:connector-curvature="0"
   id="path5011"
   style="fill:#000000;fill-opacity:1;fill-rule:evenodd;stroke:none"
   d="m 31.7199,52.4801 3.5403,1.6801 -0.5403,-2.6403" /><path
   inkscape:connector-curvature="0"
   id="path5013"
   style="fill:none;stroke:#000000;stroke-width:0.44999999;stroke-linecap:round;stroke-linejoin:round;stroke-miterlimit:10;stroke-opacity:1;stroke-dasharray:none"
   d="m 31.7199,52.4801 3.5403,1.6801 -0.5403,-2.6403 -3,0.9602 z" /><path
   inkscape:connector-curvature="0"
   id="path5017"
   style="fill:none;stroke:#000000;stroke-width:0.44999999;stroke-linecap:round;stroke-linejoin:bevel;stroke-miterlimit:10;stroke-opacity:1;stroke-dasharray:none"
   d="m 47.6199,43.4801 0,0.0597 -0.0597,0.3 -0.1801,0.6 -0.1801,0.9 -0.2398,0.9 -0.2403,0.9 -0.2398,0.7204 -0.2403,0.6597 L 46,49 45.7602,49.4801 45.4,50.0199 45.0398,50.5 44.5602,50.9801 44.0199,51.4 l -0.5398,0.3602 -0.6,0.3597 -0.5403,0.2403 -0.6,0.1796 -0.6,0.1801 -0.6597,0.1199 -0.7199,0.1204 -0.7204,0.0597 -0.7796,0.0602 -1.3204,0 -0.6,-0.0602 -0.6,0 L 35.2,52.9602 34.5398,52.9 l -0.7199,-0.1199 -0.7801,-0.1199 -0.6597,-0.1204 -0.3,-0.0597 -0.0602,0" /><path
   inkscape:connector-curvature="0"
   id="path5027"
   style="fill:#ffffff;fill-opacity:1;fill-rule:evenodd;stroke:none"
   d="m 47.8602,7.83984 2.4,1.2 0.9,-1.67968 L 49.3,6.21992" /><path
   inkscape:connector-curvature="0"
   id="path5029"
   style="fill:none;stroke:#ffffff;stroke-width:0.44999999;stroke-linecap:round;stroke-linejoin:round;stroke-miterlimit:10;stroke-opacity:1;stroke-dasharray:none"
   d="m 47.8602,7.83984 2.4,1.2 0.9,-1.67968 L 49.3,6.21992 47.8602,7.83984 z" /><path
   inkscape:connector-curvature="0"
   id="path5031"
   style="fill:#ffffff;fill-opacity:1;fill-rule:evenodd;stroke:none"
   d="m 33.7,26.6801 2.4602,1.3801 1.0796,-1.5 L 34.4801,25" /><path
   inkscape:connector-curvature="0"
   id="path5033"
   style="fill:none;stroke:#ffffff;stroke-width:0.44999999;stroke-linecap:round;stroke-linejoin:round;stroke-miterlimit:10;stroke-opacity:1;stroke-dasharray:none"
   d="m 33.7,26.6801 2.4602,1.3801 1.0796,-1.5 L 34.4801,25 33.7,26.6801 z" /><path
   inkscape:connector-curvature="0"
   id="path5035"
   style="fill:#ffffff;fill-opacity:1;fill-rule:evenodd;stroke:none"
   d="M 38.0801,21.1 40.0602,22.4199 41.1398,20.5 38.8602,19.7801" /><path
   inkscape:connector-curvature="0"
   id="path5037"
   style="fill:none;stroke:#ffffff;stroke-width:0.44999999;stroke-linecap:round;stroke-linejoin:round;stroke-miterlimit:10;stroke-opacity:1;stroke-dasharray:none"
   d="M 38.0801,21.1 40.0602,22.4199 41.1398,20.5 38.8602,19.7801 38.0801,21.1 z" /><path
   inkscape:connector-curvature="0"
   id="path5039"
   style="fill:#ffffff;fill-opacity:1;fill-rule:evenodd;stroke:none"
   d="M 43.2398,14.1398 45.5199,15.1 46.9,13.5398 44.2,12.4602" /><path
   inkscape:connector-curvature="0"
   id="path5041"
   style="fill:none;stroke:#ffffff;stroke-width:0.44999999;stroke-linecap:round;stroke-linejoin:round;stroke-miterlimit:10;stroke-opacity:1;stroke-dasharray:none"
   d="M 43.2398,14.1398 45.5199,15.1 46.9,13.5398 44.2,12.4602 43.2398,14.1398 z" /><path
   inkscape:connector-curvature="0"
   id="path5043"
   style="fill:#008080;stroke:#008080;stroke-width:0.44999999;stroke-linecap:round;stroke-linejoin:bevel;stroke-miterlimit:10;stroke-opacity:1;stroke-dasharray:none"
   d="M 47.9199,19.7199 43.5398,17.6801" /><path
   inkscape:connector-curvature="0"
   id="path5045"
   style="fill:none;stroke:#008080;stroke-width:0.44999999;stroke-linecap:round;stroke-linejoin:bevel;stroke-miterlimit:10;stroke-opacity:1;stroke-dasharray:none"
   d="M 43.3602,8.68008 43.2398,8.61992 42.8199,8.13984 42.1602,7.48008 41.6199,6.93984 41.2602,6.46016 l -0.1801,-0.3 -0.0602,-0.12032 0,-0.05976 -0.0597,-0.11992 0,-0.18008 0.0597,-0.06016 0,-0.05976 L 41.0801,5.5 41.1398,5.38008 41.2,5.31992 l 0.1199,0 L 41.4398,5.26016 41.5,5.2 l 0.1801,0 0.1199,-0.06016 0.8398,0 L 43.1199,5.2 43.6602,5.26016 44.3199,5.38008 44.9801,5.56016 45.7,5.8 l 0.7199,0.23984 0.6602,0.24024 0.6,0.3 0.6,0.3 0.6597,0.35976 0.6602,0.42032 0.7199,0.41992 0.7199,0.53984 0.7204,0.48008 0.6597,0.53984 0.6,0.54026 0.6,0.6 0.6,0.6 0.6,0.6 0.5403,0.7199 0.6,0.7199 0.5398,0.7199 0.4801,0.7204 0.4199,0.7199 0.3602,0.6 0.2398,0.5398 0.1801,0.4199 0.1199,0.4204 0,0.3597 -0.0602,0.3 -0.1796,0.3 -0.2403,0.3 -0.3,0.2403 -0.2398,0.2398 -0.2403,0.1801 -0.1199,0.0597" /><path
   inkscape:connector-curvature="0"
   id="path5047"
   style="fill:#000000;fill-opacity:1;fill-rule:evenodd;stroke:none"
   d="m 58.3,20.8602 -4.5,-0.6 2.5801,-2.2204 -0.3602,1.7403" /><path
   inkscape:connector-curvature="0"
   id="path5049"
   style="fill:#008080;stroke:#008080;stroke-width:0.44999999;stroke-linecap:round;stroke-linejoin:round;stroke-miterlimit:10;stroke-opacity:1;stroke-dasharray:none"
   d="m 58.3,20.8602 -4.5,-0.6 2.5801,-2.2204 -0.3602,1.7403 2.2801,1.0801 z" /><path
   inkscape:connector-curvature="0"
   id="path5053"
   style="fill:#008080;stroke:#008080;stroke-width:0.44999999;stroke-linecap:round;stroke-linejoin:round;stroke-miterlimit:10;stroke-opacity:1;stroke-dasharray:none"
   d="m 54.571801,27.532888 -4.5,-0.6 2.5801,-2.2199 -0.3602,1.7398 2.2801,1.0801 z" /><path
   inkscape:connector-curvature="0"
   id="path5055"
   style="fill:#000000;fill-opacity:1;fill-rule:evenodd;stroke:none"
   d="m 49.0602,34.7199 -4.5,-0.6 2.5796,-2.2199 -0.3597,1.7398" /><path
   inkscape:connector-curvature="0"
   id="path5057"
   style="fill:#008080;stroke:#008080;stroke-width:0.44999999;stroke-linecap:round;stroke-linejoin:round;stroke-miterlimit:10;stroke-opacity:1;stroke-dasharray:none"
   d="m 49.0602,34.7199 -4.5,-0.6 2.5796,-2.2199 -0.3597,1.7398 2.2801,1.0801 z" /><path
   inkscape:connector-curvature="0"
   id="path5059"
   style="fill:#008080;stroke:#008080;stroke-width:0.44999999;stroke-linecap:round;stroke-linejoin:bevel;stroke-miterlimit:10;stroke-opacity:1;stroke-dasharray:none"
   d="M 51.9398,13.1801 47.5602,11.1398" /><path
   inkscape:connector-curvature="0"
   id="path5061"
   style="fill:#008080;stroke:#008080;stroke-width:0.44999999;stroke-linecap:round;stroke-linejoin:bevel;stroke-miterlimit:10;stroke-opacity:1;stroke-dasharray:none"
   d="M 42.4,26.8 38.0199,24.7602" /><path
   inkscape:connector-curvature="0"
   id="path5063"
   style="fill:none;stroke:#008080;stroke-width:0.44999999;stroke-linecap:round;stroke-linejoin:bevel;stroke-miterlimit:10;stroke-opacity:1;stroke-dasharray:none"
   d="M 33.8199,22.3 33.7,22.2398 33.2801,21.7602 32.6199,21.1 l -0.5398,-0.5398 -0.3602,-0.4801 -0.1801,-0.3 -0.0597,-0.1199 0,-0.0602 -0.0602,-0.1199 0,-0.1801 0.0602,-0.0602 0,-0.0597 0.0597,-0.0602 L 31.6,19 l 0.0602,-0.0602 0.1199,0 0.1199,-0.0597 0.0602,-0.0602 0.1796,0 0.1204,-0.0597 0.8398,0 0.4801,0.0597 0.5398,0.0602 0.6602,0.1199 0.6597,0.1801 0.7204,0.2398 0.7199,0.2403 0.6597,0.2398 0.6,0.3 0.6,0.3 0.6602,0.3602 0.6602,0.4199 0.7199,0.4199 0.7199,0.5398 0.7199,0.4801 0.6602,0.5403 0.6,0.5398 0.6,0.6 0.6,0.6 0.6,0.6 0.5398,0.7199 0.6,0.7199 0.5403,0.7204 0.4796,0.7199 0.4204,0.7199 0.3597,0.6 0.2403,0.5398 0.1796,0.4204 0.1204,0.4199 0,0.3597 -0.0602,0.3 -0.1801,0.3 -0.2398,0.3 -0.3,0.2403 -0.2403,0.2398 L 47.5,33.1 47.3801,33.1602" /><path
   inkscape:connector-curvature="0"
   id="path5065"
   style="fill:#008080;stroke:#008080;stroke-width:0.44999999;stroke-linecap:round;stroke-linejoin:bevel;stroke-miterlimit:10;stroke-opacity:1;stroke-dasharray:none"
   d="M 37.6602,32.1398 33.2801,30.1" /><path
   inkscape:connector-curvature="0"
   id="path5067"
   style="fill:none;stroke:#008080;stroke-width:0.44999999;stroke-linecap:round;stroke-linejoin:bevel;stroke-miterlimit:10;stroke-opacity:1;stroke-dasharray:none"
   d="M 29.0801,27.6398 28.9602,27.5801 28.5398,27.1 27.8801,26.4398 27.3398,25.9 26.9801,25.4199 26.8,25.1199 26.7398,25 l 0,-0.0602 -0.0597,-0.1199 0,-0.1801 0.0597,-0.0597 0,-0.0602 0.0602,-0.0597 0.0602,-0.1204 0.0597,-0.0597 0.1199,0 0.1204,-0.0602 0.0597,-0.0597 0.1801,0 0.1199,-0.0602 0.8403,0 0.4796,0.0602 0.5403,0.0597 0.6597,0.1199 0.6602,0.1801 0.7199,0.2403 0.7199,0.2398 0.6602,0.2398 0.6,0.3 0.6,0.3 0.6602,0.3602 0.6597,0.4199 0.7199,0.4199 0.7204,0.5403 0.7199,0.4801 0.6597,0.5398 0.6,0.5398 0.6,0.6 0.6,0.6 0.6,0.6 0.5403,0.7204 0.6,0.7199 0.5398,0.7199 0.4801,0.7199 0.4199,0.7199 0.3602,0.6 0.2398,0.5403 0.1801,0.4199 0.1199,0.4199 0,0.3602 -0.0597,0.3 -0.1801,0.3 -0.2403,0.3 -0.3,0.2398 L 43,38.2602 42.7602,38.4398 42.6398,38.5" /><path
   inkscape:connector-curvature="0"
   id="path5069"
   style="fill:#000000;fill-opacity:1;fill-rule:evenodd;stroke:none"
   d="m 36.7,72.7 0.9602,-3.9 -4.2,-1.1398" /><path
   inkscape:connector-curvature="0"
   id="path5071"
   style="fill:none;stroke:#000000;stroke-width:0.44999999;stroke-linecap:round;stroke-linejoin:round;stroke-miterlimit:10;stroke-opacity:1;stroke-dasharray:none"
   d="m 36.7,72.7 0.9602,-3.9 -4.2,-1.1398 L 36.7,72.7 z" /><path
   inkscape:connector-curvature="0"
   id="path5073"
   style="fill:#000000;fill-opacity:1;fill-rule:evenodd;stroke:none"
   d="M 81.7,54.7 76.3602,50.9199 77.3199,55.3" /><path
   inkscape:connector-curvature="0"
   id="path5075"
   style="fill:none;stroke:#000000;stroke-width:0.44999999;stroke-linecap:round;stroke-linejoin:round;stroke-miterlimit:10;stroke-opacity:1;stroke-dasharray:none"
   d="M 81.7,54.7 76.3602,50.9199 77.3199,55.3 81.7,54.7 z" /><path
   inkscape:connector-curvature="0"
   id="path5079"
   style="fill:#000000;stroke:#000000;stroke-width:0.44999999;stroke-linecap:round;stroke-linejoin:round;stroke-miterlimit:10;stroke-opacity:1;stroke-dasharray:none"
   d="M 0.7,72.7 3.33984,64.8398 4.6,67.7199 6.46016,68.3199 0.7,72.7 z" /><path
   inkscape:connector-curvature="0"
   id="path5081"
   style="fill:none;stroke:#008080;stroke-width:0.44999999;stroke-linecap:round;stroke-linejoin:bevel;stroke-miterlimit:10;stroke-opacity:1;stroke-dasharray:none"
   d="M 39.3398,15.2199 39.2199,15.1602 38.8,14.6801 38.1398,14.0199 37.6,13.4801 37.2398,13 37.0602,12.7 37,12.5801 37,12.5199 36.9398,12.4 l 0,-0.1801 L 37,12.1602 37,12.1 l 0.0602,-0.0602 0.0597,-0.1199 0.0602,-0.0597 0.1199,0 0.1199,-0.0602 0.0602,-0.0602 0.1801,0 0.1199,-0.0597 0.8398,0 0.4801,0.0597 0.5398,0.0602 0.6602,0.1199 0.6602,0.1801 0.7199,0.2398 0.7199,0.2403 0.6602,0.2398 0.6,0.3 0.6,0.3 0.6597,0.3602 0.6602,0.4199 0.7199,0.4199 0.7199,0.5403 0.7199,0.4796 0.6602,0.5403 0.6,0.5398 0.6,0.6 0.6,0.6 0.6,0.6 0.5398,0.7199 0.6,0.7204 0.5403,0.7199 0.4801,0.7199 0.4199,0.7199 0.3597,0.6 0.2403,0.5403 0.1801,0.4199 0.1199,0.4199 0,0.3602 -0.0602,0.3 -0.1801,0.3 -0.2398,0.3 -0.3,0.2398 -0.2398,0.2398 -0.2403,0.1801 -0.1199,0.0602" /><path
   inkscape:connector-curvature="0"
   id="path5083"
   style="fill:#ffffff;fill-opacity:1;fill-rule:evenodd;stroke:none"
   d="m 28.4199,36.7 c 0,-0.3973 -0.3226,-0.7199 -0.7199,-0.7199 -0.3973,0 -0.7199,0.3226 -0.7199,0.7199 0,0.3973 0.3226,0.7199 0.7199,0.7199 0.3973,0 0.7199,-0.3226 0.7199,-0.7199" /><path
   inkscape:connector-curvature="0"
   id="path5085"
   style="fill:none;stroke:#000000;stroke-width:0.44999999;stroke-linecap:round;stroke-linejoin:bevel;stroke-miterlimit:10;stroke-opacity:1;stroke-dasharray:none"
   d="m 28.4199,36.7 c 0,-0.3973 -0.3226,-0.7199 -0.7199,-0.7199 -0.3973,0 -0.7199,0.3226 -0.7199,0.7199 0,0.3973 0.3226,0.7199 0.7199,0.7199 0.3973,0 0.7199,-0.3226 0.7199,-0.7199 z" /><text
   xml:space="preserve"
   style="font-size:8px;font-style:normal;font-variant:normal;font-weight:normal;font-stretch:normal;text-align:start;line-height:125%;letter-spacing:0px;word-spacing:0px;writing-mode:lr-tb;text-anchor:start;fill:#000000;fill-opacity:1;stroke:none;font-family:Linux Biolinum O;-inkscape-font-specification:Linux Biolinum O"
   x="59.101265"
   y="-36.101265"
   id="text5139"
   sodipodi:linespacing="125%"
   transform="scale(1,-1)"><tspan
     sodipodi:role="line"
     id="tspan5141"
     x="59.101265"
     y="-36.101265">$\va$</tspan></text>
<text
   xml:space="preserve"
   style="font-size:8px;font-style:normal;font-variant:normal;font-weight:normal;font-stretch:normal;text-align:start;line-height:125%;letter-spacing:0px;word-spacing:0px;writing-mode:lr-tb;text-anchor:start;fill:#000000;fill-opacity:1;stroke:none;font-family:Linux Biolinum O;-inkscape-font-specification:Linux Biolinum O"
   x="22.858227"
   y="-56.934196"
   id="text5143"
   sodipodi:linespacing="125%"
   transform="scale(1,-1)"><tspan
     sodipodi:role="line"
     id="tspan5145"
     x="22.858227"
     y="-56.934196">$\vb$</tspan></text>
<text
   xml:space="preserve"
   style="font-size:8px;font-style:normal;font-variant:normal;font-weight:normal;font-stretch:normal;text-align:start;line-height:125%;letter-spacing:0px;word-spacing:0px;writing-mode:lr-tb;text-anchor:start;fill:#000000;fill-opacity:1;stroke:none;font-family:Linux Biolinum O;-inkscape-font-specification:Linux Biolinum O"
   x="-14.845571"
   y="-75.987343"
   id="text5147"
   sodipodi:linespacing="125%"
   transform="scale(1,-1)"><tspan
     sodipodi:role="line"
     id="tspan5149"
     x="-14.845571"
     y="-75.987343">$\va\cp\vb$</tspan></text>


<path
   d="m 224.45963,36.4 5.6398,7.3199 -2.4,7.3199 -4.6801,-6.0597"
   style="fill:#808080;fill-opacity:1;fill-rule:evenodd;stroke:none"
   id="path3076"
   inkscape:connector-curvature="0" /><path
   d="m 224.45963,36.4 5.6398,7.3199 -2.4,7.3199 -4.6801,-6.0597"
   style="fill:#ff5555;stroke:#000000;stroke-width:0.44999999;stroke-linecap:round;stroke-linejoin:round;stroke-miterlimit:10;stroke-opacity:1;stroke-dasharray:none"
   id="path3078"
   inkscape:connector-curvature="0" /><path
   d="m 224.69943,36.7 -54,18 -9,36 54,-18 9,-36"
   style="fill:#37c871;fill-opacity:1;fill-rule:evenodd;stroke:none"
   id="path3080"
   inkscape:connector-curvature="0" /><path
   style="fill:none;stroke:#000000;stroke-width:0.8;stroke-linecap:round;stroke-linejoin:round;stroke-miterlimit:10;stroke-opacity:1;stroke-dasharray:none"
   d="M 197.69943,0.7 224.7559,36.775298"
   id="path4100" /><path
   d="m 224.69943,36.7 -54,18 -9,36 54,-18 9,-36 z"
   style="fill:none;stroke:#000000;stroke-width:0.44999999;stroke-linecap:round;stroke-linejoin:round;stroke-miterlimit:10;stroke-opacity:1;stroke-dasharray:none"
   id="path3082"
   inkscape:connector-curvature="0" /><path
   d="m 224.57953,36.8199 2.9398,3.6602 -6,2.2801 -2.8199,-3.9602"
   style="fill:#000000;fill-opacity:1;fill-rule:evenodd;stroke:none"
   id="path3084"
   inkscape:connector-curvature="0" /><path
   d="m 224.57953,36.8199 2.9398,3.6602 -6,2.2801 -2.8199,-3.9602"
   style="fill:none;stroke:#000000;stroke-width:0.44999999;stroke-linecap:round;stroke-linejoin:round;stroke-miterlimit:10;stroke-opacity:1;stroke-dasharray:none"
   id="path3086"
   inkscape:connector-curvature="0" /><path
   d="m 220.67953,52.4801 -3.5403,1.6801 0.5403,-2.6403"
   style="fill:#000000;fill-opacity:1;fill-rule:evenodd;stroke:none"
   id="path3088"
   inkscape:connector-curvature="0" /><path
   d="m 220.67953,52.4801 -3.5403,1.6801 0.5403,-2.6403 3,0.9602 z"
   style="fill:none;stroke:#000000;stroke-width:0.44999999;stroke-linecap:round;stroke-linejoin:round;stroke-miterlimit:10;stroke-opacity:1;stroke-dasharray:none"
   id="path3090"
   inkscape:connector-curvature="0" /><path
   d="m 204.77953,43.4801 0,0.0597 0.0597,0.3 0.1801,0.6 0.1801,0.9 0.2398,0.9 0.2403,0.9 0.2398,0.7204 0.2403,0.6597 0.2398,0.4801 0.2398,0.4801 0.3602,0.5398 0.3602,0.4801 0.4796,0.4801 0.5403,0.4199 0.5398,0.3602 0.6,0.3597 0.5403,0.2403 0.6,0.1796 0.6,0.1801 0.6597,0.1199 0.7199,0.1204 0.7204,0.0597 0.7796,0.0602 1.3204,0 0.6,-0.0602 0.6,0 0.5398,-0.0597 0.6602,-0.0602 0.7199,-0.1199 0.7801,-0.1199 0.6597,-0.1204 0.3,-0.0597 0.0602,0"
   style="fill:none;stroke:#000000;stroke-width:0.44999999;stroke-linecap:round;stroke-linejoin:bevel;stroke-miterlimit:10;stroke-opacity:1;stroke-dasharray:none"
   id="path3094"
   inkscape:connector-curvature="0" /><path
   d="m 215.69943,72.7 -0.9602,-3.9 4.2,-1.1398"
   style="fill:#000000;fill-opacity:1;fill-rule:evenodd;stroke:none"
   id="path3136"
   inkscape:connector-curvature="0" /><path
   d="m 215.69943,72.7 -0.9602,-3.9 4.2,-1.1398 -3.2398,5.0398 z"
   style="fill:none;stroke:#000000;stroke-width:0.44999999;stroke-linecap:round;stroke-linejoin:round;stroke-miterlimit:10;stroke-opacity:1;stroke-dasharray:none"
   id="path3138"
   inkscape:connector-curvature="0" /><path
   d="m 170.69943,54.7 5.3398,-3.7801 -0.9597,4.3801"
   style="fill:#000000;fill-opacity:1;fill-rule:evenodd;stroke:none"
   id="path3140"
   inkscape:connector-curvature="0" /><path
   d="m 170.69943,54.7 5.3398,-3.7801 -0.9597,4.3801 -4.3801,-0.6 z"
   style="fill:none;stroke:#000000;stroke-width:0.44999999;stroke-linecap:round;stroke-linejoin:round;stroke-miterlimit:10;stroke-opacity:1;stroke-dasharray:none"
   id="path3142"
   inkscape:connector-curvature="0" /><path
   d="m 194.13649,-3.9879007 2.63984,7.8602 1.26016,-2.88009997 1.86016,-0.6 -5.76016,-4.38010003 z"
   style="fill:#000000;stroke:#000000;stroke-width:0.44999999;stroke-linecap:round;stroke-linejoin:round;stroke-miterlimit:10;stroke-opacity:1;stroke-dasharray:none"
   id="path3146"
   inkscape:connector-curvature="0" /><path
   d="m 223.97953,36.7 c 0,-0.3973 0.3226,-0.7199 0.7199,-0.7199 0.3973,0 0.7199,0.3226 0.7199,0.7199 0,0.3973 -0.3226,0.7199 -0.7199,0.7199 -0.3973,0 -0.7199,-0.3226 -0.7199,-0.7199"
   style="fill:#ffffff;fill-opacity:1;fill-rule:evenodd;stroke:none"
   id="path3150"
   inkscape:connector-curvature="0" /><path
   d="m 223.97953,36.7 c 0,-0.3973 0.3226,-0.7199 0.7199,-0.7199 0.3973,0 0.7199,0.3226 0.7199,0.7199 0,0.3973 -0.3226,0.7199 -0.7199,0.7199 -0.3973,0 -0.7199,-0.3226 -0.7199,-0.7199 z"
   style="fill:none;stroke:#000000;stroke-width:0.44999999;stroke-linecap:round;stroke-linejoin:bevel;stroke-miterlimit:10;stroke-opacity:1;stroke-dasharray:none"
   id="path3152"
   inkscape:connector-curvature="0" /><text
   xml:space="preserve"
   style="font-size:7.19999981px;font-style:normal;font-weight:normal;line-height:125%;letter-spacing:0px;word-spacing:0px;fill:#000000;fill-opacity:1;stroke:none;font-family:Sans"
   x="155.27782"
   y="-50.515884"
   id="text3293"
   sodipodi:linespacing="125%"
   transform="scale(1,-1)"><tspan
     sodipodi:role="line"
     id="tspan3295"
     x="155.27782"
     y="-50.515884">$\va$</tspan></text>
<text
   xml:space="preserve"
   style="font-size:9px;font-style:normal;font-weight:normal;line-height:125%;letter-spacing:0px;word-spacing:0px;fill:#000000;fill-opacity:1;stroke:none;font-family:Sans"
   x="288.76877"
   y="33.029251"
   id="text3297"
   sodipodi:linespacing="125%"
   transform="matrix(0.8,0,0,-0.8,-19.025492,104.32991)"><tspan
     sodipodi:role="line"
     id="tspan3299"
     x="288.76877"
     y="33.029251">$\vb$</tspan></text>
<text
   xml:space="preserve"
   style="font-size:7.19999981px;font-style:normal;font-weight:normal;line-height:125%;letter-spacing:0px;word-spacing:0px;fill:#000000;fill-opacity:1;stroke:none;font-family:Sans"
   x="172.2355"
   y="-9.1033592"
   id="text3301"
   sodipodi:linespacing="125%"
   transform="scale(1,-1)"><tspan
     sodipodi:role="line"
     id="tspan3303"
     x="172.2355"
     y="-9.1033592">$\va\cp\vb$</tspan></text>
</g></svg>