<?xml version="1.0" encoding="UTF-8" standalone="no"?>
<!-- Created with Inkscape (http://www.inkscape.org/) -->

<svg
   xmlns:dc="http://purl.org/dc/elements/1.1/"
   xmlns:cc="http://creativecommons.org/ns#"
   xmlns:rdf="http://www.w3.org/1999/02/22-rdf-syntax-ns#"
   xmlns:svg="http://www.w3.org/2000/svg"
   xmlns="http://www.w3.org/2000/svg"
   xmlns:sodipodi="http://sodipodi.sourceforge.net/DTD/sodipodi-0.dtd"
   xmlns:inkscape="http://www.inkscape.org/namespaces/inkscape"
   id="svg2"
   version="1.1"
   inkscape:version="0.48.2 r9819"
   width="115"
   height="70"
   xml:space="preserve"
   sodipodi:docname="05crossprod.pdf"><metadata
     id="metadata8"><rdf:RDF><cc:Work
         rdf:about=""><dc:format>image/svg+xml</dc:format><dc:type
           rdf:resource="http://purl.org/dc/dcmitype/StillImage" /><dc:title></dc:title></cc:Work></rdf:RDF></metadata><defs
     id="defs6" /><sodipodi:namedview
     pagecolor="#ffffff"
     bordercolor="#666666"
     borderopacity="1"
     objecttolerance="10"
     gridtolerance="10"
     guidetolerance="10"
     inkscape:pageopacity="0"
     inkscape:pageshadow="2"
     inkscape:window-width="1276"
     inkscape:window-height="756"
     id="namedview4"
     showgrid="false"
     inkscape:zoom="8.6285714"
     inkscape:cx="57.5"
     inkscape:cy="35"
     inkscape:window-x="4"
     inkscape:window-y="0"
     inkscape:window-maximized="1"
     inkscape:current-layer="g10" /><g
     id="g10"
     inkscape:groupmode="layer"
     inkscape:label="ink_ext_XXXXXX"
     transform="matrix(1.25,0,0,-1.25,0,70)"><path
       inkscape:connector-curvature="0"
       id="path14"
       style="fill:#ff5555;fill-opacity:1;fill-rule:evenodd;stroke:none"
       d="M 27.9398,0.8 22.3,8.11992 24.7,15.4398 29.549767,9.1619373"
       sodipodi:nodetypes="cccc" /><path
       inkscape:connector-curvature="0"
       id="path16"
       style="fill:none;stroke:#000000;stroke-width:0.44999999;stroke-linecap:round;stroke-linejoin:round;stroke-miterlimit:10;stroke-opacity:1;stroke-dasharray:none"
       d="M 27.9398,0.8 22.3,8.11992 24.7,15.4398 29.598243,9.0165088"
       sodipodi:nodetypes="cccc" /><path
       inkscape:connector-curvature="0"
       id="path18"
       style="fill:#8dd35f;fill-opacity:1;fill-rule:evenodd;stroke:none"
       d="m 27.7,1.1 54,18 9,36 -54,-18 -9,-36" /><path
       inkscape:connector-curvature="0"
       id="path20"
       style="fill:none;stroke:#000000;stroke-width:0.44999999;stroke-linecap:round;stroke-linejoin:round;stroke-miterlimit:10;stroke-opacity:1;stroke-dasharray:none"
       d="m 27.7,1.1 54,18 9,36 -54,-18 -9,-36 z" /><path
       inkscape:connector-curvature="0"
       id="path22"
       style="fill:#000000;fill-opacity:1;fill-rule:evenodd;stroke:none"
       d="m 27.8199,1.21992 -2.9398,3.66016 6,2.28008 L 33.7,3.2" /><path
       inkscape:connector-curvature="0"
       id="path24"
       style="fill:none;stroke:#000000;stroke-width:0.44999999;stroke-linecap:round;stroke-linejoin:round;stroke-miterlimit:10;stroke-opacity:1;stroke-dasharray:none"
       d="m 27.8199,1.21992 -2.9398,3.66016 6,2.28008 L 33.7,3.2" /><path
       inkscape:connector-curvature="0"
       id="path32"
       style="fill:#000000;fill-opacity:1;fill-rule:evenodd;stroke:none"
       d="m 31.7199,16.8801 3.5403,1.6801 -0.5403,-2.6403" /><path
       inkscape:connector-curvature="0"
       id="path34"
       style="fill:none;stroke:#000000;stroke-width:0.44999999;stroke-linecap:round;stroke-linejoin:round;stroke-miterlimit:10;stroke-opacity:1;stroke-dasharray:none"
       d="m 31.7199,16.8801 3.5403,1.6801 -0.5403,-2.6403 -3,0.9602 z" /><path
       inkscape:connector-curvature="0"
       id="path36"
       style="fill:none;stroke:#000000;stroke-width:0.44999999;stroke-linecap:round;stroke-linejoin:bevel;stroke-miterlimit:10;stroke-opacity:1;stroke-dasharray:none"
       d="m 47.6199,7.88008 0,0.05976 -0.0597,0.3 -0.1801,0.6 -0.1801,0.9 -0.2398,0.89996 -0.2403,0.9 -0.2398,0.7204 -0.2403,0.6597 L 46,13.4 45.7602,13.8801 45.4,14.4199 45.0398,14.9 44.5602,15.3801 44.0199,15.8 l -0.5398,0.3602 -0.6,0.3597 -0.5403,0.2403 -0.6,0.1796 -0.6,0.1801 -0.6597,0.1199 -0.7199,0.1204 -0.7204,0.0597 -0.7796,0.0602 -1.3204,0 -0.6,-0.0602 -0.6,0 L 35.2,17.3602 34.5398,17.3 l -0.7199,-0.1199 -0.7801,-0.1199 -0.6597,-0.1204 -0.3,-0.0597 -0.0602,0" /><path
       inkscape:connector-curvature="0"
       id="path48"
       style="fill:#000000;fill-opacity:1;fill-rule:evenodd;stroke:none"
       d="M 0.7,37.1 3.33984,29.2398 4.6,32.1199 6.46016,32.7199 0.7,37.1" /><path
       inkscape:connector-curvature="0"
       id="path50"
       style="fill:none;stroke:#000000;stroke-width:0.44999999;stroke-linecap:round;stroke-linejoin:round;stroke-miterlimit:10;stroke-opacity:1;stroke-dasharray:none"
       d="M 0.7,37.1 3.33984,29.2398 4.6,32.1199 6.46016,32.7199 0.7,37.1 z" /><path
       inkscape:connector-curvature="0"
       id="path52"
       style="fill:#000000;fill-opacity:1;fill-rule:evenodd;stroke:none"
       d="M 81.7,19.1 76.3602,15.3199 77.3199,19.7" /><path
       inkscape:connector-curvature="0"
       id="path54"
       style="fill:none;stroke:#000000;stroke-width:0.44999999;stroke-linecap:round;stroke-linejoin:round;stroke-miterlimit:10;stroke-opacity:1;stroke-dasharray:none"
       d="M 81.7,19.1 76.3602,15.3199 77.3199,19.7 81.7,19.1 z" /><path
       inkscape:connector-curvature="0"
       id="path56"
       style="fill:#000000;fill-opacity:1;fill-rule:evenodd;stroke:none"
       d="m 36.7,37.1 0.9602,-3.9 -4.2,-1.1398" /><path
       inkscape:connector-curvature="0"
       id="path58"
       style="fill:none;stroke:#000000;stroke-width:0.44999999;stroke-linecap:round;stroke-linejoin:round;stroke-miterlimit:10;stroke-opacity:1;stroke-dasharray:none"
       d="m 36.7,37.1 0.9602,-3.9 -4.2,-1.1398 L 36.7,37.1 z" /><path
       inkscape:connector-curvature="0"
       id="path60"
       style="fill:none;stroke:#000000;stroke-width:0.44999999;stroke-linecap:round;stroke-linejoin:round;stroke-miterlimit:10;stroke-opacity:1;stroke-dasharray:none"
       d="m 27.7,1.1 -27,36" /><path
       inkscape:connector-curvature="0"
       id="path62"
       style="fill:#ffffff;fill-opacity:1;fill-rule:evenodd;stroke:none"
       d="m 28.4199,1.1 c 0,-0.397266 -0.3226,-0.719922 -0.7199,-0.719922 -0.3973,0 -0.7199,0.322656 -0.7199,0.719922 0,0.39727 0.3226,0.71992 0.7199,0.71992 0.3973,0 0.7199,-0.32265 0.7199,-0.71992" /><path
       inkscape:connector-curvature="0"
       id="path64"
       style="fill:none;stroke:#000000;stroke-width:0.44999999;stroke-linecap:round;stroke-linejoin:round;stroke-miterlimit:10;stroke-opacity:1;stroke-dasharray:none"
       d="m 28.4199,1.1 c 0,-0.397266 -0.3226,-0.719922 -0.7199,-0.719922 -0.3973,0 -0.7199,0.322656 -0.7199,0.719922 0,0.39727 0.3226,0.71992 0.7199,0.71992 0.3973,0 0.7199,-0.32265 0.7199,-0.71992 z" /></g><g
     inkscape:groupmode="layer"
     id="layer1"
     inkscape:label="text"><text
   xml:space="preserve"
   style="font-size:12px;font-style:normal;font-variant:normal;font-weight:normal;font-stretch:normal;line-height:125%;letter-spacing:0px;word-spacing:0px;fill:#000000;fill-opacity:1;stroke:none;font-family:Linux Libertine;-inkscape-font-specification:Linux Libertine"
   x="-5.4819279"
   y="18.656626"
   id="text3078"
   sodipodi:linespacing="125%"><tspan
     sodipodi:role="line"
     id="tspan3080"
     x="-5.4819279"
     y="18.656626">$\va\cp\vb$</tspan></text>

<text
   xml:space="preserve"
   style="font-size:12px;font-style:normal;font-variant:normal;font-weight:normal;font-stretch:normal;line-height:125%;letter-spacing:0px;word-spacing:0px;fill:#000000;fill-opacity:1;stroke:none;font-family:Linux Libertine;-inkscape-font-specification:Linux Libertine"
   x="54.180725"
   y="48.493977"
   id="text3082"
   sodipodi:linespacing="125%"><tspan
     sodipodi:role="line"
     id="tspan3084"
     x="54.180725"
     y="48.493977">$\theta$</tspan></text>

<text
   xml:space="preserve"
   style="font-size:12px;font-style:normal;font-variant:normal;font-weight:normal;font-stretch:normal;line-height:125%;letter-spacing:0px;word-spacing:0px;fill:#000000;fill-opacity:1;stroke:none;font-family:Linux Libertine;-inkscape-font-specification:Linux Libertine"
   x="62.620483"
   y="67.891563"
   id="text3086"
   sodipodi:linespacing="125%"><tspan
     sodipodi:role="line"
     id="tspan3088"
     x="62.620483"
     y="67.891563">$\va$</tspan></text>

<text
   xml:space="preserve"
   style="font-size:12px;font-style:normal;font-variant:normal;font-weight:normal;font-stretch:normal;line-height:125%;letter-spacing:0px;word-spacing:0px;fill:#000000;fill-opacity:1;stroke:none;font-family:Linux Libertine;-inkscape-font-specification:Linux Libertine"
   x="29.722889"
   y="43.855423"
   id="text3090"
   sodipodi:linespacing="125%"><tspan
     sodipodi:role="line"
     id="tspan3092"
     x="29.722889"
     y="43.855423">$\vb$</tspan></text>

</g></svg>