<?xml version="1.0" encoding="UTF-8" standalone="no"?>
<!-- Created with Inkscape (http://www.inkscape.org/) -->

<svg
   xmlns:dc="http://purl.org/dc/elements/1.1/"
   xmlns:cc="http://creativecommons.org/ns#"
   xmlns:rdf="http://www.w3.org/1999/02/22-rdf-syntax-ns#"
   xmlns:svg="http://www.w3.org/2000/svg"
   xmlns="http://www.w3.org/2000/svg"
   xmlns:sodipodi="http://sodipodi.sourceforge.net/DTD/sodipodi-0.dtd"
   xmlns:inkscape="http://www.inkscape.org/namespaces/inkscape"
   id="svg4912"
   version="1.1"
   inkscape:version="0.48.1 r9760"
   width="349.75162"
   height="177.00163"
   xml:space="preserve"
   sodipodi:docname="05multiply_and_subtract.pdf"><metadata
     id="metadata4918"><rdf:RDF><cc:Work
         rdf:about=""><dc:format>image/svg+xml</dc:format><dc:type
           rdf:resource="http://purl.org/dc/dcmitype/StillImage" /><dc:title></dc:title></cc:Work></rdf:RDF></metadata><defs
     id="defs4916"><clipPath
       clipPathUnits="userSpaceOnUse"
       id="clipPath4928"><path
         d="M 0,1280 0,0 l 1190,0 0,1280 -1190,0 z m 923.199,-283 -22.801,15 -49.199,-73.801 49.199,48.602 L 874,923.199 923.199,997 z"
         clip-rule="evenodd"
         id="path4930"
         inkscape:connector-curvature="0" /></clipPath><clipPath
       clipPathUnits="userSpaceOnUse"
       id="clipPath4942"><path
         d="M 0,1280 0,0 1190,0 1190,1280 0,1280 z M 350.199,187 373,172.602 422.199,246.398 373.602,197.199 399.398,261.398 350.199,187 z"
         clip-rule="evenodd"
         id="path4944"
         inkscape:connector-curvature="0" /></clipPath><clipPath
       clipPathUnits="userSpaceOnUse"
       id="clipPath4956"><path
         d="M 0,1280 0,0 l 1190,0 0,1280 -1190,0 z m 750.398,-557.801 -37.199,25.199 -26.398,-39.597 37.801,15.597 0,-40.199 25.796,39 z"
         clip-rule="evenodd"
         id="path4958"
         inkscape:connector-curvature="0" /></clipPath><clipPath
       id="clipPath6397"
       clipPathUnits="userSpaceOnUse"><path
         id="path6399"
         clip-rule="evenodd"
         d="M 0,1220 0,0 1250,0 1250,1220 0,1220 z M 869.602,-0.800781 893.602,11.1992 855.801,87.3984 869,31 831.199,75.3984 869.602,-0.800781 z"
         inkscape:connector-curvature="0" /></clipPath><clipPath
       id="clipPath6391"
       clipPathUnits="userSpaceOnUse"><path
         id="path6393"
         d="M 0,1220 0,0 l 1250,0 0,1220 -1250,0 z"
         inkscape:connector-curvature="0" /></clipPath><clipPath
       id="clipPath6377"
       clipPathUnits="userSpaceOnUse"><path
         id="path6379"
         clip-rule="evenodd"
         d="M 0,1220 0,0 l 1250,0 0,1220 -1250,0 z m 345.801,-112.6 -24,-12 37.801,-76.2 -12.602,55.8 37.199,-43.8 -38.398,76.2 z"
         inkscape:connector-curvature="0" /></clipPath><clipPath
       id="clipPath6363"
       clipPathUnits="userSpaceOnUse"><path
         id="path6365"
         clip-rule="evenodd"
         d="M 0,1220 0,0 1250,0 1250,1220 0,1220 z M 411.801,100 437,89.8008 468.199,169 435.199,121.602 443,179.199 411.801,100 z"
         inkscape:connector-curvature="0" /></clipPath><clipPath
       id="clipPath6349"
       clipPathUnits="userSpaceOnUse"><path
         id="path6351"
         clip-rule="evenodd"
         d="M 0,1220 0,0 l 1250,0 0,1220 -1250,0 z m 152,-561.398 -5.398,-27 84.597,-16.801 -52.801,24 58.204,2.398 L 152,658.602 z"
         inkscape:connector-curvature="0" /></clipPath><clipPath
       id="clipPath6335"
       clipPathUnits="userSpaceOnUse"><path
         id="path6337"
         clip-rule="evenodd"
         d="M 0,1220 0,0 l 1250,0 0,1220 -1250,0 z m 1064,-772 5.4,27 -84.002,16.801 L 1038.2,467.199 980,465.398 1064,448 z"
         inkscape:connector-curvature="0" /></clipPath><clipPath
       id="clipPath6321"
       clipPathUnits="userSpaceOnUse"><path
         id="path6323"
         clip-rule="evenodd"
         d="M 0,1220 0,0 l 1250,0 0,1220 -1250,0 z m 803.602,-213.4 -25.204,10.2 -31.199,-79.198 33.602,46.796 -8.403,-57 31.204,79.202 z"
         inkscape:connector-curvature="0" /></clipPath></defs><sodipodi:namedview
     pagecolor="#ffffff"
     bordercolor="#666666"
     borderopacity="1"
     objecttolerance="10"
     gridtolerance="10"
     guidetolerance="10"
     inkscape:pageopacity="0"
     inkscape:pageshadow="2"
     inkscape:window-width="1280"
     inkscape:window-height="800"
     id="namedview4914"
     showgrid="false"
     showguides="false"
     inkscape:guide-bbox="true"
     inkscape:zoom="2.0145721"
     inkscape:cx="207.13804"
     inkscape:cy="67.886681"
     inkscape:window-x="0"
     inkscape:window-y="0"
     inkscape:window-maximized="0"
     inkscape:current-layer="layer3"
     fit-margin-top="0"
     fit-margin-left="0"
     fit-margin-right="0"
     fit-margin-bottom="0"><sodipodi:guide
       orientation="0,1"
       position="71.559551,83.706765"
       id="guide5500" /><sodipodi:guide
       orientation="1,0"
       position="59.511358,88.767006"
       id="guide5502" /></sodipodi:namedview><g
     id="g4920"
     inkscape:groupmode="layer"
     inkscape:label="ink_ext_XXXXXX"
     transform="matrix(1.25,0,0,-1.25,3.1258159,161.96957)"><g
       id="g5512"
       transform="translate(20.510843,29.763855)"
       style="fill:#ff0000;stroke:#ff0000"><path
         style="fill:#ff0000;stroke:#ff0000;stroke-width:2;stroke-linecap:round;stroke-linejoin:miter;stroke-miterlimit:4;stroke-opacity:1;stroke-dasharray:none"
         d="M 30.746988,128.53012 78.963866,58.414442"
         id="path5514"
         inkscape:connector-curvature="0"
         transform="matrix(0.8,0,0,-0.8,0,128)"
         sodipodi:nodetypes="cc" /><path
         style="fill:#ff0000;stroke:#ff0000;stroke-width:1px;stroke-linecap:butt;stroke-linejoin:round;stroke-opacity:1"
         d="m 79.277109,65.783132 2.289156,-10.963855 -9.638554,5.783133 5.421687,0.120481 z"
         id="path5516"
         inkscape:connector-curvature="0"
         transform="matrix(0.8,0,0,-0.8,0,128)" /></g><path
       style="fill:none;stroke:#000000;stroke-width:0.24000001;stroke-linecap:round;stroke-linejoin:miter;stroke-miterlimit:4;stroke-opacity:1;stroke-dasharray:none"
       d="m 45.056388,8.0519594 0,115.3180406"
       id="path4986"
       inkscape:connector-curvature="0" /><path
       style="fill:none;stroke:#000000;stroke-width:0.24000001;stroke-linecap:round;stroke-linejoin:miter;stroke-miterlimit:4;stroke-opacity:1;stroke-dasharray:none"
       d="m 9.8308382,54.939759 91.3275218,0"
       id="path4988"
       inkscape:connector-curvature="0" /><g
       id="g5508"><path
         transform="matrix(0.8,0,0,-0.8,0,128)"
         inkscape:connector-curvature="0"
         id="path5504"
         d="M 56.385542,91.325301 81.445783,54.939759"
         style="fill:none;stroke:#000000;stroke-width:1px;stroke-linecap:round;stroke-linejoin:miter;stroke-opacity:1" /><path
         transform="matrix(0.8,0,0,-0.8,0,128)"
         inkscape:connector-curvature="0"
         id="path5506"
         d="m 79.277109,65.783132 2.289156,-10.963855 -9.638554,5.783133 5.421687,0.120481 z"
         style="fill:#000000;stroke:#000000;stroke-width:1px;stroke-linecap:butt;stroke-linejoin:round;stroke-opacity:1" /></g><g
       id="g5518"
       transform="matrix(-1,0,0,-1,90.216867,109.87952)"
       style="fill:#0000ff;stroke:#0000ff"><path
         style="fill:#0000ff;stroke:#0000ff;stroke-width:1px;stroke-linecap:round;stroke-linejoin:miter;stroke-opacity:1"
         d="M 56.385542,91.325301 81.445783,54.939759"
         id="path5520"
         inkscape:connector-curvature="0"
         transform="matrix(0.8,0,0,-0.8,0,128)" /><path
         style="fill:#0000ff;stroke:#0000ff;stroke-width:1px;stroke-linecap:butt;stroke-linejoin:round;stroke-opacity:1"
         d="m 79.277109,65.783132 2.289156,-10.963855 -9.638554,5.783133 5.421687,0.120481 z"
         id="path5522"
         inkscape:connector-curvature="0"
         transform="matrix(0.8,0,0,-0.8,0,128)" /></g><path
       id="path6311"
       style="fill:none;stroke:#000000;stroke-width:0.30000001;stroke-linecap:round;stroke-linejoin:miter;stroke-miterlimit:10;stroke-opacity:1;stroke-dasharray:none"
       d="m 191.42302,87.99692 146.25,0"
       inkscape:connector-curvature="0"
       transform="matrix(0.8,0,0,-0.8,0,128)" /><path
       id="path6313"
       style="fill:none;stroke:#000000;stroke-width:0.30000001;stroke-linecap:round;stroke-linejoin:miter;stroke-miterlimit:10;stroke-opacity:1;stroke-dasharray:none"
       d="m 258.92302,155.49692 0,-135"
       inkscape:connector-curvature="0"
       transform="matrix(0.8,0,0,-0.8,0,128)" /><path
       id="path6315"
       style="fill:none;stroke:#000000;stroke-width:0.5625;stroke-linecap:butt;stroke-linejoin:miter;stroke-miterlimit:10;stroke-opacity:1;stroke-dasharray:2.25;stroke-dashoffset:0"
       d="m 292.67302,155.49692 22.5,-56.25 -33.75,-67.5 -56.25,-11.25"
       inkscape:connector-curvature="0"
       transform="matrix(0.8,0,0,-0.8,0,128)" /><path
       id="path6325"
       style="fill:none;stroke:#000000;stroke-width:1.125;stroke-linecap:butt;stroke-linejoin:miter;stroke-miterlimit:10;stroke-opacity:1;stroke-dasharray:none"
       d="m 258.92302,87.99692 22.5,-56.25"
       inkscape:connector-curvature="0"
       transform="matrix(0.8,0,0,-0.8,0,128)" /><path
       id="path6327"
       style="fill:#000000;fill-opacity:1;fill-rule:evenodd;stroke:none"
       d="m 279.47277,41.19717 1.05037,-7.125 -4.20024,5.8495 2.10012,-0.67475 1.04975,1.95025"
       inkscape:connector-curvature="0"
       transform="matrix(0.8,0,0,-0.8,0,128)" /><path
       id="path6329"
       style="fill:none;stroke:#000000;stroke-width:1.125;stroke-linecap:butt;stroke-linejoin:round;stroke-miterlimit:10;stroke-opacity:1;stroke-dasharray:none"
       d="m 279.47277,41.19717 1.05037,-7.125 -4.20024,5.8495 2.10012,-0.67475 1.04975,1.95025 z"
       inkscape:connector-curvature="0"
       transform="matrix(0.8,0,0,-0.8,0,128)" /><path
       id="path6339"
       style="fill:none;stroke:#000000;stroke-width:1.125;stroke-linecap:butt;stroke-linejoin:miter;stroke-miterlimit:10;stroke-opacity:1;stroke-dasharray:none"
       d="m 258.92302,87.99692 56.25,11.25"
       inkscape:connector-curvature="0"
       transform="matrix(0.8,0,0,-0.8,0,128)" /><path
       id="path6341"
       style="fill:#000000;fill-opacity:1;fill-rule:evenodd;stroke:none"
       d="m 305.42302,98.94717 7.275,-0.225125 -6.60025,-3.07525 1.05037,1.95025 -1.72512,1.350125"
       inkscape:connector-curvature="0"
       transform="matrix(0.8,0,0,-0.8,0,128)" /><path
       id="path6343"
       style="fill:none;stroke:#000000;stroke-width:1.125;stroke-linecap:butt;stroke-linejoin:round;stroke-miterlimit:10;stroke-opacity:1;stroke-dasharray:none"
       d="m 305.42302,98.94717 7.275,-0.225125 -6.60025,-3.07525 1.05037,1.95025 -1.72512,1.350125 z"
       inkscape:connector-curvature="0"
       transform="matrix(0.8,0,0,-0.8,0,128)" /><path
       id="path6353"
       style="fill:#0000ff;stroke:#0000ff;stroke-width:1.125;stroke-linecap:butt;stroke-linejoin:round;stroke-miterlimit:10;stroke-opacity:1;stroke-dasharray:none"
       d="m 258.92302,87.99692 -56.25,-11.25"
       inkscape:connector-curvature="0"
       transform="matrix(0.8,0,0,-0.8,0,128)" /><path
       id="path6355"
       style="fill:#0000ff;fill-opacity:1;fill-rule:evenodd;stroke:#0000ff;stroke-linejoin:round"
       d="m 212.49827,76.972045 -7.2755,0.29975 6.60013,3 -1.04976,-1.949625 1.72513,-1.350125"
       inkscape:connector-curvature="0"
       transform="matrix(0.8,0,0,-0.8,0,128)" /><path
       id="path6357"
       style="fill:#0000ff;stroke:#0000ff;stroke-width:1.125;stroke-linecap:butt;stroke-linejoin:round;stroke-miterlimit:10;stroke-opacity:1;stroke-dasharray:none"
       d="m 212.49827,76.972045 -7.2755,0.29975 6.60013,3 -1.04976,-1.949625 1.72513,-1.350125 z"
       inkscape:connector-curvature="0"
       transform="matrix(0.8,0,0,-0.8,0,128)" /><path
       id="path6367"
       style="fill:#0000ff;stroke:#0000ff;stroke-width:1.125;stroke-linecap:butt;stroke-linejoin:round;stroke-miterlimit:10;stroke-opacity:1;stroke-dasharray:none"
       d="m 258.92302,87.99692 -22.5,56.25"
       inkscape:connector-curvature="0"
       transform="matrix(0.8,0,0,-0.8,0,128)" /><path
       id="path6369"
       style="fill:#0000ff;fill-opacity:1;fill-rule:evenodd;stroke:#0000ff;stroke-linejoin:round"
       d="m 238.29802,134.72204 -0.97512,7.19963 4.125,-5.92475 -2.10013,0.67475 -1.04975,-1.94963"
       inkscape:connector-curvature="0"
       transform="matrix(0.8,0,0,-0.8,0,128)" /><path
       id="path6371"
       style="fill:#0000ff;stroke:#0000ff;stroke-width:1.125;stroke-linecap:butt;stroke-linejoin:round;stroke-miterlimit:10;stroke-opacity:1;stroke-dasharray:none"
       d="m 238.29802,134.72204 -0.97512,7.19963 4.125,-5.92475 -2.10013,0.67475 -1.04975,-1.94963 z"
       inkscape:connector-curvature="0"
       transform="matrix(0.8,0,0,-0.8,0,128)" /><path
       id="path6381"
       style="fill:#ff0000;stroke:#ff0000;stroke-width:1;stroke-linecap:butt;stroke-linejoin:miter;stroke-miterlimit:10;stroke-opacity:1;stroke-dasharray:none"
       d="m 258.92302,87.99692 -33.75,-67.5"
       inkscape:connector-curvature="0"
       transform="matrix(0.8,0,0,-0.8,0,128)" /><path
       id="path6383"
       style="fill:#8f0000;fill-opacity:1;fill-rule:evenodd;stroke:none"
       d="m 230.9479,28.22192 -4.64988,-5.475 1.57525,6.975 0.89987,-1.95 2.17476,0.45"
       inkscape:connector-curvature="0"
       transform="matrix(0.8,0,0,-0.8,0,128)" /><path
       id="path6385"
       style="fill:#ff0000;stroke:#ff0000;stroke-width:1.125;stroke-linecap:butt;stroke-linejoin:round;stroke-miterlimit:10;stroke-opacity:1;stroke-dasharray:none"
       d="m 230.9479,28.22192 -4.64988,-5.475 1.57525,6.975 0.89987,-1.95 2.17476,0.45 z"
       inkscape:connector-curvature="0"
       transform="matrix(0.8,0,0,-0.8,0,128)" /><path
       inkscape:connector-curvature="0"
       d="m 258.92302,87.99692 33.75,67.5"
       style="fill:#ff0000;stroke:#ff0000;stroke-width:1;stroke-linecap:butt;stroke-linejoin:miter;stroke-miterlimit:10;stroke-opacity:1;stroke-dasharray:none"
       id="path6401"
       transform="matrix(0.8,0,0,-0.8,0,128)" /><path
       id="path6403"
       style="fill:#ff0000;fill-opacity:1;fill-rule:evenodd;stroke:#ff0000;stroke-linejoin:round"
       d="m 286.8229,147.69712 4.72512,5.5498 -1.64988,-7.0498 -0.89987,1.9497 -2.17537,-0.4497"
       inkscape:connector-curvature="0"
       transform="matrix(0.8,0,0,-0.8,0,128)" /><path
       id="path6405"
       style="fill:#ff0000;stroke:#ff0000;stroke-width:1.125;stroke-linecap:butt;stroke-linejoin:round;stroke-miterlimit:10;stroke-opacity:1;stroke-dasharray:none"
       d="m 286.8229,147.69712 4.72512,5.5498 -1.64988,-7.0498 -0.89987,1.9497 -2.17537,-0.4497 z"
       inkscape:connector-curvature="0"
       transform="matrix(0.8,0,0,-0.8,0,128)" /><path
       id="path6407"
       style="fill:none;stroke:#000000;stroke-width:0.5625;stroke-linecap:butt;stroke-linejoin:miter;stroke-miterlimit:10;stroke-opacity:1;stroke-dasharray:2.25;stroke-dashoffset:0"
       d="m 225.17302,20.49692 -22.5,56.25 33.75,67.5 56.25,11.25"
       inkscape:connector-curvature="0"
       transform="matrix(0.8,0,0,-0.8,0,128)" /><path
       id="path6427"
       style="fill:#ffffff;fill-opacity:1;fill-rule:evenodd;stroke:none"
       d="m 260.27314,87.99692 c 0,0.745125 -0.605,1.350125 -1.35012,1.350125 -0.74512,0 -1.35012,-0.605 -1.35012,-1.350125 0,-0.745125 0.605,-1.350125 1.35012,-1.350125 0.74512,0 1.35012,0.605 1.35012,1.350125"
       inkscape:connector-curvature="0"
       transform="matrix(0.8,0,0,-0.8,0,128)" /><path
       id="path6429"
       style="fill:none;stroke:#000000;stroke-width:0.5625;stroke-linecap:butt;stroke-linejoin:miter;stroke-miterlimit:10;stroke-opacity:1;stroke-dasharray:none"
       d="m 260.27314,87.99692 c 0,0.745125 -0.605,1.350125 -1.35012,1.350125 -0.74512,0 -1.35012,-0.605 -1.35012,-1.350125 0,-0.745125 0.605,-1.350125 1.35012,-1.350125 0.74512,0 1.35012,0.605 1.35012,1.350125 z"
       inkscape:connector-curvature="0"
       transform="matrix(0.8,0,0,-0.8,0,128)" /></g><g
     inkscape:groupmode="layer"
     id="layer3"
     inkscape:label="text"
     transform="translate(3.1258159,1.9695659)"><text
       xml:space="preserve"
       style="font-size:8px;font-style:normal;font-variant:normal;font-weight:normal;font-stretch:normal;line-height:125%;letter-spacing:0px;word-spacing:0px;fill:#000000;fill-opacity:1;stroke:none;font-family:Linux Biolinum O;-inkscape-font-specification:Linux Biolinum O"
       x="73.903252"
       y="79.600365"
       id="text5525"
       sodipodi:linespacing="125%"><tspan
         sodipodi:role="line"
         id="tspan5527"
         x="73.903252"
         y="79.600365">$\va$</tspan></text>
<text
       xml:space="preserve"
       style="font-size:8px;font-style:normal;font-variant:normal;font-weight:normal;font-stretch:normal;line-height:125%;letter-spacing:0px;word-spacing:0px;fill:#000000;fill-opacity:1;stroke:none;font-family:Linux Biolinum O;-inkscape-font-specification:Linux Biolinum O"
       x="109.67178"
       y="15.509048"
       id="text5529"
       sodipodi:linespacing="125%"><tspan
         sodipodi:role="line"
         id="tspan5531"
         x="109.67178"
         y="15.509048">$2\va$</tspan></text>
<text
       xml:space="preserve"
       style="font-size:8px;font-style:normal;font-variant:normal;font-weight:normal;font-stretch:normal;line-height:125%;letter-spacing:0px;word-spacing:0px;fill:#000000;fill-opacity:1;stroke:none;font-family:Linux Biolinum O;-inkscape-font-specification:Linux Biolinum O"
       x="18.833633"
       y="139.63382"
       id="text5533"
       sodipodi:linespacing="125%"><tspan
         sodipodi:role="line"
         id="tspan5535"
         x="18.833633"
         y="139.63382">$-\va$</tspan></text>
<text
       xml:space="preserve"
       style="font-size:8px;font-style:normal;font-variant:normal;font-weight:normal;font-stretch:normal;line-height:125%;letter-spacing:0px;word-spacing:0px;fill:#000000;fill-opacity:1;stroke:none;font-family:Linux Biolinum O;-inkscape-font-specification:Linux Biolinum O"
       x="281.00876"
       y="28.164539"
       id="text6649"
       sodipodi:linespacing="125%"><tspan
         sodipodi:role="line"
         id="tspan6651"
         x="281.00876"
         y="28.164539">$\va$</tspan></text>
<text
       xml:space="preserve"
       style="font-size:8px;font-style:normal;font-variant:normal;font-weight:normal;font-stretch:normal;line-height:125%;letter-spacing:0px;word-spacing:0px;fill:#000000;fill-opacity:1;stroke:none;font-family:Linux Biolinum O;-inkscape-font-specification:Linux Biolinum O"
       x="318.81036"
       y="103.03267"
       id="text6653"
       sodipodi:linespacing="125%"><tspan
         sodipodi:role="line"
         id="tspan6655"
         x="318.81036"
         y="103.03267">$\vb$</tspan></text>
<text
       xml:space="preserve"
       style="font-size:8px;font-style:normal;font-variant:normal;font-weight:normal;font-stretch:normal;line-height:125%;letter-spacing:0px;word-spacing:0px;fill:#000000;fill-opacity:1;stroke:none;font-family:Linux Biolinum O;-inkscape-font-specification:Linux Biolinum O"
       x="222.18048"
       y="158.59602"
       id="text6657"
       sodipodi:linespacing="125%"><tspan
         sodipodi:role="line"
         id="tspan6659"
         x="222.18048"
         y="158.59602">$-\va$</tspan></text>
<text
       xml:space="preserve"
       style="font-size:8px;font-style:normal;font-variant:normal;font-weight:normal;font-stretch:normal;line-height:125%;letter-spacing:0px;word-spacing:0px;fill:#000000;fill-opacity:1;stroke:none;font-family:Linux Biolinum O;-inkscape-font-specification:Linux Biolinum O"
       x="186.16695"
       y="73.409958"
       id="text6661"
       sodipodi:linespacing="125%"><tspan
         sodipodi:role="line"
         id="tspan6663"
         x="186.16695"
         y="73.409958">$-\vb$</tspan></text>
<text
       xml:space="preserve"
       style="font-size:8px;font-style:normal;font-variant:normal;font-weight:normal;font-stretch:normal;line-height:125%;letter-spacing:0px;word-spacing:0px;fill:#000000;fill-opacity:1;stroke:none;font-family:Linux Biolinum O;-inkscape-font-specification:Linux Biolinum O"
       x="209.78966"
       y="16.230675"
       id="text6665"
       sodipodi:linespacing="125%"><tspan
         sodipodi:role="line"
         id="tspan6667"
         x="209.78966"
         y="16.230675">$\va-\vb$</tspan></text>
<text
       xml:space="preserve"
       style="font-size:8px;font-style:normal;font-variant:normal;font-weight:normal;font-stretch:normal;line-height:125%;letter-spacing:0px;word-spacing:0px;fill:#000000;fill-opacity:1;stroke:none;font-family:Linux Biolinum O;-inkscape-font-specification:Linux Biolinum O"
       x="288.3797"
       y="167.61594"
       id="text6669"
       sodipodi:linespacing="125%"><tspan
         sodipodi:role="line"
         id="tspan6671"
         x="288.3797"
         y="167.61594">$\vb-\va$</tspan></text>
</g></svg>