<?xml version="1.0" encoding="UTF-8" standalone="no"?>
<!-- Created with Inkscape (http://www.inkscape.org/) -->

<svg
   xmlns:dc="http://purl.org/dc/elements/1.1/"
   xmlns:cc="http://creativecommons.org/ns#"
   xmlns:rdf="http://www.w3.org/1999/02/22-rdf-syntax-ns#"
   xmlns:svg="http://www.w3.org/2000/svg"
   xmlns="http://www.w3.org/2000/svg"
   xmlns:sodipodi="http://sodipodi.sourceforge.net/DTD/sodipodi-0.dtd"
   xmlns:inkscape="http://www.inkscape.org/namespaces/inkscape"
   id="svg6829"
   version="1.1"
   inkscape:version="0.48.1 r9760"
   width="109.75002"
   height="73.000977"
   xml:space="preserve"
   sodipodi:docname="05normal-to-plane.svg"><metadata
     id="metadata6835"><rdf:RDF><cc:Work
         rdf:about=""><dc:format>image/svg+xml</dc:format><dc:type
           rdf:resource="http://purl.org/dc/dcmitype/StillImage" /><dc:title></dc:title></cc:Work></rdf:RDF></metadata><defs
     id="defs6833" /><sodipodi:namedview
     pagecolor="#ffffff"
     bordercolor="#666666"
     borderopacity="1"
     objecttolerance="10"
     gridtolerance="10"
     guidetolerance="10"
     inkscape:pageopacity="0"
     inkscape:pageshadow="2"
     inkscape:window-width="1280"
     inkscape:window-height="752"
     id="namedview6831"
     showgrid="false"
     inkscape:zoom="8.0546868"
     inkscape:cx="54.875011"
     inkscape:cy="36.500488"
     inkscape:window-x="0"
     inkscape:window-y="0"
     inkscape:window-maximized="0"
     inkscape:current-layer="g6837"
     fit-margin-top="0"
     fit-margin-left="0"
     fit-margin-right="0"
     fit-margin-bottom="0" /><g
     id="g6837"
     inkscape:groupmode="layer"
     inkscape:label="ink_ext_XXXXXX"
     transform="matrix(1.25,0,0,-1.25,11.062515,62.938477)"><path
       inkscape:connector-curvature="0"
       id="path6841"
       style="fill:none;stroke:#000000;stroke-width:0.44999999;stroke-linecap:butt;stroke-linejoin:bevel;stroke-miterlimit:10;stroke-opacity:1;stroke-dasharray:none"
       d="M 9.16016,20.9398 8.5,20.1602 7.83984,19.3199 7.18008,18.4199 6.46016,17.5199 5.8,16.5 5.13984,15.4801 l -0.6,-1.0199 -0.6,-1.0204 L 3.46016,12.4199 2.98008,11.4 2.61992,10.3801 2.38008,9.48008 l -0.24024,-0.9 -0.05976,-0.84024 0,-0.71992 L 2.13984,6.3 2.31992,5.76016 2.5,5.21992 2.8,4.73984 3.16016,4.26016 3.58008,3.78008 4.11992,3.36016 4.71992,2.93984 5.38008,2.51992 6.1,2.21992 6.93984,1.86016 7.78008,1.61992 8.73984,1.31992 9.7,1.13984 10.7199,0.960156 11.8,0.839844 l 1.0801,-0.059766 1.0801,-0.060156 1.1398,0 1.1398,0.060156 1.2,0.059766 1.1403,0.060156 1.1398,0.11992 1.2,0.18008 1.2602,0.18008 1.3199,0.23984 1.3801,0.24024 1.4398,0.3 1.4403,0.3 1.5,0.41992 1.5597,0.35976 1.5602,0.42032 1.5597,0.47968 1.5602,0.48008 1.5602,0.54024 1.5,0.53984 1.5,0.53984 1.5,0.54024 1.3796,0.6 1.3801,0.6 1.3199,0.6 1.3204,0.6 1.2597,0.65976 1.3801,0.72036 1.3801,0.7199 1.3801,0.8398 1.3199,0.7801 1.3199,0.9 1.3801,0.9 1.2597,0.9 1.3204,0.9602 1.2597,0.9597 1.1403,0.9602 1.1398,0.9597 1.0801,0.9602 1.0199,0.9602 0.9,0.9 0.7801,0.9 L 67,24 l 0.6602,0.7801 0.5398,0.7801 0.4801,0.7199 0.3597,0.6597 0.3,0.6602 0.2403,0.5398 0.1199,0.6 0.1199,0.5403 0.0602,0.5398 0,0.5403 -0.0602,0.5398 -0.1199,0.4801 -0.1801,0.4801 -0.2398,0.4199 -0.2403,0.4199 -0.3597,0.4199 -0.3602,0.3602 -0.3597,0.3597 -0.4204,0.3 -0.4796,0.2403 -0.4204,0.2398 -0.4796,0.2403 -0.4801,0.1796 -0.5403,0.1204 -0.4796,0.1199 -0.5403,0.1199 -0.8398,0.1199 -0.9,0.0602 -0.9,0 L 60.4602,35.5199 59.4398,35.4602 58.3602,35.3398 57.2801,35.1602 56.2,34.9199 55.1199,34.7398 54.1,34.5 l -1.0199,-0.3 -0.9602,-0.2398 -0.9597,-0.2403 -0.8403,-0.3 -1.0199,-0.2398 -1.0199,-0.3 -1.0199,-0.3 -1.0204,-0.3 -1.0199,-0.3 -0.9597,-0.3 -0.9,-0.2403 -0.8403,-0.2398 -0.7801,-0.2398 -0.6597,-0.1801 -0.6,-0.1199 -0.5403,-0.1204 -0.5398,-0.0597 -0.4199,-0.0602 -0.7801,0 -0.3,0.0602 -0.1801,0.0597 -0.1801,0.1204 -0.1199,0.1199 L 37.3,30.9 l -0.0602,0.1199 -0.0597,0.1199 0,0.6 0.0597,0.1801 0.1204,0.2403 0.1199,0.2398 0.2398,0.1801 0.3,0.3597 0.4199,0.4204 0.4801,0.4199 0.5403,0.4199 0.4199,0.4199 0.3,0.3602 0.1801,0.2398 0.1199,0.1801 0.0597,0.2398 0.0602,0.2403 0.0602,0.1801 -0.0602,0.1796 0,0.1801 L 40.5398,36.6 40.4199,36.7199 40.3,36.8398 40.0602,37.0199 39.7,37.0801 39.2801,37.2 l -1.2,0 -0.7199,-0.1199 -0.4801,-0.0602 -0.5403,-0.0597 -0.6,-0.1204 -0.6597,-0.1199 -0.7199,-0.1801 -0.7801,-0.1796 -0.8403,-0.1801 -0.7796,-0.2403 -0.7801,-0.1796 -0.7801,-0.3 -0.7199,-0.1801 -0.7199,-0.2403 -0.7204,-0.3 -0.8398,-0.3 -0.8398,-0.3597 -0.9,-0.4199 -0.9,-0.3602 -0.9,-0.4801 L 22.9602,32.4 22.1199,31.9199 21.2801,31.4398 20.4398,30.9 19.7199,30.4801 19,30 18.2199,29.4602 17.4398,28.8602 16.6,28.2 15.7602,27.5398 14.9199,26.8199 14.0199,26.0398 13.1801,25.2 12.3398,24.4199 11.5,23.5801 l -0.7801,-0.8403 -0.78006,-0.9 -0.77968,-0.9 z" /><text
       transform="scale(1,-1)"
       id="text6845"
       x="-1.5601562"
       y="-38.439804"><tspan
         style="font-size:6.30000019px;font-style:oblique;font-variant:normal;font-weight:normal;writing-mode:lr-tb;fill:#000000;fill-opacity:1;fill-rule:nonzero;stroke:none;font-family:AvantGarde;-inkscape-font-specification:AvantGarde-BookOblique"
         x="-1.5601562"
         y="-38.439804"
         sodipodi:role="line"
         id="tspan6847">$\vn=\va\cp\vb$</tspan></text>
<path
       inkscape:connector-curvature="0"
       id="path6849"
       style="fill:#ffffff;fill-opacity:1;fill-rule:evenodd;stroke:none"
       d="M 6.88008,21.4199 9.03984,17.5801 10.5398,20.2199 8.56016,24" /><path
       inkscape:connector-curvature="0"
       id="path6861"
       style="fill:#000000;stroke:#000000;stroke-width:0.44999999;stroke-linecap:butt;stroke-linejoin:round;stroke-miterlimit:10;stroke-opacity:1;stroke-dasharray:none"
       d="M 5.0345104,24.840859 2.61992,32.8801 6.2879747,28.799441 4.66016,28.6199 z"
       sodipodi:nodetypes="ccccc" /><path
       inkscape:connector-curvature="0"
       id="path6863"
       style="fill:#000000;fill-opacity:1;fill-rule:evenodd;stroke:none"
       d="m 15.7,6 27,9" /><path
       inkscape:connector-curvature="0"
       id="path6865"
       style="fill:none;stroke:#000000;stroke-width:0.44999999;stroke-linecap:butt;stroke-linejoin:round;stroke-miterlimit:10;stroke-opacity:1;stroke-dasharray:none"
       d="m 15.7,6 27,9" /><path
       inkscape:connector-curvature="0"
       id="path6867"
       style="fill:#00006b;fill-opacity:1;fill-rule:evenodd;stroke:none"
       d="m 15.7602,5.88008 -3.3,6.65972 1.5597,4.3801 3.3,-6.3" /><path
       inkscape:connector-curvature="0"
       id="path6869"
       style="fill:#217844;stroke:#000000;stroke-width:0.44999999;stroke-linecap:butt;stroke-linejoin:round;stroke-miterlimit:10;stroke-opacity:1;stroke-dasharray:none"
       d="m 15.7602,5.88008 -3.3,6.65972 1.5597,4.3801 3.3,-6.3 -1.5597,-4.73982 z" /><path
       inkscape:connector-curvature="0"
       id="path6871"
       style="fill:#000000;fill-opacity:1;fill-rule:evenodd;stroke:none"
       d="m 15.7,6 4.5,13.5" /><path
       inkscape:connector-curvature="0"
       id="path6873"
       style="fill:none;stroke:#000000;stroke-width:0.44999999;stroke-linecap:butt;stroke-linejoin:round;stroke-miterlimit:10;stroke-opacity:1;stroke-dasharray:none"
       d="m 15.7,6 4.5,13.5" /><path
       inkscape:connector-curvature="0"
       id="path6875"
       style="fill:#000000;fill-opacity:1;fill-rule:evenodd;stroke:none"
       d="m 16.6,16.3199 3.9,4.5 0.9602,-2.7597 -1.8,-0.2403" /><path
       inkscape:connector-curvature="0"
       id="path6877"
       style="fill:none;stroke:#000000;stroke-width:0.44999999;stroke-linecap:butt;stroke-linejoin:round;stroke-miterlimit:10;stroke-opacity:1;stroke-dasharray:none"
       d="m 16.6,16.3199 3.9,4.5 0.9602,-2.7597 -1.8,-0.2403 -3.0602,-1.5 z" /><path
       inkscape:connector-curvature="0"
       id="path6879"
       style="fill:#000000;fill-opacity:1;fill-rule:evenodd;stroke:none"
       d="m 39.1602,15.6 5.3398,0.1199 -6,-4.2597 1.6199,2.7" /><path
       inkscape:connector-curvature="0"
       id="path6881"
       style="fill:none;stroke:#000000;stroke-width:0.44999999;stroke-linecap:butt;stroke-linejoin:round;stroke-miterlimit:10;stroke-opacity:1;stroke-dasharray:none"
       d="m 39.1602,15.6 5.3398,0.1199 -6,-4.2597 1.6199,2.7 -0.9597,1.4398 z" /><path
       inkscape:connector-curvature="0"
       id="path6883"
       style="fill:#000000;fill-opacity:1;fill-rule:evenodd;stroke:none"
       d="M 15.8801,6 2.73984,32.5199" /><path
       inkscape:connector-curvature="0"
       id="path6885"
       style="fill:none;stroke:#000000;stroke-width:0.44999999;stroke-linecap:butt;stroke-linejoin:round;stroke-miterlimit:10;stroke-opacity:1;stroke-dasharray:none"
       d="M 15.8801,6 2.73984,32.5199" /><path
       inkscape:connector-curvature="0"
       id="path6887"
       style="fill:#ff0000;fill-opacity:1;fill-rule:evenodd;stroke:none"
       d="M 15.8801,5.76016 13.9,10.1398 19.9,12.1801 21.7,7.8" /><path
       inkscape:connector-curvature="0"
       id="path6889"
       style="fill:none;stroke:#000000;stroke-width:0.44999999;stroke-linecap:butt;stroke-linejoin:round;stroke-miterlimit:10;stroke-opacity:1;stroke-dasharray:none"
       d="M 15.8801,5.76016 13.9,10.1398 19.9,12.1801 21.7,7.8 15.8801,5.76016 z" /><text
       xml:space="preserve"
       style="font-size:8px;font-style:normal;font-variant:normal;font-weight:normal;font-stretch:normal;text-align:start;line-height:125%;letter-spacing:0px;word-spacing:0px;writing-mode:lr-tb;text-anchor:start;fill:#000000;fill-opacity:1;stroke:none;font-family:Linux Biolinum O;-inkscape-font-specification:Linux Biolinum O"
       x="21.042404"
       y="-21.184809"
       id="text6921"
       sodipodi:linespacing="125%"
       transform="scale(1,-1)"><tspan
         sodipodi:role="line"
         id="tspan6923"
         x="21.042404"
         y="-21.184809">$\vb$</tspan></text>
<text
       xml:space="preserve"
       style="font-size:8px;font-style:normal;font-variant:normal;font-weight:normal;font-stretch:normal;text-align:start;line-height:125%;letter-spacing:0px;word-spacing:0px;writing-mode:lr-tb;text-anchor:start;fill:#000000;fill-opacity:1;stroke:none;font-family:Linux Biolinum O;-inkscape-font-specification:Linux Biolinum O"
       x="44.363293"
       y="-15.379749"
       id="text6925"
       sodipodi:linespacing="125%"
       transform="scale(1,-1)"><tspan
         sodipodi:role="line"
         id="tspan6927"
         x="44.363293"
         y="-15.379749">$\va$</tspan></text>
</g></svg>