<?xml version="1.0" encoding="UTF-8" standalone="no"?>
<!-- Created with Inkscape (http://www.inkscape.org/) -->

<svg
   xmlns:dc="http://purl.org/dc/elements/1.1/"
   xmlns:cc="http://creativecommons.org/ns#"
   xmlns:rdf="http://www.w3.org/1999/02/22-rdf-syntax-ns#"
   xmlns:svg="http://www.w3.org/2000/svg"
   xmlns="http://www.w3.org/2000/svg"
   xmlns:sodipodi="http://sodipodi.sourceforge.net/DTD/sodipodi-0.dtd"
   xmlns:inkscape="http://www.inkscape.org/namespaces/inkscape"
   id="svg2"
   version="1.1"
   inkscape:version="0.48.1 r9760"
   width="227.62238"
   height="119.94243"
   xml:space="preserve"
   sodipodi:docname="05P2Q.pdf"><metadata
     id="metadata8"><rdf:RDF><cc:Work
         rdf:about=""><dc:format>image/svg+xml</dc:format><dc:type
           rdf:resource="http://purl.org/dc/dcmitype/StillImage" /><dc:title></dc:title></cc:Work></rdf:RDF></metadata><defs
     id="defs6"><clipPath
       clipPathUnits="userSpaceOnUse"
       id="clipPath18"><path
         d="M 0,1370 0,0 l 700,0 0,1370 -700,0 z m 556,-724 -18,0 0,-51.602 9,33.602 9,-33.602 0,51.602 z m -18,-468 18,0 0,52.199 L 547,196 538,230.199 538,178 z"
         clip-rule="evenodd"
         id="path20"
         inkscape:connector-curvature="0" /></clipPath><clipPath
       clipPathUnits="userSpaceOnUse"
       id="clipPath50"><path
         d="M 0,1370 0,0 l 700,0 0,1370 -700,0 z m 517,-732.398 -19.801,13.796 -25.801,-36 27,16.801 -7.199,-30.597 25.801,36 z"
         clip-rule="evenodd"
         id="path52"
         inkscape:connector-curvature="0" /></clipPath><clipPath
       clipPathUnits="userSpaceOnUse"
       id="clipPath72"><path
         d="M 0,1370 0,0 l 700,0 0,1370 -700,0 z m 511,-1237 0,18 -52.199,0 34.199,-9 -34.199,-9 52.199,0 z m -333,18 0,-18 51.602,0 -33.602,9 33.602,9 -51.602,0 z"
         clip-rule="evenodd"
         id="path74"
         inkscape:connector-curvature="0" /></clipPath><clipPath
       clipPathUnits="userSpaceOnUse"
       id="clipPath112"><path
         d="M 0,1370 0,0 l 700,0 0,1370 -700,0 z m 202.602,-278.2 -25.801,8.4 -23.403,-71.4 30.602,48.6 -5.398,-57.6 24,72 z"
         clip-rule="evenodd"
         id="path114"
         inkscape:connector-curvature="0" /></clipPath><clipPath
       clipPathUnits="userSpaceOnUse"
       id="clipPath126"><path
         d="M 0,1370 0,0 l 700,0 0,1370 -700,0 z m 648.398,-204.4 -5.398,27 -73.801,-15 58.199,-2.4 -52.796,-24 73.796,14.4 z"
         clip-rule="evenodd"
         id="path128"
         inkscape:connector-curvature="0" /></clipPath><clipPath
       clipPathUnits="userSpaceOnUse"
       id="clipPath140"><path
         d="M 0,1370 0,0 l 700,0 0,1370 -700,0 z m 651.398,-199 -14.398,22.8 -63,-42 54.602,19.8 -39.602,-42 62.398,41.4 z"
         clip-rule="evenodd"
         id="path142"
         inkscape:connector-curvature="0" /></clipPath></defs><sodipodi:namedview
     pagecolor="#ffffff"
     bordercolor="#666666"
     borderopacity="1"
     objecttolerance="10"
     gridtolerance="10"
     guidetolerance="10"
     inkscape:pageopacity="0"
     inkscape:pageshadow="2"
     inkscape:window-width="1280"
     inkscape:window-height="778"
     id="namedview4"
     showgrid="false"
     inkscape:zoom="2.6095853"
     inkscape:cx="168.48246"
     inkscape:cy="67.231273"
     inkscape:window-x="0"
     inkscape:window-y="0"
     inkscape:window-maximized="0"
     inkscape:current-layer="g10"
     fit-margin-top="0"
     fit-margin-left="0"
     fit-margin-right="0"
     fit-margin-bottom="0" /><g
     id="g10"
     inkscape:groupmode="layer"
     inkscape:label="ink_ext_XXXXXX"
     transform="matrix(1.25,0,0,-1.25,128.75609,196.58296)"><path
       inkscape:connector-curvature="0"
       id="path106"
       style="fill:none;stroke:#000000;stroke-width:0.44999999;stroke-linecap:round;stroke-linejoin:round;stroke-miterlimit:10;stroke-opacity:1;stroke-dasharray:none"
       d="m -95.3,77.376033 63,0" /><path
       inkscape:connector-curvature="0"
       id="path116"
       style="fill:none;stroke:#000000;stroke-width:0.44999999;stroke-linecap:butt;stroke-linejoin:round;stroke-miterlimit:10;stroke-opacity:1;stroke-dasharray:none"
       d="m -86.3,77.376033 9,26.999997" /><path
       inkscape:connector-curvature="0"
       id="path118"
       style="fill:#000000;fill-opacity:1;fill-rule:evenodd;stroke:none"
       d="m -78.1398,97.656033 0.5398,5.759997 -3.0602,-4.859997 1.6204,0.6 0.9,-1.5" /><path
       inkscape:connector-curvature="0"
       id="path120"
       style="fill:none;stroke:#000000;stroke-width:0.44999999;stroke-linecap:butt;stroke-linejoin:miter;stroke-miterlimit:10;stroke-opacity:1;stroke-dasharray:none"
       d="m -78.1398,97.656033 0.5398,5.759997 -3.0602,-4.859997 1.6204,0.6 0.9,-1.5 z" /><path
       inkscape:connector-curvature="0"
       id="path130"
       style="fill:none;stroke:#000000;stroke-width:0.44999999;stroke-linecap:butt;stroke-linejoin:round;stroke-miterlimit:10;stroke-opacity:1;stroke-dasharray:none"
       d="m -77.3,104.37603 45,9" /><path
       inkscape:connector-curvature="0"
       id="path132"
       style="fill:#000000;fill-opacity:1;fill-rule:evenodd;stroke:none"
       d="m -38.5398,110.79603 5.2796,2.4 -5.8199,0.24 1.3801,-1.08 -0.8398,-1.56" /><path
       inkscape:connector-curvature="0"
       id="path134"
       style="fill:none;stroke:#000000;stroke-width:0.44999999;stroke-linecap:butt;stroke-linejoin:miter;stroke-miterlimit:10;stroke-opacity:1;stroke-dasharray:none"
       d="m -38.5398,110.79603 5.2796,2.4 -5.8199,0.24 1.3801,-1.08 -0.8398,-1.56 z" /><path
       inkscape:connector-curvature="0"
       id="path144"
       style="fill:none;stroke:#000000;stroke-width:0.44999999;stroke-linecap:butt;stroke-linejoin:round;stroke-miterlimit:10;stroke-opacity:1;stroke-dasharray:none"
       d="m -86.3,77.376033 54,35.999997" /><path
       inkscape:connector-curvature="0"
       id="path146"
       style="fill:#000000;fill-opacity:1;fill-rule:evenodd;stroke:none"
       d="m -37.1,108.63603 3.9602,4.2 -5.4602,-1.98 1.6801,-0.48 -0.1801,-1.74" /><path
       inkscape:connector-curvature="0"
       id="path148"
       style="fill:none;stroke:#000000;stroke-width:0.44999999;stroke-linecap:butt;stroke-linejoin:miter;stroke-miterlimit:10;stroke-opacity:1;stroke-dasharray:none"
       d="m -37.1,108.63603 3.9602,4.2 -5.4602,-1.98 1.6801,-0.48 -0.1801,-1.74 z" /><path
       inkscape:connector-curvature="0"
       id="path150"
       style="fill:none;stroke:#000000;stroke-width:0.44999999;stroke-linecap:round;stroke-linejoin:round;stroke-miterlimit:10;stroke-opacity:1;stroke-dasharray:none"
       d="m -86.3,72.876033 0,13.5" /><path
       inkscape:connector-curvature="0"
       id="path152"
       style="fill:none;stroke:#000000;stroke-width:0.44999999;stroke-linecap:round;stroke-linejoin:round;stroke-miterlimit:10;stroke-opacity:1;stroke-dasharray:none"
       d="m -86.3,99.876033 0,31.499997" /><path
       inkscape:connector-curvature="0"
       id="path168"
       style="fill:#ffffff;fill-opacity:1;fill-rule:evenodd;stroke:none"
       d="m -76.5801,104.37603 c 0,-0.397 -0.3226,-0.72 -0.7199,-0.72 -0.3973,0 -0.7199,0.323 -0.7199,0.72 0,0.397 0.3226,0.72 0.7199,0.72 0.3973,0 0.7199,-0.323 0.7199,-0.72" /><path
       inkscape:connector-curvature="0"
       id="path170"
       style="fill:none;stroke:#000000;stroke-width:0.44999999;stroke-linecap:round;stroke-linejoin:round;stroke-miterlimit:10;stroke-opacity:1;stroke-dasharray:none"
       d="m -76.5801,104.37603 c 0,-0.397 -0.3226,-0.72 -0.7199,-0.72 -0.3973,0 -0.7199,0.323 -0.7199,0.72 0,0.397 0.3226,0.72 0.7199,0.72 0.3973,0 0.7199,-0.323 0.7199,-0.72 z" /><path
       inkscape:connector-curvature="0"
       id="path172"
       style="fill:#ffffff;fill-opacity:1;fill-rule:evenodd;stroke:none"
       d="m -31.5801,113.37603 c 0,-0.397 -0.3226,-0.72 -0.7199,-0.72 -0.3973,0 -0.7199,0.323 -0.7199,0.72 0,0.397 0.3226,0.72 0.7199,0.72 0.3973,0 0.7199,-0.323 0.7199,-0.72" /><path
       inkscape:connector-curvature="0"
       id="path174"
       style="fill:none;stroke:#000000;stroke-width:0.44999999;stroke-linecap:round;stroke-linejoin:round;stroke-miterlimit:10;stroke-opacity:1;stroke-dasharray:none"
       d="m -31.5801,113.37603 c 0,-0.397 -0.3226,-0.72 -0.7199,-0.72 -0.3973,0 -0.7199,0.323 -0.7199,0.72 0,0.397 0.3226,0.72 0.7199,0.72 0.3973,0 0.7199,-0.323 0.7199,-0.72 z" /><text
       xml:space="preserve"
       style="font-size:9.60000038px;font-style:normal;font-variant:normal;font-weight:normal;font-stretch:normal;line-height:125%;letter-spacing:0px;word-spacing:0px;fill:#000000;fill-opacity:1;stroke:none;font-family:Linux Libertine;-inkscape-font-specification:Linux Libertine"
       x="-95.132912"
       y="-90.622238"
       id="text3246"
       sodipodi:linespacing="125%"
       transform="scale(1,-1)"><tspan
         sodipodi:role="line"
         id="tspan3248"
         x="-95.132912"
         y="-90.622238">$\vp$</tspan></text>
<text
       xml:space="preserve"
       style="font-size:9.60000038px;font-style:normal;font-variant:normal;font-weight:normal;font-stretch:normal;line-height:125%;letter-spacing:0px;word-spacing:0px;fill:#000000;fill-opacity:1;stroke:none;font-family:Linux Libertine;-inkscape-font-specification:Linux Libertine"
       x="-63.917717"
       y="-87.587425"
       id="text3250"
       sodipodi:linespacing="125%"
       transform="scale(1,-1)"><tspan
         sodipodi:role="line"
         id="tspan3252"
         x="-63.917717"
         y="-87.587425">$\vq$</tspan></text>
<text
       xml:space="preserve"
       style="font-size:9.60000038px;font-style:normal;font-variant:normal;font-weight:normal;font-stretch:normal;line-height:125%;letter-spacing:0px;word-spacing:0px;fill:#000000;fill-opacity:1;stroke:none;font-family:Linux Libertine;-inkscape-font-specification:Linux Libertine"
       x="-82.560127"
       y="-107.53046"
       id="text3254"
       sodipodi:linespacing="125%"
       transform="scale(1,-1)"><tspan
         sodipodi:role="line"
         id="tspan3256"
         x="-82.560127"
         y="-107.53046">$P$</tspan></text>
<text
       xml:space="preserve"
       style="font-size:9.60000038px;font-style:normal;font-variant:normal;font-weight:normal;font-stretch:normal;line-height:125%;letter-spacing:0px;word-spacing:0px;fill:#000000;fill-opacity:1;stroke:none;font-family:Linux Libertine;-inkscape-font-specification:Linux Libertine"
       x="-38.338615"
       y="-117.93553"
       id="text3258"
       sodipodi:linespacing="125%"
       transform="scale(1,-1)"><tspan
         sodipodi:role="line"
         id="tspan3260"
         x="-38.338615"
         y="-117.93553">$Q$</tspan></text>
<text
       xml:space="preserve"
       style="font-size:9.60000038px;font-style:normal;font-variant:normal;font-weight:normal;font-stretch:normal;line-height:125%;letter-spacing:0px;word-spacing:0px;fill:#000000;fill-opacity:1;stroke:none;font-family:Linux Libertine;-inkscape-font-specification:Linux Libertine"
       x="-65.218361"
       y="-111.86591"
       id="text3262"
       sodipodi:linespacing="125%"
       transform="scale(1,-1)"><tspan
         sodipodi:role="line"
         id="tspan3264"
         x="-65.218361"
         y="-111.86591">$\tpv PQ$</tspan></text>
<path
       inkscape:connector-curvature="0"
       id="path22"
       style="fill:none;stroke:#000000;stroke-width:0.44999999;stroke-linecap:round;stroke-linejoin:round;stroke-miterlimit:10;stroke-opacity:1;stroke-dasharray:0.9, 2.7;stroke-dashoffset:2.7"
       d="m 54.7,90.876033 0,44.999997" /><path
       inkscape:connector-curvature="0"
       id="path24"
       style="fill:#000000;fill-opacity:1;fill-rule:evenodd;stroke:none"
       d="m 53.8,95.195933 0.9,-3.4199 0.9,3.4199 -0.9,-0.7199 -0.9,0.7199" /><path
       inkscape:connector-curvature="0"
       id="path26"
       style="fill:none;stroke:#000000;stroke-width:0.44999999;stroke-linecap:butt;stroke-linejoin:miter;stroke-miterlimit:10;stroke-opacity:1;stroke-dasharray:none"
       d="m 53.8,95.195933 0.9,-3.4199 0.9,3.4199 -0.9,-0.7199 -0.9,0.7199 z" /><path
       inkscape:connector-curvature="0"
       id="path28"
       style="fill:#000000;fill-opacity:1;fill-rule:evenodd;stroke:none"
       d="m 55.6,131.61583 -0.9,3.3602 -0.9,-3.3602 0.9,0.6602 0.9,-0.6602" /><path
       inkscape:connector-curvature="0"
       id="path30"
       style="fill:none;stroke:#000000;stroke-width:0.44999999;stroke-linecap:butt;stroke-linejoin:miter;stroke-miterlimit:10;stroke-opacity:1;stroke-dasharray:none"
       d="m 55.6,131.61583 -0.9,3.3602 -0.9,-3.3602 0.9,0.6602 0.9,-0.6602 z" /><path
       inkscape:connector-curvature="0"
       id="path32"
       style="fill:none;stroke:#000000;stroke-width:0.44999999;stroke-linecap:round;stroke-linejoin:round;stroke-miterlimit:10;stroke-opacity:1;stroke-dasharray:0.9, 2.7;stroke-dashoffset:2.7"
       d="m 50.2,90.876033 0,-9" /><path
       inkscape:connector-curvature="0"
       id="path34"
       style="fill:none;stroke:#000000;stroke-width:0.44999999;stroke-linecap:round;stroke-linejoin:round;stroke-miterlimit:10;stroke-opacity:1;stroke-dasharray:0.9, 2.7;stroke-dashoffset:2.7"
       d="m 50.2,90.876033 9,0" /><path
       inkscape:connector-curvature="0"
       id="path36"
       style="fill:none;stroke:#000000;stroke-width:0.44999999;stroke-linecap:round;stroke-linejoin:round;stroke-miterlimit:10;stroke-opacity:1;stroke-dasharray:0.9, 2.7;stroke-dashoffset:2.7"
       d="m 50.2,135.87603 9,0" /><path
       inkscape:connector-curvature="0"
       id="path44"
       style="fill:none;stroke:#000000;stroke-width:0.44999999;stroke-linecap:round;stroke-linejoin:round;stroke-miterlimit:10;stroke-opacity:1;stroke-dasharray:none"
       d="m 9.7,135.87603 0,-62.999997 54,0" /><path
       inkscape:connector-curvature="0"
       id="path54"
       style="fill:none;stroke:#000000;stroke-width:0.44999999;stroke-linecap:round;stroke-linejoin:round;stroke-miterlimit:10;stroke-opacity:1;stroke-dasharray:none"
       d="M 18.7,90.876033 50.2,135.87603" /><path
       inkscape:connector-curvature="0"
       id="path56"
       style="fill:#000000;fill-opacity:1;fill-rule:evenodd;stroke:none"
       d="m 49.1199,132.33623 0.7199,3.0597 -2.7,-1.6801 1.3204,-0.1796 0.6597,-1.2" /><path
       inkscape:connector-curvature="0"
       id="path58"
       style="fill:none;stroke:#000000;stroke-width:0.44999999;stroke-linecap:butt;stroke-linejoin:miter;stroke-miterlimit:10;stroke-opacity:1;stroke-dasharray:none"
       d="m 49.1199,132.33623 0.7199,3.0597 -2.7,-1.6801 1.3204,-0.1796 0.6597,-1.2 z" /><path
       inkscape:connector-curvature="0"
       id="path60"
       style="fill:none;stroke:#000000;stroke-width:0.44999999;stroke-linecap:round;stroke-linejoin:round;stroke-miterlimit:10;stroke-opacity:1;stroke-dasharray:0.9, 2.7;stroke-dashoffset:2.7"
       d="m 18.7,90.876033 31.5,0 0,44.999997" /><path
       inkscape:connector-curvature="0"
       id="path76"
       style="fill:none;stroke:#000000;stroke-width:0.44999999;stroke-linecap:round;stroke-linejoin:round;stroke-miterlimit:10;stroke-opacity:1;stroke-dasharray:0.9, 2.7;stroke-dashoffset:2.7"
       d="m 18.7,86.376033 31.5,0" /><path
       inkscape:connector-curvature="0"
       id="path78"
       style="fill:#000000;fill-opacity:1;fill-rule:evenodd;stroke:none"
       d="m 22.9602,87.276033 -3.3602,-0.9 3.3602,-0.9 -0.6602,0.9 0.6602,0.9" /><path
       inkscape:connector-curvature="0"
       id="path80"
       style="fill:none;stroke:#000000;stroke-width:0.44999999;stroke-linecap:butt;stroke-linejoin:miter;stroke-miterlimit:10;stroke-opacity:1;stroke-dasharray:none"
       d="m 22.9602,87.276033 -3.3602,-0.9 3.3602,-0.9 -0.6602,0.9 0.6602,0.9 z" /><path
       inkscape:connector-curvature="0"
       id="path82"
       style="fill:#000000;fill-opacity:1;fill-rule:evenodd;stroke:none"
       d="m 45.8801,85.476033 3.4199,0.9 -3.4199,0.9 0.7199,-0.9 -0.7199,-0.9" /><path
       inkscape:connector-curvature="0"
       id="path84"
       style="fill:none;stroke:#000000;stroke-width:0.44999999;stroke-linecap:butt;stroke-linejoin:miter;stroke-miterlimit:10;stroke-opacity:1;stroke-dasharray:none"
       d="m 45.8801,85.476033 3.4199,0.9 -3.4199,0.9 0.7199,-0.9 -0.7199,-0.9 z" /><path
       inkscape:connector-curvature="0"
       id="path86"
       style="fill:none;stroke:#000000;stroke-width:0.44999999;stroke-linecap:round;stroke-linejoin:round;stroke-miterlimit:10;stroke-opacity:1;stroke-dasharray:0.9, 2.7;stroke-dashoffset:2.7"
       d="m 18.7,90.876033 0,-9" /><path
       inkscape:connector-curvature="0"
       id="path102"
       style="fill:#ffffff;fill-opacity:1;fill-rule:evenodd;stroke:none"
       d="m 50.9199,135.87603 c 0,-0.3973 -0.3226,-0.7199 -0.7199,-0.7199 -0.3973,0 -0.7199,0.3226 -0.7199,0.7199 0,0.3973 0.3226,0.7199 0.7199,0.7199 0.3973,0 0.7199,-0.3226 0.7199,-0.7199" /><path
       inkscape:connector-curvature="0"
       id="path104"
       style="fill:none;stroke:#000000;stroke-width:0.44999999;stroke-linecap:round;stroke-linejoin:round;stroke-miterlimit:10;stroke-opacity:1;stroke-dasharray:none"
       d="m 50.9199,135.87603 c 0,-0.3973 -0.3226,-0.7199 -0.7199,-0.7199 -0.3973,0 -0.7199,0.3226 -0.7199,0.7199 0,0.3973 0.3226,0.7199 0.7199,0.7199 0.3973,0 0.7199,-0.3226 0.7199,-0.7199 z" /><path
       inkscape:connector-curvature="0"
       id="path164"
       style="fill:#ffffff;fill-opacity:1;fill-rule:evenodd;stroke:none"
       d="m 19.4199,90.876033 c 0,-0.3973 -0.3226,-0.7199 -0.7199,-0.7199 -0.3973,0 -0.7199,0.3226 -0.7199,0.7199 0,0.3973 0.3226,0.7199 0.7199,0.7199 0.3973,0 0.7199,-0.3226 0.7199,-0.7199" /><path
       inkscape:connector-curvature="0"
       id="path166"
       style="fill:none;stroke:#000000;stroke-width:0.44999999;stroke-linecap:round;stroke-linejoin:round;stroke-miterlimit:10;stroke-opacity:1;stroke-dasharray:none"
       d="m 19.4199,90.876033 c 0,-0.3973 -0.3226,-0.7199 -0.7199,-0.7199 -0.3973,0 -0.7199,0.3226 -0.7199,0.7199 0,0.3973 0.3226,0.7199 0.7199,0.7199 0.3973,0 0.7199,-0.3226 0.7199,-0.7199 z" /><text
       xml:space="preserve"
       style="font-size:9.60000038px;font-style:normal;font-variant:normal;font-weight:normal;font-stretch:normal;line-height:125%;letter-spacing:0px;word-spacing:0px;fill:#000000;fill-opacity:1;stroke:none;font-family:Linux Libertine;-inkscape-font-specification:Linux Libertine"
       x="13.873412"
       y="-77.812111"
       id="text3266"
       sodipodi:linespacing="125%"
       transform="scale(1,-1)"><tspan
         sodipodi:role="line"
         id="tspan3268"
         x="13.873412"
         y="-77.812111">$q_1-p_1$</tspan></text>
<text
       xml:space="preserve"
       style="font-size:9.60000038px;font-style:normal;font-variant:normal;font-weight:normal;font-stretch:normal;line-height:125%;letter-spacing:0px;word-spacing:0px;fill:#000000;fill-opacity:1;stroke:none;font-family:Linux Libertine;-inkscape-font-specification:Linux Libertine"
       x="93.598145"
       y="63.558296"
       id="text3270"
       sodipodi:linespacing="125%"
       transform="matrix(0,1,1,0,0,0)"><tspan
         sodipodi:role="line"
         id="tspan3272"
         x="93.598145"
         y="63.558296">$q_2-p_2$</tspan></text>
<text
       transform="scale(1,-1)"
       sodipodi:linespacing="125%"
       id="text3274"
       y="-92.552612"
       x="10.405062"
       style="font-size:9.60000038px;font-style:normal;font-variant:normal;font-weight:normal;font-stretch:normal;line-height:125%;letter-spacing:0px;word-spacing:0px;fill:#000000;fill-opacity:1;stroke:none;font-family:Linux Libertine;-inkscape-font-specification:Linux Libertine"
       xml:space="preserve"><tspan
         y="-92.552612"
         x="10.405062"
         id="tspan3276"
         sodipodi:role="line">$P$</tspan></text>
<text
       transform="scale(1,-1)"
       sodipodi:linespacing="125%"
       id="text3278"
       y="-138.50832"
       x="43.354424"
       style="font-size:9.60000038px;font-style:normal;font-variant:normal;font-weight:normal;font-stretch:normal;line-height:125%;letter-spacing:0px;word-spacing:0px;fill:#000000;fill-opacity:1;stroke:none;font-family:Linux Libertine;-inkscape-font-specification:Linux Libertine"
       xml:space="preserve"><tspan
         y="-138.50832"
         x="43.354424"
         id="tspan3280"
         sodipodi:role="line">$Q$</tspan></text>
<text
       transform="scale(1,-1)"
       sodipodi:linespacing="125%"
       id="text3282"
       y="-117.26464"
       x="18.642401"
       style="font-size:9.60000038px;font-style:normal;font-variant:normal;font-weight:normal;font-stretch:normal;line-height:125%;letter-spacing:0px;word-spacing:0px;fill:#000000;fill-opacity:1;stroke:none;font-family:Linux Libertine;-inkscape-font-specification:Linux Libertine"
       xml:space="preserve"><tspan
         y="-117.26464"
         x="18.642401"
         id="tspan3284"
         sodipodi:role="line">$\tpv PQ$</tspan></text>
</g></svg>