<?xml version="1.0" encoding="UTF-8" standalone="no"?>
<!-- Created with Inkscape (http://www.inkscape.org/) -->

<svg
   xmlns:dc="http://purl.org/dc/elements/1.1/"
   xmlns:cc="http://creativecommons.org/ns#"
   xmlns:rdf="http://www.w3.org/1999/02/22-rdf-syntax-ns#"
   xmlns:svg="http://www.w3.org/2000/svg"
   xmlns="http://www.w3.org/2000/svg"
   xmlns:sodipodi="http://sodipodi.sourceforge.net/DTD/sodipodi-0.dtd"
   xmlns:inkscape="http://www.inkscape.org/namespaces/inkscape"
   id="svg4260"
   version="1.1"
   inkscape:version="0.48.2 r9819"
   width="431.59375"
   height="160.8761"
   xml:space="preserve"
   sodipodi:docname="05vectorsum.pdf"><metadata
     id="metadata4266"><rdf:RDF><cc:Work
         rdf:about=""><dc:format>image/svg+xml</dc:format><dc:type
           rdf:resource="http://purl.org/dc/dcmitype/StillImage" /><dc:title></dc:title></cc:Work></rdf:RDF></metadata><defs
     id="defs4264"><clipPath
       clipPathUnits="userSpaceOnUse"
       id="clipPath4294"><path
         d="M 0,830 0,0 1780,0 1780,830 0,830 z"
         id="path4296"
         inkscape:connector-curvature="0" /></clipPath><clipPath
       clipPathUnits="userSpaceOnUse"
       id="clipPath4300"><path
         d="M 0,830 0,0 1780,0 1780,830 0,830 z M 16,473.199 -3.19922,454 57.3984,393.398 l -30,49.204 49.2032,-30 L 16,473.199 z"
         clip-rule="evenodd"
         id="path4302"
         inkscape:connector-curvature="0" /></clipPath><clipPath
       clipPathUnits="userSpaceOnUse"
       id="clipPath4314"><path
         d="M 0,830 0,0 1780,0 1780,830 0,830 z m 478.602,-189.398 -25.204,10.199 -31.199,-79.199 33.602,46.796 -8.403,-57 31.204,79.204 z"
         clip-rule="evenodd"
         id="path4316"
         inkscape:connector-curvature="0" /></clipPath><clipPath
       clipPathUnits="userSpaceOnUse"
       id="clipPath4328"><path
         d="M 0,830 0,0 1780,0 1780,830 0,830 z M 746.199,358 736,383.199 656.801,352 714.398,359.801 667,326.801 746.199,358 z"
         clip-rule="evenodd"
         id="path4330"
         inkscape:connector-curvature="0" /></clipPath><clipPath
       clipPathUnits="userSpaceOnUse"
       id="clipPath4342"><path
         d="M 0,830 0,0 1780,0 1780,830 0,830 z M 961,473.199 941.801,454 l 60.599,-60.602 -30.002,49.204 49.202,-30 -60.6,60.597 z"
         clip-rule="evenodd"
         id="path4344"
         inkscape:connector-curvature="0" /></clipPath><clipPath
       clipPathUnits="userSpaceOnUse"
       id="clipPath4356"><path
         d="M 0,830 0,0 1780,0 1780,830 0,830 z m 1423.6,-189.398 -25.2,10.199 -31.2,-79.199 33.6,46.796 -8.4,-57 31.2,79.204 z"
         clip-rule="evenodd"
         id="path4358"
         inkscape:connector-curvature="0" /></clipPath><clipPath
       clipPathUnits="userSpaceOnUse"
       id="clipPath4370"><path
         d="M 0,830 0,0 1780,0 1780,830 0,830 z M 1421.2,628 1411,653.199 1331.8,622 l 57.6,7.801 -47.4,-33 79.2,31.199 z"
         clip-rule="evenodd"
         id="path4372"
         inkscape:connector-curvature="0" /></clipPath><clipPath
       id="clipPath4713"
       clipPathUnits="userSpaceOnUse"><path
         id="path4715"
         clip-rule="evenodd"
         d="M 0,1100 0,0 l 1520,0 0,1100 -1520,0 z m 1100.8,-380.801 -12,24 -76.2,-37.801 56.4,12.602 -44.4,-37.199 76.2,38.398 z"
         inkscape:connector-curvature="0" /></clipPath><clipPath
       id="clipPath4699"
       clipPathUnits="userSpaceOnUse"><path
         id="path4701"
         clip-rule="evenodd"
         d="M 0,1100 0,0 l 1520,0 0,1100 -1520,0 z m 562.602,-279.398 -25.204,10.199 -31.199,-79.199 33.602,46.796 -8.403,-57 31.204,79.204 z"
         inkscape:connector-curvature="0" /></clipPath><clipPath
       id="clipPath4685"
       clipPathUnits="userSpaceOnUse"><path
         id="path4687"
         clip-rule="evenodd"
         d="M 0,1100 0,0 l 1520,0 0,1100 -1520,0 z m 913.602,-837.398 4.199,26.398 -84,13.801 L 887.199,280 829,276.398 913.602,262.602 z"
         inkscape:connector-curvature="0" /></clipPath></defs><sodipodi:namedview
     pagecolor="#ffffff"
     bordercolor="#666666"
     borderopacity="1"
     objecttolerance="10"
     gridtolerance="10"
     guidetolerance="10"
     inkscape:pageopacity="0"
     inkscape:pageshadow="2"
     inkscape:window-width="1280"
     inkscape:window-height="756"
     id="namedview4262"
     showgrid="false"
     inkscape:zoom="1.2966292"
     inkscape:cx="104.15973"
     inkscape:cy="79.09375"
     inkscape:window-x="0"
     inkscape:window-y="0"
     inkscape:window-maximized="0"
     inkscape:current-layer="g4268"
     fit-margin-top="0"
     fit-margin-left="0"
     fit-margin-right="0"
     fit-margin-bottom="0" /><g
     id="g4268"
     inkscape:groupmode="layer"
     inkscape:label="ink_ext_XXXXXX"
     transform="matrix(1.25,0,0,-1.25,6.4062593,133.65735)"><path
   inkscape:connector-curvature="0"
   id="path4278"
   style="fill:none;stroke:#000000;stroke-width:0.44999999;stroke-linecap:butt;stroke-linejoin:miter;stroke-miterlimit:10;stroke-opacity:1;stroke-dasharray:none"
   d="m 104.8,18.7 72,0" /><path
   inkscape:connector-curvature="0"
   id="path4280"
   style="fill:none;stroke:#000000;stroke-width:0.44999999;stroke-linecap:butt;stroke-linejoin:miter;stroke-miterlimit:10;stroke-opacity:1;stroke-dasharray:0.9, 0.9;stroke-dashoffset:0.9"
   d="m 122.8,18.7 45,18" /><path
   inkscape:connector-curvature="0"
   id="path4282"
   style="fill:none;stroke:#000000;stroke-width:0.44999999;stroke-linecap:butt;stroke-linejoin:miter;stroke-miterlimit:10;stroke-opacity:1;stroke-dasharray:0.9, 0.9;stroke-dashoffset:0.9"
   d="m 140.8,63.7 27,-27" /><path
   inkscape:connector-curvature="0"
   id="path4284"
   style="fill:none;stroke:#000000;stroke-width:0.44999999;stroke-linecap:butt;stroke-linejoin:miter;stroke-miterlimit:10;stroke-opacity:1;stroke-dasharray:none"
   d="m 28.3,81.7 0,-81" /><path
   inkscape:connector-curvature="0"
   id="path4286"
   style="fill:none;stroke:#000000;stroke-width:0.44999999;stroke-linecap:butt;stroke-linejoin:miter;stroke-miterlimit:10;stroke-opacity:1;stroke-dasharray:none"
   d="m 10.3,18.7 72,0" /><path
   inkscape:connector-curvature="0"
   id="path4288"
   style="fill:none;stroke:#000000;stroke-width:0.44999999;stroke-linecap:butt;stroke-linejoin:miter;stroke-miterlimit:10;stroke-opacity:1;stroke-dasharray:0.9, 0.9;stroke-dashoffset:0.9"
   d="m 1.3,45.7 45,18 27,-27" /><g
   clip-path="url(#clipPath4300)"
   id="g4298"
   transform="scale(0.1,0.1)"><path
     inkscape:connector-curvature="0"
     id="path4304"
     style="fill:none;stroke:#000000;stroke-width:9;stroke-linecap:butt;stroke-linejoin:miter;stroke-miterlimit:10;stroke-opacity:1;stroke-dasharray:none"
     d="M 283,187 13,457" /></g><path
   inkscape:connector-curvature="0"
   id="path4306"
   style="fill:#000000;fill-opacity:1;fill-rule:evenodd;stroke:none"
   d="m 7.66016,41.2602 -4.92032,3 3,-4.9204 0.18008,1.7403 1.74024,0.1801" /><path
   inkscape:connector-curvature="0"
   id="path4308"
   style="fill:none;stroke:#000000;stroke-width:0.89999998;stroke-linecap:butt;stroke-linejoin:miter;stroke-miterlimit:10;stroke-opacity:1;stroke-dasharray:none"
   d="m 7.66016,41.2602 -4.92032,3 3,-4.9204 0.18008,1.7403 1.74024,0.1801 z" /><path
   inkscape:connector-curvature="0"
   id="path4318"
   style="fill:none;stroke:#000000;stroke-width:0.89999998;stroke-linecap:butt;stroke-linejoin:miter;stroke-miterlimit:10;stroke-opacity:1;stroke-dasharray:none"
   d="m 28.3,18.7 18,45" /><path
   inkscape:connector-curvature="0"
   id="path4320"
   style="fill:#000000;fill-opacity:1;fill-rule:evenodd;stroke:none"
   d="m 44.7398,56.1398 0.8403,5.7 L 42.2199,57.1602 43.9,57.7 44.7398,56.1398" /><path
   inkscape:connector-curvature="0"
   id="path4322"
   style="fill:none;stroke:#000000;stroke-width:0.89999998;stroke-linecap:butt;stroke-linejoin:miter;stroke-miterlimit:10;stroke-opacity:1;stroke-dasharray:none"
   d="m 44.7398,56.1398 0.8403,5.7 L 42.2199,57.1602 43.9,57.7 44.7398,56.1398 z" /><path
   inkscape:connector-curvature="0"
   id="path4332"
   style="fill:none;stroke:#000000;stroke-width:0.89999998;stroke-linecap:butt;stroke-linejoin:miter;stroke-miterlimit:10;stroke-opacity:1;stroke-dasharray:none"
   d="m 28.3,18.7 45,18" /><path
   inkscape:connector-curvature="0"
   id="path4334"
   style="fill:#000000;fill-opacity:1;fill-rule:evenodd;stroke:none"
   d="m 66.7,32.6801 4.7398,3.3 L 65.6801,35.2 67.2398,34.3602 66.7,32.6801" /><path
   inkscape:connector-curvature="0"
   id="path4336"
   style="fill:none;stroke:#000000;stroke-width:0.89999998;stroke-linecap:butt;stroke-linejoin:miter;stroke-miterlimit:10;stroke-opacity:1;stroke-dasharray:none"
   d="m 66.7,32.6801 4.7398,3.3 L 65.6801,35.2 67.2398,34.3602 66.7,32.6801 z" /><path
   inkscape:connector-curvature="0"
   id="path4346"
   style="fill:none;stroke:#000000;stroke-width:0.89999998;stroke-linecap:butt;stroke-linejoin:miter;stroke-miterlimit:10;stroke-opacity:1;stroke-dasharray:none"
   d="m 122.8,18.7 -27,27" /><path
   inkscape:connector-curvature="0"
   id="path4348"
   style="fill:#000000;fill-opacity:1;fill-rule:evenodd;stroke:none"
   d="m 102.16,41.2602 -4.9202,3 3.0002,-4.9204 0.18,1.7403 1.74,0.1801" /><path
   inkscape:connector-curvature="0"
   id="path4350"
   style="fill:none;stroke:#000000;stroke-width:0.89999998;stroke-linecap:butt;stroke-linejoin:miter;stroke-miterlimit:10;stroke-opacity:1;stroke-dasharray:none"
   d="m 102.16,41.2602 -4.9202,3 3.0002,-4.9204 0.18,1.7403 1.74,0.1801 z" /><path
   inkscape:connector-curvature="0"
   id="path4360"
   style="fill:none;stroke:#000000;stroke-width:0.89999998;stroke-linecap:butt;stroke-linejoin:miter;stroke-miterlimit:10;stroke-opacity:1;stroke-dasharray:none"
   d="m 122.8,18.7 18,45" /><path
   inkscape:connector-curvature="0"
   id="path4362"
   style="fill:#000000;fill-opacity:1;fill-rule:evenodd;stroke:none"
   d="m 139.24,56.1398 0.84,5.7 -3.36,-4.6796 1.68,0.5398 0.84,-1.5602" /><path
   inkscape:connector-curvature="0"
   id="path4364"
   style="fill:none;stroke:#000000;stroke-width:0.89999998;stroke-linecap:butt;stroke-linejoin:miter;stroke-miterlimit:10;stroke-opacity:1;stroke-dasharray:none"
   d="m 139.24,56.1398 0.84,5.7 -3.36,-4.6796 1.68,0.5398 0.84,-1.5602 z" /><path
   inkscape:connector-curvature="0"
   id="path4374"
   style="fill:none;stroke:#000000;stroke-width:0.89999998;stroke-linecap:butt;stroke-linejoin:miter;stroke-miterlimit:10;stroke-opacity:1;stroke-dasharray:none"
   d="m 95.8,45.7 45,18" /><path
   inkscape:connector-curvature="0"
   id="path4376"
   style="fill:#000000;fill-opacity:1;fill-rule:evenodd;stroke:none"
   d="m 134.2,59.6801 4.74,3.3 -5.76,-0.7801 1.56,-0.8398 -0.54,-1.6801" /><path
   inkscape:connector-curvature="0"
   id="path4378"
   style="fill:none;stroke:#000000;stroke-width:0.89999998;stroke-linecap:butt;stroke-linejoin:miter;stroke-miterlimit:10;stroke-opacity:1;stroke-dasharray:none"
   d="m 134.2,59.6801 4.74,3.3 -5.76,-0.7801 1.56,-0.8398 -0.54,-1.6801 z" /><path
   inkscape:connector-curvature="0"
   id="path4394"
   style="fill:none;stroke:#000000;stroke-width:0.44999999;stroke-linecap:butt;stroke-linejoin:miter;stroke-miterlimit:10;stroke-opacity:1;stroke-dasharray:none"
   d="m 122.8,81.7 0,-81" /><text
   xml:space="preserve"
   style="font-size:6.4000001px;font-style:normal;font-variant:normal;font-weight:normal;font-stretch:normal;line-height:125%;letter-spacing:0px;word-spacing:0px;fill:#000000;fill-opacity:1;stroke:none;font-family:Linux Biolinum O;-inkscape-font-specification:Linux Biolinum O"
   x="11.209719"
   y="-38.211441"
   id="text4472"
   sodipodi:linespacing="125%"
   transform="scale(1,-1)"><tspan
     sodipodi:role="line"
     id="tspan4474"
     x="11.209719"
     y="-38.211441">$\va$</tspan></text>


<text
   xml:space="preserve"
   style="font-size:6.4000001px;font-style:normal;font-variant:normal;font-weight:normal;font-stretch:normal;line-height:125%;letter-spacing:0px;word-spacing:0px;fill:#000000;fill-opacity:1;stroke:none;font-family:Linux Biolinum O;-inkscape-font-specification:Linux Biolinum O"
   x="46.922699"
   y="-30.985098"
   id="text4476"
   sodipodi:linespacing="125%"
   transform="scale(1,-1)"><tspan
     sodipodi:role="line"
     id="tspan4478"
     x="46.922699"
     y="-30.985098">$\vb$</tspan></text>


<text
   xml:space="preserve"
   style="font-size:6.4000001px;font-style:normal;font-variant:normal;font-weight:normal;font-stretch:normal;line-height:125%;letter-spacing:0px;word-spacing:0px;fill:#000000;fill-opacity:1;stroke:none;font-family:Linux Biolinum O;-inkscape-font-specification:Linux Biolinum O"
   x="132.96014"
   y="-38.75494"
   id="text4480"
   sodipodi:linespacing="125%"
   transform="scale(1,-1)"><tspan
     sodipodi:role="line"
     id="tspan4482"
     x="132.96014"
     y="-38.75494">$\va+\vb$</tspan></text>


<text
   transform="scale(1,-1)"
   sodipodi:linespacing="125%"
   id="text4484"
   y="-65.625626"
   x="40.809067"
   style="font-size:6.4000001px;font-style:normal;font-variant:normal;font-weight:normal;font-stretch:normal;line-height:125%;letter-spacing:0px;word-spacing:0px;fill:#000000;fill-opacity:1;stroke:none;font-family:Linux Biolinum O;-inkscape-font-specification:Linux Biolinum O"
   xml:space="preserve"><tspan
     y="-65.625626"
     x="40.809067"
     id="tspan4486"
     sodipodi:role="line">$\va+\vb$</tspan></text>


<text
   transform="scale(1,-1)"
   sodipodi:linespacing="125%"
   id="text4488"
   y="-32.762589"
   x="110.30433"
   style="font-size:6.4000001px;font-style:normal;font-variant:normal;font-weight:normal;font-stretch:normal;line-height:125%;letter-spacing:0px;word-spacing:0px;fill:#000000;fill-opacity:1;stroke:none;font-family:Linux Biolinum O;-inkscape-font-specification:Linux Biolinum O"
   xml:space="preserve"><tspan
     y="-32.762589"
     x="110.30433"
     id="tspan4490"
     sodipodi:role="line">$\va$</tspan></text>


<text
   transform="scale(1,-1)"
   sodipodi:linespacing="125%"
   id="text4492"
   y="-55.96809"
   x="105.75529"
   style="font-size:6.4000001px;font-style:normal;font-variant:normal;font-weight:normal;font-stretch:normal;line-height:125%;letter-spacing:0px;word-spacing:0px;fill:#000000;fill-opacity:1;stroke:none;font-family:Linux Biolinum O;-inkscape-font-specification:Linux Biolinum O"
   xml:space="preserve"><tspan
     y="-55.96809"
     x="105.75529"
     id="tspan4494"
     sodipodi:role="line">$\vb$</tspan></text>


<g
   id="g6065"
   transform="matrix(0.8,0,0,-0.8,186.66615,95.57036)"><g
     transform="matrix(1.25,0,0,-1.25,0,137.5)"
     inkscape:label="ink_ext_XXXXXX"
     id="g4637"><path
       d="m 36.7,108.7 0,-81"
       style="fill:none;stroke:#000000;stroke-width:0.44999999;stroke-linecap:butt;stroke-linejoin:miter;stroke-miterlimit:10;stroke-opacity:1;stroke-dasharray:none"
       id="path4641"
       inkscape:connector-curvature="0" /><path
       d="m 36.7,36.7 108,27"
       style="fill:none;stroke:#000000;stroke-width:0.44999999;stroke-linecap:butt;stroke-linejoin:miter;stroke-miterlimit:10;stroke-opacity:1;stroke-dasharray:none"
       id="path4643"
       inkscape:connector-curvature="0" /><path
       d="m 36.7,36.7 36,-18 18,4.5 0,4.5"
       style="fill:none;stroke:#8f0000;stroke-width:0.44999999;stroke-linecap:butt;stroke-linejoin:miter;stroke-miterlimit:10;stroke-opacity:1;stroke-dasharray:none"
       id="path4645"
       inkscape:connector-curvature="0" /><path
       d="m 36.7,36.7 -18,9 36,9 0,27"
       style="fill:none;stroke:#008f00;stroke-width:0.44999999;stroke-linecap:butt;stroke-linejoin:miter;stroke-miterlimit:10;stroke-opacity:1;stroke-dasharray:none"
       id="path4647"
       inkscape:connector-curvature="0" /><path
       d="m 0.7,54.7 18,-9"
       style="fill:none;stroke:#000000;stroke-width:0.44999999;stroke-linecap:butt;stroke-linejoin:miter;stroke-miterlimit:10;stroke-opacity:1;stroke-dasharray:none"
       id="path4649"
       inkscape:connector-curvature="0" /><path
       d="m 72.7,18.7 36,-18"
       style="fill:none;stroke:#000000;stroke-width:0.44999999;stroke-linecap:butt;stroke-linejoin:miter;stroke-miterlimit:10;stroke-opacity:1;stroke-dasharray:none"
       id="path4651"
       inkscape:connector-curvature="0" /><path
       d="m 107.56,56.0801 0,-3.3602 2.82,1.0801 -0.36,3"
       style="fill:#ffffff;fill-opacity:1;fill-rule:evenodd;stroke:none"
       id="path4669"
       inkscape:connector-curvature="0" /><path
       d="m 54.7,27.7 54,13.5 0,31.5"
       style="fill:none;stroke:#00008f;stroke-width:0.44999999;stroke-linecap:butt;stroke-linejoin:miter;stroke-miterlimit:10;stroke-opacity:1;stroke-dasharray:none"
       id="path4671"
       inkscape:connector-curvature="0" /><path
       d="m 92.6199,38.7398 4.9801,1.0204 -1.2,-3 -4.4398,-0.9"
       style="fill:#ffffff;fill-opacity:1;fill-rule:evenodd;stroke:none"
       id="path4673"
       inkscape:connector-curvature="0" /><path
       d="M 41.3199,53.2602 39.9398,49.9 l 4.6204,0.5398 1.2,3.3602"
       style="fill:#ffffff;fill-opacity:1;fill-rule:evenodd;stroke:none"
       id="path4675"
       inkscape:connector-curvature="0" /><path
       d="m 62.9801,30.8801 5.7,-1.0199 7.0801,2.1 -7.2602,1.2597"
       style="fill:#ffffff;fill-opacity:1;fill-rule:evenodd;stroke:none"
       id="path4677"
       inkscape:connector-curvature="0" /><path
       d="M 98.6801,50.9801 103.12,52 l 0.9,3.6 -4.8001,-1.4398"
       style="fill:#ffffff;fill-opacity:1;fill-rule:evenodd;stroke:none"
       id="path4679"
       inkscape:connector-curvature="0" /><g
       transform="scale(0.1,0.1)"
       id="g4681"><g
         id="g4683"
         clip-path="url(#clipPath4685)"><path
           d="M 367,367 907,277"
           style="fill:none;stroke:#000000;stroke-width:9;stroke-linecap:butt;stroke-linejoin:miter;stroke-miterlimit:10;stroke-opacity:1;stroke-dasharray:none"
           id="path4689"
           inkscape:connector-curvature="0" /></g></g><path
       d="M 82.9,27.6398 88.7199,28 l -5.3398,2.2801 0.9,-1.5 L 82.9,27.6398"
       style="fill:#000000;fill-opacity:1;fill-rule:evenodd;stroke:none"
       id="path4691"
       inkscape:connector-curvature="0" /><path
       d="M 82.9,27.6398 88.7199,28 l -5.3398,2.2801 0.9,-1.5 L 82.9,27.6398 z"
       style="fill:none;stroke:#000000;stroke-width:0.89999998;stroke-linecap:butt;stroke-linejoin:miter;stroke-miterlimit:10;stroke-opacity:1;stroke-dasharray:none"
       id="path4693"
       inkscape:connector-curvature="0" /><g
       transform="scale(0.1,0.1)"
       id="g4695"><g
         id="g4697"
         clip-path="url(#clipPath4699)"><path
           d="M 367,367 547,817"
           style="fill:none;stroke:#000000;stroke-width:9;stroke-linecap:butt;stroke-linejoin:miter;stroke-miterlimit:10;stroke-opacity:1;stroke-dasharray:none"
           id="path4703"
           inkscape:connector-curvature="0" /></g></g><path
       d="m 53.1398,74.1398 0.8403,5.7 L 50.6199,75.1602 52.3,75.7 53.1398,74.1398"
       style="fill:#000000;fill-opacity:1;fill-rule:evenodd;stroke:none"
       id="path4705"
       inkscape:connector-curvature="0" /><path
       d="m 53.1398,74.1398 0.8403,5.7 L 50.6199,75.1602 52.3,75.7 53.1398,74.1398 z"
       style="fill:none;stroke:#000000;stroke-width:0.89999998;stroke-linecap:butt;stroke-linejoin:miter;stroke-miterlimit:10;stroke-opacity:1;stroke-dasharray:none"
       id="path4707"
       inkscape:connector-curvature="0" /><g
       transform="scale(0.1,0.1)"
       id="g4709"><g
         id="g4711"
         clip-path="url(#clipPath4713)"><path
           d="m 367,367 720,360"
           style="fill:none;stroke:#000000;stroke-width:9;stroke-linecap:butt;stroke-linejoin:miter;stroke-miterlimit:10;stroke-opacity:1;stroke-dasharray:none"
           id="path4717"
           inkscape:connector-curvature="0" /></g></g><path
       d="m 102.46,68.0801 4.44,3.7199 -5.64,-1.2602 1.56,-0.7199 -0.36,-1.7398"
       style="fill:#000000;fill-opacity:1;fill-rule:evenodd;stroke:none"
       id="path4719"
       inkscape:connector-curvature="0" /><path
       d="m 102.46,68.0801 4.44,3.7199 -5.64,-1.2602 1.56,-0.7199 -0.36,-1.7398 z"
       style="fill:none;stroke:#000000;stroke-width:0.89999998;stroke-linecap:butt;stroke-linejoin:miter;stroke-miterlimit:10;stroke-opacity:1;stroke-dasharray:none"
       id="path4721"
       inkscape:connector-curvature="0" /><path
       d="m 54.7,81.7 54,-9 -18,-45"
       style="fill:none;stroke:#000000;stroke-width:0.89999998;stroke-linecap:butt;stroke-linejoin:miter;stroke-miterlimit:10;stroke-opacity:1;stroke-dasharray:2.7;stroke-dashoffset:0"
       id="path4723"
       inkscape:connector-curvature="0" /></g><g
     inkscape:label="text"
     id="layer2"><text
   sodipodi:linespacing="125%"
   id="text4780"
   y="10.768071"
   x="48.042164"
   style="font-size:8px;font-style:normal;font-variant:normal;font-weight:normal;font-stretch:normal;line-height:125%;letter-spacing:0px;word-spacing:0px;fill:#000000;fill-opacity:1;stroke:none;font-family:Linux Biolinum O;-inkscape-font-specification:Linux Biolinum O"
   xml:space="preserve"><tspan
     y="10.768071"
     x="48.042164"
     id="tspan4782"
     sodipodi:role="line">$z$</tspan></text>


<text
   sodipodi:linespacing="125%"
   id="text4784"
   y="31.475904"
   x="65.436752"
   style="font-size:8px;font-style:normal;font-variant:normal;font-weight:normal;font-stretch:normal;line-height:125%;letter-spacing:0px;word-spacing:0px;fill:#000000;fill-opacity:1;stroke:none;font-family:Linux Biolinum O;-inkscape-font-specification:Linux Biolinum O"
   xml:space="preserve"><tspan
     y="31.475904"
     x="65.436752"
     id="tspan4786"
     sodipodi:role="line">$\va$</tspan></text>


<text
   sodipodi:linespacing="125%"
   id="text4788"
   y="106.02409"
   x="119.69126"
   style="font-size:8px;font-style:normal;font-variant:normal;font-weight:normal;font-stretch:normal;line-height:125%;letter-spacing:0px;word-spacing:0px;fill:#000000;fill-opacity:1;stroke:none;font-family:Linux Biolinum O;-inkscape-font-specification:Linux Biolinum O"
   xml:space="preserve"><tspan
     y="106.02409"
     x="119.69126"
     id="tspan4790"
     sodipodi:role="line">$\vb$</tspan></text>


<text
   sodipodi:linespacing="125%"
   id="text4792"
   y="41.829819"
   x="127.14609"
   style="font-size:8px;font-style:normal;font-variant:normal;font-weight:normal;font-stretch:normal;line-height:125%;letter-spacing:0px;word-spacing:0px;fill:#000000;fill-opacity:1;stroke:none;font-family:Linux Biolinum O;-inkscape-font-specification:Linux Biolinum O"
   xml:space="preserve"><tspan
     y="41.829819"
     x="127.14609"
     id="tspan4794"
     sodipodi:role="line">$\va+\vb$</tspan></text>


<text
   sodipodi:linespacing="125%"
   id="text4796"
   y="132.53012"
   x="134.60091"
   style="font-size:8px;font-style:normal;font-variant:normal;font-weight:normal;font-stretch:normal;line-height:125%;letter-spacing:0px;word-spacing:0px;fill:#000000;fill-opacity:1;stroke:none;font-family:Linux Biolinum O;-inkscape-font-specification:Linux Biolinum O"
   xml:space="preserve"><tspan
     y="132.53012"
     x="134.60091"
     id="tspan4798"
     sodipodi:role="line">$x$</tspan></text>


<text
   sodipodi:linespacing="125%"
   id="text4800"
   y="53.012047"
   x="172.42018"
   style="font-size:8px;font-style:normal;font-variant:normal;font-weight:normal;font-stretch:normal;line-height:125%;letter-spacing:0px;word-spacing:0px;fill:#000000;fill-opacity:1;stroke:none;font-family:Linux Biolinum O;-inkscape-font-specification:Linux Biolinum O"
   xml:space="preserve"><tspan
     y="53.012047"
     x="172.42018"
     id="tspan4802"
     sodipodi:role="line">$y$</tspan></text>


</g></g></g></svg>