<?xml version="1.0" encoding="UTF-8" standalone="no"?>
<!-- Created with Inkscape (http://www.inkscape.org/) -->

<svg
   xmlns:dc="http://purl.org/dc/elements/1.1/"
   xmlns:cc="http://creativecommons.org/ns#"
   xmlns:rdf="http://www.w3.org/1999/02/22-rdf-syntax-ns#"
   xmlns:svg="http://www.w3.org/2000/svg"
   xmlns="http://www.w3.org/2000/svg"
   xmlns:sodipodi="http://sodipodi.sourceforge.net/DTD/sodipodi-0.dtd"
   xmlns:inkscape="http://www.inkscape.org/namespaces/inkscape"
   id="svg4672"
   version="1.1"
   inkscape:version="0.48.1 r9760"
   width="95"
   height="70"
   xml:space="preserve"
   sodipodi:docname="05XonAB.pdf"><metadata
     id="metadata4678"><rdf:RDF><cc:Work
         rdf:about=""><dc:format>image/svg+xml</dc:format><dc:type
           rdf:resource="http://purl.org/dc/dcmitype/StillImage" /><dc:title></dc:title></cc:Work></rdf:RDF></metadata><defs
     id="defs4676"><clipPath
       clipPathUnits="userSpaceOnUse"
       id="clipPath4700"><path
         d="M 119,142 659,502"
         clip-rule="evenodd"
         id="path4702" /></clipPath><clipPath
       clipPathUnits="userSpaceOnUse"
       id="clipPath4738"><path
         d="m 63.8008,223.602 135.0002,90"
         clip-rule="evenodd"
         id="path4740" /></clipPath><clipPath
       clipPathUnits="userSpaceOnUse"
       id="clipPath4768"><path
         d="m 174.199,58.6016 540,360.0004"
         clip-rule="evenodd"
         id="path4770" /></clipPath></defs><sodipodi:namedview
     pagecolor="#ffffff"
     bordercolor="#666666"
     borderopacity="1"
     objecttolerance="10"
     gridtolerance="10"
     guidetolerance="10"
     inkscape:pageopacity="0"
     inkscape:pageshadow="2"
     inkscape:window-width="1280"
     inkscape:window-height="800"
     id="namedview4674"
     showgrid="false"
     inkscape:zoom="6.2073142"
     inkscape:cx="66.794458"
     inkscape:cy="32.375"
     inkscape:window-x="0"
     inkscape:window-y="0"
     inkscape:window-maximized="0"
     inkscape:current-layer="g4680" /><g
     id="g4680"
     inkscape:groupmode="layer"
     inkscape:label="ink_ext_XXXXXX"
     transform="matrix(1.25,0,0,-1.25,0,70)"><path
       inkscape:connector-curvature="0"
       id="path4732"
       style="fill:none;stroke:#000000;stroke-width:0.44999999;stroke-linecap:butt;stroke-linejoin:round;stroke-miterlimit:10;stroke-opacity:1;stroke-dasharray:none"
       d="m 11.9,14.2 54,36" /><g
       id="g4734"
       transform="scale(0.1,0.1)" /><path
       inkscape:connector-curvature="0"
       id="path4810"
       style="fill:#000000;fill-opacity:1;fill-rule:evenodd;stroke:none"
       d="m 20.9,0.7 -18,27" /><path
       inkscape:connector-curvature="0"
       id="path4812"
       style="fill:none;stroke:#000000;stroke-width:0.44999999;stroke-linecap:butt;stroke-linejoin:round;stroke-miterlimit:10;stroke-opacity:1;stroke-dasharray:0.9, 0.9;stroke-dashoffset:0.9"
       d="m 20.9,0.7 -18,27" /><path
       inkscape:connector-curvature="0"
       id="path4814"
       style="fill:#000000;fill-opacity:1;fill-rule:evenodd;stroke:none"
       d="m 25.4,23.2 -9,13.5" /><path
       inkscape:connector-curvature="0"
       id="path4816"
       style="fill:none;stroke:#000000;stroke-width:0.44999999;stroke-linecap:butt;stroke-linejoin:round;stroke-miterlimit:10;stroke-opacity:1;stroke-dasharray:0.9, 0.9;stroke-dashoffset:0.9"
       d="m 25.4,23.2 -9,13.5" /><path
       inkscape:connector-curvature="0"
       id="path4818"
       style="fill:#000000;fill-opacity:1;fill-rule:evenodd;stroke:none"
       d="m 74.9,36.7 -9,13.5" /><path
       inkscape:connector-curvature="0"
       id="path4820"
       style="fill:none;stroke:#000000;stroke-width:0.44999999;stroke-linecap:butt;stroke-linejoin:round;stroke-miterlimit:10;stroke-opacity:1;stroke-dasharray:0.9, 0.9;stroke-dashoffset:0.9"
       d="m 74.9,36.7 -9,13.5" /><path
       inkscape:connector-curvature="0"
       id="path4828"
       style="fill:#ffffff;fill-opacity:1;fill-rule:evenodd;stroke:none"
       d="m 66.8,50.2 c 0,-0.4969 -0.4031,-0.9 -0.9,-0.9 -0.4969,0 -0.9,0.4031 -0.9,0.9 0,0.4969 0.4031,0.9 0.9,0.9 0.4969,0 0.9,-0.4031 0.9,-0.9" /><path
       inkscape:connector-curvature="0"
       id="path4830"
       style="fill:none;stroke:#000000;stroke-width:0.44999999;stroke-linecap:butt;stroke-linejoin:round;stroke-miterlimit:10;stroke-opacity:1;stroke-dasharray:none"
       d="m 66.8,50.2 c 0,-0.4969 -0.4031,-0.9 -0.9,-0.9 -0.4969,0 -0.9,0.4031 -0.9,0.9 0,0.4969 0.4031,0.9 0.9,0.9 0.4969,0 0.9,-0.4031 0.9,-0.9 z" /><path
       inkscape:connector-curvature="0"
       id="path4832"
       style="fill:#ffffff;fill-opacity:1;fill-rule:evenodd;stroke:none"
       d="m 26.3,23.2 c 0,-0.4969 -0.4031,-0.9 -0.9,-0.9 -0.4969,0 -0.9,0.4031 -0.9,0.9 0,0.4969 0.4031,0.9 0.9,0.9 0.4969,0 0.9,-0.4031 0.9,-0.9" /><path
       inkscape:connector-curvature="0"
       id="path4834"
       style="fill:none;stroke:#000000;stroke-width:0.44999999;stroke-linecap:butt;stroke-linejoin:round;stroke-miterlimit:10;stroke-opacity:1;stroke-dasharray:none"
       d="m 26.3,23.2 c 0,-0.4969 -0.4031,-0.9 -0.9,-0.9 -0.4969,0 -0.9,0.4031 -0.9,0.9 0,0.4969 0.4031,0.9 0.9,0.9 0.4969,0 0.9,-0.4031 0.9,-0.9 z" /><g
       id="g5053"
       transform="translate(-3.2353256,5.2163971)"
       style="fill:#000000"><path
         d="m 17.4199,5.86016 54,36.00004"
         style="fill:#000000;stroke:#000000;stroke-width:0.44999999;stroke-linecap:butt;stroke-linejoin:round;stroke-miterlimit:10;stroke-opacity:1;stroke-dasharray:none"
         id="path4804"
         inkscape:connector-curvature="0" /><path
         d="m 71.2398,41.8602 -3,-4.6204 -0.3597,2.5204 -1.9199,0.6597 5.2796,1.4403 z"
         style="fill:#000000;stroke:#000000;stroke-width:0.44999999;stroke-linecap:butt;stroke-linejoin:round;stroke-miterlimit:10;stroke-opacity:1;stroke-dasharray:none"
         id="path4808"
         inkscape:connector-curvature="0" /></g><path
       inkscape:connector-curvature="0"
       id="path4758"
       style="fill:#ff0000;stroke:#ff0000;stroke-width:0.80000000999999998;stroke-linecap:round;stroke-linejoin:round;stroke-miterlimit:10;stroke-opacity:1;stroke-dasharray:none"
       d="M 9.3291418,18.276632 21.994265,26.799548"
       sodipodi:nodetypes="cc" /><path
       inkscape:connector-curvature="0"
       id="path4762"
       style="fill:#ff0000;stroke:#ff0000;stroke-width:0.80000000999999998;stroke-linecap:round;stroke-linejoin:round;stroke-miterlimit:10;stroke-opacity:1;stroke-dasharray:none"
       d="m 22.171413,26.918883 -3.059635,-3.725367 0.236655,1.804274 -1.681358,0.421658 z"
       sodipodi:nodetypes="ccccc" /><path
       inkscape:connector-curvature="0"
       id="path4836"
       style="fill:#ffffff;fill-opacity:1;fill-rule:evenodd;stroke:none"
       d="m 12.8,14.2 c 0,-0.4969 -0.4031,-0.9 -0.9,-0.9 -0.4969,0 -0.9,0.4031 -0.9,0.9 0,0.4969 0.4031,0.9 0.9,0.9 0.4969,0 0.9,-0.4031 0.9,-0.9" /><path
       inkscape:connector-curvature="0"
       id="path4838"
       style="fill:none;stroke:#000000;stroke-width:0.44999999;stroke-linecap:butt;stroke-linejoin:round;stroke-miterlimit:10;stroke-opacity:1;stroke-dasharray:none"
       d="m 12.8,14.2 c 0,-0.4969 -0.4031,-0.9 -0.9,-0.9 -0.4969,0 -0.9,0.4031 -0.9,0.9 0,0.4969 0.4031,0.9 0.9,0.9 0.4969,0 0.9,-0.4031 0.9,-0.9 z" /><text
       xml:space="preserve"
       style="font-size:6.4000001px;font-style:normal;font-variant:normal;font-weight:normal;font-stretch:normal;line-height:125%;letter-spacing:0px;word-spacing:0px;fill:#000000;fill-opacity:1;stroke:none;font-family:Linux Biolinum O;-inkscape-font-specification:Linux Biolinum O"
       x="22.758362"
       y="-26.678204"
       id="text5592"
       sodipodi:linespacing="125%"
       transform="scale(1,-1)"><tspan
         sodipodi:role="line"
         id="tspan5594"
         x="22.758362"
         y="-26.678204">$X$</tspan></text>
</g><g
     inkscape:groupmode="layer"
     id="layer4"
     inkscape:label="text"><text
       xml:space="preserve"
       style="font-size:8px;font-style:normal;font-variant:normal;font-weight:normal;font-stretch:normal;line-height:125%;letter-spacing:0px;word-spacing:0px;fill:#000000;fill-opacity:1;stroke:none;font-family:Linux Biolinum O;-inkscape-font-specification:Linux Biolinum O"
       x="3.5843372"
       y="60.722893"
       id="text5012"
       sodipodi:linespacing="125%"><tspan
         sodipodi:role="line"
         id="tspan5014"
         x="3.5843372"
         y="60.722893">$A$</tspan></text>
<text
       xml:space="preserve"
       style="font-size:8px;font-style:normal;font-variant:normal;font-weight:normal;font-stretch:normal;line-height:125%;letter-spacing:0px;word-spacing:0px;fill:#000000;fill-opacity:1;stroke:none;font-family:Linux Biolinum O;-inkscape-font-specification:Linux Biolinum O"
       x="84.126503"
       y="5.2710843"
       id="text5016"
       sodipodi:linespacing="125%"><tspan
         sodipodi:role="line"
         id="tspan5018"
         x="84.126503"
         y="5.2710843">$B$</tspan></text>
<text
       xml:space="preserve"
       style="font-size:8px;font-style:normal;font-variant:normal;font-weight:normal;font-stretch:normal;line-height:125%;letter-spacing:0px;word-spacing:0px;fill:#000000;fill-opacity:1;stroke:none;font-family:Linux Biolinum O;-inkscape-font-specification:Linux Biolinum O"
       x="45.286098"
       y="46.565292"
       id="text5020"
       sodipodi:linespacing="125%"><tspan
         sodipodi:role="line"
         id="tspan5022"
         x="45.286098"
         y="46.565292">$\tpv AB$</tspan></text>
<text
       xml:space="preserve"
       style="font-size:8px;font-style:normal;font-variant:normal;font-weight:normal;font-stretch:normal;line-height:125%;letter-spacing:0px;word-spacing:0px;fill:#000000;fill-opacity:1;stroke:none;font-family:Linux Biolinum O;-inkscape-font-specification:Linux Biolinum O"
       x="3.2406542"
       y="35.921951"
       id="text5024"
       sodipodi:linespacing="125%"><tspan
         sodipodi:role="line"
         id="tspan5026"
         x="3.2406542"
         y="35.921951">$\tpv AX$</tspan></text>
</g></svg>