<?xml version="1.0" encoding="UTF-8" standalone="no"?>
<!-- Created with Inkscape (http://www.inkscape.org/) -->

<svg
   xmlns:dc="http://purl.org/dc/elements/1.1/"
   xmlns:cc="http://creativecommons.org/ns#"
   xmlns:rdf="http://www.w3.org/1999/02/22-rdf-syntax-ns#"
   xmlns:svg="http://www.w3.org/2000/svg"
   xmlns="http://www.w3.org/2000/svg"
   xmlns:sodipodi="http://sodipodi.sourceforge.net/DTD/sodipodi-0.dtd"
   xmlns:inkscape="http://www.inkscape.org/namespaces/inkscape"
   id="svg3192"
   version="1.1"
   inkscape:version="0.48.1 r9760"
   width="121.43495"
   height="63.518795"
   xml:space="preserve"
   sodipodi:docname="06arclength.eps"><metadata
     id="metadata3198"><rdf:RDF><cc:Work
         rdf:about=""><dc:format>image/svg+xml</dc:format><dc:type
           rdf:resource="http://purl.org/dc/dcmitype/StillImage" /><dc:title></dc:title></cc:Work></rdf:RDF></metadata><defs
     id="defs3196" /><sodipodi:namedview
     pagecolor="#ffffff"
     bordercolor="#666666"
     borderopacity="1"
     objecttolerance="10"
     gridtolerance="10"
     guidetolerance="10"
     inkscape:pageopacity="0"
     inkscape:pageshadow="2"
     inkscape:window-width="812"
     inkscape:window-height="551"
     id="namedview3194"
     showgrid="false"
     fit-margin-top="0"
     fit-margin-left="0"
     fit-margin-right="0"
     fit-margin-bottom="0"
     inkscape:zoom="4.4156863"
     inkscape:cx="48.669751"
     inkscape:cy="31.956293"
     inkscape:window-x="11"
     inkscape:window-y="0"
     inkscape:window-maximized="0"
     inkscape:current-layer="g3200" /><g
     id="g3200"
     inkscape:groupmode="layer"
     inkscape:label="ink_ext_XXXXXX"
     transform="matrix(1.25,0,0,-1.25,-15.080249,64.6875)"><path
       inkscape:connector-curvature="0"
       id="path3214"
       style="fill:none;stroke:#000000;stroke-width:0.44999999;stroke-linecap:round;stroke-linejoin:miter;stroke-miterlimit:10;stroke-opacity:1;stroke-dasharray:1.38;stroke-dashoffset:0"
       d="m 21.2602,18.4801 8.4,5.9398" /><path
       inkscape:connector-curvature="0"
       id="path3216"
       style="fill:none;stroke:#000000;stroke-width:0.44999999;stroke-linecap:round;stroke-linejoin:miter;stroke-miterlimit:10;stroke-opacity:1;stroke-dasharray:1.38;stroke-dashoffset:0"
       d="m 79.7602,35.0398 -8.4,9.1204" /><path
       inkscape:connector-curvature="0"
       id="path3218"
       style="fill:#000000;fill-opacity:1;fill-rule:evenodd;stroke:none"
       d="m 30.9199,20.5801 -3.5398,2.1597 0.7199,-3.9 0.7199,1.7403" /><path
       inkscape:connector-curvature="0"
       id="path3220"
       style="fill:none;stroke:#000000;stroke-width:0.44999999;stroke-linecap:round;stroke-linejoin:round;stroke-miterlimit:10;stroke-opacity:1;stroke-dasharray:none"
       d="m 30.9199,20.5801 -3.5398,2.1597 0.7199,-3.9 0.7199,1.7403 2.1,0 z" /><path
       inkscape:connector-curvature="0"
       id="path3222"
       style="fill:#000000;fill-opacity:1;fill-rule:evenodd;stroke:none"
       d="m 72.2,38.5801 0.7199,3.6597 -3.5398,-1.2 2.2199,-0.3" /><path
       inkscape:connector-curvature="0"
       id="path3224"
       style="fill:none;stroke:#000000;stroke-width:0.44999999;stroke-linecap:round;stroke-linejoin:round;stroke-miterlimit:10;stroke-opacity:1;stroke-dasharray:none"
       d="m 72.2,38.5801 0.7199,3.6597 -3.5398,-1.2 2.2199,-0.3 0.6,-2.1597 z" /><path
       inkscape:connector-curvature="0"
       id="path3226"
       style="fill:none;stroke:#000000;stroke-width:0.44999999;stroke-linecap:round;stroke-linejoin:bevel;stroke-miterlimit:10;stroke-opacity:1;stroke-dasharray:2.28;stroke-dashoffset:0"
       d="m 27.5,22.7398 0,-0.0597 0.1801,-0.1801 0.3597,-0.5398 0.5403,-0.8403 0.8398,-1.2 1.0199,-1.4398 1.0801,-1.5 1.1403,-1.5 1.1398,-1.4403 1.0199,-1.2597 1.0199,-1.1403 0.9,-0.9 0.9,-0.8398 0.9,-0.66016 0.9,-0.53984 0.9,-0.48008 0.9,-0.35976 1.0204,-0.3 1.0199,-0.24024 1.0801,-0.18008 1.1398,-0.05976 1.2,-0.06016 1.2,0.06016 1.2602,0.05976 1.2,0.18008 1.2,0.24024 1.2,0.3 1.1398,0.3 1.1398,0.35976 1.0204,0.41992 0.9597,0.42032 0.9602,0.47968 1.0801,0.54026 0.9597,0.6597 1.0199,0.6602 0.9602,0.7199 0.9,0.8403 0.9,0.7796 0.7801,0.9 0.7199,0.8403 0.6602,0.9 0.5398,0.9 0.4199,0.8398 0.3,0.7801 0.2403,0.7801 0.1199,0.7199 0,0.9 -0.1199,0.8398 -0.1801,0.9 -0.2403,0.9 -0.3597,0.9 -0.3602,0.9 -0.3597,0.9602 -0.3,0.9 -0.3,0.8398 -0.1801,0.8403 -0.1199,0.8398 0.0597,0.7801 0.0602,0.7199 0.2398,0.7199 0.3602,0.7801 0.5398,0.8403 0.6602,0.9597 0.7801,1.0199 0.9597,1.2 1.0199,1.2 1.0801,1.1403 0.9,1.0801 0.7801,0.7796 0.4199,0.4801 0.1801,0.1801 0.0602,0.0602" /><path
       style="fill:none;stroke:#000000;stroke-width:0.89999998;stroke-linecap:round;stroke-linejoin:bevel;stroke-miterlimit:10;stroke-opacity:1;stroke-dasharray:none"
       d="M 23.3,19.8 C 26.746192,11.815972 32.270601,3.2409005 41.595349,1.791606 49.179218,0.39093179 58.035087,2.7408715 63.430313,6.8121796 68.825539,10.883488 73.737028,15.294391 73.941439,20.34966 c 0.204411,5.055269 -0.747741,10.672332 3.196286,17.455068 3.944027,6.782737 11.453379,11.056509 21.878197,13.302807 L 99.8,51.3"
       id="path3228"
       inkscape:connector-curvature="0"
       sodipodi:nodetypes="cczzzcc" /><path
       inkscape:connector-curvature="0"
       id="path3230"
       style="fill:#ffffff;fill-opacity:1;fill-rule:evenodd;stroke:none"
       d="m 78.3801,37.8 c 0,-0.5961 -0.484,-1.0801 -1.0801,-1.0801 -0.5961,0 -1.0801,0.484 -1.0801,1.0801 0,0.5961 0.484,1.0801 1.0801,1.0801 0.5961,0 1.0801,-0.484 1.0801,-1.0801" /><path
       inkscape:connector-curvature="0"
       id="path3232"
       style="fill:none;stroke:#000000;stroke-width:0.44999999;stroke-linecap:round;stroke-linejoin:bevel;stroke-miterlimit:10;stroke-opacity:1;stroke-dasharray:none"
       d="m 78.3801,37.8 c 0,-0.5961 -0.484,-1.0801 -1.0801,-1.0801 -0.5961,0 -1.0801,0.484 -1.0801,1.0801 0,0.5961 0.484,1.0801 1.0801,1.0801 0.5961,0 1.0801,-0.484 1.0801,-1.0801 z" /><path
       inkscape:connector-curvature="0"
       id="path3234"
       style="fill:#ffffff;fill-opacity:1;fill-rule:evenodd;stroke:none"
       d="m 24.3801,19.8 c 0,-0.5961 -0.484,-1.0801 -1.0801,-1.0801 -0.5961,0 -1.0801,0.484 -1.0801,1.0801 0,0.5961 0.484,1.0801 1.0801,1.0801 0.5961,0 1.0801,-0.484 1.0801,-1.0801" /><path
       inkscape:connector-curvature="0"
       id="path3236"
       style="fill:none;stroke:#000000;stroke-width:0.44999999;stroke-linecap:round;stroke-linejoin:bevel;stroke-miterlimit:10;stroke-opacity:1;stroke-dasharray:none"
       d="m 24.3801,19.8 c 0,-0.5961 -0.484,-1.0801 -1.0801,-1.0801 -0.5961,0 -1.0801,0.484 -1.0801,1.0801 0,0.5961 0.484,1.0801 1.0801,1.0801 0.5961,0 1.0801,-0.484 1.0801,-1.0801 z" /><text
       xml:space="preserve"
       style="font-size:10px;font-style:normal;font-variant:normal;font-weight:normal;font-stretch:normal;text-align:start;line-height:125%;letter-spacing:0px;word-spacing:0px;writing-mode:lr-tb;text-anchor:start;fill:#000000;fill-opacity:1;stroke:none;font-family:Linux Biolinum O;-inkscape-font-specification:Linux Biolinum O"
       x="14.720249"
       y="34.091919"
       id="text3317"
       sodipodi:linespacing="125%"
       transform="matrix(0.8,0,0,-0.8,0,53)"><tspan
         sodipodi:role="line"
         id="tspan3319"
         x="14.720249"
         y="34.091919">$X(t_0)$</tspan></text>
<text
       transform="scale(1,-1)"
       sodipodi:linespacing="125%"
       id="text3321"
       y="-33.726471"
       x="82.176163"
       style="font-size:8px;font-style:normal;font-variant:normal;font-weight:normal;font-stretch:normal;text-align:start;line-height:125%;letter-spacing:0px;word-spacing:0px;writing-mode:lr-tb;text-anchor:start;fill:#000000;fill-opacity:1;stroke:none;font-family:Linux Biolinum O;-inkscape-font-specification:Linux Biolinum O"
       xml:space="preserve"><tspan
         y="-33.726471"
         x="82.176163"
         id="tspan3323"
         sodipodi:role="line">$X(t_0)$</tspan></text>
<text
       xml:space="preserve"
       style="font-size:8px;font-style:normal;font-variant:normal;font-weight:normal;font-stretch:normal;text-align:start;line-height:125%;letter-spacing:0px;word-spacing:0px;writing-mode:lr-tb;text-anchor:start;fill:#000000;fill-opacity:1;stroke:none;font-family:Linux Biolinum O;-inkscape-font-specification:Linux Biolinum O"
       x="44.629486"
       y="-13.195026"
       id="text3325"
       sodipodi:linespacing="125%"
       transform="scale(1,-1)"><tspan
         sodipodi:role="line"
         id="tspan3327"
         x="44.629486"
         y="-13.195026">$s(t)$</tspan></text>
</g></svg>