<?xml version="1.0" encoding="UTF-8" standalone="no"?>
<!-- Created with Inkscape (http://www.inkscape.org/) -->

<svg
   xmlns:dc="http://purl.org/dc/elements/1.1/"
   xmlns:cc="http://creativecommons.org/ns#"
   xmlns:rdf="http://www.w3.org/1999/02/22-rdf-syntax-ns#"
   xmlns:svg="http://www.w3.org/2000/svg"
   xmlns="http://www.w3.org/2000/svg"
   xmlns:sodipodi="http://sodipodi.sourceforge.net/DTD/sodipodi-0.dtd"
   xmlns:inkscape="http://www.inkscape.org/namespaces/inkscape"
   id="svg5591"
   version="1.1"
   inkscape:version="0.48.2 r9819"
   width="182.42168"
   height="126"
   xml:space="preserve"
   sodipodi:docname="06circle3.pdf"><metadata
     id="metadata5597"><rdf:RDF><cc:Work
         rdf:about=""><dc:format>image/svg+xml</dc:format><dc:type
           rdf:resource="http://purl.org/dc/dcmitype/StillImage" /><dc:title></dc:title></cc:Work></rdf:RDF></metadata><defs
     id="defs5595"><marker
       inkscape:stockid="Arrow2Lend"
       orient="auto"
       refY="0.0"
       refX="0.0"
       id="Arrow2Lend"
       style="overflow:visible;"><path
         id="path3826"
         style="font-size:12.0;fill-rule:evenodd;stroke-width:0.62500000;stroke-linejoin:round;"
         d="M 8.7185878,4.0337352 L -2.2072895,0.016013256 L 8.7185884,-4.0017078 C 6.9730900,-1.6296469 6.9831476,1.6157441 8.7185878,4.0337352 z "
         transform="scale(1.1) rotate(180) translate(1,0)" /></marker><marker
       inkscape:stockid="Arrow1Lend"
       orient="auto"
       refY="0"
       refX="0"
       id="Arrow1Lend"
       style="overflow:visible"><path
         id="path6379"
         d="M 0,0 5,-5 -12.5,0 5,5 0,0 z"
         style="fill-rule:evenodd;stroke:#000000;stroke-width:1pt;marker-start:none"
         transform="matrix(-0.8,0,0,-0.8,-10,0)"
         inkscape:connector-curvature="0" /></marker><marker
       inkscape:stockid="Arrow2Lstart"
       orient="auto"
       refY="0"
       refX="0"
       id="Arrow2Lstart"
       style="overflow:visible"><path
         id="path6394"
         style="font-size:12px;fill-rule:evenodd;stroke-width:0.625;stroke-linejoin:round"
         d="M 8.7185878,4.0337352 -2.2072895,0.01601326 8.7185884,-4.0017078 c -1.7454984,2.3720609 -1.7354408,5.6174519 -6e-7,8.035443 z"
         transform="matrix(1.1,0,0,1.1,1.1,0)"
         inkscape:connector-curvature="0" /></marker><marker
       inkscape:stockid="Arrow1Mstart"
       orient="auto"
       refY="0"
       refX="0"
       id="Arrow1Mstart"
       style="overflow:visible"><path
         id="path6382"
         d="M 0,0 5,-5 -12.5,0 5,5 0,0 z"
         style="fill-rule:evenodd;stroke:#000000;stroke-width:1pt;marker-start:none"
         transform="matrix(0.4,0,0,0.4,4,0)"
         inkscape:connector-curvature="0" /></marker><clipPath
       clipPathUnits="userSpaceOnUse"
       id="clipPath5635"><path
         d="M 0,780 0,0 950,0 950,780 0,780 z"
         id="path5637"
         inkscape:connector-curvature="0" /></clipPath><clipPath
       clipPathUnits="userSpaceOnUse"
       id="clipPath5641"><path
         d="M 0,780 0,0 950,0 950,780 0,780 z m 952,-397.199 0,9 -39,0 L 932.801,387 913,382.801 l 39,0 z"
         clip-rule="evenodd"
         id="path5643"
         inkscape:connector-curvature="0" /></clipPath><clipPath
       clipPathUnits="userSpaceOnUse"
       id="clipPath5655"><path
         d="M 0,780 0,0 950,0 950,780 0,780 z m 472,-4.199 -9,0 0,-38.403 4.801,19.204 4.199,-19.204 0,38.403 z"
         clip-rule="evenodd"
         id="path5657"
         inkscape:connector-curvature="0" /></clipPath></defs><sodipodi:namedview
     pagecolor="#ffffff"
     bordercolor="#666666"
     borderopacity="1"
     objecttolerance="10"
     gridtolerance="10"
     guidetolerance="10"
     inkscape:pageopacity="0"
     inkscape:pageshadow="2"
     inkscape:window-width="1280"
     inkscape:window-height="752"
     id="namedview5593"
     showgrid="false"
     units="px"
     inkscape:zoom="4.6666667"
     inkscape:cx="91.210838"
     inkscape:cy="63"
     inkscape:window-x="0"
     inkscape:window-y="0"
     inkscape:window-maximized="0"
     inkscape:current-layer="g5599"
     fit-margin-left="10"
     fit-margin-top="5"
     fit-margin-right="0"
     fit-margin-bottom="0"><inkscape:grid
       type="xygrid"
       id="grid5781"
       empspacing="5"
       visible="true"
       enabled="true"
       snapvisiblegridlinesonly="true" /></sodipodi:namedview><g
     id="g5599"
     inkscape:groupmode="layer"
     inkscape:label="ink_ext_XXXXXX"
     transform="matrix(1.25,0,0,-1.25,32.436252,125.5)"><path
   style="fill:#cc0000;stroke:#cc0000;stroke-width:0.50000000000000000;stroke-linecap:round;stroke-linejoin:miter;stroke-miterlimit:4;stroke-opacity:1;stroke-dasharray:none"
   d="M 60.110555,60.036852 30.847591,21.013424 M 29.815741,20.31324 0,42.709652"
   id="path5791"
   inkscape:connector-curvature="0"
   transform="matrix(0.8,0,0,-0.8,0,96)"
   sodipodi:nodetypes="cccc" /><path
   style="fill:none;stroke:#000000;stroke-width:1px;stroke-linecap:round;stroke-linejoin:miter;stroke-opacity:1"
   d="m 0,60 120,0"
   id="path5783"
   inkscape:connector-curvature="0"
   transform="matrix(0.8,0,0,-0.8,0,96)" /><path
   style="fill:none;stroke:#000000;stroke-width:1px;stroke-linecap:round;stroke-linejoin:miter;stroke-opacity:1"
   d="M 60,120 60,0"
   id="path5785"
   inkscape:connector-curvature="0"
   transform="matrix(0.8,0,0,-0.8,0,96)" /><path
   sodipodi:type="arc"
   style="color:#000000;fill:none;stroke:#000000;stroke-width:0.56199998;stroke-linecap:round;stroke-linejoin:round;stroke-miterlimit:10;stroke-opacity:1;stroke-dasharray:none;stroke-dashoffset:0;marker:none;visibility:visible;display:inline;overflow:visible;enable-background:accumulate"
   id="path5789"
   sodipodi:cx="60"
   sodipodi:cy="60"
   sodipodi:rx="50"
   sodipodi:ry="50"
   d="m 110,60 a 50,50 0 1 1 0,-2.65e-4"
   transform="matrix(0.8,0,0,-0.8,0,96)"
   sodipodi:start="0"
   sodipodi:end="6.28318"
   sodipodi:open="true" /><path
   sodipodi:type="arc"
   style="color:#000000;fill:none;stroke:#000000;stroke-width:0.5;stroke-linecap:round;stroke-linejoin:round;stroke-miterlimit:4;stroke-opacity:1;stroke-dasharray:none;stroke-dashoffset:0;marker:none;visibility:visible;display:inline;overflow:visible;enable-background:accumulate"
   id="path6307"
   sodipodi:cx="60"
   sodipodi:cy="60"
   sodipodi:rx="20"
   sodipodi:ry="20"
   d="M 48.621433,43.552258 A 20,20 0 0 1 79.999921,59.943674"
   transform="matrix(0.8,0,0,-0.8,0,96)"
   sodipodi:start="4.1071868"
   sodipodi:end="6.280369"
   sodipodi:open="true" /><path
   style="fill:#cc0000;stroke:#cc0000;stroke-width:0.50000000000000000;stroke-linecap:round;stroke-linejoin:round;stroke-miterlimit:4;stroke-opacity:1;stroke-dasharray:none"
   d="M 2.4683544,38.235759 -1.2341772,43.635285 4.9367089,41.321202 2.3140823,40.704114 z"
   id="path5793"
   inkscape:connector-curvature="0"
   transform="matrix(0.8,0,0,-0.8,0,96)" /><path
   style="fill:#cc0000;stroke:#cc0000;stroke-width:0.40000001000000002;stroke-linecap:round;stroke-linejoin:round;stroke-miterlimit:4;stroke-opacity:1;stroke-dasharray:none"
   d="m 36.787963,60.259444 4.319621,-2.962025 -1.851266,4.936709 -0.493671,-2.098101 z"
   id="path6305"
   inkscape:connector-curvature="0" /><text
   xml:space="preserve"
   style="font-size:8px;font-style:normal;font-variant:normal;font-weight:normal;font-stretch:normal;text-align:start;line-height:125%;letter-spacing:0px;word-spacing:0px;writing-mode:lr-tb;text-anchor:start;fill:#000000;fill-opacity:1;stroke:none;font-family:Linux Biolinum O;-inkscape-font-specification:Linux Biolinum O"
   x="30.65"
   y="-73.6875"
   id="text6313"
   sodipodi:linespacing="125%"
   transform="scale(1,-1)"><tspan
     sodipodi:role="line"
     id="tspan6315"
     x="30.65"
     y="-73.6875">$\vF$</tspan></text>

<text
   xml:space="preserve"
   style="font-size:8px;font-style:normal;font-variant:normal;font-weight:normal;font-stretch:normal;text-align:start;line-height:125%;letter-spacing:0px;word-spacing:0px;writing-mode:lr-tb;text-anchor:start;fill:#000000;fill-opacity:1;stroke:none;font-family:Linux Biolinum O;-inkscape-font-specification:Linux Biolinum O"
   x="-18.237001"
   y="-63.599998"
   id="text6317"
   sodipodi:linespacing="125%"
   transform="scale(1,-1)"><tspan
     sodipodi:role="line"
     id="tspan6319"
     x="-18.237001"
     y="-63.599998">$\vv(t)$</tspan></text>

<text
   xml:space="preserve"
   style="font-size:10px;font-style:normal;font-variant:normal;font-weight:normal;font-stretch:normal;text-align:start;line-height:125%;letter-spacing:0px;word-spacing:0px;writing-mode:lr-tb;text-anchor:start;fill:#000000;fill-opacity:1;stroke:none;font-family:Linux Biolinum O;-inkscape-font-specification:Linux Biolinum O"
   x="96.796875"
   y="48.421875"
   id="text6363"
   sodipodi:linespacing="125%"
   transform="matrix(0.8,0,0,-0.8,-18.237001,100.4)"><tspan
     sodipodi:role="line"
     id="tspan6365"
     x="96.796875"
     y="48.421875">$\omega t$</tspan></text>

<path
   style="fill:none;stroke:#000000;stroke-width:0.2;stroke-linecap:butt;stroke-linejoin:miter;stroke-miterlimit:4;stroke-opacity:1;stroke-dasharray:none"
   d="M 170,16 90,16"
   id="path6367"
   inkscape:connector-curvature="0"
   transform="matrix(0.8,0,0,-0.8,-25.949002,100.4)"
   sodipodi:nodetypes="cc" /><path
   style="fill:none;stroke:#000000;stroke-width:0.16;stroke-linecap:butt;stroke-linejoin:miter;stroke-miterlimit:4;stroke-opacity:1;stroke-dasharray:none"
   d="m 110.0237,48.009459 -15.999999,0"
   id="path6369"
   inkscape:connector-curvature="0"
   sodipodi:nodetypes="cc" /><path
   style="fill:none;stroke:#000000;stroke-width:0.2;stroke-linecap:butt;stroke-linejoin:miter;stroke-miterlimit:4;stroke-opacity:1;stroke-dasharray:none;marker-start:url(#Arrow2Lstart);marker-end:url(#Arrow2Lend)"
   d="m 165,16.272973 -0.0341,48.839865"
   id="path6371"
   inkscape:connector-curvature="0"
   transform="matrix(0.8,0,0,-0.8,-25.949002,100.4)"
   sodipodi:nodetypes="cc" /><path
   sodipodi:nodetypes="cccc"
   inkscape:connector-curvature="0"
   id="path7256"
   d="M 50.108165,46.777836 30.351972,20.407668 M 29.815741,20.31324 0,42.709652"
   style="fill:#cc0000;stroke:#cc0000;stroke-width:1.50000000000000000;stroke-linecap:round;stroke-linejoin:miter;stroke-miterlimit:4;stroke-opacity:1;stroke-dasharray:none"
   transform="matrix(0.8,0,0,-0.8,0,96)" /><text
   xml:space="preserve"
   style="font-size:10px;font-style:normal;font-variant:normal;font-weight:normal;font-stretch:normal;text-align:start;line-height:125%;letter-spacing:0px;word-spacing:0px;writing-mode:lr-tb;text-anchor:start;fill:#000000;fill-opacity:1;stroke:none;font-family:Linux Biolinum O;-inkscape-font-specification:Linux Biolinum O"
   x="167.35715"
   y="46.285713"
   id="text7277"
   sodipodi:linespacing="125%"
   transform="matrix(0.8,0,0,-0.8,-25.949001,100.4)"><tspan
     sodipodi:role="line"
     id="tspan7279"
     x="167.35715"
     y="46.285713">$R$</tspan></text>

<path
   sodipodi:type="arc"
   style="fill:#729fcf;fill-opacity:1;stroke:#3465a4;stroke-width:1.00000024;stroke-linecap:round;stroke-linejoin:round;stroke-miterlimit:4;stroke-opacity:1;stroke-dasharray:none;stroke-dashoffset:0"
   id="path3014"
   sodipodi:cx="62.357143"
   sodipodi:cy="25.5"
   sodipodi:rx="1.5"
   sodipodi:ry="1.5"
   d="m 63.857143,25.5 a 1.5,1.5 0 1 1 -3,0 1.5,1.5 0 1 1 3,0 z"
   transform="matrix(0.8,0,0,-0.8,-25.949002,100.4)" /><text
   transform="scale(1,-1)"
   sodipodi:linespacing="125%"
   id="text4290"
   y="-83.257141"
   x="12.622431"
   style="font-size:8px;font-style:normal;font-variant:normal;font-weight:normal;font-stretch:normal;text-align:start;line-height:125%;letter-spacing:0px;word-spacing:0px;writing-mode:lr-tb;text-anchor:start;fill:#000000;fill-opacity:1;stroke:none;font-family:Linux Biolinum O;-inkscape-font-specification:Linux Biolinum O"
   xml:space="preserve"><tspan
     y="-83.257141"
     x="12.622431"
     id="tspan4292"
     sodipodi:role="line">$X$</tspan></text>
</g></svg>