<?xml version="1.0" encoding="UTF-8" standalone="no"?>
<!-- Created with Inkscape (http://www.inkscape.org/) -->

<svg
   xmlns:dc="http://purl.org/dc/elements/1.1/"
   xmlns:cc="http://creativecommons.org/ns#"
   xmlns:rdf="http://www.w3.org/1999/02/22-rdf-syntax-ns#"
   xmlns:svg="http://www.w3.org/2000/svg"
   xmlns="http://www.w3.org/2000/svg"
   xmlns:sodipodi="http://sodipodi.sourceforge.net/DTD/sodipodi-0.dtd"
   xmlns:inkscape="http://www.inkscape.org/namespaces/inkscape"
   id="svg4366"
   version="1.1"
   inkscape:version="0.48.1 r9760"
   width="304.1853"
   height="185.5625"
   xml:space="preserve"
   sodipodi:docname="06circletangent.pdf"><metadata
     id="metadata4372"><rdf:RDF><cc:Work
         rdf:about=""><dc:format>image/svg+xml</dc:format><dc:type
           rdf:resource="http://purl.org/dc/dcmitype/StillImage" /><dc:title></dc:title></cc:Work></rdf:RDF></metadata><defs
     id="defs4370"><marker
       inkscape:stockid="Arrow1Lstart"
       orient="auto"
       refY="0"
       refX="0"
       id="Arrow1Lstart"
       style="overflow:visible"><path
         id="path5295"
         d="M 0,0 5,-5 -12.5,0 5,5 0,0 z"
         style="fill-rule:evenodd;stroke:#000000;stroke-width:1pt;marker-start:none"
         transform="matrix(0.8,0,0,0.8,10,0)"
         inkscape:connector-curvature="0" /></marker><marker
       inkscape:stockid="Arrow1Lend"
       orient="auto"
       refY="0"
       refX="0"
       id="Arrow1Lend"
       style="overflow:visible"><path
         id="path5298"
         d="M 0,0 5,-5 -12.5,0 5,5 0,0 z"
         style="fill-rule:evenodd;stroke:#000000;stroke-width:1pt;marker-start:none"
         transform="matrix(-0.8,0,0,-0.8,-10,0)"
         inkscape:connector-curvature="0" /></marker><marker
       inkscape:stockid="Arrow1Mend"
       orient="auto"
       refY="0"
       refX="0"
       id="Arrow1Mend"
       style="overflow:visible"><path
         id="path5304"
         d="M 0,0 5,-5 -12.5,0 5,5 0,0 z"
         style="fill-rule:evenodd;stroke:#000000;stroke-width:1pt;marker-start:none"
         transform="matrix(-0.4,0,0,-0.4,-4,0)"
         inkscape:connector-curvature="0" /></marker><clipPath
       clipPathUnits="userSpaceOnUse"
       id="clipPath4440"><path
         d="M 0,1460 0,0 l 1830,0 0,1460 -1830,0 z m 263,-832 36,0 0,50.398 -18,-36 -18,36 0,-50.398 z m 36,558 -36,0 0,-50.4 18,36 18,-36 0,50.4 z"
         clip-rule="evenodd"
         id="path4442"
         inkscape:connector-curvature="0" /></clipPath></defs><sodipodi:namedview
     pagecolor="#ffffff"
     bordercolor="#666666"
     borderopacity="1"
     objecttolerance="10"
     gridtolerance="10"
     guidetolerance="10"
     inkscape:pageopacity="0"
     inkscape:pageshadow="2"
     inkscape:window-width="814"
     inkscape:window-height="607"
     id="namedview4368"
     showgrid="false"
     showguides="false"
     inkscape:guide-bbox="true"
     inkscape:zoom="2.3078038"
     inkscape:cx="152.09265"
     inkscape:cy="92.78125"
     inkscape:window-x="2"
     inkscape:window-y="0"
     inkscape:window-maximized="0"
     inkscape:current-layer="g4374"
     fit-margin-top="5"
     fit-margin-left="5"
     fit-margin-right="5"
     fit-margin-bottom="0"><sodipodi:guide
       orientation="1,0"
       position="130.80521,79.069766"
       id="guide6860" /></sodipodi:namedview><g
     id="g4374"
     inkscape:groupmode="layer"
     inkscape:label="ink_ext_XXXXXX"
     transform="matrix(1.25,0,0,-1.25,17.103182,186.15625)"><path
       inkscape:connector-curvature="0"
       id="path4378"
       style="fill:none;stroke:#000000;stroke-width:0.44999999;stroke-linecap:butt;stroke-linejoin:miter;stroke-miterlimit:10;stroke-opacity:1;stroke-dasharray:none"
       d="m 64.882,63.9961 c -0.2644,5.6137 -2.9043,10.8504 -7.2593,14.4023" /><path
       inkscape:connector-curvature="0"
       id="path4382"
       style="fill:#000000;fill-opacity:1;fill-rule:evenodd;stroke:none"
       d="m 46.1,0.7 0,144" /><path
       inkscape:connector-curvature="0"
       id="path4384"
       style="fill:none;stroke:#000000;stroke-width:0.44999999;stroke-linecap:butt;stroke-linejoin:round;stroke-miterlimit:10;stroke-opacity:1;stroke-dasharray:none"
       d="m 46.1,0.7 0,144" /><path
       inkscape:connector-curvature="0"
       id="path4386"
       style="fill:#000000;fill-opacity:1;fill-rule:evenodd;stroke:none"
       d="m 46.1,63.7 126,0" /><path
       inkscape:connector-curvature="0"
       id="path4388"
       style="fill:none;stroke:#000000;stroke-width:0.44999999;stroke-linecap:butt;stroke-linejoin:round;stroke-miterlimit:10;stroke-opacity:1;stroke-dasharray:none"
       d="m 46.1,63.7 126,0" /><path
       inkscape:connector-curvature="0"
       id="path4390"
       style="fill:none;stroke:#000000;stroke-width:0.44999999;stroke-linecap:butt;stroke-linejoin:round;stroke-miterlimit:10;stroke-opacity:1;stroke-dasharray:none"
       d="m 19.1,135.7 148.5,-99" /><path
       inkscape:connector-curvature="0"
       id="path4392"
       style="fill:none;stroke:#000000;stroke-width:0.44999999;stroke-linecap:butt;stroke-linejoin:round;stroke-miterlimit:10;stroke-opacity:1;stroke-dasharray:none"
       d="m 46.1,63.7 27,36" /><path
       inkscape:connector-curvature="0"
       id="path4394"
       style="fill:#000000;fill-opacity:1;fill-rule:evenodd;stroke:none"
       d="m 57.6199,78.4 1.7403,-4.6199 0.5398,2.4597 2.7,0.1801" /><path
       inkscape:connector-curvature="0"
       id="path4396"
       style="fill:none;stroke:#000000;stroke-width:0.44999999;stroke-linecap:butt;stroke-linejoin:round;stroke-miterlimit:10;stroke-opacity:1;stroke-dasharray:none"
       d="M 57.6199,78.4 59.3602,73.7801 59.9,76.2398 62.6,76.4199 57.6199,78.4 z" /><path
       inkscape:connector-curvature="0"
       id="path4410"
       style="fill:#ffffff;fill-opacity:1;fill-rule:evenodd;stroke:none"
       d="m 157.218,63.1477 c -0.704,-5.5004 -2.519,-10.8004 -5.334,-15.5782" /><path
       inkscape:connector-curvature="0"
       id="path4412"
       style="fill:none;stroke:#000000;stroke-width:0.44999999;stroke-linecap:butt;stroke-linejoin:round;stroke-miterlimit:10;stroke-opacity:1;stroke-dasharray:none"
       d="m 157.218,63.1477 c -0.704,-5.5004 -2.519,-10.8004 -5.334,-15.5782" /><path
       inkscape:connector-curvature="0"
       id="path4414"
       style="fill:#ffffff;fill-opacity:1;fill-rule:evenodd;stroke:none"
       d="m 74.1801,99.7 c 0,-0.5961 -0.484,-1.0801 -1.0801,-1.0801 -0.5961,0 -1.0801,0.484 -1.0801,1.0801 0,0.596 0.484,1.08 1.0801,1.08 0.5961,0 1.0801,-0.484 1.0801,-1.08" /><path
       inkscape:connector-curvature="0"
       id="path4424"
       style="fill:#ffffff;fill-opacity:1;fill-rule:evenodd;stroke:none"
       d="m 128.18,63.7 c 0,-0.5961 -0.484,-1.0801 -1.08,-1.0801 -0.596,0 -1.08,0.484 -1.08,1.0801 0,0.5961 0.484,1.0801 1.08,1.0801 0.596,0 1.08,-0.484 1.08,-1.0801" /><path
       inkscape:connector-curvature="0"
       id="path4426"
       style="fill:none;stroke:#000000;stroke-width:0.44999999;stroke-linecap:butt;stroke-linejoin:round;stroke-miterlimit:10;stroke-opacity:1;stroke-dasharray:none"
       d="m 128.18,63.7 c 0,-0.5961 -0.484,-1.0801 -1.08,-1.0801 -0.596,0 -1.08,0.484 -1.08,1.0801 0,0.5961 0.484,1.0801 1.08,1.0801 0.596,0 1.08,-0.484 1.08,-1.0801 z" /><path
       inkscape:connector-curvature="0"
       id="path4428"
       style="fill:#ffffff;fill-opacity:1;fill-rule:evenodd;stroke:none"
       d="m 19.1,117.7 27,0" /><path
       inkscape:connector-curvature="0"
       id="path4430"
       style="fill:none;stroke:#000000;stroke-width:0.23999999;stroke-linecap:butt;stroke-linejoin:round;stroke-miterlimit:10;stroke-opacity:1;stroke-dasharray:1.92, 0.96;stroke-dashoffset:0"
       d="m 19.1,117.7 27,0" /><path
       inkscape:connector-curvature="0"
       id="path4432"
       style="fill:#ffffff;fill-opacity:1;fill-rule:evenodd;stroke:none"
       d="m 19.1,63.7 27,0" /><path
       inkscape:connector-curvature="0"
       id="path4434"
       style="fill:none;stroke:#000000;stroke-width:0.23999999;stroke-linecap:butt;stroke-linejoin:round;stroke-miterlimit:10;stroke-opacity:1;stroke-dasharray:1.92, 0.96;stroke-dashoffset:0"
       d="m 19.1,63.7 27,0" /><path
       inkscape:connector-curvature="0"
       id="path4444"
       style="fill:#ffffff;fill-opacity:1;fill-rule:evenodd;stroke:none"
       d="m 28.1,117.7 0,-54" /><path
       inkscape:connector-curvature="0"
       id="path4446"
       style="fill:none;stroke:#000000;stroke-width:0.23999999;stroke-linecap:butt;stroke-linejoin:round;stroke-miterlimit:10;stroke-opacity:1;stroke-dasharray:none;stroke-dashoffset:0.89920002;marker-start:none;marker-end:url(#Arrow1Lend)"
       d="M 28.1,83.28747 28.1,63.7"
       sodipodi:nodetypes="cc" /><path
       inkscape:connector-curvature="0"
       id="path4452"
       style="fill:#ffffff;fill-opacity:1;fill-rule:evenodd;stroke:none"
       d="m 47.1801,117.7 c 0,-0.596 -0.484,-1.08 -1.0801,-1.08 -0.5961,0 -1.0801,0.484 -1.0801,1.08 0,0.596 0.484,1.08 1.0801,1.08 0.5961,0 1.0801,-0.484 1.0801,-1.08" /><path
       inkscape:connector-curvature="0"
       id="path4454"
       style="fill:none;stroke:#000000;stroke-width:0.44999999;stroke-linecap:butt;stroke-linejoin:miter;stroke-miterlimit:10;stroke-opacity:1;stroke-dasharray:none"
       d="m 47.1801,117.7 c 0,-0.596 -0.484,-1.08 -1.0801,-1.08 -0.5961,0 -1.0801,0.484 -1.0801,1.08 0,0.596 0.484,1.08 1.0801,1.08 0.5961,0 1.0801,-0.484 1.0801,-1.08 z" /><path
       inkscape:connector-curvature="0"
       id="path4456"
       style="fill:#000000;fill-opacity:1;fill-rule:evenodd;stroke:none"
       d="m 151.7,47.2602 -1.56,6.8398 2.76,-4.5602 5.04,-0.7199" /><path
       inkscape:connector-curvature="0"
       id="path4458"
       style="fill:none;stroke:#000000;stroke-width:0.44999999;stroke-linecap:butt;stroke-linejoin:round;stroke-miterlimit:10;stroke-opacity:1;stroke-dasharray:none"
       d="m 151.7,47.2602 -1.56,6.8398 2.76,-4.5602 5.04,-0.7199 -6.24,-1.5597 z" /><text
       xml:space="preserve"
       style="font-size:10px;font-style:normal;font-variant:normal;font-weight:normal;font-stretch:normal;text-align:start;line-height:125%;letter-spacing:0px;word-spacing:0px;writing-mode:lr-tb;text-anchor:start;fill:#000000;fill-opacity:1;stroke:none;font-family:Linux Biolinum O;-inkscape-font-specification:Linux Biolinum O"
       x="87.563133"
       y="93.093437"
       id="text4510"
       sodipodi:linespacing="125%"
       transform="matrix(0.8,0,0,-0.8,0,146)"><tspan
         sodipodi:role="line"
         id="tspan4512"
         x="87.563133"
         y="93.093437">$\theta$</tspan></text>
<text
       xml:space="preserve"
       style="font-size:8px;font-style:normal;font-variant:normal;font-weight:normal;font-stretch:normal;text-align:start;line-height:125%;letter-spacing:0px;word-spacing:0px;writing-mode:lr-tb;text-anchor:start;fill:#000000;fill-opacity:1;stroke:none;font-family:Linux Biolinum O;-inkscape-font-specification:Linux Biolinum O"
       x="-1.9545459"
       y="-87.274742"
       id="text4514"
       sodipodi:linespacing="125%"
       transform="scale(1,-1)"><tspan
         sodipodi:role="line"
         id="tspan4516"
         x="-1.9545459"
         y="-87.274742">{\itshape intercept}</tspan></text>
<path
       sodipodi:nodetypes="cc"
       d="m 28.1,116.6572 0,-20.108876"
       style="fill:none;stroke:#000000;stroke-width:0.23999999;stroke-linecap:butt;stroke-linejoin:round;stroke-miterlimit:10;stroke-opacity:1;stroke-dasharray:none;stroke-dashoffset:0.89920002;marker-start:url(#Arrow1Lstart);marker-end:none"
       id="path4522"
       inkscape:connector-curvature="0" /><text
       xml:space="preserve"
       style="font-size:10px;font-style:normal;font-variant:normal;font-weight:normal;font-stretch:normal;text-align:start;line-height:125%;letter-spacing:0px;word-spacing:0px;writing-mode:lr-tb;text-anchor:start;fill:#000000;fill-opacity:1;stroke:none;font-family:Linux Biolinum O;-inkscape-font-specification:Linux Biolinum O"
       x="202.36914"
       y="118.30238"
       id="text6852"
       sodipodi:linespacing="125%"
       transform="matrix(0.8,0,0,-0.8,0,146)"><tspan
         sodipodi:role="line"
         id="tspan6854"
         x="202.36914"
         y="118.30238">$\dfrac\pi2-\theta$</tspan></text>
<text
       xml:space="preserve"
       style="font-size:8px;font-style:normal;font-variant:normal;font-weight:normal;font-stretch:normal;text-align:start;line-height:125%;letter-spacing:0px;word-spacing:0px;writing-mode:lr-tb;text-anchor:start;fill:#000000;fill-opacity:1;stroke:none;font-family:Linux Biolinum O;-inkscape-font-specification:Linux Biolinum O"
       x="67.721436"
       y="-11.099772"
       id="text6856"
       sodipodi:linespacing="125%"
       transform="scale(1,-1)"><tspan
         sodipodi:role="line"
         id="tspan6858"
         x="67.721436"
         y="-11.099772">1</tspan></text>
<path
       style="fill:none;stroke:#000000;stroke-width:0.30000001;stroke-linecap:butt;stroke-linejoin:miter;stroke-miterlimit:4;stroke-opacity:1;stroke-dasharray:2.4, 1.2;stroke-dashoffset:0"
       d="m 113.70203,102.83648 0,74.71995"
       id="path6862"
       inkscape:connector-curvature="0"
       transform="matrix(0.8,0,0,-0.8,0,146)" /><path
       style="fill:none;stroke:#000000;stroke-width:0.30000001;stroke-linecap:butt;stroke-linejoin:miter;stroke-miterlimit:4;stroke-opacity:1;stroke-dasharray:none;marker-start:url(#Arrow1Lstart);marker-end:url(#Arrow1Lend)"
       d="m 57.674944,171.37698 56.027086,0"
       id="path6864"
       inkscape:connector-curvature="0"
       transform="matrix(0.8,0,0,-0.8,0,146)" /><path
       sodipodi:type="arc"
       style="color:#000000;fill:none;stroke:#000000;stroke-width:1;stroke-linecap:round;stroke-linejoin:round;stroke-miterlimit:10;stroke-opacity:1;stroke-dasharray:none;stroke-dashoffset:0;marker:none;visibility:visible;display:inline;overflow:visible;enable-background:accumulate"
       id="path4518"
       sodipodi:cx="57.607323"
       sodipodi:cy="102.77146"
       sodipodi:rx="56"
       sodipodi:ry="56"
       d="M 18.173744,63.00976 C 40.133525,41.231196 75.59046,41.378102 97.369024,63.337883 119.14759,85.297664 119.00068,120.7546 97.040901,142.53316 75.08112,164.31173 39.624186,164.16482 17.845622,142.20504 2.0066042,126.23423 -2.739608,102.33642 5.7942997,81.525035"
       transform="matrix(0.8,0,0,-0.8,0,146)"
       sodipodi:start="3.931134"
       sodipodi:end="9.8139262"
       sodipodi:open="true" /><path
       inkscape:connector-curvature="0"
       id="path4416"
       style="fill:#ffffff;stroke:#000000;stroke-width:0.44999999;stroke-linecap:butt;stroke-linejoin:round;stroke-miterlimit:10;stroke-opacity:1;stroke-dasharray:none"
       d="m 74.1801,99.7 c 0,-0.5961 -0.484,-1.0801 -1.0801,-1.0801 -0.5961,0 -1.0801,0.484 -1.0801,1.0801 0,0.596 0.484,1.08 1.0801,1.08 0.5961,0 1.0801,-0.484 1.0801,-1.08 z" /></g></svg>