<?xml version="1.0" encoding="UTF-8" standalone="no"?>
<!-- Created with Inkscape (http://www.inkscape.org/) -->

<svg
   xmlns:dc="http://purl.org/dc/elements/1.1/"
   xmlns:cc="http://creativecommons.org/ns#"
   xmlns:rdf="http://www.w3.org/1999/02/22-rdf-syntax-ns#"
   xmlns:svg="http://www.w3.org/2000/svg"
   xmlns="http://www.w3.org/2000/svg"
   xmlns:sodipodi="http://sodipodi.sourceforge.net/DTD/sodipodi-0.dtd"
   xmlns:inkscape="http://www.inkscape.org/namespaces/inkscape"
   id="svg7738"
   version="1.1"
   inkscape:version="0.48.1 r9760"
   width="215.70654"
   height="168.99092"
   xml:space="preserve"
   sodipodi:docname="06cycloid-force.pdf"><metadata
     id="metadata7744"><rdf:RDF><cc:Work
         rdf:about=""><dc:format>image/svg+xml</dc:format><dc:type
           rdf:resource="http://purl.org/dc/dcmitype/StillImage" /><dc:title></dc:title></cc:Work></rdf:RDF></metadata><defs
     id="defs7742" /><sodipodi:namedview
     pagecolor="#ffffff"
     bordercolor="#666666"
     borderopacity="1"
     objecttolerance="10"
     gridtolerance="10"
     guidetolerance="10"
     inkscape:pageopacity="0"
     inkscape:pageshadow="2"
     inkscape:window-width="712"
     inkscape:window-height="581"
     id="namedview7740"
     showgrid="false"
     inkscape:zoom="2.2385944"
     inkscape:cx="107.85327"
     inkscape:cy="84.495461"
     inkscape:window-x="0"
     inkscape:window-y="0"
     inkscape:window-maximized="0"
     inkscape:current-layer="g7746"
     fit-margin-right="5"
     fit-margin-bottom="5"
     fit-margin-top="5"
     fit-margin-left="5" /><g
     id="g7746"
     inkscape:groupmode="layer"
     inkscape:label="ink_ext_XXXXXX"
     transform="matrix(1.25,0,0,-1.25,38.640869,142.84382)"><text
       xml:space="preserve"
       style="font-size:8px;font-style:normal;font-variant:normal;font-weight:normal;font-stretch:normal;text-align:start;line-height:125%;letter-spacing:0px;word-spacing:0px;writing-mode:lr-tb;text-anchor:start;fill:#000000;fill-opacity:1;stroke:none;font-family:Linux Biolinum O;-inkscape-font-specification:Linux Biolinum O"
       x="47.015823"
       y="14.70886"
       id="text7913"
       sodipodi:linespacing="125%"
       transform="scale(1,-1)"><tspan
         sodipodi:role="line"
         id="tspan7915"
         x="47.015823"
         y="14.70886">$A$</tspan></text>
<text
       transform="scale(1,-1)"
       sodipodi:linespacing="125%"
       id="text7917"
       y="13.658226"
       x="-9.9145565"
       style="font-size:8px;font-style:normal;font-variant:normal;font-weight:normal;font-stretch:normal;text-align:start;line-height:125%;letter-spacing:0px;word-spacing:0px;writing-mode:lr-tb;text-anchor:start;fill:#000000;fill-opacity:1;stroke:none;font-family:Linux Biolinum O;-inkscape-font-specification:Linux Biolinum O"
       xml:space="preserve"><tspan
         y="13.658226"
         x="-9.9145565"
         id="tspan7919"
         sodipodi:role="line">$O$</tspan></text>
<text
       xml:space="preserve"
       style="font-size:8px;font-style:normal;font-variant:normal;font-weight:normal;font-stretch:normal;text-align:start;line-height:125%;letter-spacing:0px;word-spacing:0px;writing-mode:lr-tb;text-anchor:start;fill:#000000;fill-opacity:1;stroke:none;font-family:Linux Biolinum O;-inkscape-font-specification:Linux Biolinum O"
       x="-9.962657"
       y="-24.812027"
       id="text7921"
       sodipodi:linespacing="125%"
       transform="scale(1,-1)"><tspan
         sodipodi:role="line"
         id="tspan7923"
         x="-9.962657"
         y="-24.812027">$X$</tspan></text>
<text
       transform="scale(1,-1)"
       sodipodi:linespacing="125%"
       id="text7925"
       y="-37.301277"
       x="20.07848"
       style="font-size:8px;font-style:normal;font-variant:normal;font-weight:normal;font-stretch:normal;text-align:start;line-height:125%;letter-spacing:0px;word-spacing:0px;writing-mode:lr-tb;text-anchor:start;fill:#000000;fill-opacity:1;stroke:none;font-family:Linux Biolinum O;-inkscape-font-specification:Linux Biolinum O"
       xml:space="preserve"><tspan
         y="-37.301277"
         x="20.07848"
         id="tspan7927"
         sodipodi:role="line">$\va$</tspan></text>
<text
       xml:space="preserve"
       style="font-size:8px;font-style:normal;font-variant:normal;font-weight:normal;font-stretch:normal;text-align:start;line-height:125%;letter-spacing:0px;word-spacing:0px;writing-mode:lr-tb;text-anchor:start;fill:#000000;fill-opacity:1;stroke:none;font-family:Linux Biolinum O;-inkscape-font-specification:Linux Biolinum O"
       x="33.357594"
       y="-18.17152"
       id="text7929"
       sodipodi:linespacing="125%"
       transform="scale(1,-1)"><tspan
         sodipodi:role="line"
         id="tspan7931"
         x="33.357594"
         y="-18.17152">$\omega  t$</tspan></text>
<text
       xml:space="preserve"
       style="font-size:8px;font-style:normal;font-variant:normal;font-weight:normal;font-stretch:normal;text-align:start;line-height:125%;letter-spacing:0px;word-spacing:0px;writing-mode:lr-tb;text-anchor:start;fill:#000000;fill-opacity:1;stroke:none;font-family:Linux Biolinum O;-inkscape-font-specification:Linux Biolinum O"
       x="54.632912"
       y="-47.278481"
       id="text7933"
       sodipodi:linespacing="125%"
       transform="scale(1,-1)"><tspan
         sodipodi:role="line"
         id="tspan7935"
         x="54.632912"
         y="-47.278481">$C$</tspan></text>
<path
       inkscape:connector-curvature="0"
       id="path7750"
       style="fill:none;stroke:#00008f;stroke-width:0.67499995;stroke-linecap:butt;stroke-linejoin:miter;stroke-miterlimit:10;stroke-opacity:1;stroke-dasharray:1.35, 2.07;stroke-dashoffset:2.07"
       d="m -26.575195,29.410065 2.160354,-3.15 2.07012,-3.0597 1.8,-2.8806 1.61952,-2.87985 1.44024,-2.7 1.25976,-2.7 1.17012,-2.42985 0.9,-2.3403 0.9,-2.25 0.62982,-1.97985 0.6306,-1.88955 0.45,-1.71045 0.3597,-1.43955 0.27015,-1.35 0.17985,-1.0806 0.17985,-0.98955 0,-0.72015 0.0903,-0.45 0,-0.45 0,0.45 0.08955,0.45 0.0903,0.72015 0.0903,0.98955 0.17985,1.0806 0.27015,1.35 0.3597,1.43955 0.45,1.71045 0.62985,1.88955 0.72015,1.97985 0.8097,2.25 0.9903,2.3403 1.07985,2.42985 1.26045,2.7 1.43955,2.7 1.62015,2.87985 1.8903,2.8806 1.97985,3.0597 2.1597,3.15 2.42985,3.15 2.61045,3.2403 2.78955,3.32985 2.97015,3.23955 3.2403,3.3306 3.42015,3.32985 3.6,3.23955 3.77985,3.3306 4.05,3.23955 4.22985,3.15 4.5,3.15 4.5903,3.06045" /><path
       inkscape:connector-curvature="0"
       id="path7752"
       style="fill:none;stroke:#000000;stroke-width:0.67499995;stroke-linecap:round;stroke-linejoin:miter;stroke-miterlimit:10;stroke-opacity:1;stroke-dasharray:none"
       d="m -20.905081,-6.049635 158.220121,0" /><path
       inkscape:connector-curvature="0"
       id="path7754"
       style="fill:none;stroke:#8f0000;stroke-width:0.67499995;stroke-linecap:round;stroke-linejoin:miter;stroke-miterlimit:10;stroke-opacity:1;stroke-dasharray:none"
       d="m 104.91504,46.330215 c 0,-29.127 -23.613301,-52.74027 -52.740301,-52.74027 -29.12685,0 -52.73955,23.61327 -52.73955,52.74027 0,29.12685 23.6127,52.73955 52.73955,52.73955 29.127,0 52.740301,-23.6127 52.740301,-52.73955 z" /><path
       inkscape:connector-curvature="0"
       id="path7770"
       style="fill:none;stroke:#008f00;stroke-width:0.67499995;stroke-linecap:butt;stroke-linejoin:round;stroke-miterlimit:10;stroke-opacity:1;stroke-dasharray:none"
       d="m 52.355339,-6.319815 0,52.55973" /><path
       inkscape:connector-curvature="0"
       id="path7780"
       style="fill:#000000;fill-opacity:1;fill-rule:evenodd;stroke:none"
       d="m 31.024739,37.239915 6.0306,-3.6 -3.51045,-0.17985 -1.35,-2.52015" /><path
       inkscape:connector-curvature="0"
       id="path7782"
       style="fill:none;stroke:#000000;stroke-width:0.67499995;stroke-linecap:butt;stroke-linejoin:round;stroke-miterlimit:10;stroke-opacity:1;stroke-dasharray:none"
       d="m 31.024739,37.239915 6.0306,-3.6 -3.51045,-0.17985 -1.35,-2.52015 -1.17015,6.3 z" /><path
       inkscape:connector-curvature="0"
       id="path7784"
       style="fill:none;stroke:#000000;stroke-width:0.67499995;stroke-linecap:butt;stroke-linejoin:round;stroke-miterlimit:10;stroke-opacity:1;stroke-dasharray:none"
       d="m 51.992039,22.118715 c -8.9508,1.28955 -16.67235,6.95145 -20.59395,15.1002" /><path
       inkscape:connector-curvature="0"
       id="path7786"
       style="fill:none;stroke:#000000;stroke-width:1.3499999;stroke-linecap:butt;stroke-linejoin:round;stroke-miterlimit:10;stroke-opacity:1;stroke-dasharray:none"
       d="M 51.994889,46.239915 3.124739,25.900365" /><path
       inkscape:connector-curvature="0"
       id="path7788"
       style="fill:#000000;fill-opacity:1;fill-rule:evenodd;stroke:none"
       d="m 52.085189,46.510065 -7.82985,-7.7403 1.07985,4.5903 -4.1403,1.7097" /><path
       inkscape:connector-curvature="0"
       id="path7790"
       style="fill:none;stroke:#000000;stroke-width:1.3499999;stroke-linecap:butt;stroke-linejoin:round;stroke-miterlimit:10;stroke-opacity:1;stroke-dasharray:none"
       d="m 52.085189,46.510065 -7.82985,-7.7403 1.07985,4.5903 -4.1403,1.7097 10.8903,1.4403 z" /><path
       inkscape:connector-curvature="0"
       id="path7800"
       style="fill:#ffffff;fill-opacity:1;fill-rule:evenodd;stroke:none"
       d="m 4.924739,25.900365 c 0,-0.89415 -0.7254,-1.62015 -1.6194,-1.62015 -0.89415,0 -1.62015,0.726 -1.62015,1.62015 0,0.894 0.726,1.6194 1.62015,1.6194 0.894,0 1.6194,-0.7254 1.6194,-1.6194" /><path
       inkscape:connector-curvature="0"
       id="path7802"
       style="fill:none;stroke:#000000;stroke-width:0.67499995;stroke-linecap:butt;stroke-linejoin:round;stroke-miterlimit:10;stroke-opacity:1;stroke-dasharray:none"
       d="m 4.924739,25.900365 c 0,-0.89415 -0.7254,-1.62015 -1.6194,-1.62015 -0.89415,0 -1.62015,0.726 -1.62015,1.62015 0,0.894 0.726,1.6194 1.62015,1.6194 0.894,0 1.6194,-0.7254 1.6194,-1.6194 z" /><path
       inkscape:connector-curvature="0"
       id="path7804"
       style="fill:#ffffff;fill-opacity:1;fill-rule:evenodd;stroke:none"
       d="m 53.794889,46.419765 c 0,-0.894 -0.726,-1.6194 -1.62015,-1.6194 -0.894,0 -1.6194,0.7254 -1.6194,1.6194 0,0.89415 0.7254,1.62015 1.6194,1.62015 0.89415,0 1.62015,-0.726 1.62015,-1.62015" /><path
       inkscape:connector-curvature="0"
       id="path7806"
       style="fill:none;stroke:#000000;stroke-width:0.67499995;stroke-linecap:butt;stroke-linejoin:round;stroke-miterlimit:10;stroke-opacity:1;stroke-dasharray:none"
       d="m 53.794889,46.419765 c 0,-0.894 -0.726,-1.6194 -1.62015,-1.6194 -0.894,0 -1.6194,0.7254 -1.6194,1.6194 0,0.89415 0.7254,1.62015 1.6194,1.62015 0.89415,0 1.62015,-0.726 1.62015,-1.62015 z" /><path
       inkscape:connector-curvature="0"
       id="path7812"
       style="fill:#ffffff;fill-opacity:1;fill-rule:evenodd;stroke:none"
       d="m 53.885189,-6.139935 c 0,-0.894135 -0.726,-1.62012 -1.62015,-1.62012 -0.89415,0 -1.62015,0.725985 -1.62015,1.62012 0,0.89415 0.726,1.62015 1.62015,1.62015 0.89415,0 1.62015,-0.726 1.62015,-1.62015" /><path
       inkscape:connector-curvature="0"
       id="path7814"
       style="fill:none;stroke:#000000;stroke-width:0.67499995;stroke-linecap:butt;stroke-linejoin:round;stroke-miterlimit:10;stroke-opacity:1;stroke-dasharray:none"
       d="m 53.885189,-6.139935 c 0,-0.894135 -0.726,-1.62012 -1.62015,-1.62012 -0.89415,0 -1.62015,0.725985 -1.62015,1.62012 0,0.89415 0.726,1.62015 1.62015,1.62015 0.89415,0 1.62015,-0.726 1.62015,-1.62015 z" /><path
       d="m -10.375261,-16.580175 0,126.517735"
       style="fill:none;stroke:#000000;stroke-width:0.67499995;stroke-linecap:round;stroke-linejoin:miter;stroke-miterlimit:10;stroke-opacity:1;stroke-dasharray:none"
       id="path7937"
       inkscape:connector-curvature="0"
       sodipodi:nodetypes="cc" /><path
       inkscape:connector-curvature="0"
       id="path7810"
       style="fill:#ffffff;stroke:#000000;stroke-width:0.67499995;stroke-linecap:butt;stroke-linejoin:round;stroke-miterlimit:10;stroke-opacity:1;stroke-dasharray:none"
       d="m -8.7186757,-5.857108 c 0,-0.894075 -0.726,-1.61946 -1.6201503,-1.61946 -0.89415,0 -1.62015,0.725385 -1.62015,1.61946 0,0.89415 0.726,1.62015 1.62015,1.62015 0.8941503,0 1.6201503,-0.726 1.6201503,-1.62015 z" /></g></svg>