<?xml version="1.0" encoding="UTF-8" standalone="no"?>
<!-- Created with Inkscape (http://www.inkscape.org/) -->

<svg
   xmlns:dc="http://purl.org/dc/elements/1.1/"
   xmlns:cc="http://creativecommons.org/ns#"
   xmlns:rdf="http://www.w3.org/1999/02/22-rdf-syntax-ns#"
   xmlns:svg="http://www.w3.org/2000/svg"
   xmlns="http://www.w3.org/2000/svg"
   xmlns:sodipodi="http://sodipodi.sourceforge.net/DTD/sodipodi-0.dtd"
   xmlns:inkscape="http://www.inkscape.org/namespaces/inkscape"
   id="svg10456"
   version="1.1"
   inkscape:version="0.48.1 r9760"
   width="133.75"
   height="166.25"
   xml:space="preserve"
   sodipodi:docname="06fish-sketch.pdf"><metadata
     id="metadata10462"><rdf:RDF><cc:Work
         rdf:about=""><dc:format>image/svg+xml</dc:format><dc:type
           rdf:resource="http://purl.org/dc/dcmitype/StillImage" /><dc:title></dc:title></cc:Work></rdf:RDF></metadata><defs
     id="defs10460" /><sodipodi:namedview
     pagecolor="#ffffff"
     bordercolor="#666666"
     borderopacity="1"
     objecttolerance="10"
     gridtolerance="10"
     guidetolerance="10"
     inkscape:pageopacity="0"
     inkscape:pageshadow="2"
     inkscape:window-width="770"
     inkscape:window-height="619"
     id="namedview10458"
     showgrid="false"
     inkscape:zoom="1.9007519"
     inkscape:cx="66.875"
     inkscape:cy="83.125"
     inkscape:window-x="0"
     inkscape:window-y="0"
     inkscape:window-maximized="0"
     inkscape:current-layer="g10464" /><g
     id="g10464"
     inkscape:groupmode="layer"
     inkscape:label="ink_ext_XXXXXX"
     transform="matrix(1.25,0,0,-1.25,0,166.25)"><path
       inkscape:connector-curvature="0"
       id="path10492"
       style="fill:#8f0000;fill-opacity:1;fill-rule:evenodd;stroke:none"
       d="m 72.5,54.4602 3.6,5.8199 3.7199,-5.8199 -3.6,2.1" /><path
       inkscape:connector-curvature="0"
       id="path10494"
       style="fill:none;stroke:#8f0000;stroke-width:0.89999998;stroke-linecap:butt;stroke-linejoin:round;stroke-miterlimit:10;stroke-opacity:1;stroke-dasharray:none"
       d="m 72.5,54.4602 3.6,5.8199 3.7199,-5.8199 -3.6,2.1 -3.7199,-2.1 z" /><path
       inkscape:connector-curvature="0"
       id="path10496"
       style="fill:none;stroke:#8f0000;stroke-width:0.89999998;stroke-linecap:butt;stroke-linejoin:bevel;stroke-miterlimit:10;stroke-opacity:1;stroke-dasharray:1.98;stroke-dashoffset:0"
       d="M 26.3,31.3602 26.3602,31.2398 26.5398,31 l 0.2403,-0.4801 0.3597,-0.6 0.4801,-0.7199 0.6,-0.8398 0.6602,-0.9 0.7801,-0.9602 0.9,-0.9602 1.0796,-1.0199 1.2,-1.0801 1.5,-1.1398 1.6801,-1.1398 1.5602,-0.9 1.4398,-0.8403 1.2,-0.6597 0.9602,-0.4801 0.7199,-0.3602 0.5398,-0.2398 0.3602,-0.2403 0.3602,-0.1199 0.3,-0.1801 0.4199,-0.1199 0.5398,-0.1801 0.7801,-0.1796 1.0801,-0.2403 1.3199,-0.3 1.6801,-0.2398 1.8,-0.1801 2.0398,-0.0602 1.8,0 1.4403,0.0602 1.0199,0.0602 1.2,0 0.3597,0.0597 0.3602,0.0602 0.4199,0.0597 0.6602,0.2403 0.9,0.3597 1.2,0.6 1.5,0.8403 1.6199,1.0801 1.3199,1.0796 1.1403,1.0801 0.9,1.0199 0.6597,0.7801 0.4801,0.6602 0.3,0.4801 0.1801,0.4199 0.1199,0.3597 0.0602,0.3602 0.1796,0.4801 0.1801,0.5398 0.3,0.7801 0.4199,1.0199 0.5403,1.2 0.6,1.5 0.6597,1.6801 0.6602,1.8602 0.4199,1.6199 0.3,1.2 0.1801,0.7801 0.0602,0.4199 0,0.2398 -0.0602,0.1199 -0.0602,0.1204 -0.0597,0.2398 -0.0602,0.4801 0.0602,0.9 0.1199,1.3801 0.1199,1.9199 0.1801,2.2801 0.1199,1.8597 0.1199,1.8 0.0602,1.5 0.1199,1.2 0,0.9602 0.0602,0.6597 0.0597,0.4801 0,0.6602 0.0602,0.2398 0,1.7403 0.0602,1.0796 0,3.3 -0.0602,2.2204 0,2.4597 -0.0602,2.2801 -0.0597,2.1602 0,1.9199 -0.0602,1.6199 -0.0597,1.3801 0,1.0801 L 75.8,77.5 l 0,2.8199 -0.0602,0.6602 -0.0597,0.8398 -0.0602,1.0801 -0.1199,1.2602 -0.1199,1.5597 -0.1801,1.8 -0.1801,1.9801 -0.2398,2.0398 -0.3,2.4 -0.3602,2.1 -0.2398,1.6204 -0.1801,1.2 -0.1199,0.8398 -0.1199,0.54 -0.0602,0.3 -0.0602,0.24 -0.0597,0.18 -0.0602,0.24 -0.1199,0.42 -0.1801,0.6 -0.3,0.84 -0.4199,1.08 -0.5398,1.32 -0.6,1.38 -0.7204,1.44 -0.6597,1.14 -0.4801,0.78 -0.3,0.54 -0.1801,0.24 -0.1199,0.12 -0.0602,0 -0.1199,0.06 -0.2398,0.12 -0.4801,0.3 -0.7801,0.48 -1.0801,0.6 -1.3199,0.72 -1.4398,0.66 -1.3199,0.54 -1.1403,0.42 -0.7801,0.3 -0.6,0.24 -0.4199,0.18 -0.3,0.12 -0.3597,0.06 -0.4801,0.12 -0.6602,0.12 -0.9597,0.18 -1.3204,0.12 -1.6796,0.18 -1.9801,0.06 -1.9801,0 -1.7398,-0.12 -1.3801,-0.06 -2.1,0 -0.3602,0.06 -0.3,0 -0.4801,-0.06 -0.6597,-0.18 -0.9602,-0.3 -1.3199,-0.54 -1.6801,-0.72 -1.9199,-1.02 -1.6801,-1.02 -1.5,-1.08 -1.3801,-1.14 -1.2,-1.08 -1.0199,-1.08 -1.0199,-1.08 -0.8398,-1.08 -0.8403,-1.02 -0.7199,-1.02 -0.6602,-0.9 -0.5398,-0.72 -0.3602,-0.66 -0.3,-0.42 -0.1796,-0.24 -0.0602,-0.12" /><path
       inkscape:connector-curvature="0"
       id="path10498"
       style="fill:#8f0000;fill-opacity:1;fill-rule:evenodd;stroke:none"
       d="m 25.7602,109.66 -1.5,-8.04 6.3597,3 -3.7801,0.9" /><path
       inkscape:connector-curvature="0"
       id="path10500"
       style="fill:none;stroke:#8f0000;stroke-width:0.89999998;stroke-linecap:butt;stroke-linejoin:round;stroke-miterlimit:10;stroke-opacity:1;stroke-dasharray:none"
       d="m 25.7602,109.66 -1.5,-8.04 6.3597,3 -3.7801,0.9 -1.0796,4.14 z" /><path
       inkscape:connector-curvature="0"
       id="path10502"
       style="fill:#000000;fill-opacity:1;fill-rule:evenodd;stroke:none"
       d="m 0.680078,66.4 94.439822,0" /><path
       inkscape:connector-curvature="0"
       id="path10504"
       style="fill:none;stroke:#000000;stroke-width:0.44999999;stroke-linecap:butt;stroke-linejoin:round;stroke-miterlimit:10;stroke-opacity:1;stroke-dasharray:none"
       d="m 0.680078,66.4 94.439822,0" /><path
       inkscape:connector-curvature="0"
       id="path10506"
       style="fill:#000000;fill-opacity:1;fill-rule:evenodd;stroke:none"
       d="m 51.0199,3.4 0,126" /><path
       inkscape:connector-curvature="0"
       id="path10508"
       style="fill:none;stroke:#000000;stroke-width:0.44999999;stroke-linecap:butt;stroke-linejoin:round;stroke-miterlimit:10;stroke-opacity:1;stroke-dasharray:none"
       d="m 51.0199,3.4 0,126" /><path
       inkscape:connector-curvature="0"
       id="path10510"
       style="fill:#000000;fill-opacity:1;fill-rule:evenodd;stroke:none"
       d="m 76.2199,66.4 0,37.8" /><path
       inkscape:connector-curvature="0"
       id="path10512"
       style="fill:none;stroke:#000000;stroke-width:0.89999998;stroke-linecap:butt;stroke-linejoin:round;stroke-miterlimit:10;stroke-opacity:1;stroke-dasharray:none"
       d="m 76.2199,66.4 0,37.8" /><path
       inkscape:connector-curvature="0"
       id="path10514"
       style="fill:#000000;fill-opacity:1;fill-rule:evenodd;stroke:none"
       d="m 51.0199,16 25.2,0" /><path
       inkscape:connector-curvature="0"
       id="path10516"
       style="fill:none;stroke:#000000;stroke-width:0.89999998;stroke-linecap:butt;stroke-linejoin:round;stroke-miterlimit:10;stroke-opacity:1;stroke-dasharray:none"
       d="m 51.0199,16 25.2,0" /><path
       inkscape:connector-curvature="0"
       id="path10518"
       style="fill:#000000;fill-opacity:1;fill-rule:evenodd;stroke:none"
       d="m 51.0199,116.8 -25.1398,0" /><path
       inkscape:connector-curvature="0"
       id="path10520"
       style="fill:none;stroke:#000000;stroke-width:0.89999998;stroke-linecap:butt;stroke-linejoin:round;stroke-miterlimit:10;stroke-opacity:1;stroke-dasharray:none"
       d="m 51.0199,116.8 -25.1398,0" /><path
       inkscape:connector-curvature="0"
       id="path10522"
       style="fill:#000000;fill-opacity:1;fill-rule:evenodd;stroke:none"
       d="m 76.2199,104.2 -3.1801,-9.6 3.1204,2.0398 2.4597,-1.5" /><path
       inkscape:connector-curvature="0"
       id="path10524"
       style="fill:none;stroke:#000000;stroke-width:0.89999998;stroke-linecap:butt;stroke-linejoin:round;stroke-miterlimit:10;stroke-opacity:1;stroke-dasharray:none"
       d="m 76.2199,104.2 -3.1801,-9.6 3.1204,2.0398 2.4597,-1.5 -2.4,9.0602 z" /><path
       inkscape:connector-curvature="0"
       id="path10526"
       style="fill:#000000;fill-opacity:1;fill-rule:evenodd;stroke:none"
       d="m 77.4801,15.7602 -8.7602,3.3597 1.5,-3.1801 L 68.9,13" /><path
       inkscape:connector-curvature="0"
       id="path10528"
       style="fill:none;stroke:#000000;stroke-width:0.89999998;stroke-linecap:butt;stroke-linejoin:round;stroke-miterlimit:10;stroke-opacity:1;stroke-dasharray:none"
       d="m 77.4801,15.7602 -8.7602,3.3597 1.5,-3.1801 L 68.9,13 l 8.5801,2.7602 z" /><path
       inkscape:connector-curvature="0"
       id="path10530"
       style="fill:#000000;fill-opacity:1;fill-rule:evenodd;stroke:none"
       d="m 25.2801,116.98 8.7597,2.94 -1.6796,-3.18 0.6,-3" /><path
       inkscape:connector-curvature="0"
       id="path10532"
       style="fill:none;stroke:#000000;stroke-width:0.89999998;stroke-linecap:butt;stroke-linejoin:round;stroke-miterlimit:10;stroke-opacity:1;stroke-dasharray:none"
       d="m 25.2801,116.98 8.7597,2.94 -1.6796,-3.18 0.6,-3 -7.6801,3.24 z" /><path
       inkscape:connector-curvature="0"
       id="path10534"
       style="fill:#8f0000;fill-opacity:1;fill-rule:evenodd;stroke:none"
       d="m 35.7801,25.1801 3,-5.9403 -6.3602,0.7801 3.9602,1.1403" /><path
       inkscape:connector-curvature="0"
       id="path10536"
       style="fill:none;stroke:#8f0000;stroke-width:0.89999998;stroke-linecap:butt;stroke-linejoin:round;stroke-miterlimit:10;stroke-opacity:1;stroke-dasharray:none"
       d="m 35.7801,25.1801 3,-5.9403 -6.3602,0.7801 3.9602,1.1403 -0.6,4.0199 z" /><path
       inkscape:connector-curvature="0"
       id="path10538"
       style="fill:#ffffff;fill-opacity:1;fill-rule:evenodd;stroke:none"
       d="m 52.0398,116.8 c 0,-0.563 -0.4566,-1.02 -1.0199,-1.02 -0.5633,0 -1.0199,0.457 -1.0199,1.02 0,0.563 0.4566,1.02 1.0199,1.02 0.5633,0 1.0199,-0.457 1.0199,-1.02" /><path
       inkscape:connector-curvature="0"
       id="path10540"
       style="fill:none;stroke:#000000;stroke-width:0.44999999;stroke-linecap:butt;stroke-linejoin:round;stroke-miterlimit:10;stroke-opacity:1;stroke-dasharray:none"
       d="m 52.0398,116.8 c 0,-0.563 -0.4566,-1.02 -1.0199,-1.02 -0.5633,0 -1.0199,0.457 -1.0199,1.02 0,0.563 0.4566,1.02 1.0199,1.02 0.5633,0 1.0199,-0.457 1.0199,-1.02 z" /><path
       inkscape:connector-curvature="0"
       id="path10542"
       style="fill:#ffffff;fill-opacity:1;fill-rule:evenodd;stroke:none"
       d="m 52.0398,41.2 c 0,-0.5633 -0.4566,-1.0199 -1.0199,-1.0199 C 50.4566,40.1801 50,40.6367 50,41.2 c 0,0.5633 0.4566,1.0199 1.0199,1.0199 0.5633,0 1.0199,-0.4566 1.0199,-1.0199" /><path
       inkscape:connector-curvature="0"
       id="path10544"
       style="fill:none;stroke:#000000;stroke-width:0.44999999;stroke-linecap:butt;stroke-linejoin:round;stroke-miterlimit:10;stroke-opacity:1;stroke-dasharray:none"
       d="m 52.0398,41.2 c 0,-0.5633 -0.4566,-1.0199 -1.0199,-1.0199 C 50.4566,40.1801 50,40.6367 50,41.2 c 0,0.5633 0.4566,1.0199 1.0199,1.0199 0.5633,0 1.0199,-0.4566 1.0199,-1.0199 z" /><path
       inkscape:connector-curvature="0"
       id="path10546"
       style="fill:#ffffff;fill-opacity:1;fill-rule:evenodd;stroke:none"
       d="m 52.0398,91.6 c 0,-0.5633 -0.4566,-1.0199 -1.0199,-1.0199 C 50.4566,90.5801 50,91.0367 50,91.6 c 0,0.5633 0.4566,1.0199 1.0199,1.0199 0.5633,0 1.0199,-0.4566 1.0199,-1.0199" /><path
       inkscape:connector-curvature="0"
       id="path10548"
       style="fill:none;stroke:#000000;stroke-width:0.44999999;stroke-linecap:butt;stroke-linejoin:round;stroke-miterlimit:10;stroke-opacity:1;stroke-dasharray:none"
       d="m 52.0398,91.6 c 0,-0.5633 -0.4566,-1.0199 -1.0199,-1.0199 C 50.4566,90.5801 50,91.0367 50,91.6 c 0,0.5633 0.4566,1.0199 1.0199,1.0199 0.5633,0 1.0199,-0.4566 1.0199,-1.0199 z" /><path
       inkscape:connector-curvature="0"
       id="path10550"
       style="fill:#ffffff;fill-opacity:1;fill-rule:evenodd;stroke:none"
       d="m 77.2398,66.4 c 0,-0.5633 -0.4566,-1.0199 -1.0199,-1.0199 -0.5633,0 -1.0199,0.4566 -1.0199,1.0199 0,0.5633 0.4566,1.0199 1.0199,1.0199 0.5633,0 1.0199,-0.4566 1.0199,-1.0199" /><path
       inkscape:connector-curvature="0"
       id="path10552"
       style="fill:none;stroke:#000000;stroke-width:0.44999999;stroke-linecap:butt;stroke-linejoin:round;stroke-miterlimit:10;stroke-opacity:1;stroke-dasharray:none"
       d="m 77.2398,66.4 c 0,-0.5633 -0.4566,-1.0199 -1.0199,-1.0199 -0.5633,0 -1.0199,0.4566 -1.0199,1.0199 0,0.5633 0.4566,1.0199 1.0199,1.0199 0.5633,0 1.0199,-0.4566 1.0199,-1.0199 z" /><path
       inkscape:connector-curvature="0"
       id="path10554"
       style="fill:#ffffff;fill-opacity:1;fill-rule:evenodd;stroke:none"
       d="m 52.0398,16 c 0,-0.5633 -0.4566,-1.0199 -1.0199,-1.0199 C 50.4566,14.9801 50,15.4367 50,16 c 0,0.5633 0.4566,1.0199 1.0199,1.0199 0.5633,0 1.0199,-0.4566 1.0199,-1.0199" /><path
       inkscape:connector-curvature="0"
       id="path10556"
       style="fill:none;stroke:#000000;stroke-width:0.44999999;stroke-linecap:butt;stroke-linejoin:round;stroke-miterlimit:10;stroke-opacity:1;stroke-dasharray:none"
       d="m 52.0398,16 c 0,-0.5633 -0.4566,-1.0199 -1.0199,-1.0199 C 50.4566,14.9801 50,15.4367 50,16 c 0,0.5633 0.4566,1.0199 1.0199,1.0199 0.5633,0 1.0199,-0.4566 1.0199,-1.0199 z" /><text
       xml:space="preserve"
       style="font-size:8px;font-style:normal;font-variant:normal;font-weight:normal;font-stretch:normal;text-align:start;line-height:125%;letter-spacing:0px;word-spacing:0px;writing-mode:lr-tb;text-anchor:start;fill:#000000;fill-opacity:1;stroke:none;font-family:Linux Biolinum O;-inkscape-font-specification:Linux Biolinum O"
       x="18.200636"
       y="-114.14368"
       id="text10765"
       sodipodi:linespacing="125%"
       transform="scale(1,-1)"><tspan
         sodipodi:role="line"
         id="tspan10767"
         x="18.200636"
         y="-114.14368">$\vx'(1) = \tvek-2\\0\ttor$</tspan></text>
<text
       transform="scale(1,-1)"
       sodipodi:linespacing="125%"
       id="text10769"
       y="-82.1437"
       x="80.600639"
       style="font-size:8px;font-style:normal;font-variant:normal;font-weight:normal;font-stretch:normal;text-align:start;line-height:125%;letter-spacing:0px;word-spacing:0px;writing-mode:lr-tb;text-anchor:start;fill:#000000;fill-opacity:1;stroke:none;font-family:Linux Biolinum O;-inkscape-font-specification:Linux Biolinum O"
       xml:space="preserve"><tspan
         y="-82.1437"
         x="80.600639"
         id="tspan10771"
         sodipodi:role="line">$\vx'(0) = \tvek0\\3\ttor$</tspan></text>
<text
       xml:space="preserve"
       style="font-size:8px;font-style:normal;font-variant:normal;font-weight:normal;font-stretch:normal;text-align:start;line-height:125%;letter-spacing:0px;word-spacing:0px;writing-mode:lr-tb;text-anchor:start;fill:#000000;fill-opacity:1;stroke:none;font-family:Linux Biolinum O;-inkscape-font-specification:Linux Biolinum O"
       x="80.600639"
       y="-14.943701"
       id="text10773"
       sodipodi:linespacing="125%"
       transform="scale(1,-1)"><tspan
         sodipodi:role="line"
         id="tspan10775"
         x="80.600639"
         y="-14.943701">$\vx'(-1) = \tvek2\\0\ttor$</tspan></text>
<text
       xml:space="preserve"
       style="font-size:8px;font-style:normal;font-variant:normal;font-weight:normal;font-stretch:normal;text-align:start;line-height:125%;letter-spacing:0px;word-spacing:0px;writing-mode:lr-tb;text-anchor:start;fill:#000000;fill-opacity:1;stroke:none;font-family:Linux Biolinum O;-inkscape-font-specification:Linux Biolinum O"
       x="54.972145"
       y="-90.069618"
       id="text10777"
       sodipodi:linespacing="125%"
       transform="scale(1,-1)"><tspan
         sodipodi:role="line"
         id="tspan10779"
         x="54.972145"
         y="-90.069618">$1$</tspan></text>
<text
       xml:space="preserve"
       style="font-size:8px;font-style:normal;font-variant:normal;font-weight:normal;font-stretch:normal;text-align:start;line-height:125%;letter-spacing:0px;word-spacing:0px;writing-mode:lr-tb;text-anchor:start;fill:#000000;fill-opacity:1;stroke:none;font-family:Linux Biolinum O;-inkscape-font-specification:Linux Biolinum O"
       x="67.846207"
       y="-69.025314"
       id="text10781"
       sodipodi:linespacing="125%"
       transform="scale(1,-1)"><tspan
         sodipodi:role="line"
         id="tspan10783"
         x="67.846207"
         y="-69.025314">$1$</tspan></text>
<text
       transform="scale(1,-1)"
       sodipodi:linespacing="125%"
       id="text10785"
       y="-37.269623"
       x="54.972141"
       style="font-size:8px;font-style:normal;font-variant:normal;font-weight:normal;font-stretch:normal;text-align:start;line-height:125%;letter-spacing:0px;word-spacing:0px;writing-mode:lr-tb;text-anchor:start;fill:#000000;fill-opacity:1;stroke:none;font-family:Linux Biolinum O;-inkscape-font-specification:Linux Biolinum O"
       xml:space="preserve"><tspan
         y="-37.269623"
         x="54.972141"
         id="tspan10787"
         sodipodi:role="line">$-1$</tspan></text>
<text
       transform="scale(1,-1)"
       sodipodi:linespacing="125%"
       id="text10789"
       y="-118.86961"
       x="54.972145"
       style="font-size:8px;font-style:normal;font-variant:normal;font-weight:normal;font-stretch:normal;text-align:start;line-height:125%;letter-spacing:0px;word-spacing:0px;writing-mode:lr-tb;text-anchor:start;fill:#000000;fill-opacity:1;stroke:none;font-family:Linux Biolinum O;-inkscape-font-specification:Linux Biolinum O"
       xml:space="preserve"><tspan
         y="-118.86961"
         x="54.972145"
         id="tspan10791"
         sodipodi:role="line">$2$</tspan></text>
<text
       xml:space="preserve"
       style="font-size:8px;font-style:normal;font-variant:normal;font-weight:normal;font-stretch:normal;text-align:start;line-height:125%;letter-spacing:0px;word-spacing:0px;writing-mode:lr-tb;text-anchor:start;fill:#000000;fill-opacity:1;stroke:none;font-family:Linux Biolinum O;-inkscape-font-specification:Linux Biolinum O"
       x="54.972145"
       y="-6.8696136"
       id="text10793"
       sodipodi:linespacing="125%"
       transform="scale(1,-1)"><tspan
         sodipodi:role="line"
         id="tspan10795"
         x="54.972145"
         y="-6.8696136">$-2$</tspan></text>
</g></svg>