<?xml version="1.0" encoding="UTF-8" standalone="no"?>
<!-- Created with Inkscape (http://www.inkscape.org/) -->

<svg
   xmlns:dc="http://purl.org/dc/elements/1.1/"
   xmlns:cc="http://creativecommons.org/ns#"
   xmlns:rdf="http://www.w3.org/1999/02/22-rdf-syntax-ns#"
   xmlns:svg="http://www.w3.org/2000/svg"
   xmlns="http://www.w3.org/2000/svg"
   xmlns:sodipodi="http://sodipodi.sourceforge.net/DTD/sodipodi-0.dtd"
   xmlns:inkscape="http://www.inkscape.org/namespaces/inkscape"
   id="svg4129"
   version="1.1"
   inkscape:version="0.48.1 r9760"
   width="348.21884"
   height="303.97095"
   xml:space="preserve"
   sodipodi:docname="06helix.pdf"><metadata
     id="metadata4135"><rdf:RDF><cc:Work
         rdf:about=""><dc:format>image/svg+xml</dc:format><dc:type
           rdf:resource="http://purl.org/dc/dcmitype/StillImage" /><dc:title></dc:title></cc:Work></rdf:RDF></metadata><defs
     id="defs4133"><clipPath
       clipPathUnits="userSpaceOnUse"
       id="clipPath4149"><path
         d="M 0,2110 0,0 l 2010,0 0,2110 -2010,0 z m 1685.8,-1585.398 27,0 0,31.199 -13.2,-18 -13.8,18 0,-31.199 z m 27,147.597 -27,0 0,-31.199 13.8,18 13.2,-18 0,31.199 z"
         clip-rule="evenodd"
         id="path4151"
         inkscape:connector-curvature="0" /></clipPath><clipPath
       clipPathUnits="userSpaceOnUse"
       id="clipPath4215"><path
         d="M 0,2110 0,0 l 2010,0 0,2110 -2010,0 z m 1270.6,-1867.398 -25.8,7.796 -9,-29.398 18.6,13.199 7.2,-21 9,29.403 z"
         clip-rule="evenodd"
         id="path4217"
         inkscape:connector-curvature="0" /></clipPath></defs><sodipodi:namedview
     pagecolor="#ffffff"
     bordercolor="#666666"
     borderopacity="1"
     objecttolerance="10"
     gridtolerance="10"
     guidetolerance="10"
     inkscape:pageopacity="0"
     inkscape:pageshadow="2"
     inkscape:window-width="785"
     inkscape:window-height="648"
     id="namedview4131"
     showgrid="false"
     fit-margin-top="0"
     fit-margin-left="0"
     fit-margin-right="0"
     fit-margin-bottom="0"
     inkscape:zoom="1.5922574"
     inkscape:cx="163.11874"
     inkscape:cy="151.98547"
     inkscape:window-x="0"
     inkscape:window-y="0"
     inkscape:window-maximized="0"
     inkscape:current-layer="g4137" /><g
     id="g4137"
     inkscape:groupmode="layer"
     inkscape:label="ink_ext_XXXXXX"
     transform="matrix(1.25,0,0,-1.25,63.937578,287.6272)"><path
       id="path4141"
       style="fill:#000000;fill-opacity:1;fill-rule:evenodd;stroke:none"
       d="m 117.04,51.9801 -1.8,-3.1801 2.4,0.8398 2.58,-0.4796"
       inkscape:connector-curvature="0" /><path
       id="path4143"
       style="fill:none;stroke:#000000;stroke-width:0.44999999;stroke-linecap:butt;stroke-linejoin:round;stroke-miterlimit:10;stroke-opacity:1;stroke-dasharray:none"
       d="m 117.04,51.9801 -1.8,-3.1801 2.4,0.8398 2.58,-0.4796 -3.18,2.8199 z"
       inkscape:connector-curvature="0" /><path
       id="path4153"
       style="fill:#000000;fill-opacity:1;fill-rule:evenodd;stroke:none"
       d="m 169.96,66.3199 0,-12.9597"
       inkscape:connector-curvature="0" /><path
       id="path4155"
       style="fill:none;stroke:#000000;stroke-width:0.44999999;stroke-linecap:butt;stroke-linejoin:round;stroke-miterlimit:10;stroke-opacity:1;stroke-dasharray:0.9, 1.38;stroke-dashoffset:1.38"
       d="m 169.96,66.3199 0,-12.9597"
       inkscape:connector-curvature="0" /><path
       id="path4157"
       style="fill:none;stroke:#000000;stroke-width:0.44999999;stroke-linecap:butt;stroke-linejoin:miter;stroke-miterlimit:10;stroke-opacity:1;stroke-dasharray:none"
       d="m 171.28,64.1 -1.32,1.8 -1.38,-1.8"
       inkscape:connector-curvature="0" /><path
       id="path4159"
       style="fill:none;stroke:#000000;stroke-width:0.44999999;stroke-linecap:butt;stroke-linejoin:miter;stroke-miterlimit:10;stroke-opacity:1;stroke-dasharray:none"
       d="m 168.58,55.5801 1.38,-1.8 1.32,1.8"
       inkscape:connector-curvature="0" /><path
       id="path4161"
       style="fill:#000000;fill-opacity:1;fill-rule:evenodd;stroke:none"
       d="m 141.4,67.0398 36,0"
       inkscape:connector-curvature="0" /><path
       id="path4163"
       style="fill:none;stroke:#000000;stroke-width:0.44999999;stroke-linecap:butt;stroke-linejoin:round;stroke-miterlimit:10;stroke-opacity:1;stroke-dasharray:3.6;stroke-dashoffset:0"
       d="m 141.4,67.0398 36,0"
       inkscape:connector-curvature="0" /><path
       id="path4165"
       style="fill:#000000;fill-opacity:1;fill-rule:evenodd;stroke:none"
       d="m 141.76,52.5199 36.18,0"
       inkscape:connector-curvature="0" /><path
       id="path4167"
       style="fill:none;stroke:#000000;stroke-width:0.44999999;stroke-linecap:butt;stroke-linejoin:round;stroke-miterlimit:10;stroke-opacity:1;stroke-dasharray:3.6;stroke-dashoffset:0"
       d="m 141.76,52.5199 36.18,0"
       inkscape:connector-curvature="0" /><path
       id="path4169"
       style="fill:none;stroke:#000000;stroke-width:0.44960000000000000;stroke-linecap:round;stroke-linejoin:miter;stroke-miterlimit:10;stroke-opacity:1;stroke-dasharray:none"
       d="m 74.4398,52.3398 0,170"
       inkscape:connector-curvature="0" /><path
       id="path4183"
       style="fill:none;stroke:#000000;stroke-width:0.44999999;stroke-linecap:butt;stroke-linejoin:miter;stroke-miterlimit:10;stroke-opacity:1;stroke-dasharray:none"
       d="M 41.2,34.4602 45.3398,33.1398 49.6,32 53.9801,30.8 58.4199,29.7199 62.9801,28.7602 67.5398,27.8 72.1,27.0199 l 4.5602,-0.6597 4.5597,-0.6 4.5602,-0.4801 4.5597,-0.3602 4.4403,-0.2398 4.3801,-0.1801 4.2598,-0.0602 4.14,0.0602 3.96,0.1801 3.9,0.3 3.78,0.4199 3.48,0.4801 3.42,0.5398 3.06,0.7199 2.94,0.7801 2.7,0.9602 2.52,0.9597 2.16,1.0801 1.98,1.1403 1.68,1.2597 1.44,1.2602 1.08,1.4398 0.84,1.5 0.6,1.4403 0.3,1.5597 0,1.6199 -0.3,1.6801 -0.6,1.6199 -0.84,1.7403 -1.08,1.7398 -1.44,1.7403 -1.68,1.7398 -1.98,1.7398 -2.16,1.7403 -2.52,1.6801 -2.7,1.7398 -2.94,1.6199 -3.06,1.6801 -3.42,1.6199 -3.48,1.5602 -3.78,1.4398 -3.9,1.5 -3.96,1.4403 -4.14,1.2597 -4.2598,1.2602 -4.3801,1.1398 -4.4403,1.0801 -4.5597,0.9602 -4.5602,0.9 -4.5597,0.7796 L 72.1,78.2 l -4.5602,0.6 -4.5597,0.4801 -4.5602,0.3597 -4.4398,0.3 L 49.6,80.0602 45.3398,80.1199 41.2,80.0602 37.1801,79.8199 33.3398,79.6398 29.5602,79.2801 26.0801,78.8 22.6602,78.0801 19.5398,77.4199 16.6602,76.6398 13.9602,75.8 11.4398,74.7199 9.28008,73.6398 7.23984,72.5 5.61992,71.3 4.18008,69.9801 3.1,68.6 2.2,67.1602 1.66016,65.6 l -0.3,-1.5602 0,-1.6199 0.3,-1.6801 L 2.2,59.1199 3.1,57.3801 4.18008,55.7 5.61992,53.9602 7.23984,52.2199 9.28008,50.4801 11.4398,48.7398 13.9602,47 l 2.7,-1.7398 2.8796,-1.6801 3.1204,-1.6199 3.4199,-1.6801 3.4801,-1.5 3.7796,-1.5 3.8403,-1.4403 L 41.2,34.4602 45.3398,33.1398 49.6,32 53.9801,30.8 58.4199,29.7199 62.9801,28.7602 67.5398,27.8 72.1,27.0199 l 4.5602,-0.6597 4.5597,-0.6 4.5602,-0.4801 4.5597,-0.3602 4.4403,-0.2398 4.3801,-0.1801 4.2598,-0.0602 4.14,0.0602 3.96,0.1801 3.9,0.3 3.78,0.4199 3.48,0.4801 3.42,0.5398 3.06,0.7199 2.94,0.7801 2.7,0.9602 2.52,0.9597 2.16,1.0801 1.98,1.1403 1.68,1.2597 1.44,1.2602 1.08,1.4398 0.84,1.5 0.6,1.4403 0.3,1.5597 0,1.6199 -0.3,1.6801 -0.6,1.6199 -0.84,1.7403 -1.08,1.7398 -1.44,1.7403 -1.68,1.7398 -1.98,1.7398 -2.16,1.7403 -2.52,1.6801 -2.7,1.7398 -2.94,1.6199 -3.06,1.6801 -3.42,1.6199 -3.48,1.5602 -3.78,1.4398 -3.9,1.5 -3.96,1.4403 -4.14,1.2597 -4.2598,1.2602 -4.3801,1.1398 -4.4403,1.0801 -4.5597,0.9602 -4.5602,0.9 -4.5597,0.7796 L 72.1,78.2 l -4.5602,0.6 -4.5597,0.4801 -4.5602,0.3597 -4.4398,0.3 L 49.6,80.0602 45.3398,80.1199 41.2,80.0602 37.1801,79.8199 33.3398,79.6398 29.5602,79.2801 26.0801,78.8 22.6602,78.0801 19.5398,77.4199 16.6602,76.6398 13.9602,75.8 11.4398,74.7199 9.28008,73.6398 7.23984,72.5 5.61992,71.3 4.18008,69.9801 3.1,68.6 2.2,67.1602 1.66016,65.6 l -0.3,-1.5602 0,-1.6199 0.3,-1.6801 L 2.2,59.1199 3.1,57.3801 4.18008,55.7 5.61992,53.9602 7.23984,52.2199 9.28008,50.4801 11.4398,48.7398 13.9602,47 l 2.7,-1.7398 2.8796,-1.6801 3.1204,-1.6199 3.4199,-1.6801 3.4801,-1.5 3.7796,-1.5 3.8403,-1.4403 L 41.2,34.4602 45.3398,33.1398 49.6,32 53.9801,30.8 58.4199,29.7199 62.9801,28.7602 67.5398,27.8 72.1,27.0199 l 4.5602,-0.6597 4.5597,-0.6 4.5602,-0.4801 4.5597,-0.3602 4.4403,-0.2398 4.3801,-0.1801 4.2598,-0.0602 4.14,0.0602 3.96,0.1801 3.9,0.3 3.78,0.4199 3.48,0.4801 3.42,0.5398"
       inkscape:connector-curvature="0" /><text
       transform="scale(1,-1)"
       id="text4187"
       x="67.380112"
       y="-227.64009"><tspan
         style="font-size:10.80000019px;font-variant:normal;font-weight:normal;writing-mode:lr-tb;fill:#000000;fill-opacity:1;fill-rule:nonzero;stroke:none;font-family:Times;-inkscape-font-specification:Times-Roman"
         x="67.380112"
         y="-227.64009"
         sodipodi:role="line"
         id="tspan4189">$x_3$</tspan></text>
<path
       id="path4191"
       style="fill:none;stroke:#000000;stroke-width:0.44999999;stroke-linecap:butt;stroke-linejoin:bevel;stroke-miterlimit:10;stroke-opacity:1;stroke-dasharray:none"
       d="m 104.74,37.3398 0.18,0.0602 0.42,0.0602 0.6,0.1796 0.72,0.2403 0.84,0.3 0.9,0.3597 1.02,0.4801 1.14,0.6 1.26,0.7801 1.2,0.8398 0.9,0.7204 0.6,0.4796 0.36,0.3 0.3,0.1801 0.24,0.1801 0.3,0.3 0.42,0.5398 0.54,0.9 0.6,1.0801 0.42,1.1403 0.18,1.0199 0,0.9 -0.06,0.7801 -0.18,0.7199 -0.18,0.6597 -0.24,0.4801 -0.12,0.3 -0.06,0.1801"
       inkscape:connector-curvature="0" /><path
       id="path4193"
       style="fill:#ffffff;fill-opacity:1;fill-rule:evenodd;stroke:none"
       d="m 76.7801,94.4602 c 0,-1.3254 -1.0746,-2.4 -2.4,-2.4 -1.3254,0 -2.4,1.0746 -2.4,2.4 0,1.3253 1.0746,2.4 2.4,2.4 1.3254,0 2.4,-1.0747 2.4,-2.4"
       inkscape:connector-curvature="0" /><path
       id="path4195"
       style="fill:#ffffff;fill-opacity:1;fill-rule:evenodd;stroke:none"
       d="m 149.62,45.0801 c 0,-1.5574 -1.263,-2.8199 -2.82,-2.8199 -1.557,0 -2.82,1.2625 -2.82,2.8199 0,1.5574 1.263,2.8199 2.82,2.8199 1.557,0 2.82,-1.2625 2.82,-2.8199"
       inkscape:connector-curvature="0" /><path
       id="path4197"
       style="fill:#ffffff;fill-opacity:1;fill-rule:evenodd;stroke:none"
       d="m 118.6,66.7398 c 0,-1.5902 -1.29,-2.8796 -2.88,-2.8796 -1.59,0 -2.88,1.2894 -2.88,2.8796 0,1.5903 1.29,2.8801 2.88,2.8801 1.59,0 2.88,-1.2898 2.88,-2.8801"
       inkscape:connector-curvature="0" /><path
       id="path4199"
       style="fill:#ffffff;fill-opacity:1;fill-rule:evenodd;stroke:none"
       d="m 77.8,171.92 c 0,-1.889 -1.5312,-3.42 -3.4199,-3.42 -1.8887,0 -3.4199,1.531 -3.4199,3.42 0,1.889 1.5312,3.42 3.4199,3.42 1.8887,0 3.4199,-1.531 3.4199,-3.42"
       inkscape:connector-curvature="0" /><text
       transform="scale(1,-1)"
       id="text4203"
       x="112.36"
       y="0.039843801"><tspan
         style="font-size:10.80000019px;font-variant:normal;font-weight:normal;writing-mode:lr-tb;fill:#000000;fill-opacity:1;fill-rule:nonzero;stroke:none;font-family:Times;-inkscape-font-specification:Times-Roman"
         x="112.36"
         y="0.039843801"
         sodipodi:role="line"
         id="tspan4205">$\theta=0$</tspan></text>
<path
       id="path4207"
       style="fill:#000000;fill-opacity:1;fill-rule:evenodd;stroke:none"
       d="m 126.46,26.6 -0.48,154.86"
       inkscape:connector-curvature="0" /><path
       id="path4209"
       style="fill:none;stroke:#000000;stroke-width:0.44999999;stroke-linecap:butt;stroke-linejoin:round;stroke-miterlimit:10;stroke-opacity:1;stroke-dasharray:0.9, 1.38;stroke-dashoffset:1.38"
       d="m 126.46,26.6 -0.48,154.86"
       inkscape:connector-curvature="0" /><path
       id="path4219"
       style="fill:#000000;fill-opacity:1;fill-rule:evenodd;stroke:none"
       d="m 121.12,9.01992 4.44,14.76018"
       inkscape:connector-curvature="0" /><path
       id="path4221"
       style="fill:none;stroke:#000000;stroke-width:0.44999999;stroke-linecap:butt;stroke-linejoin:round;stroke-miterlimit:10;stroke-opacity:1;stroke-dasharray:none"
       d="m 121.12,9.01992 4.44,14.76018"
       inkscape:connector-curvature="0" /><path
       id="path4223"
       style="fill:none;stroke:#000000;stroke-width:0.44999999;stroke-linecap:butt;stroke-linejoin:miter;stroke-miterlimit:10;stroke-opacity:1;stroke-dasharray:none"
       d="m 126.16,21.3199 -0.72,2.1 -1.86,-1.3199"
       inkscape:connector-curvature="0" /><text
       transform="scale(1,-1)"
       id="text4227"
       x="129.03999"
       y="-187.22"><tspan
         style="font-size:10.80000019px;font-variant:normal;font-weight:normal;writing-mode:lr-tb;fill:#000000;fill-opacity:1;fill-rule:nonzero;stroke:none;font-family:Times;-inkscape-font-specification:Times-Roman"
         x="129.03999"
         y="-187.22"
         sodipodi:role="line"
         id="tspan4231">$\theta=4\pi$</tspan></text>
<path
       id="path4233"
       style="fill:none;stroke:#000000;stroke-width:0.89999998;stroke-linecap:round;stroke-linejoin:miter;stroke-miterlimit:10;stroke-opacity:1;stroke-dasharray:none"
       d="m 62.9801,110.3 -4.5602,1.14 -4.4398,1.08 -4.3801,0.84 -4.2602,0.9 -4.1398,0.66 -4.0199,0.6 -3.8403,0.6 -3.7796,0.36 -3.4801,0.3 -3.4199,0.06 -3.1204,0.12 -2.8796,0 -2.7,-0.12 -2.5204,-0.24 -2.15972,-0.3 -2.04024,-0.42 -1.61992,-0.36 -1.43984,-0.6 -1.08008,-0.6 -0.9,-0.66 -0.53984,-0.78 -0.3,-0.78 0,-0.84 0.3,-0.9 0.53984,-0.84 0.9,-0.96 1.08008,-0.9 1.43984,-0.96 1.61992,-0.96 2.04024,-0.96 2.15972,-1.02 2.5204,-0.96 2.7,-0.96 2.8796,-0.84 3.1204,-0.9 3.4199,-0.9 3.4801,-0.7199 3.7796,-0.7199 L 37.1801,97.1 41.2,96.5 45.3398,95.9602 49.6,95.5398 l 4.3801,-0.3597 4.4398,-0.3 4.5602,-0.1801 4.5597,-0.2398 4.5602,0 4.5602,0.1199 4.5597,0.1801 4.5602,0.3 4.5597,0.3597 4.4403,0.6 4.3801,0.6 4.2598,0.6602 4.14,0.9 3.96,0.9597 3.9,1.0802 3.78,1.14 3.48,1.26 3.42,1.38 3.06,1.44 2.94,1.56 2.7,1.74 2.52,1.74 2.16,1.86 1.98,1.92 1.68,2.04 1.44,2.04 1.08,2.22 0.84,2.22 0.6,2.22 0.3,2.34 0,2.4 -0.3,2.46 -0.6,2.4 -0.84,2.52 -1.08,2.52 -1.44,2.52 -1.68,2.52 -1.98,2.52 -2.16,2.52 -2.52,2.4 -2.7,2.52 -2.94,2.46 -3.06,2.4 -3.42,2.46 -3.48,2.28 -3.78,2.22 -3.9,2.28 -3.96,2.22 -4.14,2.04"
       inkscape:connector-curvature="0" /><path
       id="path4235"
       style="fill:none;stroke:#000000;stroke-width:0.89999998;stroke-linecap:round;stroke-linejoin:miter;stroke-miterlimit:10;stroke-opacity:1;stroke-dasharray:none"
       d="m 67.5398,186.56 -4.5597,1.26 -4.5602,1.14 -4.4398,1.08 -4.3801,0.84 -4.2602,0.9 -4.1398,0.66 -4.0199,0.6 -3.8403,0.6 -3.7796,0.36 -3.4801,0.3 -3.4199,0.12 -3.1204,0.06 -2.8796,0 -2.7,-0.06 -2.5204,-0.3 -2.15972,-0.3 L 7.23984,193.4 5.61992,193.04 4.18008,192.44 3.1,191.9 2.2,191.18 1.66016,190.4 l -0.3,-0.78 0,-0.84 0.3,-0.9 0.53984,-0.84 0.9,-0.96 1.08008,-0.9 1.43984,-0.96 1.61992,-0.96 2.04024,-0.96 2.15972,-0.96 2.5204,-1.02 2.7,-0.96 2.8796,-0.84 3.1204,-0.9 3.4199,-0.84 3.4801,-0.78 3.7796,-0.72 3.8403,-0.66 4.0199,-0.6 4.1398,-0.54 4.2602,-0.42 4.3801,-0.36 4.4398,-0.3 4.5602,-0.18 4.5597,-0.18 4.5602,0 4.5602,0.06 4.5597,0.18 4.5602,0.3 4.5597,0.42 4.4403,0.54 4.3801,0.6 4.2598,0.66 4.14,0.9 3.96,0.96 3.9,1.08 3.78,1.14 3.48,1.26 3.42,1.38"
       inkscape:connector-curvature="0" /><path
       id="path4237"
       style="fill:none;stroke:#000000;stroke-width:0.89999998;stroke-linecap:round;stroke-linejoin:miter;stroke-miterlimit:10;stroke-opacity:1;stroke-dasharray:none"
       d="m 94.7801,99.4398 -4.4403,1.8002 -4.5597,1.74 -4.5602,1.68"
       inkscape:connector-curvature="0" /><path
       id="path4239"
       style="fill:none;stroke:#000000;stroke-width:0.89999998;stroke-linecap:round;stroke-linejoin:miter;stroke-miterlimit:10;stroke-opacity:1;stroke-dasharray:none"
       d="m 41.2,18.9801 4.1398,-0.6 4.2602,-0.3602 4.3801,-0.4199 4.4398,-0.2398 4.5602,-0.2403 4.5597,-0.1801 4.5602,0 4.5602,0.1204 4.5597,0.1796 4.5602,0.3 4.5597,0.3602 4.4403,0.6 4.3801,0.6 4.2598,0.6602 4.14,0.9 3.96,0.9597 3.9,1.0199 3.78,1.2 3.48,1.2602 3.42,1.3199 3.06,1.5 2.94,1.5602 2.7,1.7398 2.52,1.7403 2.16,1.8 1.98,1.9796 1.68,2.0403 1.44,1.9801 1.08,2.2796 0.84,2.2204 0.6,2.2199 0.3,2.3398 0,2.4 -0.3,2.4 -0.6,2.4602 -0.84,2.5199 -1.08,2.5199 -1.44,2.5199 -1.68,2.5204 -1.98,2.5199 -2.16,2.5199 -2.52,2.4 -2.7,2.5199 -2.94,2.4602 -3.06,2.4 -3.42,2.4 -3.48,2.3398 -3.78,2.2199 -3.9,2.2204 -3.96,2.2796 -4.14,1.9801"
       inkscape:connector-curvature="0" /><path
       id="path4241"
       style="fill:none;stroke:#000000;stroke-width:0.44999999;stroke-linecap:butt;stroke-linejoin:miter;stroke-miterlimit:10;stroke-opacity:1;stroke-dasharray:none"
       d="M 74.4398,52.3398 141.46,52.4 l 0,14.7602 -67.0202,0"
       inkscape:connector-curvature="0" /><path
       id="path4243"
       style="fill:none;stroke:#000000;stroke-width:0.44999999;stroke-linecap:butt;stroke-linejoin:miter;stroke-miterlimit:10;stroke-opacity:1;stroke-dasharray:none"
       d="M 12.4,39.9199 163.06,70.2801"
       inkscape:connector-curvature="0" /><path
       id="path4245"
       style="fill:none;stroke:#000000;stroke-width:0.44999999;stroke-linecap:butt;stroke-linejoin:miter;stroke-miterlimit:10;stroke-opacity:1;stroke-dasharray:none"
       d="M 22.6602,78.0801 141.58,18.6801"
       inkscape:connector-curvature="0" /><path
       id="path4247"
       style="fill:none;stroke:#000000;stroke-width:0.44999999;stroke-linecap:round;stroke-linejoin:miter;stroke-miterlimit:10;stroke-opacity:1;stroke-dasharray:0.9, 2.7;stroke-dashoffset:2.7"
       d="M 22.6602,116.4801 73.970834,90.968984"
       inkscape:connector-curvature="0"
       sodipodi:nodetypes="cc" /><path
       id="path4249"
       style="fill:none;stroke:#000000;stroke-width:0.89999998;stroke-linecap:round;stroke-linejoin:miter;stroke-miterlimit:10;stroke-opacity:1;stroke-dasharray:none"
       d="m 94.7801,176.96 -4.4403,1.86 -4.5597,1.74 -4.5602,1.62"
       inkscape:connector-curvature="0" /><path
       id="path4251"
       style="fill:#ffffff;fill-opacity:1;fill-rule:evenodd;stroke:none"
       d="m 127.42,181.58 c 0,-0.795 -0.645,-1.44 -1.44,-1.44 -0.795,0 -1.44,0.645 -1.44,1.44 0,0.795 0.645,1.44 1.44,1.44 0.795,0 1.44,-0.645 1.44,-1.44"
       inkscape:connector-curvature="0" /><path
       id="path4253"
       style="fill:none;stroke:#000000;stroke-width:0.44999999;stroke-linecap:round;stroke-linejoin:miter;stroke-miterlimit:10;stroke-opacity:1;stroke-dasharray:none"
       d="m 127.42,181.58 c 0,-0.795 -0.645,-1.44 -1.44,-1.44 -0.795,0 -1.44,0.645 -1.44,1.44 0,0.795 0.645,1.44 1.44,1.44 0.795,0 1.44,-0.645 1.44,-1.44 z"
       inkscape:connector-curvature="0" /><path
       id="path4255"
       style="fill:#ffffff;fill-opacity:1;fill-rule:evenodd;stroke:none"
       d="m 127.66,26.4199 c 0,-0.7949 -0.645,-1.4398 -1.44,-1.4398 -0.795,0 -1.44,0.6449 -1.44,1.4398 0,0.7949 0.645,1.4403 1.44,1.4403 0.795,0 1.44,-0.6454 1.44,-1.4403"
       inkscape:connector-curvature="0" /><path
       id="path4257"
       style="fill:none;stroke:#000000;stroke-width:0.44999999;stroke-linecap:round;stroke-linejoin:miter;stroke-miterlimit:10;stroke-opacity:1;stroke-dasharray:none"
       d="m 127.66,26.4199 c 0,-0.7949 -0.645,-1.4398 -1.44,-1.4398 -0.795,0 -1.44,0.6449 -1.44,1.4398 0,0.7949 0.645,1.4403 1.44,1.4403 0.795,0 1.44,-0.6454 1.44,-1.4403 z"
       inkscape:connector-curvature="0" /><path
       id="path4259"
       style="fill:#ffffff;fill-opacity:1;fill-rule:evenodd;stroke:none"
       d="m 127.66,104.06 c 0,-0.795 -0.645,-1.44 -1.44,-1.44 -0.795,0 -1.44,0.645 -1.44,1.44 0,0.795 0.645,1.44 1.44,1.44 0.795,0 1.44,-0.645 1.44,-1.44"
       inkscape:connector-curvature="0" /><path
       id="path4261"
       style="fill:none;stroke:#000000;stroke-width:0.44999999;stroke-linecap:round;stroke-linejoin:miter;stroke-miterlimit:10;stroke-opacity:1;stroke-dasharray:none"
       d="m 127.66,104.06 c 0,-0.795 -0.645,-1.44 -1.44,-1.44 -0.795,0 -1.44,0.645 -1.44,1.44 0,0.795 0.645,1.44 1.44,1.44 0.795,0 1.44,-0.645 1.44,-1.44 z"
       inkscape:connector-curvature="0" /><text
       y="-96.019997"
       x="129.03999"
       id="text4462"
       transform="scale(1,-1)"><tspan
         id="tspan4464"
         sodipodi:role="line"
         y="-96.019997"
         x="129.03999"
         style="font-size:10.80000019px;font-variant:normal;font-weight:normal;writing-mode:lr-tb;fill:#000000;fill-opacity:1;fill-rule:nonzero;stroke:none;font-family:Times;-inkscape-font-specification:Times-Roman">$\theta=2\pi$</tspan></text>
<text
       transform="scale(1,-1)"
       id="text4466"
       x="-27.760057"
       y="-126.42001"><tspan
         style="font-size:10.80000019px;font-variant:normal;font-weight:normal;writing-mode:lr-tb;fill:#000000;fill-opacity:1;fill-rule:nonzero;stroke:none;font-family:Times;-inkscape-font-specification:Times-Roman"
         x="-27.760057"
         y="-126.42001"
         sodipodi:role="line"
         id="tspan4468">$\theta=\pi$</tspan></text>
<text
       y="-201.62006"
       x="-27.760057"
       id="text4470"
       transform="scale(1,-1)"><tspan
         id="tspan4472"
         sodipodi:role="line"
         y="-201.62006"
         x="-27.760057"
         style="font-size:10.80000019px;font-variant:normal;font-weight:normal;writing-mode:lr-tb;fill:#000000;fill-opacity:1;fill-rule:nonzero;stroke:none;font-family:Times;-inkscape-font-specification:Times-Roman">$\theta=3\pi$</tspan></text>
<text
       xml:space="preserve"
       style="font-size:8px;font-style:normal;font-variant:normal;font-weight:normal;font-stretch:normal;text-align:start;line-height:125%;letter-spacing:0px;word-spacing:0px;writing-mode:lr-tb;text-anchor:start;fill:#000000;fill-opacity:1;stroke:none;font-family:Linux Biolinum O;-inkscape-font-specification:Linux Biolinum O"
       x="177.08479"
       y="-57.68861"
       id="text4474"
       sodipodi:linespacing="125%"
       transform="scale(1,-1)"><tspan
         sodipodi:role="line"
         id="tspan4476"
         x="177.08479"
         y="-57.68861">height</tspan></text>
<text
       xml:space="preserve"
       style="font-size:10px;font-style:normal;font-variant:normal;font-weight:normal;font-stretch:normal;text-align:start;line-height:125%;letter-spacing:0px;word-spacing:0px;writing-mode:lr-tb;text-anchor:start;fill:#000000;fill-opacity:1;stroke:none;font-family:Linux Biolinum O;-inkscape-font-specification:Linux Biolinum O"
       x="151.90665"
       y="218.6788"
       id="text4478"
       sodipodi:linespacing="125%"
       transform="matrix(0.8,0,0,-0.8,0,211)"><tspan
         sodipodi:role="line"
         id="tspan4480"
         x="151.90665"
         y="218.6788">$\theta$</tspan></text>
<text
       xml:space="preserve"
       style="font-size:8px;font-style:normal;font-variant:normal;font-weight:normal;font-stretch:normal;text-align:start;line-height:125%;letter-spacing:0px;word-spacing:0px;writing-mode:lr-tb;text-anchor:start;fill:#000000;fill-opacity:1;stroke:none;font-family:Linux Biolinum O;-inkscape-font-specification:Linux Biolinum O"
       x="143.57275"
       y="-15.760754"
       id="text4482"
       sodipodi:linespacing="125%"
       transform="scale(1,-1)"><tspan
         sodipodi:role="line"
         id="tspan4484"
         x="143.57275"
         y="-15.760754">$x_1$</tspan></text>
<text
       xml:space="preserve"
       style="font-size:8px;font-style:normal;font-variant:normal;font-weight:normal;font-stretch:normal;text-align:start;line-height:125%;letter-spacing:0px;word-spacing:0px;writing-mode:lr-tb;text-anchor:start;fill:#000000;fill-opacity:1;stroke:none;font-family:Linux Biolinum O;-inkscape-font-specification:Linux Biolinum O"
       x="208.39194"
       y="-78.262024"
       id="text4486"
       sodipodi:linespacing="125%"
       transform="scale(1,-1)"><tspan
         sodipodi:role="line"
         id="tspan4488"
         x="208.39194"
         y="-78.262024">$x_2$</tspan></text>
<path
       sodipodi:nodetypes="cc"
       inkscape:connector-curvature="0"
       d="M 22.6602,194.8801 73.970834,169.36898"
       style="fill:none;stroke:#000000;stroke-width:0.44999999;stroke-linecap:round;stroke-linejoin:miter;stroke-miterlimit:10;stroke-opacity:1;stroke-dasharray:0.9, 2.7;stroke-dashoffset:2.7"
       id="path4534" /><path
       inkscape:connector-curvature="0"
       d="m 23.66,116.86 c 0,-0.795 -0.645,-1.44 -1.44,-1.44 -0.795,0 -1.44,0.645 -1.44,1.44 0,0.795 0.645,1.44 1.44,1.44 0.795,0 1.44,-0.645 1.44,-1.44 z"
       style="fill:#ffffff;stroke:#000000;stroke-width:0.44999999000000002;stroke-linecap:round;stroke-linejoin:miter;stroke-miterlimit:10;stroke-opacity:1;stroke-dasharray:none"
       id="path4536" /><path
       id="path4538"
       style="fill:#ffffff;stroke:#000000;stroke-width:0.44999999;stroke-linecap:round;stroke-linejoin:miter;stroke-miterlimit:10;stroke-opacity:1;stroke-dasharray:none"
       d="m 25.149917,194.48562 c 0,-0.795 -0.645,-1.44 -1.44,-1.44 -0.795,0 -1.44,0.645 -1.44,1.44 0,0.795 0.645,1.44 1.44,1.44 0.795,0 1.44,-0.645 1.44,-1.44 z"
       inkscape:connector-curvature="0" /><path
       inkscape:connector-curvature="0"
       d="M 12.4,39.9199 207.27396,79.323864"
       style="fill:none;stroke:#000000;stroke-width:0.44999999;stroke-linecap:butt;stroke-linejoin:miter;stroke-miterlimit:10;stroke-opacity:1;stroke-dasharray:none"
       id="path4540"
       sodipodi:nodetypes="cc" /><path
       sodipodi:nodetypes="cc"
       inkscape:connector-curvature="0"
       d="m 73.8602,130 51.31063,-25.51112"
       style="fill:none;stroke:#000000;stroke-width:0.44999999;stroke-linecap:round;stroke-linejoin:miter;stroke-miterlimit:10;stroke-opacity:1;stroke-dasharray:0.9, 2.7;stroke-dashoffset:2.7"
       id="path4542" /><path
       id="path4544"
       style="fill:none;stroke:#000000;stroke-width:0.44999999;stroke-linecap:round;stroke-linejoin:miter;stroke-miterlimit:10;stroke-opacity:1;stroke-dasharray:0.9, 2.7;stroke-dashoffset:2.7"
       d="m 73.8602,207.6801 51.31063,-25.51112"
       inkscape:connector-curvature="0"
       sodipodi:nodetypes="cc" /></g></svg>