<?xml version="1.0" encoding="UTF-8" standalone="no"?>
<!-- Created with Inkscape (http://www.inkscape.org/) -->

<svg
   xmlns:dc="http://purl.org/dc/elements/1.1/"
   xmlns:cc="http://creativecommons.org/ns#"
   xmlns:rdf="http://www.w3.org/1999/02/22-rdf-syntax-ns#"
   xmlns:svg="http://www.w3.org/2000/svg"
   xmlns="http://www.w3.org/2000/svg"
   xmlns:sodipodi="http://sodipodi.sourceforge.net/DTD/sodipodi-0.dtd"
   xmlns:inkscape="http://www.inkscape.org/namespaces/inkscape"
   id="svg3004"
   version="1.1"
   inkscape:version="0.48.1 r9760"
   width="180"
   height="135"
   xml:space="preserve"
   sodipodi:docname="06length-of-curve.pdf"><metadata
     id="metadata3010"><rdf:RDF><cc:Work
         rdf:about=""><dc:format>image/svg+xml</dc:format><dc:type
           rdf:resource="http://purl.org/dc/dcmitype/StillImage" /><dc:title></dc:title></cc:Work></rdf:RDF></metadata><defs
     id="defs3008" /><sodipodi:namedview
     pagecolor="#ffffff"
     bordercolor="#666666"
     borderopacity="1"
     objecttolerance="10"
     gridtolerance="10"
     guidetolerance="10"
     inkscape:pageopacity="0"
     inkscape:pageshadow="2"
     inkscape:window-width="1280"
     inkscape:window-height="774"
     id="namedview3006"
     showgrid="false"
     inkscape:zoom="4.5185185"
     inkscape:cx="90"
     inkscape:cy="67.5"
     inkscape:window-x="0"
     inkscape:window-y="0"
     inkscape:window-maximized="0"
     inkscape:current-layer="g3012" /><g
     id="g3012"
     inkscape:groupmode="layer"
     inkscape:label="ink_ext_XXXXXX"
     transform="matrix(1.25,0,0,-1.25,0,135)"><path
       inkscape:connector-curvature="0"
       id="path3028"
       style="fill:#000000;fill-opacity:1;fill-rule:evenodd;stroke:none"
       d="m 109.14,82.2398 3.36,9.6 -8.34,-5.1597 4.8,0.7199" /><path
       inkscape:connector-curvature="0"
       id="path3030"
       style="fill:none;stroke:#000000;stroke-width:0.44999999;stroke-linecap:butt;stroke-linejoin:round;stroke-miterlimit:10;stroke-opacity:1;stroke-dasharray:none"
       d="m 109.14,82.2398 3.36,9.6 -8.34,-5.1597 4.8,0.7199 0.18,-5.1602 z" /><path
       inkscape:connector-curvature="0"
       id="path3032"
       style="fill:#000000;fill-opacity:1;fill-rule:evenodd;stroke:none"
       d="m 40.5,1.9 72,90" /><path
       inkscape:connector-curvature="0"
       id="path3034"
       style="fill:none;stroke:#000000;stroke-width:0.44999999;stroke-linecap:butt;stroke-linejoin:round;stroke-miterlimit:10;stroke-opacity:1;stroke-dasharray:none"
       d="m 40.5,1.9 72,90" /><path
       inkscape:connector-curvature="0"
       id="path3036"
       style="fill:#000000;fill-opacity:1;fill-rule:evenodd;stroke:none"
       d="m 40.5,1.9 36,103.5" /><path
       inkscape:connector-curvature="0"
       id="path3038"
       style="fill:none;stroke:#000000;stroke-width:0.44999999;stroke-linecap:butt;stroke-linejoin:round;stroke-miterlimit:10;stroke-opacity:1;stroke-dasharray:none"
       d="m 40.5,1.9 36,103.5" /><path
       inkscape:connector-curvature="0"
       id="path3040"
       style="fill:#000000;fill-opacity:1;fill-rule:evenodd;stroke:none"
       d="m 75.4199,94.3602 1.2602,10.9798 -6.4199,-8.8798 3.5398,1.8" /><path
       inkscape:connector-curvature="0"
       id="path3042"
       style="fill:none;stroke:#000000;stroke-width:0.44999999;stroke-linecap:butt;stroke-linejoin:round;stroke-miterlimit:10;stroke-opacity:1;stroke-dasharray:none"
       d="m 75.4199,94.3602 1.2602,10.9798 -6.4199,-8.8798 3.5398,1.8 1.6199,-3.9 z" /><path
       inkscape:connector-curvature="0"
       id="path3044"
       style="fill:none;stroke:#ff0000;stroke-width:0.89999998000000003;stroke-linecap:butt;stroke-linejoin:round;stroke-miterlimit:10;stroke-opacity:1;stroke-dasharray:none"
       d="m 4.5,37.9 9,36 22.5,22.5 40.5,9 36,-13.5 27,-36 -27,-31.5" /><path
       style="fill:none;stroke:#000000;stroke-width:0.89999998;stroke-linecap:butt;stroke-linejoin:bevel;stroke-miterlimit:10;stroke-opacity:1;stroke-dasharray:none"
       d="m 4.5,37.9 c 0.5539679,16.886361 2.0874494,23.409675 8.869713,35.915663 6.782263,12.505988 15.024991,17.551895 22.96544,22.478367 7.940449,4.92647 30.499028,12.12332 40.019173,9.08531 9.520145,-3.038 12.444599,-10.496064 18.965169,-12.856538 6.520565,-2.360474 12.889865,-0.953011 17.114605,-0.493066 4.22474,0.459945 33.76278,6.190467 28.2059,-8.349636 -5.55688,-14.540103 -4.56846,-18.371669 -1.14939,-27.673123 3.41908,-9.301455 -10.08615,-7.532019 -15.56034,-13.693181 C 118.45608,36.152634 128.17863,28.653266 112.5,24.4"
       id="path3046"
       inkscape:connector-curvature="0"
       sodipodi:nodetypes="czzzzzzzzc" /><path
       inkscape:connector-curvature="0"
       id="path3048"
       style="fill:#ffffff;fill-opacity:1;fill-rule:evenodd;stroke:none"
       d="m 5.93984,37.9 c 0,-0.7949 -0.64492,-1.4398 -1.43984,-1.4398 -0.79492,0 -1.43984,0.6449 -1.43984,1.4398 0,0.7949 0.64492,1.4398 1.43984,1.4398 0.79492,0 1.43984,-0.6449 1.43984,-1.4398" /><path
       inkscape:connector-curvature="0"
       id="path3050"
       style="fill:none;stroke:#000000;stroke-width:0.44999999;stroke-linecap:butt;stroke-linejoin:bevel;stroke-miterlimit:10;stroke-opacity:1;stroke-dasharray:none"
       d="m 5.93984,37.9 c 0,-0.7949 -0.64492,-1.4398 -1.43984,-1.4398 -0.79492,0 -1.43984,0.6449 -1.43984,1.4398 0,0.7949 0.64492,1.4398 1.43984,1.4398 0.79492,0 1.43984,-0.6449 1.43984,-1.4398 z" /><path
       inkscape:connector-curvature="0"
       id="path3052"
       style="fill:#ffffff;fill-opacity:1;fill-rule:evenodd;stroke:none"
       d="m 77.9398,105.4 c 0,-0.795 -0.6449,-1.44 -1.4398,-1.44 -0.7949,0 -1.4398,0.645 -1.4398,1.44 0,0.795 0.6449,1.44 1.4398,1.44 0.7949,0 1.4398,-0.645 1.4398,-1.44" /><path
       inkscape:connector-curvature="0"
       id="path3054"
       style="fill:none;stroke:#000000;stroke-width:0.44999999;stroke-linecap:butt;stroke-linejoin:bevel;stroke-miterlimit:10;stroke-opacity:1;stroke-dasharray:none"
       d="m 77.9398,105.4 c 0,-0.795 -0.6449,-1.44 -1.4398,-1.44 -0.7949,0 -1.4398,0.645 -1.4398,1.44 0,0.795 0.6449,1.44 1.4398,1.44 0.7949,0 1.4398,-0.645 1.4398,-1.44 z" /><path
       inkscape:connector-curvature="0"
       id="path3056"
       style="fill:#ffffff;fill-opacity:1;fill-rule:evenodd;stroke:none"
       d="m 37.4398,96.4 c 0,-0.7949 -0.6449,-1.4398 -1.4398,-1.4398 -0.7949,0 -1.4398,0.6449 -1.4398,1.4398 0,0.7949 0.6449,1.4398 1.4398,1.4398 0.7949,0 1.4398,-0.6449 1.4398,-1.4398" /><path
       inkscape:connector-curvature="0"
       id="path3058"
       style="fill:none;stroke:#000000;stroke-width:0.44999999;stroke-linecap:butt;stroke-linejoin:bevel;stroke-miterlimit:10;stroke-opacity:1;stroke-dasharray:none"
       d="m 37.4398,96.4 c 0,-0.7949 -0.6449,-1.4398 -1.4398,-1.4398 -0.7949,0 -1.4398,0.6449 -1.4398,1.4398 0,0.7949 0.6449,1.4398 1.4398,1.4398 0.7949,0 1.4398,-0.6449 1.4398,-1.4398 z" /><path
       inkscape:connector-curvature="0"
       id="path3060"
       style="fill:#ffffff;fill-opacity:1;fill-rule:evenodd;stroke:none"
       d="m 140.94,55.9 c 0,-0.7949 -0.645,-1.4398 -1.44,-1.4398 -0.795,0 -1.44,0.6449 -1.44,1.4398 0,0.7949 0.645,1.4398 1.44,1.4398 0.795,0 1.44,-0.6449 1.44,-1.4398" /><path
       inkscape:connector-curvature="0"
       id="path3062"
       style="fill:none;stroke:#000000;stroke-width:0.44999999;stroke-linecap:butt;stroke-linejoin:bevel;stroke-miterlimit:10;stroke-opacity:1;stroke-dasharray:none"
       d="m 140.94,55.9 c 0,-0.7949 -0.645,-1.4398 -1.44,-1.4398 -0.795,0 -1.44,0.6449 -1.44,1.4398 0,0.7949 0.645,1.4398 1.44,1.4398 0.795,0 1.44,-0.6449 1.44,-1.4398 z" /><path
       inkscape:connector-curvature="0"
       id="path3064"
       style="fill:#ffffff;fill-opacity:1;fill-rule:evenodd;stroke:none"
       d="m 113.94,24.4 c 0,-0.7949 -0.645,-1.4398 -1.44,-1.4398 -0.795,0 -1.44,0.6449 -1.44,1.4398 0,0.7949 0.645,1.4398 1.44,1.4398 0.795,0 1.44,-0.6449 1.44,-1.4398" /><path
       inkscape:connector-curvature="0"
       id="path3066"
       style="fill:none;stroke:#000000;stroke-width:0.44999999;stroke-linecap:butt;stroke-linejoin:bevel;stroke-miterlimit:10;stroke-opacity:1;stroke-dasharray:none"
       d="m 113.94,24.4 c 0,-0.7949 -0.645,-1.4398 -1.44,-1.4398 -0.795,0 -1.44,0.6449 -1.44,1.4398 0,0.7949 0.645,1.4398 1.44,1.4398 0.795,0 1.44,-0.6449 1.44,-1.4398 z" /><path
       inkscape:connector-curvature="0"
       id="path3068"
       style="fill:#ffffff;fill-opacity:1;fill-rule:evenodd;stroke:none"
       d="m 41.9398,1.9 c 0,-0.79492 -0.6449,-1.439844 -1.4398,-1.439844 -0.7949,0 -1.4398,0.644924 -1.4398,1.439844 0,0.79492 0.6449,1.43984 1.4398,1.43984 0.7949,0 1.4398,-0.64492 1.4398,-1.43984" /><path
       inkscape:connector-curvature="0"
       id="path3070"
       style="fill:none;stroke:#000000;stroke-width:0.44999999;stroke-linecap:butt;stroke-linejoin:bevel;stroke-miterlimit:10;stroke-opacity:1;stroke-dasharray:none"
       d="m 41.9398,1.9 c 0,-0.79492 -0.6449,-1.439844 -1.4398,-1.439844 -0.7949,0 -1.4398,0.644924 -1.4398,1.439844 0,0.79492 0.6449,1.43984 1.4398,1.43984 0.7949,0 1.4398,-0.64492 1.4398,-1.43984 z" /><path
       inkscape:connector-curvature="0"
       id="path3072"
       style="fill:#ffffff;fill-opacity:1;fill-rule:evenodd;stroke:none"
       d="m 14.9398,73.9 c 0,-0.7949 -0.6449,-1.4398 -1.4398,-1.4398 -0.7949,0 -1.4398,0.6449 -1.4398,1.4398 0,0.7949 0.6449,1.4398 1.4398,1.4398 0.7949,0 1.4398,-0.6449 1.4398,-1.4398" /><path
       inkscape:connector-curvature="0"
       id="path3074"
       style="fill:none;stroke:#000000;stroke-width:0.44999999;stroke-linecap:butt;stroke-linejoin:bevel;stroke-miterlimit:10;stroke-opacity:1;stroke-dasharray:none"
       d="m 14.9398,73.9 c 0,-0.7949 -0.6449,-1.4398 -1.4398,-1.4398 -0.7949,0 -1.4398,0.6449 -1.4398,1.4398 0,0.7949 0.6449,1.4398 1.4398,1.4398 0.7949,0 1.4398,-0.6449 1.4398,-1.4398 z" /><path
       inkscape:connector-curvature="0"
       id="path3076"
       style="fill:#ffffff;fill-opacity:1;fill-rule:evenodd;stroke:none"
       d="m 113.94,91.9 c 0,-0.7949 -0.645,-1.4398 -1.44,-1.4398 -0.795,0 -1.44,0.6449 -1.44,1.4398 0,0.7949 0.645,1.4398 1.44,1.4398 0.795,0 1.44,-0.6449 1.44,-1.4398" /><path
       inkscape:connector-curvature="0"
       id="path3078"
       style="fill:none;stroke:#000000;stroke-width:0.44999999;stroke-linecap:butt;stroke-linejoin:bevel;stroke-miterlimit:10;stroke-opacity:1;stroke-dasharray:none"
       d="m 113.94,91.9 c 0,-0.7949 -0.645,-1.4398 -1.44,-1.4398 -0.795,0 -1.44,0.6449 -1.44,1.4398 0,0.7949 0.645,1.4398 1.44,1.4398 0.795,0 1.44,-0.6449 1.44,-1.4398 z" /><text
       xml:space="preserve"
       style="font-size:10px;font-style:normal;font-variant:normal;font-weight:normal;font-stretch:normal;text-align:start;line-height:125%;letter-spacing:0px;word-spacing:0px;writing-mode:lr-tb;text-anchor:start;fill:#000000;fill-opacity:1;stroke:none;font-family:Linux Biolinum O;-inkscape-font-specification:Linux Biolinum O"
       x="6.835443"
       y="99.968353"
       id="text3117"
       sodipodi:linespacing="125%"
       transform="matrix(0.8,0,0,-0.8,0,108)"><tspan
         sodipodi:role="line"
         id="tspan3119"
         x="6.835443"
         y="99.968353">$t=a$</tspan></text>
<text
       transform="scale(1,-1)"
       sodipodi:linespacing="125%"
       id="text3121"
       y="-15.225315"
       x="103.06835"
       style="font-size:8px;font-style:normal;font-variant:normal;font-weight:normal;font-stretch:normal;text-align:start;line-height:125%;letter-spacing:0px;word-spacing:0px;writing-mode:lr-tb;text-anchor:start;fill:#000000;fill-opacity:1;stroke:none;font-family:Linux Biolinum O;-inkscape-font-specification:Linux Biolinum O"
       xml:space="preserve"><tspan
         y="-15.225315"
         x="103.06835"
         id="tspan3123"
         sodipodi:role="line">$t=b$</tspan></text>
<text
       xml:space="preserve"
       style="font-size:8px;font-style:normal;font-variant:normal;font-weight:normal;font-stretch:normal;text-align:start;line-height:125%;letter-spacing:0px;word-spacing:0px;writing-mode:lr-tb;text-anchor:start;fill:#000000;fill-opacity:1;stroke:none;font-family:Linux Biolinum O;-inkscape-font-specification:Linux Biolinum O"
       x="41.448105"
       y="-59.141769"
       id="text3125"
       sodipodi:linespacing="125%"
       transform="scale(1,-1)"><tspan
         sodipodi:role="line"
         id="tspan3127"
         x="41.448105"
         y="-59.141769">$\vx(t_{i-1})$</tspan></text>
<text
       transform="scale(1,-1)"
       sodipodi:linespacing="125%"
       id="text3129"
       y="-35.141792"
       x="73.448105"
       style="font-size:8px;font-style:normal;font-variant:normal;font-weight:normal;font-stretch:normal;text-align:start;line-height:125%;letter-spacing:0px;word-spacing:0px;writing-mode:lr-tb;text-anchor:start;fill:#000000;fill-opacity:1;stroke:none;font-family:Linux Biolinum O;-inkscape-font-specification:Linux Biolinum O"
       xml:space="preserve"><tspan
         y="-35.141792"
         x="73.448105"
         id="tspan3131"
         sodipodi:role="line">$\vx(t_{i})$</tspan></text>
</g></svg>