<?xml version="1.0" encoding="UTF-8" standalone="no"?>
<!-- Created with Inkscape (http://www.inkscape.org/) -->

<svg
   xmlns:dc="http://purl.org/dc/elements/1.1/"
   xmlns:cc="http://creativecommons.org/ns#"
   xmlns:rdf="http://www.w3.org/1999/02/22-rdf-syntax-ns#"
   xmlns:svg="http://www.w3.org/2000/svg"
   xmlns="http://www.w3.org/2000/svg"
   xmlns:sodipodi="http://sodipodi.sourceforge.net/DTD/sodipodi-0.dtd"
   xmlns:inkscape="http://www.inkscape.org/namespaces/inkscape"
   id="svg8463"
   version="1.1"
   inkscape:version="0.48.1 r9760"
   width="348.75"
   height="233.75"
   xml:space="preserve"
   sodipodi:docname="06parabola.pdf"><metadata
     id="metadata8469"><rdf:RDF><cc:Work
         rdf:about=""><dc:format>image/svg+xml</dc:format><dc:type
           rdf:resource="http://purl.org/dc/dcmitype/StillImage" /><dc:title></dc:title></cc:Work></rdf:RDF></metadata><defs
     id="defs8467" /><sodipodi:namedview
     pagecolor="#ffffff"
     bordercolor="#666666"
     borderopacity="1"
     objecttolerance="10"
     gridtolerance="10"
     guidetolerance="10"
     inkscape:pageopacity="0"
     inkscape:pageshadow="2"
     inkscape:window-width="754"
     inkscape:window-height="755"
     id="namedview8465"
     showgrid="false"
     inkscape:zoom="1.8408602"
     inkscape:cx="174.375"
     inkscape:cy="116.875"
     inkscape:window-x="588"
     inkscape:window-y="0"
     inkscape:window-maximized="0"
     inkscape:current-layer="g8471" /><g
     id="g8471"
     inkscape:groupmode="layer"
     inkscape:label="ink_ext_XXXXXX"
     transform="matrix(1.25,0,0,-1.25,0,233.75)"><path
       inkscape:connector-curvature="0"
       id="path8475"
       style="fill:none;stroke:#000000;stroke-width:0.44999999;stroke-linecap:round;stroke-linejoin:miter;stroke-miterlimit:10;stroke-opacity:1;stroke-dasharray:none"
       d="m 28.1398,37.0398 0,120.8402" /><path
       inkscape:connector-curvature="0"
       id="path8495"
       style="fill:none;stroke:#ff0000;stroke-width:0.8;stroke-linecap:round;stroke-linejoin:miter;stroke-miterlimit:10;stroke-opacity:1;stroke-dasharray:none"
       d="M 41.8801,20.6 110.4,157.76" /><path
       inkscape:connector-curvature="0"
       id="path8477"
       style="fill:none;stroke:#000000;stroke-width:0.44999999;stroke-linecap:round;stroke-linejoin:miter;stroke-miterlimit:10;stroke-opacity:1;stroke-dasharray:none"
       d="m 0.719922,48.0199 109.680078,0" /><path
       inkscape:connector-curvature="0"
       id="path8479"
       style="fill:none;stroke:#000000;stroke-width:0.44999999;stroke-linecap:round;stroke-linejoin:miter;stroke-miterlimit:10;stroke-opacity:1;stroke-dasharray:none"
       d="m 168.18,37.0398 0,120.8402" /><path
       inkscape:connector-curvature="0"
       id="path8481"
       style="fill:none;stroke:#000000;stroke-width:0.44999999;stroke-linecap:round;stroke-linejoin:miter;stroke-miterlimit:10;stroke-opacity:1;stroke-dasharray:none"
       d="m 140.76,48.0199 109.68,0" /><path
       inkscape:connector-curvature="0"
       id="path8493"
       style="fill:none;stroke:#000000;stroke-width:0.89999998;stroke-linecap:round;stroke-linejoin:miter;stroke-miterlimit:10;stroke-opacity:1;stroke-dasharray:none"
       d="m 17.1602,50.2398 1.0796,-0.4199 1.1403,-0.3597 1.0801,-0.3602 1.0796,-0.3 1.1403,-0.2398 1.0801,-0.1801 1.0796,-0.1801 1.0801,-0.0602 1.1403,-0.0597 1.0796,-0.0602 1.0801,0.0602 1.1403,0.0597 1.0796,0.0602 1.0801,0.1801 1.0801,0.1801 1.1398,0.2398 1.0801,0.3 1.0801,0.3602 1.1398,0.3597 1.0801,0.4199 1.0801,0.4204 1.0801,0.5398 1.1398,0.5398 1.0801,0.6 1.0801,0.6 1.0801,0.7204 1.1398,0.7199 1.0801,0.7801 1.0801,0.7796 1.1398,0.8403 1.0801,0.9 1.0801,0.9597 1.0796,1.0204 1.1403,1.0199 1.0801,1.0801 1.0796,1.0796 1.1403,1.2 1.0801,1.2 1.0796,1.2602 1.0801,1.2602 1.1403,1.3796 1.0796,1.3801 1.0801,1.3801 1.1403,1.5 1.0796,1.5 1.0801,1.5602 1.0801,1.6199 1.1398,1.6199 1.0801,1.6801 1.0801,1.7398 1.0801,1.8 1.1398,1.8 1.0801,1.8602 1.0801,1.9199 1.1398,1.9801 1.0801,1.9801 1.0801,2.0398 1.0801,2.1 1.1398,2.1 1.0801,2.16 1.0801,2.22 1.1398,2.28 1.0801,2.28 1.0801,2.4 1.0796,2.34 1.1403,2.46 1.0801,2.46 1.0796,2.52 1.1403,2.58 1.0801,2.64 1.0796,2.64 1.0801,2.7 1.1403,2.76 1.0796,2.76 1.0801,2.82 1.0801,2.88 1.14,2.94 1.08,2.94 1.08,3 1.14,3.06 1.08,3.12" /><path
       inkscape:connector-curvature="0"
       id="path8511"
       style="fill:none;stroke:#000000;stroke-width:0.44999999;stroke-linecap:round;stroke-linejoin:miter;stroke-miterlimit:10;stroke-opacity:1;stroke-dasharray:0.9, 2.28;stroke-dashoffset:2.28"
       d="m 278.28,102.86 c 0,-30.4526 -24.687,-55.1401 -55.14,-55.1401 -30.453,0 -55.14,24.6875 -55.14,55.1401 0,30.453 24.687,55.14 55.14,55.14 30.453,0 55.14,-24.687 55.14,-55.14 z" /><path
       inkscape:connector-curvature="0"
       id="path8525"
       style="fill:#000000;fill-opacity:1;fill-rule:evenodd;stroke:none"
       d="m 187.86,171.5 8.4,-18" /><path
       inkscape:connector-curvature="0"
       id="path8527"
       style="fill:none;stroke:#000000;stroke-width:0.44999999;stroke-linecap:round;stroke-linejoin:round;stroke-miterlimit:10;stroke-opacity:1;stroke-dasharray:none"
       d="m 187.86,171.5 8.4,-18" /><path
       inkscape:connector-curvature="0"
       id="path8531"
       style="fill:#ff0000;stroke:#ff0000;stroke-width:0.89999998000000003;stroke-linecap:round;stroke-linejoin:round;stroke-miterlimit:10;stroke-opacity:1;stroke-dasharray:none"
       d="m 198.48,53.4801 0.06,6.1801 1.56,-2.1602 2.7,-0.3 -4.32,-3.7199 z" /><path
       inkscape:connector-curvature="0"
       id="path8533"
       style="fill:#000000;fill-opacity:1;fill-rule:evenodd;stroke:none"
       d="M 199.26,55.2801 247.08,151.22" /><path
       inkscape:connector-curvature="0"
       id="path8535"
       style="fill:none;stroke:#ff0000;stroke-width:0.89999998000000003;stroke-linecap:round;stroke-linejoin:round;stroke-miterlimit:10;stroke-opacity:1;stroke-dasharray:none"
       d="M 199.26,55.2801 247.08,151.22" /><path
       inkscape:connector-curvature="0"
       id="path8539"
       style="fill:#ff0000;stroke:#ff0000;stroke-width:0.89999998000000003;stroke-linecap:round;stroke-linejoin:round;stroke-miterlimit:10;stroke-opacity:1;stroke-dasharray:none"
       d="m 247.56,151.94 -0.6,-6.96 -1.56,2.58 -3.06,0 5.22,4.38 z" /><path
       inkscape:connector-curvature="0"
       id="path8541"
       style="fill:none;stroke:#000000;stroke-width:0.44999999;stroke-linecap:round;stroke-linejoin:round;stroke-miterlimit:10;stroke-opacity:1;stroke-dasharray:none"
       d="m 228.24,113.84 0.48,0" /><path
       inkscape:connector-curvature="0"
       id="path8483"
       style="fill:none;stroke:#000000;stroke-width:0.8;stroke-linecap:round;stroke-linejoin:miter;stroke-miterlimit:10;stroke-opacity:1;stroke-dasharray:none"
       d="m 157.2,50.2398 1.08,-0.4199 1.14,-0.3597 1.08,-0.3602 1.08,-0.3 1.14,-0.2398 1.08,-0.1801 1.08,-0.1801 1.08,-0.0602 1.14,-0.0597 1.08,-0.0602 1.08,0.0602 1.14,0.0597 1.08,0.0602 1.08,0.1801 1.08,0.1801 1.14,0.2398 1.08,0.3 1.08,0.3602 1.14,0.3597 1.08,0.4199 1.08,0.4204 1.08,0.5398 1.14,0.5398 1.08,0.6 1.08,0.6 1.08,0.7204 1.14,0.7199 1.08,0.7801 1.08,0.7796 1.14,0.8403 1.08,0.9 1.08,0.9597 1.08,1.0204 1.14,1.0199 1.08,1.0801 1.08,1.0796 1.14,1.2 1.08,1.2 1.08,1.2602 1.08,1.2602 1.14,1.3796 1.08,1.3801 1.08,1.3801 1.14,1.5 1.08,1.5 1.08,1.5602 1.08,1.6199 1.14,1.6199 1.08,1.6801 1.08,1.7398 1.08,1.8 1.14,1.8 1.08,1.8602 1.08,1.9199 1.14,1.9801 1.08,1.9801 1.08,2.0398 1.08,2.1 1.14,2.1 1.08,2.16 1.08,2.22 1.14,2.28 1.08,2.28 1.08,2.4 1.08,2.34 1.14,2.46 1.08,2.46 1.08,2.52 1.14,2.58 1.08,2.64 1.08,2.64 1.08,2.7 1.14,2.76 1.08,2.76 1.08,2.82 1.08,2.88 1.14,2.94 1.08,2.94 1.08,3 1.14,3.06 1.08,3.12" /><path
       inkscape:connector-curvature="0"
       id="path8543"
       style="fill:none;stroke:#000000;stroke-width:0.44999999;stroke-linecap:round;stroke-linejoin:round;stroke-miterlimit:10;stroke-opacity:1;stroke-dasharray:none"
       d="m 88.2,113.84 0.4801,0" /><path
       inkscape:connector-curvature="0"
       id="path8545"
       style="fill:none;stroke:#000000;stroke-width:0.44999999;stroke-linecap:round;stroke-linejoin:round;stroke-miterlimit:10;stroke-opacity:1;stroke-dasharray:0.9, 1.38;stroke-dashoffset:1.38"
       d="m 55.5602,34.3398 0,123.4202" /><path
       inkscape:connector-curvature="0"
       id="path8547"
       style="fill:none;stroke:#000000;stroke-width:0.44999999;stroke-linecap:round;stroke-linejoin:round;stroke-miterlimit:10;stroke-opacity:1;stroke-dasharray:0.9, 1.38;stroke-dashoffset:1.38"
       d="m 82.9801,34.3398 0,123.4202" /><path
       inkscape:connector-curvature="0"
       id="path8549"
       style="fill:none;stroke:#000000;stroke-width:0.44999999;stroke-linecap:round;stroke-linejoin:round;stroke-miterlimit:10;stroke-opacity:1;stroke-dasharray:0.9, 1.38;stroke-dashoffset:1.38"
       d="m 14.4602,75.4398 95.9398,0" /><path
       inkscape:connector-curvature="0"
       id="path8551"
       style="fill:none;stroke:#000000;stroke-width:0.44999999;stroke-linecap:round;stroke-linejoin:round;stroke-miterlimit:10;stroke-opacity:1;stroke-dasharray:0.9, 1.38;stroke-dashoffset:1.38"
       d="m 14.4602,102.86 95.9398,0" /><path
       inkscape:connector-curvature="0"
       id="path8553"
       style="fill:none;stroke:#000000;stroke-width:0.44999999;stroke-linecap:round;stroke-linejoin:round;stroke-miterlimit:10;stroke-opacity:1;stroke-dasharray:0.9, 1.38;stroke-dashoffset:1.38"
       d="m 14.4602,130.34 95.9398,0" /><path
       inkscape:connector-curvature="0"
       id="path8555"
       style="fill:none;stroke:#000000;stroke-width:0.44999999;stroke-linecap:round;stroke-linejoin:round;stroke-miterlimit:10;stroke-opacity:1;stroke-dasharray:0.9, 1.38;stroke-dashoffset:1.38"
       d="m 223.02,34.3398 0,123.4202" /><path
       inkscape:connector-curvature="0"
       id="path8557"
       style="fill:none;stroke:#000000;stroke-width:0.44999999;stroke-linecap:round;stroke-linejoin:round;stroke-miterlimit:10;stroke-opacity:1;stroke-dasharray:0.9, 1.38;stroke-dashoffset:1.38"
       d="m 154.5,102.86 95.94,0" /><path
       inkscape:connector-curvature="0"
       id="path8559"
       style="fill:#ffffff;fill-opacity:1;fill-rule:evenodd;stroke:none"
       d="m 84.1199,102.8 c 0,-0.596 -0.484,-1.08 -1.0801,-1.08 -0.596,0 -1.0796,0.484 -1.0796,1.08 0,0.596 0.4836,1.08 1.0796,1.08 0.5961,0 1.0801,-0.484 1.0801,-1.08" /><path
       inkscape:connector-curvature="0"
       id="path8561"
       style="fill:none;stroke:#000000;stroke-width:0.44999999;stroke-linecap:round;stroke-linejoin:round;stroke-miterlimit:10;stroke-opacity:1;stroke-dasharray:none"
       d="m 84.1199,102.8 c 0,-0.596 -0.484,-1.08 -1.0801,-1.08 -0.596,0 -1.0796,0.484 -1.0796,1.08 0,0.596 0.4836,1.08 1.0796,1.08 0.5961,0 1.0801,-0.484 1.0801,-1.08 z" /><path
       inkscape:connector-curvature="0"
       id="path8563"
       style="fill:#ffffff;fill-opacity:1;fill-rule:evenodd;stroke:none"
       d="m 224.16,102.8 c 0,-0.596 -0.484,-1.08 -1.08,-1.08 -0.596,0 -1.08,0.484 -1.08,1.08 0,0.596 0.484,1.08 1.08,1.08 0.596,0 1.08,-0.484 1.08,-1.08" /><path
       inkscape:connector-curvature="0"
       id="path8565"
       style="fill:none;stroke:#000000;stroke-width:0.44999999;stroke-linecap:round;stroke-linejoin:round;stroke-miterlimit:10;stroke-opacity:1;stroke-dasharray:none"
       d="m 224.16,102.8 c 0,-0.596 -0.484,-1.08 -1.08,-1.08 -0.596,0 -1.08,0.484 -1.08,1.08 0,0.596 0.484,1.08 1.08,1.08 0.596,0 1.08,-0.484 1.08,-1.08 z" /><text
       xml:space="preserve"
       style="font-size:10px;font-style:normal;font-variant:normal;font-weight:normal;font-stretch:normal;text-align:start;line-height:125%;letter-spacing:0px;word-spacing:0px;writing-mode:lr-tb;text-anchor:start;fill:#000000;fill-opacity:1;stroke:none;font-family:Linux Biolinum O;-inkscape-font-specification:Linux Biolinum O"
       x="201.20253"
       y="13.314873"
       id="text8712"
       sodipodi:linespacing="125%"
       transform="matrix(0.8,0,0,-0.8,0,187)"><tspan
         sodipodi:role="line"
         id="tspan8714"
         x="201.20253"
         y="13.314873">circle with radius 1</tspan></text>
<text
       xml:space="preserve"
       style="font-size:10px;font-style:normal;font-variant:normal;font-weight:normal;font-stretch:normal;text-align:start;line-height:125%;letter-spacing:0px;word-spacing:0px;writing-mode:lr-tb;text-anchor:start;fill:#000000;fill-opacity:1;stroke:none;font-family:Linux Biolinum O;-inkscape-font-specification:Linux Biolinum O"
       x="319.90213"
       y="42.632938"
       id="text8716"
       sodipodi:linespacing="125%"
       transform="matrix(0.8,0,0,-0.8,0,187)"><tspan
         sodipodi:role="line"
         id="tspan8718"
         x="319.90213"
         y="42.632938">$\vT$</tspan></text>
<text
       xml:space="preserve"
       style="font-size:10px;font-style:normal;font-variant:normal;font-weight:normal;font-stretch:normal;text-align:start;line-height:125%;letter-spacing:0px;word-spacing:0px;writing-mode:lr-tb;text-anchor:start;fill:#000000;fill-opacity:1;stroke:none;font-family:Linux Biolinum O;-inkscape-font-specification:Linux Biolinum O"
       x="259.63071"
       y="163.17578"
       id="text8720"
       sodipodi:linespacing="125%"
       transform="matrix(0.8,0,0,-0.8,0,187)"><tspan
         sodipodi:role="line"
         id="tspan8722"
         x="259.63071"
         y="163.17578">$-\vT$</tspan></text>
<text
       xml:space="preserve"
       style="font-size:8px;font-style:normal;font-variant:normal;font-weight:normal;font-stretch:normal;text-align:start;line-height:125%;letter-spacing:0px;word-spacing:0px;writing-mode:lr-tb;text-anchor:start;fill:#000000;fill-opacity:1;stroke:none;font-family:Linux Biolinum O;-inkscape-font-specification:Linux Biolinum O"
       x="21.429836"
       y="-107.56129"
       id="text8762"
       sodipodi:linespacing="125%"
       transform="scale(1,-1)"><tspan
         sodipodi:role="line"
         id="tspan8764"
         x="21.429836"
         y="-107.56129">1</tspan></text>
<text
       xml:space="preserve"
       style="font-size:8px;font-style:normal;font-variant:normal;font-weight:normal;font-stretch:normal;text-align:start;line-height:125%;letter-spacing:0px;word-spacing:0px;writing-mode:lr-tb;text-anchor:start;fill:#000000;fill-opacity:1;stroke:none;font-family:Linux Biolinum O;-inkscape-font-specification:Linux Biolinum O"
       x="87.052582"
       y="-38.374893"
       id="text8766"
       sodipodi:linespacing="125%"
       transform="scale(1,-1)"><tspan
         sodipodi:role="line"
         id="tspan8768"
         x="87.052582"
         y="-38.374893">1</tspan></text>
<text
       xml:space="preserve"
       style="font-size:8px;font-style:normal;font-variant:normal;font-weight:normal;font-stretch:normal;text-align:start;line-height:125%;letter-spacing:0px;word-spacing:0px;writing-mode:lr-tb;text-anchor:start;fill:#000000;fill-opacity:1;stroke:none;font-family:Linux Biolinum O;-inkscape-font-specification:Linux Biolinum O"
       x="157.83899"
       y="-107.56129"
       id="text8770"
       sodipodi:linespacing="125%"
       transform="scale(1,-1)"><tspan
         sodipodi:role="line"
         id="tspan8772"
         x="157.83899"
         y="-107.56129">1</tspan></text>
<text
       xml:space="preserve"
       style="font-size:8px;font-style:normal;font-variant:normal;font-weight:normal;font-stretch:normal;text-align:start;line-height:125%;letter-spacing:0px;word-spacing:0px;writing-mode:lr-tb;text-anchor:start;fill:#000000;fill-opacity:1;stroke:none;font-family:Linux Biolinum O;-inkscape-font-specification:Linux Biolinum O"
       x="225.93442"
       y="-38.374893"
       id="text8774"
       sodipodi:linespacing="125%"
       transform="scale(1,-1)"><tspan
         sodipodi:role="line"
         id="tspan8776"
         x="225.93442"
         y="-38.374893">1</tspan></text>
<text
       xml:space="preserve"
       style="font-size:8px;font-style:normal;font-variant:normal;font-weight:normal;font-stretch:normal;text-align:start;line-height:125%;letter-spacing:0px;word-spacing:0px;writing-mode:lr-tb;text-anchor:start;fill:#000000;fill-opacity:1;stroke:none;font-family:Linux Biolinum O;-inkscape-font-specification:Linux Biolinum O"
       x="21.728971"
       y="-177.03178"
       id="text8778"
       sodipodi:linespacing="125%"
       transform="scale(1,-1)"><tspan
         sodipodi:role="line"
         id="tspan8780"
         x="21.728971"
         y="-177.03178">$\DS\vx(t) = \vek t\\ t^2\tor$</tspan></text>
<path
       style="fill:none;stroke:#000000;stroke-width:0.5;stroke-linecap:butt;stroke-linejoin:miter;stroke-miterlimit:4;stroke-opacity:1;stroke-dasharray:none"
       d="M 124.94159,46.337617 84.175233,21.695094"
       id="path8782"
       inkscape:connector-curvature="0"
       transform="matrix(0.8,0,0,-0.8,0,187)"
       sodipodi:nodetypes="cc" /></g></svg>