<?xml version="1.0" encoding="UTF-8" standalone="no"?>
<!-- Created with Inkscape (http://www.inkscape.org/) -->

<svg
   xmlns:dc="http://purl.org/dc/elements/1.1/"
   xmlns:cc="http://creativecommons.org/ns#"
   xmlns:rdf="http://www.w3.org/1999/02/22-rdf-syntax-ns#"
   xmlns:svg="http://www.w3.org/2000/svg"
   xmlns="http://www.w3.org/2000/svg"
   xmlns:sodipodi="http://sodipodi.sourceforge.net/DTD/sodipodi-0.dtd"
   xmlns:inkscape="http://www.inkscape.org/namespaces/inkscape"
   id="svg3564"
   version="1.1"
   inkscape:version="0.48.1 r9760"
   width="166.27252"
   height="122.89597"
   xml:space="preserve"
   sodipodi:docname="06polar-graph.pdf"><metadata
     id="metadata3570"><rdf:RDF><cc:Work
         rdf:about=""><dc:format>image/svg+xml</dc:format><dc:type
           rdf:resource="http://purl.org/dc/dcmitype/StillImage" /><dc:title></dc:title></cc:Work></rdf:RDF></metadata><defs
     id="defs3568" /><sodipodi:namedview
     pagecolor="#ffffff"
     bordercolor="#666666"
     borderopacity="1"
     objecttolerance="10"
     gridtolerance="10"
     guidetolerance="10"
     inkscape:pageopacity="0"
     inkscape:pageshadow="2"
     inkscape:window-width="784"
     inkscape:window-height="590"
     id="namedview3566"
     showgrid="false"
     fit-margin-top="3"
     fit-margin-left="0"
     fit-margin-right="0"
     fit-margin-bottom="0"
     inkscape:zoom="3.5134021"
     inkscape:cx="77.53125"
     inkscape:cy="60.031247"
     inkscape:window-x="0"
     inkscape:window-y="0"
     inkscape:window-maximized="0"
     inkscape:current-layer="g3572" /><g
     id="g3572"
     inkscape:groupmode="layer"
     inkscape:label="ink_ext_XXXXXX"
     transform="matrix(1.25,0,0,-1.25,-0.59375001,123.48972)"><path
       inkscape:connector-curvature="0"
       id="path3582"
       style="fill:none;stroke:#000000;stroke-width:0.44999999;stroke-linecap:round;stroke-linejoin:miter;stroke-miterlimit:10;stroke-opacity:1;stroke-dasharray:none"
       d="m 48.8164,10.1199 c -0.1035,5.9438 -2.5379,11.6098 -6.7781,15.7762" /><path
       inkscape:connector-curvature="0"
       id="path3584"
       style="fill:#000000;fill-opacity:1;fill-rule:evenodd;stroke:none"
       d="m 18.7,9.7 99,0" /><path
       inkscape:connector-curvature="0"
       id="path3586"
       style="fill:none;stroke:#000000;stroke-width:0.44999999;stroke-linecap:round;stroke-linejoin:round;stroke-miterlimit:10;stroke-opacity:1;stroke-dasharray:none"
       d="m 18.7,9.7 99,0" /><path
       inkscape:connector-curvature="0"
       id="path3588"
       style="fill:#000000;fill-opacity:1;fill-rule:evenodd;stroke:none"
       d="m 27.7,0.7 0,90" /><path
       inkscape:connector-curvature="0"
       id="path3590"
       style="fill:none;stroke:#000000;stroke-width:0.44999999;stroke-linecap:round;stroke-linejoin:round;stroke-miterlimit:10;stroke-opacity:1;stroke-dasharray:none"
       d="m 27.7,0.7 0,90" /><path
       inkscape:connector-curvature="0"
       id="path3592"
       style="fill:none;stroke:#000000;stroke-width:0.44999999;stroke-linecap:round;stroke-linejoin:round;stroke-miterlimit:10;stroke-opacity:1;stroke-dasharray:none"
       d="M 27.7,9.7 72.4,62.5602" /><path
       inkscape:connector-curvature="0"
       id="path3594"
       style="fill:#000000;fill-opacity:1;fill-rule:evenodd;stroke:none"
       d="m 69.7602,55.9602 3.3597,7.3199 -6.7801,-4.5 3,0.0597" /><path
       inkscape:connector-curvature="0"
       id="path3596"
       style="fill:none;stroke:#000000;stroke-width:0.44999999;stroke-linecap:round;stroke-linejoin:round;stroke-miterlimit:10;stroke-opacity:1;stroke-dasharray:none"
       d="m 69.7602,55.9602 3.3597,7.3199 -6.7801,-4.5 3,0.0597 0.4204,-2.8796 z" /><path
       inkscape:connector-curvature="0"
       id="path3598"
       style="fill:#000000;fill-opacity:1;fill-rule:evenodd;stroke:none"
       d="m 45.5199,24.2801 -3.5398,1.7398 1.2597,-3.7199 0.2403,1.8602" /><path
       inkscape:connector-curvature="0"
       id="path3600"
       style="fill:none;stroke:#000000;stroke-width:0.44999999;stroke-linecap:round;stroke-linejoin:round;stroke-miterlimit:10;stroke-opacity:1;stroke-dasharray:none"
       d="m 45.5199,24.2801 -3.5398,1.7398 1.2597,-3.7199 0.2403,1.8602 2.0398,0.1199 z" /><path
       inkscape:connector-curvature="0"
       id="path3602"
       style="fill:none;stroke:#000000;stroke-width:0.44999999;stroke-linecap:round;stroke-linejoin:bevel;stroke-miterlimit:10;stroke-opacity:1;stroke-dasharray:none"
       d="m 72.7,0.7 0,0.060156 L 72.5801,1 l -0.2403,0.53984 -0.3597,0.9 -0.4199,1.08008 -0.4204,1.08008 -0.3597,1.08008 -0.2403,0.95976 -0.1796,0.9 -0.0602,0.78008 0,0.66016 0.1801,0.71992 0.1801,0.7199 0.3,0.6602 0.3597,0.7801 0.4801,0.7199 0.5398,0.8398 0.5403,0.7801 0.6597,0.7801 0.6,0.8398 0.6,0.7199 0.6,0.7801 0.6,0.6602 0.5403,0.7199 0.4801,0.6602 0.4796,0.6 0.4204,0.4796 0.4199,0.3602 0.3597,0.2398 0.4204,0.2403 0.3597,0.3 0.4199,0.4801 0.4801,0.7796 0.4801,1.1403 0.4801,1.6199 0.4199,2.1 0.2398,1.5602 0.1204,1.5 0.1199,1.5 0.0597,1.3796 0.0602,1.2 0,1.1403 0.0602,1.0199 0,1.7398 0.0597,0.8403 0.0602,0.7801 L 82.6,41.2 82.7199,42.1 82.9,43 l 0.1801,0.9602 0.2398,1.0199 0.3,1.0801 0.3602,1.1398 0.3597,1.1398 0.3602,1.2 0.4199,1.2602 0.4199,1.2 0.4801,1.3199 0.4199,1.2602 0.3602,1.3199 0.4199,1.2602 0.3,1.2 0.2403,1.2 0.1796,1.0796 L 88,61.6 l 0,0.9 -0.1199,0.7801 -0.2403,0.6597 -0.3597,0.5403 L 86.8,64.9 l -0.6,0.3 -0.6602,0.1801 -0.8398,0.0597 -0.9,0 -1.0199,-0.1199 -1.1403,-0.1199 -1.2597,-0.2398 -1.3199,-0.2403 -1.3801,-0.3 -1.4403,-0.3 -1.5,-0.3 -1.5,-0.3 -1.5,-0.3 -1.4398,-0.3 -1.3801,-0.1801 -1.3801,-0.1796 -1.2597,-0.0602 -1.1403,0 -1.0796,0.0602 L 63.1,62.6801 62.2,62.9199 61.2398,63.4 60.4,64.0602 l -0.7199,0.7796 -0.6,0.9602 -0.5403,1.0801 -0.4199,1.2 L 57.7,69.4 l -0.3602,1.3801 -0.3,1.3801 -0.2398,1.3796 -0.3,1.3204 -0.3,1.2597 -0.3,1.2 L 55.6,78.4 55.1801,79.3602 54.7,80.2 l -0.4801,0.6602 -0.6,0.5398 -0.6597,0.4801 -0.7204,0.3597 -0.7796,0.3 -0.9,0.2403 -0.9,0.1199 -1.0204,0.1199 -1.0199,0 L 46.6,82.9602 45.5199,82.8398 44.5,82.6602 l -1.0199,-0.1801 -0.9602,-0.3 -0.9597,-0.2403 -0.9,-0.3 -0.9,-0.3597 L 38.9801,80.9199 37.9602,80.5 37,80.0199 l -0.9602,-0.5398 -0.9597,-0.5403 -0.9,-0.5398 -0.9,-0.6 -0.9,-0.6 L 31.5398,76.6 30.7,76 29.9199,75.4602 29.1398,74.9199 28.4199,74.3801 27.7,73.9 26.9801,73.4199 26.2,73 25.4199,72.5801 24.5801,72.1602 23.7398,71.6801 22.7801,71.2 21.8199,70.6602 20.8602,70.1199 19.8398,69.5801 18.8801,68.9199 17.8602,68.2602 16.9,67.6 16,66.8199 15.1,66.0398 14.2,65.2 13.5398,64.4801 12.8199,63.7 12.1,62.8602 11.3199,61.9 10.5398,60.7602 9.63984,59.5602 8.68008,58.1801 7.66016,56.6199 6.58008,55 5.43984,53.2602 4.36016,51.5199 3.28008,49.8398 2.38008,48.4 1.66016,47.2 1.11992,46.4199 0.819922,45.9398 0.7,45.7" /><path
       inkscape:connector-curvature="0"
       id="path3616"
       style="fill:#ffffff;fill-opacity:1;fill-rule:evenodd;stroke:none"
       d="m 74.4398,63.7602 c 0,-0.5961 -0.4836,-1.0801 -1.0796,-1.0801 -0.5961,0 -1.0801,0.484 -1.0801,1.0801 0,0.596 0.484,1.0796 1.0801,1.0796 0.596,0 1.0796,-0.4836 1.0796,-1.0796" /><path
       inkscape:connector-curvature="0"
       id="path3618"
       style="fill:none;stroke:#000000;stroke-width:0.44999999;stroke-linecap:round;stroke-linejoin:bevel;stroke-miterlimit:10;stroke-opacity:1;stroke-dasharray:none"
       d="m 74.4398,63.7602 c 0,-0.5961 -0.4836,-1.0801 -1.0796,-1.0801 -0.5961,0 -1.0801,0.484 -1.0801,1.0801 0,0.596 0.484,1.0796 1.0801,1.0796 0.596,0 1.0796,-0.4836 1.0796,-1.0796 z" /><text
       xml:space="preserve"
       style="font-size:8px;font-style:normal;font-variant:normal;font-weight:normal;font-stretch:normal;text-align:start;line-height:125%;letter-spacing:0px;word-spacing:0px;writing-mode:lr-tb;text-anchor:start;fill:#000000;fill-opacity:1;stroke:none;font-family:Linux Biolinum O;-inkscape-font-specification:Linux Biolinum O"
       x="31.631926"
       y="-39.84742"
       id="text3649"
       sodipodi:linespacing="125%"
       transform="scale(1,-1)"><tspan
         sodipodi:role="line"
         id="tspan3651"
         x="31.631926"
         y="-39.84742">$r=f(\theta)$</tspan></text>
<text
       xml:space="preserve"
       style="font-size:10px;font-style:normal;font-variant:normal;font-weight:normal;font-stretch:normal;text-align:start;line-height:125%;letter-spacing:0px;word-spacing:0px;writing-mode:lr-tb;text-anchor:start;fill:#000000;fill-opacity:1;stroke:none;font-family:Linux Biolinum O;-inkscape-font-specification:Linux Biolinum O"
       x="61.194248"
       y="97.910797"
       id="text3653"
       sodipodi:linespacing="125%"
       transform="matrix(0.8,0,0,-0.8,0,97)"><tspan
         sodipodi:role="line"
         id="tspan3655"
         x="61.194248"
         y="97.910797">$\theta$</tspan></text>
<text
       xml:space="preserve"
       style="font-size:10px;font-style:normal;font-variant:normal;font-weight:normal;font-stretch:normal;text-align:start;line-height:125%;letter-spacing:0px;word-spacing:0px;writing-mode:lr-tb;text-anchor:start;fill:#000000;fill-opacity:1;stroke:none;font-family:Linux Biolinum O;-inkscape-font-specification:Linux Biolinum O"
       x="90.795189"
       y="35.578053"
       id="text3657"
       sodipodi:linespacing="125%"
       transform="matrix(0.8,0,0,-0.8,0,97)"><tspan
         sodipodi:role="line"
         id="tspan3659"
         x="90.795189"
         y="35.578053">$X$</tspan></text>
<text
       xml:space="preserve"
       style="font-size:10px;font-style:normal;font-variant:normal;font-weight:normal;font-stretch:normal;text-align:start;line-height:125%;letter-spacing:0px;word-spacing:0px;writing-mode:lr-tb;text-anchor:start;fill:#000000;fill-opacity:1;stroke:none;font-family:Linux Biolinum O;-inkscape-font-specification:Linux Biolinum O"
       x="143.73534"
       y="105.88028"
       id="text3661"
       sodipodi:linespacing="125%"
       transform="matrix(0.8,0,0,-0.8,0,97)"><tspan
         sodipodi:role="line"
         id="tspan3663"
         x="143.73534"
         y="105.88028">$x_1$</tspan></text>
<text
       transform="scale(1,-1)"
       sodipodi:linespacing="125%"
       id="text3665"
       y="-90.695778"
       x="28.588274"
       style="font-size:8px;font-style:normal;font-variant:normal;font-weight:normal;font-stretch:normal;text-align:start;line-height:125%;letter-spacing:0px;word-spacing:0px;writing-mode:lr-tb;text-anchor:start;fill:#000000;fill-opacity:1;stroke:none;font-family:Linux Biolinum O;-inkscape-font-specification:Linux Biolinum O"
       xml:space="preserve"><tspan
         y="-90.695778"
         x="28.588274"
         id="tspan3667"
         sodipodi:role="line">$x_2$</tspan></text>
</g></svg>