<?xml version="1.0" encoding="UTF-8" standalone="no"?>
<!-- Created with Inkscape (http://www.inkscape.org/) -->

<svg
   xmlns:dc="http://purl.org/dc/elements/1.1/"
   xmlns:cc="http://creativecommons.org/ns#"
   xmlns:rdf="http://www.w3.org/1999/02/22-rdf-syntax-ns#"
   xmlns:svg="http://www.w3.org/2000/svg"
   xmlns="http://www.w3.org/2000/svg"
   xmlns:sodipodi="http://sodipodi.sourceforge.net/DTD/sodipodi-0.dtd"
   xmlns:inkscape="http://www.inkscape.org/namespaces/inkscape"
   id="svg3388"
   version="1.1"
   inkscape:version="0.48.1 r9760"
   width="97.837402"
   height="49.768291"
   xml:space="preserve"
   sodipodi:docname="06polar-coords.pdf"><metadata
     id="metadata3394"><rdf:RDF><cc:Work
         rdf:about=""><dc:format>image/svg+xml</dc:format><dc:type
           rdf:resource="http://purl.org/dc/dcmitype/StillImage" /><dc:title></dc:title></cc:Work></rdf:RDF></metadata><defs
     id="defs3392" /><sodipodi:namedview
     pagecolor="#ffffff"
     bordercolor="#666666"
     borderopacity="1"
     objecttolerance="10"
     gridtolerance="10"
     guidetolerance="10"
     inkscape:pageopacity="0"
     inkscape:pageshadow="2"
     inkscape:window-width="640"
     inkscape:window-height="480"
     id="namedview3390"
     showgrid="false"
     inkscape:zoom="6.0053333"
     inkscape:cx="49.556152"
     inkscape:cy="24.556159"
     inkscape:window-x="0"
     inkscape:window-y="0"
     inkscape:window-maximized="0"
     inkscape:current-layer="g3396"
     fit-margin-bottom="3"
     fit-margin-top="3"
     fit-margin-left="3"
     fit-margin-right="3" /><g
     id="g3396"
     inkscape:groupmode="layer"
     inkscape:label="ink_ext_XXXXXX"
     transform="matrix(1.25,0,0,-1.25,2.6811525,47.08714)"><path
       inkscape:connector-curvature="0"
       id="path3408"
       style="fill:none;stroke:#000000;stroke-width:0.44999999;stroke-linecap:round;stroke-linejoin:miter;stroke-miterlimit:10;stroke-opacity:1;stroke-dasharray:none"
       d="M 35.575,1.52148 C 35.2527,8.61992 32.7102,15.4387 28.3062,21.0148" /><path
       inkscape:connector-curvature="0"
       id="path3410"
       style="fill:#000000;fill-opacity:1;fill-rule:evenodd;stroke:none"
       d="m 1.5,1.5 72,0" /><path
       inkscape:connector-curvature="0"
       id="path3412"
       style="fill:none;stroke:#000000;stroke-width:0.44999999;stroke-linecap:round;stroke-linejoin:round;stroke-miterlimit:10;stroke-opacity:1;stroke-dasharray:none"
       d="m 1.5,1.5 72,0" /><path
       inkscape:connector-curvature="0"
       id="path3414"
       style="fill:#000000;fill-opacity:1;fill-rule:evenodd;stroke:none"
       d="m 1.5,1.5 36,27" /><path
       inkscape:connector-curvature="0"
       id="path3416"
       style="fill:none;stroke:#000000;stroke-width:0.44999999;stroke-linecap:round;stroke-linejoin:round;stroke-miterlimit:10;stroke-opacity:1;stroke-dasharray:none"
       d="m 1.5,1.5 36,27" /><path
       inkscape:connector-curvature="0"
       id="path3418"
       style="fill:#000000;fill-opacity:1;fill-rule:evenodd;stroke:none"
       d="m 32.5199,18 -4.2,3.2398 1.0801,-4.9796 0.5398,2.4597" /><path
       inkscape:connector-curvature="0"
       id="path3420"
       style="fill:none;stroke:#000000;stroke-width:0.44999999;stroke-linecap:round;stroke-linejoin:round;stroke-miterlimit:10;stroke-opacity:1;stroke-dasharray:none"
       d="m 32.5199,18 -4.2,3.2398 L 29.4,16.2602 29.9398,18.7199 32.5199,18 z" /><path
       inkscape:connector-curvature="0"
       id="path3428"
       style="fill:#ffffff;fill-opacity:1;fill-rule:evenodd;stroke:none"
       d="M 2.51992,1.5 C 2.51992,0.936719 2.06328,0.480078 1.5,0.480078 0.936719,0.480078 0.480078,0.936719 0.480078,1.5 c 0,0.56328 0.456641,1.01992 1.019922,1.01992 0.56328,0 1.01992,-0.45664 1.01992,-1.01992" /><path
       inkscape:connector-curvature="0"
       id="path3430"
       style="fill:none;stroke:#000000;stroke-width:0.44999999;stroke-linecap:round;stroke-linejoin:round;stroke-miterlimit:10;stroke-opacity:1;stroke-dasharray:none"
       d="M 2.51992,1.5 C 2.51992,0.936719 2.06328,0.480078 1.5,0.480078 0.936719,0.480078 0.480078,0.936719 0.480078,1.5 c 0,0.56328 0.456641,1.01992 1.019922,1.01992 0.56328,0 1.01992,-0.45664 1.01992,-1.01992 z" /><path
       inkscape:connector-curvature="0"
       id="path3432"
       style="fill:#ffffff;fill-opacity:1;fill-rule:evenodd;stroke:none"
       d="m 38.5199,28.5 c 0,-0.5633 -0.4566,-1.0199 -1.0199,-1.0199 -0.5633,0 -1.0199,0.4566 -1.0199,1.0199 0,0.5633 0.4566,1.0199 1.0199,1.0199 0.5633,0 1.0199,-0.4566 1.0199,-1.0199" /><path
       inkscape:connector-curvature="0"
       id="path3434"
       style="fill:none;stroke:#000000;stroke-width:0.44999999;stroke-linecap:round;stroke-linejoin:round;stroke-miterlimit:10;stroke-opacity:1;stroke-dasharray:none"
       d="m 38.5199,28.5 c 0,-0.5633 -0.4566,-1.0199 -1.0199,-1.0199 -0.5633,0 -1.0199,0.4566 -1.0199,1.0199 0,0.5633 0.4566,1.0199 1.0199,1.0199 0.5633,0 1.0199,-0.4566 1.0199,-1.0199 z" /><text
       xml:space="preserve"
       style="font-size:8px;font-style:normal;font-variant:normal;font-weight:normal;font-stretch:normal;text-align:start;line-height:125%;letter-spacing:0px;word-spacing:0px;writing-mode:lr-tb;text-anchor:start;fill:#000000;fill-opacity:1;stroke:none;font-family:Linux Biolinum O;-inkscape-font-specification:Linux Biolinum O"
       x="13.5865"
       y="-19.449379"
       id="text3454"
       sodipodi:linespacing="125%"
       transform="scale(1,-1)"><tspan
         sodipodi:role="line"
         id="tspan3456"
         x="13.5865"
         y="-19.449379">$r$</tspan></text>
<text
       xml:space="preserve"
       style="font-size:10px;font-style:normal;font-variant:normal;font-weight:normal;font-stretch:normal;text-align:start;line-height:125%;letter-spacing:0px;word-spacing:0px;writing-mode:lr-tb;text-anchor:start;fill:#000000;fill-opacity:1;stroke:none;font-family:Linux Biolinum O;-inkscape-font-specification:Linux Biolinum O"
       x="52.120338"
       y="6.7828598"
       id="text3458"
       sodipodi:linespacing="125%"
       transform="matrix(0.8,0,0,-0.8,0,35)"><tspan
         sodipodi:role="line"
         id="tspan3460"
         x="52.120338"
         y="6.7828598">$P$</tspan></text>
<text
       xml:space="preserve"
       style="font-size:8px;font-style:normal;font-variant:normal;font-weight:normal;font-stretch:normal;text-align:start;line-height:125%;letter-spacing:0px;word-spacing:0px;writing-mode:lr-tb;text-anchor:start;fill:#000000;fill-opacity:1;stroke:none;font-family:Linux Biolinum O;-inkscape-font-specification:Linux Biolinum O"
       x="34.098763"
       y="-12.39325"
       id="text3462"
       sodipodi:linespacing="125%"
       transform="scale(1,-1)"><tspan
         sodipodi:role="line"
         id="tspan3464"
         x="34.098763"
         y="-12.39325">$\theta$</tspan></text>
</g></svg>