<?xml version="1.0" encoding="UTF-8" standalone="no"?>
<!-- Created with Inkscape (http://www.inkscape.org/) -->

<svg
   xmlns:dc="http://purl.org/dc/elements/1.1/"
   xmlns:cc="http://creativecommons.org/ns#"
   xmlns:rdf="http://www.w3.org/1999/02/22-rdf-syntax-ns#"
   xmlns:svg="http://www.w3.org/2000/svg"
   xmlns="http://www.w3.org/2000/svg"
   xmlns:sodipodi="http://sodipodi.sourceforge.net/DTD/sodipodi-0.dtd"
   xmlns:inkscape="http://www.inkscape.org/namespaces/inkscape"
   id="svg4843"
   version="1.1"
   inkscape:version="0.48.1 r9760"
   width="421.58371"
   height="203.1942"
   xml:space="preserve"
   sodipodi:docname="06polar-tangent.eps"><metadata
     id="metadata4849"><rdf:RDF><cc:Work
         rdf:about=""><dc:format>image/svg+xml</dc:format><dc:type
           rdf:resource="http://purl.org/dc/dcmitype/StillImage" /><dc:title></dc:title></cc:Work></rdf:RDF></metadata><defs
     id="defs4847" /><sodipodi:namedview
     pagecolor="#ffffff"
     bordercolor="#666666"
     borderopacity="1"
     objecttolerance="10"
     gridtolerance="10"
     guidetolerance="10"
     inkscape:pageopacity="0"
     inkscape:pageshadow="2"
     inkscape:window-width="985"
     inkscape:window-height="611"
     id="namedview4845"
     showgrid="false"
     fit-margin-top="0"
     fit-margin-left="0"
     fit-margin-right="0"
     fit-margin-bottom="0"
     inkscape:zoom="1.7102804"
     inkscape:cx="192.80937"
     inkscape:cy="103.21875"
     inkscape:window-x="0"
     inkscape:window-y="0"
     inkscape:window-maximized="0"
     inkscape:current-layer="g4851" /><g
     id="g4851"
     inkscape:groupmode="layer"
     inkscape:label="ink_ext_XXXXXX"
     transform="matrix(1.25,0,0,-1.25,59.059375,170.60045)"><g
       id="g5070"
       transform="matrix(1.5,0,0,1.5,-47.96,-27.35)"><path
         d="m 186.4,49.4801 4.74,4.5597 -6.36,-2.4 2.1,-0.0597"
         style="fill:#000000;fill-opacity:1;fill-rule:evenodd;stroke:none"
         id="path4855"
         inkscape:connector-curvature="0" /><path
         d="m 186.4,49.4801 4.74,4.5597 -6.36,-2.4 2.1,-0.0597 -0.48,-2.1 z"
         style="fill:none;stroke:#000000;stroke-width:0.44999999;stroke-linecap:butt;stroke-linejoin:round;stroke-miterlimit:10;stroke-opacity:1;stroke-dasharray:none"
         id="path4857"
         inkscape:connector-curvature="0" /><path
         d="m 190.78,54.1602 -26.1,38.8796"
         style="fill:none;stroke:#000000;stroke-width:0.44999999;stroke-linecap:butt;stroke-linejoin:miter;stroke-miterlimit:10;stroke-opacity:1;stroke-dasharray:none"
         id="path4865"
         inkscape:connector-curvature="0" /><path
         d="m 162.7,35.3199 27.9,18.6602"
         style="fill:none;stroke:#000000;stroke-width:0.44999999;stroke-linecap:butt;stroke-linejoin:miter;stroke-miterlimit:10;stroke-opacity:1;stroke-dasharray:none"
         id="path4867"
         inkscape:connector-curvature="0" /><path
         d="m 162.76,35.6199 1.92,57.8403"
         style="fill:none;stroke:#000000;stroke-width:0.44999999;stroke-linecap:butt;stroke-linejoin:miter;stroke-miterlimit:10;stroke-opacity:1;stroke-dasharray:none"
         id="path4869"
         inkscape:connector-curvature="0" /><path
         d="m 162.7,86.5602 1.86,6.6 1.56,-6.6602 -1.5,1.3199"
         style="fill:#000000;fill-opacity:1;fill-rule:evenodd;stroke:none"
         id="path4871"
         inkscape:connector-curvature="0" /><path
         d="m 162.7,86.5602 1.86,6.6 1.56,-6.6602 -1.5,1.3199 -1.92,-1.2597 z"
         style="fill:none;stroke:#000000;stroke-width:0.44999999;stroke-linecap:butt;stroke-linejoin:round;stroke-miterlimit:10;stroke-opacity:1;stroke-dasharray:none"
         id="path4873"
         inkscape:connector-curvature="0" /><path
         d="m 168.04,85.8398 -3.36,7.3204 5.64,-5.6403 -2.1,0.4801"
         style="fill:#000000;fill-opacity:1;fill-rule:evenodd;stroke:none"
         id="path4875"
         inkscape:connector-curvature="0" /><path
         d="m 168.04,85.8398 -3.36,7.3204 5.64,-5.6403 -2.1,0.4801 -0.18,-2.1602 z"
         style="fill:none;stroke:#000000;stroke-width:0.44999999;stroke-linecap:butt;stroke-linejoin:round;stroke-miterlimit:10;stroke-opacity:1;stroke-dasharray:none"
         id="path4877"
         inkscape:connector-curvature="0" /><path
         d="m 179.86,46.427 c -3.327,5.3867 -8.896,8.9964 -15.172,9.8335"
         style="fill:none;stroke:#000000;stroke-width:0.44999999;stroke-linecap:round;stroke-linejoin:round;stroke-miterlimit:10;stroke-opacity:1;stroke-dasharray:0.9, 1.8;stroke-dashoffset:1.8"
         id="path4885"
         inkscape:connector-curvature="0" /><path
         d="m 44.6801,65.5602 14.9398,-22.5"
         style="fill:none;stroke:#000000;stroke-width:0.89999998;stroke-linecap:round;stroke-linejoin:round;stroke-miterlimit:10;stroke-opacity:1;stroke-dasharray:none"
         id="path4893"
         inkscape:connector-curvature="0" /><path
         d="M 45.9398,60.6398 44.3801,65.9801 48.7602,62.5 46.6,62.6801"
         style="fill:#000000;fill-opacity:1;fill-rule:evenodd;stroke:none"
         id="path4895"
         inkscape:connector-curvature="0" /><path
         d="M 45.9398,60.6398 44.3801,65.9801 48.7602,62.5 46.6,62.6801 45.9398,60.6398 z"
         style="fill:none;stroke:#000000;stroke-width:0.89999998;stroke-linecap:round;stroke-linejoin:round;stroke-miterlimit:10;stroke-opacity:1;stroke-dasharray:none"
         id="path4897"
         inkscape:connector-curvature="0" /><path
         d="m 76.5398,56.6199 5.8204,1.6199 -3.1801,-4.4398 0,2.2199"
         style="fill:#000000;fill-opacity:1;fill-rule:evenodd;stroke:none"
         id="path4899"
         inkscape:connector-curvature="0" /><path
         d="m 76.5398,56.6199 5.8204,1.6199 -3.1801,-4.4398 0,2.2199 -2.6403,0.6 z"
         style="fill:none;stroke:#000000;stroke-width:0.89999998;stroke-linecap:round;stroke-linejoin:round;stroke-miterlimit:10;stroke-opacity:1;stroke-dasharray:none"
         id="path4901"
         inkscape:connector-curvature="0" /><path
         d="M 59.5,95.6801 61.7801,100.84 63.9398,95.5 61.6,97.4801"
         style="fill:#000000;fill-opacity:1;fill-rule:evenodd;stroke:none"
         id="path4903"
         inkscape:connector-curvature="0" /><path
         d="m 59.5,95.6801 2.2801,5.1599 2.1597,-5.34 -2.3398,1.9801 -2.1,-1.8 z"
         style="fill:none;stroke:#000000;stroke-width:0.89999998;stroke-linecap:round;stroke-linejoin:round;stroke-miterlimit:10;stroke-opacity:1;stroke-dasharray:none"
         id="path4905"
         inkscape:connector-curvature="0" /><path
         d="m 46.9,1.3 0.0602,0.18008 0.1796,0.35976 0.3,0.6 0.4204,0.96016 0.6,1.31992 0.7199,1.61992 0.8398,1.86016 0.9,2.1 0.9602,2.2199 0.9,2.2199 0.9597,2.2801 0.9,2.2199 0.7801,2.1 0.7801,2.0403 0.6602,1.9199 0.6,1.8 0.4796,1.7398 0.4801,1.6204 0.3602,1.5597 0.3,1.5 0.2398,1.5 0.2403,1.5 0.1199,1.5 0.1199,1.4403 0.0602,1.5597 0,1.5 L 59.8,44.0801 59.7398,45.7 59.6199,47.3801 59.4398,49.0602 59.2,50.7398 58.9602,52.4801 58.6,54.2199 l -0.3602,1.8 -0.4199,1.8 -0.4199,1.7403 -0.4801,1.7398 -0.5398,1.7398 -0.5403,1.6801 -0.6,1.6801 -0.6,1.6199 -0.6,1.5602 -0.6597,1.5597 -0.6602,1.4403 -0.6597,1.4398 L 51.4,75.4 50.6801,76.7801 49.9,78.1602 49.1199,79.4801 48.3398,80.8 47.5,82.1801 46.5398,83.5602 45.5199,85 44.4398,86.4398 43.3,88 l -1.2602,1.6801 -1.3796,1.6801 -1.4403,1.8 -1.5597,1.8597 -1.5602,1.9199 -1.6199,1.8602 -1.5602,1.86 -1.5,1.74 -1.3199,1.56 -1.2,1.32 -0.9,1.08 -0.7199,0.78 -0.4801,0.54 -0.2398,0.3 -0.1204,0.12"
         style="fill:none;stroke:#000000;stroke-width:0.89999998;stroke-linecap:round;stroke-linejoin:bevel;stroke-miterlimit:10;stroke-opacity:1;stroke-dasharray:none"
         id="path4907"
         inkscape:connector-curvature="0" /><path
         d="m 77.0801,54.4668 c -3.3266,5.3867 -8.8957,8.9965 -15.1715,9.8336"
         style="fill:none;stroke:#000000;stroke-width:0.44999999;stroke-linecap:round;stroke-linejoin:bevel;stroke-miterlimit:10;stroke-opacity:1;stroke-dasharray:0.9, 1.8;stroke-dashoffset:1.8"
         id="path4919"
         inkscape:connector-curvature="0" /><path
         d="m 5.2,78.7 0,-72"
         style="fill:#000000;fill-opacity:1;fill-rule:evenodd;stroke:none"
         id="path4921"
         inkscape:connector-curvature="0" /><path
         d="m 5.2,78.7 0,-72"
         style="fill:none;stroke:#000000;stroke-width:0.44999999;stroke-linecap:round;stroke-linejoin:round;stroke-miterlimit:10;stroke-opacity:1;stroke-dasharray:none"
         id="path4923"
         inkscape:connector-curvature="0" /><path
         d="m 0.7,6.7 85.5,0"
         style="fill:#000000;fill-opacity:1;fill-rule:evenodd;stroke:none"
         id="path4925"
         inkscape:connector-curvature="0" /><path
         d="m 0.7,6.7 85.5,0"
         style="fill:none;stroke:#000000;stroke-width:0.44999999;stroke-linecap:round;stroke-linejoin:round;stroke-miterlimit:10;stroke-opacity:1;stroke-dasharray:none"
         id="path4927"
         inkscape:connector-curvature="0" /><path
         d="M 5.2,6.7 59.9801,43.2398"
         style="fill:#000000;fill-opacity:1;fill-rule:evenodd;stroke:none"
         id="path4929"
         inkscape:connector-curvature="0" /><path
         d="M 5.2,6.7 59.9801,43.2398"
         style="fill:none;stroke:#000000;stroke-width:0.44999999;stroke-linecap:round;stroke-linejoin:round;stroke-miterlimit:10;stroke-opacity:1;stroke-dasharray:none"
         id="path4931"
         inkscape:connector-curvature="0" /><path
         d="m 82.1199,58 -22.5,-14.9398"
         style="fill:none;stroke:#000000;stroke-width:0.89999998;stroke-linecap:round;stroke-linejoin:round;stroke-miterlimit:10;stroke-opacity:1;stroke-dasharray:none"
         id="path4933"
         inkscape:connector-curvature="0" /><path
         d="m 59.8602,43 1.9199,57.84"
         style="fill:none;stroke:#000000;stroke-width:0.89999998;stroke-linecap:round;stroke-linejoin:round;stroke-miterlimit:10;stroke-opacity:1;stroke-dasharray:none"
         id="path4935"
         inkscape:connector-curvature="0" /><path
         d="M 56.2,38.6801 59.6801,43 l -5.3403,-1.5 2.1,-0.6"
         style="fill:#000000;fill-opacity:1;fill-rule:evenodd;stroke:none"
         id="path4937"
         inkscape:connector-curvature="0" /><path
         d="M 56.2,38.6801 59.6801,43 54.3398,41.5 56.4398,40.9 56.2,38.6801 z"
         style="fill:none;stroke:#000000;stroke-width:0.44999999;stroke-linecap:round;stroke-linejoin:round;stroke-miterlimit:10;stroke-opacity:1;stroke-dasharray:none"
         id="path4939"
         inkscape:connector-curvature="0" /><path
         d="m 70.6598,4.34531 c 0.0238,0.72617 0.0363,1.45391 0.0363,2.18086 0,36.32813 -29.45,65.77773 -65.77813,65.77773 -1.10938,0 -2.21953,-0.0281 -3.32774,-0.084"
         style="fill:none;stroke:#000000;stroke-width:0.44999999;stroke-linecap:round;stroke-linejoin:round;stroke-miterlimit:10;stroke-opacity:1;stroke-dasharray:2.28;stroke-dashoffset:0"
         id="path4947"
         inkscape:connector-curvature="0" /><path
         d="m 163.78,35.3199 c 0,-0.5961 -0.484,-1.0801 -1.08,-1.0801 -0.596,0 -1.08,0.484 -1.08,1.0801 0,0.5961 0.484,1.0801 1.08,1.0801 0.596,0 1.08,-0.484 1.08,-1.0801"
         style="fill:#ffffff;fill-opacity:1;fill-rule:evenodd;stroke:none"
         id="path4957"
         inkscape:connector-curvature="0" /><path
         d="m 163.78,35.3199 c 0,-0.5961 -0.484,-1.0801 -1.08,-1.0801 -0.596,0 -1.08,0.484 -1.08,1.0801 0,0.5961 0.484,1.0801 1.08,1.0801 0.596,0 1.08,-0.484 1.08,-1.0801 z"
         style="fill:none;stroke:#000000;stroke-width:0.44999999;stroke-linecap:round;stroke-linejoin:round;stroke-miterlimit:10;stroke-opacity:1;stroke-dasharray:none"
         id="path4959"
         inkscape:connector-curvature="0" /><path
         d="m 60.7602,43.0602 c 0,-0.5961 -0.484,-1.0801 -1.0801,-1.0801 -0.5961,0 -1.0801,0.484 -1.0801,1.0801 0,0.596 0.484,1.0796 1.0801,1.0796 0.5961,0 1.0801,-0.4836 1.0801,-1.0796"
         style="fill:#ffffff;fill-opacity:1;fill-rule:evenodd;stroke:none"
         id="path4961"
         inkscape:connector-curvature="0" /><path
         d="m 60.7602,43.0602 c 0,-0.5961 -0.484,-1.0801 -1.0801,-1.0801 -0.5961,0 -1.0801,0.484 -1.0801,1.0801 0,0.596 0.484,1.0796 1.0801,1.0796 0.5961,0 1.0801,-0.4836 1.0801,-1.0796 z"
         style="fill:none;stroke:#000000;stroke-width:0.44999999;stroke-linecap:round;stroke-linejoin:round;stroke-miterlimit:10;stroke-opacity:1;stroke-dasharray:none"
         id="path4963"
         inkscape:connector-curvature="0" /></g><text
       xml:space="preserve"
       style="font-size:8px;font-style:normal;font-variant:normal;font-weight:normal;font-stretch:normal;text-align:start;line-height:125%;letter-spacing:0px;word-spacing:0px;writing-mode:lr-tb;text-anchor:start;fill:#000000;fill-opacity:1;stroke:none;font-family:Linux Biolinum O;-inkscape-font-specification:Linux Biolinum O"
       x="54.076107"
       y="-68.041443"
       id="text5054"
       sodipodi:linespacing="125%"
       transform="scale(1,-1)"><tspan
         sodipodi:role="line"
         id="tspan5056"
         x="54.076107"
         y="-68.041443">$\psi$</tspan></text>
<text
       xml:space="preserve"
       style="font-size:8px;font-style:normal;font-variant:normal;font-weight:normal;font-stretch:normal;text-align:start;line-height:125%;letter-spacing:0px;word-spacing:0px;writing-mode:lr-tb;text-anchor:start;fill:#000000;fill-opacity:1;stroke:none;font-family:Linux Biolinum O;-inkscape-font-specification:Linux Biolinum O"
       x="77.553398"
       y="-57.543446"
       id="text5058"
       sodipodi:linespacing="125%"
       transform="scale(1,-1)"><tspan
         sodipodi:role="line"
         id="tspan5060"
         x="77.553398"
         y="-57.543446">$\vu(\theta)$</tspan></text>
<text
       xml:space="preserve"
       style="font-size:8px;font-style:normal;font-variant:normal;font-weight:normal;font-stretch:normal;text-align:start;line-height:125%;letter-spacing:0px;word-spacing:0px;writing-mode:lr-tb;text-anchor:start;fill:#000000;fill-opacity:1;stroke:none;font-family:Linux Biolinum O;-inkscape-font-specification:Linux Biolinum O"
       x="29.07922"
       y="-130.78436"
       id="text5062"
       sodipodi:linespacing="125%"
       transform="scale(1,-1)"><tspan
         sodipodi:role="line"
         id="tspan5064"
         x="29.07922"
         y="-130.78436">$\vx'(\theta)$</tspan></text>
<text
       transform="scale(1,-1)"
       sodipodi:linespacing="125%"
       id="text5066"
       y="-78.662567"
       x="5.9949312"
       style="font-size:8px;font-style:normal;font-variant:normal;font-weight:normal;font-stretch:normal;text-align:start;line-height:125%;letter-spacing:0px;word-spacing:0px;writing-mode:lr-tb;text-anchor:start;fill:#000000;fill-opacity:1;stroke:none;font-family:Linux Biolinum O;-inkscape-font-specification:Linux Biolinum O"
       xml:space="preserve"><tspan
         y="-78.662567"
         x="5.9949312"
         id="tspan5068"
         sodipodi:role="line">$\vu'(\theta)$</tspan></text>
<text
       transform="scale(1,-1)"
       sodipodi:linespacing="125%"
       id="text5106"
       y="-20.384356"
       x="-18.92078"
       style="font-size:8px;font-style:normal;font-variant:normal;font-weight:normal;font-stretch:normal;text-align:start;line-height:125%;letter-spacing:0px;word-spacing:0px;writing-mode:lr-tb;text-anchor:start;fill:#000000;fill-opacity:1;stroke:none;font-family:Linux Biolinum O;-inkscape-font-specification:Linux Biolinum O"
       xml:space="preserve"><tspan
         y="-20.384356"
         x="-18.92078"
         id="tspan5108"
         sodipodi:role="line">$\vx(\theta)$</tspan></text>
<text
       transform="scale(1,-1)"
       sodipodi:linespacing="125%"
       id="text5110"
       y="-58.441452"
       x="209.27609"
       style="font-size:8px;font-style:normal;font-variant:normal;font-weight:normal;font-stretch:normal;text-align:start;line-height:125%;letter-spacing:0px;word-spacing:0px;writing-mode:lr-tb;text-anchor:start;fill:#000000;fill-opacity:1;stroke:none;font-family:Linux Biolinum O;-inkscape-font-specification:Linux Biolinum O"
       xml:space="preserve"><tspan
         y="-58.441452"
         x="209.27609"
         id="tspan5112"
         sodipodi:role="line">$\psi$</tspan></text>
<text
       transform="scale(1,-1)"
       sodipodi:linespacing="125%"
       id="text5114"
       y="-65.184364"
       x="173.07919"
       style="font-size:8px;font-style:normal;font-variant:normal;font-weight:normal;font-stretch:normal;text-align:start;line-height:125%;letter-spacing:0px;word-spacing:0px;writing-mode:lr-tb;text-anchor:start;fill:#000000;fill-opacity:1;stroke:none;font-family:Linux Biolinum O;-inkscape-font-specification:Linux Biolinum O"
       xml:space="preserve"><tspan
         y="-65.184364"
         x="173.07919"
         id="tspan5116"
         sodipodi:role="line">$\vx'(\theta)$</tspan></text>
<text
       xml:space="preserve"
       style="font-size:10px;font-style:normal;font-variant:normal;font-weight:normal;font-stretch:normal;text-align:start;line-height:125%;letter-spacing:0px;word-spacing:0px;writing-mode:lr-tb;text-anchor:start;fill:#000000;fill-opacity:1;stroke:none;font-family:Linux Biolinum O;-inkscape-font-specification:Linux Biolinum O"
       x="262.53006"
       y="107.92213"
       id="text5118"
       sodipodi:linespacing="125%"
       transform="matrix(0.8,0,0,-0.8,0,113)"><tspan
         sodipodi:role="line"
         id="tspan5120"
         x="262.53006"
         y="107.92213">$f'(\theta)\vu(\theta)$</tspan></text>
<text
       transform="scale(1,-1)"
       sodipodi:linespacing="125%"
       id="text5122"
       y="-87.462303"
       x="219.62408"
       style="font-size:8px;font-style:normal;font-variant:normal;font-weight:normal;font-stretch:normal;text-align:start;line-height:125%;letter-spacing:0px;word-spacing:0px;writing-mode:lr-tb;text-anchor:start;fill:#000000;fill-opacity:1;stroke:none;font-family:Linux Biolinum O;-inkscape-font-specification:Linux Biolinum O"
       xml:space="preserve"><tspan
         y="-87.462303"
         x="219.62408"
         id="tspan5124"
         sodipodi:role="line">$f(\theta)\vu'(\theta)$</tspan></text>
</g></svg>