<?xml version="1.0" encoding="UTF-8" standalone="no"?>
<!-- Created with Inkscape (http://www.inkscape.org/) -->

<svg
   xmlns:dc="http://purl.org/dc/elements/1.1/"
   xmlns:cc="http://creativecommons.org/ns#"
   xmlns:rdf="http://www.w3.org/1999/02/22-rdf-syntax-ns#"
   xmlns:svg="http://www.w3.org/2000/svg"
   xmlns="http://www.w3.org/2000/svg"
   xmlns:xlink="http://www.w3.org/1999/xlink"
   xmlns:sodipodi="http://sodipodi.sourceforge.net/DTD/sodipodi-0.dtd"
   xmlns:inkscape="http://www.inkscape.org/namespaces/inkscape"
   id="svg7500"
   version="1.1"
   inkscape:version="0.48.1 r9760"
   width="296.53735"
   height="111.43032"
   xml:space="preserve"
   sodipodi:docname="06rose.pdf"><metadata
     id="metadata7506"><rdf:RDF><cc:Work
         rdf:about=""><dc:format>image/svg+xml</dc:format><dc:type
           rdf:resource="http://purl.org/dc/dcmitype/StillImage" /><dc:title></dc:title></cc:Work></rdf:RDF></metadata><defs
     id="defs7504"><marker
   inkscape:stockid="Arrow2Lend"
   orient="auto"
   refY="0"
   refX="0"
   id="Arrow2Lend"
   style="overflow:visible"><path
     id="path5316"
     style="font-size:12px;fill-rule:evenodd;stroke-width:0.625;stroke-linejoin:round"
     d="M 8.7185878,4.0337352 -2.2072895,0.01601326 8.7185884,-4.0017078 c -1.7454984,2.3720609 -1.7354408,5.6174519 -6e-7,8.035443 z"
     transform="matrix(-1.1,0,0,-1.1,-1.1,0)"
     inkscape:connector-curvature="0" /></marker><marker
   inkscape:stockid="Arrow1Mend"
   orient="auto"
   refY="0"
   refX="0"
   id="Arrow1Mend"
   style="overflow:visible"><path
     id="path5304"
     d="M 0,0 5,-5 -12.5,0 5,5 0,0 z"
     style="fill-rule:evenodd;stroke:#000000;stroke-width:1pt;marker-start:none"
     transform="matrix(-0.4,0,0,-0.4,-4,0)"
     inkscape:connector-curvature="0" /></marker><marker
   inkscape:stockid="EmptyTriangleOutL"
   orient="auto"
   refY="0"
   refX="0"
   id="EmptyTriangleOutL"
   style="overflow:visible"><path
     id="path5456"
     d="m 5.77,0 -8.65,5 0,-10 8.65,5 z"
     style="fill:#ffffff;fill-rule:evenodd;stroke:#000000;stroke-width:1pt;marker-start:none"
     transform="matrix(0.8,0,0,0.8,-4.8,0)"
     inkscape:connector-curvature="0" /></marker><marker
   inkscape:stockid="EmptyTriangleOutM"
   orient="auto"
   refY="0"
   refX="0"
   id="EmptyTriangleOutM"
   style="overflow:visible"><path
     id="path5459"
     d="m 5.77,0 -8.65,5 0,-10 8.65,5 z"
     style="fill:#ffffff;fill-rule:evenodd;stroke:#000000;stroke-width:1pt;marker-start:none"
     transform="matrix(0.4,0,0,0.4,-1.8,0)"
     inkscape:connector-curvature="0" /></marker><marker
   inkscape:stockid="Tail"
   orient="auto"
   refY="0"
   refX="0"
   id="Tail"
   style="overflow:visible"><g
     id="g5331"
     transform="scale(-1.2,-1.2)"><path
       id="path5333"
       d="M -3.8048674,-3.9585227 0.54352094,0"
       style="fill:none;stroke:#000000;stroke-width:0.80000001;stroke-linecap:round;marker-start:none;marker-end:none"
       inkscape:connector-curvature="0" /><path
       id="path5335"
       d="M -1.2866832,-3.9585227 3.0617053,0"
       style="fill:none;stroke:#000000;stroke-width:0.80000001;stroke-linecap:round;marker-start:none;marker-end:none"
       inkscape:connector-curvature="0" /><path
       id="path5337"
       d="M 1.3053582,-3.9585227 5.6537466,0"
       style="fill:none;stroke:#000000;stroke-width:0.80000001;stroke-linecap:round;marker-start:none;marker-end:none"
       inkscape:connector-curvature="0" /><path
       id="path5339"
       d="M -3.8048674,4.1775838 0.54352094,0.21974226"
       style="fill:none;stroke:#000000;stroke-width:0.80000001;stroke-linecap:round;marker-start:none;marker-end:none"
       inkscape:connector-curvature="0" /><path
       id="path5341"
       d="M -1.2866832,4.1775838 3.0617053,0.21974226"
       style="fill:none;stroke:#000000;stroke-width:0.80000001;stroke-linecap:round;marker-start:none;marker-end:none"
       inkscape:connector-curvature="0" /><path
       id="path5343"
       d="M 1.3053582,4.1775838 5.6537466,0.21974226"
       style="fill:none;stroke:#000000;stroke-width:0.80000001;stroke-linecap:round;marker-start:none;marker-end:none"
       inkscape:connector-curvature="0" /></g></marker><marker
   inkscape:stockid="Arrow1Lend"
   orient="auto"
   refY="0"
   refX="0"
   id="Arrow1Lend"
   style="overflow:visible"><path
     id="path5298"
     d="M 0,0 5,-5 -12.5,0 5,5 0,0 z"
     style="fill-rule:evenodd;stroke:#000000;stroke-width:1pt;marker-start:none"
     transform="matrix(-0.8,0,0,-0.8,-10,0)"
     inkscape:connector-curvature="0" /></marker><clipPath
   clipPathUnits="userSpaceOnUse"
   id="clipPath7572"><path
     d="M 0,880 0,0 2920,0 2920,880 0,880 z m 1846,-601 -54,0 0,-52.801 27,36 27,-36 0,52.801 z"
     clip-rule="evenodd"
     id="path7574"
     inkscape:connector-curvature="0" /></clipPath><clipPath
   clipPathUnits="userSpaceOnUse"
   id="clipPath7586"><path
     d="M 0,880 0,0 2920,0 2920,880 0,880 z m 2056.6,-584.199 -38.4,-38.403 37.2,-37.199 -6,44.403 44.4,-6 -37.2,37.199 z"
     clip-rule="evenodd"
     id="path7588"
     inkscape:connector-curvature="0" /></clipPath><clipPath
   clipPathUnits="userSpaceOnUse"
   id="clipPath7600"><path
     d="M 0,880 0,0 2920,0 2920,880 0,880 z m 2260,-628 0,-54 52.8,0 -36,27 36,27 -52.8,0 z"
     clip-rule="evenodd"
     id="path7602"
     inkscape:connector-curvature="0" /></clipPath><clipPath
   clipPathUnits="userSpaceOnUse"
   id="clipPath7614"><path
     d="M 0,880 0,0 2920,0 2920,880 0,880 z m 2603.2,-731.801 38.4,-38.398 37.2,37.199 -44.4,-6.602 6,45 -37.2,-37.199 z"
     clip-rule="evenodd"
     id="path7616"
     inkscape:connector-curvature="0" /></clipPath><clipPath
   clipPathUnits="userSpaceOnUse"
   id="clipPath7628"><path
     d="M 0,880 0,0 2920,0 2920,880 0,880 z m 1088.8,-816.3984 33.6,42.0004 -40.8,33 11.4,-43.8012 -45,1.8008 40.8,-33 z"
     clip-rule="evenodd"
     id="path7630"
     inkscape:connector-curvature="0" /></clipPath><clipPath
   clipPathUnits="userSpaceOnUse"
   id="clipPath7642"><path
     d="M 0,880 0,0 2920,0 2920,880 0,880 z m 1378,-682 0,54 -52.8,0 36,-27 -36,-27 52.8,0 z"
     clip-rule="evenodd"
     id="path7644"
     inkscape:connector-curvature="0" /></clipPath><clipPath
   clipPathUnits="userSpaceOnUse"
   id="clipPath7656"><path
     d="M 0,880 0,0 2920,0 2920,880 0,880 z m 1709.2,-622.602 -38.4,38.403 -37.2,-37.199 45,6 -6.6,-44.403 37.2,37.199 z"
     clip-rule="evenodd"
     id="path7658"
     inkscape:connector-curvature="0" /></clipPath>
</defs><sodipodi:namedview
     pagecolor="#ffffff"
     bordercolor="#666666"
     borderopacity="1"
     objecttolerance="10"
     gridtolerance="10"
     guidetolerance="10"
     inkscape:pageopacity="0"
     inkscape:pageshadow="2"
     inkscape:window-width="1280"
     inkscape:window-height="756"
     id="namedview7502"
     showgrid="false"
     inkscape:zoom="3.1912983"
     inkscape:cx="144.99762"
     inkscape:cy="55.425316"
     inkscape:window-x="0"
     inkscape:window-y="0"
     inkscape:window-maximized="0"
     inkscape:current-layer="g7508"
     showguides="false"
     inkscape:guide-bbox="true"
     fit-margin-top="3"
     fit-margin-left="3"
     fit-margin-right="3"
     fit-margin-bottom="3"><sodipodi:guide
       orientation="0,1"
       position="121.19379,23.468453"
       id="guide10435" /><sodipodi:guide
       orientation="0,1"
       position="239.3166,98.973659"
       id="guide11062" /></sodipodi:namedview><g
     id="g7508"
     inkscape:groupmode="layer"
     inkscape:label="ink_ext_XXXXXX"
     transform="matrix(1.25,0,0,-1.25,-38.571565,119.41664)">



<text
   xml:space="preserve"
   style="font-size:8px;font-style:normal;font-variant:normal;font-weight:normal;font-stretch:normal;text-align:start;line-height:125%;letter-spacing:0px;word-spacing:0px;writing-mode:lr-tb;text-anchor:start;fill:#000000;fill-opacity:1;stroke:none;font-family:Linux Biolinum O;-inkscape-font-specification:Linux Biolinum O"
   x="129.49628"
   y="-87.437309"
   id="text10339"
   sodipodi:linespacing="125%"
   transform="scale(1,-1)"><tspan
     sodipodi:role="line"
     id="tspan10341"
     x="129.49628"
     y="-87.437309">$t=-1$</tspan></text>
<text
   transform="scale(1,-1)"
   sodipodi:linespacing="125%"
   id="text10343"
   y="-87.437309"
   x="174.29631"
   style="font-size:8px;font-style:normal;font-variant:normal;font-weight:normal;font-stretch:normal;text-align:start;line-height:125%;letter-spacing:0px;word-spacing:0px;writing-mode:lr-tb;text-anchor:start;fill:#000000;fill-opacity:1;stroke:none;font-family:Linux Biolinum O;-inkscape-font-specification:Linux Biolinum O"
   xml:space="preserve"><tspan
     y="-87.437309"
     x="174.29631"
     id="tspan10345"
     sodipodi:role="line">$t=0$</tspan></text>
<text
   xml:space="preserve"
   style="font-size:8px;font-style:normal;font-variant:normal;font-weight:normal;font-stretch:normal;text-align:start;line-height:125%;letter-spacing:0px;word-spacing:0px;writing-mode:lr-tb;text-anchor:start;fill:#000000;fill-opacity:1;stroke:none;font-family:Linux Biolinum O;-inkscape-font-specification:Linux Biolinum O"
   x="212.69621"
   y="-87.437309"
   id="text10347"
   sodipodi:linespacing="125%"
   transform="scale(1,-1)"><tspan
     sodipodi:role="line"
     id="tspan10349"
     x="212.69621"
     y="-87.437309">$t=1$</tspan></text>

<text
   xml:space="preserve"
   style="font-size:8px;font-style:normal;font-variant:normal;font-weight:normal;font-stretch:normal;text-align:start;line-height:125%;letter-spacing:0px;word-spacing:0px;writing-mode:lr-tb;text-anchor:start;fill:#000000;fill-opacity:1;stroke:none;font-family:Linux Biolinum O;-inkscape-font-specification:Linux Biolinum O"
   x="32.993252"
   y="-71.573715"
   id="text7853"
   sodipodi:linespacing="125%"
   transform="scale(1,-1)"><tspan
     sodipodi:role="line"
     id="tspan7855"
     x="32.993252"
     y="-71.573715">sign of $x_1'(t)$</tspan></text>
<text
   transform="scale(1,-1)"
   sodipodi:linespacing="125%"
   id="text7857"
   y="-42.773735"
   x="32.993252"
   style="font-size:8px;font-style:normal;font-variant:normal;font-weight:normal;font-stretch:normal;text-align:start;line-height:125%;letter-spacing:0px;word-spacing:0px;writing-mode:lr-tb;text-anchor:start;fill:#000000;fill-opacity:1;stroke:none;font-family:Linux Biolinum O;-inkscape-font-specification:Linux Biolinum O"
   xml:space="preserve"><tspan
     y="-42.773735"
     x="32.993252"
     id="tspan7859"
     sodipodi:role="line">sign of $x_2'(t)$</tspan></text>
<text
   xml:space="preserve"
   style="font-size:8px;font-style:normal;font-variant:normal;font-weight:normal;font-stretch:normal;text-align:start;line-height:125%;letter-spacing:0px;word-spacing:0px;writing-mode:lr-tb;text-anchor:start;fill:#000000;fill-opacity:1;stroke:none;font-family:Linux Biolinum O;-inkscape-font-specification:Linux Biolinum O"
   x="32.993252"
   y="-17.173742"
   id="text10413"
   sodipodi:linespacing="125%"
   transform="scale(1,-1)"><tspan
     sodipodi:role="line"
     id="tspan10415"
     x="32.993252"
     y="-17.173742">direction of $\vx'(t)$</tspan></text>
<path
   inkscape:connector-curvature="0"
   id="path7520"
   style="fill:#000000;fill-opacity:1;fill-rule:evenodd;stroke:none"
   d="m 100.57207,64.927005 162,0" /><path
   inkscape:connector-curvature="0"
   id="path7522"
   style="fill:none;stroke:#000000;stroke-width:0.67499995;stroke-linecap:butt;stroke-linejoin:round;stroke-miterlimit:10;stroke-opacity:1;stroke-dasharray:none"
   d="m 100.57207,64.927005 162,0" /><path
   inkscape:connector-curvature="0"
   id="path7524"
   style="fill:#000000;fill-opacity:1;fill-rule:evenodd;stroke:none"
   d="m 100.57207,37.927005 162,0" /><path
   inkscape:connector-curvature="0"
   id="path7526"
   style="fill:none;stroke:#000000;stroke-width:0.67499995;stroke-linecap:butt;stroke-linejoin:round;stroke-miterlimit:10;stroke-opacity:1;stroke-dasharray:none"
   d="m 100.57207,37.927005 162,0" /><path
   inkscape:connector-curvature="0"
   id="path7528"
   style="fill:#000000;fill-opacity:1;fill-rule:evenodd;stroke:none"
   d="m 141.07207,71.677005 0,-50.625" /><path
   inkscape:connector-curvature="0"
   id="path7530"
   style="fill:none;stroke:#000000;stroke-width:0.33749998;stroke-linecap:butt;stroke-linejoin:round;stroke-miterlimit:10;stroke-opacity:1;stroke-dasharray:2.025;stroke-dashoffset:0"
   d="m 141.07207,85.567981 0,-55.733553"
   sodipodi:nodetypes="cc" /><path
   inkscape:connector-curvature="0"
   id="path7532"
   style="fill:#000000;fill-opacity:1;fill-rule:evenodd;stroke:none"
   d="m 222.07207,71.677005 0,-50.625" /><path
   inkscape:connector-curvature="0"
   id="path7534"
   style="fill:none;stroke:#000000;stroke-width:0.33749998;stroke-linecap:butt;stroke-linejoin:round;stroke-miterlimit:10;stroke-opacity:1;stroke-dasharray:2.025;stroke-dashoffset:0"
   d="m 222.07207,85.567981 0,-55.76811"
   sodipodi:nodetypes="cc" /><path
   inkscape:connector-curvature="0"
   id="path7536"
   style="fill:#000000;fill-opacity:1;fill-rule:evenodd;stroke:none"
   d="m 181.57207,71.677005 0,-20.25" /><path
   sodipodi:nodetypes="cc"
   inkscape:connector-curvature="0"
   id="path7538"
   style="fill:none;stroke:#000000;stroke-width:0.33749998;stroke-linecap:butt;stroke-linejoin:round;stroke-miterlimit:10;stroke-opacity:1;stroke-dasharray:2.025;stroke-dashoffset:0"
   d="m 181.57207,85.567981 0,-34.140976" /><path
   inkscape:connector-curvature="0"
   id="path7540"
   style="fill:#000000;fill-opacity:1;fill-rule:evenodd;stroke:none"
   d="m 181.57207,37.927005 0,-16.875" /><path
   inkscape:connector-curvature="0"
   id="path7542"
   style="fill:none;stroke:#000000;stroke-width:0.33749998;stroke-linecap:butt;stroke-linejoin:round;stroke-miterlimit:10;stroke-opacity:1;stroke-dasharray:2.025;stroke-dashoffset:0"
   d="m 181.57207,37.927005 0,-8.127133"
   sodipodi:nodetypes="cc" /><path
   inkscape:connector-curvature="0"
   id="path7556"
   style="fill:#ffffff;fill-opacity:1;fill-rule:evenodd;stroke:none"
   d="m 182.65207,64.927005 c 0,-0.596175 -0.48375,-1.07985 -1.08,-1.07985 -0.59625,0 -1.08,0.483675 -1.08,1.07985 0,0.596175 0.48375,1.07985 1.08,1.07985 0.59625,0 1.08,-0.483675 1.08,-1.07985" /><path
   inkscape:connector-curvature="0"
   id="path7558"
   style="fill:none;stroke:#000000;stroke-width:0.33749998;stroke-linecap:butt;stroke-linejoin:round;stroke-miterlimit:10;stroke-opacity:1;stroke-dasharray:none"
   d="m 182.65207,64.927005 c 0,-0.596175 -0.48375,-1.07985 -1.08,-1.07985 -0.59625,0 -1.08,0.483675 -1.08,1.07985 0,0.596175 0.48375,1.07985 1.08,1.07985 0.59625,0 1.08,-0.483675 1.08,-1.07985 z" /><path
   inkscape:connector-curvature="0"
   id="path7560"
   style="fill:#ffffff;fill-opacity:1;fill-rule:evenodd;stroke:none"
   d="m 142.15207,37.927005 c 0,-0.596175 -0.48375,-1.07985 -1.08,-1.07985 -0.59625,0 -1.08,0.483675 -1.08,1.07985 0,0.596175 0.48375,1.07985 1.08,1.07985 0.59625,0 1.08,-0.483675 1.08,-1.07985" /><path
   inkscape:connector-curvature="0"
   id="path7562"
   style="fill:none;stroke:#000000;stroke-width:0.33749998;stroke-linecap:butt;stroke-linejoin:round;stroke-miterlimit:10;stroke-opacity:1;stroke-dasharray:none"
   d="m 142.15207,37.927005 c 0,-0.596175 -0.48375,-1.07985 -1.08,-1.07985 -0.59625,0 -1.08,0.483675 -1.08,1.07985 0,0.596175 0.48375,1.07985 1.08,1.07985 0.59625,0 1.08,-0.483675 1.08,-1.07985 z" /><path
   inkscape:connector-curvature="0"
   id="path7564"
   style="fill:#ffffff;fill-opacity:1;fill-rule:evenodd;stroke:none"
   d="m 223.15207,37.927005 c 0,-0.596175 -0.48375,-1.07985 -1.08,-1.07985 -0.59625,0 -1.08,0.483675 -1.08,1.07985 0,0.596175 0.48375,1.07985 1.08,1.07985 0.59625,0 1.08,-0.483675 1.08,-1.07985" /><path
   inkscape:connector-curvature="0"
   id="path7566"
   style="fill:none;stroke:#000000;stroke-width:0.33749998;stroke-linecap:butt;stroke-linejoin:round;stroke-miterlimit:10;stroke-opacity:1;stroke-dasharray:none"
   d="m 223.15207,37.927005 c 0,-0.596175 -0.48375,-1.07985 -1.08,-1.07985 -0.59625,0 -1.08,0.483675 -1.08,1.07985 0,0.596175 0.48375,1.07985 1.08,1.07985 0.59625,0 1.08,-0.483675 1.08,-1.07985 z" /><path
   style="fill:#ff00ff;stroke:#0000ff;stroke-width:0.83999997;stroke-linecap:round;stroke-linejoin:miter;stroke-miterlimit:4;stroke-opacity:1;stroke-dasharray:none"
   d="m 112.18828,77.025051 0,-8.168739"
   id="path10359"
   inkscape:connector-curvature="0" /><path
   style="fill:#ff00ff;stroke:#0000ff;stroke-width:0.83999997;stroke-linecap:round;stroke-linejoin:miter;stroke-miterlimit:4;stroke-opacity:1;stroke-dasharray:none"
   d="m 107.90942,73.135175 8.55772,0"
   id="path10361"
   inkscape:connector-curvature="0" /><path
   inkscape:connector-curvature="0"
   id="path10363"
   d="m 184.70942,73.135177 8.55772,0"
   style="fill:none;stroke:#ff0000;stroke-width:0.84000003;stroke-linecap:round;stroke-linejoin:miter;stroke-miterlimit:4;stroke-opacity:1;stroke-dasharray:none" /><g
   style="fill:#ff00ff;stroke:#0000ff"
   transform="matrix(0.75,0,0,0.75,-18.45293,-46.672995)"
   id="use10369"><path
     style="fill:#ff00ff;stroke:#0000ff;stroke-width:1.39999998;stroke-linecap:round;stroke-linejoin:miter;stroke-miterlimit:4;stroke-opacity:1;stroke-dasharray:none"
     d="m 197.73535,-96.16341 0,13.614565"
     id="path11124"
     inkscape:connector-curvature="0"
     transform="matrix(0.8,0,0,-0.8,0,88)" /><path
     style="fill:#ff00ff;stroke:#0000ff;stroke-width:1.39999998;stroke-linecap:round;stroke-linejoin:miter;stroke-miterlimit:4;stroke-opacity:1;stroke-dasharray:none"
     d="m 190.60391,-89.680284 14.26288,0"
     id="path11126"
     inkscape:connector-curvature="0"
     transform="matrix(0.8,0,0,-0.8,0,88)" /></g><use
   x="0"
   y="0"
   xlink:href="#use10369"
   id="use10373"
   transform="translate(26.4,0)"
   width="365"
   height="110" /><use
   x="0"
   y="0"
   xlink:href="#use10373"
   id="use10375"
   width="365"
   height="110" /><use
   x="0"
   y="0"
   xlink:href="#use10375"
   id="use10377"
   transform="translate(14.4,0)"
   width="365"
   height="110" /><use
   x="0"
   y="0"
   xlink:href="#use10377"
   id="use10379"
   transform="translate(14.4,0)"
   width="365"
   height="110" /><use
   x="0"
   y="0"
   xlink:href="#use10379"
   id="use10381"
   transform="translate(14.4,0)"
   width="365"
   height="110" /><use
   x="0"
   y="0"
   xlink:href="#use10381"
   id="use10383"
   transform="translate(-16.8,-28.8)"
   width="365"
   height="110" /><use
   x="0"
   y="0"
   xlink:href="#use10383"
   id="use10385"
   transform="translate(14.4,0)"
   width="365"
   height="110" /><use
   x="0"
   y="0"
   xlink:href="#use10385"
   id="use10387"
   transform="translate(14.4,0)"
   width="365"
   height="110" /><use
   x="0"
   y="0"
   xlink:href="#use10387"
   id="use10389"
   transform="translate(14.4,0)"
   width="365"
   height="110" /><use
   x="0"
   y="0"
   xlink:href="#use10389"
   id="use10391"
   transform="translate(14.4,0)"
   width="365"
   height="110" /><use
   x="0"
   y="0"
   xlink:href="#path10363"
   id="use10393"
   transform="translate(14.4,0)"
   width="365"
   height="110" /><use
   x="0"
   y="0"
   xlink:href="#use10393"
   id="use10395"
   transform="translate(14.4,0)"
   width="365"
   height="110" /><use
   x="0"
   y="0"
   xlink:href="#use10395"
   id="use10397"
   transform="translate(14.4,0)"
   width="365"
   height="110" /><use
   x="0"
   y="0"
   xlink:href="#use10397"
   id="use10399"
   transform="translate(14.4,0)"
   width="365"
   height="110" /><use
   x="0"
   y="0"
   xlink:href="#use10399"
   id="use10401"
   transform="translate(-16.8,-28.8)"
   width="365"
   height="110" /><use
   x="0"
   y="0"
   xlink:href="#use10401"
   id="use10403"
   transform="translate(14.4,0)"
   width="365"
   height="110" /><use
   x="0"
   y="0"
   xlink:href="#use10403"
   id="use10405"
   transform="translate(-142.8,0)"
   width="365"
   height="110" /><use
   x="0"
   y="0"
   xlink:href="#use10405"
   id="use10407"
   transform="translate(14.4,0)"
   width="365"
   height="110" /><use
   x="0"
   y="0"
   xlink:href="#use10407"
   id="use10409"
   transform="translate(14.4,0)"
   width="365"
   height="110" /><use
   x="0"
   y="0"
   xlink:href="#use10409"
   id="use10411"
   transform="translate(128.4,0)"
   width="365"
   height="110" /><path
   inkscape:connector-curvature="0"
   id="path7576"
   style="fill:#000000;fill-opacity:1;fill-rule:evenodd;stroke:none;stroke-width:0.80000001;marker-start:none;marker-end:url(#Arrow2Lend)"
   d="m 181.57207,13.852005 0,10.125" /><path
   inkscape:connector-curvature="0"
   id="path7578"
   style="fill:none;stroke:#000000;stroke-width:0.60000002;stroke-linecap:butt;stroke-linejoin:round;stroke-miterlimit:10;stroke-opacity:1;stroke-dasharray:none;marker-start:none;marker-end:url(#Arrow2Lend)"
   d="m 181.57207,9.0890533 c 0,-5.0136335 0,14.8879517 0,14.8879517"
   sodipodi:nodetypes="cc" /><path
   inkscape:connector-curvature="0"
   id="path7590"
   style="fill:#000000;fill-opacity:1;fill-rule:evenodd;stroke:none;stroke-width:0.80000001;marker-start:none;marker-end:url(#Arrow2Lend)"
   d="m 208.57207,13.852005 -10.125,10.125" /><path
   inkscape:connector-curvature="0"
   id="path7592"
   style="fill:none;stroke:#000000;stroke-width:0.60000002;stroke-linecap:butt;stroke-linejoin:round;stroke-miterlimit:10;stroke-opacity:1;stroke-dasharray:none;marker-start:none;marker-end:url(#Arrow2Lend)"
   d="m 208.57207,13.852005 -10.125,10.125" /><path
   inkscape:connector-curvature="0"
   id="path7604"
   style="fill:#000000;fill-opacity:1;fill-rule:evenodd;stroke:none;stroke-width:0.80000001;marker-start:none;marker-end:url(#Arrow2Lend)"
   d="m 228.82207,20.602005 -13.5,0" /><path
   inkscape:connector-curvature="0"
   id="path7606"
   style="fill:none;stroke:#000000;stroke-width:0.60000002;stroke-linecap:butt;stroke-linejoin:round;stroke-miterlimit:10;stroke-opacity:1;stroke-dasharray:none;marker-start:none;marker-end:url(#Arrow2Lend)"
   d="m 231.07821,20.602005 -15.75614,0"
   sodipodi:nodetypes="cc" /><path
   inkscape:connector-curvature="0"
   id="path7618"
   style="fill:#000000;fill-opacity:1;fill-rule:evenodd;stroke:none;stroke-width:0.80000001;marker-start:none;marker-end:url(#Arrow2Lend)"
   d="m 252.44707,23.977005 -10.125,-10.125" /><path
   inkscape:connector-curvature="0"
   id="path7620"
   style="fill:none;stroke:#000000;stroke-width:0.60000002;stroke-linecap:butt;stroke-linejoin:round;stroke-miterlimit:10;stroke-opacity:1;stroke-dasharray:none;marker-start:none;marker-end:url(#Arrow2Lend)"
   d="m 252.44707,23.977005 -10.125,-10.125" /><path
   inkscape:connector-curvature="0"
   id="path7632"
   style="fill:#000000;fill-opacity:1;fill-rule:evenodd;stroke:none"
   d="m 110.69707,23.977005 16.875,-13.5" /><path
   inkscape:connector-curvature="0"
   id="path7634"
   style="fill:none;stroke:#000000;stroke-width:0.60000002;stroke-linecap:butt;stroke-linejoin:round;stroke-miterlimit:10;stroke-opacity:1;stroke-dasharray:none;marker-start:none;marker-end:url(#Arrow2Lend)"
   d="m 110.69707,23.977005 16.875,-13.5" /><path
   inkscape:connector-curvature="0"
   id="path7646"
   style="fill:#000000;fill-opacity:1;fill-rule:evenodd;stroke:none;stroke-width:0.80000001;marker-start:none;marker-end:url(#Arrow2Lend)"
   d="m 134.32207,20.602005 13.5,0" /><path
   inkscape:connector-curvature="0"
   id="path7648"
   style="fill:#000000;stroke:#000000;stroke-width:0.60000002;stroke-linecap:butt;stroke-linejoin:round;stroke-miterlimit:10;stroke-opacity:1;stroke-dasharray:none;marker-start:none;marker-end:url(#Arrow2Lend)"
   d="m 130.31116,20.602005 17.51091,0"
   sodipodi:nodetypes="cc" /><path
   inkscape:connector-curvature="0"
   id="path7660"
   style="fill:#000000;fill-opacity:1;fill-rule:evenodd;stroke:none"
   d="m 157.94707,10.477005 13.5,13.5" /><path
   inkscape:connector-curvature="0"
   id="path7662"
   style="fill:none;stroke:#000000;stroke-width:0.60000002;stroke-linecap:butt;stroke-linejoin:round;stroke-miterlimit:10;stroke-opacity:1;stroke-dasharray:none;marker-start:none;marker-end:url(#Arrow2Lend)"
   d="m 157.94707,10.477005 13.5,13.5" /><use
   x="0"
   y="0"
   xlink:href="#use10399"
   id="use10994"
   transform="translate(14.4,0)"
   width="365.99524"
   height="136.00999" /></g></svg>