<?xml version="1.0" encoding="UTF-8" standalone="no"?>
<!-- Created with Inkscape (http://www.inkscape.org/) -->

<svg
   xmlns:dc="http://purl.org/dc/elements/1.1/"
   xmlns:cc="http://creativecommons.org/ns#"
   xmlns:rdf="http://www.w3.org/1999/02/22-rdf-syntax-ns#"
   xmlns:svg="http://www.w3.org/2000/svg"
   xmlns="http://www.w3.org/2000/svg"
   xmlns:sodipodi="http://sodipodi.sourceforge.net/DTD/sodipodi-0.dtd"
   xmlns:inkscape="http://www.inkscape.org/namespaces/inkscape"
   id="svg8069"
   version="1.1"
   inkscape:version="0.48.1 r9760"
   width="105.17249"
   height="148.5623"
   xml:space="preserve"
   sodipodi:docname="06tangent-constructed.pdf"><metadata
     id="metadata8075"><rdf:RDF><cc:Work
         rdf:about=""><dc:format>image/svg+xml</dc:format><dc:type
           rdf:resource="http://purl.org/dc/dcmitype/StillImage" /><dc:title></dc:title></cc:Work></rdf:RDF></metadata><defs
     id="defs8073" /><sodipodi:namedview
     pagecolor="#ffffff"
     bordercolor="#666666"
     borderopacity="1"
     objecttolerance="10"
     gridtolerance="10"
     guidetolerance="10"
     inkscape:pageopacity="0"
     inkscape:pageshadow="2"
     inkscape:window-width="640"
     inkscape:window-height="480"
     id="namedview8071"
     showgrid="false"
     fit-margin-top="5"
     fit-margin-left="5"
     fit-margin-bottom="5"
     fit-margin-right="5"
     inkscape:zoom="2.1066667"
     inkscape:cx="49.592532"
     inkscape:cy="69.33105"
     inkscape:window-x="0"
     inkscape:window-y="0"
     inkscape:window-maximized="0"
     inkscape:current-layer="g8077" /><g
     id="g8077"
     inkscape:groupmode="layer"
     inkscape:label="ink_ext_XXXXXX"
     transform="matrix(1.25,0,0,-1.25,0.84253158,154.23125)"><path
       inkscape:connector-curvature="0"
       id="path8081"
       style="fill:none;stroke:#000000;stroke-width:0.44999999;stroke-linecap:butt;stroke-linejoin:round;stroke-miterlimit:10;stroke-opacity:1;stroke-dasharray:none"
       d="m 4.33984,42.9602 13.92036,23.1597 31.8,53.0401" /><path
       inkscape:connector-curvature="0"
       id="path8083"
       style="fill:none;stroke:#000000;stroke-width:0.44999999;stroke-linecap:butt;stroke-linejoin:bevel;stroke-miterlimit:10;stroke-opacity:1;stroke-dasharray:none"
       d="m 34.4,26.3398 0.0602,0 0.3597,0.0602 0.4199,0.0602 0.3602,0 0.3,-0.0602 0.3,-0.1199 0.3602,-0.2403 0.3597,-0.3 0.3,-0.3597 0.2403,-0.4199 0.1199,-0.4204 L 37.7,24.0602 37.7602,23.5801 37.7,22.9801 37.5801,22.5 37.4,22.0199 l -0.1801,-0.3 -0.1801,-0.2398 -0.2398,-0.3 -0.3,-0.2403 -0.3602,-0.2398 -0.3597,-0.2398 -0.4199,-0.1801 -0.4801,-0.1199 -0.4199,-0.1204 -0.5403,-0.0597 -1.1398,0 -0.6602,0.1199 -0.7801,0.1199 -0.7796,0.2403 -0.8403,0.2398 -0.8398,0.3602 -0.8403,0.3597 -0.7796,0.4199 -0.7801,0.4204 -0.5403,0.3597 -0.6,0.4199 -0.6,0.4204 -0.6,0.5398 -0.6597,0.5398 -0.6,0.6 -0.6602,0.6602 -0.6597,0.7199 -0.6,0.7801 -0.6,0.7801 -0.6,0.7801 -0.5403,0.8398 -0.4801,0.8398 -0.4796,0.8403 -0.4204,0.7801 -0.4199,0.9 -0.4199,0.9 -0.4199,0.9597 -0.3602,1.0199 -0.3597,1.0801 L 15.5,38.1 l -0.3602,1.2 -0.3,1.1398 -0.3,1.2 -0.2398,1.2 -0.1801,1.2 L 14,45.1801 13.8801,46.3199 13.8199,47.4 l -0.0597,1.0801 0,1.1398 0.0597,1.0801 0.0602,1.1398 0.1801,1.2 0.1199,1.2 0.2398,1.2 0.3,1.2602 0.3,1.2602 0.3602,1.2 0.3597,1.2 0.4204,1.2 0.4199,1.0796 0.4801,1.0801 0.4796,1.0199 0.4801,0.9602 0.5403,0.9 0.5398,0.9 0.5398,0.8398 0.6602,0.9 0.6602,0.8403 0.7199,0.9 0.7801,0.8398 0.8398,0.8403 0.8398,0.8398 0.9,0.7801 0.9,0.7199 0.9,0.7199 0.9602,0.6602 0.9,0.6597 0.9,0.5403 0.9602,0.5398 0.9,0.5403 0.9597,0.4796 1.0199,0.4801 1.0204,0.4199 1.0796,0.4204 1.1403,0.4796 1.2,0.3602 1.2,0.4199 1.2597,0.3 1.2602,0.3602 1.2602,0.2398 1.2,0.3 1.2597,0.1801 1.1403,0.1801 1.1398,0.1199 1.1398,0.0602 1.0801,0.0597 1.0801,0.0602 1.1398,0 1.0801,-0.0602 1.1403,-0.0597 1.2,-0.1204 1.1398,-0.1796 1.2,-0.1801 1.1398,-0.2403 1.1403,-0.3 1.1398,-0.2398 1.0801,-0.3602 1.0199,-0.3597 0.9602,-0.3602 0.9,-0.4199 0.8398,-0.3602 0.7801,-0.4796 0.8398,-0.5403 0.8403,-0.5398 0.8398,-0.6602 0.9,-0.7801 0.9,-0.9 0.9602,-0.9597 L 73.1,74.3398 74.1199,73.2 75.1398,72 75.9801,70.9801 76.6398,70.2 l 0.4204,-0.4801 0.1796,-0.1801 0,-0.0597" /><path
       inkscape:connector-curvature="0"
       id="path8099"
       style="fill:none;stroke:#000000;stroke-width:0.89999998;stroke-linecap:round;stroke-linejoin:round;stroke-miterlimit:10;stroke-opacity:1;stroke-dasharray:none"
       d="M 18.5602,66.2398 42.9199,107.46" /><path
       inkscape:connector-curvature="0"
       id="path8101"
       style="fill:#000000;fill-opacity:1;fill-rule:evenodd;stroke:none"
       d="m 43.6398,108.54 -0.9,-8.34 -1.4398,3.54 -4.9801,-0.9" /><path
       inkscape:connector-curvature="0"
       id="path8103"
       style="fill:none;stroke:#000000;stroke-width:0.44999999;stroke-linecap:butt;stroke-linejoin:round;stroke-miterlimit:10;stroke-opacity:1;stroke-dasharray:none"
       d="m 43.6398,108.54 -0.9,-8.34 -1.4398,3.54 -4.9801,-0.9 7.3199,5.7 z" /><path
       inkscape:connector-curvature="0"
       id="path8105"
       style="fill:#000000;fill-opacity:1;fill-rule:evenodd;stroke:none"
       d="m 59.4199,9.96016 -39.6,54.71994" /><path
       inkscape:connector-curvature="0"
       id="path8107"
       style="fill:none;stroke:#000000;stroke-width:0.44999999;stroke-linecap:butt;stroke-linejoin:round;stroke-miterlimit:10;stroke-opacity:1;stroke-dasharray:none"
       d="m 59.4199,9.96016 -39.6,54.71994" /><path
       inkscape:connector-curvature="0"
       id="path8109"
       style="fill:#000000;fill-opacity:1;fill-rule:evenodd;stroke:none"
       d="m 18.7398,66.4199 1.9801,-8.1597 1.4403,3.3597 3.3597,0" /><path
       inkscape:connector-curvature="0"
       id="path8111"
       style="fill:none;stroke:#000000;stroke-width:0.44999999;stroke-linecap:butt;stroke-linejoin:round;stroke-miterlimit:10;stroke-opacity:1;stroke-dasharray:none"
       d="m 18.7398,66.4199 1.9801,-8.1597 1.4403,3.3597 3.3597,0 -6.7801,4.8 z" /><path
       inkscape:connector-curvature="0"
       id="path8113"
       style="fill:#ffffff;fill-opacity:1;fill-rule:evenodd;stroke:none"
       d="m 60.4398,9.96016 c 0,-0.6625 -0.5375,-1.2 -1.2,-1.2 -0.6625,0 -1.2,0.5375 -1.2,1.2 0,0.66254 0.5375,1.20004 1.2,1.20004 0.6625,0 1.2,-0.5375 1.2,-1.20004" /><path
       inkscape:connector-curvature="0"
       id="path8115"
       style="fill:none;stroke:#000000;stroke-width:0.44999999;stroke-linecap:butt;stroke-linejoin:round;stroke-miterlimit:10;stroke-opacity:1;stroke-dasharray:none"
       d="m 60.4398,9.96016 c 0,-0.6625 -0.5375,-1.2 -1.2,-1.2 -0.6625,0 -1.2,0.5375 -1.2,1.2 0,0.66254 0.5375,1.20004 1.2,1.20004 0.6625,0 1.2,-0.5375 1.2,-1.20004 z" /><path
       inkscape:connector-curvature="0"
       id="path8117"
       style="fill:#ffffff;fill-opacity:1;fill-rule:evenodd;stroke:none"
       d="m 19.7,66.5398 c 0,-0.6625 -0.5375,-1.2 -1.2,-1.2 -0.6625,0 -1.2,0.5375 -1.2,1.2 0,0.6625 0.5375,1.2 1.2,1.2 0.6625,0 1.2,-0.5375 1.2,-1.2" /><path
       inkscape:connector-curvature="0"
       id="path8119"
       style="fill:none;stroke:#000000;stroke-width:0.44999999;stroke-linecap:butt;stroke-linejoin:round;stroke-miterlimit:10;stroke-opacity:1;stroke-dasharray:none"
       d="m 19.7,66.5398 c 0,-0.6625 -0.5375,-1.2 -1.2,-1.2 -0.6625,0 -1.2,0.5375 -1.2,1.2 0,0.6625 0.5375,1.2 1.2,1.2 0.6625,0 1.2,-0.5375 1.2,-1.2 z" /><text
       xml:space="preserve"
       style="font-size:10px;font-style:normal;font-variant:normal;font-weight:normal;font-stretch:normal;text-align:start;line-height:125%;letter-spacing:0px;word-spacing:0px;writing-mode:lr-tb;text-anchor:start;fill:#000000;fill-opacity:1;stroke:none;font-family:Linux Biolinum O;-inkscape-font-specification:Linux Biolinum O"
       x="80.221519"
       y="137.18353"
       id="text8203"
       sodipodi:linespacing="125%"
       transform="matrix(0.8,0,0,-0.8,0,120)"><tspan
         sodipodi:role="line"
         id="tspan8205"
         x="80.221519"
         y="137.18353">$O$</tspan></text>
<text
       xml:space="preserve"
       style="font-size:8px;font-style:normal;font-variant:normal;font-weight:normal;font-stretch:normal;text-align:start;line-height:125%;letter-spacing:0px;word-spacing:0px;writing-mode:lr-tb;text-anchor:start;fill:#000000;fill-opacity:1;stroke:none;font-family:Linux Biolinum O;-inkscape-font-specification:Linux Biolinum O"
       x="-0.1620253"
       y="-36.536713"
       id="text8207"
       sodipodi:linespacing="125%"
       transform="scale(1,-1)"><tspan
         sodipodi:role="line"
         id="tspan8209"
         x="-0.1620253"
         y="-36.536713">$\ell$</tspan></text>
<text
       xml:space="preserve"
       style="font-size:8px;font-style:normal;font-variant:normal;font-weight:normal;font-stretch:normal;text-align:start;line-height:125%;letter-spacing:0px;word-spacing:0px;writing-mode:lr-tb;text-anchor:start;fill:#000000;fill-opacity:1;stroke:none;font-family:Linux Biolinum O;-inkscape-font-specification:Linux Biolinum O"
       x="34.774685"
       y="-46.329113"
       id="text8211"
       sodipodi:linespacing="125%"
       transform="scale(1,-1)"><tspan
         sodipodi:role="line"
         id="tspan8213"
         x="34.774685"
         y="-46.329113">$\vx(t_0)$</tspan></text>
<text
       xml:space="preserve"
       style="font-size:8px;font-style:normal;font-variant:normal;font-weight:normal;font-stretch:normal;text-align:start;line-height:125%;letter-spacing:0px;word-spacing:0px;writing-mode:lr-tb;text-anchor:start;fill:#000000;fill-opacity:1;stroke:none;font-family:Linux Biolinum O;-inkscape-font-specification:Linux Biolinum O"
       x="45.787342"
       y="-101.77216"
       id="text8215"
       sodipodi:linespacing="125%"
       transform="scale(1,-1)"><tspan
         sodipodi:role="line"
         id="tspan8217"
         x="45.787342"
         y="-101.77216">$\vx'(t_0)$</tspan></text>
<text
       xml:space="preserve"
       style="font-size:8px;font-style:normal;font-variant:normal;font-weight:normal;font-stretch:normal;text-align:start;line-height:125%;letter-spacing:0px;word-spacing:0px;writing-mode:lr-tb;text-anchor:start;fill:#000000;fill-opacity:1;stroke:none;font-family:Linux Biolinum O;-inkscape-font-specification:Linux Biolinum O"
       x="9.2759495"
       y="-69.792404"
       id="text8219"
       sodipodi:linespacing="125%"
       transform="scale(1,-1)"><tspan
         sodipodi:role="line"
         id="tspan8221"
         x="9.2759495"
         y="-69.792404">$X_0$</tspan></text>
</g></svg>