<?xml version="1.0" encoding="UTF-8" standalone="no"?>
<!-- Created with Inkscape (http://www.inkscape.org/) -->

<svg
   xmlns:dc="http://purl.org/dc/elements/1.1/"
   xmlns:cc="http://creativecommons.org/ns#"
   xmlns:rdf="http://www.w3.org/1999/02/22-rdf-syntax-ns#"
   xmlns:svg="http://www.w3.org/2000/svg"
   xmlns="http://www.w3.org/2000/svg"
   xmlns:sodipodi="http://sodipodi.sourceforge.net/DTD/sodipodi-0.dtd"
   xmlns:inkscape="http://www.inkscape.org/namespaces/inkscape"
   id="svg8327"
   version="1.1"
   inkscape:version="0.48.1 r9760"
   width="138.15182"
   height="134.375"
   xml:space="preserve"
   sodipodi:docname="06tangent-construction.pdf"><metadata
     id="metadata8333"><rdf:RDF><cc:Work
         rdf:about=""><dc:format>image/svg+xml</dc:format><dc:type
           rdf:resource="http://purl.org/dc/dcmitype/StillImage" /><dc:title></dc:title></cc:Work></rdf:RDF></metadata><defs
     id="defs8331" /><sodipodi:namedview
     pagecolor="#ffffff"
     bordercolor="#666666"
     borderopacity="1"
     objecttolerance="10"
     gridtolerance="10"
     guidetolerance="10"
     inkscape:pageopacity="0"
     inkscape:pageshadow="2"
     inkscape:window-width="640"
     inkscape:window-height="480"
     id="namedview8329"
     showgrid="false"
     fit-margin-top="5"
     fit-margin-left="5"
     fit-margin-bottom="5"
     fit-margin-right="5"
     inkscape:zoom="2.5029703"
     inkscape:cx="53.632813"
     inkscape:cy="67.539062"
     inkscape:window-x="0"
     inkscape:window-y="0"
     inkscape:window-maximized="0"
     inkscape:current-layer="g8335" /><g
     id="g8335"
     inkscape:groupmode="layer"
     inkscape:label="ink_ext_XXXXXX"
     transform="matrix(1.25,0,0,-1.25,4.2578125,129.96094)"><path
       inkscape:connector-curvature="0"
       id="path8349"
       style="fill:none;stroke:#000000;stroke-width:0.44999999;stroke-linecap:butt;stroke-linejoin:round;stroke-miterlimit:10;stroke-opacity:1;stroke-dasharray:none"
       d="m 5.03984,23.6602 13.92036,23.1597 31.8,53.0403" /><path
       inkscape:connector-curvature="0"
       id="path8351"
       style="fill:none;stroke:#000000;stroke-width:0.44999999;stroke-linecap:butt;stroke-linejoin:round;stroke-miterlimit:10;stroke-opacity:1;stroke-dasharray:none"
       d="M 0.719922,35.2398 76.3199,84.0801" /><path
       inkscape:connector-curvature="0"
       id="path8353"
       style="fill:none;stroke:#000000;stroke-width:0.44999999;stroke-linecap:butt;stroke-linejoin:bevel;stroke-miterlimit:10;stroke-opacity:1;stroke-dasharray:none"
       d="m 35.1,7.03984 0.0602,0 0.3597,0.06016 0.4199,0.06016 0.3602,0 0.3,-0.06016 0.3,-0.11992 0.3602,-0.24024 0.3597,-0.3 0.3,-0.35976 L 38.1602,5.66016 38.2801,5.23984 38.4,4.76016 38.4602,4.28008 38.4,3.68008 38.2801,3.2 38.1,2.71992 37.9199,2.41992 37.7398,2.18008 37.5,1.88008 37.2,1.63984 36.8398,1.4 36.4801,1.16016 36.0602,0.980078 35.5801,0.860156 35.1602,0.739844 34.6199,0.680078 l -1.1398,0 L 32.8199,0.8 32.0398,0.919922 31.2602,1.16016 30.4199,1.4 l -0.8398,0.36016 -0.8403,0.35976 -0.7796,0.41992 -0.7801,0.42032 -0.5403,0.35976 -0.6,0.41992 -0.6,0.42032 -0.6,0.53984 -0.6597,0.53984 -0.6,0.6 L 22.9199,6.5 22.2602,7.21992 21.6602,8 l -0.6,0.78008 -0.6,0.78008 -0.5403,0.83984 -0.4801,0.8398 -0.4796,0.8403 -0.4204,0.7801 -0.4199,0.9 -0.4199,0.9 -0.4199,0.9597 -0.3602,1.0199 -0.3597,1.0801 L 16.2,18.8 15.8398,20 l -0.3,1.1398 -0.3,1.2 -0.2398,1.2 -0.1801,1.2 -0.1199,1.1403 -0.1199,1.1398 -0.0602,1.0801 -0.0597,1.0801 0,1.1398 0.0597,1.0801 0.0602,1.1398 0.1801,1.2 0.1199,1.2 0.2398,1.2 0.3,1.2602 0.3,1.2602 0.3602,1.2 0.3597,1.2 0.4204,1.2 0.4199,1.0796 0.4801,1.0801 0.4796,1.0199 0.4801,0.9602 0.5403,0.9 0.5398,0.9 0.5398,0.8398 0.6602,0.9 0.6602,0.8403 0.7199,0.9 0.7801,0.8398 0.8398,0.8403 0.8398,0.8398 0.9,0.7801 0.9,0.7199 0.9,0.7199 0.9602,0.6602 0.9,0.6597 0.9,0.5403 0.9602,0.5398 0.9,0.5403 0.9597,0.4796 1.0199,0.4801 1.0204,0.4199 1.0796,0.4204 1.1403,0.4796 1.2,0.3602 1.2,0.4199 1.2597,0.3 1.2602,0.3602 1.2602,0.2398 1.2,0.3 1.2597,0.1801 1.1403,0.1801 1.1398,0.1199 1.1398,0.0602 1.0801,0.0597 1.0801,0.0602 1.1398,0 1.0801,-0.0602 1.1403,-0.0597 1.2,-0.1204 1.1398,-0.1796 1.2,-0.1801 1.1398,-0.2403 1.1403,-0.3 L 61.9199,62.9 63,62.5398 l 1.0199,-0.3597 0.9602,-0.3602 0.9,-0.4199 0.8398,-0.3602 0.7801,-0.4796 0.8398,-0.5403 0.8403,-0.5398 0.8398,-0.6602 0.9,-0.7801 0.9,-0.9 0.9602,-0.9597 1.0199,-1.1403 1.0199,-1.1398 1.0199,-1.2 0.8403,-1.0199 0.6597,-0.7801 0.4204,-0.4801 0.1796,-0.1801 0,-0.0597" /><path
       inkscape:connector-curvature="0"
       id="path8361"
       style="fill:#ffffff;fill-opacity:1;fill-rule:evenodd;stroke:none"
       d="m 20.4,47.2398 c 0,-0.6625 -0.5375,-1.2 -1.2,-1.2 -0.6625,0 -1.2,0.5375 -1.2,1.2 0,0.6625 0.5375,1.2 1.2,1.2 0.6625,0 1.2,-0.5375 1.2,-1.2" /><path
       inkscape:connector-curvature="0"
       id="path8363"
       style="fill:none;stroke:#000000;stroke-width:0.44999999;stroke-linecap:butt;stroke-linejoin:bevel;stroke-miterlimit:10;stroke-opacity:1;stroke-dasharray:none"
       d="m 20.4,47.2398 c 0,-0.6625 -0.5375,-1.2 -1.2,-1.2 -0.6625,0 -1.2,0.5375 -1.2,1.2 0,0.6625 0.5375,1.2 1.2,1.2 0.6625,0 1.2,-0.5375 1.2,-1.2 z" /><path
       inkscape:connector-curvature="0"
       id="path8365"
       style="fill:#ffffff;fill-opacity:1;fill-rule:evenodd;stroke:none"
       d="m 45.8398,63.6199 c 0,-0.6625 -0.5375,-1.2 -1.2,-1.2 -0.6625,0 -1.2,0.5375 -1.2,1.2 0,0.6625 0.5375,1.2 1.2,1.2 0.6625,0 1.2,-0.5375 1.2,-1.2" /><path
       inkscape:connector-curvature="0"
       id="path8367"
       style="fill:none;stroke:#000000;stroke-width:0.44999999;stroke-linecap:butt;stroke-linejoin:bevel;stroke-miterlimit:10;stroke-opacity:1;stroke-dasharray:none"
       d="m 45.8398,63.6199 c 0,-0.6625 -0.5375,-1.2 -1.2,-1.2 -0.6625,0 -1.2,0.5375 -1.2,1.2 0,0.6625 0.5375,1.2 1.2,1.2 0.6625,0 1.2,-0.5375 1.2,-1.2 z" /><text
       xml:space="preserve"
       style="font-size:8px;font-style:normal;font-variant:normal;font-weight:normal;font-stretch:normal;text-align:start;line-height:125%;letter-spacing:0px;word-spacing:0px;writing-mode:lr-tb;text-anchor:start;fill:#000000;fill-opacity:1;stroke:none;font-family:Linux Biolinum O;-inkscape-font-specification:Linux Biolinum O"
       x="19.175318"
       y="-37.715191"
       id="text8390"
       sodipodi:linespacing="125%"
       transform="scale(1,-1)"><tspan
         sodipodi:role="line"
         id="tspan8392"
         x="19.175318"
         y="-37.715191">$X_0$</tspan></text>
<text
       xml:space="preserve"
       style="font-size:10px;font-style:normal;font-variant:normal;font-weight:normal;font-stretch:normal;text-align:start;line-height:125%;letter-spacing:0px;word-spacing:0px;writing-mode:lr-tb;text-anchor:start;fill:#000000;fill-opacity:1;stroke:none;font-family:Linux Biolinum O;-inkscape-font-specification:Linux Biolinum O"
       x="55.933544"
       y="57.132118"
       id="text8394"
       sodipodi:linespacing="125%"
       transform="matrix(0.8,0,0,-0.8,0,101)"><tspan
         sodipodi:role="line"
         id="tspan8396"
         x="55.933544"
         y="57.132118">$X_h$</tspan></text>
<text
       xml:space="preserve"
       style="font-size:8px;font-style:normal;font-variant:normal;font-weight:normal;font-stretch:normal;text-align:start;line-height:125%;letter-spacing:0px;word-spacing:0px;writing-mode:lr-tb;text-anchor:start;fill:#000000;fill-opacity:1;stroke:none;font-family:Linux Biolinum O;-inkscape-font-specification:Linux Biolinum O"
       x="30.677847"
       y="-84.060127"
       id="text8398"
       sodipodi:linespacing="125%"
       transform="scale(1,-1)"><tspan
         sodipodi:role="line"
         id="tspan8400"
         x="30.677847"
         y="-84.060127">$\ell$</tspan></text>
<text
       xml:space="preserve"
       style="font-size:8px;font-style:normal;font-variant:normal;font-weight:normal;font-stretch:normal;text-align:start;line-height:125%;letter-spacing:0px;word-spacing:0px;writing-mode:lr-tb;text-anchor:start;fill:#000000;fill-opacity:1;stroke:none;font-family:Linux Biolinum O;-inkscape-font-specification:Linux Biolinum O"
       x="77.688591"
       y="-83.742401"
       id="text8402"
       sodipodi:linespacing="125%"
       transform="scale(1,-1)"><tspan
         sodipodi:role="line"
         id="tspan8404"
         x="77.688591"
         y="-83.742401">$\ell_h$</tspan></text>
</g></svg>