<?xml version="1.0" encoding="UTF-8" standalone="no"?>
<!-- Created with Inkscape (http://www.inkscape.org/) -->

<svg
   xmlns:dc="http://purl.org/dc/elements/1.1/"
   xmlns:cc="http://creativecommons.org/ns#"
   xmlns:rdf="http://www.w3.org/1999/02/22-rdf-syntax-ns#"
   xmlns:svg="http://www.w3.org/2000/svg"
   xmlns="http://www.w3.org/2000/svg"
   xmlns:sodipodi="http://sodipodi.sourceforge.net/DTD/sodipodi-0.dtd"
   xmlns:inkscape="http://www.inkscape.org/namespaces/inkscape"
   id="svg5333"
   version="1.1"
   inkscape:version="0.48.1 r9760"
   width="197.5"
   height="117.5"
   xml:space="preserve"
   sodipodi:docname="06velocity.pdf"><metadata
     id="metadata5339"><rdf:RDF><cc:Work
         rdf:about=""><dc:format>image/svg+xml</dc:format><dc:type
           rdf:resource="http://purl.org/dc/dcmitype/StillImage" /><dc:title></dc:title></cc:Work></rdf:RDF></metadata><defs
     id="defs5337" /><sodipodi:namedview
     pagecolor="#ffffff"
     bordercolor="#666666"
     borderopacity="1"
     objecttolerance="10"
     gridtolerance="10"
     guidetolerance="10"
     inkscape:pageopacity="0"
     inkscape:pageshadow="2"
     inkscape:window-width="761"
     inkscape:window-height="629"
     id="namedview5335"
     showgrid="false"
     inkscape:zoom="2.6893617"
     inkscape:cx="98.75"
     inkscape:cy="58.75"
     inkscape:window-x="0"
     inkscape:window-y="0"
     inkscape:window-maximized="0"
     inkscape:current-layer="g5343" /><g
     id="g5341"
     inkscape:groupmode="layer"
     inkscape:label="ink_ext_XXXXXX"
     transform="matrix(1.25,0,0,-1.25,0,117.5)"><g
       id="g5343"
       transform="scale(0.1,0.1)"><path
         d="M 902.199,163.199 1040.8,807.602"
         style="fill:none;stroke:#000000;stroke-opacity:1;stroke-width:4.5;stroke-linecap:round;stroke-linejoin:round;stroke-miterlimit:10;stroke-dasharray:none"
         id="path5345" /><path
         d="m 13,568.199 0,0.602 0.6016,3 0.5976,6.597 1.1992,8.403 1.8008,9.597 1.8008,9 1.8008,7.801 1.8008,6 L 25,624 l 3,3.602 2.3984,3 3,2.398 3,1.801 4.2032,1.801 4.1992,1.199 5.3984,0.597 12,0 7.1992,-1.199 7.2032,-1.801 L 85,633 l 8.3984,-2.398 8.9996,-3.602 10.204,-4.801 7.199,-3 7.801,-4.199 7.796,-4.199 9,-4.801 9.602,-5.398 9.602,-6 10.199,-6 10.801,-7.204 10.796,-7.199 11.403,-7.801 11.398,-8.398 11.403,-8.398 11.398,-9 10.801,-9.602 10.801,-9 10.796,-9.602 10.204,-9.597 9.597,-9.602 9.602,-10.199 9.597,-10.199 9,-10.199 9,-10.801 9,-11.403 8.403,-11.398 9,-12.602 9,-12.597 8.398,-12.602 9,-13.801 8.403,-13.199 7.796,-13.801 7.801,-13.796 7.801,-13.801 7.199,-13.199 7.199,-12.602 6,-12.602 6,-12 5.403,-11.398 5.398,-10.801 4.801,-10.801 4.199,-10.199 5.403,-12 4.796,-11.398 4.204,-11.403 4.199,-11.398 3.597,-10.801 3.602,-11.398 3,-10.199 3,-10.204 2.398,-9.597 1.801,-9.602 1.199,-8.398 1.204,-8.403 0.597,-7.1988 0.602,-7.1992 0,-12.6016 -0.602,-6.5976 -1.199,-6.6016 -1.199,-6.5976 -1.801,-6 -2.398,-6 -3,-6 -3,-5.4024 -3,-4.8008 -4.204,-4.1992 -3.597,-3.5976 -4.199,-3 -4.801,-2.4024 -4.199,-1.8008 -4.801,-0.5976 -5.403,-0.6016 -5.398,0 -5.398,0.6016 -6,1.1992 -6.602,1.8008 -6,3 -6.602,3 -6.597,3.5976 -6,4.2032 -6,4.7968 -5.403,4.8008 -4.796,5.4024 -4.204,5.3984 -3.597,6 -3.602,5.3984 -2.398,6 -2.403,6.6016 -1.796,7.1992 -1.801,8.4024 -1.199,9 -0.602,10.1994 0,11.398 0.602,12 1.199,13.199 1.801,13.801 2.398,15 2.398,15.602 L 379,207 383.199,224.398 388,243 l 3,12 3.602,12.602 3.597,13.199 4.199,13.801 4.801,14.398 4.801,15 5.398,16.199 6,16.199 6.602,16.801 7.199,17.403 7.199,17.398 8.403,18 8.398,18 9,18 9.602,18 10.199,18 10.199,17.398 10.801,16.801 11.398,16.801 11.403,16.199 12,15.602 12,15 12.597,15 13.204,13.801 13.199,13.199 13.801,12.597 13.199,11.403 14.398,11.398 14.403,10.801 15,10.801 16.199,10.199 16.199,9.602 17.398,9.597 18,9.602 18,8.398 19.204,8.403 19.199,8.398 20.398,7.199 20.403,7.199 L 853,780 l 20.398,5.398 21,5.403 20.403,4.801 20.398,3.597 20.403,3.602 20.398,2.398 19.801,2.403 19.199,1.199 18.6,0.597 36.6,0 18,-1.199 17.4,-1.801 16.8,-2.398 16.8,-2.398 16.2,-3.602 16.8,-4.199 16.2,-5.403 16.8,-5.398 16.8,-6.602 17.4,-7.796 18,-9 19.2,-9.602 19.2,-10.801 20.4,-12 21,-12.597 21.6,-13.801 22.8,-15 22.8,-15 22.8,-15.602 22.2,-16.199 21.6,-15 20.4,-15 18,-13.199 16.2,-11.403 13.2,-10.199 10.2,-7.801 7.8,-5.398 4.8,-3.602 2.4,-1.796 1.2,-1.204"
         style="fill:none;stroke:#000000;stroke-opacity:1;stroke-width:9;stroke-linecap:round;stroke-linejoin:bevel;stroke-miterlimit:10;stroke-dasharray:none"
         id="path5347" /><path
         d="m 1039,805.199 -124.199,-27 L 943,771 938.801,751.801"
         style="fill:#000000;fill-opacity:1;fill-rule:evenodd;stroke:none"
         id="path5357" /><path
         d="m 1039,805.199 -124.199,-27 L 943,771 938.801,751.801 1039,805.199 z"
         style="fill:none;stroke:#000000;stroke-opacity:1;stroke-width:4.5;stroke-linecap:round;stroke-linejoin:round;stroke-miterlimit:10;stroke-dasharray:none"
         id="path5359" /><path
         d="m 1041.4,804 16.8,-45 -21.6,14.398 -29.4,-9.597"
         style="fill:#000000;fill-opacity:1;fill-rule:evenodd;stroke:none"
         id="path5361" /><path
         d="m 1041.4,804 16.8,-45 -21.6,14.398 -29.4,-9.597 34.2,40.199 z"
         style="fill:none;stroke:#000000;stroke-opacity:1;stroke-width:4.5;stroke-linecap:round;stroke-linejoin:round;stroke-miterlimit:10;stroke-dasharray:none"
         id="path5363" /><path
         d="m 614.199,649.199 421.201,156"
         style="fill:none;stroke:#000000;stroke-opacity:1;stroke-width:4.5;stroke-linecap:round;stroke-linejoin:round;stroke-miterlimit:10;stroke-dasharray:none"
         id="path5365" /><path
         d="M 899.801,168.602 611.801,648"
         style="fill:none;stroke:#000000;stroke-opacity:1;stroke-width:4.5;stroke-linecap:round;stroke-linejoin:round;stroke-miterlimit:10;stroke-dasharray:none"
         id="path5367" /><path
         d="m 613.602,645.602 12.597,-59.403 8.403,19.199 21,2.403"
         style="fill:#000000;fill-opacity:1;fill-rule:evenodd;stroke:none"
         id="path5369" /><path
         d="m 613.602,645.602 12.597,-59.403 8.403,19.199 21,2.403 -42,37.801 z"
         style="fill:none;stroke:#000000;stroke-opacity:1;stroke-width:4.5;stroke-linecap:round;stroke-linejoin:round;stroke-miterlimit:10;stroke-dasharray:none"
         id="path5371" /><text
         id="text5375"
         transform="scale(1,-1)"
         x="471.39801"
         y="-845.39801"
         style="font-size:120px"><tspan
           id="tspan5377"
           sodipodi:role="line"
           y="-845.39801"
           x="471.39801"
           style="font-size:108px;font-variant:normal;font-weight:normal;writing-mode:lr-tb;fill:#000000;fill-opacity:1;fill-rule:nonzero;stroke:none;font-family:Times;-inkscape-font-specification:Times-Roman">$\vx(t+\Delta t) - \vx(t)$</tspan></text>
<path
         d="m 1050.4,810 c 0,-4.969 -4.03,-9 -9,-9 -4.97,0 -9,4.031 -9,9 0,4.969 4.03,9 9,9 4.97,0 9,-4.031 9,-9"
         style="fill:#ffffff;fill-opacity:1;fill-rule:evenodd;stroke:none"
         id="path5379" /><path
         d="m 1050.4,810 c 0,-4.969 -4.03,-9 -9,-9 -4.97,0 -9,4.031 -9,9 0,4.969 4.03,9 9,9 4.97,0 9,-4.031 9,-9 z"
         style="fill:none;stroke:#000000;stroke-opacity:1;stroke-width:4.5;stroke-linecap:round;stroke-linejoin:round;stroke-miterlimit:10;stroke-dasharray:none"
         id="path5381" /><path
         d="m 910.602,166.199 c 0,-4.969 -4.032,-9 -9,-9 -4.969,0 -9,4.031 -9,9 0,4.969 4.031,9 9,9 4.968,0 9,-4.031 9,-9"
         style="fill:#ffffff;fill-opacity:1;fill-rule:evenodd;stroke:none"
         id="path5383" /><path
         d="m 910.602,166.199 c 0,-4.969 -4.032,-9 -9,-9 -4.969,0 -9,4.031 -9,9 0,4.969 4.031,9 9,9 4.968,0 9,-4.031 9,-9 z"
         style="fill:none;stroke:#000000;stroke-opacity:1;stroke-width:4.5;stroke-linecap:round;stroke-linejoin:round;stroke-miterlimit:10;stroke-dasharray:none"
         id="path5385" /><path
         d="m 739.602,835.199 -8.403,-8.398 16.801,-1.199 -9.602,-12 13.204,-4.801 L 742,795 l 16.801,0 -4.801,-13.199 16.199,-9.602 -8.398,-6 14.398,-6.597 -7.199,-19.204 14.398,-4.796 1.204,-10.801 6,-4.199"
         style="fill:none;stroke:#000000;stroke-opacity:1;stroke-width:4.5;stroke-linecap:round;stroke-linejoin:round;stroke-miterlimit:10;stroke-dasharray:none"
         id="path5387" /><path
         d="m 620.199,649.199 c 0,-4.969 -4.031,-9 -9,-9 -4.969,0 -9,4.031 -9,9 0,4.969 4.031,9 9,9 4.969,0 9,-4.031 9,-9"
         style="fill:#ffffff;fill-opacity:1;fill-rule:evenodd;stroke:none"
         id="path5389" /><path
         d="m 620.199,649.199 c 0,-4.969 -4.031,-9 -9,-9 -4.969,0 -9,4.031 -9,9 0,4.969 4.031,9 9,9 4.969,0 9,-4.031 9,-9 z"
         style="fill:none;stroke:#000000;stroke-opacity:1;stroke-width:4.5;stroke-linecap:round;stroke-linejoin:round;stroke-miterlimit:10;stroke-dasharray:none"
         id="path5391" /><text
         xml:space="preserve"
         style="font-size:10px;font-style:normal;font-variant:normal;font-weight:normal;font-stretch:normal;text-align:start;line-height:125%;letter-spacing:0px;word-spacing:0px;writing-mode:lr-tb;text-anchor:start;fill:#000000;fill-opacity:1;stroke:none;font-family:Linux Biolinum O;-inkscape-font-specification:Linux Biolinum O"
         x="73.995255"
         y="82.54747"
         id="text5484"
         sodipodi:linespacing="125%"
         transform="matrix(8,0,0,-8,0,940)"><tspan
           sodipodi:role="line"
           id="tspan5486"
           x="73.995255"
           y="82.54747">$\vx(t)$</tspan></text>
<text
         xml:space="preserve"
         style="font-size:10px;font-style:normal;font-variant:normal;font-weight:normal;font-stretch:normal;text-align:start;line-height:125%;letter-spacing:0px;word-spacing:0px;writing-mode:lr-tb;text-anchor:start;fill:#000000;fill-opacity:1;stroke:none;font-family:Linux Biolinum O;-inkscape-font-specification:Linux Biolinum O"
         x="125.30854"
         y="57.634495"
         id="text5488"
         sodipodi:linespacing="125%"
         transform="matrix(8,0,0,-8,0,940)"><tspan
           sodipodi:role="line"
           id="tspan5490"
           x="125.30854"
           y="57.634495">$\vx(t+\Delta t)$</tspan></text>
</g></g></svg>