<?xml version="1.0" encoding="UTF-8" standalone="no"?>
<!-- Created with Inkscape (http://www.inkscape.org/) -->

<svg
   xmlns:dc="http://purl.org/dc/elements/1.1/"
   xmlns:cc="http://creativecommons.org/ns#"
   xmlns:rdf="http://www.w3.org/1999/02/22-rdf-syntax-ns#"
   xmlns:svg="http://www.w3.org/2000/svg"
   xmlns="http://www.w3.org/2000/svg"
   xmlns:sodipodi="http://sodipodi.sourceforge.net/DTD/sodipodi-0.dtd"
   xmlns:inkscape="http://www.inkscape.org/namespaces/inkscape"
   width="160"
   height="160"
   id="svg2"
   sodipodi:version="0.32"
   inkscape:version="0.48.2 r9819"
   version="1.0"
   sodipodi:docname="01limitpaths.pdf"
   inkscape:output_extension="org.inkscape.output.svg.inkscape">
  <sodipodi:namedview
     id="base"
     pagecolor="#ffffff"
     bordercolor="#666666"
     borderopacity="1.0"
     gridtolerance="10000"
     guidetolerance="10"
     objecttolerance="10"
     inkscape:pageopacity="0.0"
     inkscape:pageshadow="2"
     inkscape:zoom="3.575"
     inkscape:cx="80"
     inkscape:cy="80"
     inkscape:document-units="px"
     inkscape:current-layer="layer1"
     showgrid="false"
     inkscape:window-width="1280"
     inkscape:window-height="756"
     inkscape:window-x="0"
     inkscape:window-y="0"
     inkscape:window-maximized="0">
    <inkscape:grid
       enabled="true"
       visible="true"
       id="grid2383"
       type="xygrid" />
  </sodipodi:namedview>
  <defs
     id="defs4">
    <marker
       style="overflow:visible;"
       id="Arrow1Mend"
       refX="0.0"
       refY="0.0"
       orient="auto"
       inkscape:stockid="Arrow1Mend">
      <path
         transform="scale(0.4) rotate(180) translate(10,0)"
         style="fill-rule:evenodd;stroke:#000000;stroke-width:1.0pt;marker-start:none;"
         d="M 0.0,0.0 L 5.0,-5.0 L -12.5,0.0 L 5.0,5.0 L 0.0,0.0 z "
         id="path3183" />
    </marker>
    <marker
       style="overflow:visible;"
       id="Arrow2Mend"
       refX="0.0"
       refY="0.0"
       orient="auto"
       inkscape:stockid="Arrow2Mend">
      <path
         transform="scale(0.6) rotate(180) translate(0,0)"
         d="M 8.7185878,4.0337352 L -2.2072895,0.016013256 L 8.7185884,-4.0017078 C 6.9730900,-1.6296469 6.9831476,1.6157441 8.7185878,4.0337352 z "
         style="font-size:12.0;fill-rule:evenodd;stroke-width:0.62500000;stroke-linejoin:round;"
         id="path3201" />
    </marker>
    <marker
       style="overflow:visible;"
       id="Arrow2Lend"
       refX="0.0"
       refY="0.0"
       orient="auto"
       inkscape:stockid="Arrow2Lend">
      <path
         transform="scale(1.1) rotate(180) translate(1,0)"
         d="M 8.7185878,4.0337352 L -2.2072895,0.016013256 L 8.7185884,-4.0017078 C 6.9730900,-1.6296469 6.9831476,1.6157441 8.7185878,4.0337352 z "
         style="font-size:12.0;fill-rule:evenodd;stroke-width:0.62500000;stroke-linejoin:round;"
         id="path3195" />
    </marker>
    <inkscape:perspective
       id="perspective10"
       inkscape:persp3d-origin="372.04724 : 350.78739 : 1"
       inkscape:vp_z="744.09448 : 526.18109 : 1"
       inkscape:vp_y="0 : 1000 : 0"
       inkscape:vp_x="0 : 526.18109 : 1"
       sodipodi:type="inkscape:persp3d" />
  </defs>
  <metadata
     id="metadata7">
    <rdf:RDF>
      <cc:Work
         rdf:about="">
        <dc:format>image/svg+xml</dc:format>
        <dc:type
           rdf:resource="http://purl.org/dc/dcmitype/StillImage" />
        <dc:title></dc:title>
      </cc:Work>
    </rdf:RDF>
  </metadata>
  <g
     id="layer1"
     inkscape:groupmode="layer"
     inkscape:label="Layer 1">
    <path
       id="path2387"
       d="M 10,140 L 150,140"
       style="fill:none;fill-rule:evenodd;stroke:#000000;stroke-width:1px;stroke-linecap:butt;stroke-linejoin:miter;stroke-opacity:1" />
    <path
       id="path2389"
       d="M 20,150 L 20,10"
       style="fill:none;fill-rule:evenodd;stroke:#000000;stroke-width:1px;stroke-linecap:butt;stroke-linejoin:miter;stroke-opacity:1" />
    <path
       d="M 62,60 A 2,2 0 1 1 58,60 A 2,2 0 1 1 62,60 z"
       sodipodi:ry="2"
       sodipodi:rx="2"
       sodipodi:cy="60"
       sodipodi:cx="60"
       id="path2391"
       style="opacity:1;fill:#000000;fill-opacity:1;fill-rule:evenodd;stroke:#000000;stroke-width:0.50000000000000000;stroke-linecap:round;stroke-linejoin:miter;marker:none;marker-start:none;marker-mid:none;marker-end:none;stroke-miterlimit:4;stroke-dasharray:none;stroke-dashoffset:0;stroke-opacity:1;visibility:visible;display:inline;overflow:visible;enable-background:accumulate"
       sodipodi:type="arc" />
    <path
       id="path2395"
       d="M 20,60 L 60,60 L 60,140"
       style="fill:none;fill-rule:evenodd;stroke:#000000;stroke-width:0.40000001;stroke-linecap:round;stroke-linejoin:miter;stroke-opacity:1;stroke-miterlimit:4;stroke-dasharray:0.80000001,1.60000002;stroke-dashoffset:0" />
    <path
       sodipodi:nodetypes="cccccc"
       id="path3181"
       d="M 40,25 L 60,25 L 55,23 L 57,25 L 55,27 L 60,25"
       style="fill:#000000;fill-rule:evenodd;stroke:#000000;stroke-width:0.50000000000000000;stroke-linecap:butt;stroke-linejoin:round;stroke-opacity:1;marker-end:none;opacity:1;color:#000000;fill-opacity:1;marker:none;marker-start:none;marker-mid:none;stroke-miterlimit:4;stroke-dasharray:none;stroke-dashoffset:0;visibility:visible;display:inline;overflow:visible;enable-background:accumulate" />
    <path
       sodipodi:nodetypes="cccccc"
       id="path4237"
       d="M 60,26 L 60,56.906854 L 58,50 L 60,52 L 62,50 L 60,57"
       style="fill:#000000;fill-rule:evenodd;stroke:#000000;stroke-width:0.50000000000000000;stroke-linecap:butt;stroke-linejoin:round;stroke-opacity:1;stroke-miterlimit:4;stroke-dasharray:none;fill-opacity:1" />
    <path
       sodipodi:nodetypes="cccccc"
       id="path2398"
       d="M 109,60 L 65,60 L 70,58 L 68,60 L 70,62 L 65,60"
       style="fill:#000000;fill-rule:evenodd;stroke:#000000;stroke-width:0.50000000000000000;stroke-linecap:butt;stroke-linejoin:round;stroke-opacity:1;opacity:1;color:#000000;fill-opacity:1;marker:none;marker-start:none;marker-mid:none;marker-end:none;stroke-miterlimit:4;stroke-dasharray:none;stroke-dashoffset:0;visibility:visible;display:inline;overflow:visible;enable-background:accumulate" />
    <path
       sodipodi:nodetypes="cccccc"
       id="path2400"
       d="M 110,90 L 110,60 L 112,65 L 110,63 L 108,65 L 110,60"
       style="fill:#000000;fill-rule:evenodd;stroke:#000000;stroke-width:0.50000000000000000;stroke-linecap:butt;stroke-linejoin:round;stroke-opacity:1;opacity:1;color:#000000;fill-opacity:1;marker:none;marker-start:none;marker-mid:none;marker-end:none;stroke-miterlimit:4;stroke-dasharray:none;stroke-dashoffset:0;visibility:visible;display:inline;overflow:visible;enable-background:accumulate" />
    <path
       sodipodi:nodetypes="csssssssc"
       id="path2402"
       d="M 71.608392,120 C 91.468531,129.23077 128.63661,124.55157 141.25874,97.342656 C 156.26406,64.996425 149.56799,13.037784 126.99301,13.146853 C 111.00992,13.224073 98.461538,15.944056 92.027972,20.699301 C 85.594406,25.454545 108.53147,43.916084 102.93706,46.993007 C 97.342657,50.06993 81.958042,31.888112 77.762238,36.083916 C 73.566434,40.27972 79.72028,50.06993 76.363636,52.307692 C 73.006993,54.545455 65.10266,48.579079 66.013986,50.909091 C 67.761086,55.37595 67.526147,56.164943 63.524617,57.079905"
       style="fill:none;fill-rule:evenodd;stroke:#000000;stroke-width:0.5;stroke-linecap:butt;stroke-linejoin:miter;stroke-opacity:1;stroke-miterlimit:4;stroke-dasharray:none" />
    <path
       sodipodi:nodetypes="ccccc"
       id="path3192"
       d="M 65.172499,55.565768 L 61.216657,57.543689 L 65.765875,57.642585 L 64.183539,56.851416 L 65.172499,55.565768 z"
       style="fill:#000000;fill-rule:evenodd;stroke:#000000;stroke-width:0.50000000000000000;stroke-linecap:butt;stroke-linejoin:round;stroke-opacity:1;stroke-miterlimit:4;stroke-dasharray:none;fill-opacity:1" />
    <g
       id="g3217"
       transform="translate(-7.2727273,120.55944)">
      <g
         id="g3219"
         style="font-style:normal;font-variant:normal;font-weight:normal;font-stretch:normal;letter-spacing:normal;word-spacing:normal;text-anchor:start;fill:none;fill-opacity:1;fill-rule:evenodd;stroke:#000000;stroke-linecap:butt;stroke-linejoin:miter;stroke-miterlimit:10.43299960999999954;stroke-dasharray:none;stroke-dashoffset:0;stroke-opacity:1"
         xml:space="preserve"
         transform="matrix(0.2285714,0,0,-0.2285714,-40,120)"><path
           id="path3221"
           style="fill:#000000;stroke-width:0"
           d="M 474.58,424.83 L 474.5,425 L 474.41,425.17 L 474.31,425.33 L 474.22,425.49 L 474.12,425.65 L 474.02,425.81 L 473.91,425.96 L 473.8,426.1 L 473.69,426.25 L 473.57,426.38 L 473.45,426.52 L 473.33,426.65 L 473.2,426.77 L 473.07,426.89 L 472.93,427 L 472.79,427.11 L 472.65,427.22 L 472.5,427.31 L 472.35,427.41 L 472.2,427.49 L 472.04,427.57 L 471.87,427.65 L 471.7,427.72 L 471.53,427.78 L 471.36,427.83 L 471.17,427.88 L 470.99,427.92 L 470.8,427.95 L 470.61,427.98 L 470.41,428 L 470.2,428.01 L 470,428.02 L 470.05,426.92 C 473.29,426.92 473.98,422.84 473.98,422.54 C 473.98,422.24 473.88,421.94 473.83,421.69 L 471.34,411.93 C 471.09,411.03 471.09,410.93 470.35,410.09 C 468.16,407.34 466.11,406.55 464.72,406.55 C 462.23,406.55 461.53,409.29 461.53,411.23 C 461.53,413.72 463.13,419.85 464.27,422.14 C 465.81,425.08 468.05,426.92 470.05,426.92 L 470,428.02 C 464.17,428.02 457.99,420.7 457.99,413.42 C 457.99,408.74 460.73,405.45 464.62,405.45 C 465.61,405.45 468.11,405.65 471.09,409.19 C 471.49,407.1 473.23,405.45 475.63,405.45 C 477.37,405.45 478.52,406.6 479.31,408.19 C 480.16,409.98 480.81,413.02 480.81,413.13 C 480.81,413.62 480.36,413.62 480.21,413.62 C 479.71,413.62 479.66,413.42 479.51,412.73 C 478.66,409.49 477.77,406.55 475.73,406.55 C 474.38,406.55 474.23,407.84 474.23,408.84 C 474.23,409.93 474.33,410.33 474.88,412.53 C 475.43,414.62 475.53,415.12 475.98,417.01 C 476.82,420.2 477.02,421.14 477.77,423.98 C 478.12,425.38 478.12,425.48 478.12,425.68 C 478.12,426.52 477.52,427.02 476.67,427.02 C 475.48,427.02 474.73,425.93 474.58,424.83 z" /></g>    </g>
    <g
       transform="translate(-51.748252,35.524476)"
       id="g3273">
      <g
         transform="matrix(0.2285714,0,0,-0.2285714,-40,120)"
         xml:space="preserve"
         style="font-style:normal;font-variant:normal;font-weight:normal;font-stretch:normal;letter-spacing:normal;word-spacing:normal;text-anchor:start;fill:none;fill-opacity:1;fill-rule:evenodd;stroke:#000000;stroke-linecap:butt;stroke-linejoin:miter;stroke-miterlimit:10.43299960999999954;stroke-dasharray:none;stroke-dashoffset:0;stroke-opacity:1"
         id="g3275"><path
           d="M 467.91,440.02 L 467.91,440.03 L 467.91,440.03 L 467.91,440.04 L 467.91,440.05 L 467.9,440.06 L 467.9,440.07 L 467.9,440.09 L 467.9,440.11 L 467.9,440.13 L 467.89,440.15 L 467.89,440.17 L 467.88,440.19 L 467.87,440.22 L 467.86,440.24 L 467.85,440.27 L 467.84,440.29 L 467.83,440.31 L 467.81,440.34 L 467.79,440.36 L 467.77,440.39 L 467.75,440.41 L 467.74,440.42 L 467.72,440.43 L 467.71,440.44 L 467.7,440.45 L 467.68,440.46 L 467.67,440.47 L 467.65,440.48 L 467.63,440.49 L 467.62,440.5 L 467.6,440.51 L 467.58,440.52 L 467.56,440.52 L 467.54,440.53 L 467.52,440.54 L 467.49,440.54 L 467.47,440.55 L 467.45,440.55 L 467.42,440.56 L 467.4,440.56 L 467.37,440.56 L 467.34,440.57 L 467.32,440.57 L 467.29,440.57 L 467.26,440.57 C 466.11,440.57 462.48,440.17 461.18,440.07 C 460.78,440.02 460.23,439.97 460.23,439.07 C 460.23,438.48 460.68,438.48 461.43,438.48 C 463.82,438.48 463.92,438.13 463.92,437.63 C 463.92,437.28 463.47,435.59 463.22,434.54 L 459.14,418.3 C 458.54,415.81 458.34,415.02 458.34,413.27 C 458.34,408.54 460.98,405.45 464.67,405.45 L 464.67,406.55 C 462.97,406.55 461.33,407.89 461.33,411.58 C 461.33,412.53 461.33,413.47 462.13,416.61 L 463.22,421.19 C 463.52,422.29 463.52,422.39 463.97,422.94 C 466.41,426.18 468.65,426.92 469.95,426.92 C 471.74,426.92 473.09,425.43 473.09,422.24 C 473.09,419.3 471.44,413.57 470.55,411.68 C 468.9,408.34 466.61,406.55 464.67,406.55 L 464.67,405.45 C 470.55,405.45 476.67,412.88 476.67,420.05 C 476.67,424.58 474.03,428.02 470.05,428.02 C 467.76,428.02 465.71,426.57 464.22,425.03 L 467.91,440.02 z"
           style="fill:#000000;stroke-width:0"
           id="path3277" /></g>    </g>
    <g
       id="g3547"
       transform="matrix(0.6806044,0,0,0.6806044,54.720383,15.750318)">
      <g
         id="g3549"
         style="font-style:normal;font-variant:normal;font-weight:normal;font-stretch:normal;letter-spacing:normal;word-spacing:normal;text-anchor:start;fill:none;fill-opacity:1;fill-rule:evenodd;stroke:#000000;stroke-width:1.46928227;stroke-linecap:butt;stroke-linejoin:miter;stroke-miterlimit:10.43299961;stroke-dasharray:none;stroke-dashoffset:0;stroke-opacity:1"
         xml:space="preserve"
         transform="matrix(0.2285714,0,0,-0.2285714,-40,120)"><path
           id="path3551"
           style="fill:#000000;stroke-width:0"
           d="M 472.49,394.04 L 472.49,394.07 L 472.49,394.1 L 472.48,394.11 L 472.48,394.13 L 472.48,394.14 L 472.47,394.16 L 472.47,394.18 L 472.46,394.19 L 472.45,394.21 L 472.44,394.23 L 472.43,394.26 L 472.42,394.28 L 472.4,394.3 L 472.38,394.33 L 472.36,394.36 L 472.34,394.39 L 472.31,394.42 L 472.28,394.46 L 472.27,394.48 L 472.25,394.5 L 472.23,394.52 L 472.21,394.54 L 472.19,394.56 L 472.17,394.59 L 472.15,394.61 L 472.13,394.63 L 472.11,394.66 L 472.08,394.68 L 472.06,394.71 L 472.03,394.74 L 472.01,394.77 L 471.98,394.8 L 471.95,394.83 L 471.92,394.86 L 471.89,394.89 L 471.86,394.92 L 471.82,394.96 L 471.79,394.99 L 471.75,395.03 L 471.72,395.06 L 471.68,395.1 L 471.64,395.14 C 465.41,401.42 463.82,410.83 463.82,418.45 C 463.82,427.12 465.71,435.79 471.84,442.02 C 472.49,442.61 472.49,442.71 472.49,442.86 C 472.49,443.21 472.29,443.36 471.99,443.36 C 471.49,443.36 467.01,439.97 464.07,433.64 C 461.53,428.17 460.93,422.64 460.93,418.45 C 460.93,414.57 461.48,408.54 464.22,402.91 C 467.21,396.79 471.49,393.55 471.99,393.55 C 472.29,393.55 472.49,393.7 472.49,394.04 z" /><path
           id="path3553"
           style="fill:#000000;stroke-width:0"
           d="M 491.64,421.04 L 491.67,421.17 L 491.7,421.32 L 491.75,421.49 L 491.79,421.67 L 491.85,421.86 L 491.91,422.07 L 491.97,422.28 L 492.04,422.51 L 492.12,422.74 L 492.21,422.98 L 492.31,423.23 L 492.41,423.47 L 492.52,423.72 L 492.64,423.97 L 492.77,424.22 L 492.91,424.47 L 493.06,424.71 L 493.21,424.95 L 493.38,425.18 L 493.56,425.4 L 493.74,425.62 L 493.94,425.82 L 494.15,426.01 L 494.37,426.19 L 494.6,426.35 L 494.85,426.49 L 494.97,426.56 L 495.1,426.62 L 495.23,426.67 L 495.37,426.72 L 495.51,426.77 L 495.65,426.81 L 495.79,426.84 L 495.94,426.87 L 496.09,426.89 L 496.25,426.91 L 496.41,426.92 L 496.57,426.92 C 496.82,426.92 498.02,426.92 499.06,426.27 C 497.66,426.02 496.67,424.78 496.67,423.59 C 496.67,422.79 497.21,421.84 498.56,421.84 C 499.66,421.84 501.25,422.74 501.25,424.73 C 501.25,427.32 498.31,428.02 496.62,428.02 C 493.73,428.02 491.98,425.38 491.39,424.23 C 490.14,427.52 487.45,428.02 486.01,428.02 C 480.83,428.02 477.99,421.59 477.99,420.35 C 477.99,419.85 478.49,419.85 478.59,419.85 C 478.98,419.85 479.13,419.95 479.23,420.39 C 480.93,425.68 484.21,426.92 485.91,426.92 C 486.86,426.92 488.6,426.47 488.6,423.59 C 488.6,422.04 487.75,418.7 485.91,411.73 C 485.11,408.64 483.37,406.55 481.18,406.55 C 480.88,406.55 479.73,406.55 478.69,407.2 C 479.93,407.45 481.03,408.49 481.03,409.89 C 481.03,411.23 479.93,411.63 479.18,411.63 C 477.69,411.63 476.45,410.33 476.45,408.74 C 476.45,406.45 478.93,405.45 481.13,405.45 C 484.41,405.45 486.21,408.94 486.36,409.24 C 486.96,407.39 488.75,405.45 491.74,405.45 C 496.87,405.45 499.71,411.88 499.71,413.13 C 499.71,413.62 499.26,413.62 499.11,413.62 C 498.66,413.62 498.56,413.42 498.46,413.07 C 496.82,407.74 493.43,406.55 491.84,406.55 C 489.89,406.55 489.1,408.14 489.1,409.84 C 489.1,410.93 489.39,412.03 489.95,414.22 L 491.64,421.04 z" /><path
           id="path3555"
           style="fill:#000000;stroke-width:0"
           d="M 513.11,406.05 L 513.11,406.36 L 513.1,406.65 L 513.08,406.94 L 513.06,407.22 L 513.02,407.49 L 512.99,407.75 L 512.94,408.01 L 512.89,408.25 L 512.83,408.49 L 512.76,408.72 L 512.69,408.94 L 512.62,409.15 L 512.53,409.35 L 512.44,409.54 L 512.35,409.72 L 512.25,409.9 L 512.14,410.06 L 512.03,410.21 L 511.91,410.36 L 511.79,410.49 L 511.66,410.62 L 511.53,410.73 L 511.39,410.83 L 511.24,410.93 L 511.09,411.01 L 510.94,411.08 L 510.78,411.14 L 510.62,411.19 L 510.45,411.23 L 510.28,411.26 L 510.11,411.28 L 509.93,411.28 C 508.28,411.28 507.29,410.04 507.29,408.64 C 507.29,407.3 508.28,406 509.93,406 C 510.52,406 511.17,406.2 511.67,406.65 C 511.82,406.75 511.87,406.8 511.92,406.8 C 511.96,406.8 512.02,406.75 512.02,406.05 C 512.02,402.36 510.27,399.38 508.63,397.73 C 508.08,397.18 508.08,397.08 508.08,396.93 C 508.08,396.59 508.33,396.39 508.58,396.39 C 509.13,396.39 513.11,400.22 513.11,406.05 z" /><path
           id="path3557"
           style="fill:#000000;stroke-width:0"
           d="M 549.21,424.98 L 549.22,425.01 L 549.23,425.04 L 549.24,425.07 L 549.25,425.1 L 549.26,425.16 L 549.28,425.21 L 549.29,425.27 L 549.3,425.31 L 549.32,425.36 L 549.33,425.4 L 549.34,425.44 L 549.35,425.48 L 549.35,425.52 L 549.36,425.56 L 549.37,425.59 L 549.37,425.62 L 549.38,425.65 L 549.39,425.68 L 549.39,425.71 L 549.39,425.74 L 549.4,425.77 L 549.4,425.79 L 549.4,425.85 L 549.41,425.9 L 549.41,425.95 L 549.41,426 L 549.41,426.03 L 549.41,426.06 L 549.41,426.09 L 549.41,426.13 C 549.41,427.02 548.71,427.47 547.97,427.47 C 547.47,427.47 546.67,427.17 546.22,426.42 C 546.12,426.18 545.72,424.63 545.52,423.73 C 545.18,422.44 544.82,421.09 544.53,419.75 L 542.28,410.78 C 542.09,410.04 539.95,406.55 536.66,406.55 C 534.12,406.55 533.57,408.74 533.57,410.58 C 533.57,412.88 534.41,415.96 536.11,420.35 C 536.91,422.39 537.1,422.94 537.1,423.93 C 537.1,426.18 535.51,428.02 533.02,428.02 C 528.29,428.02 526.45,420.79 526.45,420.35 C 526.45,419.85 526.94,419.85 527.04,419.85 C 527.54,419.85 527.59,419.95 527.84,420.75 C 529.18,425.43 531.18,426.92 532.87,426.92 C 533.27,426.92 534.12,426.92 534.12,425.33 C 534.12,424.08 533.62,422.79 533.27,421.84 C 531.28,416.56 530.38,413.72 530.38,411.38 C 530.38,406.95 533.52,405.45 536.46,405.45 C 538.4,405.45 540.09,406.3 541.49,407.7 C 540.84,405.1 540.24,402.66 538.25,400.02 C 536.96,398.33 535.06,396.88 532.77,396.88 C 532.07,396.88 529.83,397.04 528.98,398.98 C 529.78,398.98 530.43,398.98 531.13,399.57 C 531.63,400.02 532.13,400.67 532.13,401.62 C 532.13,403.16 530.78,403.36 530.28,403.36 C 529.13,403.36 527.49,402.56 527.49,400.12 C 527.49,397.63 529.68,395.79 532.77,395.79 C 537.9,395.79 543.03,400.32 544.43,405.95 L 549.21,424.98 z" /><path
           id="path3559"
           style="fill:#000000;stroke-width:0"
           d="M 566.4,418.45 L 566.39,418.82 L 566.39,419.21 L 566.38,419.6 L 566.37,420.01 L 566.33,420.85 L 566.27,421.73 L 566.18,422.65 L 566.08,423.59 L 565.94,424.57 L 565.78,425.57 L 565.58,426.59 L 565.35,427.63 L 565.08,428.68 L 564.78,429.74 L 564.43,430.8 L 564.04,431.87 L 563.82,432.4 L 563.6,432.94 L 563.36,433.47 L 563.11,434 C 560.12,440.12 555.84,443.36 555.34,443.36 C 555.04,443.36 554.84,443.16 554.84,442.86 C 554.84,442.71 554.84,442.61 555.78,441.71 C 560.67,436.79 563.51,428.86 563.51,418.45 C 563.51,409.93 561.66,401.17 555.49,394.89 C 554.84,394.29 554.84,394.2 554.84,394.04 C 554.84,393.75 555.04,393.55 555.34,393.55 C 555.84,393.55 560.32,396.93 563.26,403.26 C 565.8,408.74 566.4,414.27 566.4,418.45 z" /><path
           id="path3561"
           style="fill:#000000;stroke-width:0"
           d="M 627.74,417.46 L 627.39,417.2 L 627.06,416.93 L 626.74,416.65 L 626.43,416.37 L 626.14,416.09 L 625.86,415.8 L 625.58,415.51 L 625.32,415.22 L 625.07,414.93 L 624.84,414.64 L 624.61,414.35 L 624.4,414.06 L 624.19,413.77 L 624,413.49 L 623.82,413.21 L 623.65,412.94 L 623.49,412.68 L 623.34,412.42 L 623.2,412.18 L 623.08,411.94 L 622.96,411.71 L 622.85,411.5 L 622.76,411.29 L 622.67,411.1 L 622.6,410.93 L 622.54,410.77 L 622.48,410.62 L 622.44,410.5 L 622.4,410.39 L 622.38,410.3 L 622.36,410.23 L 622.36,410.18 C 622.36,409.73 622.76,409.59 623.1,409.59 C 623.7,409.59 623.8,409.89 623.9,410.09 C 624.65,411.78 626.25,415.41 631.23,417.76 C 631.82,418.05 631.93,418.11 631.93,418.45 C 631.93,418.8 631.63,418.95 631.57,418.95 C 628.89,420.2 626,422.04 623.95,426.62 C 623.75,427.07 623.66,427.32 623.1,427.32 C 622.76,427.32 622.36,427.17 622.36,426.72 C 622.36,426.32 624,422.19 627.74,419.45 L 589.43,419.45 C 588.69,419.45 587.79,419.45 587.79,418.45 C 587.79,417.46 588.69,417.46 589.43,417.46 L 627.74,417.46 z" /><path
           id="path3563"
           style="fill:#000000;stroke-width:0"
           d="M 665.49,394.04 L 665.49,394.07 L 665.49,394.1 L 665.48,394.11 L 665.48,394.13 L 665.48,394.14 L 665.47,394.16 L 665.47,394.18 L 665.46,394.19 L 665.45,394.21 L 665.44,394.23 L 665.43,394.26 L 665.42,394.28 L 665.4,394.3 L 665.38,394.33 L 665.36,394.36 L 665.34,394.39 L 665.31,394.42 L 665.28,394.46 L 665.27,394.48 L 665.25,394.5 L 665.23,394.52 L 665.21,394.54 L 665.19,394.56 L 665.17,394.59 L 665.15,394.61 L 665.13,394.63 L 665.11,394.66 L 665.08,394.68 L 665.06,394.71 L 665.03,394.74 L 665.01,394.77 L 664.98,394.8 L 664.95,394.83 L 664.92,394.86 L 664.89,394.89 L 664.86,394.92 L 664.82,394.96 L 664.79,394.99 L 664.75,395.03 L 664.72,395.06 L 664.68,395.1 L 664.64,395.14 C 658.41,401.42 656.82,410.83 656.82,418.45 C 656.82,427.12 658.72,435.79 664.84,442.02 C 665.49,442.61 665.49,442.71 665.49,442.86 C 665.49,443.21 665.29,443.36 664.99,443.36 C 664.49,443.36 660.01,439.97 657.07,433.64 C 654.53,428.17 653.93,422.64 653.93,418.45 C 653.93,414.57 654.48,408.54 657.22,402.91 C 660.21,396.79 664.49,393.55 664.99,393.55 C 665.29,393.55 665.49,393.7 665.49,394.04 z" /><path
           id="path3565"
           style="fill:#000000;stroke-width:0"
           d="M 686.58,424.83 L 686.5,425 L 686.41,425.17 L 686.31,425.33 L 686.22,425.49 L 686.12,425.65 L 686.02,425.81 L 685.91,425.96 L 685.8,426.1 L 685.69,426.25 L 685.57,426.38 L 685.45,426.52 L 685.33,426.65 L 685.2,426.77 L 685.07,426.89 L 684.93,427 L 684.79,427.11 L 684.65,427.22 L 684.5,427.31 L 684.35,427.41 L 684.2,427.49 L 684.04,427.57 L 683.87,427.65 L 683.7,427.72 L 683.53,427.78 L 683.36,427.83 L 683.17,427.88 L 682.99,427.92 L 682.8,427.95 L 682.61,427.98 L 682.41,428 L 682.2,428.01 L 682,428.02 L 682.05,426.92 C 685.28,426.92 685.98,422.84 685.98,422.54 C 685.98,422.24 685.88,421.94 685.83,421.69 L 683.34,411.93 C 683.09,411.03 683.09,410.93 682.35,410.09 C 680.16,407.34 678.11,406.55 676.72,406.55 C 674.23,406.55 673.53,409.29 673.53,411.23 C 673.53,413.72 675.13,419.85 676.27,422.14 C 677.81,425.08 680.05,426.92 682.05,426.92 L 682,428.02 C 676.17,428.02 669.99,420.7 669.99,413.42 C 669.99,408.74 672.73,405.45 676.62,405.45 C 677.61,405.45 680.1,405.65 683.09,409.19 C 683.49,407.1 685.23,405.45 687.63,405.45 C 689.37,405.45 690.52,406.6 691.31,408.19 C 692.16,409.98 692.81,413.02 692.81,413.13 C 692.81,413.62 692.36,413.62 692.21,413.62 C 691.71,413.62 691.66,413.42 691.51,412.73 C 690.66,409.49 689.77,406.55 687.73,406.55 C 686.38,406.55 686.23,407.84 686.23,408.84 C 686.23,409.93 686.33,410.33 686.88,412.53 C 687.43,414.62 687.53,415.12 687.98,417.01 C 688.82,420.2 689.02,421.14 689.77,423.98 C 690.12,425.38 690.12,425.48 690.12,425.68 C 690.12,426.52 689.52,427.02 688.67,427.02 C 687.48,427.02 686.73,425.93 686.58,424.83 z" /><path
           id="path3567"
           style="fill:#000000;stroke-width:0"
           d="M 704.11,406.05 L 704.11,406.36 L 704.1,406.65 L 704.08,406.94 L 704.06,407.22 L 704.02,407.49 L 703.99,407.75 L 703.94,408.01 L 703.89,408.25 L 703.83,408.49 L 703.76,408.72 L 703.69,408.94 L 703.62,409.15 L 703.53,409.35 L 703.44,409.54 L 703.35,409.72 L 703.25,409.9 L 703.14,410.06 L 703.03,410.21 L 702.91,410.36 L 702.79,410.49 L 702.66,410.62 L 702.53,410.73 L 702.39,410.83 L 702.24,410.93 L 702.09,411.01 L 701.94,411.08 L 701.78,411.14 L 701.62,411.19 L 701.45,411.23 L 701.28,411.26 L 701.11,411.28 L 700.93,411.28 C 699.28,411.28 698.28,410.04 698.28,408.64 C 698.28,407.3 699.28,406 700.93,406 C 701.52,406 702.17,406.2 702.67,406.65 C 702.82,406.75 702.87,406.8 702.92,406.8 C 702.97,406.8 703.02,406.75 703.02,406.05 C 703.02,402.36 701.27,399.38 699.63,397.73 C 699.08,397.18 699.08,397.08 699.08,396.93 C 699.08,396.59 699.33,396.39 699.58,396.39 C 700.13,396.39 704.11,400.22 704.11,406.05 z" /><path
           id="path3569"
           style="fill:#000000;stroke-width:0"
           d="M 727.91,440.02 L 727.91,440.03 L 727.91,440.03 L 727.91,440.04 L 727.91,440.05 L 727.9,440.06 L 727.9,440.07 L 727.9,440.09 L 727.9,440.11 L 727.9,440.13 L 727.89,440.15 L 727.89,440.17 L 727.88,440.19 L 727.87,440.22 L 727.86,440.24 L 727.85,440.27 L 727.84,440.29 L 727.83,440.31 L 727.81,440.34 L 727.79,440.36 L 727.77,440.39 L 727.75,440.41 L 727.74,440.42 L 727.72,440.43 L 727.71,440.44 L 727.7,440.45 L 727.68,440.46 L 727.67,440.47 L 727.65,440.48 L 727.63,440.49 L 727.62,440.5 L 727.6,440.51 L 727.58,440.52 L 727.56,440.52 L 727.54,440.53 L 727.52,440.54 L 727.49,440.54 L 727.47,440.55 L 727.45,440.55 L 727.42,440.56 L 727.4,440.56 L 727.37,440.56 L 727.34,440.57 L 727.32,440.57 L 727.29,440.57 L 727.26,440.57 C 726.11,440.57 722.48,440.17 721.18,440.07 C 720.78,440.02 720.23,439.97 720.23,439.07 C 720.23,438.48 720.68,438.48 721.43,438.48 C 723.82,438.48 723.92,438.13 723.92,437.63 C 723.92,437.28 723.47,435.59 723.22,434.54 L 719.14,418.3 C 718.54,415.81 718.34,415.02 718.34,413.27 C 718.34,408.54 720.98,405.45 724.67,405.45 L 724.67,406.55 C 722.97,406.55 721.33,407.89 721.33,411.58 C 721.33,412.53 721.33,413.47 722.13,416.61 L 723.22,421.19 C 723.52,422.29 723.52,422.39 723.97,422.94 C 726.41,426.18 728.65,426.92 729.95,426.92 C 731.74,426.92 733.09,425.43 733.09,422.24 C 733.09,419.3 731.44,413.57 730.55,411.68 C 728.9,408.34 726.61,406.55 724.67,406.55 L 724.67,405.45 C 730.55,405.45 736.67,412.88 736.67,420.05 C 736.67,424.58 734.03,428.02 730.05,428.02 C 727.76,428.02 725.72,426.57 724.22,425.03 L 727.91,440.02 z" /><path
           id="path3571"
           style="fill:#000000;stroke-width:0"
           d="M 752.4,418.45 L 752.39,418.82 L 752.39,419.21 L 752.38,419.6 L 752.37,420.01 L 752.33,420.85 L 752.27,421.73 L 752.18,422.65 L 752.08,423.59 L 751.94,424.57 L 751.78,425.57 L 751.58,426.59 L 751.35,427.63 L 751.08,428.68 L 750.78,429.74 L 750.43,430.8 L 750.04,431.87 L 749.82,432.4 L 749.6,432.94 L 749.36,433.47 L 749.11,434 C 746.12,440.12 741.84,443.36 741.34,443.36 C 741.04,443.36 740.84,443.16 740.84,442.86 C 740.84,442.71 740.84,442.61 741.78,441.71 C 746.67,436.79 749.51,428.86 749.51,418.45 C 749.51,409.93 747.66,401.17 741.49,394.89 C 740.84,394.29 740.84,394.2 740.84,394.04 C 740.84,393.75 741.04,393.55 741.34,393.55 C 741.84,393.55 746.32,396.93 749.26,403.26 C 751.8,408.74 752.4,414.27 752.4,418.45 z" /></g>    </g>
    <path
       sodipodi:type="arc"
       style="fill:none;fill-rule:evenodd;stroke:#000000;stroke-width:0.76190478;stroke-linecap:butt;stroke-linejoin:miter;stroke-miterlimit:4;stroke-dasharray:none;stroke-opacity:1"
       id="path3653"
       sodipodi:cx="40"
       sodipodi:cy="42.517483"
       sodipodi:rx="8.9510489"
       sodipodi:ry="8.9510489"
       d="M 48.951049,42.517483 A 8.9510489,8.9510489 0 1 1 31.048951,42.517483 A 8.9510489,8.9510489 0 1 1 48.951049,42.517483 z"
       transform="matrix(0.65625,0,0,0.65625,24.938811,6.2237766)" />
    <text
       xml:space="preserve"
       style="font-size:10px;font-style:italic;font-variant:normal;font-weight:normal;font-stretch:normal;text-indent:0;text-align:start;text-decoration:none;line-height:125%;letter-spacing:normal;word-spacing:normal;text-transform:none;direction:ltr;block-progression:tb;writing-mode:lr;text-anchor:start;opacity:1;fill:#000000;fill-opacity:1;fill-rule:nonzero;stroke:none;stroke-width:1px;stroke-linecap:butt;stroke-linejoin:miter;marker:none;marker-start:none;marker-mid:none;marker-end:none;stroke-miterlimit:4;stroke-dasharray:none;stroke-dashoffset:0;stroke-opacity:1;visibility:visible;display:inline;overflow:visible;enable-background:accumulate;font-family:Linux Biolinum O;-inkscape-font-specification:Linux Biolinum O Italic"
       x="48.083916"
       y="37.314686"
       id="text3657"
       sodipodi:linespacing="125%"><tspan
         sodipodi:role="line"
         id="tspan3659"
         x="48.083916"
         y="37.314686">1</tspan></text>
    <text
       sodipodi:linespacing="125%"
       id="text3661"
       y="71.574455"
       x="98.263748"
       style="font-size:10px;font-style:italic;font-variant:normal;font-weight:normal;font-stretch:normal;text-align:start;line-height:125%;writing-mode:lr;text-anchor:start;fill:#000000;fill-opacity:1;stroke:none;stroke-width:1px;stroke-linecap:butt;stroke-linejoin:miter;stroke-opacity:1;font-family:Linux Biolinum O;-inkscape-font-specification:Linux Biolinum O Italic"
       xml:space="preserve"><tspan
         y="71.574455"
         x="98.263748"
         id="tspan3663"
         sodipodi:role="line">2</tspan></text>
    <text
       xml:space="preserve"
       style="font-size:10px;font-style:italic;font-variant:normal;font-weight:normal;font-stretch:normal;text-align:start;line-height:125%;writing-mode:lr-tb;text-anchor:start;fill:#000000;fill-opacity:1;stroke:none;stroke-width:1px;stroke-linecap:butt;stroke-linejoin:miter;stroke-opacity:1;font-family:Cambria Math;-inkscape-font-specification:Cambria Math Italic"
       x="97.622375"
       y="81.678322"
       id="text3665"
       sodipodi:linespacing="125%"><tspan
         sodipodi:role="line"
         id="tspan3667" /></text>
    <path
       transform="matrix(0.65625,0,0,0.65625,75.288462,40.629371)"
       d="M 48.951049,42.517483 A 8.9510489,8.9510489 0 1 1 31.048951,42.517483 A 8.9510489,8.9510489 0 1 1 48.951049,42.517483 z"
       sodipodi:ry="8.9510489"
       sodipodi:rx="8.9510489"
       sodipodi:cy="42.517483"
       sodipodi:cx="40"
       id="path3669"
       style="fill:none;fill-rule:evenodd;stroke:#000000;stroke-width:0.76190478;stroke-linecap:butt;stroke-linejoin:miter;stroke-miterlimit:4;stroke-dasharray:none;stroke-opacity:1"
       sodipodi:type="arc" />
  </g>
</svg>
