<?xml version="1.0" encoding="UTF-8" standalone="no"?>
<!-- Created with Inkscape (http://www.inkscape.org/) -->

<svg
   xmlns:dc="http://purl.org/dc/elements/1.1/"
   xmlns:cc="http://creativecommons.org/ns#"
   xmlns:rdf="http://www.w3.org/1999/02/22-rdf-syntax-ns#"
   xmlns:svg="http://www.w3.org/2000/svg"
   xmlns="http://www.w3.org/2000/svg"
   xmlns:sodipodi="http://sodipodi.sourceforge.net/DTD/sodipodi-0.dtd"
   xmlns:inkscape="http://www.inkscape.org/namespaces/inkscape"
   id="svg3067"
   version="1.1"
   inkscape:version="0.48.2 r9819"
   width="372.04723"
   height="262.2047"
   xml:space="preserve"
   sodipodi:docname="01problem-draw-the-gradients.pdf"><metadata
     id="metadata3073"><rdf:RDF><cc:Work
         rdf:about=""><dc:format>image/svg+xml</dc:format><dc:type
           rdf:resource="http://purl.org/dc/dcmitype/StillImage" /><dc:title></dc:title></cc:Work></rdf:RDF></metadata><defs
     id="defs3071" /><sodipodi:namedview
     pagecolor="#ffffff"
     bordercolor="#666666"
     borderopacity="1"
     objecttolerance="10"
     gridtolerance="10"
     guidetolerance="10"
     inkscape:pageopacity="0"
     inkscape:pageshadow="2"
     inkscape:window-width="1276"
     inkscape:window-height="756"
     id="namedview3069"
     showgrid="false"
     inkscape:zoom="2.3187989"
     inkscape:cx="186.02362"
     inkscape:cy="131.10236"
     inkscape:window-x="4"
     inkscape:window-y="0"
     inkscape:window-maximized="1"
     inkscape:current-layer="g3075" /><g
     id="g3075"
     inkscape:groupmode="layer"
     inkscape:label="01Agraphwithlevelsets"
     transform="matrix(1.25,0,0,-1.25,0,262.2047)"><path
   d="m 64,23.99776 0,168"
   style="fill:none;stroke:#000000;stroke-width:0.80000001;stroke-linecap:butt;stroke-linejoin:miter;stroke-miterlimit:4;stroke-opacity:1;stroke-dasharray:none"
   id="path3081"
   inkscape:connector-curvature="0" /><path
   d="m 40,63.99776 185.801,-62.41"
   style="fill:none;stroke:#000000;stroke-width:0.80000001;stroke-linecap:butt;stroke-linejoin:miter;stroke-miterlimit:4;stroke-opacity:1;stroke-dasharray:none"
   id="path3085"
   inkscape:connector-curvature="0" /><path
   inkscape:connector-curvature="0"
   id="path3087"
   style="fill:#4e9a06;fill-opacity:0.50373092;fill-rule:evenodd;stroke:none"
   d="m 120,71.998 96,-32 48,24 -96,32 -48,-24 z" /><path
   d="m 120,71.99776 96,-32 48,24 -96,32 -48,-24 z"
   style="fill:none;stroke:#000000;stroke-width:0.23999999;stroke-linecap:butt;stroke-linejoin:round;stroke-miterlimit:4;stroke-opacity:1;stroke-dasharray:none"
   id="path3091"
   inkscape:connector-curvature="0" /><path
   d="m 77.762,50.88076 0.836,0.418 0.73,0.363 40.688,20.301"
   style="fill:none;stroke:#000000;stroke-width:0.23999999;stroke-linecap:round;stroke-linejoin:miter;stroke-miterlimit:4;stroke-opacity:1;stroke-dasharray:none"
   id="path3095"
   inkscape:connector-curvature="0" /><path
   d="m 174.023,19.01376 0.836,0.418 0.727,0.367 40.43,20.211"
   style="fill:none;stroke:#000000;stroke-width:0.23999999;stroke-linecap:butt;stroke-linejoin:miter;stroke-miterlimit:4;stroke-opacity:1;stroke-dasharray:none"
   id="path3099"
   inkscape:connector-curvature="0" /><path
   d="m 158.918,103.45876 111.035,55.52 M 48,47.99776 l 111.039,55.52"
   style="fill:none;stroke:#000000;stroke-width:0.80000001;stroke-linecap:butt;stroke-linejoin:miter;stroke-miterlimit:4;stroke-opacity:1;stroke-dasharray:none"
   id="path3103"
   inkscape:connector-curvature="0" /><path
   d="m 132.371,67.79076 c 10.106,1.715 22.324,11.164 34.543,8.895 12.219,-2.266 25.574,-2.016 37.039,-7.684 11.461,-5.668 23.176,-12.343 39.176,-15.367"
   style="fill:none;stroke:#204a87;stroke-width:0.88;stroke-linecap:round;stroke-linejoin:miter;stroke-miterlimit:4;stroke-opacity:1;stroke-dasharray:none"
   id="path3107"
   inkscape:connector-curvature="0" /><path
   d="m 153.867,100.75576 14.141,-4.687"
   style="fill:none;stroke:#000000;stroke-width:0.23999999;stroke-linecap:butt;stroke-linejoin:miter;stroke-miterlimit:4;stroke-opacity:1;stroke-dasharray:none"
   id="path3111"
   inkscape:connector-curvature="0" /><path
   d="m 105.859,76.75976 14.125,-4.738"
   style="fill:none;stroke:#000000;stroke-width:0.23999999;stroke-linecap:round;stroke-linejoin:miter;stroke-miterlimit:4;stroke-opacity:1;stroke-dasharray:none"
   id="path3115"
   inkscape:connector-curvature="0" /><path
   inkscape:connector-curvature="0"
   id="path3131"
   style="fill:#729fcf;fill-opacity:0.50373092;fill-rule:evenodd;stroke:none"
   d="m 243.105,127.158 0.024,0.075 20.871,10.367 -96,32 -48,-24 12.371,-4.207 c 10.106,1.715 22.324,11.16 34.543,8.894 12.219,-2.269 25.574,-2.015 37.039,-7.683 11.461,-5.672 23.176,-12.348 39.176,-15.371" /><path
   d="m 243.105,127.15876 0.024,0.074 20.871,10.367 -96,32 -48,-24 12.371,-4.207 c 10.106,1.715 22.324,11.16 34.543,8.894 12.219,-2.269 25.574,-2.015 37.039,-7.683 11.461,-5.672 23.176,-12.348 39.176,-15.371"
   style="fill:none;stroke:#204a87;stroke-width:0.23999999;stroke-linecap:butt;stroke-linejoin:round;stroke-miterlimit:4;stroke-opacity:1;stroke-dasharray:none"
   id="path3135"
   inkscape:connector-curvature="0" /><path
   inkscape:connector-curvature="0"
   id="path3137"
   style="fill:#73d216;fill-opacity:0.72321388;fill-rule:evenodd;stroke:none"
   d="m 120,155.201 c 16,-16 32,-40 48,-48 16,-8 32,-8 48,-8 8,16 16,16 24,24 12.648,12.649 16,56 24,72 -16,0 -32,-8 -56,-8 -24,0 -40,24 -40,24 -10.574,-13.363 -16,-32 -24,-40 -8,-8 -13.5,-7.847 -24,-16" /><path
   d="m 120,155.20176 c 16,-16 32,-40 48,-48 16,-8 32,-8 48,-8 8,16 16,16 24,24 12.648,12.648 16,56 24,72 -16,0 -32,-8 -56,-8 -24,0 -40,24 -40,24 -10.574,-13.364 -16,-32 -24,-40 -8,-8 -13.5,-7.848 -24,-16"
   style="fill:none;stroke:#4e9a06;stroke-width:0.80000001;stroke-linecap:butt;stroke-linejoin:round;stroke-miterlimit:4;stroke-opacity:1;stroke-dasharray:none"
   id="path3141"
   inkscape:connector-curvature="0" /><path
   d="m 120,72.98276 0,31.426"
   style="fill:none;stroke:#000000;stroke-width:0.23999999;stroke-linecap:butt;stroke-linejoin:miter;stroke-miterlimit:4;stroke-opacity:1;stroke-dasharray:none"
   id="path3145"
   inkscape:connector-curvature="0" /><path
   d="m 120,112.35776 0,32.765"
   style="fill:none;stroke:#000000;stroke-width:0.23999999;stroke-linecap:butt;stroke-linejoin:miter;stroke-miterlimit:4;stroke-opacity:1;stroke-dasharray:none"
   id="path3149"
   inkscape:connector-curvature="0" /><path
   d="m 119.32,140.14276 0.7,5.242 0.531,-5.769"
   style="fill:none;stroke:#000000;stroke-width:0.23999999;stroke-linecap:round;stroke-linejoin:round;stroke-miterlimit:4;stroke-opacity:1;stroke-dasharray:none"
   id="path3153"
   inkscape:connector-curvature="0" /><path
   d="m 119.34,77.94776 0.68,-5.832 0.492,5.382"
   style="fill:none;stroke:#000000;stroke-width:0.23999999;stroke-linecap:round;stroke-linejoin:round;stroke-miterlimit:4;stroke-opacity:1;stroke-dasharray:none"
   id="path3157"
   inkscape:connector-curvature="0" /><path
   d="m 132.723,67.78676 0,73.422"
   style="fill:none;stroke:#000000;stroke-width:0.23999999;stroke-linecap:butt;stroke-linejoin:miter;stroke-miterlimit:4;stroke-opacity:1;stroke-dasharray:none"
   id="path3161"
   inkscape:connector-curvature="0" /><path
   d="m 243,53.72876 0,72.808"
   style="fill:none;stroke:#000000;stroke-width:0.23999999;stroke-linecap:butt;stroke-linejoin:miter;stroke-miterlimit:4;stroke-opacity:1;stroke-dasharray:none"
   id="path3165"
   inkscape:connector-curvature="0" /><text
   id="text3167"
   transform="scale(1,-1)"
   x="69.285416"
   y="-177.56902"
   style="-inkscape-font-specification:Linux Libertine O Italic;font-family:Linux Libertine O;font-weight:normal;font-style:italic;font-stretch:normal;font-variant:normal;font-size:8px;text-anchor:start;text-align:start;writing-mode:lr;line-height:125%"
   sodipodi:linespacing="125%"><tspan
     id="tspan3169"
     y="-177.56902"
     x="69.285416"
     style="font-size:8px;font-variant:normal;font-weight:normal;writing-mode:lr;fill:#000000;fill-opacity:1;fill-rule:nonzero;stroke:none;font-family:Linux Libertine O;-inkscape-font-specification:Linux Libertine O Italic;font-style:italic;font-stretch:normal;text-anchor:start;text-align:start;line-height:125%">z</tspan><tspan
     id="tspan3171"
     y="-106.80379"
     x="118.08422"
     style="font-size:8px;font-variant:normal;font-weight:normal;writing-mode:lr;fill:#000000;fill-opacity:1;fill-rule:nonzero;stroke:none;font-family:Linux Libertine O;-inkscape-font-specification:Linux Libertine O Italic;font-style:italic;font-stretch:normal;text-anchor:start;text-align:start;line-height:125%">c</tspan><tspan
     id="tspan3173"
     y="-6.3690128"
     x="222.72917"
     style="font-size:8px;font-variant:normal;font-weight:normal;writing-mode:lr;fill:#000000;fill-opacity:1;fill-rule:nonzero;stroke:none;font-family:Linux Libertine O;-inkscape-font-specification:Linux Libertine O Italic;font-style:italic;font-stretch:normal;text-anchor:start;text-align:start;line-height:125%">x</tspan><tspan
     id="tspan3175"
     y="-150.36902"
     x="264.21201"
     style="font-size:8px;font-variant:normal;font-weight:normal;writing-mode:lr;fill:#000000;fill-opacity:1;fill-rule:nonzero;stroke:none;font-family:Linux Libertine O;-inkscape-font-specification:Linux Libertine O Italic;font-style:italic;font-stretch:normal;text-anchor:start;text-align:start;line-height:125%">y</tspan></text>

<path
   d="m 132.371,141.39276 83.629,-27.793 27.129,13.633 m -110.758,14.16 c 10.106,1.715 22.324,11.16 34.543,8.894 12.219,-2.269 25.574,-2.015 37.039,-7.683 11.461,-5.672 23.176,-12.348 39.176,-15.371"
   style="fill:#729fcf;fill-opacity:1;fill-rule:nonzero;stroke:#204a87;stroke-width:0.80000001;stroke-linecap:butt;stroke-linejoin:miter;stroke-miterlimit:4;stroke-opacity:1;stroke-dasharray:none"
   id="path3179"
   inkscape:connector-curvature="0" /></g></svg>