<?xml version="1.0" encoding="UTF-8" standalone="no"?>
<!-- Created with Inkscape (http://www.inkscape.org/) -->

<svg
   xmlns:dc="http://purl.org/dc/elements/1.1/"
   xmlns:cc="http://creativecommons.org/ns#"
   xmlns:rdf="http://www.w3.org/1999/02/22-rdf-syntax-ns#"
   xmlns:svg="http://www.w3.org/2000/svg"
   xmlns="http://www.w3.org/2000/svg"
   xmlns:sodipodi="http://sodipodi.sourceforge.net/DTD/sodipodi-0.dtd"
   xmlns:inkscape="http://www.inkscape.org/namespaces/inkscape"
   width="427.26437"
   height="150.83562"
   id="svg2"
   version="1.1"
   inkscape:version="0.48.2 r9819"
   sodipodi:docname="05area-element.pdf">
  <defs
     id="defs4">
    <marker
       inkscape:stockid="Arrow1Lstart"
       orient="auto"
       refY="0"
       refX="0"
       id="Arrow1Lstart"
       style="overflow:visible">
      <path
         id="path3916"
         d="M 0,0 5,-5 -12.5,0 5,5 0,0 z"
         style="fill-rule:evenodd;stroke:black;stroke-width:1pt;marker-start:none"
         transform="matrix(0.8,0,0,0.8,10,0)"
         inkscape:connector-curvature="0" />
    </marker>
    <marker
       inkscape:stockid="Arrow1Lend"
       orient="auto"
       refY="0"
       refX="0"
       id="Arrow1Lend"
       style="overflow:visible">
      <path
         id="path3919"
         d="M 0,0 5,-5 -12.5,0 5,5 0,0 z"
         style="fill-rule:evenodd;stroke:black;stroke-width:1pt;marker-start:none"
         transform="matrix(-0.8,0,0,-0.8,-10,0)"
         inkscape:connector-curvature="0" />
    </marker>
  </defs>
  <sodipodi:namedview
     id="base"
     pagecolor="#ffffff"
     bordercolor="#666666"
     borderopacity="1.0"
     inkscape:pageopacity="0.0"
     inkscape:pageshadow="2"
     inkscape:zoom="2.691542"
     inkscape:cx="213.63219"
     inkscape:cy="75.417809"
     inkscape:document-units="px"
     inkscape:current-layer="layer1"
     showgrid="false"
     inkscape:window-width="1276"
     inkscape:window-height="756"
     inkscape:window-x="4"
     inkscape:window-y="0"
     inkscape:window-maximized="1"
     inkscape:object-paths="false"
     inkscape:snap-intersection-paths="true"
     fit-margin-top="0"
     fit-margin-left="0"
     fit-margin-right="0"
     fit-margin-bottom="0"
     inkscape:snap-nodes="true" />
  <metadata
     id="metadata7">
    <rdf:RDF>
      <cc:Work
         rdf:about="">
        <dc:format>image/svg+xml</dc:format>
        <dc:type
           rdf:resource="http://purl.org/dc/dcmitype/StillImage" />
        <dc:title></dc:title>
      </cc:Work>
    </rdf:RDF>
  </metadata>
  <g
     inkscape:label="Layer 1"
     inkscape:groupmode="layer"
     id="layer1"
     transform="translate(63.169729,-856.82161)"
     style="display:inline">
    <path
       style="fill:#eeeeec;stroke:black;stroke-width:0.1;stroke-linecap:butt;stroke-linejoin:miter;stroke-miterlimit:4;stroke-opacity:1;stroke-dasharray:none"
       d="m 27.68573,923.54972 c 0,-2.29244 0,-4.58488 0,-6.87733 0,-0.22778 0.05922,-1.51902 0,-1.63746 -0.06904,-0.13808 -0.258451,-0.1894 -0.327492,-0.32749 -0.09764,-0.19528 0.05295,-0.44317 0,-0.65498 -0.827213,-3.30885 0.118255,0.23651 -0.654984,-1.30997 -0.04882,-0.0976 0.07719,-0.2503 0,-0.32749 -0.07719,-0.0772 -0.250302,0.0772 -0.327492,0 -0.154381,-0.15438 0.06904,-0.44786 0,-0.65499 -0.07719,-0.23157 -0.154889,-0.48238 -0.327492,-0.65498 -0.172603,-0.1726 -0.48238,-0.15489 -0.654984,-0.32749 -0.07719,-0.0772 0.07719,-0.2503 0,-0.32749 -0.07719,-0.0772 -0.250301,0.0772 -0.327492,0 -0.07719,-0.0772 0.07719,-0.2503 0,-0.32749 -0.07719,-0.0772 -0.229853,0.0488 -0.327492,0 -0.39299,-0.1965 -0.589485,-0.78599 -0.982476,-0.98248 -0.195278,-0.0976 -0.459705,0.0976 -0.654983,0 -0.138083,-0.069 -0.18941,-0.25845 -0.327492,-0.32749 -0.261994,-0.131 -0.720483,0.13099 -0.982476,0 -0.138083,-0.069 -0.218328,-0.21833 -0.327492,-0.32749 -0.374701,-0.3747 -0.456717,-0.38768 -0.654984,-0.98248 -0.03452,-0.10356 0,-0.21833 0,-0.32749 0,-0.4033 0.04882,-0.60617 -0.327492,-0.98248 -0.218328,-0.10916 -0.436656,-0.21833 -0.654984,-0.32749 0,-0.10916 0.07719,-0.2503 0,-0.32749 -0.154381,-0.15438 -0.459705,0.0976 -0.654984,0 -0.138082,-0.069 -0.189409,-0.25845 -0.327492,-0.32749 -0.09967,-0.0498 -0.834987,0 -0.982475,0 -0.873312,0 -1.746624,0 -2.619936,0 -0.654984,0 -1.309967,0 -1.964951,0 -0.218328,0 -0.436656,0 -0.654984,0 -0.109164,0 -0.22393,-0.0345 -0.327492,0 -0.231572,0.0772 -0.418174,0.26829 -0.654984,0.32749 -0.423618,0.1059 -0.886349,-0.10591 -1.309968,0 -1.895803,0.47395 0.860858,0.32749 -1.637459,0.32749 -1.419132,0 -2.838264,0 -4.257396,0 -0.195166,0 -2.212015,-0.0402 -2.292443,0 -0.09764,0.0488 0.09764,0.27867 0,0.32749 -0.195278,0.0976 -0.44786,-0.069 -0.654984,0 -0.04188,0.014 -1.296009,1.26809 -1.309968,1.30997 -0.06904,0.20712 0.121107,0.47332 0,0.65498 -0.135401,0.20311 -0.48238,0.15489 -0.654983,0.3275 -0.07719,0.0772 0.04882,0.22985 0,0.32749 -0.06904,0.13808 -0.258451,0.18941 -0.327492,0.32749 -0.04882,0.0976 0.03452,0.22393 0,0.32749 -0.154382,0.46314 -0.536579,0.83635 -0.654984,1.30997 -0.05295,0.21181 0.05295,0.44317 0,0.65498 -0.158946,0.63579 -0.747689,1.0505 -0.982476,1.63746 -0.08109,0.20272 0.05295,0.44318 0,0.65499 -0.0592,0.23681 -0.250301,0.42341 -0.327492,0.65498 -0.03452,0.10356 0.03452,0.22393 0,0.32749 -0.07719,0.23157 -0.250301,0.42341 -0.327492,0.65499 -0.03452,0.10356 0.03452,0.22393 0,0.32749 -0.07719,0.23157 -0.250301,0.42341 -0.327492,0.65498 -0.06871,0.20613 0,1.34227 0,1.63746 0,0.10917 0.07719,0.2503 0,0.32749 -0.07719,0.0772 -0.278672,-0.0976 -0.327492,0 -0.09764,0.19528 0.06904,0.44786 0,0.65499 -0.04882,0.14646 -0.241856,0.19904 -0.327492,0.32749 -0.135401,0.2031 -0.250301,0.42341 -0.327492,0.65498 -0.03452,0.10357 0.03452,0.22393 0,0.3275 -0.07719,0.23157 -0.250301,0.42341 -0.327492,0.65498 -0.06878,0.20634 0,1.71494 0,1.96495 0,0.54582 -0.107044,1.10224 0,1.63746 0.04787,0.23936 0.236837,0.42834 0.327492,0.65498 0.256414,0.64104 0.436656,1.30997 0.654984,1.96496 0.109164,0.32749 0.259792,0.64397 0.327492,0.98247 0.04282,0.21409 -0.04282,0.4409 0,0.65499 0.0677,0.3385 0.259791,0.64397 0.327492,0.98247 0.06423,0.32113 0,0.65499 0,0.98248 0,0.65498 0,1.30996 0,1.96495 0,0.20931 0.04723,1.87048 0,1.96495 -0.04882,0.0976 -0.229853,-0.0488 -0.327492,0 -0.138083,0.069 -0.218328,0.21833 -0.327492,0.32749 -0.218328,0.21833 -0.483713,0.39808 -0.654984,0.65499 -0.121106,0.18166 0.09764,0.4597 0,0.65498 -0.06904,0.13808 -0.25845,0.18941 -0.327492,0.32749 -0.102918,0.20584 0.102918,1.10413 0,1.30997 -0.06904,0.13808 -0.278672,0.18103 -0.327492,0.32749 -0.06904,0.20713 0,0.43666 0,0.65499 0,0.21832 0,0.43665 0,0.65498 0,0.65498 0,1.30997 0,1.96495 0,1.96495 0,3.9299 0,5.89486 0,0.54582 0,1.09164 0,1.63746 0,0.10916 -0.09764,0.27867 0,0.32749 1.000386,0.50019 2.509602,0.32749 3.602412,0.32749 0.542289,0 1.848831,0.0739 2.292443,0 0.327492,-0.10917 0.654984,-0.21833 0.982476,-0.32749 0.109164,-0.10917 0.181033,-0.27868 0.327492,-0.32749 0.186298,-0.0621 1.329015,0 1.63746,0 0.327492,0 0.654983,0 0.982475,0 0.218328,0 0.44786,-0.069 0.654984,0 0.221761,0.0739 0.732309,0.85739 0.982476,0.98247 0.195279,0.0976 0.459705,-0.0976 0.654984,0 0.138083,0.069 0.181033,0.27867 0.327492,0.32749 0.414248,0.13809 0.895719,-0.13808 1.309968,0 0.146458,0.0488 0.199039,0.24186 0.327492,0.32749 0.519597,0.3464 1.268687,0.42932 1.637459,0.98248 0.135401,0.2031 0.12439,0.51958 0.327492,0.65498 0.18166,0.12111 0.500603,-0.15438 0.654984,0 0.154381,0.15439 -0.154381,0.50061 0,0.65499 0.154381,0.15438 0.459705,-0.0976 0.654984,0 0.09764,0.0488 -0.04882,0.22985 0,0.32749 0.25079,0.50158 0.583596,0.2561 0.982476,0.65498 0.07719,0.0772 -0.07719,0.25031 0,0.3275 0.05082,0.0508 0.855041,-0.0425 0.982475,0 1.275394,0.42513 0.03064,0.32749 1.309968,0.32749 0.764148,0 1.528296,0 2.292444,0 0.327492,0 0.664762,0.0794 0.982475,0 0.23681,-0.0592 0.423413,-0.2503 0.654984,-0.32749 0.103562,-0.0345 0.250302,0.0772 0.327492,0 0.172604,-0.17261 0.154889,-0.48238 0.327492,-0.65499 0.172604,-0.1726 0.459706,-0.18103 0.654984,-0.32749 0.403534,-0.30265 0.89305,-1.03202 1.309968,-1.30997 0.203102,-0.1354 0.48238,-0.15489 0.654984,-0.32749 0.172603,-0.1726 0.154888,-0.48238 0.327492,-0.65498 0.07719,-0.0772 0.250301,0.0772 0.327492,0 0.172603,-0.17261 0.154888,-0.48238 0.327491,-0.65499 0.07719,-0.0772 0.229853,0.0488 0.327492,0 0.138083,-0.069 0.199039,-0.24185 0.327492,-0.32749 0.203102,-0.1354 0.451882,-0.19209 0.654984,-0.32749 0.128453,-0.0856 0.17772,-0.29005 0.327492,-0.32749 0.317714,-0.0794 0.661344,0.0642 0.982476,0 0.239358,-0.0479 0.418174,-0.26829 0.654984,-0.32749 0.288919,-0.0722 1.029419,0.0935 1.309967,0 0.231572,-0.0772 0.436656,-0.21833 0.654984,-0.3275 0.218328,-0.10916 0.451882,-0.19209 0.654984,-0.32749 0.128453,-0.0856 0.181033,-0.27867 0.327492,-0.32749 0.851996,-0.284 0.470458,0.3552 0.982476,-0.32749 0.236158,-0.31488 0.418826,-0.6676 0.654984,-0.98248 0.690839,-0.92112 0.02507,0.60485 0.982476,-1.30997 0.154381,-0.30876 0.149884,-0.68646 0.327492,-0.98247 1.332598,-2.221 -0.0087,1.55144 1.309967,-1.96495 0.158039,-0.42144 0.18516,-0.88297 0.327492,-1.30997 0.1859,-0.5577 0.448571,-1.08702 0.654984,-1.63746 0.12121,-0.32323 0.218328,-0.65498 0.327492,-0.98248 0.218328,-0.43665 0.462674,-0.86124 0.654984,-1.30996 1.214047,-2.83278 -0.399197,0.4709 0.654984,-1.63746 1.11984,-2.23968 -0.672699,1.17279 0.982475,-1.30997 0.03253,-0.0488 0,-0.87493 0,-0.98248 0,-0.32749 0,-0.65498 0,-0.98247 0,-0.10917 0.04882,-0.22986 0,-0.3275 -0.06904,-0.13808 -0.218327,-0.21832 -0.327491,-0.32749 -0.109164,-0.10916 -0.18941,-0.25845 -0.327492,-0.32749 -0.139867,-0.0699 -1.507998,0 -1.63746,0 -0.54582,0 -1.09164,0 -1.63746,0 -0.327492,0 -0.689558,0.14646 -0.982475,0 -0.09764,-0.0488 0.07719,-0.2503 0,-0.32749 -0.07719,-0.0772 -0.229853,0.0488 -0.327492,0 -0.138083,-0.069 -0.18941,-0.25845 -0.327492,-0.32749 -0.09764,-0.0488 -0.250302,0.0772 -0.327492,0 -0.07719,-0.0772 0.07719,-0.2503 0,-0.32749 -0.742459,-0.74246 -0.721057,0.19534 -1.309968,-0.98248 -0.09764,-0.19528 0.09764,-0.45971 0,-0.65498 -0.04882,-0.0976 -0.250301,0.0772 -0.327492,0 -0.07719,-0.0772 0.04882,-0.22986 0,-0.3275 -0.138083,-0.27616 -0.557345,-0.36206 -0.654984,-0.65498 -0.06904,-0.20712 0.06904,-0.44786 0,-0.65498 -0.340736,-1.02221 -0.218328,0.10916 -0.654984,-0.3275 -0.07719,-0.0772 0.04882,-0.22985 0,-0.32749 -0.06904,-0.13808 -0.25845,-0.18941 -0.327492,-0.32749 -0.09764,-0.19528 0.086,-0.45431 0,-0.65498 -0.288464,-0.67309 -0.654983,-1.30997 -0.982475,-1.96496 z"
       id="path4942"
       inkscape:connector-curvature="0" />
    <path
       style="fill:#729fcf;stroke:none"
       d="m 4.918919,918.20002 14,0 0,20 -14,0 z"
       id="path3786"
       inkscape:connector-curvature="0" />
    <path
       style="fill:#eeeeec;stroke:black;stroke-width:0.1;stroke-linecap:butt;stroke-linejoin:miter;stroke-miterlimit:4;stroke-opacity:1;stroke-dasharray:none"
       d="m 207.03989,938.46134 c 2.90937,5.34657 5.09713,12.09007 9.51142,15.11535 7.53761,2.63659 13.06276,1.31653 21.14666,3.33913 -8.31923,-3.94856 5.138,-3.36954 12.94503,-2.43596 7.97982,1.3008 8.06144,8.26295 13.72032,8.98458 6.69224,-0.87356 8.29294,5.63868 13.06325,8.24529 10.09592,5.0434 21.30694,0.0741 31.28462,-2.62731 7.88301,-2.765 34.317,-3.19518 42.24687,-5.67013 -12.66003,0.33524 5.45297,-25.10835 13.12638,-20.25756 -7.46457,-2.19163 -20.10091,-15.41737 -27.15579,-19.01997 7.52532,-0.38471 -4.25167,-4.57412 -9.70417,-16.24775 -7.14453,-3.81338 -15.7074,-6.92224 -23.00312,-10.94718 -7.56824,-4.01213 -15.44299,-6.05896 -23.77102,-7.28496 -7.42369,-0.98453 -14.8436,-1.90074 -22.31037,-2.31648 -8.46232,-2.37255 -17.13583,-2.7847 -25.60244,-0.61712 -8.46372,-0.31921 -16.61055,-4.32012 -25.19346,-2.66233 -8.73911,0.97321 -17.35115,3.12803 -26.18412,3.16545 -7.17235,2.78517 -6.84365,12.63152 -10.00501,18.64554 0.64325,8.49147 11.52848,8.33058 17.84023,9.27627 5.12233,1.6266 7.71973,6.00336 10.11587,10.57589"
       id="path4937"
       inkscape:connector-curvature="0"
       sodipodi:nodetypes="cccccccccccccccccccc" />
    <g
       id="g3823"
       transform="translate(80,-40)">
      <path
         transform="translate(0,872.36218)"
         inkscape:connector-curvature="0"
         id="path2985"
         d="m 110.67568,58.986486 c 33.44594,11.554055 72.66891,44.087834 86.35135,67.804054"
         style="fill:none;stroke:black;stroke-width:0.40000001;stroke-linecap:butt;stroke-linejoin:miter;stroke-miterlimit:4;stroke-opacity:1;stroke-dasharray:none" />
      <path
         style="fill:none;stroke:black;stroke-width:0.40000001;stroke-linecap:butt;stroke-linejoin:miter;stroke-miterlimit:4;stroke-opacity:1;stroke-dasharray:none"
         d="M 101.55405,949.89596 C 136.21622,942.59867 180,937.12569 223.78378,941.0784"
         id="path2989"
         inkscape:connector-curvature="0" />
      <path
         inkscape:connector-curvature="0"
         id="path2991"
         d="M 141.55405,987.89596 C 176.21622,980.59867 220,975.12569 263.78378,979.0784"
         style="fill:none;stroke:black;stroke-width:0.40000001;stroke-linecap:butt;stroke-linejoin:miter;stroke-miterlimit:4;stroke-opacity:1;stroke-dasharray:none" />
      <path
         style="fill:none;stroke:black;stroke-width:0.40000001;stroke-linecap:butt;stroke-linejoin:miter;stroke-miterlimit:4;stroke-opacity:1;stroke-dasharray:none"
         d="m 170.67568,931.34867 c 33.44594,11.55405 72.66891,44.08783 86.35135,67.80405"
         id="path2993"
         inkscape:connector-curvature="0" />
    </g>
    <path
       style="fill:none;stroke:black;stroke-width:0.40000001;stroke-linecap:round;stroke-linejoin:round;stroke-miterlimit:4;stroke-opacity:1;stroke-dasharray:none"
       d="m -16.060811,893.80813 0,75.4054 64.763514,0"
       id="path2995"
       inkscape:connector-curvature="0" />
    <path
       style="fill:none;stroke:black;stroke-width:0.40000001;stroke-linecap:round;stroke-linejoin:round;stroke-miterlimit:4;stroke-opacity:1;stroke-dasharray:1.60000002, 1.60000002;stroke-dashoffset:0"
       d="m -16.060811,938.26759 16.418919,-0.0676"
       id="path3782"
       inkscape:connector-curvature="0"
       sodipodi:nodetypes="cc" />
    <path
       style="fill:none;stroke:black;stroke-width:0.40000001;stroke-linecap:round;stroke-linejoin:round;stroke-miterlimit:4;stroke-opacity:1;stroke-dasharray:none"
       d="m 0.358108,938.20002 25.540541,0"
       id="path2997"
       inkscape:connector-curvature="0" />
    <path
       style="fill:none;stroke:black;stroke-width:0.40000001;stroke-linecap:round;stroke-linejoin:round;stroke-miterlimit:4;stroke-opacity:1;stroke-dasharray:none"
       d="m 4.918919,912.35542 0,36.79054"
       id="path3770"
       inkscape:connector-curvature="0" />
    <path
       style="fill:none;stroke:black;stroke-width:0.40000001;stroke-linecap:round;stroke-linejoin:round;stroke-miterlimit:4;stroke-opacity:1;stroke-dasharray:1.20000002, 1.20000002;stroke-dashoffset:0"
       d="m 4.918919,949.14596 0,19.76352"
       id="path2999"
       inkscape:connector-curvature="0" />
    <path
       style="fill:none;stroke:black;stroke-width:0.40000001;stroke-linecap:round;stroke-linejoin:round;stroke-miterlimit:4;stroke-opacity:1;stroke-dasharray:none"
       d="m 18.918919,949.14596 0,-36.79054"
       id="path3003"
       inkscape:connector-curvature="0" />
    <path
       inkscape:connector-curvature="0"
       id="path3005"
       d="m 0.054054,918.20002 25.844595,0"
       style="fill:none;stroke:black;stroke-width:0.40000001;stroke-linecap:round;stroke-linejoin:round;stroke-miterlimit:4;stroke-opacity:1;stroke-dasharray:none" />
    <path
       id="path3772"
       d="m 18.918919,949.14596 0,19.76352"
       style="fill:none;stroke:black;stroke-width:0.40000001;stroke-linecap:round;stroke-linejoin:round;stroke-miterlimit:4;stroke-opacity:1;stroke-dasharray:1.20000002, 1.20000002;stroke-dashoffset:0"
       inkscape:connector-curvature="0" />
    <path
       inkscape:connector-curvature="0"
       id="path3784"
       d="m -16.060811,918.20002 16.418919,0"
       style="fill:none;stroke:black;stroke-width:0.40000001;stroke-linecap:round;stroke-linejoin:round;stroke-miterlimit:4;stroke-opacity:1;stroke-dasharray:1.60000002, 1.60000002;stroke-dashoffset:0"
       sodipodi:nodetypes="cc" />
    <text
       xml:space="preserve"
       style="font-size:12px;font-style:normal;font-variant:normal;font-weight:normal;font-stretch:normal;line-height:125%;letter-spacing:0px;word-spacing:0px;fill:black;fill-opacity:1;stroke:none;font-family:Lucida Blackletter;-inkscape-font-specification:Lucida Blackletter"
       x="-2.0405407"
       y="977.05139"
       id="text3788"
       sodipodi:linespacing="125%"><tspan
         sodipodi:role="line"
         id="tspan3790"
         x="-2.0405407"
         y="977.05139"
         style="font-size:10px;font-style:italic;font-variant:normal;font-weight:normal;font-stretch:normal;text-align:start;line-height:125%;writing-mode:lr-tb;text-anchor:start;font-family:Linux Libertine O;-inkscape-font-specification:Linux Libertine O Italic">$u_0$</tspan></text>
    <text
       xml:space="preserve"
       style="font-size:10px;font-style:italic;font-variant:normal;font-weight:normal;font-stretch:normal;text-align:start;line-height:125%;letter-spacing:0px;word-spacing:0px;writing-mode:lr-tb;text-anchor:start;fill:black;fill-opacity:1;stroke:none;font-family:Linux Libertine O;-inkscape-font-specification:Linux Libertine O Italic"
       x="16.81081"
       y="977.68652"
       id="text3792"
       sodipodi:linespacing="125%"><tspan
         sodipodi:role="line"
         id="tspan3794"
         x="16.81081"
         y="977.68652">$u_0+\Delta u$</tspan></text>
    <text
       xml:space="preserve"
       style="font-size:10px;font-style:italic;font-variant:normal;font-weight:normal;font-stretch:normal;text-align:start;line-height:125%;letter-spacing:0px;word-spacing:0px;writing-mode:lr-tb;text-anchor:start;fill:black;fill-opacity:1;stroke:none;font-family:Linux Libertine O;-inkscape-font-specification:Linux Libertine O Italic"
       x="-29.891891"
       y="939.55139"
       id="text3796"
       sodipodi:linespacing="125%"><tspan
         sodipodi:role="line"
         id="tspan3798"
         x="-29.891891"
         y="939.55139">$v_0$</tspan></text>
    <text
       sodipodi:linespacing="125%"
       id="text3800"
       y="920.7406"
       x="-63.729729"
       style="font-size:10px;font-style:italic;font-variant:normal;font-weight:normal;font-stretch:normal;text-align:start;line-height:125%;letter-spacing:0px;word-spacing:0px;writing-mode:lr-tb;text-anchor:start;fill:black;fill-opacity:1;stroke:none;font-family:Linux Libertine O;-inkscape-font-specification:Linux Libertine O Italic"
       xml:space="preserve"><tspan
         y="920.7406"
         x="-63.729729"
         id="tspan3802"
         sodipodi:role="line">$v_0+\Delta v$</tspan></text>
    <text
       xml:space="preserve"
       style="font-size:10px;font-style:italic;font-variant:normal;font-weight:normal;font-stretch:normal;text-align:start;line-height:125%;letter-spacing:0px;word-spacing:0px;writing-mode:lr-tb;text-anchor:start;fill:#c00;fill-opacity:1;stroke:none;font-family:Linux Libertine O;-inkscape-font-specification:Linux Libertine O Italic"
       x="99.384323"
       y="936.18243"
       id="text3829"
       sodipodi:linespacing="125%"><tspan
         sodipodi:role="line"
         id="tspan3831"
         x="99.384323"
         y="936.18243">$\vx(u_0+\Delta u, v_0)-\vx(u_0,v_0)$</tspan></text>
    <text
       sodipodi:linespacing="125%"
       id="text3833"
       y="854.18243"
       x="203.38432"
       style="font-size:10px;font-style:italic;font-variant:normal;font-weight:normal;font-stretch:normal;text-align:start;line-height:125%;letter-spacing:0px;word-spacing:0px;writing-mode:lr-tb;text-anchor:start;fill:#c00;fill-opacity:1;stroke:none;font-family:Linux Libertine O;-inkscape-font-specification:Linux Libertine O Italic"
       xml:space="preserve"><tspan
         y="854.18243"
         x="203.38432"
         id="tspan3835"
         sodipodi:role="line">$\vx(u_0, v_0+\Delta v)-\vx(u_0,v_0)$</tspan></text>
    <flowRoot
       xml:space="preserve"
       id="flowRoot3837"
       style="font-size:10px;font-style:italic;font-variant:normal;font-weight:normal;font-stretch:normal;text-align:start;line-height:125%;letter-spacing:0px;word-spacing:0px;writing-mode:lr-tb;text-anchor:start;fill:black;fill-opacity:1;stroke:none;font-family:Linux Libertine O;-inkscape-font-specification:Linux Libertine O Italic"
       transform="translate(-21.169729,819.24999)"><flowRegion
         id="flowRegion3839"><rect
           id="rect3841"
           width="187.90541"
           height="140.47298"
           x="187.2973"
           y="45" /></flowRegion><flowPara
         id="flowPara3843" /></flowRoot>    <path
       style="fill:none;stroke:#c00;stroke-width:2;stroke-linecap:butt;stroke-linejoin:miter;stroke-miterlimit:4;stroke-opacity:1;stroke-dasharray:none"
       d="m 4.918919,918.20002 0,20 14,0"
       id="path4917"
       inkscape:connector-curvature="0" />
    <path
       style="fill:none;stroke:black;stroke-width:1px;stroke-linecap:butt;stroke-linejoin:miter;stroke-opacity:1"
       d="m 250.75844,974.62046 0,21.60434 -15.05756,13.0935"
       id="path4919"
       inkscape:connector-curvature="0" />
    <path
       style="fill:none;stroke:black;stroke-width:1px;stroke-linecap:butt;stroke-linejoin:miter;stroke-opacity:1"
       d="m 251.08578,996.2248 21.93167,0"
       id="path4921"
       inkscape:connector-curvature="0" />
    <text
       xml:space="preserve"
       style="font-size:10px;font-style:italic;font-variant:normal;font-weight:normal;font-stretch:normal;text-align:start;line-height:125%;letter-spacing:0px;word-spacing:0px;writing-mode:lr-tb;text-anchor:start;fill:black;fill-opacity:1;stroke:none;font-family:Linux Libertine O;-inkscape-font-specification:Linux Libertine O Italic"
       x="229.0462"
       y="1014.8472"
       id="text4923"
       sodipodi:linespacing="125%"><tspan
         sodipodi:role="line"
         id="tspan4925"
         x="229.0462"
         y="1014.8472">$x$</tspan></text>
    <text
       sodipodi:linespacing="125%"
       id="text4927"
       y="972.84711"
       x="247.0462"
       style="font-size:10px;font-style:italic;font-variant:normal;font-weight:normal;font-stretch:normal;text-align:start;line-height:125%;letter-spacing:0px;word-spacing:0px;writing-mode:lr-tb;text-anchor:start;fill:black;fill-opacity:1;stroke:none;font-family:Linux Libertine O;-inkscape-font-specification:Linux Libertine O Italic"
       xml:space="preserve"><tspan
         y="972.84711"
         x="247.0462"
         id="tspan4929"
         sodipodi:role="line">$z$</tspan></text>
    <text
       xml:space="preserve"
       style="font-size:10px;font-style:italic;font-variant:normal;font-weight:normal;font-stretch:normal;text-align:start;line-height:125%;letter-spacing:0px;word-spacing:0px;writing-mode:lr-tb;text-anchor:start;fill:black;fill-opacity:1;stroke:none;font-family:Linux Libertine O;-inkscape-font-specification:Linux Libertine O Italic"
       x="273.0462"
       y="998.84711"
       id="text4931"
       sodipodi:linespacing="125%"><tspan
         sodipodi:role="line"
         id="tspan4933"
         x="273.0462"
         y="998.84711">$y$</tspan></text>
    <g
       id="g4211">
      <path
         style="font-size:medium;font-style:normal;font-variant:normal;font-weight:normal;font-stretch:normal;text-indent:0;text-align:start;text-decoration:none;line-height:normal;letter-spacing:normal;word-spacing:normal;text-transform:none;direction:ltr;block-progression:tb;writing-mode:lr-tb;text-anchor:start;baseline-shift:baseline;color:black;fill:#fcaf3e;fill-opacity:1;stroke:#fcaf3e;stroke-width:1px;stroke-linejoin:round;marker:none;visibility:visible;display:inline;overflow:visible;enable-background:accumulate;font-family:Sans;-inkscape-font-specification:Sans"
         d="m 18.955271,938.41831 -0.0096,0.0389 c 68.51826,35.98939 150.252509,52.28343 240.239799,5.55926 l -0.46875,-0.875 c -89.68756,46.56852 -171.450379,31.1574 -239.761449,-4.72316 z"
         id="path3049"
         inkscape:connector-curvature="0"
         sodipodi:nodetypes="ccccc" />
      <path
         inkscape:connector-curvature="0"
         style="fill:#fcaf3e;fill-rule:evenodd;stroke:#fcaf3e;stroke-width:0.8pt;marker-start:none"
         d="m 252.75219,946.96047 -1.70672,5.39325 10.58168,-10.0014 -14.26821,2.90143 5.39325,1.70672 z"
         id="path4217" />
    </g>
    <g
       id="g4203">
      <path
         style="font-size:medium;font-style:normal;font-variant:normal;font-weight:normal;font-stretch:normal;text-indent:0;text-align:start;text-decoration:none;line-height:normal;letter-spacing:normal;word-spacing:normal;text-transform:none;direction:ltr;block-progression:tb;writing-mode:lr-tb;text-anchor:start;baseline-shift:baseline;color:black;fill:#fcaf3e;fill-opacity:1;stroke:#fcaf3e;stroke-width:1px;stroke-linecap:round;stroke-linejoin:round;marker:none;visibility:visible;display:inline;overflow:visible;enable-background:accumulate;font-family:Sans;-inkscape-font-specification:Sans"
         d="M 157.08027,899.47743 C 102.21441,900.84249 54.70921,914.73908 5.1664196,938.08385 l 0.065878,-0.06 C 71.167168,906.95509 126.22089,893.26064 206.99331,902.23535 l 0.125,-0.96875 c -20.23374,-2.24819 -31.74942,-2.24419 -50.03804,-1.78917 z"
         id="path4015"
         inkscape:connector-curvature="0"
         sodipodi:nodetypes="sccccs" />
      <path
         inkscape:connector-curvature="0"
         style="fill:#fcaf3e;fill-rule:evenodd;stroke:#fcaf3e;stroke-width:0.8pt;marker-start:none"
         d="m 204.69642,901.51222 -4.41726,3.53381 14.3561,-2.4295 -13.47265,-5.52157 3.53381,4.41726 z"
         id="path4209" />
    </g>
    <g
       id="g4219">
      <path
         style="font-size:medium;font-style:normal;font-variant:normal;font-weight:normal;font-stretch:normal;text-indent:0;text-align:start;text-decoration:none;line-height:normal;letter-spacing:normal;word-spacing:normal;text-transform:none;direction:ltr;block-progression:tb;writing-mode:lr-tb;text-anchor:start;baseline-shift:baseline;color:black;fill:#fcaf3e;fill-opacity:1;stroke:#fcaf3e;stroke-width:1px;stroke-linecap:round;stroke-linejoin:round;marker:none;visibility:visible;display:inline;overflow:visible;enable-background:accumulate;font-family:Sans;-inkscape-font-specification:Sans"
         d="m 142.33027,857.50868 c -6.14952,0.22608 -12.24189,0.71654 -18.28125,1.46875 -48.314909,6.01772 -92.533391,29.54218 -119.066722,60.06419 l -0.067568,0.0616 c 26.332539,-30.29099 71.171721,-53.1364 119.25929,-59.1258 48.08757,-5.9894 95.71657,1.02195 139.31083,35.65612 l 0.625,-0.78125 c -38.34642,-30.46493 -78.73291,-38.9262 -121.77958,-37.34361 z"
         id="path4017"
         inkscape:connector-curvature="0"
         sodipodi:nodetypes="ssccsccs" />
      <path
         inkscape:connector-curvature="0"
         style="fill:#fcaf3e;fill-rule:evenodd;stroke:#fcaf3e;stroke-width:0.8pt;marker-start:none"
         d="m 259.94154,892.24969 -4.85371,0.64372 13.44989,5.57678 -9.08661,-11.07421 z"
         id="path4225"
         sodipodi:nodetypes="ccccc" />
    </g>
    <path
       style="fill:none;stroke:black;stroke-width:0.40000001;stroke-linecap:round;stroke-linejoin:miter;stroke-miterlimit:4;stroke-opacity:1;stroke-dasharray:none"
       d="m 254.11464,-6.7539794 c 0.70903,11.0163681 -7.64333,21.2237094 -1.6361,22.0865864 6.00723,0.862877 1.56577,2.055814 -0.42803,3.85659 -2.40481,2.172 2.35232,11.857641 2.67966,16.767716"
       id="path4935"
       inkscape:connector-curvature="0"
       transform="translate(-21.169729,865.60813)"
       sodipodi:nodetypes="czsc" />
  </g>
  <g
     inkscape:groupmode="layer"
     id="layer2"
     inkscape:label="Layer"
     style="display:inline"
     transform="translate(41.999999,-37.571627)">
    <g
       id="g3903"
       transform="translate(101.16973,-859.24999)"
       style="display:inline">
      <path
         inkscape:connector-curvature="0"
         id="path3905"
         transform="translate(-101.16973,859.24999)"
         d="m 290.875,80.53125 c -18.27696,0.188265 -36.11188,1.688136 -52.84375,3.96875 17.34383,10.252781 34.08847,23.94434 46.28125,37.1875 18.14199,-2.22374 37.44075,-3.46058 57.09375,-3.09375 C 327.76312,104.52276 309.32698,90.325558 290.875,80.53125 z"
         style="fill:none;stroke:black;stroke-width:0.40000001;stroke-linecap:butt;stroke-linejoin:miter;stroke-miterlimit:4;stroke-opacity:1;stroke-dasharray:none" />
      <path
         inkscape:connector-curvature="0"
         transform="translate(-101.16973,859.24999)"
         style="fill:#729fcf;stroke:none"
         d="m 290.875,80.53125 c -18.27696,0.188265 -36.11188,1.688136 -52.84375,3.96875 17.34383,10.252781 34.08847,23.94434 46.28125,37.1875 18.14199,-2.22374 37.44075,-3.46058 57.09375,-3.09375 C 327.76312,104.52276 309.32698,90.325558 290.875,80.53125 z"
         id="path3907" />
    </g>
    <g
       style="fill:none;stroke-width:0.2;stroke-miterlimit:4;stroke-dasharray:none;display:inline"
       transform="translate(101.16973,-859.24999)"
       id="g3882">
      <g
         id="g4907"
         style="fill:#c00;stroke:#c00">
        <path
           style="font-size:medium;font-style:normal;font-variant:normal;font-weight:normal;font-stretch:normal;text-indent:0;text-align:start;text-decoration:none;line-height:normal;letter-spacing:normal;word-spacing:normal;text-transform:none;direction:ltr;block-progression:tb;writing-mode:lr-tb;text-anchor:start;baseline-shift:baseline;color:black;fill:#c00;fill-opacity:1;stroke:#c00;stroke-width:0.60000002;marker:none;visibility:visible;display:inline;overflow:visible;enable-background:accumulate;font-family:Sans;-inkscape-font-specification:Sans"
           d="m 187.1221,939.50375 c -17.39367,0.29538 -34.35055,1.75846 -50.3096,3.93374 l -0.84375,0.125 0.75,0.4375 c 15.75421,9.31308 31.02586,21.49467 42.81753,33.57089 l 0.73597,-0.97119 c -11.4188,-13.01377 -22.89551,-22.61284 -38.46535,-31.91503 15.77948,-2.8219 29.2751,-3.77965 45.22516,-4.55365 z"
           id="path3886"
           inkscape:connector-curvature="0"
           sodipodi:nodetypes="ccccccccc" />
        <path
           style="fill:#c00;stroke:#c00;stroke-width:0.8pt;stroke-linejoin:round;marker-start:none"
           d="m 183.70559,939.84304 1.1404,4.94394 4.85932,-5.00574 -16.24894,-2.84349 z"
           id="path4913"
           inkscape:connector-curvature="0"
           sodipodi:nodetypes="ccccc" />
        <path
           style="fill:#c00;stroke:#c00;stroke-width:0.8pt;stroke-linejoin:round;marker-start:none"
           d="m 179.07879,976.52341 -8.66932,-3.54827 12.7333,7.96235 -3.55237,-9.44857 z"
           id="path4915"
           inkscape:connector-curvature="0"
           sodipodi:nodetypes="ccccc" />
      </g>
      <path
         id="path3899"
         d="m 290.875,80.53125 c -18.27696,0.188265 -36.11188,1.688136 -52.84375,3.96875 17.34383,10.252781 34.08847,23.94434 46.28125,37.1875 18.14199,-2.22374 37.44075,-3.46058 57.09375,-3.09375 C 327.76312,104.52276 309.32698,90.325558 290.875,80.53125 z"
         style="fill:none;stroke:none"
         transform="translate(-101.16973,859.24999)"
         inkscape:connector-curvature="0" />
    </g>
  </g>
</svg>
