<?xml version="1.0" encoding="UTF-8" standalone="no"?>
<!-- Created with Inkscape (http://www.inkscape.org/) -->

<svg
   xmlns:dc="http://purl.org/dc/elements/1.1/"
   xmlns:cc="http://creativecommons.org/ns#"
   xmlns:rdf="http://www.w3.org/1999/02/22-rdf-syntax-ns#"
   xmlns:svg="http://www.w3.org/2000/svg"
   xmlns="http://www.w3.org/2000/svg"
   xmlns:sodipodi="http://sodipodi.sourceforge.net/DTD/sodipodi-0.dtd"
   xmlns:inkscape="http://www.inkscape.org/namespaces/inkscape"
   width="153.03506"
   height="181.31934"
   id="svg2851"
   version="1.1"
   inkscape:version="0.48.2 r9819"
   sodipodi:docname="05integral-of-vectorfield.pdf">
  <defs
     id="defs2853">
    <marker
       inkscape:stockid="Arrow1Lend"
       orient="auto"
       refY="0"
       refX="0"
       id="Arrow1Lend"
       style="overflow:visible">
      <path
         id="path3649"
         d="M 0,0 5,-5 -12.5,0 5,5 0,0 z"
         style="fill-rule:evenodd;stroke:#000000;stroke-width:1pt;marker-start:none"
         transform="matrix(-0.8,0,0,-0.8,-10,0)" />
    </marker>
    <marker
       inkscape:stockid="Arrow1Mend"
       orient="auto"
       refY="0"
       refX="0"
       id="Arrow1Mend"
       style="overflow:visible">
      <path
         id="path3655"
         d="M 0,0 5,-5 -12.5,0 5,5 0,0 z"
         style="fill-rule:evenodd;stroke:#000000;stroke-width:1pt;marker-start:none"
         transform="matrix(-0.4,0,0,-0.4,-4,0)" />
    </marker>
    <inkscape:perspective
       sodipodi:type="inkscape:persp3d"
       inkscape:vp_x="0 : 526.18109 : 1"
       inkscape:vp_y="0 : 1000 : 0"
       inkscape:vp_z="744.09448 : 526.18109 : 1"
       inkscape:persp3d-origin="372.04724 : 350.78739 : 1"
       id="perspective2859" />
    <inkscape:perspective
       id="perspective5093"
       inkscape:persp3d-origin="0.5 : 0.33333333 : 1"
       inkscape:vp_z="1 : 0.5 : 1"
       inkscape:vp_y="0 : 1000 : 0"
       inkscape:vp_x="0 : 0.5 : 1"
       sodipodi:type="inkscape:persp3d" />
    <inkscape:perspective
       id="perspective2874"
       inkscape:persp3d-origin="0.5 : 0.33333333 : 1"
       inkscape:vp_z="1 : 0.5 : 1"
       inkscape:vp_y="0 : 1000 : 0"
       inkscape:vp_x="0 : 0.5 : 1"
       sodipodi:type="inkscape:persp3d" />
    <inkscape:perspective
       id="perspective2905"
       inkscape:persp3d-origin="0.5 : 0.33333333 : 1"
       inkscape:vp_z="1 : 0.5 : 1"
       inkscape:vp_y="0 : 1000 : 0"
       inkscape:vp_x="0 : 0.5 : 1"
       sodipodi:type="inkscape:persp3d" />
    <inkscape:perspective
       id="perspective2905-9"
       inkscape:persp3d-origin="0.5 : 0.33333333 : 1"
       inkscape:vp_z="1 : 0.5 : 1"
       inkscape:vp_y="0 : 1000 : 0"
       inkscape:vp_x="0 : 0.5 : 1"
       sodipodi:type="inkscape:persp3d" />
    <inkscape:perspective
       id="perspective2905-4"
       inkscape:persp3d-origin="0.5 : 0.33333333 : 1"
       inkscape:vp_z="1 : 0.5 : 1"
       inkscape:vp_y="0 : 1000 : 0"
       inkscape:vp_x="0 : 0.5 : 1"
       sodipodi:type="inkscape:persp3d" />
    <inkscape:perspective
       id="perspective2905-1"
       inkscape:persp3d-origin="0.5 : 0.33333333 : 1"
       inkscape:vp_z="1 : 0.5 : 1"
       inkscape:vp_y="0 : 1000 : 0"
       inkscape:vp_x="0 : 0.5 : 1"
       sodipodi:type="inkscape:persp3d" />
    <inkscape:perspective
       id="perspective2905-6"
       inkscape:persp3d-origin="0.5 : 0.33333333 : 1"
       inkscape:vp_z="1 : 0.5 : 1"
       inkscape:vp_y="0 : 1000 : 0"
       inkscape:vp_x="0 : 0.5 : 1"
       sodipodi:type="inkscape:persp3d" />
    <inkscape:perspective
       id="perspective2882"
       inkscape:persp3d-origin="0.5 : 0.33333333 : 1"
       inkscape:vp_z="1 : 0.5 : 1"
       inkscape:vp_y="0 : 1000 : 0"
       inkscape:vp_x="0 : 0.5 : 1"
       sodipodi:type="inkscape:persp3d" />
    <inkscape:perspective
       id="perspective2882-9"
       inkscape:persp3d-origin="0.5 : 0.33333333 : 1"
       inkscape:vp_z="1 : 0.5 : 1"
       inkscape:vp_y="0 : 1000 : 0"
       inkscape:vp_x="0 : 0.5 : 1"
       sodipodi:type="inkscape:persp3d" />
    <inkscape:perspective
       id="perspective2882-4"
       inkscape:persp3d-origin="0.5 : 0.33333333 : 1"
       inkscape:vp_z="1 : 0.5 : 1"
       inkscape:vp_y="0 : 1000 : 0"
       inkscape:vp_x="0 : 0.5 : 1"
       sodipodi:type="inkscape:persp3d" />
    <inkscape:perspective
       id="perspective2882-1"
       inkscape:persp3d-origin="0.5 : 0.33333333 : 1"
       inkscape:vp_z="1 : 0.5 : 1"
       inkscape:vp_y="0 : 1000 : 0"
       inkscape:vp_x="0 : 0.5 : 1"
       sodipodi:type="inkscape:persp3d" />
    <inkscape:perspective
       id="perspective2882-6"
       inkscape:persp3d-origin="0.5 : 0.33333333 : 1"
       inkscape:vp_z="1 : 0.5 : 1"
       inkscape:vp_y="0 : 1000 : 0"
       inkscape:vp_x="0 : 0.5 : 1"
       sodipodi:type="inkscape:persp3d" />
    <inkscape:perspective
       id="perspective2953"
       inkscape:persp3d-origin="0.5 : 0.33333333 : 1"
       inkscape:vp_z="1 : 0.5 : 1"
       inkscape:vp_y="0 : 1000 : 0"
       inkscape:vp_x="0 : 0.5 : 1"
       sodipodi:type="inkscape:persp3d" />
  </defs>
  <sodipodi:namedview
     id="base"
     pagecolor="#ffffff"
     bordercolor="#666666"
     borderopacity="1.0"
     inkscape:pageopacity="0.0"
     inkscape:pageshadow="2"
     inkscape:zoom="3.2649579"
     inkscape:cx="76.517532"
     inkscape:cy="90.659668"
     inkscape:document-units="px"
     inkscape:current-layer="layer1"
     showgrid="false"
     showguides="true"
     inkscape:guide-bbox="true"
     inkscape:window-width="1276"
     inkscape:window-height="756"
     inkscape:window-x="4"
     inkscape:window-y="0"
     inkscape:window-maximized="1">
    <inkscape:grid
       type="xygrid"
       id="grid2861"
       empspacing="5"
       visible="true"
       enabled="true"
       snapvisiblegridlinesonly="true" />
  </sodipodi:namedview>
  <metadata
     id="metadata2856">
    <rdf:RDF>
      <cc:Work
         rdf:about="">
        <dc:format>image/svg+xml</dc:format>
        <dc:type
           rdf:resource="http://purl.org/dc/dcmitype/StillImage" />
        <dc:title></dc:title>
      </cc:Work>
    </rdf:RDF>
  </metadata>
  <g
     inkscape:label="Layer 1"
     inkscape:groupmode="layer"
     id="layer1"
     transform="translate(-40.155088,-861.29335)">
    <path
       style="fill:none;stroke:#4e9a06;stroke-width:1;stroke-linecap:butt;stroke-linejoin:miter;stroke-miterlimit:4;stroke-opacity:1;stroke-dasharray:none;marker-mid:none"
       d="m 115.15509,952.61269 c -3.29134,-6.58269 -6.34942,-14.3811 -8.85403,-22.54478 -3.43651,-11.20122 -5.83105,-23.09009 -6.356497,-33.46987 -0.406292,-8.026 0.304927,-15.14972 2.516057,-20.35557 2.34338,-5.51722 6.37144,-8.88029 12.53938,-8.88029"
       id="path2874"
       sodipodi:nodetypes="csssc" />
    <path
       style="fill:none;stroke:#c00;stroke-width:1;stroke-linecap:round;stroke-linejoin:round;stroke-miterlimit:4;stroke-opacity:1;stroke-dasharray:1, 2;marker-mid:none;color:#000000;stroke-dashoffset:0;marker:none;visibility:visible;display:inline;overflow:visible;enable-background:accumulate"
       d="m 120,982.36218 c 0.15509,-9.74949 0.15509,-19.74949 -4.84491,-29.74949"
       id="path2870"
       sodipodi:nodetypes="cc" />
    <path
       style="fill:none;stroke:#4e9a06;stroke-width:1;stroke-linecap:butt;stroke-linejoin:miter;stroke-miterlimit:4;stroke-opacity:1;stroke-dasharray:none;marker-mid:none"
       d="m 62.426407,988.32157 c -3.510871,8.62472 -2.298462,15.49213 1.415208,20.52253 4.941736,6.6939 14.312533,10.1348 22.876665,10.1348 11.209686,0 19.34214,-3.5711 24.77164,-9.8662 5.2608,-6.0996 7.98401,-14.73049 8.51008,-26.75052"
       id="path2863"
       sodipodi:nodetypes="csssc" />
    <path
       style="fill:#c00;stroke:#c00;stroke-width:1px;stroke-linecap:butt;stroke-linejoin:miter;stroke-opacity:1;marker-end:none"
       d="m 120,130 -4.84491,-29.74949"
       id="path2869"
       transform="translate(0,852.36218)"
       sodipodi:nodetypes="cc" />
    <path
       sodipodi:open="true"
       sodipodi:end="6.2018164"
       sodipodi:start="7.5853168e-11"
       transform="translate(-5.344912,822.61269)"
       d="m 122.1,130 c 0,0.82843 -0.67157,1.5 -1.5,1.5 -0.82843,0 -1.5,-0.67157 -1.5,-1.5 0,-0.82843 0.67157,-1.5 1.5,-1.5 0.78115,0 1.43154,0.59951 1.49504,1.37808"
       sodipodi:ry="1.5"
       sodipodi:rx="1.5"
       sodipodi:cy="130"
       sodipodi:cx="120.6"
       id="path5083"
       style="color:#000000;fill:#ffffff;fill-opacity:1;fill-rule:nonzero;stroke:#000000;stroke-width:0.5;stroke-linecap:round;stroke-linejoin:round;stroke-miterlimit:4;stroke-opacity:1;stroke-dasharray:none;stroke-dashoffset:0;marker:none;visibility:visible;display:inline;overflow:visible;enable-background:accumulate"
       sodipodi:type="arc" />
    <path
       style="fill:#c00;stroke:#c00;stroke-width:1px;stroke-linecap:butt;stroke-linejoin:round;stroke-opacity:1"
       d="m 113.74087,959.29206 1.41422,-6.67937 3.40901,6.23743 c -1.92214,-2.12058 -4.2851,-2.19977 -4.82323,0.44194 z"
       id="path4465"
       sodipodi:nodetypes="cccc" />
    <text
       xml:space="preserve"
       style="font-size:10px;font-style:italic;font-variant:normal;font-weight:normal;font-stretch:normal;text-indent:0;text-align:center;text-decoration:none;line-height:125%;letter-spacing:normal;word-spacing:normal;text-transform:none;direction:ltr;block-progression:tb;writing-mode:lr;text-anchor:middle;color:#000000;fill:#000000;fill-opacity:1;fill-rule:nonzero;stroke:none;marker:none;visibility:visible;display:inline;overflow:visible;enable-background:accumulate;font-family:Linux Libertine O;-inkscape-font-specification:Linux Libertine O Italic"
       x="93.357887"
       y="882.65656"
       id="text4519"
       sodipodi:linespacing="125%"><tspan
         sodipodi:role="line"
         id="tspan4521"
         x="93.357887"
         y="882.65656">C</tspan></text>
    <g
       id="g3049"
       style="fill:#c00;stroke:none">
      <path
         style="font-size:medium;font-style:normal;font-variant:normal;font-weight:normal;font-stretch:normal;text-indent:0;text-align:start;text-decoration:none;line-height:normal;letter-spacing:normal;word-spacing:normal;text-transform:none;direction:ltr;block-progression:tb;writing-mode:lr-tb;text-anchor:start;baseline-shift:baseline;color:black;fill:#c00;fill-opacity:1;stroke:none;stroke-width:1px;marker:none;visibility:visible;display:inline;overflow:visible;enable-background:accumulate;font-family:Sans;-inkscape-font-specification:Sans"
         d="m 80.1875,966.89343 -0.375,0.9375 40,15 0.375,-0.9375 -40,-15 z"
         id="path5106"
         inkscape:connector-curvature="0" />
      <path
         style="fill-rule:evenodd;stroke:none;stroke-width:0.40000000000000002pt;marker-start:none;fill:#c00"
         d="m 83.745317,968.76667 2.574905,-1.17041 -7.256551,-0.5852 5.852057,4.33052 -1.170411,-2.57491 z"
         id="path3055"
         inkscape:connector-curvature="0" />
    </g>
    <path
       sodipodi:type="arc"
       style="color:#000000;fill:#ffffff;fill-opacity:1;fill-rule:nonzero;stroke:#000000;stroke-width:0.5;stroke-linecap:round;stroke-linejoin:round;stroke-miterlimit:4;stroke-opacity:1;stroke-dasharray:none;stroke-dashoffset:0;marker:none;visibility:visible;display:inline;overflow:visible;enable-background:accumulate"
       id="path5081"
       sodipodi:cx="120"
       sodipodi:cy="130"
       sodipodi:rx="1.5"
       sodipodi:ry="1.5"
       d="m 121.5,130 c 0,0.82843 -0.67157,1.5 -1.5,1.5 -0.82843,0 -1.5,-0.67157 -1.5,-1.5 0,-0.82843 0.67157,-1.5 1.5,-1.5 0.78115,0 1.43155,0.59951 1.49504,1.37808"
       transform="translate(0,852.36218)"
       sodipodi:start="7.5853168e-11"
       sodipodi:end="6.2018164"
       sodipodi:open="true" />
    <text
       xml:space="preserve"
       style="font-size:10px;font-style:italic;font-variant:normal;font-weight:normal;font-stretch:normal;text-indent:0;text-align:center;text-decoration:none;line-height:125%;letter-spacing:normal;word-spacing:normal;text-transform:none;direction:ltr;block-progression:tb;writing-mode:lr;text-anchor:middle;color:#000000;fill:#a40000;fill-opacity:1;fill-rule:nonzero;stroke:none;marker:none;visibility:visible;display:inline;overflow:visible;enable-background:accumulate;font-family:Linux Libertine O;-inkscape-font-specification:Linux Libertine O Italic"
       x="91.092407"
       y="983.00262"
       id="text5294"
       sodipodi:linespacing="125%"><tspan
         sodipodi:role="line"
         id="tspan5296"
         x="91.092407"
         y="983.00262"
         style="font-size:10px;font-style:italic;font-variant:normal;font-weight:bold;font-stretch:normal;text-indent:0;text-align:center;text-decoration:none;line-height:125%;letter-spacing:normal;word-spacing:normal;text-transform:none;direction:ltr;block-progression:tb;writing-mode:lr;text-anchor:middle;color:#000000;fill:#a40000;fill-opacity:1;fill-rule:nonzero;stroke:none;marker:none;visibility:visible;display:inline;overflow:visible;enable-background:accumulate;font-family:Linux Libertine O;-inkscape-font-specification:Linux Libertine O Italic">F</tspan></text>
    <path
       style="fill:none;stroke:#a40000;stroke-width:0.50000000000000000;stroke-linecap:round;stroke-linejoin:round;stroke-miterlimit:4;stroke-opacity:1;stroke-dasharray:none"
       d="m 90.25,975.73718 4,0 -1.6875,-0.9375"
       id="path5298"
       sodipodi:nodetypes="ccc" />
    <g
       id="g3041"
       style="fill:#555753;stroke:#555753">
      <path
         style="font-size:medium;font-style:normal;font-variant:normal;font-weight:normal;font-stretch:normal;text-indent:0;text-align:start;text-decoration:none;line-height:normal;letter-spacing:normal;word-spacing:normal;text-transform:none;direction:ltr;block-progression:tb;writing-mode:lr-tb;text-anchor:start;baseline-shift:baseline;color:black;fill:#555753;fill-opacity:1;stroke:#555753;stroke-width:0.40000001000000002;marker:none;visibility:visible;display:inline;overflow:visible;enable-background:accumulate;font-family:Sans;-inkscape-font-specification:Sans"
         d="m 56.625,994.54968 0.375,0.0312 0.125,-1.59375 -0.40625,-0.0312 z m -0.03125,2.1875 0.09375,1.03125 0.40625,-0.0312 -0.09375,-1 0,-0.0312 0,-0.53125 -0.40625,0 z m 0.28125,2.625 0.15625,1.18752 0.09375,0.4062 0.40625,-0.062 -0.09375,-0.4062 -0.1875,-1.15627 z m 0.59375,3.18752 0.4375,1.5312 0.375,-0.094 -0.4375,-1.5625 z m 0.96875,3.0625 0.1875,0.5312 0.40625,0.9688 0.375,-0.1563 -0.40625,-0.9375 0,-0.031 -0.1875,-0.5 z m 1.28125,2.9375 0.53125,1.0937 0.03125,0 0.1875,0.3438 0.34375,-0.2188 -0.1875,-0.3125 -0.5625,-1.0625 z m 1.59375,2.8125 0.90625,1.3125 0.3125,-0.2188 -0.90625,-1.3125 z m 1.90625,2.5937 0.28125,0.3438 0.03125,0.031 0.78125,0.8125 0.28125,-0.2812 -0.78125,-0.8125 -0.28125,-0.3438 z m 2.25,2.3125 0.6875,0.625 0.53125,0.4375 0.25,-0.3437 -0.53125,-0.4063 0,0.031 -0.6875,-0.625 z m 2.53125,2 1.125,0.6875 0.25,0.1563 0.1875,-0.375 -0.21875,-0.125 -0.03125,0 -1.09375,-0.6875 z m 2.8125,1.5625 0.5,0.25 0,0.031 0.96875,0.4062 0.15625,-0.375 -0.9375,-0.4062 -0.03125,0 -0.46875,-0.25 z m 32,0.4375 -0.8125,0.25 0.125,0.4063 0.8125,-0.2813 0.6875,-0.25 -0.125,-0.375 z m -29.0625,0.875 1.53125,0.5313 0.125,-0.375 -1.53125,-0.5313 z m 25.1875,0.3125 0.09375,0.375 1.5625,-0.4375 -0.125,-0.375 z m -22.125,0.6875 1.21875,0.3438 0.34375,0.062 0.0625,-0.4063 -0.3125,-0.062 -1.21875,-0.3437 z m 19.4375,-0.031 -0.40625,0.094 0.0625,0.375 0.40625,-0.062 0.03125,0 1.125,-0.2812 -0.09375,-0.4063 z m -16.3125,0.75 0.375,0.094 1.21875,0.1875 0.0625,-0.4062 -1.21875,-0.1875 -0.34375,-0.062 z M 94,1022.5497 l -1.3125,0.1562 0.0625,0.4063 1.3125,-0.1875 0.28125,-0.031 -0.09375,-0.4062 z m -4.46875,0.5 0.03125,0.375 1.59375,-0.125 -0.03125,-0.4063 z m -6.40625,0.2812 1.59375,0.125 0.03125,-0.4062 -1.59375,-0.125 z m 3.21875,0.1563 0.84375,0.031 0.03125,0 0.71875,-0.031 0,-0.375 -0.71875,0 -0.03125,0 -0.84375,0 z"
         id="path5305"
         inkscape:connector-curvature="0" />
      <path
         style="fill-rule:evenodd;stroke:#555753;stroke-width:0.80000000000000004pt;marker-start:none;fill:#555753"
         d="m 101.27459,1021.1334 -0.89612,2.0777 4.61343,-3.5548 -5.795046,0.5809 2.077736,0.8962 z"
         id="path3047"
         inkscape:connector-curvature="0" />
    </g>
    <g
       id="g3057"
       style="fill:#555753">
      <path
         style="font-size:medium;font-style:normal;font-variant:normal;font-weight:normal;font-stretch:normal;text-indent:0;text-align:start;text-decoration:none;line-height:normal;letter-spacing:normal;word-spacing:normal;text-transform:none;direction:ltr;block-progression:tb;writing-mode:lr-tb;text-anchor:start;baseline-shift:baseline;color:black;fill:#555753;fill-opacity:1;stroke:none;stroke-width:0.30000000999999998;marker:none;visibility:visible;display:inline;overflow:visible;enable-background:accumulate;font-family:Sans;-inkscape-font-specification:Sans"
         d="m 115.28125,872.09375 0,0.28125 0.90625,0 0,-0.3125 z m -1.8125,0.0312 0,0.28125 0.90625,0 0,-0.3125 z m -1.8125,0.0625 0.0312,0.28125 0.59375,-0.0312 0.3125,-0.0312 0,-0.28125 -0.3125,0 z m -1.53125,0.1875 -0.0312,0 -0.21875,0.0625 0.0625,0.28125 0.21875,-0.0625 0.0312,0 0.625,-0.125 L 110.75,872.25 z m -1.34375,0.46875 -0.59375,0.34375 0.15625,0.25 0.5625,-0.3125 0.0312,0 0.1875,-0.0937 L 109,872.75 z m -1.8125,1.34375 -0.1875,0.1875 0.25,0.21875 0.15625,-0.1875 0.46875,-0.4375 -0.21875,-0.21875 z m -0.9375,1.15625 0,0.0312 -0.0312,0 -0.28125,0.46875 0.25,0.15625 0.3125,-0.46875 -0.0312,0 0.21875,-0.25 -0.25,-0.1875 z M 105.25,876.75 l -0.34375,0.75 0.28125,0.0937 0.3125,-0.71875 0.0625,-0.0937 -0.28125,-0.125 z m -0.875,2.46875 0.28125,0.0937 0.25,-0.875 -0.3125,-0.0937 z m -0.40625,1.75 0.28125,0.0625 0.15625,-0.875 -0.28125,-0.0625 z m -0.28125,1.8125 0.28125,0.0312 0.125,-0.90625 -0.3125,-0.0312 z m -0.1875,1.78125 0.3125,0.0312 0.0625,-0.90625 -0.3125,0 z m -0.0625,0.9375 0,0.875 0.28125,0 0.0312,-0.84375 0,-0.0312 -0.15625,0 -0.15625,-0.0312 z m -0.0312,1.90625 0,0.78125 0.3125,0 -0.0312,-0.78125 0.0312,-0.125 -0.3125,0 z m 0,1.6875 0,0.1875 0.0312,0 0,0.6875 0.3125,0 -0.0312,-0.6875 0,-0.21875 z m 0.0937,2 0.0625,0.6875 0.28125,-0.0312 -0.0625,-0.65625 0,-0.21875 -0.28125,0 z m 0.125,1.59375 0.0625,0.90625 0.28125,-0.0312 -0.0625,-0.90625 z m 0.125,1.78125 0.0937,0.90625 0.3125,-0.0312 -0.0937,-0.90625 z m 0.1875,1.8125 0.0937,0.875 0.28125,-0.0312 -0.0937,-0.875 z"
         id="path5679"
         inkscape:connector-curvature="0" />
      <path
         style="fill:#555753;fill-rule:evenodd;stroke:none;stroke-width:0.8pt;marker-start:none"
         d="m 114.30786,872.25035 -1.17249,1.22689 4.17172,-1.29488 -4.22612,-1.1045 1.22689,1.17249 z"
         id="path3063"
         inkscape:connector-curvature="0" />
    </g>
    <text
       xml:space="preserve"
       style="font-size:10px;font-style:italic;font-variant:normal;font-weight:normal;font-stretch:normal;text-indent:0;text-align:center;text-decoration:none;line-height:125%;letter-spacing:normal;word-spacing:normal;text-transform:none;direction:ltr;block-progression:tb;writing-mode:lr;text-anchor:middle;color:#000000;fill:#a40000;fill-opacity:1;fill-rule:nonzero;stroke:none;marker:none;visibility:visible;display:inline;overflow:visible;enable-background:accumulate;font-family:Linux Libertine O;-inkscape-font-specification:Linux Libertine O Italic"
       x="108.3131"
       y="970.80273"
       id="text2856"
       sodipodi:linespacing="125%"><tspan
         sodipodi:role="line"
         id="tspan2858"
         x="108.3131"
         y="970.80273">Δ<tspan
   style="font-size:10px;font-style:italic;font-variant:normal;font-weight:bold;font-stretch:normal;text-indent:0;text-align:center;text-decoration:none;line-height:125%;letter-spacing:normal;word-spacing:normal;text-transform:none;direction:ltr;block-progression:tb;writing-mode:lr;text-anchor:middle;color:#000000;fill:#a40000;fill-opacity:1;fill-rule:nonzero;stroke:none;stroke-width:1;marker:none;visibility:visible;display:inline;overflow:visible;enable-background:accumulate;font-family:Linux Libertine O;-inkscape-font-specification:Linux Libertine O Italic"
   id="tspan2860">x</tspan></tspan></text>
    <path
       sodipodi:nodetypes="ccc"
       id="path2865"
       d="m 110.2316,965.25989 4,0 -1.6875,-0.9375"
       style="fill:none;stroke:#a40000;stroke-width:0.50000000000000000;stroke-linecap:round;stroke-linejoin:round;stroke-miterlimit:4;stroke-opacity:1;stroke-dasharray:none" />
    <text
       xml:space="preserve"
       style="font-size:10px;font-style:italic;font-variant:normal;font-weight:normal;font-stretch:normal;text-align:center;line-height:125%;writing-mode:lr;text-anchor:middle;fill:#000000;fill-opacity:1;stroke:none;font-family:Linux Libertine O;-inkscape-font-specification:Linux Libertine O Italic"
       x="160.02008"
       y="942.55707"
       id="text3660"
       sodipodi:linespacing="125%"><tspan
         sodipodi:role="line"
         id="tspan3662"
         x="160.02008"
         y="942.55707"
         dy="0 0 0 4.24264">k<tspan
   style="font-size:10px;font-style:italic;font-variant:normal;font-weight:normal;font-stretch:normal;text-align:center;line-height:125%;writing-mode:lr;text-anchor:middle;font-family:Linux Libertine O;-inkscape-font-specification:Linux Libertine O Italic"
   id="tspan3666"
   dy="-4.24264">th</tspan> partition</tspan><tspan
         sodipodi:role="line"
         x="160.02008"
         y="953.80707"
         id="tspan3664">piece</tspan></text>
    <path
       style="fill:none;stroke:#000000;stroke-width:0.3;stroke-linecap:butt;stroke-linejoin:miter;stroke-opacity:1;stroke-miterlimit:4;stroke-dasharray:none"
       d="M 80.403064,106.36297 104.29825,85.859923"
       id="path3668"
       transform="translate(40.155088,861.29335)"
       sodipodi:nodetypes="cc" />
    <path
       sodipodi:open="true"
       sodipodi:end="6.2018164"
       sodipodi:start="7.5853168e-11"
       transform="translate(-5.079766,737.62891)"
       d="m 121.5,130 c 0,0.82843 -0.67157,1.5 -1.5,1.5 -0.82843,0 -1.5,-0.67157 -1.5,-1.5 0,-0.82843 0.67157,-1.5 1.5,-1.5 0.78115,0 1.43155,0.59951 1.49504,1.37808"
       sodipodi:ry="1.5"
       sodipodi:rx="1.5"
       sodipodi:cy="130"
       sodipodi:cx="120"
       id="path2978"
       style="color:#000000;fill:#ffffff;fill-opacity:1;fill-rule:nonzero;stroke:#000000;stroke-width:0.5;stroke-linecap:round;stroke-linejoin:round;stroke-miterlimit:4;stroke-opacity:1;stroke-dasharray:none;stroke-dashoffset:0;marker:none;visibility:visible;display:inline;overflow:visible;enable-background:accumulate"
       sodipodi:type="arc" />
    <path
       sodipodi:type="arc"
       style="color:#000000;fill:#ffffff;fill-opacity:1;fill-rule:nonzero;stroke:#000000;stroke-width:0.5;stroke-linecap:round;stroke-linejoin:round;stroke-miterlimit:4;stroke-opacity:1;stroke-dasharray:none;stroke-dashoffset:0;marker:none;visibility:visible;display:inline;overflow:visible;enable-background:accumulate"
       id="path2980"
       sodipodi:cx="120"
       sodipodi:cy="130"
       sodipodi:rx="1.5"
       sodipodi:ry="1.5"
       d="m 121.5,130 c 0,0.82843 -0.67157,1.5 -1.5,1.5 -0.82843,0 -1.5,-0.67157 -1.5,-1.5 0,-0.82843 0.67157,-1.5 1.5,-1.5 0.78115,0 1.43155,0.59951 1.49504,1.37808"
       transform="translate(-19.969669,767.26859)"
       sodipodi:start="7.5853168e-11"
       sodipodi:end="6.2018164"
       sodipodi:open="true" />
    <path
       sodipodi:open="true"
       sodipodi:end="6.2018164"
       sodipodi:start="7.5853168e-11"
       transform="translate(-57.67083,858.54416)"
       d="m 121.5,130 c 0,0.82843 -0.67157,1.5 -1.5,1.5 -0.82843,0 -1.5,-0.67157 -1.5,-1.5 0,-0.82843 0.67157,-1.5 1.5,-1.5 0.78115,0 1.43155,0.59951 1.49504,1.37808"
       sodipodi:ry="1.5"
       sodipodi:rx="1.5"
       sodipodi:cy="130"
       sodipodi:cx="120"
       id="path2982"
       style="color:#000000;fill:#ffffff;fill-opacity:1;fill-rule:nonzero;stroke:#000000;stroke-width:0.5;stroke-linecap:round;stroke-linejoin:round;stroke-miterlimit:4;stroke-opacity:1;stroke-dasharray:none;stroke-dashoffset:0;marker:none;visibility:visible;display:inline;overflow:visible;enable-background:accumulate"
       sodipodi:type="arc" />
    <path
       sodipodi:type="arc"
       style="color:#000000;fill:#ffffff;fill-opacity:1;fill-rule:nonzero;stroke:#000000;stroke-width:0.5;stroke-linecap:round;stroke-linejoin:round;stroke-miterlimit:4;stroke-opacity:1;stroke-dasharray:none;stroke-dashoffset:0;marker:none;visibility:visible;display:inline;overflow:visible;enable-background:accumulate"
       id="path2984"
       sodipodi:cx="120"
       sodipodi:cy="130"
       sodipodi:rx="1.5"
       sodipodi:ry="1.5"
       d="m 121.5,130 c 0,0.82843 -0.67157,1.5 -1.5,1.5 -0.82843,0 -1.5,-0.67157 -1.5,-1.5 0,-0.82843 0.67157,-1.5 1.5,-1.5 0.78115,0 1.43155,0.59951 1.49504,1.37808"
       transform="translate(-53.516578,881.70191)"
       sodipodi:start="7.5853168e-11"
       sodipodi:end="6.2018164"
       sodipodi:open="true" />
    <path
       sodipodi:open="true"
       sodipodi:end="6.2018164"
       sodipodi:start="7.5853168e-11"
       transform="translate(-29.033007,888.5962)"
       d="m 121.5,130 c 0,0.82843 -0.67157,1.5 -1.5,1.5 -0.82843,0 -1.5,-0.67157 -1.5,-1.5 0,-0.82843 0.67157,-1.5 1.5,-1.5 0.78115,0 1.43155,0.59951 1.49504,1.37808"
       sodipodi:ry="1.5"
       sodipodi:rx="1.5"
       sodipodi:cy="130"
       sodipodi:cx="120"
       id="path2986"
       style="color:#000000;fill:#ffffff;fill-opacity:1;fill-rule:nonzero;stroke:#000000;stroke-width:0.5;stroke-linecap:round;stroke-linejoin:round;stroke-miterlimit:4;stroke-opacity:1;stroke-dasharray:none;stroke-dashoffset:0;marker:none;visibility:visible;display:inline;overflow:visible;enable-background:accumulate"
       sodipodi:type="arc" />
    <path
       sodipodi:type="arc"
       style="color:#000000;fill:#ffffff;fill-opacity:1;fill-rule:nonzero;stroke:#000000;stroke-width:0.5;stroke-linecap:round;stroke-linejoin:round;stroke-miterlimit:4;stroke-opacity:1;stroke-dasharray:none;stroke-dashoffset:0;marker:none;visibility:visible;display:inline;overflow:visible;enable-background:accumulate"
       id="path2988"
       sodipodi:cx="120"
       sodipodi:cy="130"
       sodipodi:rx="1.5"
       sodipodi:ry="1.5"
       d="m 121.5,130 c 0,0.82843 -0.67157,1.5 -1.5,1.5 -0.82843,0 -1.5,-0.67157 -1.5,-1.5 0,-0.82843 0.67157,-1.5 1.5,-1.5 0.78115,0 1.43155,0.59951 1.49504,1.37808"
       transform="translate(-5.6984843,874.80762)"
       sodipodi:start="7.5853168e-11"
       sodipodi:end="6.2018164"
       sodipodi:open="true" />
    <path
       sodipodi:open="true"
       sodipodi:end="6.2018164"
       sodipodi:start="7.5853168e-11"
       transform="translate(-16.969669,787.01859)"
       d="m 121.5,130 c 0,0.82843 -0.67157,1.5 -1.5,1.5 -0.82843,0 -1.5,-0.67157 -1.5,-1.5 0,-0.82843 0.67157,-1.5 1.5,-1.5 0.78115,0 1.43155,0.59951 1.49504,1.37808"
       sodipodi:ry="1.5"
       sodipodi:rx="1.5"
       sodipodi:cy="130"
       sodipodi:cx="120"
       id="path2994"
       style="color:#000000;fill:#ffffff;fill-opacity:1;fill-rule:nonzero;stroke:#000000;stroke-width:0.5;stroke-linecap:round;stroke-linejoin:round;stroke-miterlimit:4;stroke-opacity:1;stroke-dasharray:none;stroke-dashoffset:0;marker:none;visibility:visible;display:inline;overflow:visible;enable-background:accumulate"
       sodipodi:type="arc" />
    <path
       sodipodi:type="arc"
       style="color:#000000;fill:#ffffff;fill-opacity:1;fill-rule:nonzero;stroke:#000000;stroke-width:0.5;stroke-linecap:round;stroke-linejoin:round;stroke-miterlimit:4;stroke-opacity:1;stroke-dasharray:none;stroke-dashoffset:0;marker:none;visibility:visible;display:inline;overflow:visible;enable-background:accumulate"
       id="path2996"
       sodipodi:cx="120"
       sodipodi:cy="130"
       sodipodi:rx="1.5"
       sodipodi:ry="1.5"
       d="m 121.5,130 c 0,0.82843 -0.67157,1.5 -1.5,1.5 -0.82843,0 -1.5,-0.67157 -1.5,-1.5 0,-0.82843 0.67157,-1.5 1.5,-1.5 0.78115,0 1.43155,0.59951 1.49504,1.37808"
       transform="translate(-10.719669,807.51859)"
       sodipodi:start="7.5853168e-11"
       sodipodi:end="6.2018164"
       sodipodi:open="true" />
    <text
       xml:space="preserve"
       style="font-size:10px;font-style:italic;font-variant:normal;font-weight:normal;font-stretch:normal;text-align:center;line-height:125%;writing-mode:lr;text-anchor:middle;fill:#000000;fill-opacity:1;stroke:none;font-family:Linux Libertine O;-inkscape-font-specification:Linux Libertine O Italic"
       x="62.075397"
       y="984.62994"
       id="text2998"
       sodipodi:linespacing="125%"><tspan
         sodipodi:role="line"
         id="tspan3000"
         x="62.075397"
         y="984.62994">start</tspan></text>
    <text
       xml:space="preserve"
       style="font-size:10px;font-style:italic;font-variant:normal;font-weight:normal;font-stretch:normal;text-align:center;line-height:125%;writing-mode:lr;text-anchor:middle;fill:#000000;fill-opacity:1;stroke:none;font-family:Linux Libertine O;-inkscape-font-specification:Linux Libertine O Italic"
       x="127.12922"
       y="869.37152"
       id="text3002"
       sodipodi:linespacing="125%"><tspan
         sodipodi:role="line"
         id="tspan3004"
         x="127.12922"
         y="869.37152">end</tspan></text>
    <text
       xml:space="preserve"
       style="font-size:12px;font-style:italic;font-variant:normal;font-weight:normal;font-stretch:normal;text-align:start;line-height:125%;letter-spacing:0px;word-spacing:0px;writing-mode:lr-tb;text-anchor:start;fill:black;fill-opacity:1;stroke:none;font-family:Linux Libertine O;-inkscape-font-specification:Linux Libertine O Italic"
       x="116.08113"
       y="128.33244"
       id="text3037"
       sodipodi:linespacing="125%"
       transform="translate(40.155088,861.29335)"><tspan
         sodipodi:role="line"
         id="tspan3039"
         x="116.08113"
         y="128.33244" /></text>
  </g>
</svg>
