<?xml version="1.0" encoding="UTF-8" standalone="no"?>
<!-- Created with Inkscape (http://www.inkscape.org/) -->

<svg
   xmlns:dc="http://purl.org/dc/elements/1.1/"
   xmlns:cc="http://creativecommons.org/ns#"
   xmlns:rdf="http://www.w3.org/1999/02/22-rdf-syntax-ns#"
   xmlns:svg="http://www.w3.org/2000/svg"
   xmlns="http://www.w3.org/2000/svg"
   xmlns:sodipodi="http://sodipodi.sourceforge.net/DTD/sodipodi-0.dtd"
   xmlns:inkscape="http://www.inkscape.org/namespaces/inkscape"
   width="153.8844"
   height="135.09375"
   id="svg2"
   version="1.1"
   inkscape:version="0.48.2 r9819"
   sodipodi:docname="05sphere-unit-normal.pdf">
  <defs
     id="defs4">
    <marker
       inkscape:stockid="Arrow1Mend"
       orient="auto"
       refY="0"
       refX="0"
       id="Arrow1Mend"
       style="overflow:visible">
      <path
         id="path3789"
         d="M 0,0 5,-5 -12.5,0 5,5 0,0 z"
         style="fill-rule:evenodd;stroke:black;stroke-width:1pt;marker-start:none"
         transform="matrix(-0.4,0,0,-0.4,-4,0)"
         inkscape:connector-curvature="0" />
    </marker>
    <marker
       inkscape:stockid="Arrow1Lend"
       orient="auto"
       refY="0"
       refX="0"
       id="Arrow1Lend"
       style="overflow:visible">
      <path
         id="path3783"
         d="M 0,0 5,-5 -12.5,0 5,5 0,0 z"
         style="fill-rule:evenodd;stroke:black;stroke-width:1pt;marker-start:none"
         transform="matrix(-0.8,0,0,-0.8,-10,0)"
         inkscape:connector-curvature="0" />
    </marker>
  </defs>
  <sodipodi:namedview
     id="base"
     pagecolor="#ffffff"
     bordercolor="#666666"
     borderopacity="1.0"
     inkscape:pageopacity="0.0"
     inkscape:pageshadow="2"
     inkscape:zoom="2.1910559"
     inkscape:cx="141.02967"
     inkscape:cy="67.532222"
     inkscape:document-units="px"
     inkscape:current-layer="layer1"
     showgrid="false"
     inkscape:object-nodes="true"
     inkscape:object-paths="false"
     showguides="false"
     inkscape:guide-bbox="true"
     inkscape:window-width="1276"
     inkscape:window-height="756"
     inkscape:window-x="4"
     inkscape:window-y="0"
     inkscape:window-maximized="1"
     inkscape:snap-global="false"
     fit-margin-top="0"
     fit-margin-left="0"
     fit-margin-right="0"
     fit-margin-bottom="0">
    <sodipodi:guide
       orientation="0,1"
       position="101.42596,67.532244"
       id="guide3763" />
    <sodipodi:guide
       orientation="1,0"
       position="67.750115,58.547611"
       id="guide3765" />
  </sodipodi:namedview>
  <metadata
     id="metadata7">
    <rdf:RDF>
      <cc:Work
         rdf:about="">
        <dc:format>image/svg+xml</dc:format>
        <dc:type
           rdf:resource="http://purl.org/dc/dcmitype/StillImage" />
        <dc:title></dc:title>
      </cc:Work>
    </rdf:RDF>
  </metadata>
  <g
     inkscape:label="Layer 1"
     inkscape:groupmode="layer"
     id="layer1"
     transform="translate(-1.7497119,-926.625)">
    <text
       xml:space="preserve"
       style="font-size:10px;font-style:italic;font-variant:normal;font-weight:normal;font-stretch:normal;text-align:start;line-height:125%;letter-spacing:0px;word-spacing:0px;writing-mode:lr-tb;text-anchor:start;fill:#3465a4;fill-opacity:1;stroke:none;font-family:Linux Libertine O;-inkscape-font-specification:Linux Libertine O Italic"
       x="92.116905"
       y="961.25836"
       id="text4431"
       sodipodi:linespacing="125%"><tspan
         sodipodi:role="line"
         id="tspan4433"
         x="92.116905"
         y="961.25836">$\vx$</tspan></text>
    <text
       sodipodi:linespacing="125%"
       id="text4435"
       y="942.97028"
       x="132.09927"
       style="font-size:10px;font-style:italic;font-variant:normal;font-weight:normal;font-stretch:normal;text-align:start;line-height:125%;letter-spacing:0px;word-spacing:0px;writing-mode:lr-tb;text-anchor:start;fill:#c00;fill-opacity:1;stroke:none;font-family:Linux Libertine O;-inkscape-font-specification:Linux Libertine O Italic"
       xml:space="preserve"><tspan
         y="942.97028"
         x="132.09927"
         id="tspan4437"
         sodipodi:role="line">$\vN=\frac{\vx}{R}$</tspan></text>
    <path
       style="fill:none;stroke:black;stroke-width:0.2;stroke-linecap:butt;stroke-linejoin:miter;stroke-miterlimit:4;stroke-opacity:1;stroke-dasharray:none"
       d="m 2.382525,993.85441 133.869355,0.45226"
       id="path4489"
       inkscape:connector-curvature="0" />
    <path
       inkscape:connector-curvature="0"
       style="fill:none;stroke:#d3d7cf;stroke-width:0.5;stroke-miterlimit:4"
       d="m 69.527023,926.88919 c 11.440236,0 20.71438,30.13002 20.71438,67.2973 0,37.16721 -9.274144,67.29741 -20.71438,67.29741"
       id="path4481" />
    <path
       style="fill:none;stroke:black;stroke-width:0.2;stroke-linecap:round;stroke-linejoin:miter;stroke-miterlimit:4;stroke-opacity:1;stroke-dasharray:none"
       d="M 48.965439,1011.0403 89.668957,978.02527"
       id="path4491"
       inkscape:connector-curvature="0" />
    <path
       inkscape:connector-curvature="0"
       style="fill:none;stroke:#babdb6;stroke-width:0.5;stroke-miterlimit:4;stroke-dasharray:none"
       d="m 2.229729,994.18649 c 0,-9.85156 30.130026,-17.83784 67.297294,-17.83784 37.167267,0 67.297297,7.98628 67.297297,17.83784"
       id="path3757" />
    <path
       inkscape:connector-curvature="0"
       style="fill:none;stroke:#2e3436;stroke-width:0.5;stroke-miterlimit:4"
       d="m 136.82432,994.18648 c 0,37.16732 -30.13003,67.29732 -67.297297,67.29732 -37.167268,0 -67.297294,-30.13 -67.297294,-67.29732 0,-37.16727 30.130026,-67.29729 67.297294,-67.29729 37.167267,0 67.297297,30.13002 67.297297,67.29729 z"
       id="path2985" />
    <g
       id="g4407"
       style="fill:#c00;stroke:#c00;stroke-width:0.5;stroke-linecap:round;stroke-linejoin:round"
       transform="matrix(2,0,0,2,-69.527023,-994.18653)">
      <path
         style="fill:#c00;fill-rule:evenodd;stroke:#c00;stroke-width:0.2pt;stroke-linecap:round;stroke-linejoin:round;marker-start:none"
         d="m 96.573676,970.40787 0.01238,1.8836 3.153313,-4.58169 -5.049327,2.39555 z"
         id="path4413"
         inkscape:connector-curvature="0"
         sodipodi:nodetypes="ccccc" />
      <path
         style="font-size:medium;font-style:normal;font-variant:normal;font-weight:normal;font-stretch:normal;text-indent:0;text-align:start;text-decoration:none;line-height:normal;letter-spacing:normal;word-spacing:normal;text-transform:none;direction:ltr;block-progression:tb;writing-mode:lr-tb;text-anchor:start;baseline-shift:baseline;color:black;fill:#c00;fill-opacity:1;stroke:#c00;stroke-width:0.25;stroke-linecap:round;stroke-linejoin:round;marker:none;visibility:visible;display:inline;overflow:visible;enable-background:accumulate;font-family:Sans;-inkscape-font-specification:Sans"
         d="m 97.623471,969.2006 -8.842171,7.7369 c -0.07481,0.0567 -0.112815,0.15807 -0.09375,0.25 0.01562,0.0835 0.07689,0.15707 0.15625,0.1875 0.04078,0.0105 0.08422,0.0105 0.125,0 0.04645,-0.008 0.09036,-0.0304 0.125,-0.0625 l 8.815717,-7.71375 z"
         id="path4485"
         inkscape:connector-curvature="0"
         sodipodi:nodetypes="cccccccc" />
    </g>
    <path
       inkscape:connector-curvature="0"
       style="fill:none;stroke:#2e3436;stroke-width:0.97117555;stroke-linecap:round;stroke-miterlimit:4"
       d="m 136.82432,994.18649 c 0,9.85161 -30.13003,17.83781 -67.297297,17.83781 -37.167268,0 -67.297294,-7.9862 -67.297294,-17.83781"
       id="path4425" />
    <g
       id="g4415"
       transform="matrix(2,0,0,2,-69.527023,-994.18653)"
       style="fill:#3465a4;stroke:#3465a4">
      <path
         inkscape:connector-curvature="0"
         style="font-size:medium;font-style:normal;font-variant:normal;font-weight:normal;font-stretch:normal;text-indent:0;text-align:start;text-decoration:none;line-height:normal;letter-spacing:normal;word-spacing:normal;text-transform:none;direction:ltr;block-progression:tb;writing-mode:lr-tb;text-anchor:start;baseline-shift:baseline;color:black;fill:#3465a4;fill-opacity:1;stroke:#3465a4;stroke-width:0.25000000000000000;marker:none;visibility:visible;display:inline;overflow:visible;enable-background:accumulate;font-family:Sans;-inkscape-font-specification:Sans"
         d="M 88.017308,977.608 69.34375,994 c -0.01131,0.009 -0.02178,0.0199 -0.03125,0.0312 -0.01131,0.009 -0.02178,0.0199 -0.03125,0.0312 -0.02104,0.038 -0.03193,0.0816 -0.03125,0.125 0.0022,0.0721 0.03744,0.14247 0.09375,0.1875 0.04287,0.0379 0.09908,0.0604 0.15625,0.0625 0.05717,-0.002 0.113379,-0.0246 0.15625,-0.0625 l 18.66282,-16.38248"
         id="path4429" />
      <path
         style="fill:#3465a4;fill-rule:evenodd;stroke:#3465a4;stroke-width:0.20000000000000001pt;marker-start:none"
         d="m 87.438373,978.45649 -0.09257,1.41118 1.972254,-3.05944 -3.290867,1.55569 1.411181,0.0926 z"
         id="path4421"
         inkscape:connector-curvature="0" />
    </g>
    <path
       inkscape:connector-curvature="0"
       style="fill:none;stroke:#2e3436;stroke-width:0.5;stroke-miterlimit:4"
       d="m 69.527023,1061.4839 c -11.440236,0 -20.71438,-30.1302 -20.71438,-67.29741 0,-37.16728 9.274144,-67.2973 20.71438,-67.2973"
       id="path4477" />
    <path
       style="fill:none;stroke:#2e3436;stroke-width:0.5;stroke-miterlimit:4"
       d="m 69.527024,926.88919 c 25.320293,0 45.846446,30.13002 45.846446,67.29729 0,37.16732 -20.526153,67.29732 -45.846446,67.29732"
       id="path4525"
       inkscape:connector-curvature="0" />
  </g>
</svg>
