<?xml version="1.0" encoding="UTF-8" standalone="no"?>
<!-- Created with Inkscape (http://www.inkscape.org/) -->

<svg
   xmlns:dc="http://purl.org/dc/elements/1.1/"
   xmlns:cc="http://creativecommons.org/ns#"
   xmlns:rdf="http://www.w3.org/1999/02/22-rdf-syntax-ns#"
   xmlns:svg="http://www.w3.org/2000/svg"
   xmlns="http://www.w3.org/2000/svg"
   xmlns:sodipodi="http://sodipodi.sourceforge.net/DTD/sodipodi-0.dtd"
   xmlns:inkscape="http://www.inkscape.org/namespaces/inkscape"
   width="300"
   height="150"
   id="svg3025"
   version="1.1"
   inkscape:version="0.48.2 r9819"
   sodipodi:docname="05work-around-any-closed-curve.pdf">
  <defs
     id="defs3027">
    <marker
       inkscape:stockid="TriangleOutM"
       orient="auto"
       refY="0.0"
       refX="0.0"
       id="TriangleOutM"
       style="overflow:visible">
      <path
         id="path3976"
         d="M 5.77,0.0 L -2.88,5.0 L -2.88,-5.0 L 5.77,0.0 z "
         style="fill-rule:evenodd;stroke:#000000;stroke-width:1.0pt;marker-start:none"
         transform="scale(0.4)" />
    </marker>
    <marker
       inkscape:stockid="EmptyTriangleOutM"
       orient="auto"
       refY="0.0"
       refX="0.0"
       id="EmptyTriangleOutM"
       style="overflow:visible">
      <path
         id="path3994"
         d="M 5.77,0.0 L -2.88,5.0 L -2.88,-5.0 L 5.77,0.0 z "
         style="fill-rule:evenodd;fill:#FFFFFF;stroke:#000000;stroke-width:1.0pt;marker-start:none"
         transform="scale(0.4) translate(-4.5,0)" />
    </marker>
    <marker
       inkscape:stockid="EmptyTriangleOutL"
       orient="auto"
       refY="0.0"
       refX="0.0"
       id="EmptyTriangleOutL"
       style="overflow:visible">
      <path
         id="path3991"
         d="M 5.77,0.0 L -2.88,5.0 L -2.88,-5.0 L 5.77,0.0 z "
         style="fill-rule:evenodd;fill:#FFFFFF;stroke:#000000;stroke-width:1.0pt;marker-start:none"
         transform="scale(0.8) translate(-6,0)" />
    </marker>
    <marker
       inkscape:stockid="Arrow1Send"
       orient="auto"
       refY="0.0"
       refX="0.0"
       id="Arrow1Send"
       style="overflow:visible;">
      <path
         id="path3845"
         d="M 0.0,0.0 L 5.0,-5.0 L -12.5,0.0 L 5.0,5.0 L 0.0,0.0 z "
         style="fill-rule:evenodd;stroke:#000000;stroke-width:1.0pt;marker-start:none;"
         transform="scale(0.2) rotate(180) translate(6,0)" />
    </marker>
    <marker
       inkscape:stockid="Arrow1Mend"
       orient="auto"
       refY="0.0"
       refX="0.0"
       id="Arrow1Mend"
       style="overflow:visible;">
      <path
         id="path3839"
         d="M 0.0,0.0 L 5.0,-5.0 L -12.5,0.0 L 5.0,5.0 L 0.0,0.0 z "
         style="fill-rule:evenodd;stroke:#000000;stroke-width:1.0pt;marker-start:none;"
         transform="scale(0.4) rotate(180) translate(10,0)" />
    </marker>
    <marker
       inkscape:stockid="Arrow2Lend"
       orient="auto"
       refY="0.0"
       refX="0.0"
       id="Arrow2Lend"
       style="overflow:visible;">
      <path
         id="path3851"
         style="font-size:12.0;fill-rule:evenodd;stroke-width:0.62500000;stroke-linejoin:round;"
         d="M 8.7185878,4.0337352 L -2.2072895,0.016013256 L 8.7185884,-4.0017078 C 6.9730900,-1.6296469 6.9831476,1.6157441 8.7185878,4.0337352 z "
         transform="scale(1.1) rotate(180) translate(1,0)" />
    </marker>
    <marker
       inkscape:stockid="Arrow1Lend"
       orient="auto"
       refY="0.0"
       refX="0.0"
       id="Arrow1Lend"
       style="overflow:visible;">
      <path
         id="path3833"
         d="M 0.0,0.0 L 5.0,-5.0 L -12.5,0.0 L 5.0,5.0 L 0.0,0.0 z "
         style="fill-rule:evenodd;stroke:#000000;stroke-width:1.0pt;marker-start:none;"
         transform="scale(0.8) rotate(180) translate(12.5,0)" />
    </marker>
  </defs>
  <sodipodi:namedview
     id="base"
     pagecolor="#ffffff"
     bordercolor="#666666"
     borderopacity="1.0"
     inkscape:pageopacity="0.0"
     inkscape:pageshadow="2"
     inkscape:zoom="3.7166667"
     inkscape:cx="150"
     inkscape:cy="75"
     inkscape:document-units="px"
     inkscape:current-layer="layer1"
     showgrid="false"
     inkscape:window-width="1276"
     inkscape:window-height="756"
     inkscape:window-x="4"
     inkscape:window-y="0"
     inkscape:window-maximized="1" />
  <metadata
     id="metadata3030">
    <rdf:RDF>
      <cc:Work
         rdf:about="">
        <dc:format>image/svg+xml</dc:format>
        <dc:type
           rdf:resource="http://purl.org/dc/dcmitype/StillImage" />
        <dc:title></dc:title>
      </cc:Work>
    </rdf:RDF>
  </metadata>
  <g
     inkscape:label="Layer 1"
     inkscape:groupmode="layer"
     id="layer1"
     transform="translate(0,-902.36218)">
    <g
       id="g6855"
       style="fill:#204a87;stroke:none">
      <path
         style="font-size:medium;font-style:normal;font-variant:normal;font-weight:normal;font-stretch:normal;text-indent:0;text-align:start;text-decoration:none;line-height:normal;letter-spacing:normal;word-spacing:normal;text-transform:none;direction:ltr;block-progression:tb;writing-mode:lr-tb;text-anchor:start;baseline-shift:baseline;color:black;fill:#204a87;fill-opacity:1;stroke:none;stroke-width:1px;marker:none;visibility:visible;display:inline;overflow:visible;enable-background:accumulate;font-family:Sans;-inkscape-font-specification:Sans"
         d="m 220.875,916.70593 c -3.43001,-0.36228 -6.97342,0.12817 -10.3125,1.625 -7.73339,3.46669 -12.45042,10.74409 -16.34375,19.46875 -3.89333,8.72466 -6.96819,18.94666 -11.28125,28.53125 -4.65523,10.34496 -12.04503,18.55335 -20.03125,22.5625 -7.98622,4.00915 -16.52314,3.89129 -23.8125,-2.375 -3.47665,-2.9887 -6.133,-7.07497 -8.0625,-11.59375 5.66159,-1.07066 11.18452,-2.80769 16.5625,-5.3125 7.9277,-3.69235 12.83764,-12.2184 13.0625,-20.125 0.11243,-3.9533 -0.94034,-7.74967 -3.4375,-10.71875 -2.49716,-2.96908 -6.42515,-5.06206 -11.875,-5.59375 -5.72882,-0.55891 -10.20346,1.64666 -13.3125,5.46875 -3.10904,3.82209 -4.88839,9.23335 -5.40625,15.15625 -0.57968,6.62995 0.45904,13.89224 3,20.375 -13.9156,2.35144 -28.7037,-0.11341 -44.84375,-9.90625 -8.462567,-5.13459 -20.602913,-9.24855 -31.09375,-9.875 -5.245419,-0.31322 -10.081664,0.25873 -13.84375,2.0625 -3.762086,1.80377 -6.454995,4.88622 -7.21875,9.46875 -2.489834,14.939 -1.011434,25.63667 3.4375,33.90625 4.448934,8.26957 11.858925,14.07207 21.09375,19.31247 18.522058,10.5105 42.117154,13.0971 67,13.9063 32.13654,1.0451 61.47784,-2.815 85.59375,-17.8438 9.03776,-5.6322 16.51718,-11.975 21.78125,-23.06247 5.26407,-11.08745 8.32683,-26.87752 8.71875,-51.4375 0.22288,-13.96733 -9.08496,-22.91315 -19.375,-24 z m -0.0625,0.96875 c 9.80027,1.00614 18.65326,9.51033 18.4375,23.03125 -0.39069,24.4835 -3.45429,40.14044 -8.625,51.03125 -5.17071,10.89082 -12.44402,17.03982 -21.40625,22.62502 -23.87163,14.8765 -52.99387,18.7293 -85.03125,17.6875 -24.834252,-0.8076 -48.297308,-3.4165 -66.5625,-13.7813 -9.158799,-5.1972 -16.365275,-10.8722 -20.6875,-18.90622 -4.322225,-8.03406 -5.779188,-18.48112 -3.3125,-33.28125 0.714593,-4.28756 3.124684,-7.02551 6.65625,-8.71875 3.531566,-1.69324 8.206456,-2.27552 13.34375,-1.96875 10.274589,0.61353 22.323357,4.71305 30.625,9.75 16.39149,9.9454 31.53804,12.37654 45.75,9.9375 1.98767,4.73491 4.78354,9.01952 8.46875,12.1875 7.58021,6.51631 16.65334,6.64303 24.90625,2.5 8.25291,-4.14303 15.73268,-12.50665 20.46875,-23.03125 4.34952,-9.66561 7.42718,-19.89455 11.28125,-28.53125 3.85407,-8.6367 8.47795,-15.62158 15.875,-18.9375 3.17681,-1.42409 6.54574,-1.92913 9.8125,-1.59375 z m -75.5625,16.5 c 5.2458,0.51178 8.87173,2.46535 11.1875,5.21875 2.31577,2.7534 3.32555,6.33863 3.21875,10.09375 -0.21359,7.51023 -4.93286,15.70888 -12.46875,19.21875 -5.37553,2.50367 -10.89346,4.25874 -16.53125,5.3125 -2.54444,-6.38561 -3.60367,-13.60931 -3.03125,-20.15625 0.50515,-5.77757 2.25344,-10.98678 5.1875,-14.59375 2.93406,-3.60697 7.00722,-5.62353 12.4375,-5.09375 z"
         id="path3033"
         inkscape:connector-curvature="0" />
      <path
         style="fill-rule:evenodd;stroke:none;stroke-width:0.40000000000000002pt;marker-start:none;fill:#204a87"
         d="m 126.48069,1032.6111 -3.52318,1.8865 0.13002,-3.9979 3.39316,2.1114 z"
         id="path6859"
         inkscape:connector-curvature="0" />
      <path
         style="fill-rule:evenodd;stroke:none;stroke-width:0.40000000000000002pt;marker-start:none;fill:#204a87"
         d="m 211.43704,1013.5763 -1.87867,3.5273 -2.11558,-3.3947 3.99425,-0.1326 z"
         id="path6861"
         inkscape:connector-curvature="0" />
      <path
         style="fill-rule:evenodd;stroke:none;stroke-width:0.40000000000000002pt;marker-start:none;fill:#204a87"
         d="m 239.77596,938.4023 1.94453,3.49147 -3.99949,-0.0638 2.05496,-3.42765 z"
         id="path6863"
         inkscape:connector-curvature="0" />
      <path
         style="fill-rule:evenodd;stroke:none;stroke-width:0.40000000000000002pt;marker-start:none;fill:#204a87"
         d="m 208.67654,919.74106 2.33917,-3.24035 1.63622,3.65004 -3.97539,-0.40969 z"
         id="path6865"
         inkscape:connector-curvature="0" />
      <path
         style="fill-rule:evenodd;stroke:none;stroke-width:0.40000000000000002pt;marker-start:none;fill:#204a87"
         d="m 182.44418,968.64081 -0.40398,-3.97598 3.64768,1.64146 -3.2437,2.33452 z"
         id="path6867"
         inkscape:connector-curvature="0" />
      <path
         style="fill-rule:evenodd;stroke:none;stroke-width:0.40000000000000002pt;marker-start:none;fill:#204a87"
         d="m 137.03241,985.37937 3.92755,0.73889 -2.60754,3.03327 -1.32001,-3.77216 z"
         id="path6869"
         inkscape:connector-curvature="0" />
      <path
         style="fill-rule:evenodd;stroke:none;stroke-width:0.40000000000000002pt;marker-start:none;fill:#204a87"
         d="m 147.60144,933.89063 -3.63785,1.65459 0.3884,-3.9811 3.24945,2.32651 z"
         id="path6871"
         inkscape:connector-curvature="0" />
      <path
         style="fill-rule:evenodd;stroke:none;stroke-width:0.40000000000000002pt;marker-start:none;fill:#204a87"
         d="m 145.2991,970.11924 2.29208,-3.27383 1.68882,3.626 -3.9809,-0.35217 z"
         id="path6873"
         inkscape:connector-curvature="0" />
      <path
         style="fill-rule:evenodd;stroke:none;stroke-width:0.40000000000000002pt;marker-start:none;fill:#204a87"
         d="m 82.548538,963.51278 3.995546,0.0849 -2.074909,3.41976 -1.920637,-3.50468 z"
         id="path6875"
         inkscape:connector-curvature="0" />
      <path
         style="fill-rule:evenodd;stroke:none;stroke-width:0.40000000000000002pt;marker-start:none;fill:#204a87"
         d="m 32.751002,968.29095 -1.403967,-3.74172 3.945575,0.6576 -2.541608,3.08412 z"
         id="path6877"
         inkscape:connector-curvature="0" />
      <path
         style="fill-rule:evenodd;stroke:none;stroke-width:0.40000000000000002pt;marker-start:none;fill:#204a87"
         d="m 59.622871,1019.2991 -3.855854,1.0507 1.020875,-3.8676 2.834979,2.8169 z"
         id="path6879"
         inkscape:connector-curvature="0" />
    </g>
    <g
       id="g5201"
       style="fill:#c00;stroke:none">
      <path
         style="font-size:medium;font-style:normal;font-variant:normal;font-weight:normal;font-stretch:normal;text-indent:0;text-align:start;text-decoration:none;line-height:normal;letter-spacing:normal;word-spacing:normal;text-transform:none;direction:ltr;block-progression:tb;writing-mode:lr-tb;text-anchor:start;baseline-shift:baseline;color:black;fill:#c00;fill-opacity:1;stroke:none;stroke-width:0.50000000000000000;marker:none;visibility:visible;display:inline;overflow:visible;enable-background:accumulate;font-family:Sans;-inkscape-font-specification:Sans"
         d="M 116.78125,1008.5497 74,1025.5184 l 0.1875,0.4688 42.78125,-16.9688 -0.1875,-0.4687 z"
         id="path3035"
         inkscape:connector-curvature="0" />
      <path
         style="fill-rule:evenodd;stroke:none;stroke-width:0.40000000000000002pt;marker-start:none;fill:#c00"
         d="m 115.01028,1009.5339 -0.56119,1.2981 2.8853,-2.2193 -3.62221,0.36 1.2981,0.5612 z"
         id="path5207"
         inkscape:connector-curvature="0" />
    </g>
    <g
       id="g5209"
       style="fill:#c00;stroke:none">
      <path
         style="font-size:medium;font-style:normal;font-variant:normal;font-weight:normal;font-stretch:normal;text-indent:0;text-align:start;text-decoration:none;line-height:normal;letter-spacing:normal;word-spacing:normal;text-transform:none;direction:ltr;block-progression:tb;writing-mode:lr-tb;text-anchor:start;baseline-shift:baseline;color:black;fill:#c00;fill-opacity:1;stroke:none;stroke-width:0.50000000000000000;marker:none;visibility:visible;display:inline;overflow:visible;enable-background:accumulate;font-family:Sans;-inkscape-font-specification:Sans"
         d="m 161,1007.3622 -15.90625,24.7812 0.40625,0.2813 15.9375,-24.8125 -0.4375,-0.25 z"
         id="path3037"
         inkscape:connector-curvature="0" />
      <path
         style="fill-rule:evenodd;stroke:none;stroke-width:0.40000000000000002pt;marker-start:none;fill:#c00"
         d="m 160.13677,1009.1755 0.30116,1.3818 1.04961,-3.4854 -2.73255,2.4048 1.38178,-0.3012 z"
         id="path5215"
         inkscape:connector-curvature="0" />
    </g>
    <g
       id="g5217"
       style="fill:#c00;stroke:none">
      <path
         style="font-size:medium;font-style:normal;font-variant:normal;font-weight:normal;font-stretch:normal;text-indent:0;text-align:start;text-decoration:none;line-height:normal;letter-spacing:normal;word-spacing:normal;text-transform:none;direction:ltr;block-progression:tb;writing-mode:lr-tb;text-anchor:start;baseline-shift:baseline;color:black;fill:#c00;fill-opacity:1;stroke:none;stroke-width:0.50000000000000000;marker:none;visibility:visible;display:inline;overflow:visible;enable-background:accumulate;font-family:Sans;-inkscape-font-specification:Sans"
         d="m 204.53125,986.04968 -5.71875,34.18752 0.46875,0.094 5.75,-34.18747 -0.5,-0.0937 z"
         id="path3039"
         inkscape:connector-curvature="0" />
      <path
         style="fill-rule:evenodd;stroke:none;stroke-width:0.40000000000000002pt;marker-start:none;fill:#c00"
         d="m 204.45137,988.07369 0.82057,1.15181 -0.40652,-3.61728 -1.56586,3.28604 1.15181,-0.82057 z"
         id="path5223"
         inkscape:connector-curvature="0" />
    </g>
    <g
       id="g5225"
       style="fill:#c00;stroke:none">
      <path
         style="font-size:medium;font-style:normal;font-variant:normal;font-weight:normal;font-stretch:normal;text-indent:0;text-align:start;text-decoration:none;line-height:normal;letter-spacing:normal;word-spacing:normal;text-transform:none;direction:ltr;block-progression:tb;writing-mode:lr-tb;text-anchor:start;baseline-shift:baseline;color:black;fill:#c00;fill-opacity:1;stroke:none;stroke-width:0.50000000000000000;marker:none;visibility:visible;display:inline;overflow:visible;enable-background:accumulate;font-family:Sans;-inkscape-font-specification:Sans"
         d="m 243.15625,942.23718 -6.84375,32.6875 0.5,0.0937 6.8125,-32.6875 -0.46875,-0.0937 z"
         id="path3041"
         inkscape:connector-curvature="0" />
      <path
         style="fill-rule:evenodd;stroke:none;stroke-width:0.40000000000000002pt;marker-start:none;fill:#c00"
         d="m 242.982,944.23289 0.77419,1.18349 -0.26257,-3.63057 -1.6951,3.22127 1.18348,-0.77419 z"
         id="path5231"
         inkscape:connector-curvature="0" />
    </g>
    <g
       id="g5233"
       style="fill:#c00;stroke:none">
      <path
         style="font-size:medium;font-style:normal;font-variant:normal;font-weight:normal;font-stretch:normal;text-indent:0;text-align:start;text-decoration:none;line-height:normal;letter-spacing:normal;word-spacing:normal;text-transform:none;direction:ltr;block-progression:tb;writing-mode:lr-tb;text-anchor:start;baseline-shift:baseline;color:black;fill:#c00;fill-opacity:1;stroke:none;stroke-width:0.50000000000000000;marker:none;visibility:visible;display:inline;overflow:visible;enable-background:accumulate;font-family:Sans;-inkscape-font-specification:Sans"
         d="m 245.84375,901.73718 -12.15625,22.5 0.4375,0.21875 12.15625,-22.5 -0.4375,-0.21875 z"
         id="path3043"
         inkscape:connector-curvature="0" />
      <path
         style="fill-rule:evenodd;stroke:none;stroke-width:0.40000000000000002pt;marker-start:none;fill:#c00"
         d="m 245.12152,903.59975 0.40373,1.35537 0.78582,-3.55422 -2.54491,2.60258 1.35536,-0.40373 z"
         id="path5239"
         inkscape:connector-curvature="0" />
    </g>
    <g
       id="g5241"
       style="fill:#c00;stroke:none">
      <path
         style="font-size:medium;font-style:normal;font-variant:normal;font-weight:normal;font-stretch:normal;text-indent:0;text-align:start;text-decoration:none;line-height:normal;letter-spacing:normal;word-spacing:normal;text-transform:none;direction:ltr;block-progression:tb;writing-mode:lr-tb;text-anchor:start;baseline-shift:baseline;color:black;fill:#c00;fill-opacity:1;stroke:none;stroke-width:0.50000000000000000;marker:none;visibility:visible;display:inline;overflow:visible;enable-background:accumulate;font-family:Sans;-inkscape-font-specification:Sans"
         d="M 211.59375,929.33093 188.5,952.79968 l 0.34375,0.375 23.09375,-23.5 -0.34375,-0.34375 z"
         id="path3045"
         inkscape:connector-curvature="0" />
      <path
         style="fill-rule:evenodd;stroke:none;stroke-width:0.40000000000000002pt;marker-start:none;fill:#c00"
         d="m 210.36063,930.93591 0.0117,1.41417 1.74142,-3.19648 -3.16727,1.794 1.41417,-0.0117 z"
         id="path5247"
         inkscape:connector-curvature="0" />
    </g>
    <g
       id="g5249"
       style="fill:#c00;stroke:none">
      <path
         style="font-size:medium;font-style:normal;font-variant:normal;font-weight:normal;font-stretch:normal;text-indent:0;text-align:start;text-decoration:none;line-height:normal;letter-spacing:normal;word-spacing:normal;text-transform:none;direction:ltr;block-progression:tb;writing-mode:lr-tb;text-anchor:start;baseline-shift:baseline;color:black;fill:#c00;fill-opacity:1;stroke:none;stroke-width:0.50000000000000000;marker:none;visibility:visible;display:inline;overflow:visible;enable-background:accumulate;font-family:Sans;-inkscape-font-specification:Sans"
         d="M 171.78125,972.11218 147,991.14343 l 0.3125,0.40625 24.75,-19.03125 -0.28125,-0.40625 z"
         id="path3047"
         inkscape:connector-curvature="0" />
      <path
         style="fill-rule:evenodd;stroke:none;stroke-width:0.40000000000000002pt;marker-start:none;fill:#c00"
         d="m 170.33415,973.5251 -0.18266,1.40237 2.16395,-2.927 -3.38366,1.34197 1.40237,0.18266 z"
         id="path5255"
         inkscape:connector-curvature="0" />
    </g>
    <g
       id="g5257"
       style="fill:#c00;stroke:none">
      <path
         style="font-size:medium;font-style:normal;font-variant:normal;font-weight:normal;font-stretch:normal;text-indent:0;text-align:start;text-decoration:none;line-height:normal;letter-spacing:normal;word-spacing:normal;text-transform:none;direction:ltr;block-progression:tb;writing-mode:lr-tb;text-anchor:start;baseline-shift:baseline;color:black;fill:#c00;fill-opacity:1;stroke:none;stroke-width:0.50000000000000000;marker:none;visibility:visible;display:inline;overflow:visible;enable-background:accumulate;font-family:Sans;-inkscape-font-specification:Sans"
         d="m 184.6875,937.79968 -27.34375,21.5 0.28125,0.40625 27.375,-21.5 -0.3125,-0.40625 z"
         id="path3049"
         inkscape:connector-curvature="0" />
      <path
         style="fill-rule:evenodd;stroke:none;stroke-width:0.40000000000000002pt;marker-start:none;fill:#c00"
         d="m 183.2597,939.23197 -0.16762,1.40424 2.13245,-2.95002 -3.36908,1.37816 1.40425,0.16762 z"
         id="path5263"
         inkscape:connector-curvature="0" />
    </g>
    <g
       id="g5265"
       style="fill:#c00;stroke:none">
      <path
         style="font-size:medium;font-style:normal;font-variant:normal;font-weight:normal;font-stretch:normal;text-indent:0;text-align:start;text-decoration:none;line-height:normal;letter-spacing:normal;word-spacing:normal;text-transform:none;direction:ltr;block-progression:tb;writing-mode:lr-tb;text-anchor:start;baseline-shift:baseline;color:black;fill:#c00;fill-opacity:1;stroke:none;stroke-width:0.50000000000000000;marker:none;visibility:visible;display:inline;overflow:visible;enable-background:accumulate;font-family:Sans;-inkscape-font-specification:Sans"
         d="m 164.03125,919.70593 -35.46875,26.6875 0.3125,0.40625 35.4375,-26.6875 -0.28125,-0.40625 z"
         id="path3051"
         inkscape:connector-curvature="0" />
      <path
         style="fill-rule:evenodd;stroke:none;stroke-width:0.40000000000000002pt;marker-start:none;fill:#c00"
         d="m 162.57378,921.12071 -0.19762,1.40034 2.19508,-2.90372 -3.39779,1.30576 1.40033,0.19762 z"
         id="path5271"
         inkscape:connector-curvature="0" />
    </g>
    <g
       id="g5273"
       style="fill:#c00;stroke:none">
      <path
         style="font-size:medium;font-style:normal;font-variant:normal;font-weight:normal;font-stretch:normal;text-indent:0;text-align:start;text-decoration:none;line-height:normal;letter-spacing:normal;word-spacing:normal;text-transform:none;direction:ltr;block-progression:tb;writing-mode:lr-tb;text-anchor:start;baseline-shift:baseline;color:black;fill:#c00;fill-opacity:1;stroke:none;stroke-width:0.50000000000000000;marker:none;visibility:visible;display:inline;overflow:visible;enable-background:accumulate;font-family:Sans;-inkscape-font-specification:Sans"
         d="m 120.53125,939.23718 -40.96875,22.15625 0.25,0.4375 40.9375,-22.125 -0.21875,-0.46875 z"
         id="path3053"
         inkscape:connector-curvature="0" />
      <path
         style="fill-rule:evenodd;stroke:none;stroke-width:0.40000000000000002pt;marker-start:none;fill:#c00"
         d="m 118.87916,940.42208 -0.40419,1.35522 2.60345,-2.54401 -3.55449,0.7846 1.35523,0.40419 z"
         id="path5279"
         inkscape:connector-curvature="0" />
    </g>
    <g
       id="g5281"
       style="fill:#c00;stroke:none">
      <path
         style="font-size:medium;font-style:normal;font-variant:normal;font-weight:normal;font-stretch:normal;text-indent:0;text-align:start;text-decoration:none;line-height:normal;letter-spacing:normal;word-spacing:normal;text-transform:none;direction:ltr;block-progression:tb;writing-mode:lr-tb;text-anchor:start;baseline-shift:baseline;color:black;fill:#c00;fill-opacity:1;stroke:none;stroke-width:0.50000000000000000;marker:none;visibility:visible;display:inline;overflow:visible;enable-background:accumulate;font-family:Sans;-inkscape-font-specification:Sans"
         d="m 77.3125,935.58093 -44.9375,37.03125 0.3125,0.375 44.9375,-37 -0.3125,-0.40625 z"
         id="path3055"
         inkscape:connector-curvature="0" />
      <path
         style="fill-rule:evenodd;stroke:none;stroke-width:0.40000000000000002pt;marker-start:none;fill:#c00"
         d="m 75.930479,937.05325 -0.136188,1.40764 2.065974,-2.99696 -3.337427,1.45313 1.407641,0.13619 z"
         id="path5287"
         inkscape:connector-curvature="0" />
    </g>
    <g
       id="g5289"
       style="fill:#c00;stroke:none">
      <path
         style="font-size:medium;font-style:normal;font-variant:normal;font-weight:normal;font-stretch:normal;text-indent:0;text-align:start;text-decoration:none;line-height:normal;letter-spacing:normal;word-spacing:normal;text-transform:none;direction:ltr;block-progression:tb;writing-mode:lr-tb;text-anchor:start;baseline-shift:baseline;color:black;fill:#c00;fill-opacity:1;stroke:none;stroke-width:0.50000000000000000;marker:none;visibility:visible;display:inline;overflow:visible;enable-background:accumulate;font-family:Sans;-inkscape-font-specification:Sans"
         d="m 87.71875,987.92468 -46.0625,18.34372 0.1875,0.4688 46.0625,-18.34377 -0.1875,-0.46875 z"
         id="path3057"
         inkscape:connector-curvature="0" />
      <path
         style="fill-rule:evenodd;stroke:none;stroke-width:0.40000000000000002pt;marker-start:none;fill:#c00"
         d="m 85.945823,988.90835 -0.55961,1.29879 2.882601,-2.22275 -3.621774,0.36435 1.298783,0.55961 z"
         id="path5295"
         inkscape:connector-curvature="0" />
    </g>
    <text
       xml:space="preserve"
       style="font-size:12px;font-style:normal;font-variant:normal;font-weight:normal;font-stretch:normal;text-align:start;line-height:125%;letter-spacing:0px;word-spacing:0px;writing-mode:lr-tb;text-anchor:start;fill:#204a87;fill-opacity:1;stroke:none;font-family:Linux Libertine O;-inkscape-font-specification:Linux Libertine O"
       x="225.75377"
       y="107.41206"
       id="text7059"
       sodipodi:linespacing="125%"
       transform="translate(0,902.36218)"><tspan
         sodipodi:role="line"
         id="tspan7061"
         x="225.75377"
         y="107.41206">$\cC$</tspan></text>
    <text
       sodipodi:linespacing="125%"
       id="text7063"
       y="983.77417"
       x="197.75377"
       style="font-size:12px;font-style:normal;font-variant:normal;font-weight:normal;font-stretch:normal;text-align:start;line-height:125%;letter-spacing:0px;word-spacing:0px;writing-mode:lr-tb;text-anchor:start;fill:#a40000;fill-opacity:1;stroke:none;font-family:Linux Libertine O;-inkscape-font-specification:Linux Libertine O"
       xml:space="preserve"><tspan
         y="983.77417"
         x="197.75377"
         id="tspan7065"
         sodipodi:role="line">$\vF$</tspan></text>
    <path
       sodipodi:type="arc"
       style="fill:#eeeeec;stroke:#5c3566"
       id="path7067"
       sodipodi:cx="94.409546"
       sodipodi:cy="130.96733"
       sodipodi:rx="2"
       sodipodi:ry="2"
       d="m 96.409546,130.96733 c 0,1.10457 -0.895431,2 -2,2 -1.10457,0 -2,-0.89543 -2,-2 0,-1.10457 0.89543,-2 2,-2 1.104569,0 2,0.89543 2,2 z"
       transform="translate(0.36287857,899.36238)" />
    <text
       xml:space="preserve"
       style="font-size:12px;font-style:normal;font-variant:normal;font-weight:normal;font-stretch:normal;line-height:125%;letter-spacing:0px;word-spacing:0px;fill:black;fill-opacity:1;stroke:none;font-family:Lucida Blackletter;-inkscape-font-specification:Lucida Blackletter"
       x="78.565025"
       y="140.04485"
       id="text3050"
       sodipodi:linespacing="125%"
       transform="translate(0,902.36218)"><tspan
         sodipodi:role="line"
         id="tspan3052"
         x="78.565025"
         y="140.04485"
         style="-inkscape-font-specification:Linux Libertine O;font-family:Linux Libertine O;font-weight:normal;font-style:normal;font-stretch:normal;font-variant:normal">$P$</tspan></text>
  </g>
</svg>
