<?xml version="1.0" encoding="UTF-8" standalone="no"?>
<!-- Created with Inkscape (http://www.inkscape.org/) -->
<svg
   xmlns:dc="http://purl.org/dc/elements/1.1/"
   xmlns:cc="http://creativecommons.org/ns#"
   xmlns:rdf="http://www.w3.org/1999/02/22-rdf-syntax-ns#"
   xmlns:svg="http://www.w3.org/2000/svg"
   xmlns="http://www.w3.org/2000/svg"
   xmlns:xlink="http://www.w3.org/1999/xlink"
   xmlns:sodipodi="http://sodipodi.sourceforge.net/DTD/sodipodi-0.dtd"
   xmlns:inkscape="http://www.inkscape.org/namespaces/inkscape"
   width="407.18939"
   height="348.53152"
   id="svg3582"
   sodipodi:version="0.32"
   inkscape:version="0.46"
   sodipodi:docname="234logo2009f.svg"
   inkscape:output_extension="org.inkscape.output.svg.inkscape"
   version="1.0">
  <sodipodi:namedview
     id="base"
     pagecolor="#ffffff"
     bordercolor="#666666"
     borderopacity="1.0"
     gridtolerance="10000"
     guidetolerance="10"
     objecttolerance="10"
     inkscape:pageopacity="0.0"
     inkscape:pageshadow="2"
     inkscape:zoom="1.4"
     inkscape:cx="348.16776"
     inkscape:cy="174.00061"
     inkscape:document-units="px"
     inkscape:current-layer="g9362"
     showgrid="false"
     inkscape:window-width="1234"
     inkscape:window-height="755"
     inkscape:window-x="0"
     inkscape:window-y="0" />
  <defs
     id="defs3584">
    <linearGradient
       inkscape:collect="always"
       id="linearGradient9332">
      <stop
         style="stop-color:#000080;stop-opacity:1;"
         offset="0"
         id="stop9334" />
      <stop
         style="stop-color:#000080;stop-opacity:0;"
         offset="1"
         id="stop9336" />
    </linearGradient>
    <inkscape:path-effect
       bendpath-nodetypes="cc"
       prop_scale="1"
       bendpath="M 395.195,638.501 C 455.53759,641.29821 518.64962,644.78777 594.08486,651.35814"
       id="path-effect9207"
       effect="bend_path" />
    <inkscape:path-effect
       prop_scale="1"
       bendpath="M 395.195,638.501 L 581.942,638.501 "
       id="path-effect9205"
       effect="bend_path" />
    <inkscape:perspective
       id="perspective3590"
       inkscape:persp3d-origin="372.04724 : 350.78739 : 1"
       inkscape:vp_z="744.09448 : 526.18109 : 1"
       inkscape:vp_y="0 : 1000 : 0"
       inkscape:vp_x="0 : 526.18109 : 1"
       sodipodi:type="inkscape:persp3d" />
    <linearGradient
       inkscape:collect="always"
       xlink:href="#linearGradient9332"
       id="linearGradient9338"
       x1="303.26077"
       y1="540.27655"
       x2="544.42676"
       y2="540.27655"
       gradientUnits="userSpaceOnUse" />
    <linearGradient
       inkscape:collect="always"
       xlink:href="#linearGradient9332"
       id="linearGradient9376"
       gradientUnits="userSpaceOnUse"
       x1="303.26077"
       y1="540.27655"
       x2="544.42676"
       y2="540.27655" />
  </defs>
  <metadata
     id="metadata3587">
    <rdf:RDF>
      <cc:Work
         rdf:about="">
        <dc:format>image/svg+xml</dc:format>
        <dc:type
           rdf:resource="http://purl.org/dc/dcmitype/StillImage" />
      </cc:Work>
    </rdf:RDF>
  </metadata>
  <g
     id="layer1"
     inkscape:groupmode="layer"
     inkscape:label="Layer 1"
     transform="translate(-172.8342,-326.01076)">
    <g
       id="g9362"
       transform="translate(-124,-40)">
      <path
         d="M 305.36579,602.64977 C 306.98634,602.408 308.61871,602.27506 310.25413,602.1916 C 311.97461,602.02393 313.66308,602.42761 315.36607,602.61748 C 317.30229,602.65077 319.16201,603.13972 321.03156,603.58846 C 323.15247,604.03536 325.30817,604.23845 327.41573,604.75559 C 329.89784,605.3053 332.43147,605.54943 334.9447,605.91559 C 337.26369,606.26393 339.55141,606.73905 341.88913,606.97132 C 344.13713,607.04395 346.30789,607.64179 348.49788,608.0884 C 350.41482,608.3247 352.3096,608.67484 354.22196,608.94512 C 356.16504,609.48715 358.15959,609.74841 360.16586,609.89968 C 362.29728,609.91988 364.34864,610.51617 366.41853,610.9467 C 368.55205,611.23356 370.66553,611.64104 372.80352,611.90177 C 374.42998,612.08889 376.06758,612.12061 377.70286,612.13438 C 379.48063,612.2234 381.24158,612.55174 383.02023,612.7043 C 384.72838,612.90577 386.46724,612.69556 388.16138,612.98181 C 389.61946,613.31652 391.1118,613.43415 392.60196,613.50882 C 394.39312,613.58177 396.18613,613.58015 397.97843,613.5754 C 399.67848,613.56343 401.37853,613.5646 403.07858,613.57443 C 405.05951,613.41715 406.96025,613.85333 408.86835,614.30825 C 411.20947,614.91851 413.6101,615.20283 415.98233,615.6492 C 418.67893,616.04153 421.34875,616.57191 424.0585,616.87305 C 426.69912,617.23668 429.31652,617.72779 431.9482,618.14516 C 434.41299,618.33495 436.82703,618.82816 439.24781,619.30229 C 442.1244,620.07075 445.08343,620.44675 448.02675,620.85773 C 451.57947,621.63948 455.17137,622.15436 458.76235,622.71729 C 462.52611,623.52157 466.32486,624.11619 470.11843,624.75257 C 473.65156,625.42274 477.21841,625.84828 480.77464,626.36398 C 484.3099,626.78012 487.79576,627.51215 491.31379,628.0414 C 494.87885,628.62856 498.42742,629.30827 501.98791,629.92217 C 505.8094,630.40814 509.56714,631.27059 513.34997,631.98054 C 517.46331,632.47547 521.47194,633.53042 525.54493,634.24848 C 529.35676,634.94208 533.17924,635.60026 536.90423,636.67902 C 540.42306,637.82513 544.05674,638.50036 547.64584,639.37095 C 551.20769,640.19807 554.79749,640.87574 558.40522,641.46798 C 562.1956,642.223 566.01895,642.76874 569.83604,643.36159 C 573.82423,644.14534 577.83438,644.78957 581.84163,645.46194 C 585.79414,646.05695 589.68517,646.94039 593.6531,647.44048 C 597.36025,647.82198 600.97454,648.72034 604.64059,649.34253 C 608.16187,649.80105 611.67946,650.30659 615.15355,651.04717 C 618.13671,651.5754 621.13325,652.0488 624.13446,652.46879 C 626.54225,653.06882 629.02352,653.20534 631.46215,653.60098 C 634.045,654.09193 636.62128,654.56011 639.24122,654.81 C 642.2073,655.18829 645.09015,656.00502 648.02372,656.55773 C 650.74108,656.84385 653.41845,657.33651 656.09473,657.87399 C 658.52964,658.37256 660.95395,658.861 663.43009,659.11186 C 665.63767,659.39704 667.80362,659.88328 669.98858,660.29247 C 672.0546,660.51717 674.08653,660.94665 676.15041,661.19158 C 677.79569,661.22524 679.37659,661.49167 680.98109,661.81678 C 682.29766,662.12234 683.5772,662.51348 684.92606,662.69119 C 686.53655,662.89113 688.11888,663.25126 689.73825,663.41983 C 691.11941,663.3898 692.4188,663.83632 693.76589,664.05977 C 695.12945,664.10553 696.43406,664.41992 697.76851,664.66741 C 699.28494,665.00855 700.77784,665.37241 702.33033,665.54757 C 703.40917,665.63411 702.87241,665.59813 703.94059,665.65598 L 695.40452,671.76667 C 694.31873,671.67297 694.86483,671.72782 693.76628,671.60142 C 692.20677,671.37085 690.68889,670.97764 689.14059,670.69126 C 687.8063,670.4307 686.46536,670.29348 685.1209,670.10118 C 683.80994,669.83225 682.51213,669.54052 681.16753,669.48997 C 679.54532,669.26536 677.94527,668.90733 676.31436,668.74458 C 674.97054,668.4995 673.67222,668.08493 672.3297,667.83522 C 670.77461,667.50324 669.20533,667.38591 667.62551,667.21783 C 665.5532,666.92308 663.49212,666.55448 661.41936,666.26555 C 659.27489,665.81619 657.12553,665.39003 654.94823,665.12784 C 652.47153,664.8124 650.03709,664.27976 647.58935,663.79727 C 644.9287,663.25277 642.24625,662.86183 639.56144,662.45961 C 636.64992,661.86956 633.7706,661.07167 630.80114,660.8087 C 628.16936,660.50955 625.57596,659.99319 622.95994,659.58637 C 620.52289,659.2497 618.08306,658.95163 615.67513,658.42869 C 612.68177,657.9703 609.69273,657.46691 606.71527,656.91625 C 603.2572,656.20857 599.76946,655.67271 596.2711,655.20577 C 592.6288,654.55691 589.02208,653.71881 585.33777,653.31555 C 581.37231,652.7609 577.46446,651.8902 573.50255,651.31134 C 569.50188,650.64002 565.51146,649.92332 561.51672,649.217 C 557.67843,648.65095 553.84807,648.04349 550.03154,647.34246 C 546.41346,646.72722 542.81734,646.01486 539.24263,645.18207 C 535.63849,644.34604 532.02159,643.57429 528.49109,642.45075 C 524.7744,641.46846 520.99932,640.76235 517.21935,640.07139 C 513.14375,639.30717 509.11137,638.3185 504.98817,637.81668 C 501.21134,637.07523 497.43968,636.29487 493.62329,635.78025 C 490.05888,635.14434 486.49262,634.52049 482.91859,633.94132 C 479.4173,633.35701 475.93096,632.67078 472.40098,632.27197 C 468.84723,631.79442 465.30916,631.24463 461.78078,630.60423 C 457.97621,629.98621 454.18194,629.31906 450.39474,628.60131 C 446.79885,628.04463 443.21859,627.42946 439.64028,626.77465 C 436.65955,626.35746 433.67303,625.97628 430.75108,625.23064 C 428.32881,624.7671 425.89506,624.40503 423.44665,624.10948 C 420.84354,623.65295 418.24333,623.19027 415.62106,622.85206 C 412.89718,622.50784 410.20114,621.98926 407.48376,621.59847 C 405.07372,621.19653 402.6653,620.79909 400.28178,620.25485 C 398.41159,619.84016 396.53665,619.6108 394.61511,619.72441 C 392.91135,619.73644 391.20756,619.74339 389.50378,619.73028 C 387.68918,619.71894 385.87328,619.72305 384.06048,619.63213 C 382.55593,619.51663 381.06202,619.32383 379.5769,619.05438 C 377.88326,618.91919 376.17663,618.98115 374.48656,618.77894 C 372.72306,618.58748 370.96388,618.27339 369.18499,618.30062 C 367.54253,618.258 365.89984,618.17101 364.27335,617.92467 C 362.12541,617.60165 359.9797,617.25575 357.83693,616.90522 C 355.80339,616.44405 353.76295,615.99926 351.66675,615.96269 C 349.65243,615.7648 347.66744,615.40297 345.69387,614.95585 C 343.76841,614.67103 341.8368,614.41015 339.92578,614.04431 C 337.7676,613.56019 335.60255,613.09797 333.38385,613.00311 C 331.06876,612.7003 328.78729,612.22094 326.47825,611.88338 C 323.93287,611.51975 321.36809,611.26438 318.85898,610.68286 C 316.73192,610.23227 314.5605,610.05793 312.4505,609.52398 C 310.59795,609.09389 308.73014,608.78984 306.82974,608.6722 C 305.15785,608.47634 303.492,608.20908 301.8037,608.40777 C 300.16392,608.51828 298.52092,608.67112 296.91719,609.04657 L 305.36579,602.64977 z"
         id="path9275"
         style="opacity:1;fill:#007f00;fill-opacity:1;fill-rule:nonzero;stroke:#000000;stroke-width:0.00184426in;stroke-linecap:round;stroke-linejoin:miter;marker:none;marker-start:none;marker-mid:none;marker-end:none;stroke-miterlimit:4;stroke-dasharray:none;stroke-dashoffset:0;stroke-opacity:1;visibility:visible;display:inline;overflow:visible;enable-background:accumulate" />
      <path
         id="path9195"
         d="M 400.4375,366.09375 C 394.71698,366.68117 390.38187,372.19946 390.625,377.84375 C 393.42155,415.2216 390.06008,466.19823 393.28125,490.09375 C 396.09798,510.98905 397.37709,570.91386 397.65625,618.6875 C 391.10448,623.63934 384.54315,628.56847 377.90625,633.40625 C 370.81836,638.66356 363.81088,644.03241 356.625,649.15625 C 350.11914,653.91228 343.69384,658.75608 337.34375,663.71875 C 332.57736,667.19267 327.83207,670.74577 323.28125,674.5 C 320.04237,677.17542 316.84068,679.86094 314,682.96875 C 311.99131,685.11273 310.0465,687.40052 307.625,689.09375 C 306.74537,689.69349 306.16324,690.08523 305.9375,690.25 C 306.21332,690.10798 308.52443,688.76119 310.46875,687.625 L 303.34375,693.375 C 308.18252,691.06205 312.82293,688.31041 317.25,685.28125 C 319.54514,683.43388 321.45451,681.14325 323.46875,679 C 326.23748,675.93502 329.46259,673.35596 332.625,670.71875 C 337.10687,667.02237 341.74397,663.51544 346.4375,660.09375 C 352.65336,655.10815 359.04465,650.36791 365.46875,645.65625 C 370.35397,642.32472 374.98368,638.59681 379.71875,635.0625 C 382.05769,633.31671 384.41025,631.61973 386.75,629.875 C 390.40362,627.22319 394.04199,624.54829 397.65625,621.84375 C 397.68443,627.53309 397.71811,633.13169 397.71875,638.34375 C 395.9646,656.73909 399.28864,674.98839 402.6875,693 C 402.43731,700.25308 404.08133,723.54915 414.71875,710.625 C 412.81624,695.79355 410.94034,680.9481 408.03125,666.28125 C 406.27676,645.50847 405.78211,629.67739 405.8125,615.6875 C 406.62497,615.07226 407.43804,614.45966 408.25,613.84375 C 415.12339,608.77905 421.93305,603.62994 428.78125,598.53125 C 435.56231,593.31852 442.46658,588.28081 449.21875,583.03125 C 456.47832,577.41674 463.73645,571.7655 471,566.15625 C 478.30032,560.3666 485.8148,554.89165 493.34375,549.40625 C 499.59214,544.62244 506.08497,540.17249 512.4375,535.53125 C 517.13796,532.01825 521.71263,528.33394 526.40625,524.8125 C 529.53184,522.38346 532.11741,519.39959 534.75,516.46875 C 536.44824,514.49042 537.80215,512.27506 539.59375,510.375 C 540.5152,509.43676 541.29848,508.31314 542.34375,507.5 C 544.63884,505.7146 541.46099,508.38109 543.53125,506.625 C 544.05965,505.96186 543.76012,506.25678 544.34375,505.71875 L 534.59375,509.75 C 534.06061,510.31059 534.33862,510.05053 533.75,510.5625 C 532.33895,511.68234 531.19198,513.06316 530,514.40625 C 528.36233,516.37646 526.98443,518.55114 525.28125,520.46875 C 522.74352,523.3437 520.16147,526.20098 517.09375,528.53125 C 512.51436,532.06537 507.95993,535.63872 503.34375,539.125 C 497.06209,543.71445 490.68386,548.18371 484.5,552.90625 C 476.99445,558.4013 469.51492,563.88311 462.21875,569.65625 C 454.93371,575.28576 447.63791,580.94471 440.34375,586.5625 C 433.55469,591.78739 426.69245,596.87452 419.875,602.0625 C 415.19291,605.54705 410.51249,609.06037 405.84375,612.5625 C 406.00103,592.26168 407.18437,575.49672 407.09375,552.4375 C 406.93722,512.6122 400.76545,412.97176 400.4375,366.09375 z"
         style="opacity:1;fill:url(#linearGradient9376);fill-opacity:1;fill-rule:nonzero;stroke:#000000;stroke-width:0.00184426in;stroke-linecap:round;stroke-linejoin:miter;marker:none;marker-start:none;marker-mid:none;marker-end:none;stroke-miterlimit:4;stroke-dasharray:none;stroke-dashoffset:0;stroke-opacity:1;visibility:visible;display:inline;overflow:visible;enable-background:accumulate" />
      <path
         d="M 509.02391,580.4742 C 513.63603,576.16688 519.32524,572.8761 525.36191,571.02552 C 529.41134,570.01157 532.20357,570.18644 536.12223,571.53726 C 539.74523,572.88771 542.92817,575.02637 545.74499,577.64174 C 547.79748,579.54457 549.49669,581.74498 550.53023,584.35033 C 551.24728,586.12874 550.98162,587.74618 550.37489,589.49089 C 549.23557,592.03196 547.53329,594.273 545.78581,596.42237 C 543.23636,599.30552 540.17943,601.66582 537.17458,604.04638 C 534.664,606.03536 532.06355,607.89734 529.35601,609.60743 C 525.45823,612.00466 521.4389,614.20273 517.4637,616.46399 C 516.59012,616.96092 515.71581,617.36404 514.77758,617.71949 C 512.33362,618.81876 515.59781,617.36979 513.20137,618.37299 C 513.00135,618.45672 512.42506,618.75858 512.61297,618.65038 C 525.33938,611.32239 522.48841,616.77952 520.98129,612.93235 C 521.0643,612.89476 521.13928,612.81546 521.23031,612.81959 C 521.82038,612.84635 522.3891,613.05594 522.97552,613.12681 C 524.74709,613.3409 526.50379,613.55588 528.26841,613.83153 C 534.39608,615.00355 540.44506,616.55562 546.55158,617.84342 C 552.77189,618.99395 559.04475,619.88341 565.34641,620.44158 L 557.13156,626.27893 C 550.92191,625.51377 544.73555,624.54499 538.58753,623.38494 C 532.39244,622.12718 526.23487,620.63645 519.98626,619.67791 C 517.53983,619.38725 518.28219,619.45253 515.98302,619.26143 C 514.89105,619.17067 513.63193,619.18541 512.55614,618.91864 C 512.35825,618.86956 512.18096,618.75892 511.99336,618.67906 C 511.82029,618.41532 511.60002,618.17709 511.47413,617.88784 C 510.51185,615.67677 519.49832,612.78522 523.00056,611.23549 C 523.95208,610.80268 523.6994,610.93304 524.66035,610.43001 C 524.96934,610.26826 525.88458,609.76154 525.58391,609.9383 C 511.09936,618.45362 516.53712,615.21961 519.68819,613.3425 C 522.4958,611.70696 525.13715,609.81919 527.70922,607.83675 C 530.69232,605.49917 533.7163,603.18588 536.34905,600.44639 C 538.02438,598.37742 539.62571,596.27246 540.90225,593.92716 C 541.45724,592.30795 541.99912,591.14899 541.39284,589.42028 C 540.54286,586.90849 538.96945,584.83154 537.03823,583.02512 C 534.31035,580.52133 531.22483,578.47962 527.69831,577.26983 C 523.8906,576.16373 521.06285,576.16976 517.24897,577.32865 C 513.63493,578.63495 508.15219,582.08328 521.6511,574.21989 C 521.92515,574.06025 520.5724,574.73089 519.46266,575.72382 C 519.22364,575.93768 519.02254,576.19046 518.80248,576.42378 L 509.02391,580.4742 z"
         id="path9277"
         style="opacity:1;fill:#000000;fill-opacity:1;fill-rule:nonzero;stroke:#000000;stroke-width:0.00184426in;stroke-linecap:round;stroke-linejoin:miter;marker:none;marker-start:none;marker-mid:none;marker-end:none;stroke-miterlimit:4;stroke-dasharray:none;stroke-dashoffset:0;stroke-opacity:1;visibility:visible;display:inline;overflow:visible;enable-background:accumulate" />
      <path
         sodipodi:nodetypes="cccccccccccccczccccccc"
         id="path9279"
         d="M 586.91699,576.97355 C 599.26955,584.3048 613.78717,588.58053 628.53961,589.54966 C 631.22034,592.09944 627.45757,595.08294 624.62235,595.62058 C 620.55538,596.50517 616.78621,598.3435 612.88322,599.71047 C 610.88662,600.39708 616.26269,602.75565 620.48691,604.11283 C 624.98044,606.54182 629.2164,609.36666 632.26866,613.64198 C 634.85481,618.00866 636.66484,623.6759 633.731,628.25553 C 628.87569,633.69888 621.403,636.57172 614.08636,638.33773 C 603.26053,639.8369 591.77299,635.58902 585.11445,627.81537 C 582.8367,623.78088 589.16642,618.7508 593.26542,621.5568 C 596.32612,624.58988 598.57667,628.83058 603.35277,629.93425 C 610.60157,633.1386 619.39576,634.29578 627.04082,631.51418 C 626.46836,634.08753 622.39057,630.69451 625.32947,630.05818 C 627.40659,624.43001 623.6629,618.9696 620.88892,614.13018 C 618.60554,610.53177 615.11451,608.88364 613.04353,607.38153 C 611.12894,605.99284 600.82541,601.98483 603.24051,599.36443 C 608.02218,596.44126 616.15061,596.19743 621.28306,593.84885 C 623.14708,593.19432 626.89999,591.59347 627.67788,591.60377 C 624.25765,593.40407 620.86636,595.30668 617.13355,596.55244 C 617.90223,592.53442 611.65249,594.30797 609.08686,593.28464 C 598.52452,591.07552 588.25604,587.56485 578.96191,582.52139 C 580.25051,579.37536 584.61698,579.22726 586.91699,576.97355 z"
         style="opacity:1;fill:#000000;fill-opacity:1;fill-rule:nonzero;stroke:#000000;stroke-width:0.00184426in;stroke-linecap:round;stroke-linejoin:miter;marker:none;marker-start:none;marker-mid:none;marker-end:none;stroke-miterlimit:4;stroke-dasharray:none;stroke-dashoffset:0;stroke-opacity:1;visibility:visible;display:inline;overflow:visible;enable-background:accumulate" />
      <path
         d="M 678.94884,591.23117 C 677.95369,593.46583 676.62962,595.52438 675.16854,597.47866 C 672.66584,600.7012 670.142,603.90285 667.29241,606.82663 C 664.91169,609.26891 662.21392,611.3681 659.55822,613.4979 C 658.02713,614.69576 656.3798,615.76072 654.99831,617.13761 C 654.26898,617.95924 653.65414,618.8738 652.91201,619.6832 C 651.94703,620.72518 652.79209,620.88067 653.83204,621.32032 C 656.36641,622.80035 659.24024,623.35223 662.07228,623.95084 C 666.11352,624.59774 670.13797,625.35223 674.19285,625.90983 C 677.31533,626.15477 680.37029,626.83803 683.44929,627.3671 C 685.56073,627.55925 687.62528,628.0366 689.7212,628.33506 C 691.17938,628.77952 692.66838,629.05332 694.18436,629.18693 C 695.18561,629.50143 696.20224,629.72081 697.24247,629.84985 L 688.61986,635.9191 C 687.60549,635.73975 686.61827,635.45411 685.60455,635.27635 C 684.09401,635.07422 682.62605,634.70136 681.14238,634.36216 C 679.08244,633.9957 677.03333,633.57624 674.95731,633.30428 C 671.93757,632.71359 668.91992,632.10778 665.85602,631.7843 C 661.79414,631.15769 657.75286,630.40461 653.68976,629.78368 C 650.73022,629.18476 647.78641,628.51178 645.08783,627.10039 C 643.82309,626.44785 642.28481,625.41887 643.181,623.83038 C 643.83561,622.93039 644.65959,622.16034 645.30988,621.24942 C 646.5011,619.58346 648.367,618.54723 649.98287,617.33865 C 652.67816,615.20271 655.43731,613.12925 657.89894,610.72141 C 660.76906,607.88468 663.33816,604.78793 665.72291,601.53061 C 667.14984,599.76263 668.56449,597.771 669.28082,595.60529 L 678.94884,591.23117 z"
         id="path9281"
         style="opacity:1;fill:#000000;fill-opacity:1;fill-rule:nonzero;stroke:#000000;stroke-width:0.00184426in;stroke-linecap:round;stroke-linejoin:miter;marker:none;marker-start:none;marker-mid:none;marker-end:none;stroke-miterlimit:4;stroke-dasharray:none;stroke-dashoffset:0;stroke-opacity:1;visibility:visible;display:inline;overflow:visible;enable-background:accumulate" />
      <path
         d="M 689.00776,603.95481 C 688.87579,606.23486 688.91367,608.52019 688.90606,610.80296 C 688.88655,613.33492 688.91401,615.86683 688.91631,618.39877 C 688.93008,620.56898 688.92271,622.73921 688.93857,624.90942 C 688.96155,626.69341 688.96043,628.47742 688.94528,630.26145 C 688.95106,632.06776 688.95154,633.87397 688.95094,635.68026 C 688.9557,637.29533 688.96454,638.91038 688.96917,640.52545 C 689.08253,641.87638 688.84739,643.1811 688.59586,644.49829 C 688.35647,645.79703 688.30946,647.11883 688.27509,648.43565 C 688.25614,649.37993 688.25546,650.32444 688.25416,651.26887 L 678.87858,656.04544 C 678.87811,655.09543 678.87698,654.14539 678.88671,653.19542 C 678.90626,651.83585 678.9284,650.47186 679.11506,649.12276 C 679.32172,647.84371 679.74266,646.61152 679.60226,645.29813 C 679.6069,643.67687 679.61573,642.05563 679.62049,640.43437 C 679.61989,638.62615 679.62039,636.81802 679.62615,635.00979 C 679.61085,633.22348 679.61009,631.43718 679.63286,629.65091 C 679.64865,627.47314 679.6414,625.29536 679.65512,623.11759 C 679.65742,620.58216 679.68484,618.04677 679.66537,615.51133 C 679.65785,613.26315 679.69765,611.01212 679.56367,608.76682 L 689.00776,603.95481 z"
         id="path9283"
         style="opacity:1;fill:#000000;fill-opacity:1;fill-rule:nonzero;stroke:#000000;stroke-width:0.00184426in;stroke-linecap:round;stroke-linejoin:miter;marker:none;marker-start:none;marker-mid:none;marker-end:none;stroke-miterlimit:4;stroke-dasharray:none;stroke-dashoffset:0;stroke-opacity:1;visibility:visible;display:inline;overflow:visible;enable-background:accumulate" />
      <path
         transform="translate(27.857143,6.4285714)"
         d="M 505.00001,647.36221 L 495.04584,638.29947 L 488.33011,644.59208 L 493.87328,632.32455 L 485.81338,627.88204 L 499.19342,629.36303 L 500.92786,620.3248 L 503.65401,633.50763 L 512.78585,632.36421 L 501.09066,639.03065 L 505.00001,647.36221 z"
         inkscape:randomized="0"
         inkscape:rounded="0"
         inkscape:flatsided="false"
         sodipodi:arg2="2.3194895"
         sodipodi:arg1="1.1071488"
         sodipodi:r2="5.1795149"
         sodipodi:r1="14.374723"
         sodipodi:cy="634.50507"
         sodipodi:cx="498.57144"
         sodipodi:sides="5"
         id="path9285"
         style="opacity:1;fill:#ffff00;fill-opacity:1;fill-rule:nonzero;stroke:#000000;stroke-width:0.00184426in;stroke-linecap:round;stroke-linejoin:miter;marker:none;marker-start:none;marker-mid:none;marker-end:none;stroke-miterlimit:4;stroke-dasharray:none;stroke-dashoffset:0;stroke-opacity:1;visibility:visible;display:inline;overflow:visible;enable-background:accumulate"
         sodipodi:type="star" />
      <path
         transform="translate(99.986101,18.518678)"
         d="M 505.00001,647.36221 L 495.04584,638.29947 L 488.33011,644.59208 L 493.87328,632.32455 L 485.81338,627.88204 L 499.19342,629.36303 L 500.92786,620.3248 L 503.65401,633.50763 L 512.78585,632.36421 L 501.09066,639.03065 L 505.00001,647.36221 z"
         inkscape:randomized="0"
         inkscape:rounded="0"
         inkscape:flatsided="false"
         sodipodi:arg2="2.3194895"
         sodipodi:arg1="1.1071488"
         sodipodi:r2="5.1795149"
         sodipodi:r1="14.374723"
         sodipodi:cy="634.50507"
         sodipodi:cx="498.57144"
         sodipodi:sides="5"
         id="path9289"
         style="opacity:1;fill:#ffff00;fill-opacity:1;fill-rule:nonzero;stroke:#000000;stroke-width:0.00184426in;stroke-linecap:round;stroke-linejoin:miter;marker:none;marker-start:none;marker-mid:none;marker-end:none;stroke-miterlimit:4;stroke-dasharray:none;stroke-dashoffset:0;stroke-opacity:1;visibility:visible;display:inline;overflow:visible;enable-background:accumulate"
         sodipodi:type="star" />
      <path
         transform="translate(168.84324,29.518678)"
         d="M 505.00001,647.36221 L 495.04584,638.29947 L 488.33011,644.59208 L 493.87328,632.32455 L 485.81338,627.88204 L 499.19342,629.36303 L 500.92786,620.3248 L 503.65401,633.50763 L 512.78585,632.36421 L 501.09066,639.03065 L 505.00001,647.36221 z"
         inkscape:randomized="0"
         inkscape:rounded="0"
         inkscape:flatsided="false"
         sodipodi:arg2="2.3194895"
         sodipodi:arg1="1.1071488"
         sodipodi:r2="5.1795149"
         sodipodi:r1="14.374723"
         sodipodi:cy="634.50507"
         sodipodi:cx="498.57144"
         sodipodi:sides="5"
         id="path9291"
         style="opacity:1;fill:#ffff00;fill-opacity:1;fill-rule:nonzero;stroke:#000000;stroke-width:0.00184426in;stroke-linecap:round;stroke-linejoin:miter;marker:none;marker-start:none;marker-mid:none;marker-end:none;stroke-miterlimit:4;stroke-dasharray:none;stroke-dashoffset:0;stroke-opacity:1;visibility:visible;display:inline;overflow:visible;enable-background:accumulate"
         sodipodi:type="star" />
      <text
         xml:space="preserve"
         style="font-size:18px;font-style:normal;font-variant:normal;font-weight:normal;font-stretch:normal;text-align:start;line-height:125%;writing-mode:lr-tb;text-anchor:start;fill:#000000;fill-opacity:1;stroke:none;stroke-width:1px;stroke-linecap:butt;stroke-linejoin:miter;stroke-opacity:1;font-family:Chalkboard;-inkscape-font-specification:Chalkboard"
         x="390.75333"
         y="851.56781"
         id="text3178"
         transform="matrix(1,-0.7405322,2.8827862e-2,0.978652,0,0)"
         sodipodi:linespacing="125%"
         inkscape:transform-center-x="242.56809"
         inkscape:transform-center-y="-794.66091"><tspan
           sodipodi:role="line"
           id="tspan3180"
           x="390.75333"
           y="851.56781">CALCULUS of</tspan><tspan
           sodipodi:role="line"
           x="390.75333"
           y="874.06781"
           id="tspan3182">SEVERAL</tspan><tspan
           sodipodi:role="line"
           x="390.75333"
           y="896.56781"
           id="tspan3184">VARIABLES</tspan></text>
      <text
         xml:space="preserve"
         style="font-size:22px;font-style:normal;font-variant:normal;font-weight:normal;font-stretch:normal;text-align:start;line-height:125%;writing-mode:lr-tb;text-anchor:start;fill:#000000;fill-opacity:1;stroke:none;stroke-width:1px;stroke-linecap:butt;stroke-linejoin:miter;stroke-opacity:1;font-family:Chalkboard;-inkscape-font-specification:Chalkboard"
         x="-554.76257"
         y="392.92722"
         id="text3186"
         transform="matrix(0,-1,1,0.1395734,0,0)"
         sodipodi:linespacing="125%"
         inkscape:transform-center-x="-167.14286"
         inkscape:transform-center-y="92.324331"><tspan
           sodipodi:role="line"
           id="tspan3188"
           x="-554.76257"
           y="392.92722">fall 2009</tspan></text>
    </g>
  </g>
</svg>
