<?xml version="1.0" encoding="UTF-8" standalone="no"?>
<!-- Created with Inkscape (http://www.inkscape.org/) -->

<svg
   xmlns:dc="http://purl.org/dc/elements/1.1/"
   xmlns:cc="http://creativecommons.org/ns#"
   xmlns:rdf="http://www.w3.org/1999/02/22-rdf-syntax-ns#"
   xmlns:svg="http://www.w3.org/2000/svg"
   xmlns="http://www.w3.org/2000/svg"
   xmlns:sodipodi="http://sodipodi.sourceforge.net/DTD/sodipodi-0.dtd"
   xmlns:inkscape="http://www.inkscape.org/namespaces/inkscape"
   width="283.0914"
   height="100.38492"
   id="svg2"
   version="1.1"
   inkscape:version="0.48.2 r9819"
   sodipodi:docname="answer-whichDxDy.pdf">
  <defs
     id="defs4">
    <marker
       inkscape:stockid="Arrow1Lend"
       orient="auto"
       refY="0"
       refX="0"
       id="Arrow1Lend"
       style="overflow:visible">
      <path
         id="path3795"
         d="M 0,0 5,-5 -12.5,0 5,5 0,0 z"
         style="fill-rule:evenodd;stroke:black;stroke-width:1pt;marker-start:none"
         transform="matrix(-0.8,0,0,-0.8,-10,0)"
         inkscape:connector-curvature="0" />
    </marker>
  </defs>
  <sodipodi:namedview
     id="base"
     pagecolor="#ffffff"
     bordercolor="#666666"
     borderopacity="1.0"
     inkscape:pageopacity="0.0"
     inkscape:pageshadow="2"
     inkscape:zoom="1.6224735"
     inkscape:cx="44.375"
     inkscape:cy="45.609375"
     inkscape:document-units="px"
     inkscape:current-layer="layer1"
     showgrid="false"
     inkscape:object-paths="true"
     inkscape:snap-intersection-paths="true"
     showguides="false"
     inkscape:guide-bbox="true"
     inkscape:window-width="1276"
     inkscape:window-height="756"
     inkscape:window-x="4"
     inkscape:window-y="0"
     inkscape:window-maximized="1"
     inkscape:snap-global="false"
     fit-margin-top="0"
     fit-margin-left="0"
     fit-margin-right="0"
     fit-margin-bottom="0">
    <sodipodi:guide
       orientation="1,0"
       position="212.37756,83.82444"
       id="guide3785" />
    <sodipodi:guide
       orientation="0,1"
       position="213.88207,82.24207"
       id="guide3787" />
    <sodipodi:guide
       orientation="1,0"
       position="172.38429,43.82445"
       id="guide3791" />
  </sodipodi:namedview>
  <metadata
     id="metadata7">
    <rdf:RDF>
      <cc:Work
         rdf:about="">
        <dc:format>image/svg+xml</dc:format>
        <dc:type
           rdf:resource="http://purl.org/dc/dcmitype/StillImage" />
        <dc:title></dc:title>
      </cc:Work>
    </rdf:RDF>
  </metadata>
  <g
     inkscape:label="Layer 1"
     inkscape:groupmode="layer"
     id="layer1"
     transform="translate(-24.65625,-893.89633)">
    <path
       style="fill:none;stroke:black;stroke-width:1px;stroke-linecap:butt;stroke-linejoin:miter;stroke-opacity:1"
       d="m 69.040541,903.06488 0,91.21615"
       id="path2985"
       inkscape:connector-curvature="0"
       sodipodi:nodetypes="cc" />
    <path
       style="fill:none;stroke:black;stroke-width:1px;stroke-linecap:butt;stroke-linejoin:miter;stroke-opacity:1"
       d="m 24.662162,951.9568 262.499998,0"
       id="path2987"
       inkscape:connector-curvature="0" />
    <path
       transform="translate(0,852.36218)"
       style="fill:none;stroke:#ef2929;stroke-width:1.5;stroke-linecap:round;stroke-linejoin:round;stroke-miterlimit:4;stroke-opacity:1;stroke-dasharray:none;stroke-dashoffset:0"
       d="m 96.977087,71.585968 0,28.008652 -27.936544,0"
       id="rect3773"
       inkscape:connector-curvature="0"
       sodipodi:nodetypes="ccc" />
    <path
       sodipodi:type="arc"
       style="fill:#729fcf;fill-opacity:1;stroke:#204a87;stroke-width:1;stroke-linecap:round;stroke-linejoin:round;stroke-miterlimit:4;stroke-opacity:1;stroke-dasharray:none;stroke-dashoffset:0"
       id="path2989"
       sodipodi:cx="69.040543"
       sodipodi:cy="99.59462"
       sodipodi:rx="1.5"
       sodipodi:ry="1.5"
       d="m 70.540543,99.59462 c 0,0.82843 -0.671573,1.5 -1.5,1.5 -0.828428,0 -1.5,-0.67157 -1.5,-1.5 0,-0.828427 0.671572,-1.5 1.5,-1.5 0.828427,0 1.5,0.671573 1.5,1.5 z"
       transform="translate(0,852.36218)" />
    <text
       xml:space="preserve"
       style="font-size:12px;font-style:italic;font-variant:normal;font-weight:normal;font-stretch:normal;text-align:start;line-height:125%;letter-spacing:0px;word-spacing:0px;writing-mode:lr-tb;text-anchor:start;fill:#204a87;fill-opacity:1;stroke:none;font-family:Linux Libertine O;-inkscape-font-specification:Linux Libertine O Italic"
       x="152.36487"
       y="901.06488"
       id="text3761"
       sodipodi:linespacing="125%"><tspan
         sodipodi:role="line"
         id="tspan3763"
         x="152.36487"
         y="901.06488"
         style="font-size:9px;font-style:normal;font-variant:normal;font-weight:normal;font-stretch:normal;fill:#204a87;font-family:Linux Biolinum O;-inkscape-font-specification:Linux Biolinum O"><tspan
   style="font-style:italic;fill:#204a87;-inkscape-font-specification:Linux Biolinum O Italic"
   id="tspan3813">Critical point at </tspan>(<tspan
   style="font-size:65.00091553%;baseline-shift:super;fill:#204a87"
   id="tspan3811">2</tspan>/<tspan
   style="font-size:65.00091553%;baseline-shift:sub;fill:#204a87"
   id="tspan3809">3</tspan>, 0)</tspan></text>
    <path
       style="fill:none;stroke:#ef2929;stroke-width:1.5;stroke-linecap:round;stroke-linejoin:round;stroke-miterlimit:4;stroke-opacity:1;stroke-dasharray:none;stroke-dashoffset:0"
       d="m 236.96106,912.03918 0,39.91762 -39.92052,0"
       id="path3862"
       inkscape:connector-curvature="0" />
    <path
       sodipodi:type="arc"
       style="fill:#fcaf3e;fill-opacity:1;stroke:#a40000;stroke-width:1;stroke-linecap:round;stroke-linejoin:round;stroke-miterlimit:4;stroke-opacity:1;stroke-dasharray:none;stroke-dashoffset:0"
       id="path3769"
       sodipodi:cx="69.040543"
       sodipodi:cy="99.59462"
       sodipodi:rx="1.5"
       sodipodi:ry="1.5"
       d="m 70.540543,99.59462 c 0,0.82843 -0.671573,1.5 -1.5,1.5 -0.828428,0 -1.5,-0.67157 -1.5,-1.5 0,-0.828427 0.671572,-1.5 1.5,-1.5 0.828427,0 1.5,0.671573 1.5,1.5 z"
       transform="translate(168,812.36218)" />
    <path
       transform="translate(28,824.36218)"
       d="m 70.540543,99.59462 c 0,0.82843 -0.671573,1.5 -1.5,1.5 -0.828428,0 -1.5,-0.67157 -1.5,-1.5 0,-0.828427 0.671572,-1.5 1.5,-1.5 0.828427,0 1.5,0.671573 1.5,1.5 z"
       sodipodi:ry="1.5"
       sodipodi:rx="1.5"
       sodipodi:cy="99.59462"
       sodipodi:cx="69.040543"
       id="path3771"
       style="fill:#fcaf3e;fill-opacity:1;stroke:#a40000;stroke-width:1;stroke-linecap:round;stroke-linejoin:round;stroke-miterlimit:4;stroke-opacity:1;stroke-dasharray:none;stroke-dashoffset:0"
       sodipodi:type="arc" />
    <text
       xml:space="preserve"
       style="font-size:12px;font-style:italic;font-variant:normal;font-weight:normal;font-stretch:normal;text-align:start;line-height:125%;letter-spacing:0px;word-spacing:0px;writing-mode:lr-tb;text-anchor:start;fill:#a40000;fill-opacity:1;stroke:none;font-family:Linux Libertine O;-inkscape-font-specification:Linux Libertine O Italic"
       x="78.375786"
       y="950.28961"
       id="text3775"
       sodipodi:linespacing="125%"><tspan
         sodipodi:role="line"
         id="tspan3777"
         x="78.375786"
         y="950.28961"
         style="font-size:9px;fill:#a40000">Δx</tspan></text>
    <text
       sodipodi:linespacing="125%"
       id="text3779"
       y="940.28961"
       x="100.37579"
       style="font-size:12px;font-style:italic;font-variant:normal;font-weight:normal;font-stretch:normal;text-align:start;line-height:125%;letter-spacing:0px;word-spacing:0px;writing-mode:lr-tb;text-anchor:start;fill:#a40000;fill-opacity:1;stroke:none;font-family:Linux Libertine O;-inkscape-font-specification:Linux Libertine O Italic"
       xml:space="preserve"><tspan
         style="font-size:9px;fill:#a40000"
         y="940.28961"
         x="100.37579"
         id="tspan3781"
         sodipodi:role="line">Δy</tspan></text>
    <path
       transform="translate(128,852.36218)"
       d="m 70.540543,99.59462 c 0,0.82843 -0.671573,1.5 -1.5,1.5 -0.828428,0 -1.5,-0.67157 -1.5,-1.5 0,-0.828427 0.671572,-1.5 1.5,-1.5 0.828427,0 1.5,0.671573 1.5,1.5 z"
       sodipodi:ry="1.5"
       sodipodi:rx="1.5"
       sodipodi:cy="99.59462"
       sodipodi:cx="69.040543"
       id="path3759"
       style="fill:#729fcf;fill-opacity:1;stroke:#204a87;stroke-width:1;stroke-linecap:round;stroke-linejoin:round;stroke-miterlimit:4;stroke-opacity:1;stroke-dasharray:none;stroke-dashoffset:0"
       sodipodi:type="arc" />
    <text
       sodipodi:linespacing="125%"
       id="text3793"
       y="950.28961"
       x="212.37579"
       style="font-size:12px;font-style:italic;font-variant:normal;font-weight:normal;font-stretch:normal;text-align:start;line-height:125%;letter-spacing:0px;word-spacing:0px;writing-mode:lr-tb;text-anchor:start;fill:#a40000;fill-opacity:1;stroke:none;font-family:Linux Libertine O;-inkscape-font-specification:Linux Libertine O Italic"
       xml:space="preserve"><tspan
         style="font-size:9px;fill:#a40000"
         y="950.28961"
         x="212.37579"
         id="tspan3795"
         sodipodi:role="line">Δx</tspan></text>
    <text
       xml:space="preserve"
       style="font-size:12px;font-style:italic;font-variant:normal;font-weight:normal;font-stretch:normal;text-align:start;line-height:125%;letter-spacing:0px;word-spacing:0px;writing-mode:lr-tb;text-anchor:start;fill:#a40000;fill-opacity:1;stroke:none;font-family:Linux Libertine O;-inkscape-font-specification:Linux Libertine O Italic"
       x="240.37579"
       y="932.28961"
       id="text3797"
       sodipodi:linespacing="125%"><tspan
         sodipodi:role="line"
         id="tspan3799"
         x="240.37579"
         y="932.28961"
         style="font-size:9px;fill:#a40000">Δy</tspan></text>
    <text
       xml:space="preserve"
       style="font-size:12px;font-style:italic;font-variant:normal;font-weight:normal;font-stretch:normal;text-align:start;line-height:125%;letter-spacing:0px;word-spacing:0px;writing-mode:lr-tb;text-anchor:start;fill:black;fill-opacity:1;stroke:none;font-family:Linux Libertine O;-inkscape-font-specification:Linux Libertine O Italic"
       x="84.540543"
       y="984.02435"
       id="text3801"
       sodipodi:linespacing="125%"><tspan
         sodipodi:role="line"
         id="tspan3803"
         x="84.540543"
         y="984.02435"
         style="font-size:9px;font-style:italic;font-variant:normal;font-weight:normal;font-stretch:normal;fill:#204a87;font-family:Linux Biolinum O;-inkscape-font-specification:Linux Biolinum O Italic">Critical point at <tspan
   style="font-style:normal;-inkscape-font-specification:Linux Biolinum O"
   id="tspan3815">(0,0)</tspan></tspan></text>
    <text
       xml:space="preserve"
       style="font-size:12px;font-style:italic;font-variant:normal;font-weight:normal;font-stretch:normal;text-align:start;line-height:125%;letter-spacing:0px;word-spacing:0px;writing-mode:lr-tb;text-anchor:start;fill:black;fill-opacity:1;stroke:none;font-family:Linux Libertine O;-inkscape-font-specification:Linux Libertine O Italic"
       x="51.68919"
       y="36.824326"
       id="text3855"
       sodipodi:linespacing="125%"
       transform="translate(0,852.36218)"><tspan
         sodipodi:role="line"
         id="tspan3857"
         x="51.68919"
         y="36.824326" /></text>
    <g
       id="g4233"
       style="fill:#204a87;stroke:#204a87;stroke-linejoin:round">
      <path
         style="font-size:medium;font-style:normal;font-variant:normal;font-weight:normal;font-stretch:normal;text-indent:0;text-align:start;text-decoration:none;line-height:normal;letter-spacing:normal;word-spacing:normal;text-transform:none;direction:ltr;block-progression:tb;writing-mode:lr-tb;text-anchor:start;baseline-shift:baseline;color:black;fill:#75507b;fill-opacity:1;stroke:#75507b;stroke-width:0.5;stroke-linejoin:round;marker:none;visibility:visible;display:inline;overflow:visible;enable-background:accumulate;font-family:Sans;-inkscape-font-specification:Sans"
         d="m 185.1875,902.20593 a 0.250025,0.250025 0 0 0 -0.0625,0.0312 0.250025,0.250025 0 0 0 -0.125,0.125 c -1.46028,3.66915 -1.04804,6.61284 0.375,9.15625 1.42304,2.54341 3.82088,4.69072 6.34375,7 5.04574,4.61857 10.5795,9.72738 9.9375,19.15625 -0.20898,3.06911 -2.13592,6.88199 -3.90625,11.125 a 0.250025,0.250025 0 0 0 0,0.0312 0.250025,0.250025 0 0 0 0,0.0937 0.250025,0.250025 0 0 0 0.0312,0.0937 0.250025,0.250025 0 0 0 0.15625,0.125 0.250025,0.250025 0 0 0 0.125,0 0.250025,0.250025 0 0 0 0.125,-0.0937 0.250025,0.250025 0 0 0 0.0312,-0.0625 c 1.76163,-4.22214 3.71664,-8.03756 3.9375,-11.28125 0.65609,-9.63574 -5.04623,-14.91105 -10.09375,-19.53125 -2.52376,-2.3101 -4.8853,-4.46711 -6.25,-6.90625 -1.3647,-2.43914 -1.75912,-5.16244 -0.34375,-8.71875 a 0.250025,0.250025 0 0 0 0,-0.15625 0.250025,0.250025 0 0 0 -0.0625,-0.125 0.250025,0.250025 0 0 0 -0.1875,-0.0625 0.250025,0.250025 0 0 0 -0.0312,0 z"
         id="path3019"
         inkscape:connector-curvature="0" />
      <path
         style="fill:#75507b;fill-rule:evenodd;stroke:#75507b;stroke-width:0.8pt;stroke-linejoin:round;marker-start:none"
         d="m 199.92046,944.27408 -1.07565,-2.61591 -0.84966,7.23036 4.54122,-5.69011 -2.61591,1.07566 z"
         id="path4239"
         inkscape:connector-curvature="0" />
    </g>
    <g
       id="g4789"
       transform="translate(0.14846452,0.29692904)">
      <path
         style="font-size:medium;font-style:normal;font-variant:normal;font-weight:normal;font-stretch:normal;text-indent:0;text-align:start;text-decoration:none;line-height:normal;letter-spacing:normal;word-spacing:normal;text-transform:none;direction:ltr;block-progression:tb;writing-mode:lr-tb;text-anchor:start;baseline-shift:baseline;color:black;fill:#5c3566;stroke:#5c3566;stroke-width:0.5;marker:none;visibility:visible;display:inline;overflow:visible;enable-background:accumulate;font-family:Sans;-inkscape-font-specification:Sans"
         d="m 72.446471,959.55007 c 0.912621,3.41803 2.756826,3.43431 4.647279,3.56206 2.163716,0.007 6.551378,-0.16161 11.25,-0.1875 4.698622,-0.0259 9.707978,0.0854 13.125,0.625 5.54628,0.87582 8.8971,2.99812 10.03125,5.5625 1.13415,2.56438 0.14158,5.65217 -3.1875,8.6875 -0.0113,0.009 -0.0217,0.0199 -0.0312,0.0312 -0.0276,0.026 -0.0491,0.0583 -0.0625,0.0937 -0.0105,0.0408 -0.0105,0.0842 0,0.125 0.0209,0.0908 0.0967,0.16658 0.1875,0.1875 0.0309,0.006 0.0628,0.006 0.0937,0 0.0329,-0.004 0.0649,-0.0147 0.0937,-0.0312 0.0113,-0.009 0.0217,-0.0199 0.0312,-0.0312 3.41951,-3.11779 4.55109,-6.48074 3.3125,-9.28125 -1.23859,-2.80051 -4.73723,-4.95348 -10.375,-5.84375 -3.48086,-0.54967 -8.541718,-0.65095 -13.25,-0.625 -4.708282,0.026 -9.081965,0.19398 -11.21875,0.1875 -2.185383,0.0353 -3.22123,-0.63968 -4.13856,-3.1274"
         id="path4241"
         inkscape:connector-curvature="0"
         sodipodi:nodetypes="ccsssccccccccssccc" />
      <path
         style="fill:#5c3566;fill-rule:evenodd;stroke:#5c3566;stroke-width:0.5;stroke-linecap:round;stroke-linejoin:round;stroke-miterlimit:4;stroke-dasharray:none;marker-start:none"
         d="m 72.708247,959.49786 2.545967,1.23209 -4.188313,-5.95466 0.410255,7.26854 1.232091,-2.54597 z"
         id="path4795"
         inkscape:connector-curvature="0" />
    </g>
    <text
       xml:space="preserve"
       style="font-size:12px;font-style:italic;font-variant:normal;font-weight:normal;font-stretch:normal;text-align:start;line-height:125%;letter-spacing:0px;word-spacing:0px;writing-mode:lr-tb;text-anchor:start;fill:black;fill-opacity:1;stroke:none;font-family:Linux Libertine O;-inkscape-font-specification:Linux Libertine O Italic"
       x="100.52702"
       y="925.56488"
       id="text4801"
       sodipodi:linespacing="125%"><tspan
         sodipodi:role="line"
         id="tspan4803"
         x="100.52702"
         y="925.56488"
         style="font-size:9px">(x,y) = (Δx, Δy)</tspan></text>
    <text
       sodipodi:linespacing="125%"
       id="text4805"
       y="914.07843"
       x="239.37837"
       style="font-size:12px;font-style:italic;font-variant:normal;font-weight:normal;font-stretch:normal;text-align:start;line-height:125%;letter-spacing:0px;word-spacing:0px;writing-mode:lr-tb;text-anchor:start;fill:black;fill-opacity:1;stroke:none;font-family:Linux Libertine O;-inkscape-font-specification:Linux Libertine O Italic"
       xml:space="preserve"><tspan
         style="font-size:9px"
         y="914.07843"
         x="239.37837"
         id="tspan4807"
         sodipodi:role="line"><tspan
   style="font-style:normal;-inkscape-font-specification:Linux Libertine O"
   id="tspan4823">(</tspan>x,y<tspan
   style="font-style:normal;-inkscape-font-specification:Linux Libertine O"
   id="tspan4819">) = (<tspan
   style="font-size:65.00091553%;baseline-shift:super"
   id="tspan4815">2</tspan>/<tspan
   style="font-size:65.00091553%;baseline-shift:sub"
   id="tspan4817">3</tspan>+</tspan>Δx, Δy<tspan
   style="font-style:normal;-inkscape-font-specification:Linux Libertine O"
   id="tspan4825">)</tspan></tspan></text>
    <text
       xml:space="preserve"
       style="font-size:12px;font-style:italic;font-variant:normal;font-weight:normal;font-stretch:normal;text-align:start;line-height:125%;letter-spacing:0px;word-spacing:0px;writing-mode:lr-tb;text-anchor:start;fill:black;fill-opacity:1;stroke:none;font-family:Linux Libertine O;-inkscape-font-specification:Linux Libertine O Italic"
       x="186.82433"
       y="28.378378"
       id="text4827"
       sodipodi:linespacing="125%"
       transform="translate(0,852.36218)"><tspan
         sodipodi:role="line"
         id="tspan4829"
         x="186.82433"
         y="28.378378"></tspan></text>
  </g>
</svg>
