<?xml version="1.0" encoding="UTF-8" standalone="no"?>
<!-- Created with Inkscape (http://www.inkscape.org/) -->

<svg
   xmlns:dc="http://purl.org/dc/elements/1.1/"
   xmlns:cc="http://creativecommons.org/ns#"
   xmlns:rdf="http://www.w3.org/1999/02/22-rdf-syntax-ns#"
   xmlns:svg="http://www.w3.org/2000/svg"
   xmlns="http://www.w3.org/2000/svg"
   xmlns:sodipodi="http://sodipodi.sourceforge.net/DTD/sodipodi-0.dtd"
   xmlns:inkscape="http://www.inkscape.org/namespaces/inkscape"
   width="90"
   height="135"
   id="svg2"
   version="1.1"
   inkscape:version="0.48.2 r9819"
   sodipodi:docname="YeOldeparabola.pdf">
  <defs
     id="defs4" />
  <sodipodi:namedview
     id="base"
     pagecolor="#ffffff"
     bordercolor="#666666"
     borderopacity="1.0"
     inkscape:pageopacity="0.0"
     inkscape:pageshadow="2"
     inkscape:zoom="4.5037037"
     inkscape:cx="45"
     inkscape:cy="67.5"
     inkscape:document-units="px"
     inkscape:current-layer="layer1"
     showgrid="false"
     units="px"
     inkscape:window-width="1276"
     inkscape:window-height="756"
     inkscape:window-x="4"
     inkscape:window-y="0"
     inkscape:window-maximized="1">
    <inkscape:grid
       type="xygrid"
       id="grid2985"
       empspacing="10"
       visible="true"
       enabled="true"
       snapvisiblegridlinesonly="true" />
  </sodipodi:namedview>
  <metadata
     id="metadata7">
    <rdf:RDF>
      <cc:Work
         rdf:about="">
        <dc:format>image/svg+xml</dc:format>
        <dc:type
           rdf:resource="http://purl.org/dc/dcmitype/StillImage" />
        <dc:title></dc:title>
      </cc:Work>
    </rdf:RDF>
  </metadata>
  <g
     inkscape:label="Layer 1"
     inkscape:groupmode="layer"
     id="layer1"
     transform="translate(0,-917.3598)">
    <path
       style="font-size:medium;font-style:normal;font-variant:normal;font-weight:normal;font-stretch:normal;text-indent:0;text-align:start;text-decoration:none;line-height:normal;letter-spacing:normal;word-spacing:normal;text-transform:none;direction:ltr;block-progression:tb;writing-mode:lr-tb;text-anchor:start;baseline-shift:baseline;color:black;fill:#555753;fill-opacity:1;stroke:#d3d7cf;stroke-width:0.2;stroke-miterlimit:4;stroke-dasharray:none;marker:none;visibility:visible;display:inline;overflow:visible;enable-background:accumulate;font-family:Sans;-inkscape-font-specification:Sans"
       d="m 69.96875,932.03125 c -0.115281,0.0184 -0.216432,0.10694 -0.25,0.21875 -10,30 -10,29.96875 -20,49.96875 -5,10 -10.003733,19.97945 -16.21875,27.43745 -6.215017,7.4581 -13.604167,12.4063 -23.5,12.4063 -0.090942,0.1505 0,0.3517 0,0.5275 10.104167,0 17.715017,-4.9859 24,-12.5279 6.284983,-7.542 11.28125,-17.5625 16.28125,-27.5625 10,-20 10,-20.03125 20,-50.03125 0.04963,-0.11318 0.02379,-0.25529 -0.0625,-0.34375 -0.06407,-0.066 -0.158364,-0.1013 -0.25,-0.0937 z"
       id="path2991"
       inkscape:connector-curvature="0"
       sodipodi:nodetypes="ccssccsscccc" />
    <path
       style="fill:none;stroke:#babdb6;stroke-width:0.25000000000000000;stroke-linecap:round;stroke-linejoin:miter;stroke-opacity:1;stroke-miterlimit:4;stroke-dasharray:1, 1;stroke-dashoffset:0"
       d="m 10,65 40,0 0,40"
       id="path3785"
       inkscape:connector-curvature="0"
       transform="translate(0,917.3598)" />
    <path
       style="font-size:medium;font-style:normal;font-variant:normal;font-weight:normal;font-stretch:normal;text-indent:0;text-align:start;text-decoration:none;line-height:normal;letter-spacing:normal;word-spacing:normal;text-transform:none;direction:ltr;block-progression:tb;writing-mode:lr-tb;text-anchor:start;baseline-shift:baseline;color:black;fill:#555753;fill-opacity:1;stroke:#d3d7cf;stroke-width:0.20000000000000001;marker:none;visibility:visible;display:inline;overflow:visible;enable-background:accumulate;font-family:Sans;-inkscape-font-specification:Sans;stroke-miterlimit:4;stroke-dasharray:none"
       d="m 0,1022.1098 0,0.5 80,0 0,-0.5 -80,0 z"
       id="path2987"
       inkscape:connector-curvature="0" />
    <path
       style="font-size:medium;font-style:normal;font-variant:normal;font-weight:normal;font-stretch:normal;text-indent:0;text-align:start;text-decoration:none;line-height:normal;letter-spacing:normal;word-spacing:normal;text-transform:none;direction:ltr;block-progression:tb;writing-mode:lr-tb;text-anchor:start;baseline-shift:baseline;color:black;fill:#555753;fill-opacity:1;stroke:#d3d7cf;stroke-width:0.2;stroke-miterlimit:4;stroke-dasharray:none;marker:none;visibility:visible;display:inline;overflow:visible;enable-background:accumulate;font-family:Sans;-inkscape-font-specification:Sans"
       d="m 9.96875,922.09375 c -0.011311,0.009 -0.021782,0.0199 -0.03125,0.0312 -0.032909,0.004 -0.064986,0.0148 -0.09375,0.0312 -0.064813,0.0513 -0.1012749,0.13641 -0.09375,0.21875 l 0,99.6392 0.5,8e-4 0,-99.6392 c 6.79e-4,-0.0434 -0.01021,-0.087 -0.03125,-0.125 -0.0074,-0.0222 -0.01798,-0.0433 -0.03125,-0.0625 -0.05135,-0.0648 -0.136422,-0.10124 -0.21875,-0.0937 z"
       id="path3763"
       inkscape:connector-curvature="0"
       sodipodi:nodetypes="ccccccccccc" />
    <path
       style="font-size:medium;font-style:normal;font-variant:normal;font-weight:normal;font-stretch:normal;text-indent:0;text-align:start;text-decoration:none;line-height:normal;letter-spacing:normal;word-spacing:normal;text-transform:none;direction:ltr;block-progression:tb;writing-mode:lr-tb;text-anchor:start;baseline-shift:baseline;color:black;fill:#a40000;fill-opacity:1;stroke:#ef2929;stroke-width:0.2;marker:none;visibility:visible;display:inline;overflow:visible;enable-background:accumulate;font-family:Sans;-inkscape-font-specification:Sans;stroke-miterlimit:4;stroke-dasharray:none"
       d="m 79.90625,922.1098 a 0.250025,0.250025 0 0 0 -0.0625,0.0625 0.250025,0.250025 0 0 0 -0.03125,0.0312 0.250025,0.250025 0 0 0 -0.03125,0.0312 L 27.5625,1026.6411 a 0.250025,0.250025 0 0 0 0,0.062 0.250025,0.250025 0 0 0 0,0.125 0.250025,0.250025 0 0 0 0.1875,0.1875 0.250025,0.250025 0 0 0 0.25,-0.094 0.250025,0.250025 0 0 0 0.03125,-0.062 l 52.1875,-104.375 A 0.250025,0.250025 0 0 0 80.25,922.39105 0.250025,0.250025 0 0 0 80.15625,922.1723 0.250025,0.250025 0 0 0 80.125,922.14105 0.250025,0.250025 0 0 0 80,922.1098 a 0.250025,0.250025 0 0 0 -0.09375,0 z m -57.1875,114.3438 a 0.250025,0.250025 0 0 0 -0.0625,0.062 0.250025,0.250025 0 0 0 -0.0625,0.062 l -2.8125,5.6562 a 0.250025,0.250025 0 0 0 -0.03125,0.094 0.250025,0.250025 0 0 0 0.09375,0.2187 0.250025,0.250025 0 0 0 0.03125,0.031 0.250025,0.250025 0 0 0 0.125,0.031 0.250025,0.250025 0 0 0 0.15625,-0.062 0.250025,0.250025 0 0 0 0.03125,-0.031 0.250025,0.250025 0 0 0 0.03125,-0.031 l 2.84375,-5.6875 a 0.250025,0.250025 0 0 0 0.03125,-0.125 0.250025,0.250025 0 0 0 -0.03125,-0.094 0.250025,0.250025 0 0 0 -0.15625,-0.125 0.250025,0.250025 0 0 0 -0.125,0 0.250025,0.250025 0 0 0 -0.0625,0 z"
       id="path3765"
       inkscape:connector-curvature="0" />
    <path
       sodipodi:type="arc"
       style="fill:#eeeeec;fill-opacity:0.99555556000000001;stroke:#2e3436;stroke-width:0.5;stroke-linecap:round;stroke-linejoin:round;stroke-miterlimit:4;stroke-opacity:1;stroke-dasharray:none;stroke-dashoffset:0"
       id="path3779"
       sodipodi:cx="40"
       sodipodi:cy="55"
       sodipodi:rx="1"
       sodipodi:ry="1"
       d="m 40.999999,55.001125 c -6.21e-4,0.552284 -0.448839,0.999496 -1.001124,0.998874 -0.552284,-6.21e-4 -0.999496,-0.448839 -0.998874,-1.001124 6.21e-4,-0.552284 0.448839,-0.999496 1.001124,-0.998874 0.550473,6.19e-4 0.996934,0.446014 0.998869,0.996484"
       transform="translate(10.000006,927.36331)"
       sodipodi:start="0.001124861"
       sodipodi:end="6.2796703"
       sodipodi:open="true" />
    <g
       style="font-size:9px;font-style:normal;font-variant:normal;font-weight:normal;font-stretch:normal;text-align:start;line-height:125%;letter-spacing:0px;word-spacing:0px;writing-mode:lr-tb;text-anchor:start;fill:#555753;fill-opacity:1;stroke:#d3d7cf;font-family:Linux Libertine O;-inkscape-font-specification:Linux Libertine O;stroke-width:0.20000000000000001;stroke-miterlimit:4;stroke-dasharray:none"
       id="text3795">
      <path
         d="m 13.06849,979.09878 0,-3.123 c 0,-0.54 0.009,-1.089 0.027,-1.206 0,-0.036 -0.027,-0.045 -0.054,-0.045 -0.503999,0.315 -0.972001,0.531 -1.764,0.9 0.009,0.108 0.054,0.189 0.135,0.243 0.405,-0.171 0.612,-0.225 0.783,-0.225 0.144,0 0.18,0.216 0.18,0.522 l 0,2.934 c 0,0.747 -0.243001,0.792 -0.873,0.819 -0.054,0.054 -0.054,0.243 0,0.297 0.441,-0.009 0.756001,-0.018 1.251,-0.018 0.423,0 0.648,0.009 1.098,0.018 0.054,-0.054 0.054,-0.243 0,-0.297 -0.629999,-0.027 -0.783,-0.072 -0.783,-0.819"
         style="line-height:125%;fill:#555753;font-family:Linux Libertine O;-inkscape-font-specification:Linux Libertine O;stroke:#d3d7cf;stroke-width:0.20000000000000001;stroke-miterlimit:4;stroke-dasharray:none"
         id="path3840" />
    </g>
    <g
       style="font-size:9px;font-style:normal;font-variant:normal;font-weight:normal;font-stretch:normal;text-align:start;line-height:125%;letter-spacing:0px;word-spacing:0px;writing-mode:lr-tb;text-anchor:start;fill:#555753;fill-opacity:1;stroke:#d3d7cf;font-family:Linux Libertine O;-inkscape-font-specification:Linux Libertine O;stroke-width:0.20000000000000001;stroke-miterlimit:4;stroke-dasharray:none"
       id="text3001">
      <path
         d="m 53.068486,1019.0988 0,-3.123 c 0,-0.54 0.009,-1.089 0.027,-1.206 0,-0.036 -0.027,-0.045 -0.054,-0.045 -0.503999,0.315 -0.972001,0.531 -1.764,0.9 0.009,0.108 0.054,0.189 0.135,0.243 0.405,-0.171 0.612,-0.225 0.783,-0.225 0.144,0 0.18,0.216 0.18,0.522 l 0,2.934 c 0,0.747 -0.243,0.792 -0.873,0.819 -0.054,0.054 -0.054,0.243 0,0.297 0.441,-0.01 0.756001,-0.018 1.251,-0.018 0.423,0 0.648001,0.01 1.098,0.018 0.054,-0.054 0.054,-0.243 0,-0.297 -0.629999,-0.027 -0.783,-0.072 -0.783,-0.819"
         style="line-height:125%;fill:#555753;font-family:Linux Libertine O;-inkscape-font-specification:Linux Libertine O;stroke:#d3d7cf;stroke-width:0.20000000000000001;stroke-miterlimit:4;stroke-dasharray:none"
         id="path3837" />
    </g>
    <g
       style="font-size:9px;font-style:italic;font-variant:normal;font-weight:normal;font-stretch:normal;line-height:125%;letter-spacing:0px;word-spacing:0px;fill:#555753;fill-opacity:1;stroke:#d3d7cf;font-family:Linux Biolinum O;-inkscape-font-specification:Linux Biolinum O Italic;stroke-width:0.20000000000000001;stroke-miterlimit:4;stroke-dasharray:none"
       id="text3017">
      <path
         d="m 16.334355,1033.6557 0,-1.215 c 0,-0.27 0.009,-0.423 0.153,-0.693 l 1.08,-1.944 c 0.252,-0.45 0.450001,-0.531 0.855,-0.576 0.054,-0.054 0.054,-0.243 0,-0.297 -0.251999,0.01 -0.54,0.018 -0.747,0.018 -0.206999,0 -0.531,-0.01 -0.819,-0.018 -0.054,0.054 -0.054,0.243 0,0.297 0.396,0.027 0.54,0.117 0.342,0.477 l -0.99,1.881 c -0.072,0.144 -0.117,0.126 -0.198,-0.018 l -1.044,-1.836 c -0.224999,-0.387 -0.188999,-0.477 0.315,-0.504 0.054,-0.054 0.054,-0.243 0,-0.297 -0.323999,0.01 -0.666,0.018 -1.026,0.018 -0.350999,0 -0.648,-0.01 -0.918,-0.018 -0.054,0.054 -0.045,0.243 0.009,0.297 0.378,0.027 0.540001,0.081 0.846,0.603 l 1.179,1.989 c 0.162,0.27 0.189,0.36 0.189,0.693 l 0,1.143 c 0,0.747 -0.153,0.792 -0.873,0.819 -0.054,0.054 -0.054,0.243 0,0.297 0.441,-0.01 0.918001,-0.018 1.26,-0.018 0.351,0 0.801001,0.01 1.251,0.018 0.054,-0.054 0.054,-0.243 0,-0.297 -0.719999,-0.027 -0.873,-0.072 -0.873,-0.819 l 0.009,0"
         style="font-style:normal;fill:#555753;font-family:Linux Libertine O;-inkscape-font-specification:Linux Libertine O;stroke:#d3d7cf;stroke-width:0.20000000000000001;stroke-miterlimit:4;stroke-dasharray:none"
         id="path3020" />
      <path
         d="m 19.194734,1029.5039 c 0.111152,-0.661 0.520658,-0.7137 0.66106,-0.7137 0.222303,0 0.485556,0.1229 0.485556,0.6143 0,0.053 -0.0234,0.082 -0.08775,0.082 l -1.058865,0.017 m 1.532722,1.1057 c -0.216453,0.2223 -0.386106,0.3159 -0.72541,0.3159 -0.210603,0 -0.456307,-0.1228 -0.637659,-0.4212 -0.117002,-0.193 -0.187203,-0.4622 -0.187203,-0.8015 l 1.556122,0.012 c 0.0702,0 0.111152,-0.035 0.111152,-0.099 0,-0.4914 -0.175504,-1.0179 -0.988664,-1.0179 -0.508957,0 -1.170017,0.4855 -1.170017,1.3747 0,0.3276 0.0819,0.6436 0.274954,0.8659 0.198903,0.234 0.473857,0.3744 0.895063,0.3744 0.444605,0 0.760511,-0.2048 0.994514,-0.509 -0.01755,-0.058 -0.05265,-0.088 -0.122852,-0.094"
         style="font-size:65.00091553000000033%;baseline-shift:super;fill:#555753;font-family:Linux Libertine O;-inkscape-font-specification:Linux Libertine O;stroke:#d3d7cf;stroke-width:0.20000000000000001;stroke-miterlimit:4;stroke-dasharray:none"
         id="path3022" />
      <path
         d="m 26.314865,1029.1557 c 1.187999,0 2.151,0.99 2.151,2.808 0,1.611 -0.774001,2.556 -1.8,2.556 -1.097999,0 -2.133,-0.981 -2.133,-2.709 0,-1.89 0.891001,-2.655 1.782,-2.655 m 3.015,2.637 c 0,-1.863 -1.287002,-2.961 -2.898,-2.961 -1.745998,0 -2.763,1.395 -2.763,3.132 0,1.773 1.287002,2.88 2.817,2.88 0.989999,0 1.791001,-0.423 2.286,-1.134 0.36,-0.504 0.558,-1.161 0.558,-1.917"
         style="font-style:normal;fill:#555753;font-family:Linux Libertine O;-inkscape-font-specification:Linux Libertine O;stroke:#d3d7cf;stroke-width:0.20000000000000001;stroke-miterlimit:4;stroke-dasharray:none"
         id="path3024" />
      <path
         d="m 30.501412,1033.6557 c 0,0.747 -0.099,0.792 -0.648,0.819 -0.054,0.054 -0.054,0.243 0,0.297 0.315,-0.01 0.648,-0.018 1.008,-0.018 0.36,0 0.702,0.01 0.999,0.018 0.054,-0.054 0.054,-0.243 0,-0.297 -0.549,-0.027 -0.648,-0.072 -0.648,-0.819 l 0,-4.149 c 0,-0.585 0.036,-0.945 0.036,-0.945 0,-0.063 -0.036,-0.09 -0.117,-0.09 -0.225,0.09 -0.9,0.216 -1.26,0.243 -0.018,0.072 0,0.216 0.054,0.27 0.521999,0.036 0.576,0.063 0.576,0.738 l 0,3.933"
         style="font-style:normal;fill:#555753;font-family:Linux Libertine O;-inkscape-font-specification:Linux Libertine O;stroke:#d3d7cf;stroke-width:0.20000000000000001;stroke-miterlimit:4;stroke-dasharray:none"
         id="path3026" />
      <path
         d="m 35.124459,1033.6377 c 0,0.171 -0.018,0.243 -0.144,0.351 -0.333,0.288 -0.621,0.432 -0.846,0.432 -0.486,0 -0.99,-0.531 -0.99,-1.656 0,-0.648 0.126,-1.008 0.261,-1.197 0.278999,-0.423 0.657,-0.45 0.837,-0.45 0.323999,0 0.549,0.117 0.729,0.324 0.126,0.144 0.153,0.207 0.153,0.486 l 0,1.71 m -0.099,0.666 c 0.036,-0.036 0.126,-0.054 0.135,0.01 0.018,0.225 0.099,0.531 0.099,0.531 0.072,0.027 0.117,0.027 0.171,0 0.198,-0.162 0.513,-0.297 1.062,-0.36 0.054,-0.054 0.054,-0.189 0,-0.243 -0.576,-0.045 -0.657,-0.216 -0.657,-0.657 l 0,-4.077 c 0,-0.585 0.036,-0.945 0.036,-0.945 0,-0.063 -0.036,-0.09 -0.117,-0.09 -0.225,0.09 -0.900001,0.216 -1.26,0.243 -0.018,0.072 0,0.216 0.054,0.27 0.467999,0.027 0.576,-0.018 0.576,0.738 l 0,1.152 c 0,0.063 -0.018,0.081 -0.081,0.081 -0.036,0 -0.405001,-0.153 -0.702,-0.153 -0.594,0 -0.990001,0.198 -1.35,0.54 -0.387,0.387 -0.621,0.918 -0.621,1.584 0,1.107 0.558001,1.917 1.53,1.917 0.350999,0 0.684,-0.18 1.125,-0.54"
         style="font-style:normal;fill:#555753;font-family:Linux Libertine O;-inkscape-font-specification:Linux Libertine O;stroke:#d3d7cf;stroke-width:0.20000000000000001;stroke-miterlimit:4;stroke-dasharray:none"
         id="path3028" />
      <path
         d="m 37.688193,1032.2157 c 0.171,-1.017 0.801,-1.098 1.017,-1.098 0.342,0 0.747,0.189 0.747,0.945 0,0.081 -0.036,0.126 -0.135,0.126 l -1.629,0.027 m 2.358,1.701 c -0.333,0.342 -0.594,0.486 -1.116,0.486 -0.324,0 -0.702,-0.189 -0.981,-0.648 -0.18,-0.297 -0.288,-0.711 -0.288,-1.233 l 2.394,0.018 c 0.108,0 0.171,-0.054 0.171,-0.153 0,-0.756 -0.270001,-1.566 -1.521,-1.566 -0.782999,0 -1.8,0.747 -1.8,2.115 0,0.504 0.126,0.99 0.423,1.332 0.306,0.36 0.729001,0.576 1.377,0.576 0.683999,0 1.170001,-0.315 1.53,-0.783 -0.027,-0.09 -0.081,-0.135 -0.189,-0.144"
         style="font-style:normal;fill:#555753;font-family:Linux Libertine O;-inkscape-font-specification:Linux Libertine O;stroke:#d3d7cf;stroke-width:0.20000000000000001;stroke-miterlimit:4;stroke-dasharray:none"
         id="path3030" />
      <path
         d="m 44.548584,1029.7677 c 0,-0.261 0.135,-0.576 0.783,-0.576 0.620999,0 1.242,0.207 1.242,1.35 0,0.972 -0.468001,1.368 -1.341,1.368 -0.225,0 -0.585,-0.018 -0.684,-0.045 l 0,-2.097 m -0.765,0.279 0,3.609 c 0,0.747 -0.153001,0.792 -0.783,0.819 -0.054,0.054 -0.054,0.243 0,0.297 0.404999,-0.01 0.846,-0.018 1.17,-0.018 0.314999,0 0.846,0.01 1.296,0.018 0.054,-0.054 0.054,-0.243 0,-0.297 -0.702,-0.036 -0.918,-0.072 -0.918,-0.819 l 0,-1.53 c 0.198,0.063 0.414,0.09 0.729,0.09 1.637998,0 2.133,-1.071 2.133,-1.836 0,-0.531 -0.351002,-1.494 -2.016,-1.494 -0.351,0 -0.873001,0.063 -1.233,0.063 -0.333,0 -0.801001,-0.01 -1.161,-0.018 -0.054,0.054 -0.054,0.243 0,0.297 0.629999,0.027 0.783,0.072 0.783,0.819"
         style="font-style:normal;fill:#555753;font-family:Linux Libertine O;-inkscape-font-specification:Linux Libertine O;stroke:#d3d7cf;stroke-width:0.20000000000000001;stroke-miterlimit:4;stroke-dasharray:none"
         id="path3032" />
      <path
         d="m 50.353722,1032.6567 0,1.188 c 0,0.117 -0.054,0.18 -0.126,0.234 -0.233999,0.189 -0.54,0.396 -0.792,0.396 -0.449999,0 -0.648,-0.36 -0.648,-0.639 0,-0.405 0.189001,-0.819 0.855,-0.99 l 0.711,-0.189 m 0,1.665 c 0.054,0.279 0.144001,0.522 0.603,0.522 0.342,0 0.666001,-0.153 0.855,-0.333 -0.018,-0.108 -0.054,-0.18 -0.153,-0.243 -0.072,0.063 -0.225,0.144 -0.333,0.144 -0.260999,0 -0.27,-0.351 -0.27,-0.765 l 0,-1.323 c 0,-1.278 -0.702,-1.521 -1.359,-1.521 -0.737999,0 -1.485,0.486 -1.485,0.999 0,0.216 0.108001,0.324 0.315,0.324 0.261,0 0.423,-0.189 0.423,-0.306 0,-0.063 -0.009,-0.126 -0.027,-0.162 -0.009,-0.027 -0.018,-0.081 -0.018,-0.18 0,-0.279 0.378001,-0.378 0.72,-0.378 0.306,0 0.729,0.153 0.729,1.17 0,0.063 -0.027,0.099 -0.054,0.108 l -0.774,0.189 c -0.863999,0.216 -1.485,0.693 -1.485,1.305 0,0.738 0.504001,0.972 1.134,0.972 0.306,0 0.585001,-0.072 0.981,-0.378 l 0.18,-0.144 0.018,0"
         style="font-style:normal;fill:#555753;font-family:Linux Libertine O;-inkscape-font-specification:Linux Libertine O;stroke:#d3d7cf;stroke-width:0.20000000000000001;stroke-miterlimit:4;stroke-dasharray:none"
         id="path3034" />
      <path
         d="m 53.414004,1031.5317 c -0.018,-0.36 -0.036,-0.585 -0.072,-0.684 -0.027,-0.036 -0.036,-0.072 -0.108,-0.072 -0.252,0.099 -0.486001,0.18 -1.107,0.261 -0.018,0.054 0,0.198 0.018,0.252 0.485999,0.045 0.585,0.09 0.585,0.612 l 0,1.755 c 0,0.747 -0.108001,0.783 -0.666,0.819 -0.054,0.054 -0.054,0.243 0,0.297 0.314999,-0.01 0.666,-0.018 1.026,-0.018 0.359999,0 0.774,0.01 1.089,0.018 0.054,-0.054 0.054,-0.243 0,-0.297 -0.63,-0.045 -0.738,-0.072 -0.738,-0.819 l 0,-1.251 c 0,-0.234 0.108,-0.441 0.216,-0.603 0.099,-0.144 0.306,-0.441 0.414,-0.441 0.081,0 0.162,0.027 0.225,0.117 0.072,0.09 0.171,0.207 0.333,0.207 0.216,0 0.423,-0.225 0.423,-0.45 0,-0.171 -0.162001,-0.432 -0.54,-0.432 -0.423,0 -0.792,0.396 -0.999,0.747 -0.054,0.099 -0.099,0.027 -0.099,-0.018"
         style="font-style:normal;fill:#555753;font-family:Linux Libertine O;-inkscape-font-specification:Linux Libertine O;stroke:#d3d7cf;stroke-width:0.20000000000000001;stroke-miterlimit:4;stroke-dasharray:none"
         id="path3036" />
      <path
         d="m 57.806847,1032.6567 0,1.188 c 0,0.117 -0.054,0.18 -0.126,0.234 -0.233999,0.189 -0.54,0.396 -0.792,0.396 -0.449999,0 -0.648,-0.36 -0.648,-0.639 0,-0.405 0.189001,-0.819 0.855,-0.99 l 0.711,-0.189 m 0,1.665 c 0.054,0.279 0.144001,0.522 0.603,0.522 0.342,0 0.666001,-0.153 0.855,-0.333 -0.018,-0.108 -0.054,-0.18 -0.153,-0.243 -0.072,0.063 -0.225,0.144 -0.333,0.144 -0.260999,0 -0.27,-0.351 -0.27,-0.765 l 0,-1.323 c 0,-1.278 -0.702,-1.521 -1.359,-1.521 -0.737999,0 -1.485,0.486 -1.485,0.999 0,0.216 0.108001,0.324 0.315,0.324 0.261,0 0.423,-0.189 0.423,-0.306 0,-0.063 -0.009,-0.126 -0.027,-0.162 -0.009,-0.027 -0.018,-0.081 -0.018,-0.18 0,-0.279 0.378001,-0.378 0.72,-0.378 0.306,0 0.729,0.153 0.729,1.17 0,0.063 -0.027,0.099 -0.054,0.108 l -0.774,0.189 c -0.863999,0.216 -1.485,0.693 -1.485,1.305 0,0.738 0.504001,0.972 1.134,0.972 0.306,0 0.585001,-0.072 0.981,-0.378 l 0.18,-0.144 0.018,0"
         style="font-style:normal;fill:#555753;font-family:Linux Libertine O;-inkscape-font-specification:Linux Libertine O;stroke:#d3d7cf;stroke-width:0.20000000000000001;stroke-miterlimit:4;stroke-dasharray:none"
         id="path3038" />
      <path
         d="m 60.849129,1031.4867 c 0.234,-0.207 0.504,-0.288 0.765,-0.288 0.548999,0 0.999,0.666 0.999,1.539 0,1.026 -0.414001,1.8 -1.269,1.8 -0.279,0 -0.468,-0.198 -0.648,-0.423 l 0,-2.25 c 0,-0.189 0.036,-0.27 0.153,-0.378 m -0.063,-0.279 c -0.063,0.054 -0.09,0.036 -0.09,-0.045 l 0,-1.656 c 0,-0.585 0.036,-0.945 0.036,-0.945 0,-0.063 -0.036,-0.09 -0.117,-0.09 -0.225,0.09 -0.900001,0.216 -1.26,0.243 -0.018,0.072 0,0.216 0.054,0.27 0.467999,0.027 0.576,-0.018 0.576,0.738 l 0,4.392 c 0,0.351 -0.009,0.513 -0.036,0.639 0.045,0.072 0.09,0.108 0.198,0.108 0.054,-0.045 0.144,-0.135 0.207,-0.216 0.099,-0.108 0.153,-0.108 0.252,-0.018 0.198,0.171 0.468,0.216 0.792,0.216 0.917999,0 1.989,-0.837 1.989,-2.268 0,-1.098 -0.810001,-1.773 -1.593,-1.773 -0.387,0 -0.729001,0.153 -1.008,0.405"
         style="font-style:normal;fill:#555753;font-family:Linux Libertine O;-inkscape-font-specification:Linux Libertine O;stroke:#d3d7cf;stroke-width:0.20000000000000001;stroke-miterlimit:4;stroke-dasharray:none"
         id="path3040" />
      <path
         d="m 64.169707,1032.9087 c 0,0.918 0.612001,1.935 1.89,1.935 0.575999,0 1.008,-0.198 1.314,-0.504 0.404999,-0.387 0.594,-0.954 0.594,-1.512 0,-0.936 -0.513002,-2.025 -1.89,-2.025 -0.594,0 -1.089,0.243 -1.413,0.63 -0.324,0.387 -0.495,0.909 -0.495,1.476 m 1.773,-1.791 c 0.773999,0 1.251,0.702 1.251,1.998 0,1.134 -0.585001,1.413 -1.008,1.413 -0.935999,0 -1.242,-1.134 -1.242,-1.827 0,-0.783 0.189001,-1.584 0.999,-1.584"
         style="font-style:normal;fill:#555753;font-family:Linux Libertine O;-inkscape-font-specification:Linux Libertine O;stroke:#d3d7cf;stroke-width:0.20000000000000001;stroke-miterlimit:4;stroke-dasharray:none"
         id="path3042" />
      <path
         d="m 69.190863,1033.6557 c 0,0.747 -0.099,0.792 -0.648,0.819 -0.054,0.054 -0.054,0.243 0,0.297 0.315,-0.01 0.648,-0.018 1.008,-0.018 0.36,0 0.702,0.01 0.999,0.018 0.054,-0.054 0.054,-0.243 0,-0.297 -0.548999,-0.027 -0.648,-0.072 -0.648,-0.819 l 0,-4.149 c 0,-0.585 0.036,-0.945 0.036,-0.945 0,-0.063 -0.036,-0.09 -0.117,-0.09 -0.225,0.09 -0.9,0.216 -1.26,0.243 -0.018,0.072 0,0.216 0.054,0.27 0.522,0.036 0.576,0.063 0.576,0.738 l 0,3.933"
         style="font-style:normal;fill:#555753;font-family:Linux Libertine O;-inkscape-font-specification:Linux Libertine O;stroke:#d3d7cf;stroke-width:0.20000000000000001;stroke-miterlimit:4;stroke-dasharray:none"
         id="path3044" />
      <path
         d="m 73.34591,1032.6567 0,1.188 c 0,0.117 -0.054,0.18 -0.126,0.234 -0.234,0.189 -0.54,0.396 -0.792,0.396 -0.45,0 -0.648,-0.36 -0.648,-0.639 0,-0.405 0.189001,-0.819 0.855,-0.99 l 0.711,-0.189 m 0,1.665 c 0.054,0.279 0.144,0.522 0.603,0.522 0.342,0 0.666,-0.153 0.855,-0.333 -0.018,-0.108 -0.054,-0.18 -0.153,-0.243 -0.072,0.063 -0.225,0.144 -0.333,0.144 -0.261,0 -0.27,-0.351 -0.27,-0.765 l 0,-1.323 c 0,-1.278 -0.702001,-1.521 -1.359,-1.521 -0.737999,0 -1.485,0.486 -1.485,0.999 0,0.216 0.108,0.324 0.315,0.324 0.261,0 0.423,-0.189 0.423,-0.306 0,-0.063 -0.009,-0.126 -0.027,-0.162 -0.009,-0.027 -0.018,-0.081 -0.018,-0.18 0,-0.279 0.378,-0.378 0.72,-0.378 0.306,0 0.729,0.153 0.729,1.17 0,0.063 -0.027,0.099 -0.054,0.108 l -0.774,0.189 c -0.863999,0.216 -1.485,0.693 -1.485,1.305 0,0.738 0.504001,0.972 1.134,0.972 0.306,0 0.585,-0.072 0.981,-0.378 l 0.18,-0.144 0.018,0"
         style="font-style:normal;fill:#555753;font-family:Linux Libertine O;-inkscape-font-specification:Linux Libertine O;stroke:#d3d7cf;stroke-width:0.20000000000000001;stroke-miterlimit:4;stroke-dasharray:none"
         id="path3046" />
    </g>
  </g>
</svg>
