<?xml version="1.0" encoding="UTF-8" standalone="no"?>
<!-- Created with Inkscape (http://www.inkscape.org/) -->
<svg
   xmlns:dc="http://purl.org/dc/elements/1.1/"
   xmlns:cc="http://creativecommons.org/ns#"
   xmlns:rdf="http://www.w3.org/1999/02/22-rdf-syntax-ns#"
   xmlns:svg="http://www.w3.org/2000/svg"
   xmlns="http://www.w3.org/2000/svg"
   xmlns:sodipodi="http://sodipodi.sourceforge.net/DTD/sodipodi-0.dtd"
   xmlns:inkscape="http://www.inkscape.org/namespaces/inkscape"
   width="240"
   height="120"
   id="svg2"
   sodipodi:version="0.32"
   inkscape:version="0.46"
   version="1.0"
   sodipodi:docname="02car.svg"
   inkscape:output_extension="org.inkscape.output.svg.inkscape">
  <defs
     id="defs4">
    <inkscape:perspective
       sodipodi:type="inkscape:persp3d"
       inkscape:vp_x="0 : 526.18109 : 1"
       inkscape:vp_y="0 : 1000 : 0"
       inkscape:vp_z="744.09448 : 526.18109 : 1"
       inkscape:persp3d-origin="372.04724 : 350.78739 : 1"
       id="perspective10" />
  </defs>
  <sodipodi:namedview
     id="base"
     pagecolor="#ffffff"
     bordercolor="#666666"
     borderopacity="1.0"
     gridtolerance="10"
     guidetolerance="10"
     objecttolerance="10"
     inkscape:pageopacity="0.0"
     inkscape:pageshadow="2"
     inkscape:zoom="0.84410872"
     inkscape:cx="110.64921"
     inkscape:cy="64.051204"
     inkscape:document-units="px"
     inkscape:current-layer="layer1"
     showgrid="false"
     inkscape:showpageshadow="true"
     inkscape:snap-guide="true"
     inkscape:object-paths="true"
     inkscape:object-nodes="true"
     inkscape:window-width="1280"
     inkscape:window-height="780"
     inkscape:window-x="-8"
     inkscape:window-y="-8"
     showguides="true"
     inkscape:guide-bbox="true">
    <inkscape:grid
       type="xygrid"
       id="grid2383"
       visible="true"
       enabled="true" />
  </sodipodi:namedview>
  <metadata
     id="metadata7">
    <rdf:RDF>
      <cc:Work
         rdf:about="">
        <dc:format>image/svg+xml</dc:format>
        <dc:type
           rdf:resource="http://purl.org/dc/dcmitype/StillImage" />
      </cc:Work>
    </rdf:RDF>
  </metadata>
  <g
     inkscape:label="Layer 1"
     inkscape:groupmode="layer"
     id="layer1">
    <path
       style="fill:#000000;fill-opacity:1;stroke:#000000;stroke-width:0.50000000000000000;stroke-miterlimit:4;stroke-dasharray:none;stroke-dashoffset:0;stroke-opacity:1"
       id="path2385"
       d="M 45.57516,49.328411 C 46.080294,49.959625 46.592018,50.586083 47.081357,51.229789 C 47.72227,52.041403 48.13777,52.986377 48.542696,53.93004 C 49.09039,55.118686 49.631955,56.310469 50.160862,57.507561 C 50.674135,58.784891 51.175937,60.068422 51.636347,61.365904 C 52.053366,62.650393 52.457613,63.941165 52.798406,65.248324 C 53.045302,66.349394 53.251477,67.458953 53.528752,68.553019 C 53.717071,69.412014 53.940632,70.261982 54.156962,71.114066 C 54.331172,71.783869 54.423329,72.468889 54.469131,73.158182 C 54.484247,73.505761 54.468078,73.341255 54.512644,73.652167 L 52.549213,74.69029 C 52.495566,74.356299 52.512384,74.527871 52.50153,74.175312 C 52.466966,73.496636 52.391469,72.820405 52.224529,72.159987 C 52.008068,71.307041 51.783281,70.456708 51.603405,69.594859 C 51.327062,68.498873 51.130973,67.38532 50.89204,66.280886 C 50.561705,64.977267 50.150719,63.694723 49.73757,62.415454 C 49.288968,61.1195 48.784198,59.84246 48.273343,58.570004 C 47.748388,57.371044 47.196099,56.183588 46.642908,54.997332 C 46.243832,54.07149 45.823838,53.147685 45.195134,52.351437 C 44.702804,51.710263 44.19803,51.077766 43.664075,50.470632 L 45.57516,49.328411 z" />
    <path
       style="fill:#000000;fill-opacity:1;stroke:#000000;stroke-width:0.5;stroke-miterlimit:4;stroke-dasharray:none;stroke-dashoffset:0;stroke-opacity:1"
       d="M 54.145763,74.138344 C 61.928753,75.206202 69.642026,77.403528 77.568566,76.815636 C 80.662198,74.869428 74.422409,79.608051 76.976751,75.629015 C 75.501757,70.530154 77.678028,65.076484 82.182711,62.280233 C 86.455753,58.90645 94.649083,60.557262 95.252023,66.616622 C 96.208318,70.298476 93.291308,77.501374 99.636468,76.33192 C 105.29383,76.404108 110.95233,76.340411 116.61016,76.347627 C 118.78696,75.408331 113.28452,78.852016 115.88897,75.333587 C 116.69767,69.647037 117.61398,62.542447 123.59809,59.931698 C 127.57039,57.671074 132.40116,55.221177 136.90305,57.531983 C 141.08136,60.567216 144.16514,64.580979 147.11712,68.77161 C 150.59199,71.371834 151.04273,78.634579 156.4093,76.92041 C 161.14734,76.587781 165.80515,75.513284 170.52656,75.219023 C 166.62517,78.4419 170.54823,73.925057 168.7183,71.331375 C 167.53936,65.904179 165.12057,60.855622 161.96345,56.320954 C 159.35712,52.740656 159.66128,45.789291 154.91875,44.71791 C 148.86816,43.438966 142.72154,43.012363 136.55386,42.99828 C 128.68375,42.128508 120.70725,43.168653 112.86338,42.270672 C 109.53537,39.194539 107.71898,34.681314 104.63128,31.287937 C 101.67629,26.418777 97.718553,22.180124 95.109893,17.112746 C 90.618527,17.634495 85.531566,17.309893 80.797679,17.383039 C 71.837016,18.029594 63.073547,20.315803 54.169111,21.487113 C 52.000709,21.575205 45.621848,24.9195 46.569985,24.297141 C 47.816754,25.233663 52.299194,29.960683 55.584373,31.645437 C 61.349456,35.879585 70,40 73.713668,42.834375 C 77.80181,48.263979 68.398186,44.36545 65.577148,45.375231 C 59.088049,45.415447 52.089346,44.701528 46.329149,48.320997 C 51.066163,45.566347 40.756215,52.491739 43.444363,50.049885 C 48.491744,45.55611 55.28257,43.602875 61.959516,44.12544 C 66.016701,44.43855 71.520318,43.459614 74.713125,44.687146 C 71.021575,47.018075 53.997676,33.606114 49.279133,29.524852 C 46.041773,27.924487 43.049862,23.845937 48.541804,22.868476 C 55.554122,19.169316 63.705992,19.321305 71.294501,17.623766 C 79.013273,15.621885 86.972139,16.23285 94.846189,16.02881 C 98.940901,15.313521 99.815186,22.698548 102.99512,24.992154 C 106.34067,30.234056 110.30527,35.058006 113.70241,40.257222 C 117.11924,42.34818 121.71812,40.954304 125.6184,41.367244 C 132.77975,41.175685 139.90617,41.985951 147.06325,41.98916 C 151.64389,43.45853 159.71679,41.327073 160.53912,47.779613 C 162.55749,51.988576 164.0484,56.469491 167.01618,60.147797 C 168.3626,64.968413 173.6627,72.18133 169.4742,76.213165 C 165.02304,77.027019 160.32407,77.603556 155.73293,78.061954 C 149.74987,80.615312 149.08718,73.392932 145.59483,70.412074 C 142.63703,66.277332 139.69039,62.17436 135.574,59.117111 C 132.25176,55.835668 124.35426,59.912548 123.7667,60.247072 C 124.04178,59.670735 119.46736,64.046954 119.40151,66.500263 C 117.91223,70.830451 119.15613,79.322663 112.01717,77.646657 C 106.09738,77.399083 100.06677,78.199825 94.224107,77.103383 C 92.169101,73.231013 95.32031,67.051232 91.266149,63.648138 C 89.463346,60.98646 82.887413,62.197251 82.80529,62.375186 C 83.843562,61.622247 78.568569,66.379106 78.672789,68.597364 C 79.209363,72.937879 79.577443,79.625058 72.960416,78.14707 C 65.982474,78.206986 59.226735,76.188118 52.332707,75.421465 C 52.937059,74.993758 53.541411,74.566051 54.145763,74.138344 z"
       id="path3157"
       sodipodi:nodetypes="cccccccccccccccccccccccccccccccccccccccccccccccccccccc" />
    <path
       style="fill:#000000;fill-opacity:1;stroke:#000000;stroke-width:0.5;stroke-miterlimit:4;stroke-dasharray:none;stroke-dashoffset:0;stroke-opacity:1"
       d="M 79.092484,80.777321 C 80.05604,81.67451 81.225438,82.283018 82.450269,82.735126 C 84.696225,83.603825 87.141372,83.711281 89.519097,83.848881 C 92.262722,83.904275 95.065265,83.708171 97.681821,82.831818 C 98.368856,82.574655 99.028565,82.251143 99.679214,81.913862 C 99.143736,82.217724 98.062858,82.840056 97.855482,82.896236 C 99.023365,82.094111 100.2987,81.157553 100.74146,79.750809 C 100.65869,78.534253 100.1957,81.920902 98.736021,82.845364 C 95.655283,84.823477 91.867028,85.164822 88.294764,85.1442 C 86.090005,85.073722 83.863477,84.895128 81.724262,84.336605 C 80.667198,83.996372 79.597092,83.601297 78.656228,83.018165 C 78.202393,82.655295 78.679028,81.037023 79.092484,80.777321 z"
       id="path3161"
       sodipodi:nodetypes="cccccccccccc" />
    <path
       style="fill:#000000;fill-opacity:1;stroke:#000000;stroke-width:0.5;stroke-miterlimit:4;stroke-dasharray:none;stroke-dashoffset:0;stroke-opacity:1"
       d="M 119.78533,77.892159 C 121.10068,81.277203 124.64397,83.408502 128.19655,83.55196 C 130.46981,83.931531 132.73614,84.464296 135.05833,84.358621 C 137.21177,84.453072 139.36896,84.292352 141.4741,83.837575 C 143.78129,83.596321 146.03302,82.971812 148.11278,81.940544 C 148.99435,81.609885 150.96248,80.607955 151.07461,80.521338 C 150.56711,80.83359 153.52896,79.503937 151.9962,80.364611 C 148.94639,82.22369 145.70347,83.869789 142.22588,84.741809 C 139.51178,85.148198 136.81057,85.815926 134.04478,85.648166 C 131.75367,85.691865 129.47209,85.429713 127.23437,84.962627 C 124.66863,84.704893 121.99401,84.051932 120.09953,82.18683 C 119.14087,81.276536 118.39575,80.159114 117.83428,78.966691 C 118.48463,78.608514 119.13498,78.250335 119.78533,77.892159 z"
       id="path3163"
       sodipodi:nodetypes="cccccsccccccc" />
    <path
       style="fill:#000000;fill-opacity:1;stroke:#000000;stroke-width:0.5;stroke-miterlimit:4;stroke-dasharray:none;stroke-dashoffset:0;stroke-opacity:1"
       id="path3165"
       d="M 128.88392,63.45489 C 128.37529,63.863626 127.96887,64.353403 127.71227,64.95268 C 127.46496,65.507024 127.37501,66.103401 127.2558,66.692217 C 127.11936,67.257956 127.05265,67.835561 127.01421,68.415138 C 126.97896,68.993545 126.96552,69.569479 127.04863,70.143562 C 127.10702,70.73766 127.43639,71.235348 127.75893,71.719823 C 128.26241,72.282371 128.7777,72.88623 129.43125,73.278352 C 130.10773,73.637101 130.81721,73.92625 131.52727,74.210726 C 132.28299,74.473152 133.08543,74.544001 133.87126,74.670465 C 134.66095,74.792706 135.45985,74.857949 136.25789,74.80994 C 137.19108,74.767881 138.09203,74.505352 139.0029,74.322763 C 139.77152,74.166299 140.52792,73.957104 141.21203,73.566227 C 142.20052,73.016542 140.27817,74.116085 139.79637,74.363364 C 139.71536,74.404938 139.93794,74.247659 139.99863,74.179782 C 140.19809,73.956695 140.31847,73.67426 140.44191,73.406366 C 140.72459,72.864107 140.87637,72.287823 140.95641,71.68566 C 140.98444,70.909555 140.43058,70.277086 140.01563,69.669637 C 139.30942,68.662141 138.31284,67.90741 137.37877,67.12331 C 136.62607,66.484896 135.77389,65.981372 134.97278,65.409919 C 134.57849,65.150256 134.14367,64.934644 133.69632,64.780814 C 133.27608,64.649658 132.83077,64.69995 132.4055,64.609125 C 131.96201,64.484403 131.50497,64.446282 131.04716,64.421891 C 130.50358,64.399479 129.95942,64.400183 129.41549,64.400077 C 128.99239,64.400501 128.56928,64.401292 128.14617,64.401794 L 129.94204,63.096717 C 130.36493,63.096284 130.78782,63.095562 131.21071,63.096269 C 131.75679,63.098136 132.30318,63.100355 132.84863,63.129485 C 133.31408,63.160536 133.77378,63.219779 134.22727,63.332693 C 134.66736,63.389607 135.12088,63.378078 135.54257,63.537891 C 135.9956,63.72038 136.44278,63.935053 136.83665,64.225871 C 137.6335,64.80443 138.46988,65.331613 139.21952,65.973678 C 140.16646,66.775452 141.18365,67.534931 141.90488,68.558913 C 142.35433,69.207925 142.93491,69.877213 142.94095,70.705043 C 142.86998,71.324198 142.75121,71.927854 142.45321,72.483626 C 141.83317,73.987065 141.32089,74.03593 139.48668,74.951704 C 138.77641,75.291229 138.02523,75.502713 137.25246,75.649527 C 136.33758,75.841965 135.42544,76.07796 134.48589,76.108997 C 133.67627,76.129953 132.86757,76.076675 132.06907,75.93625 C 131.27143,75.807008 130.45636,75.730068 129.69731,75.435276 C 128.97838,75.13924 128.25201,74.856691 127.57293,74.474393 C 126.91391,74.036517 126.38014,73.424096 125.8596,72.834825 C 125.51088,72.329862 125.15331,71.805861 125.08864,71.179191 C 124.99777,70.590706 124.99984,70.003873 125.03242,69.409287 C 125.06746,68.820131 125.12901,68.232473 125.2593,67.655754 C 125.39987,67.063003 125.45191,66.446801 125.70666,65.883619 C 125.92615,65.245396 126.31713,64.735977 126.81704,64.284344 L 128.88392,63.45489 z" />
    <path
       style="fill:#000000;fill-opacity:1;stroke:#000000;stroke-width:0.5;stroke-miterlimit:4;stroke-dasharray:none;stroke-dashoffset:0;stroke-opacity:1"
       d="M 83.424332,66.720642 C 83.137829,67.874993 81.733197,68.476763 81.768178,69.754258 C 81.718967,71.017803 82.703104,71.947303 83.428961,72.858947 C 83.963289,73.673626 84.790615,74.233461 85.701554,74.54612 C 86.995093,75.096193 88.419622,75.569856 89.835807,75.243563 C 90.522843,75.044491 91.221796,74.914862 91.92605,74.789704 C 92.176182,74.77872 92.997684,74.329073 92.397207,74.655441 C 92.099521,74.820754 91.359787,75.287098 91.304177,75.240815 C 92.120778,74.735876 92.95228,74.254353 93.804622,73.812116 C 93.258198,74.131494 92.414886,74.835396 92.034281,74.881249 C 92.761553,74.336485 92.863113,73.177717 93.80124,72.880176 C 94.142786,72.797263 94.932553,72.036706 95.053154,72.48451 C 94.664681,73.903588 93.272025,74.705184 92.002635,75.230185 C 92.289982,75.038201 93.067443,74.595287 93.097336,74.593574 C 91.935155,75.293827 90.787065,76.181526 89.379287,76.269679 C 88.467552,76.447761 87.55493,76.800462 86.612434,76.603939 C 85.268215,76.413417 83.97699,75.907459 82.791548,75.258645 C 81.88182,74.686573 81.349059,73.724271 80.661937,72.931232 C 79.960485,72.061735 79.502509,70.842915 79.958417,69.756804 C 80.310217,69.051306 81.008398,68.585764 81.314734,67.849401 C 81.802242,67.250673 82.627333,67.151711 83.273793,66.788751 L 83.349063,66.754696 L 83.424332,66.720642 L 83.424332,66.720642 z"
       id="path3171" />
    <path
       style="fill:#000000;fill-opacity:1;stroke:#000000;stroke-width:0.5;stroke-miterlimit:4;stroke-dasharray:none;stroke-dashoffset:0;stroke-opacity:1"
       d="M 59.101013,24.684521 C 64.479941,26.365082 69.513221,29.208207 73.553992,33.156751 C 76.224012,35.54477 79.033485,37.888267 81.028833,40.896671 C 81.640884,42.846911 82.35927,45.723284 85.029667,45.116255 C 90.895252,45.308836 96.770673,45.886723 102.63448,45.545844 C 102.54731,46.343908 100.92042,46.305396 101.57895,44.992589 C 101.15715,43.24648 100.15603,41.592697 99.517221,39.868086 C 97.245802,34.396119 94.620034,29.062581 92.684136,23.460137 C 91.404212,21.500092 88.782788,22.233637 86.817543,22.099475 C 81.204847,22.085044 75.582249,22.849875 70.224488,24.538166 C 67.169141,25.114005 64.015611,24.756602 60.97257,25.461316 C 60.154171,25.638204 57.079133,26.095061 58.917233,24.953209 C 60.98556,23.976817 63.387392,24.238239 65.589696,23.741914 C 68.096093,23.483161 72.572252,22.910452 75,22.094241 C 77.486911,22.094241 85.508924,20.791291 91.785465,20.844284 C 93.810725,20.532918 94.871922,22.67836 95.348919,24.300936 C 97.466829,30.051117 100.1008,35.597126 102.48786,41.238275 C 103.2511,42.829268 104.61213,45.417721 102.30767,46.419005 C 100.18521,47.285546 97.832195,46.781537 95.604297,46.906317 C 91.006139,46.847869 86.421598,46.439963 81.825423,46.323202 C 79.872918,45.195923 80.005719,42.475181 78.407631,40.960505 C 76.589428,38.435314 74.082348,36.526944 71.889544,34.348385 C 68.107581,30.901476 63.759981,27.961963 58.834979,26.447304 C 56.916677,26.005131 58.083038,25.195069 59.101013,24.684521 z"
       id="path3175"
       sodipodi:nodetypes="cccccccccccccccccccccccc" />
    <path
       style="fill:#000000;fill-opacity:1;stroke:#000000;stroke-width:0.5;stroke-miterlimit:4;stroke-dasharray:none;stroke-dashoffset:0;stroke-opacity:1"
       d="M 28.167442,52.387478 C 32.304742,52.97416 36.491361,52.680074 40.652874,52.744626 C 39.654931,54.67026 37.225428,55.150895 35.245144,54.892859 C 31.932624,54.821154 28.60692,54.951106 25.308556,54.56839 C 26.036417,53.574627 27.2634,53.178245 28.167442,52.387478 z"
       id="path3220" />
    <path
       style="fill:#000000;fill-opacity:1;stroke:#000000;stroke-width:0.5;stroke-miterlimit:4;stroke-dasharray:none;stroke-dashoffset:0;stroke-opacity:1"
       d="M 38.869274,62.876087 C 34.248037,62.618001 29.543735,63.333343 24.992527,62.229391 C 24.118721,61.110673 25.720183,60.205394 26.683814,60.030022 C 28.316278,59.672742 29.823268,60.822812 31.459671,60.67827 C 34.0947,60.87111 36.736238,60.594619 39.37273,60.732872 C 40.213306,59.930918 41.983813,61.456379 40.320895,61.831485 C 39.830672,62.170545 39.328851,62.49518 38.869274,62.876087 z"
       id="path3222" />
    <path
       style="fill:#000000;fill-opacity:1;stroke:#000000;stroke-width:0.5;stroke-miterlimit:4;stroke-dasharray:none;stroke-dashoffset:0;stroke-opacity:1"
       d="M 42.647678,70.42569 C 41.007224,73.252888 37.72584,74.558512 34.649884,75.101168 C 29.503031,75.911444 24.286724,75.137102 19.213561,74.207439 C 18.28166,74.37656 17.136486,73.614551 18.270151,72.852836 C 19.533193,71.637311 21.44787,71.863843 22.994702,72.28758 C 28.658279,73.401946 34.63569,73.922675 40.250026,72.26718 C 39.850903,72.749006 37.756266,73.66888 38.903581,72.48789 C 39.959519,71.504662 41.297021,70.890119 42.647678,70.42569 z"
       id="path3224" />
  </g>
  <g
     inkscape:groupmode="layer"
     id="layer2"
     inkscape:label="window">
    <path
       style="fill:#00ffff;fill-opacity:1;stroke:#000000;stroke-width:0.50000000000000000;stroke-miterlimit:4;stroke-dasharray:none;stroke-dashoffset:0;stroke-opacity:0"
       id="path3181"
       d="M 87.699355,27.219321 C 86.905564,27.440125 86.111474,27.662794 85.317695,27.885206 C 84.503877,28.126061 83.668963,28.306843 82.832232,28.450219 C 82.158859,28.592187 81.509027,28.82723 80.867528,29.073318 C 80.145098,29.313111 79.395008,29.444514 78.647061,29.575153 C 77.669736,29.799091 76.674209,29.925115 75.684055,30.076844 C 74.95222,30.28204 74.14995,30.244886 73.451426,30.556953 C 73.934809,30.284532 74.416423,30.008946 74.901577,29.739691 C 74.923108,29.727742 74.84889,29.76076 74.84297,29.784662 C 74.825542,29.855025 74.940846,29.894698 75.003153,29.931745 C 75.225095,30.063707 75.285329,30.066255 75.547655,30.154422 C 76.748102,30.543688 78.007569,30.682427 79.249416,30.875462 C 80.739078,31.114215 82.212386,31.442375 83.69879,31.698805 C 84.494579,31.818828 85.296682,31.909083 86.083092,32.083453 C 86.603427,32.195825 87.12801,32.272991 87.629482,32.456554 C 88.008448,32.568946 88.346407,32.767918 88.391199,33.185875 C 88.373506,33.236279 88.367585,33.292529 88.33812,33.337087 C 88.306079,33.385538 88.261628,33.427269 88.211812,33.457144 C 87.019683,34.172088 86.520133,34.503382 85.388138,34.874347 C 84.671054,35.156348 83.930384,35.395917 83.24707,35.755315 C 83.706364,35.49723 84.157873,35.224773 84.624953,34.981062 C 84.686803,34.94879 84.51521,35.067994 84.467249,35.118656 C 84.29283,35.302893 84.261687,35.500874 84.299763,35.74201 C 84.670577,36.324477 85.770096,36.504714 86.356632,36.649038 C 86.793614,36.756562 87.234155,36.849073 87.672916,36.949091 C 90.308804,37.559112 92.996544,37.893052 95.651165,38.403104 C 95.910904,38.53253 96.583315,38.518981 96.833007,38.72251 C 96.915564,38.789804 96.953594,38.990854 96.844042,39.063161 C 96.258419,39.449688 95.62769,39.763103 95.019513,40.113074 C 94.392434,40.312098 93.733287,40.376089 93.093142,40.519377 C 92.648949,40.618804 92.210205,40.741197 91.768024,40.849216 C 90.609701,41.127077 89.484818,41.525639 88.395253,42.003683 C 87.785034,42.262317 86.439628,42.937005 89.174642,41.504645 C 89.248541,41.465943 88.97307,41.647004 88.877725,41.899792 C 88.87975,41.938781 88.869536,41.980416 88.883801,42.016758 C 88.963896,42.220804 89.726669,42.568573 89.912334,42.646688 C 90.969732,42.990967 92.063863,43.230411 93.159877,43.416545 C 94.255914,43.540105 95.333134,43.779432 96.424135,43.936052 L 94.927603,44.989543 C 93.843057,44.81865 92.769041,44.584753 91.677887,44.454935 C 90.565736,44.258788 89.451866,44.023275 88.379295,43.667554 C 87.951794,43.477702 87.289587,43.217991 87.194627,42.706611 C 87.356707,41.665325 88.936879,41.29635 89.833097,40.866821 C 90.922481,40.405494 92.049235,40.032614 93.199751,39.755421 C 93.271334,39.737777 94.456869,39.445086 94.5367,39.427296 C 95.182083,39.283471 95.852366,39.213034 96.46671,38.955492 C 96.016147,39.226689 95.549936,39.473439 95.115023,39.769081 C 94.808846,39.977211 95.307552,39.768527 95.285696,39.755297 C 95.167695,39.683867 94.842879,39.590805 94.758331,39.56735 C 94.569192,39.514879 94.377857,39.470673 94.187619,39.422334 C 91.557632,38.860214 88.890445,38.488031 86.259092,37.930807 C 85.806824,37.837354 85.352999,37.751139 84.902286,37.650446 C 84.144132,37.481068 83.10092,37.356455 82.655665,36.620348 C 82.380126,35.406176 83.825339,35.122949 84.691472,34.600715 C 85.389082,34.275514 86.114735,34.013215 86.836606,33.747807 C 87.116517,33.649641 87.297778,33.592951 87.564423,33.474889 C 87.661375,33.431962 87.940467,33.279611 87.850286,33.335376 C 85.337807,34.889023 86.172475,34.243387 86.721386,34.030656 C 86.811924,33.704487 86.310388,33.577892 86.092147,33.497092 C 85.593493,33.335054 85.077292,33.252612 84.566687,33.137307 C 83.787051,32.97832 82.999189,32.867272 82.214428,32.737547 C 80.738393,32.463047 79.272953,32.130344 77.78803,31.904179 C 76.523562,31.719535 75.244058,31.574055 74.021087,31.186532 C 73.721042,31.076677 73.246416,30.943345 73.147736,30.5775 C 73.133302,30.523989 73.116822,30.442484 73.163068,30.411938 C 73.723038,30.042081 74.328335,29.745909 74.910968,29.412895 C 75.634047,29.181309 76.409041,29.158137 77.146025,28.98033 C 78.136497,28.828691 79.131012,28.698359 80.108507,28.473251 C 80.855376,28.336168 81.605162,28.193838 82.321379,27.934828 C 82.96656,27.69624 83.619691,27.46771 84.298431,27.345012 C 85.130793,27.191452 85.961727,27.013895 86.771588,26.766459 C 87.572618,26.538242 88.381452,26.334169 89.172811,26.074599 L 87.699355,27.219321 z" />
  </g>
</svg>
