<?xml version="1.0" encoding="UTF-8" standalone="no"?>
<!-- Created with Inkscape (http://www.inkscape.org/) -->
<svg
   xmlns:dc="http://purl.org/dc/elements/1.1/"
   xmlns:cc="http://creativecommons.org/ns#"
   xmlns:rdf="http://www.w3.org/1999/02/22-rdf-syntax-ns#"
   xmlns:svg="http://www.w3.org/2000/svg"
   xmlns="http://www.w3.org/2000/svg"
   xmlns:sodipodi="http://sodipodi.sourceforge.net/DTD/sodipodi-0.dtd"
   xmlns:inkscape="http://www.inkscape.org/namespaces/inkscape"
   version="1.0"
   width="240"
   height="96"
   id="svg2"
   style="display:inline"
   sodipodi:version="0.32"
   inkscape:version="0.46"
   sodipodi:docname="05melita.svg"
   inkscape:output_extension="org.inkscape.output.svg.inkscape">
  <metadata
     id="metadata52">
    <rdf:RDF>
      <cc:Work
         rdf:about="">
        <dc:format>image/svg+xml</dc:format>
        <dc:type
           rdf:resource="http://purl.org/dc/dcmitype/StillImage" />
      </cc:Work>
    </rdf:RDF>
  </metadata>
  <sodipodi:namedview
     inkscape:window-height="750"
     inkscape:window-width="1280"
     inkscape:pageshadow="2"
     inkscape:pageopacity="0.0"
     guidetolerance="10.0"
     gridtolerance="10.0"
     objecttolerance="10.0"
     borderopacity="1.0"
     bordercolor="#666666"
     pagecolor="#ffffff"
     id="base"
     showgrid="false"
     inkscape:zoom="2.4666667"
     inkscape:cx="112.90541"
     inkscape:cy="99.58852"
     inkscape:window-x="-8"
     inkscape:window-y="-8"
     inkscape:current-layer="svg2" />
  <defs
     id="defs4">
    <inkscape:perspective
       sodipodi:type="inkscape:persp3d"
       inkscape:vp_x="0 : 48 : 1"
       inkscape:vp_y="0 : 1000 : 0"
       inkscape:vp_z="240 : 48 : 1"
       inkscape:persp3d-origin="120 : 32 : 1"
       id="perspective54" />
    <linearGradient
       id="linearGradient6573">
      <stop
         id="stop6575"
         style="stop-color:#000000;stop-opacity:1"
         offset="0" />
      <stop
         id="stop6577"
         style="stop-color:#000000;stop-opacity:0"
         offset="1" />
    </linearGradient>
  </defs>
  <path
     style="fill:#e4e4e4;fill-rule:evenodd;stroke:#000000;stroke-width:0.50000000000000000;stroke-linecap:butt;stroke-linejoin:round;stroke-miterlimit:4;stroke-dasharray:none;stroke-opacity:1;fill-opacity:1"
     id="path6623"
     d="M 143.29174,29.204193 L 173.9967,74.530564 L 204.49278,29.621948" />
  <path
     style="fill:#e4e4e4;fill-opacity:1;stroke:#000000;stroke-width:0.5;stroke-linejoin:round;stroke-miterlimit:4;stroke-dasharray:none;stroke-dashoffset:0;stroke-opacity:1"
     id="path2385"
     d="M 94.414451,45.705501 C 94.414451,60.073528 83.760199,72.213901 69.513798,74.07945 C 55.267397,75.944999 41.846442,66.957246 38.146928,53.073666 C 34.447413,39.190086 41.616502,24.715768 54.90221,19.244921 C 68.187919,13.774074 83.470547,19.003126 90.620104,31.466033 L 65.798263,45.705501 L 94.414451,45.705501 z" />
  <path
     style="fill:#ffffff;fill-opacity:1;stroke:#000000;stroke-width:0.50000000000000000;stroke-linejoin:round;stroke-miterlimit:4;stroke-dasharray:none;stroke-dashoffset:0;stroke-opacity:1"
     id="path6621"
     d="M 204.70166,28.577561 C 204.70778,32.96235 190.95891,36.517763 173.9967,36.517763 C 157.03449,36.517763 143.28562,32.96235 143.29174,28.577561 C 143.28562,24.192772 157.03449,20.637359 173.9967,20.637359 C 190.95891,20.637359 204.70778,24.192772 204.70166,28.577561 L 204.70166,28.577561 z" />
  <path
     style="fill:none;fill-rule:evenodd;stroke:#000000;stroke-width:0.5;stroke-linecap:butt;stroke-linejoin:miter;stroke-miterlimit:4;stroke-dasharray:none;stroke-opacity:1"
     id="path6625"
     d="M 173.9967,74.321687 L 157.91315,35.261634 L 173.9967,28.159807" />
  <path
     style="fill:none;fill-rule:evenodd;stroke:#000000;stroke-width:0.5;stroke-linecap:round;stroke-linejoin:miter;stroke-miterlimit:4;stroke-dasharray:1.5, 1.5;stroke-dashoffset:0;stroke-opacity:1"
     id="path6627"
     d="M 173.9967,74.112809 L 173.9967,36.514898" />
  <path
     style="fill:none;fill-rule:evenodd;stroke:#000000;stroke-width:0.5;stroke-linecap:butt;stroke-linejoin:miter;stroke-miterlimit:4;stroke-dasharray:none;stroke-opacity:1"
     id="path6629"
     d="M 173.9967,28.159807 L 173.9967,35.888266" />
  <path
     style="fill:none;fill-opacity:1;stroke:#000000;stroke-width:0.5;stroke-linecap:round;stroke-linejoin:round;stroke-miterlimit:4;stroke-dasharray:none;stroke-dashoffset:0;stroke-opacity:1"
     id="path6633"
     d="M 79.140148,45.726775 C 79.103296,52.429689 74.108102,58.069017 67.45864,58.914623 C 60.809178,59.760231 54.561506,55.550651 52.848148,49.070311 C 51.13479,42.589969 54.48553,35.842635 60.68402,33.291333 C 66.882508,30.740031 74.01213,33.173643 77.356996,38.982453 L 65.772204,45.653281 L 79.140148,45.726775 z" />
  <path
     style="fill:none;fill-rule:evenodd;stroke:#000000;stroke-width:0.5;stroke-linecap:round;stroke-linejoin:round;stroke-miterlimit:4;stroke-dasharray:none;stroke-opacity:1"
     id="path6700"
     d="M 77.514595,37.144872 C 77.279608,37.719285 77.305717,38.842 77.305717,38.842 C 77.305717,38.842 76.000234,38.189259 75.347493,38.137039" />
  <path
     style="fill:none;fill-rule:evenodd;stroke:#000000;stroke-width:0.5;stroke-linecap:round;stroke-linejoin:round;stroke-miterlimit:4;stroke-dasharray:none;stroke-opacity:1"
     id="path6702"
     d="M 77.763821,47.3022 C 78.573221,46.910555 79.173743,45.892279 79.173743,45.892279 C 79.173743,45.892279 79.617607,46.910555 80.19202,47.3022" />
  <path
     d="M 52.941182,54.712227 C 52.644924,54.781736 52.484153,55.169154 52.286271,55.421727 C 51.805447,56.321719 51.54566,57.302068 51.4283,58.235295 C 51.384368,59.007915 51.696948,59.732827 52.326276,59.861923 C 52.628945,59.864665 52.887272,59.482905 53.03214,59.16992 C 53.474139,58.302352 53.825871,57.36377 53.90276,56.463608 C 53.923643,55.928422 53.835792,55.435895 53.824855,54.912855 C 53.769192,54.694937 53.512111,54.648642 53.525512,54.382161 C 53.587871,54.118299 53.882132,54.032082 54.03632,54.096685 C 54.372249,54.20848 54.416531,54.676479 54.445155,55.063715 C 54.470173,55.632001 54.529811,56.199622 54.398619,56.812713 C 54.291337,57.376018 54.042639,57.932365 53.813569,58.480404 C 53.528721,59.140805 53.068564,59.810628 52.472901,60.104841 C 52.048326,60.33131 51.600272,60.303275 51.326717,60.025404 C 50.812836,59.563287 50.732691,58.633861 50.968755,57.757219 C 51.124326,57.13649 51.313199,56.505672 51.597786,55.904609 C 51.908637,55.301208 52.39613,54.752424 52.942676,54.500605 C 53.049879,54.353576 53.465278,54.31778 53.203156,54.546952 C 53.115301,54.590542 53.000847,54.594706 52.941182,54.712227 z"
     id="path6708"
     style="fill:#000000;fill-opacity:1;stroke:#000000;stroke-width:0.49999994;stroke-linecap:round;stroke-linejoin:round;stroke-miterlimit:4;stroke-dasharray:none;stroke-dashoffset:0;stroke-opacity:1" />
  <path
     d="M 51.962511,57.059397 C 52.134047,57.030312 52.303713,57.012892 52.471621,57.00408 C 52.646179,56.997722 52.81957,56.996318 52.99277,56.995601 C 53.127817,56.995262 53.262732,56.995449 53.397672,56.995537 C 53.525506,56.99562 53.653355,56.995644 53.781206,56.995658 C 53.866512,56.995666 53.95182,56.995666 54.037127,56.995667 L 53.473664,57.405515 C 53.388351,57.405517 53.303038,57.405519 53.217727,57.405511 C 53.089885,57.405495 52.962044,57.405475 52.834243,57.405296 C 52.699743,57.405082 52.565294,57.404668 52.430774,57.40453 C 52.258613,57.4047 52.086363,57.404872 51.911898,57.414769 C 51.743084,57.426646 51.572976,57.443712 51.400183,57.480085 L 51.962511,57.059397 z"
     id="path6710"
     style="fill:#000000;fill-opacity:1;stroke:#000000;stroke-width:0.49999994;stroke-linecap:round;stroke-linejoin:round;stroke-miterlimit:4;stroke-dasharray:none;stroke-dashoffset:0;stroke-opacity:1" />
  <text
     sodipodi:linespacing="125%"
     style="font-size:6px;font-style:italic;font-variant:normal;font-weight:normal;font-stretch:normal;text-align:start;line-height:125%;writing-mode:tb-rl;text-anchor:start;fill:#000000;fill-opacity:1;stroke:none;stroke-width:1px;stroke-linecap:butt;stroke-linejoin:miter;stroke-opacity:1;font-family:Arial;-inkscape-font-specification:Arial Italic"
     xml:space="preserve"
     id="text6743"
     y="-33.202831"
     x="157.19522"><tspan
       id="tspan6745"
       y="28.812866"
       x="95.179527">A</tspan></text>
  <text
     sodipodi:linespacing="125%"
     style="font-size:6px;font-style:italic;font-variant:normal;font-weight:normal;font-stretch:normal;text-align:start;line-height:125%;writing-mode:tb-rl;text-anchor:start;fill:#000000;fill-opacity:1;stroke:none;stroke-width:1px;stroke-linecap:butt;stroke-linejoin:miter;stroke-opacity:1;font-family:Arial;-inkscape-font-specification:Arial Italic"
     xml:space="preserve"
     id="text6747"
     y="-4.728868"
     x="145.95729"><tspan
       id="tspan6749"
       y="43.163177"
       x="98.065247">B</tspan></text>
  <text
     sodipodi:linespacing="125%"
     style="font-size:6px;font-style:italic;font-variant:normal;font-weight:normal;font-stretch:normal;text-align:start;line-height:125%;writing-mode:tb-rl;text-anchor:start;fill:#000000;fill-opacity:1;stroke:none;stroke-width:1px;stroke-linecap:butt;stroke-linejoin:miter;stroke-opacity:1;font-family:Arial;-inkscape-font-specification:Arial Italic"
     xml:space="preserve"
     id="text6751"
     y="-12.159331"
     x="255.61607"><tspan
       id="tspan6753"
       y="74.733727"
       x="168.72302">C</tspan></text>
  <text
     sodipodi:linespacing="125%"
     style="font-size:6px;font-style:italic;font-variant:normal;font-weight:normal;font-stretch:normal;text-align:start;line-height:125%;writing-mode:tb-rl;text-anchor:start;fill:#000000;fill-opacity:1;stroke:none;stroke-width:1px;stroke-linecap:butt;stroke-linejoin:miter;stroke-opacity:1;display:inline;font-family:Arial;-inkscape-font-specification:Arial Italic"
     xml:space="preserve"
     id="text6755"
     y="29.157335"
     x="76.284798"><tspan
       id="tspan6757"
       y="42.314213"
       x="63.127922">C</tspan></text>
  <path
     style="fill:#ffffff;fill-opacity:1;stroke:#000000;stroke-width:0.5;stroke-linecap:round;stroke-linejoin:round;stroke-miterlimit:4;stroke-dasharray:none;stroke-dashoffset:0;stroke-opacity:1;display:inline"
     id="path6771"
     d="M 66.461152,45.535611 C 66.461312,45.828618 66.223828,46.066232 65.930824,46.066232 C 65.637816,46.066232 65.400332,45.828618 65.400492,45.535611 C 65.400332,45.242604 65.637816,45.00499 65.930824,45.00499 C 66.223828,45.00499 66.461312,45.242604 66.461152,45.535611 z" />
  <path
     style="fill:#ffffff;fill-opacity:1;stroke:#000000;stroke-width:0.5;stroke-linecap:round;stroke-linejoin:round;stroke-miterlimit:4;stroke-dasharray:none;stroke-dashoffset:0;stroke-opacity:1;display:inline"
     id="path6773"
     d="M 94.833812,45.712387 C 94.833972,46.005394 94.596488,46.243008 94.303484,46.243008 C 94.010476,46.243008 93.772992,46.005394 93.773152,45.712387 C 93.772992,45.41938 94.010476,45.181766 94.303484,45.181766 C 94.596488,45.181766 94.833972,45.41938 94.833812,45.712387 z" />
  <path
     style="fill:#ffffff;fill-opacity:1;stroke:#000000;stroke-width:0.5;stroke-linecap:round;stroke-linejoin:round;stroke-miterlimit:4;stroke-dasharray:none;stroke-dashoffset:0;stroke-opacity:1;display:inline"
     id="path6775"
     d="M 174.46772,28.091048 C 174.46788,28.384055 174.23039,28.621669 173.93739,28.621669 C 173.64438,28.621669 173.4069,28.384055 173.40706,28.091048 C 173.4069,27.798041 173.64438,27.560427 173.93739,27.560427 C 174.23039,27.560427 174.46788,27.798041 174.46772,28.091048 z" />
  <path
     style="fill:#ffffff;fill-opacity:1;stroke:#000000;stroke-width:0.5;stroke-linecap:round;stroke-linejoin:round;stroke-miterlimit:4;stroke-dasharray:none;stroke-dashoffset:0;stroke-opacity:1;display:inline"
     id="path6777"
     d="M 91.121501,31.481863 C 91.121661,31.77487 90.884177,32.012484 90.591173,32.012484 C 90.298165,32.012484 90.060681,31.77487 90.060841,31.481863 C 90.060681,31.188856 90.298165,30.951242 90.591173,30.951242 C 90.884177,30.951242 91.121661,31.188856 91.121501,31.481863 z" />
  <path
     style="fill:#ffffff;fill-opacity:1;stroke:#000000;stroke-width:0.5;stroke-linecap:round;stroke-linejoin:round;stroke-miterlimit:4;stroke-dasharray:none;stroke-dashoffset:0;stroke-opacity:1;display:inline"
     id="path6781"
     d="M 174.5601,74.4386 C 174.56026,74.731607 174.32277,74.969221 174.02977,74.969221 C 173.73676,74.969221 173.49928,74.731607 173.49944,74.4386 C 173.49928,74.145593 173.73676,73.907979 174.02977,73.907979 C 174.32277,73.907979 174.56026,74.145593 174.5601,74.4386 z" />
  <path
     style="fill:#ffffff;fill-opacity:1;stroke:#000000;stroke-width:0.5;stroke-linecap:round;stroke-linejoin:round;stroke-miterlimit:4;stroke-dasharray:none;stroke-dashoffset:0;stroke-opacity:1;display:inline"
     id="path6783"
     d="M 158.6502,35.459339 C 158.65036,35.752346 158.41287,35.98996 158.11987,35.98996 C 157.82686,35.98996 157.58938,35.752346 157.58954,35.459339 C 157.58938,35.166332 157.82686,34.928718 158.11987,34.928718 C 158.41287,34.928718 158.65036,35.166332 158.6502,35.459339 z" />
  <text
     sodipodi:linespacing="125%"
     style="font-size:6px;font-style:italic;font-variant:normal;font-weight:normal;font-stretch:normal;text-align:start;line-height:125%;writing-mode:tb-rl;text-anchor:start;fill:#000000;fill-opacity:1;stroke:none;stroke-width:1px;stroke-linecap:butt;stroke-linejoin:miter;stroke-opacity:1;display:inline;font-family:Arial;-inkscape-font-specification:Arial Italic"
     xml:space="preserve"
     id="text6785"
     y="-118.10007"
     x="321.33676"><tspan
       id="tspan6787"
       y="25.748539"
       x="177.48817">D</tspan></text>
  <text
     sodipodi:linespacing="125%"
     style="font-size:6px;font-style:italic;font-variant:normal;font-weight:normal;font-stretch:normal;text-align:start;line-height:125%;writing-mode:lr-tb;text-anchor:start;fill:#000000;fill-opacity:1;stroke:none;stroke-width:1px;stroke-linecap:butt;stroke-linejoin:miter;stroke-opacity:1;display:inline;font-family:Arial;-inkscape-font-specification:Arial Italic"
     xml:space="preserve"
     id="text6789"
     y="20.15423"
     x="131.81723"><tspan
       id="tspan6791"
       y="20.15423"
       x="131.81723">A=B</tspan></text>
  <path
     style="fill:none;fill-rule:evenodd;stroke:#000000;stroke-width:0.5;stroke-linecap:round;stroke-linejoin:miter;stroke-miterlimit:4;stroke-dasharray:2, 2;stroke-dashoffset:0;stroke-opacity:1"
     id="path6797"
     d="M 176.15109,76.117979 L 207.08701,31.216698" />
  <path
     style="fill:none;fill-rule:evenodd;stroke:#000000;stroke-width:0.5;stroke-linecap:round;stroke-linejoin:round;stroke-miterlimit:4;stroke-dasharray:none;stroke-opacity:1"
     id="path6799"
     d="M 204.88856,32.929009 L 207.31924,30.807689 L 206.34697,33.857087" />
  <path
     style="fill:none;fill-rule:evenodd;stroke:#000000;stroke-width:0.5;stroke-linecap:round;stroke-linejoin:round;stroke-miterlimit:4;stroke-dasharray:none;stroke-opacity:1"
     id="path6801"
     d="M 176.54872,74.130515 L 175.90809,76.443015 L 177.82996,74.98989" />
  <text
     sodipodi:linespacing="100%"
     style="font-size:9px;font-style:italic;font-variant:normal;font-weight:normal;font-stretch:normal;text-align:start;line-height:100%;writing-mode:lr-tb;text-anchor:start;fill:#000000;fill-opacity:1;stroke:none;stroke-width:1px;stroke-linecap:butt;stroke-linejoin:miter;stroke-opacity:1;font-family:Arial;-inkscape-font-specification:Arial Italic"
     xml:space="preserve"
     id="text6803"
     transform="matrix(0.5507689,-0.8346578,0.8346578,0.5507689,0,0)"
     y="195.23825"
     x="52.732265"><tspan
       style="font-size:6px;font-style:italic;font-variant:normal;font-weight:normal;font-stretch:normal;text-align:start;line-height:100%;writing-mode:lr-tb;text-anchor:start;font-family:Arial;-inkscape-font-specification:Arial Italic"
       id="tspan6805"
       y="195.23825"
       x="52.732265">3 inch</tspan></text>
  <path
     style="fill:none;fill-rule:evenodd;stroke:#000000;stroke-width:0.25;stroke-linecap:round;stroke-linejoin:miter;stroke-miterlimit:4;stroke-dasharray:none;stroke-opacity:1"
     id="path6807"
     d="M 145.39195,17.958446 C 151.0488,17.958446 156.3521,26.443727 157.76632,33.161242" />
  <path
     style="fill:#000000;fill-opacity:1;fill-rule:evenodd;stroke:#000000;stroke-width:1px;stroke-linecap:round;stroke-linejoin:round;stroke-opacity:1"
     id="path6813"
     d="M 111.09727,48.717591 L 140.79575,48.717591 L 129.2106,45.371397 L 133.72468,48.717591 L 129.10704,51.710232 L 140.77615,48.717591" />
  <text
     sodipodi:linespacing="100%"
     style="font-size:8px;font-style:italic;font-variant:normal;font-weight:normal;font-stretch:normal;text-align:start;line-height:100%;writing-mode:lr-tb;text-anchor:start;fill:#000000;fill-opacity:1;stroke:none;stroke-width:1px;stroke-linecap:butt;stroke-linejoin:miter;stroke-opacity:1;font-family:Palatino Linotype;-inkscape-font-specification:Palatino Linotype Italic"
     xml:space="preserve"
     id="text6817"
     y="58.911766"
     x="107.97059"><tspan
       id="tspan6819"
       y="58.911766"
       x="107.97059">fold &amp; glue</tspan></text>
</svg>
