<?xml version="1.0" encoding="UTF-8" standalone="no"?>
<!-- Created with Inkscape (http://www.inkscape.org/) -->

<svg
   xmlns:dc="http://purl.org/dc/elements/1.1/"
   xmlns:cc="http://creativecommons.org/ns#"
   xmlns:rdf="http://www.w3.org/1999/02/22-rdf-syntax-ns#"
   xmlns:svg="http://www.w3.org/2000/svg"
   xmlns="http://www.w3.org/2000/svg"
   xmlns:sodipodi="http://sodipodi.sourceforge.net/DTD/sodipodi-0.dtd"
   xmlns:inkscape="http://www.inkscape.org/namespaces/inkscape"
   width="150"
   height="250"
   id="svg7440"
   version="1.1"
   inkscape:version="0.48.2 r9819"
   sodipodi:docname="09once-the-rockets-are-up.pdf">
  <defs
     id="defs7442">
    <marker
       inkscape:stockid="Arrow2Mend"
       orient="auto"
       refY="0.0"
       refX="0.0"
       id="Arrow2Mend"
       style="overflow:visible;">
      <path
         id="path4783"
         style="font-size:12.0;fill-rule:evenodd;stroke-width:0.62500000;stroke-linejoin:round;"
         d="M 8.7185878,4.0337352 L -2.2072895,0.016013256 L 8.7185884,-4.0017078 C 6.9730900,-1.6296469 6.9831476,1.6157441 8.7185878,4.0337352 z "
         transform="scale(0.6) rotate(180) translate(0,0)" />
    </marker>
    <marker
       inkscape:stockid="Arrow1Lstart"
       orient="auto"
       refY="0.0"
       refX="0.0"
       id="Arrow1Lstart"
       style="overflow:visible">
      <path
         id="path4756"
         d="M 0.0,0.0 L 5.0,-5.0 L -12.5,0.0 L 5.0,5.0 L 0.0,0.0 z "
         style="fill-rule:evenodd;stroke:#000000;stroke-width:1.0pt;marker-start:none"
         transform="scale(0.8) translate(12.5,0)" />
    </marker>
    <marker
       inkscape:stockid="Arrow1Lend"
       orient="auto"
       refY="0.0"
       refX="0.0"
       id="Arrow1Lend"
       style="overflow:visible;">
      <path
         id="path4759"
         d="M 0.0,0.0 L 5.0,-5.0 L -12.5,0.0 L 5.0,5.0 L 0.0,0.0 z "
         style="fill-rule:evenodd;stroke:#000000;stroke-width:1.0pt;marker-start:none;"
         transform="scale(0.8) rotate(180) translate(12.5,0)" />
    </marker>
    <linearGradient
       id="linearGradient7989">
      <stop
         style="stop-color:#000000;stop-opacity:0;"
         offset="0"
         id="stop7991" />
      <stop
         id="stop9052"
         offset="0.5"
         style="stop-color:#bba141;stop-opacity:0.16239317;" />
      <stop
         style="stop-color:#8f6d29;stop-opacity:0.98290598;"
         offset="1"
         id="stop7993" />
    </linearGradient>
  </defs>
  <sodipodi:namedview
     id="base"
     pagecolor="#ffffff"
     bordercolor="#666666"
     borderopacity="1.0"
     inkscape:pageopacity="0.0"
     inkscape:pageshadow="2"
     inkscape:zoom="2.152"
     inkscape:cx="66.86803"
     inkscape:cy="125"
     inkscape:document-units="px"
     inkscape:current-layer="layer1"
     showgrid="false"
     showguides="false"
     inkscape:guide-bbox="true"
     inkscape:window-width="1237"
     inkscape:window-height="756"
     inkscape:window-x="0"
     inkscape:window-y="0"
     inkscape:window-maximized="0">
    <sodipodi:guide
       orientation="1,0"
       position="73.420074,26.951673"
       id="guide7467" />
    <sodipodi:guide
       orientation="0,1"
       position="73.420074,116.93384"
       id="guide7475" />
    <sodipodi:guide
       orientation="0,1"
       position="73.420074,26.951673"
       id="guide8058" />
    <sodipodi:guide
       orientation="0,1"
       position="73.420074,207.24907"
       id="guide8060" />
    <sodipodi:guide
       orientation="1,0"
       position="17.193309,148.2342"
       id="guide8062" />
    <sodipodi:guide
       orientation="1,0"
       position="134.75836,26.951673"
       id="guide8066" />
  </sodipodi:namedview>
  <metadata
     id="metadata7445">
    <rdf:RDF>
      <cc:Work
         rdf:about="">
        <dc:format>image/svg+xml</dc:format>
        <dc:type
           rdf:resource="http://purl.org/dc/dcmitype/StillImage" />
        <dc:title></dc:title>
      </cc:Work>
    </rdf:RDF>
  </metadata>
  <g
     inkscape:label="Layer 1"
     inkscape:groupmode="layer"
     id="layer1"
     transform="translate(0,-802.36218)">
    <path
       sodipodi:end="5.4136116"
       sodipodi:start="4.1019082"
       transform="translate(0,802.36218)"
       d="m 21.826543,149.3048 c 33.450949,-23.40345 78.464677,-21.35973 109.657237,4.97867 l -58.063706,68.76485 z"
       sodipodi:ry="90"
       sodipodi:rx="90"
       sodipodi:cy="223.04832"
       sodipodi:cx="73.420074"
       id="path7479"
       style="color:#000000;fill:#e9b96e;fill-opacity:1;stroke:#8f5902;stroke-width:0.20000000000000001;marker:none;visibility:visible;display:inline;overflow:visible;enable-background:accumulate"
       sodipodi:type="arc" />
    <g
       id="g8045"
       transform="matrix(0.24033167,0,0,0.24033167,18.52385,713.96749)">
      <path
         sodipodi:nodetypes="cccccccccc"
         inkscape:connector-curvature="0"
         d="m 229.1487,911.09824 c 5.11153,0 6.50633,1.68415 9.75837,7.43494 1.88808,-6.14761 3.19522,-9.11984 3.71747,-13.94052 -1.91668,-2.52659 -3.63093,-4.03729 -6.97026,-5.5762 1.85873,-12.54647 3.25279,-38.10409 -7.43495,-57.62082 -10.11089,19.35957 -9.90678,38.63792 -7.02974,57.62081 -3.33933,1.34393 -5.19882,3.56625 -6.97026,5.57621 1.97463,5.54687 2.99128,12.00479 3.71747,13.94052 3.97823,-4.73413 4.35637,-7.43494 9.4679,-7.43494 z"
         style="fill:none;stroke:#000000;stroke-width:4.16091633px;stroke-linecap:butt;stroke-linejoin:miter;stroke-opacity:1"
         id="path8035" />
      <path
         transform="translate(-1.1285776,792.36218)"
         d="m 232.54718,72.229836 c 0,1.656854 -1.34315,3 -3,3 -1.65685,0 -3,-1.343146 -3,-3 0,-1.656855 1.34315,-3 3,-3 1.65685,0 3,1.343145 3,3 z"
         sodipodi:ry="3"
         sodipodi:rx="3"
         sodipodi:cy="72.229836"
         sodipodi:cx="229.54718"
         id="path8041"
         style="color:#000000;fill:#ffffff;fill-opacity:1;fill-rule:nonzero;stroke:#000000;stroke-width:4.16091633;stroke-miterlimit:4;stroke-dasharray:none;marker:none;visibility:visible;display:inline;overflow:visible;enable-background:accumulate"
         sodipodi:type="arc" />
      <path
         sodipodi:type="arc"
         style="color:#000000;fill:#ffffff;fill-opacity:1;fill-rule:nonzero;stroke:#000000;stroke-width:4.16091633;stroke-miterlimit:4;stroke-dasharray:none;marker:none;visibility:visible;display:inline;overflow:visible;enable-background:accumulate"
         id="path8043"
         sodipodi:cx="229.54718"
         sodipodi:cy="72.229836"
         sodipodi:rx="3"
         sodipodi:ry="3"
         d="m 232.54718,72.229836 c 0,1.656854 -1.34315,3 -3,3 -1.65685,0 -3,-1.343146 -3,-3 0,-1.656855 1.34315,-3 3,-3 1.65685,0 3,1.343145 3,3 z"
         transform="translate(-1.1285776,804.36218)" />
    </g>
    <g
       transform="matrix(0.24033167,0,0,0.24033167,18.52385,623.96749)"
       id="g8050">
      <path
         id="path8052"
         style="fill:none;stroke:#000000;stroke-width:4.16091633px;stroke-linecap:butt;stroke-linejoin:miter;stroke-opacity:1"
         d="m 229.1487,911.09824 c 5.11153,0 6.50633,1.68415 9.75837,7.43494 1.88808,-6.14761 3.19522,-9.11984 3.71747,-13.94052 -1.91668,-2.52659 -3.63093,-4.03729 -6.97026,-5.5762 1.85873,-12.54647 3.25279,-38.10409 -7.43495,-57.62082 -10.11089,19.35957 -9.90678,38.63792 -7.02974,57.62081 -3.33933,1.34393 -5.19882,3.56625 -6.97026,5.57621 1.97463,5.54687 2.99128,12.00479 3.71747,13.94052 3.97823,-4.73413 4.35637,-7.43494 9.4679,-7.43494 z"
         inkscape:connector-curvature="0"
         sodipodi:nodetypes="cccccccccc" />
      <path
         sodipodi:type="arc"
         style="color:#000000;fill:#ffffff;fill-opacity:1;fill-rule:nonzero;stroke:#000000;stroke-width:4.16091633;stroke-miterlimit:4;stroke-dasharray:none;marker:none;visibility:visible;display:inline;overflow:visible;enable-background:accumulate"
         id="path8054"
         sodipodi:cx="229.54718"
         sodipodi:cy="72.229836"
         sodipodi:rx="3"
         sodipodi:ry="3"
         d="m 232.54718,72.229836 c 0,1.656854 -1.34315,3 -3,3 -1.65685,0 -3,-1.343146 -3,-3 0,-1.656855 1.34315,-3 3,-3 1.65685,0 3,1.343145 3,3 z"
         transform="translate(-1.1285776,792.36218)" />
      <path
         transform="translate(-1.1285776,804.36218)"
         d="m 232.54718,72.229836 c 0,1.656854 -1.34315,3 -3,3 -1.65685,0 -3,-1.343146 -3,-3 0,-1.656855 1.34315,-3 3,-3 1.65685,0 3,1.343145 3,3 z"
         sodipodi:ry="3"
         sodipodi:rx="3"
         sodipodi:cy="72.229836"
         sodipodi:cx="229.54718"
         id="path8056"
         style="color:#000000;fill:#ffffff;fill-opacity:1;fill-rule:nonzero;stroke:#000000;stroke-width:4.16091633;stroke-miterlimit:4;stroke-dasharray:none;marker:none;visibility:visible;display:inline;overflow:visible;enable-background:accumulate"
         sodipodi:type="arc" />
    </g>
    <path
       style="fill:none;stroke:#000000;stroke-width:1px;stroke-linecap:butt;stroke-linejoin:miter;stroke-opacity:1"
       d="m 17.193309,223.04833 0,-89.98217"
       id="path8064"
       inkscape:connector-curvature="0"
       transform="translate(0,802.36218)" />
    <path
       style="fill:none;stroke:#000000;stroke-width:0.5;stroke-linecap:butt;stroke-linejoin:miter;stroke-opacity:1;marker-start:url(#Arrow1Lstart);marker-end:url(#Arrow1Lend);stroke-miterlimit:4;stroke-dasharray:none"
       d="m 134.75836,223.04833 0,-177.832682"
       id="path8068"
       inkscape:connector-curvature="0"
       transform="translate(0,802.36218)"
       sodipodi:nodetypes="cc" />
    <path
       style="fill:none;stroke:#000000;stroke-width:0.2;stroke-linecap:butt;stroke-linejoin:miter;stroke-opacity:1;stroke-miterlimit:4;stroke-dasharray:none"
       d="m 73.420074,42.75093 74.431646,0"
       id="path8070"
       inkscape:connector-curvature="0"
       sodipodi:nodetypes="cc"
       transform="translate(0,802.36218)" />
    <path
       sodipodi:nodetypes="cc"
       inkscape:connector-curvature="0"
       id="path8072"
       d="m 11.420074,935.11311 74.431646,0"
       style="fill:none;stroke:#000000;stroke-width:0.2;stroke-linecap:butt;stroke-linejoin:miter;stroke-miterlimit:4;stroke-opacity:1;stroke-dasharray:none" />
    <path
       style="fill:none;stroke:#000000;stroke-width:0.2;stroke-linecap:butt;stroke-linejoin:miter;stroke-miterlimit:4;stroke-opacity:1;stroke-dasharray:none"
       d="M 6.9702599,1025.4105 147.85172,1025.1131"
       id="path8074"
       inkscape:connector-curvature="0"
       sodipodi:nodetypes="cc" />
    <text
       xml:space="preserve"
       style="font-size:10px;font-style:normal;font-variant:normal;font-weight:normal;font-stretch:normal;text-align:start;line-height:125%;letter-spacing:0px;word-spacing:0px;writing-mode:lr-tb;text-anchor:start;fill:#000000;fill-opacity:1;stroke:none;font-family:Lucida Sans Unicode;-inkscape-font-specification:Lucida Sans Unicode"
       x="20.910782"
       y="184.94424"
       id="text8628"
       sodipodi:linespacing="125%"
       transform="translate(0,802.36218)"><tspan
         sodipodi:role="line"
         id="tspan8630"
         x="20.910782"
         y="184.94424">$R$</tspan></text>
    <text
       xml:space="preserve"
       style="font-size:10px;font-style:normal;font-variant:normal;font-weight:normal;font-stretch:normal;text-align:start;line-height:125%;letter-spacing:0px;word-spacing:0px;writing-mode:lr-tb;text-anchor:start;fill:#000000;fill-opacity:1;stroke:none;font-family:Lucida Sans Unicode;-inkscape-font-specification:Lucida Sans Unicode"
       x="138.31227"
       y="932.49231"
       id="text8632"
       sodipodi:linespacing="125%"><tspan
         sodipodi:role="line"
         id="tspan8634"
         x="138.31227"
         y="932.49231">$2R$</tspan></text>
    <path
       style="fill:none;stroke:#000000;stroke-width:1px;stroke-linecap:butt;stroke-linejoin:miter;stroke-opacity:1;marker-end:url(#Arrow2Mend)"
       d="m 73.420074,107.80669 0,-14.869887"
       id="path8636"
       inkscape:connector-curvature="0"
       transform="translate(0,802.36218)" />
    <path
       style="fill:none;stroke:#000000;stroke-width:1px;stroke-linecap:butt;stroke-linejoin:miter;stroke-opacity:1;marker-end:url(#Arrow2Mend)"
       d="m 73.420074,72.490706 0,-17.657992"
       id="path8638"
       inkscape:connector-curvature="0"
       transform="translate(0,802.36218)" />
  </g>
</svg>
